<svg width="140" height="140" viewBox="0 0 140 140" fill="none" xmlns="http://www.w3.org/2000/svg">
<path d="M44.2342 79.4809C38.3577 80.9166 38.7115 61.1181 33.3735 60.2002C27.1227 59.4413 28.1944 82.9062 29.143 89.9057C30.2558 98.1871 32.6863 106.387 36.4553 103.146C36.2656 107.366 38.1013 123.38 43.8342 130.426C51.0645 139.323 56.0692 140.435 57.7358 139.881C59.4023 139.328 61.6329 134.877 61.6329 134.877L61.5919 134.595C67.9819 136.505 74.7995 136.444 81.1545 134.42C81.5237 135.113 83.8517 139.364 85.385 139.876C87.0515 140.43 92.0511 139.323 99.2865 130.421C102.297 126.718 109.481 109.463 109.481 109.463C108.527 108.186 106.163 105.433 105.378 102.551C107.804 105.956 108.035 97.5308 111.25 87.3469C114.583 76.7836 116.131 58.9952 112.85 61.3386C109.019 64.0718 106.947 76.0965 98.7071 69.1227C102.573 62.4206 104.922 62.2206 105.989 49.9395C107.055 37.6583 101.717 11.5782 71.986 13.1063C44.4188 14.5165 38.9577 46.3346 50.4491 58.3901C54.1976 62.559 48.5005 75.6658 44.2342 79.4809Z" fill="#296F8E"/>
<path d="M90.2053 65.9131C88.708 75.656 101.635 113.089 68.248 113.048C59.3512 112.689 28.0715 105.956 51.7005 63.6877C57.5154 61.2161 43.0396 29.1005 68.6736 29.1877C74.7911 30.3004 101.02 26.0392 100.22 38.4178C99.9533 51.9142 91.3181 58.688 90.2053 65.9131Z" fill="white"/>
<path d="M100.297 36.5455C100.297 46.5242 94.1437 55.5492 84.1649 55.5492C74.1862 55.5492 69.8429 40.5093 59.6898 38.8735C55.6645 38.2377 51.4289 59.1387 49.4342 55.5492C40.1374 41.822 43.9166 28.7512 52.5109 21.7774C56.4644 19.8391 62.2537 25.5617 67.2636 26.5668C73.0016 27.7205 77.7654 19.9467 88.2877 21.0236C94.8103 21.6799 100.297 30.7972 100.297 36.5455Z" fill="#CAE4ED"/>
<path d="M51.1621 45.0175C52.2525 45.0165 53.3181 44.6924 54.2245 44.0862C55.1308 43.48 55.8372 42.6188 56.2545 41.6114C56.6718 40.604 56.7812 39.4956 56.569 38.426C56.3567 37.3565 55.8324 36.3738 55.062 35.6021C54.2917 34.8304 53.31 34.3042 52.2409 34.0899C51.1718 33.8757 50.0631 33.9831 49.0549 34.3985C48.0468 34.8139 47.1843 35.5187 46.5764 36.4239C45.9685 37.3291 45.6425 38.3942 45.6394 39.4846C45.6374 40.2109 45.7788 40.9304 46.0555 41.602C46.3322 42.2735 46.7387 42.8838 47.2518 43.3978C47.7649 43.9119 48.3745 44.3196 49.0455 44.5975C49.7165 44.8754 50.4358 45.0182 51.1621 45.0175Z" fill="#161616"/>
<path d="M57.9464 60.9027C57.9464 66.1228 44.0295 88.1263 43.0398 96.5513C47.9369 91.4645 77.268 61.1694 77.268 55.9236C77.268 50.6778 72.7658 52.0777 67.5251 52.0777C62.2845 52.0777 57.9464 55.6826 57.9464 60.9027Z" fill="#D6801C"/>
<path d="M50.1417 42.6946C50.5726 42.6946 50.9937 42.5669 51.352 42.3277C51.7103 42.0884 51.9896 41.7484 52.1547 41.3504C52.3198 40.9525 52.3632 40.5146 52.2796 40.092C52.1959 39.6694 51.9888 39.281 51.6846 38.9761C51.3803 38.6711 50.9925 38.4631 50.57 38.3784C50.1476 38.2938 49.7096 38.3362 49.3113 38.5004C48.913 38.6645 48.5723 38.9431 48.3322 39.3008C48.0921 39.6585 47.9634 40.0793 47.9624 40.5101C47.9611 40.7969 48.0165 41.0812 48.1255 41.3465C48.2344 41.6118 48.3948 41.8529 48.5974 42.056C48.8 42.259 49.0407 42.42 49.3058 42.5296C49.5708 42.6392 49.8549 42.6953 50.1417 42.6946Z" fill="white"/>
<path d="M32.4865 74.2355C28.6202 87.6601 32.0866 98.7465 36.4555 103.141C42.3371 105.367 49.1161 74.3586 68.7607 58.6162C71.94 55.9241 73.6065 54.8472 75.9397 54.6575C69.0376 60.2109 58.6487 70.6871 53.0696 78.6301C49.193 84.1527 38.6707 100.946 43.6549 101.705C44.8907 101.89 50.9467 83.0451 76.6627 65.7746C78.8677 62.6312 80.9957 58.6367 78.0318 53.1704C76.1433 49.8956 74.4249 46.5256 72.8835 43.0737C71.0734 39.1868 71.1247 27.0903 65.361 25.7109C60.9152 24.6546 51.4851 36.0948 46.6034 42.4892C39.1578 52.2577 35.5273 63.6876 32.4865 74.2355Z" fill="#F3B761"/>
<mask id="mask0" mask-type="alpha" maskUnits="userSpaceOnUse" x="28" y="13" width="87" height="127">
<path d="M44.0901 79.4753C38.2161 80.9103 38.5667 61.1103 33.2285 60.1953C26.979 59.4353 28.0507 82.9003 28.9971 89.9003C30.1138 98.1853 32.5425 106.385 36.3132 103.145C36.1229 107.365 37.9607 123.38 43.6894 130.425C50.9204 139.32 55.9281 140.435 57.5956 139.88C59.2631 139.325 61.4915 134.875 61.4915 134.875L61.4515 134.595C64.461 135.495 67.6459 135.985 70.9459 135.985C74.4562 135.985 77.8364 135.435 81.0162 134.42C81.3818 135.11 83.7103 139.365 85.2426 139.875C86.9102 140.43 91.9178 139.32 99.1488 130.42C102.158 126.715 109.344 109.46 109.344 109.46C108.388 108.185 106.024 105.43 105.228 102.55C107.657 105.955 107.887 97.5253 111.102 87.3453C114.437 76.7803 115.984 58.9903 112.699 61.3353C108.869 64.0653 106.8 76.0903 98.5579 69.1153C102.424 62.4153 104.772 62.2153 105.839 49.9353C106.906 37.6553 101.567 11.5703 71.8372 13.0953C44.2653 14.5053 36.8792 43.4236 50.291 58.3821C54.0568 62.5821 48.3565 75.6703 44.0901 79.4753Z" fill="#3F7494"/>
</mask>
<g mask="url(#mask0)">
<g style="mix-blend-mode:darken" opacity="0.2">
<path d="M103.746 24.2158C102.684 30.9608 94.8764 36.0174 71.9301 37.034C49.3651 38.0337 38.782 26.7158 41.0905 22.8358C44.9263 16.3958 56.4538 15.0908 73.7251 15.0908C90.9964 15.0908 104.812 17.4308 103.746 24.2158Z" fill="#163B4B"/>
</g>
</g>
<path d="M48.7163 84.6606C43.2398 94.4035 37.5581 108.049 34.0353 105.582C30.5125 103.116 22.7233 93.5984 30.3843 69.1182C32.1585 79.1789 35.348 88.1988 48.7163 84.6606Z" fill="#854400"/>
<path d="M81.9443 45.309C83.0361 45.3059 84.1026 44.9793 85.0089 44.3704C85.9151 43.7615 86.6206 42.8976 87.0361 41.8879C87.4516 40.8782 87.5584 39.768 87.3432 38.6976C87.128 37.6272 86.6003 36.6446 85.8268 35.874C85.0533 35.1034 84.0687 34.5793 82.9975 34.368C81.9263 34.1568 80.8165 34.2678 79.8084 34.687C78.8002 35.1062 77.939 35.8149 77.3334 36.7234C76.7279 37.632 76.4052 38.6996 76.4063 39.7914C76.4062 40.5177 76.5496 41.2369 76.8282 41.9077C77.1068 42.5784 77.515 43.1876 78.0295 43.7002C78.5441 44.2128 79.1547 44.6188 79.8265 44.8949C80.4983 45.171 81.218 45.3117 81.9443 45.309Z" fill="#161616"/>
<path d="M80.6366 43.2737C81.0678 43.2737 81.4894 43.1457 81.8479 42.906C82.2064 42.6664 82.4857 42.3257 82.6505 41.9272C82.8153 41.5286 82.8582 41.0902 82.7737 40.6673C82.6892 40.2444 82.4811 39.8561 82.1758 39.5515C81.8705 39.247 81.4817 39.0398 81.0586 38.9563C80.6355 38.8728 80.1972 38.9167 79.7991 39.0824C79.4009 39.2481 79.0609 39.5283 78.8221 39.8873C78.5832 40.2464 78.4563 40.6682 78.4573 41.0995C78.4573 41.3854 78.5137 41.6686 78.6233 41.9327C78.7329 42.1968 78.8935 42.4367 79.0959 42.6387C79.2983 42.8407 79.5386 43.0007 79.803 43.1097C80.0674 43.2186 80.3506 43.2744 80.6366 43.2737Z" fill="white"/>
<g opacity="0.2">
<path opacity="0.2" d="M103.886 24.2132C102.825 30.9563 95.0151 36.0072 72.0937 37.0328C49.5313 38.0583 38.9475 26.7105 41.255 22.8338C45.0906 16.3933 56.6385 15.0908 73.8885 15.0908C91.1385 15.0908 104.953 17.4342 103.886 24.2132Z" fill="#1F576F"/>
</g>
<path d="M103.887 24.2132C102.825 30.9563 80.8115 35.5303 65.9408 34.4073C48.7164 33.11 38.9274 26.7105 41.2349 22.8338C45.0705 16.3933 56.6184 15.0908 73.8684 15.0908C91.1184 15.0908 104.953 17.4342 103.887 24.2132Z" fill="#F5D8AF"/>
<path d="M96.7179 17.8858C96.7179 24.6289 83.8727 25.5212 73.8888 25.5212C63.905 25.5212 49.5983 24.2033 51.1623 17.6448C53.3314 8.49167 57.4644 0 73.9247 0C93.5951 0 96.7179 11.794 96.7179 17.8858Z" fill="#F5D8AF"/>
<path d="M96.7179 17.3782C88.2211 28.8081 52.5058 24.5572 51.1624 17.6449C51.5982 15.445 51.1213 17.0706 52.1366 14.2041C57.0029 17.4654 64.9562 18.9884 73.2479 19.3319C81.1652 19.6652 89.8364 19.2704 96.6615 16.6603C96.7128 17.3628 96.7179 17.3782 96.7179 17.3782Z" fill="#F3B761"/>
<path d="M91.5641 122.965L88.8207 62.0059L48.9929 64.4929L50.6492 126.924L50.7466 126.965L91.5641 122.965Z" fill="#48A8A1"/>
<path d="M48.7519 64.5084L24.405 53.2272C24.187 53.126 23.9463 53.0834 23.7067 53.1035C23.4672 53.1236 23.2369 53.2057 23.0388 53.3418C22.8406 53.4779 22.6813 53.6633 22.5765 53.8796C22.4717 54.096 22.425 54.3359 22.4411 54.5758L26.6664 115.187C26.6828 115.435 26.7663 115.674 26.9082 115.878C27.05 116.082 27.2447 116.244 27.4715 116.346L50.639 126.924L48.9981 64.493L48.7519 64.5084Z" fill="#9ACECA"/>
<path d="M116.244 110.14L114.942 50.2778C114.938 50.0393 114.872 49.8059 114.751 49.6002C114.631 49.3945 114.459 49.2235 114.252 49.1039C114.046 48.9842 113.812 48.9198 113.574 48.9171C113.335 48.9143 113.1 48.9733 112.891 49.0882L88.79 62L91.5386 122.965L115.434 111.417C115.68 111.307 115.887 111.127 116.032 110.9C116.176 110.673 116.25 110.409 116.244 110.14Z" fill="#9ACECA"/>
<path d="M32.82 112.063H32.6815C31.9679 111.925 31.2652 111.734 30.5791 111.494C30.4936 111.462 30.4152 111.414 30.3483 111.352C30.2814 111.29 30.2273 111.216 30.1892 111.133C30.1511 111.05 30.1297 110.961 30.1262 110.869C30.1228 110.778 30.1372 110.687 30.1689 110.602C30.2005 110.516 30.2487 110.438 30.3107 110.371C30.3727 110.304 30.4472 110.25 30.5301 110.212C30.6129 110.174 30.7025 110.152 30.7936 110.149C30.8847 110.145 30.9756 110.16 31.0611 110.192C31.682 110.408 32.3178 110.58 32.9636 110.704C33.1388 110.746 33.2908 110.855 33.3867 111.007C33.4826 111.16 33.5148 111.344 33.4763 111.52C33.4424 111.67 33.3596 111.805 33.2408 111.903C33.1221 112.002 32.9741 112.058 32.82 112.063Z" fill="#48A8A1"/>
<path d="M66.6941 115.51C66.5191 115.506 66.3521 115.435 66.2268 115.313C66.1015 115.191 66.0271 115.026 66.0186 114.851C66.0102 114.676 66.0683 114.505 66.1813 114.371C66.2942 114.237 66.4537 114.151 66.6275 114.13C67.9712 113.98 69.2929 113.674 70.5657 113.218C70.6526 113.18 70.7463 113.162 70.8408 113.162C70.9354 113.163 71.0288 113.182 71.1154 113.22C71.202 113.259 71.2798 113.314 71.3442 113.383C71.4086 113.452 71.4581 113.534 71.4896 113.623C71.5212 113.712 71.5342 113.807 71.5278 113.901C71.5214 113.996 71.4957 114.088 71.4524 114.172C71.4091 114.256 71.349 114.33 71.2758 114.39C71.2027 114.45 71.1181 114.494 71.0272 114.52C69.6508 115.009 68.2227 115.338 66.7711 115.499L66.6941 115.51Z" fill="#00857C"/>
<path d="M62.505 115.335C62.4607 115.34 62.4159 115.34 62.3717 115.335C60.9099 115.048 59.5094 114.509 58.2335 113.74C58.0764 113.645 57.9636 113.491 57.9198 113.313C57.8761 113.134 57.905 112.946 58.0002 112.789C58.0954 112.632 58.2491 112.519 58.4275 112.475C58.6059 112.431 58.7943 112.46 58.9514 112.555C60.0888 113.238 61.3365 113.717 62.6383 113.971C62.8105 114 62.9651 114.094 63.071 114.233C63.177 114.372 63.2265 114.546 63.2096 114.72C63.1927 114.894 63.1107 115.055 62.9801 115.171C62.8494 115.287 62.6797 115.349 62.505 115.345V115.335Z" fill="#00857C"/>
<path d="M74.6119 112.813C74.4608 112.811 74.3142 112.761 74.1945 112.668C74.0748 112.576 73.9887 112.447 73.9491 112.301C73.9096 112.155 73.9189 112.001 73.9756 111.861C74.0323 111.72 74.1334 111.603 74.2632 111.526C75.4451 110.836 76.5684 110.05 77.6219 109.177C77.7634 109.059 77.9458 109.003 78.129 109.02C78.3122 109.036 78.4812 109.125 78.5988 109.267C78.7164 109.408 78.7731 109.591 78.7562 109.774C78.7394 109.957 78.6505 110.126 78.5091 110.244C77.3961 111.165 76.2092 111.993 74.9606 112.72C74.8543 112.781 74.7342 112.812 74.6119 112.813Z" fill="#00857C"/>
<path d="M37.0091 112.361C36.8347 112.355 36.6691 112.283 36.5453 112.16C36.4215 112.037 36.3488 111.872 36.3416 111.698C36.3345 111.523 36.3935 111.353 36.5068 111.22C36.6201 111.087 36.7794 111.002 36.9527 110.982C38.2558 110.91 39.5245 110.538 40.6602 109.895C40.8177 109.805 41.004 109.781 41.179 109.828C41.354 109.874 41.5039 109.987 41.5965 110.143C41.689 110.299 41.717 110.484 41.6742 110.66C41.6315 110.836 41.5215 110.989 41.3678 111.084C40.0506 111.838 38.5758 112.276 37.0604 112.361H37.0091Z" fill="#48A8A1"/>
<path d="M56.4594 110.474H56.4081C56.2253 110.464 56.0542 110.381 55.9321 110.245C55.8101 110.108 55.7471 109.929 55.7569 109.746C55.8286 108.52 56.4337 107.156 57.6131 105.592C57.7233 105.445 57.8875 105.347 58.0698 105.321C58.252 105.294 58.4373 105.341 58.5848 105.451C58.7324 105.562 58.8302 105.726 58.8566 105.908C58.883 106.09 58.836 106.276 58.7259 106.423C57.7003 107.746 57.1875 108.895 57.1414 109.828C57.1298 110.002 57.0531 110.165 56.9267 110.284C56.8003 110.404 56.6335 110.472 56.4594 110.474Z" fill="#00857C"/>
<path d="M43.8551 108.146C43.741 108.148 43.6282 108.122 43.5269 108.069C43.3654 107.983 43.2446 107.837 43.1908 107.662C43.137 107.487 43.1546 107.298 43.2398 107.136C43.49 106.662 43.6993 106.168 43.8654 105.659C44.116 104.919 44.2879 104.154 44.3781 103.377C44.3979 103.194 44.4894 103.027 44.6327 102.911C44.776 102.796 44.9593 102.742 45.1422 102.762C45.3251 102.782 45.4927 102.873 45.6081 103.016C45.7235 103.16 45.7772 103.343 45.7575 103.526C45.6591 104.398 45.4701 105.257 45.1935 106.09C45.0024 106.671 44.764 107.235 44.4807 107.777C44.4191 107.889 44.3285 107.982 44.2185 108.047C44.1084 108.112 43.9829 108.146 43.8551 108.146Z" fill="#48A8A1"/>
<path d="M81.0778 107.443C80.9105 107.442 80.7488 107.382 80.6214 107.274C80.5523 107.215 80.4956 107.143 80.4545 107.062C80.4135 106.981 80.3889 106.892 80.3822 106.802C80.3756 106.711 80.3869 106.62 80.4156 106.534C80.4444 106.448 80.4899 106.368 80.5496 106.299C81.4477 105.273 82.2493 104.166 82.9443 102.992C82.9871 102.907 83.0467 102.833 83.1196 102.772C83.1924 102.712 83.2768 102.667 83.3677 102.64C83.4586 102.614 83.554 102.606 83.648 102.618C83.7419 102.629 83.8325 102.66 83.914 102.708C83.9955 102.757 84.0663 102.821 84.122 102.898C84.1777 102.974 84.217 103.061 84.2376 103.154C84.2583 103.246 84.2597 103.342 84.2419 103.435C84.224 103.528 84.1873 103.616 84.134 103.694C83.3926 104.942 82.5341 106.117 81.5701 107.202C81.5105 107.275 81.4356 107.335 81.3505 107.377C81.2655 107.418 81.1724 107.441 81.0778 107.443Z" fill="#00857C"/>
<path d="M61.0227 103.582C60.9277 103.585 60.8331 103.569 60.7448 103.533C60.6566 103.498 60.5766 103.445 60.5099 103.377C60.3812 103.247 60.3091 103.071 60.3091 102.887C60.3091 102.704 60.3812 102.528 60.5099 102.398C61.5355 101.372 62.6636 100.347 63.6225 99.5005C63.7608 99.3954 63.9335 99.3461 64.1064 99.3624C64.2793 99.3787 64.4398 99.4594 64.556 99.5885C64.6722 99.7176 64.7356 99.8857 64.7336 100.059C64.7317 100.233 64.6646 100.4 64.5455 100.526C63.602 101.372 62.4944 102.377 61.4689 103.377C61.3508 103.499 61.1917 103.572 61.0227 103.582Z" fill="#00857C"/>
<path d="M104.717 103.192C104.481 103.192 104.24 103.192 104.004 103.167C103.911 103.164 103.819 103.142 103.734 103.103C103.65 103.064 103.574 103.008 103.511 102.938C103.449 102.869 103.401 102.787 103.37 102.699C103.34 102.61 103.328 102.517 103.335 102.424C103.342 102.33 103.368 102.24 103.411 102.157C103.454 102.074 103.513 102 103.585 101.941C103.657 101.881 103.741 101.837 103.83 101.811C103.92 101.784 104.014 101.776 104.107 101.787C104.317 101.787 104.522 101.813 104.733 101.787C105.815 101.798 106.888 101.574 107.876 101.131C108.043 101.054 108.234 101.047 108.407 101.11C108.58 101.173 108.721 101.303 108.799 101.47C108.876 101.636 108.883 101.826 108.82 101.998C108.756 102.171 108.627 102.31 108.46 102.387C107.292 102.92 106.021 103.188 104.738 103.172L104.717 103.192Z" fill="#48A8A1"/>
<path d="M100.02 102.043C99.9135 102.042 99.8084 102.018 99.7124 101.971C98.3724 101.314 97.1577 100.427 96.1229 99.3512C96.0585 99.2869 96.0075 99.2105 95.9727 99.1265C95.9378 99.0425 95.9199 98.9524 95.9199 98.8615C95.9199 98.7705 95.9378 98.6804 95.9727 98.5964C96.0075 98.5124 96.0585 98.436 96.1229 98.3718C96.2534 98.2431 96.4293 98.1709 96.6126 98.1709C96.7959 98.1709 96.9718 98.2431 97.1023 98.3718C98.0243 99.3288 99.103 100.121 100.292 100.715C100.432 100.784 100.544 100.899 100.611 101.04C100.678 101.182 100.694 101.341 100.659 101.494C100.623 101.646 100.537 101.781 100.415 101.878C100.292 101.975 100.14 102.028 99.9841 102.028L100.02 102.043Z" fill="#48A8A1"/>
<path d="M85.2725 100.208C85.203 100.208 85.1338 100.198 85.0674 100.177C84.8931 100.123 84.7473 100.002 84.6618 99.8404C84.5764 99.6791 84.5581 99.4905 84.611 99.3157C84.9059 98.3994 85.1002 97.4537 85.1905 96.4954C85.2264 96.1313 85.252 95.7467 85.2674 95.3519C85.2878 95.1772 85.3734 95.0167 85.507 94.9025C85.6407 94.7883 85.8126 94.7288 85.9883 94.7359C86.164 94.7431 86.3305 94.8163 86.4545 94.941C86.5785 95.0657 86.6509 95.2326 86.657 95.4083C86.657 95.8237 86.6109 96.2339 86.575 96.6236C86.4689 97.6783 86.2558 98.7195 85.9391 99.7311C85.8906 99.8695 85.8005 99.9896 85.6812 100.075C85.5619 100.16 85.4192 100.207 85.2725 100.208Z" fill="#00857C"/>
<path d="M44.6706 99.9925C44.5186 99.992 44.371 99.9416 44.2505 99.8489C44.13 99.7562 44.0434 99.6265 44.004 99.4797C43.613 98.2035 43.0322 96.9935 42.281 95.8902C42.1793 95.7378 42.1422 95.5513 42.1777 95.3716C42.2133 95.1918 42.3187 95.0335 42.4707 94.9313C42.624 94.8293 42.8113 94.792 42.9918 94.8276C43.1724 94.8631 43.3316 94.9686 43.4348 95.121C44.2619 96.3437 44.9014 97.6832 45.3321 99.0951C45.3813 99.2705 45.3593 99.4583 45.271 99.6176C45.1827 99.777 45.0351 99.8951 44.8603 99.9463C44.8006 99.9737 44.7362 99.9894 44.6706 99.9925Z" fill="#48A8A1"/>
<path d="M111.178 99.6435C111.065 99.6444 110.954 99.6162 110.855 99.5615C110.693 99.4763 110.571 99.3302 110.516 99.1553C110.461 98.9803 110.478 98.7908 110.563 98.6282C110.812 98.1508 111.001 97.6445 111.127 97.1206C111.316 96.3156 111.47 95.5361 111.578 94.8029C111.588 94.7105 111.617 94.6211 111.662 94.54C111.708 94.4589 111.769 94.3879 111.843 94.331C111.916 94.2742 112.001 94.2327 112.09 94.2092C112.18 94.1856 112.274 94.1804 112.366 94.1938C112.458 94.2072 112.546 94.239 112.626 94.2874C112.705 94.3357 112.774 94.3995 112.828 94.475C112.883 94.5505 112.921 94.6361 112.941 94.7268C112.962 94.8175 112.964 94.9114 112.947 95.0028C112.834 95.7771 112.675 96.5925 112.47 97.4386C112.32 98.0764 112.091 98.693 111.788 99.2743C111.729 99.3847 111.641 99.4772 111.533 99.5421C111.426 99.607 111.303 99.6421 111.178 99.6435Z" fill="#48A8A1"/>
<path d="M67.2176 97.8645C67.1212 97.864 67.026 97.8438 66.9377 97.805C66.8495 97.7662 66.7702 97.7096 66.7048 97.6388C66.6426 97.5726 66.5943 97.4947 66.5626 97.4096C66.5309 97.3244 66.5166 97.2338 66.5204 97.1431C66.5242 97.0523 66.5461 96.9632 66.5848 96.8811C66.6235 96.7989 66.6783 96.7253 66.7458 96.6645C67.7772 95.7456 68.7548 94.768 69.6738 93.7366C69.8009 93.6298 69.9621 93.5722 70.1281 93.5743C70.294 93.5764 70.4537 93.6381 70.578 93.7481C70.7023 93.8581 70.783 94.0091 70.8053 94.1736C70.8275 94.3381 70.79 94.5051 70.6994 94.6442C69.7544 95.7139 68.7494 96.7291 67.6894 97.685C67.5598 97.8012 67.3917 97.8651 67.2176 97.8645Z" fill="#00857C"/>
<path d="M95.1796 95.7365C95.0016 95.738 94.8301 95.6704 94.701 95.548C94.5719 95.4256 94.4953 95.2579 94.4873 95.0801C94.4873 94.8904 94.4873 94.7007 94.4873 94.5058C94.5069 93.2495 94.6339 91.9972 94.8668 90.7625C94.8826 90.6729 94.9159 90.5874 94.9648 90.5107C95.0137 90.434 95.0772 90.3677 95.1517 90.3155C95.2263 90.2634 95.3103 90.2264 95.3991 90.2068C95.4879 90.1871 95.5797 90.1852 95.6693 90.201C95.7588 90.2168 95.8444 90.2501 95.9211 90.299C95.9978 90.3479 96.0641 90.4114 96.1162 90.486C96.1684 90.5605 96.2053 90.6445 96.225 90.7333C96.2446 90.8221 96.2466 90.9139 96.2308 91.0035C96.0103 92.1671 95.8885 93.3473 95.8667 94.5314C95.8667 94.7058 95.8667 94.875 95.8667 95.0442C95.8708 95.1349 95.8569 95.2255 95.8259 95.3108C95.7948 95.396 95.7471 95.4743 95.6856 95.5411C95.6241 95.6078 95.55 95.6617 95.4675 95.6996C95.3851 95.7376 95.2959 95.7588 95.2052 95.7621L95.1796 95.7365Z" fill="#48A8A1"/>
<path d="M40.1734 92.9569C40.0783 92.9607 39.9835 92.9443 39.8951 92.909C39.8068 92.8737 39.7269 92.8201 39.6606 92.7518C38.685 91.7844 37.658 90.8703 36.5839 90.0135C36.5124 89.9575 36.4527 89.8879 36.4084 89.8085C36.3642 89.7292 36.3362 89.6419 36.3262 89.5516C36.3162 89.4613 36.3243 89.3699 36.35 89.2828C36.3758 89.1957 36.4187 89.1146 36.4762 89.0443C36.5331 88.9732 36.6034 88.914 36.6831 88.8701C36.7629 88.8261 36.8505 88.7984 36.941 88.7884C37.0315 88.7784 37.1231 88.7863 37.2105 88.8118C37.298 88.8372 37.3795 88.8797 37.4505 88.9367C38.5722 89.8272 39.6439 90.779 40.6605 91.7877C40.7589 91.8853 40.8255 92.0104 40.8515 92.1465C40.8775 92.2827 40.8617 92.4235 40.8062 92.5505C40.7508 92.6775 40.6582 92.7847 40.5407 92.8582C40.4232 92.9316 40.2862 92.9678 40.1477 92.962L40.1734 92.9569Z" fill="#48A8A1"/>
<path d="M85.8466 91.8648C85.6721 91.8652 85.504 91.7991 85.3764 91.6801C85.2488 91.561 85.1712 91.3979 85.1595 91.2238C85.0518 89.8444 84.8877 88.4086 84.7288 87.0651C84.7153 86.9736 84.7204 86.8804 84.7436 86.7909C84.7668 86.7014 84.8078 86.6174 84.8639 86.544C84.9201 86.4706 84.9905 86.4091 85.0708 86.3633C85.1511 86.3175 85.2398 86.2883 85.3316 86.2773C85.4234 86.2664 85.5165 86.2739 85.6054 86.2995C85.6942 86.3251 85.777 86.3683 85.8489 86.4264C85.9208 86.4845 85.9804 86.5565 86.024 86.638C86.0676 86.7195 86.0945 86.809 86.103 86.901C86.2671 88.2599 86.4363 89.7111 86.544 91.1161C86.5582 91.299 86.4991 91.48 86.3799 91.6194C86.2607 91.7588 86.091 91.8452 85.9082 91.8596L85.8466 91.8648Z" fill="#00857C"/>
<path d="M71.7298 91.1779C71.5959 91.1796 71.4645 91.1415 71.3522 91.0685C71.2399 90.9955 71.1518 90.8908 71.0991 90.7677C70.8632 90.2549 69.8992 89.8241 68.3967 89.5934L67.884 89.5165C67.706 89.4821 67.5486 89.3793 67.4456 89.2302C67.3426 89.081 67.3022 88.8974 67.3331 88.7188C67.364 88.5402 67.4637 88.3809 67.6108 88.275C67.7579 88.1691 67.9407 88.1251 68.1198 88.1525C68.2737 88.1781 68.4275 88.2089 68.5813 88.2294C70.6581 88.5473 71.8837 89.1934 72.34 90.2036C72.4143 90.3723 72.4188 90.5636 72.3525 90.7356C72.2862 90.9076 72.1545 91.0463 71.9862 91.1215C71.9049 91.1558 71.818 91.1749 71.7298 91.1779Z" fill="#00857C"/>
<path d="M64.0279 88.2757C63.9214 88.2739 63.8165 88.2494 63.7202 88.2039C62.3738 87.5573 61.172 86.6451 60.1872 85.5221C60.1127 85.4576 60.0529 85.378 60.0118 85.2885C59.9706 85.1991 59.9489 85.1019 59.9483 85.0035C59.9476 84.905 59.968 84.8076 60.008 84.7176C60.048 84.6276 60.1067 84.5472 60.1803 84.4818C60.2538 84.4163 60.3405 84.3673 60.4345 84.338C60.5285 84.3087 60.6276 84.2998 60.7254 84.3119C60.8231 84.3239 60.9171 84.3567 61.0011 84.408C61.0852 84.4593 61.1573 84.5279 61.2127 84.6093C62.0711 85.5912 63.1172 86.3914 64.2894 86.963C64.3718 87.0024 64.4456 87.0578 64.5063 87.126C64.5671 87.1942 64.6136 87.2739 64.6432 87.3603C64.6728 87.4467 64.6849 87.5382 64.6787 87.6293C64.6726 87.7205 64.6483 87.8095 64.6073 87.8911C64.5524 88 64.4701 88.0927 64.3685 88.1601C64.267 88.2276 64.1496 88.2674 64.0279 88.2757Z" fill="#00857C"/>
<path d="M33.7994 87.4503C33.7037 87.4518 33.6087 87.4334 33.5204 87.3963C33.4322 87.3593 33.3526 87.3043 33.2866 87.2349C32.2343 86.1719 31.4014 84.9121 30.8355 83.5275C30.8015 83.4427 30.7845 83.352 30.7857 83.2606C30.7869 83.1692 30.8061 83.0789 30.8424 82.995C30.8786 82.9111 30.9311 82.8352 30.9968 82.7717C31.0625 82.7082 31.1401 82.6583 31.2252 82.625C31.3967 82.559 31.5873 82.5628 31.756 82.6357C31.9247 82.7085 32.0582 82.8446 32.1277 83.0147C32.63 84.2337 33.365 85.3432 34.2917 86.2811C34.3565 86.3446 34.408 86.4204 34.4431 86.5041C34.4783 86.5877 34.4964 86.6775 34.4964 86.7683C34.4964 86.859 34.4783 86.9488 34.4431 87.0325C34.408 87.1161 34.3565 87.1919 34.2917 87.2554C34.1599 87.383 33.9828 87.4531 33.7994 87.4503Z" fill="#48A8A1"/>
<path d="M96.4047 87.44C96.352 87.4482 96.2984 87.4482 96.2457 87.44C96.1571 87.4189 96.0735 87.3805 95.9997 87.3271C95.926 87.2736 95.8635 87.2061 95.8158 87.1285C95.7682 87.0508 95.7363 86.9646 95.7221 86.8746C95.7079 86.7846 95.7116 86.6927 95.7329 86.6041C95.8457 86.1221 95.9688 85.6298 96.0868 85.1427C96.3021 84.2607 96.5175 83.3787 96.7175 82.5173C96.7625 82.3408 96.8742 82.1887 97.0292 82.093C97.1842 81.9973 97.3702 81.9656 97.5482 82.0045C97.7261 82.0471 97.8798 82.1584 97.9759 82.3141C98.072 82.4697 98.1026 82.6571 98.061 82.8352C97.861 83.712 97.6456 84.594 97.4251 85.4811C97.302 85.9632 97.1841 86.4554 97.0713 86.9426C97.0269 87.0852 96.9385 87.2102 96.8188 87.2995C96.699 87.3889 96.5541 87.4381 96.4047 87.44Z" fill="#48A8A1"/>
<path d="M84.9289 83.5012C84.7579 83.5008 84.5932 83.4373 84.4663 83.3227C84.3395 83.2082 84.2595 83.0507 84.2417 82.8807C84.0674 81.1527 83.9802 79.804 83.9802 78.6093C83.9802 78.4257 84.0532 78.2496 84.183 78.1198C84.3128 77.9899 84.4889 77.917 84.6725 77.917C84.8561 77.917 85.0322 77.9899 85.162 78.1198C85.2918 78.2496 85.3647 78.4257 85.3647 78.6093C85.3771 79.9886 85.4609 81.3665 85.616 82.7371C85.6333 82.9204 85.578 83.1031 85.4619 83.246C85.3459 83.3889 85.1784 83.4805 84.9955 83.5012H84.9289Z" fill="#00857C"/>
<path d="M58.459 82.2198C58.3293 82.22 58.2023 82.1835 58.0925 82.1146C57.9827 82.0456 57.8946 81.947 57.8385 81.8301C57.5206 81.1789 57.2232 80.5071 56.9309 79.8559C56.6386 79.2047 56.3771 78.6098 56.0848 77.9996C56.0454 77.9175 56.0226 77.8284 56.0176 77.7374C56.0127 77.6464 56.0257 77.5554 56.0559 77.4694C56.0862 77.3835 56.133 77.3043 56.1939 77.2365C56.2547 77.1686 56.3283 77.1135 56.4104 77.0741C56.4926 77.0347 56.5817 77.0118 56.6727 77.0069C56.7636 77.0019 56.8547 77.0149 56.9406 77.0452C57.0266 77.0754 57.1057 77.1223 57.1736 77.1831C57.2414 77.2439 57.2966 77.3175 57.336 77.3997C57.6437 78.0304 57.9257 78.6714 58.2026 79.2919C58.4795 79.9123 58.782 80.5892 59.0897 81.225C59.1694 81.3897 59.1807 81.5792 59.1211 81.7521C59.0616 81.9251 58.936 82.0674 58.7718 82.1481C58.6735 82.1931 58.5671 82.2176 58.459 82.2198Z" fill="#00857C"/>
<path d="M30.9531 79.8349H30.8608C30.7699 79.8235 30.6821 79.7943 30.6025 79.749C30.5229 79.7036 30.453 79.643 30.3968 79.5706C30.3406 79.4982 30.2992 79.4155 30.275 79.3271C30.2508 79.2387 30.2443 79.1464 30.2558 79.0555C30.4609 77.5532 31.0121 76.1191 31.8659 74.8661C31.9699 74.7194 32.1268 74.619 32.3036 74.586C32.4803 74.553 32.6629 74.59 32.8128 74.6893C32.9627 74.7886 33.0681 74.9422 33.1067 75.1178C33.1453 75.2934 33.1141 75.4771 33.0196 75.6301C32.2914 76.7059 31.8179 77.9334 31.6351 79.2196C31.6163 79.3878 31.5366 79.5433 31.4109 79.6567C31.2852 79.7701 31.1224 79.8335 30.9531 79.8349Z" fill="#48A8A1"/>
<path d="M98.1998 79.2094H98.1075C98.0172 79.1974 97.9302 79.1677 97.8514 79.122C97.7726 79.0763 97.7036 79.0155 97.6483 78.9431C97.593 78.8707 97.5526 78.7881 97.5293 78.7001C97.5061 78.612 97.5004 78.5202 97.5127 78.43C97.6237 77.645 97.6837 76.8536 97.6921 76.0609C97.696 75.523 97.6514 74.9858 97.5588 74.4559C97.5273 74.2752 97.5684 74.0893 97.673 73.9386C97.7776 73.7879 97.9374 73.6845 98.1177 73.6508C98.207 73.6338 98.2988 73.6347 98.3877 73.6533C98.4766 73.672 98.561 73.7082 98.6359 73.7597C98.7107 73.8112 98.7747 73.877 98.8239 73.9534C98.8732 74.0298 98.9068 74.1152 98.9228 74.2046C99.0282 74.8177 99.078 75.4389 99.0715 76.0609C99.0657 76.9188 99.0023 77.7754 98.8818 78.6248C98.8572 78.7879 98.7747 78.9367 98.6495 79.044C98.5243 79.1513 98.3647 79.21 98.1998 79.2094Z" fill="#48A8A1"/>
<path d="M85.2008 75.1377C85.1296 75.1372 85.0589 75.1269 84.9906 75.107C84.9041 75.0791 84.824 75.0344 84.7549 74.9754C84.6858 74.9163 84.6292 74.8442 84.5881 74.7631C84.5471 74.6821 84.5226 74.5937 84.516 74.5031C84.5094 74.4124 84.5208 74.3214 84.5496 74.2353C84.9831 72.7006 86.0013 71.3971 87.3853 70.6047C87.4646 70.5538 87.5536 70.5196 87.6467 70.5043C87.7398 70.489 87.835 70.4929 87.9265 70.5157C88.018 70.5385 88.1039 70.5798 88.1789 70.637C88.2539 70.6942 88.3165 70.7661 88.3627 70.8484C88.4089 70.9306 88.4378 71.0214 88.4476 71.1152C88.4574 71.209 88.448 71.3039 88.4198 71.3939C88.3917 71.4839 88.3454 71.5673 88.2839 71.6388C88.2224 71.7103 88.1469 71.7685 88.0621 71.8098C86.9856 72.4338 86.1974 73.4559 85.8674 74.6557C85.8211 74.7959 85.7317 74.918 85.612 75.0045C85.4924 75.0911 85.3485 75.1377 85.2008 75.1377Z" fill="#00857C"/>
<path d="M54.5002 74.8197C54.4019 74.8157 54.3056 74.7913 54.2173 74.7481C54.129 74.7048 54.0507 74.6436 53.9874 74.5684C53.1478 73.5495 52.1274 72.6942 50.9774 72.0455C50.8986 72.0001 50.8295 71.9395 50.7741 71.8674C50.7187 71.7953 50.6781 71.7129 50.6545 71.6251C50.6309 71.5372 50.6249 71.4456 50.6368 71.3554C50.6486 71.2652 50.6781 71.1782 50.7235 71.0994C50.769 71.0207 50.8295 70.9516 50.9017 70.8962C50.9738 70.8408 51.0562 70.8002 51.144 70.7766C51.2319 70.753 51.3235 70.747 51.4137 70.7588C51.5039 70.7707 51.5908 70.8002 51.6696 70.8456C52.9652 71.5773 54.1143 72.5421 55.0591 73.6916C55.176 73.833 55.232 74.0151 55.2146 74.1978C55.1973 74.3805 55.1082 74.5488 54.9668 74.6658C54.8328 74.7678 54.6685 74.822 54.5002 74.8197Z" fill="#00857C"/>
<path d="M35.3837 72.9284C35.2388 72.9273 35.098 72.8808 34.9809 72.7955C34.8639 72.7101 34.7765 72.5902 34.7313 72.4526C34.686 72.315 34.685 72.1667 34.7284 72.0285C34.7719 71.8903 34.8576 71.7692 34.9735 71.6823C36.1668 70.8054 37.4859 70.1138 38.886 69.6312C39.0601 69.5736 39.2499 69.5865 39.4147 69.667C39.5795 69.7474 39.7063 69.8892 39.768 70.0619C39.8267 70.2353 39.8144 70.4249 39.7337 70.5893C39.6529 70.7536 39.5104 70.8793 39.3372 70.9388C38.0595 71.3803 36.8562 72.0131 35.7683 72.8156C35.6548 72.892 35.5205 72.9314 35.3837 72.9284Z" fill="#48A8A1"/>
<path d="M95.923 71.718C95.8217 71.7186 95.7217 71.6958 95.6307 71.6513C95.2111 71.4635 94.7677 71.3341 94.3129 71.2667C93.4766 71.1319 92.6318 71.0565 91.7849 71.0411C91.6935 71.0404 91.6032 71.0217 91.5191 70.9859C91.4351 70.9502 91.3589 70.8982 91.295 70.8329C91.2312 70.7676 91.1808 70.6903 91.147 70.6054C91.1131 70.5206 91.0964 70.4299 91.0977 70.3386C91.097 70.2475 91.1147 70.1572 91.1496 70.0731C91.1846 69.989 91.2362 69.9129 91.3013 69.8492C91.3664 69.7855 91.4437 69.7356 91.5286 69.7025C91.6134 69.6694 91.7041 69.6538 91.7951 69.6566C92.7107 69.6719 93.6241 69.7525 94.5282 69.8976C95.1146 69.9838 95.6848 70.1566 96.2204 70.4104C96.3026 70.4494 96.3763 70.5042 96.4373 70.5717C96.4983 70.6392 96.5454 70.7181 96.5759 70.8038C96.6063 70.8896 96.6196 70.9804 96.6149 71.0713C96.6103 71.1622 96.5877 71.2512 96.5486 71.3334C96.4919 71.4505 96.4028 71.5489 96.292 71.617C96.1811 71.6852 96.0531 71.7202 95.923 71.718Z" fill="#48A8A1"/>
<path d="M47.3983 70.6147C47.3456 70.623 47.292 70.623 47.2393 70.6147C45.932 70.3029 44.5875 70.1752 43.2448 70.2353C43.1501 70.2464 43.0541 70.2378 42.9629 70.2101C42.8717 70.1824 42.7872 70.1361 42.7147 70.0742C42.6422 70.0123 42.5833 69.9361 42.5416 69.8504C42.4999 69.7647 42.4764 69.6713 42.4725 69.576C42.4686 69.4808 42.4844 69.3857 42.519 69.2969C42.5535 69.208 42.606 69.1273 42.6732 69.0597C42.7404 68.9921 42.8209 68.9391 42.9095 68.904C42.9982 68.8689 43.0931 68.8526 43.1884 68.8559C44.6588 68.7916 46.1311 68.9331 47.5624 69.2764C47.7407 69.3202 47.8945 69.4325 47.9905 69.5889C48.0865 69.7454 48.1169 69.9334 48.0752 70.1122C48.0305 70.2571 47.9407 70.3839 47.819 70.4743C47.6973 70.5646 47.5499 70.6138 47.3983 70.6147Z" fill="#48A8A1"/>
<path d="M112.378 91.2753C112.21 91.2745 112.049 91.2134 111.923 91.1033C111.796 90.9931 111.714 90.8412 111.691 90.6754C111.637 90.0841 111.478 89.5073 111.219 88.9729C111.124 88.8185 111.093 88.6331 111.132 88.456C111.171 88.2789 111.278 88.124 111.429 88.0243C111.581 87.9263 111.766 87.8918 111.943 87.9282C112.121 87.9646 112.277 88.0691 112.378 88.2192C112.765 88.9191 113 89.6934 113.065 90.4908C113.077 90.581 113.07 90.6726 113.046 90.7604C113.022 90.8482 112.981 90.9304 112.926 91.0023C112.87 91.0742 112.8 91.1344 112.721 91.1795C112.642 91.2246 112.555 91.2537 112.465 91.2651C112.437 91.2738 112.407 91.2773 112.378 91.2753Z" fill="#48A8A1"/>
<path d="M74.1655 2.92819C74.9398 2.92819 75.5705 2.65129 75.5705 2.30772C75.5705 1.96416 74.9398 1.69238 74.1655 1.69238C73.3912 1.69238 72.7656 1.96929 72.7656 2.30772C72.7656 2.64616 73.3912 2.92819 74.1655 2.92819Z" fill="#F3B761"/>
<path d="M66.8737 79.2557C67.0618 79.2567 67.2459 79.2018 67.4027 79.0979C67.5594 78.9941 67.6818 78.846 67.7543 78.6724C67.8267 78.4989 67.8459 78.3077 67.8095 78.1232C67.773 77.9387 67.6826 77.7692 67.5496 77.6363C67.4166 77.5033 67.2471 77.4128 67.0626 77.3764C66.8781 77.3399 66.687 77.3592 66.5134 77.4316C66.3399 77.504 66.1918 77.6264 66.0879 77.7832C65.9841 77.94 65.9292 78.1241 65.9302 78.3122C65.9315 78.562 66.0314 78.8012 66.208 78.9778C66.3847 79.1545 66.6239 79.2543 66.8737 79.2557Z" fill="#00857C"/>
<path fill-rule="evenodd" clip-rule="evenodd" d="M66.6633 71.7891C65.9944 71.8458 65.3674 72.1384 64.8942 72.6147C64.7786 72.716 64.6275 72.7672 64.4741 72.7571C64.3207 72.747 64.1777 72.6764 64.0763 72.5608C63.975 72.4452 63.9238 72.2941 63.9339 72.1407C63.944 71.9873 64.0146 71.8442 64.1302 71.7429C64.8104 71.0782 65.7086 70.6828 66.6582 70.6302C67.0148 70.6246 67.3683 70.6959 67.6949 70.8392C68.0214 70.9826 68.3132 71.1946 68.5504 71.4609C68.7645 71.7007 68.9218 71.9856 69.0105 72.2946C69.0993 72.6035 69.1173 72.9285 69.0631 73.2454C68.9892 73.5955 68.8166 73.9171 68.5659 74.1724C68.3151 74.4277 67.9966 74.606 67.6479 74.6863H67.6068C67.4279 74.7109 67.2621 74.7938 67.1351 74.9222C67.0634 75.0151 67.0222 75.128 67.0171 75.2452C67.0044 75.3808 67.013 75.5175 67.0428 75.6503C67.0513 75.6939 67.0633 75.7368 67.0787 75.7785C67.0787 75.7785 67.0787 75.7785 67.0787 75.8093C67.1056 75.8807 67.1182 75.9567 67.1158 76.0329C67.1134 76.1092 67.0959 76.1842 67.0645 76.2537C67.0331 76.3232 66.9883 76.3859 66.9326 76.4381C66.877 76.4903 66.8116 76.531 66.7402 76.558C66.6689 76.5849 66.5929 76.5975 66.5166 76.5951C66.4404 76.5926 66.3653 76.5752 66.2958 76.5438C66.2263 76.5124 66.1637 76.4675 66.1115 76.4119C66.0593 76.3563 66.0185 76.2909 65.9916 76.2195L66.5044 76.0195L65.9916 76.2195C65.9916 76.2195 65.9916 76.1734 65.9916 76.1477C65.9916 76.1221 65.9506 76.0093 65.9301 75.9118C65.8803 75.6639 65.8647 75.4103 65.8839 75.1581C65.9127 74.8101 66.0469 74.4792 66.2685 74.2094C66.5513 73.8807 66.9389 73.6597 67.3658 73.5838C67.7761 73.4556 67.9094 73.2351 67.9504 73.0454C67.9673 72.9007 67.9521 72.754 67.906 72.6158C67.86 72.4775 67.7841 72.3511 67.6838 72.2455C67.5582 72.0984 67.4015 71.9812 67.225 71.9022C67.0485 71.8233 66.8566 71.7846 66.6633 71.7891Z" fill="#00857C"/>
<path d="M54.7417 101.962C54.8856 102.019 55.0432 102.032 55.1947 102C55.3462 101.968 55.4849 101.892 55.5931 101.781C55.7014 101.67 55.7745 101.53 55.8031 101.378C55.8318 101.226 55.8147 101.068 55.7542 100.926C55.6936 100.783 55.5922 100.662 55.4627 100.577C55.3332 100.492 55.1815 100.447 55.0266 100.448C54.8717 100.449 54.7207 100.496 54.5924 100.583C54.4641 100.67 54.3644 100.793 54.3058 100.936C54.2667 101.032 54.2469 101.135 54.2476 101.238C54.2483 101.342 54.2695 101.444 54.3101 101.54C54.3506 101.635 54.4096 101.721 54.4837 101.794C54.5578 101.866 54.6455 101.923 54.7417 101.962Z" fill="#00857C"/>
<path fill-rule="evenodd" clip-rule="evenodd" d="M56.8796 96.1829C56.3484 96.0151 55.7744 96.0461 55.2644 96.27C55.1467 96.3023 55.0211 96.2887 54.9131 96.232C54.805 96.1752 54.7225 96.0797 54.6821 95.9645C54.6418 95.8493 54.6466 95.7231 54.6957 95.6114C54.7447 95.4997 54.8344 95.4107 54.9464 95.3624C55.6743 95.0605 56.487 95.0331 57.2334 95.2855C57.5091 95.3917 57.7586 95.5562 57.9648 95.7677C58.171 95.9792 58.3291 96.2328 58.4282 96.5111C58.523 96.7615 58.5593 97.0302 58.5344 97.2968C58.5095 97.5634 58.4241 97.8208 58.2847 98.0494C58.1209 98.2983 57.8883 98.4943 57.6152 98.6136C57.3421 98.7328 57.0402 98.7702 56.7463 98.7211H56.7104C56.5666 98.6827 56.4137 98.6973 56.2797 98.7622C56.1961 98.8123 56.1285 98.8852 56.0848 98.9724C56.0376 99.072 56.0032 99.177 55.9823 99.2852C55.9823 99.3365 55.9823 99.3724 55.9823 99.398V99.4237C55.9892 99.4908 55.982 99.5586 55.9611 99.6228C55.9401 99.6869 55.906 99.746 55.8608 99.7961C55.8156 99.8462 55.7604 99.8863 55.6987 99.9137C55.637 99.9411 55.5703 99.9553 55.5028 99.9553C55.4353 99.9553 55.3686 99.9411 55.3069 99.9137C55.2453 99.8863 55.19 99.8462 55.1448 99.7961C55.0997 99.746 55.0655 99.6869 55.0446 99.6228C55.0236 99.5586 55.0164 99.4908 55.0234 99.4237H55.4849H55.0234V99.3929C55.0211 99.3742 55.0211 99.3552 55.0234 99.3365C55.0234 99.2852 55.0234 99.2185 55.0234 99.1365C55.0575 98.9294 55.1232 98.7288 55.2182 98.5417C55.3466 98.282 55.5527 98.0687 55.8079 97.9315C56.1235 97.7685 56.4852 97.7179 56.8335 97.7879C56.9471 97.8132 57.0657 97.8043 57.1743 97.7623C57.2829 97.7203 57.3766 97.6472 57.4437 97.552C57.5036 97.4477 57.5389 97.3312 57.5469 97.2112C57.5549 97.0912 57.5354 96.971 57.4898 96.8597C57.4441 96.709 57.3657 96.5702 57.2603 96.4532C57.1548 96.3362 57.0248 96.2439 56.8796 96.1829Z" fill="#00857C"/>
<path d="M99.5841 112.935C99.7228 112.934 99.8581 112.892 99.973 112.814C100.088 112.737 100.177 112.627 100.229 112.498C100.282 112.37 100.295 112.229 100.267 112.093C100.24 111.957 100.172 111.832 100.074 111.734C99.9755 111.636 99.8503 111.57 99.7142 111.543C99.578 111.517 99.437 111.531 99.309 111.584C99.1809 111.638 99.0715 111.728 98.9945 111.843C98.9175 111.958 98.8765 112.094 98.8765 112.233C98.8765 112.325 98.8948 112.417 98.9304 112.503C98.966 112.588 99.0183 112.666 99.084 112.731C99.1498 112.797 99.2279 112.848 99.3137 112.883C99.3995 112.918 99.4914 112.936 99.5841 112.935Z" fill="#48A8A1"/>
<path d="M98.8768 111.186C98.7976 111.187 98.7194 111.169 98.6482 111.134C98.577 111.1 98.5149 111.049 98.4666 110.986C98.3196 110.795 98.2125 110.576 98.1517 110.343C98.0909 110.109 98.0777 109.866 98.1128 109.627C98.1612 109.421 98.2542 109.228 98.3853 109.061C98.5164 108.895 98.6824 108.759 98.8717 108.663C98.9589 108.623 99.0309 108.556 99.0771 108.472C99.1233 108.388 99.1412 108.292 99.1281 108.197C99.0825 108.063 99.001 107.944 98.8924 107.854C98.7839 107.763 98.6525 107.705 98.5127 107.684C97.9999 107.592 97.4872 107.945 97.0257 108.643C96.9901 108.701 96.943 108.752 96.8873 108.793C96.8316 108.833 96.7684 108.861 96.7015 108.877C96.6345 108.892 96.5651 108.894 96.4975 108.882C96.4299 108.87 96.3654 108.844 96.3078 108.807C96.2497 108.771 96.1994 108.724 96.1597 108.669C96.1199 108.614 96.0916 108.551 96.0763 108.485C96.061 108.418 96.0591 108.35 96.0707 108.283C96.0823 108.216 96.1071 108.151 96.1437 108.094C97.1128 106.556 98.2512 106.556 98.7076 106.663C99.0556 106.72 99.3789 106.879 99.6364 107.12C99.8939 107.361 100.074 107.674 100.154 108.017C100.209 108.317 100.168 108.626 100.039 108.902C99.9091 109.178 99.6965 109.406 99.4306 109.555H99.3998C99.1691 109.684 99.1435 109.796 99.1332 109.832C99.1229 110.017 99.1793 110.199 99.2922 110.345C99.3347 110.399 99.3661 110.46 99.3845 110.526C99.403 110.592 99.408 110.661 99.3994 110.729C99.3908 110.797 99.3687 110.862 99.3345 110.921C99.3002 110.98 99.2544 111.032 99.1999 111.073C99.1083 111.147 98.9942 111.187 98.8768 111.186Z" fill="#48A8A1"/>
<path d="M29.8817 70.7131C29.9831 70.7131 30.0822 70.683 30.1666 70.6266C30.2509 70.5703 30.3166 70.4902 30.3554 70.3965C30.3942 70.3028 30.4044 70.1997 30.3846 70.1002C30.3648 70.0008 30.316 69.9094 30.2443 69.8377C30.1726 69.766 30.0812 69.7171 29.9817 69.6974C29.8822 69.6776 29.7791 69.6877 29.6854 69.7265C29.5917 69.7653 29.5117 69.8311 29.4553 69.9154C29.399 69.9997 29.3689 70.0989 29.3689 70.2003C29.3689 70.3363 29.4229 70.4667 29.5191 70.5629C29.6153 70.659 29.7457 70.7131 29.8817 70.7131Z" fill="#48A8A1"/>
<path d="M29.6304 69.3593C29.5768 69.3417 29.5278 69.3122 29.487 69.2732C29.4461 69.2342 29.4146 69.1865 29.3945 69.1337C29.3372 68.9736 29.3123 68.8036 29.3211 68.6338C29.3299 68.4639 29.3723 68.2974 29.4458 68.144C29.5237 68.0157 29.6288 67.906 29.7537 67.8227C29.8787 67.7394 30.0204 67.6845 30.1688 67.662C30.3329 67.6159 30.4252 67.5236 30.4355 67.4005C30.4397 67.299 30.4137 67.1985 30.3608 67.1117C30.3078 67.025 30.2303 66.956 30.138 66.9134C29.815 66.739 29.374 66.8621 28.933 67.2416C28.8584 67.3021 28.763 67.3312 28.6672 67.3226C28.5715 67.314 28.4829 67.2683 28.4202 67.1954C28.3889 67.159 28.3653 67.1167 28.3506 67.071C28.336 67.0253 28.3306 66.9771 28.3349 66.9293C28.3392 66.8814 28.3531 66.835 28.3757 66.7926C28.3982 66.7503 28.4291 66.7128 28.4664 66.6826C29.4407 65.8519 30.2098 66.1186 30.5175 66.2673C30.7406 66.3786 30.9251 66.5546 31.0467 66.7723C31.1684 66.99 31.2216 67.2393 31.1995 67.4877C31.1736 67.7017 31.0808 67.9022 30.9345 68.0605C30.7881 68.2189 30.5955 68.327 30.3842 68.3697C30.1996 68.4056 30.1586 68.4774 30.1483 68.503C30.1036 68.6255 30.1036 68.7599 30.1483 68.8825C30.1653 68.9275 30.1731 68.9755 30.1711 69.0236C30.1692 69.0718 30.1576 69.119 30.137 69.1625C30.1164 69.2061 30.0873 69.245 30.0514 69.2771C30.0154 69.3091 29.9734 69.3336 29.9278 69.3491C29.833 69.3877 29.7276 69.3914 29.6304 69.3593Z" fill="#48A8A1"/>
<path d="M100.364 88.493C100.364 96.3181 116.378 102.128 118.234 94.7233C118.701 92.8516 119.542 82.3088 118.491 79.4373C117.978 77.9605 116.116 77.5348 115.445 77.5451C115.445 78.1297 115.383 77.8579 115.445 78.2733C110.64 84.6061 100.364 84.8779 100.364 88.493Z" fill="#296F8E"/>
<path d="M39.4861 84.6612C39.4861 91.5991 27.6203 102.762 23.8975 96.0449C22.5797 93.6707 20.8209 83.8151 21.7695 81.1742C22.472 79.2205 24.4052 77.9437 24.5334 78.9949C29.9638 82.851 39.4861 79.4718 39.4861 84.6612Z" fill="#296F8E"/>
</svg>
