<svg width="64" height="65" fill="none" xmlns="http://www.w3.org/2000/svg">
  <path d="M6.428 38.364c-3.376-.866-5.886-.995-6.362.8-.454 1.818 1.45 3.419 4.825 4.284 3.376.866 7.313.714 7.443-.562.476-1.818-2.531-3.678-5.906-4.522z" fill="#163B4B"/>
  <path d="M5.67 42.301C2.685 42.885.456 44.184.76 45.785c.325 1.6 2.943 1.947 5.928 1.341 2.986-.584 5.994-1.644 5.67-3.245-.325-1.601-3.7-2.164-6.687-1.58z" fill="#1F576F"/>
  <path d="M23.52 56.127c8.102 0 14.67-6.568 14.67-14.67 0-8.101-6.568-14.669-14.67-14.669S8.85 33.356 8.85 41.458c0 8.101 6.568 14.669 14.67 14.669z" fill="#296F8E"/>
  <path d="M8.96 43.167c.086 3.267.627 2.986 2.27 7.054.369 2.488-4.088 4.825-2.293 6.512 2.1 1.99 7.443-1.601 8.136-2.099.93-3.808-1.818-11.51-8.114-11.467zM35.204 44.746s1.45 7.832-4.825 13.74c-2.553 2.4-3.57 1.946-4.068 1.557-1.017-.8-2.813-4.349-2.813-4.349s4.566-1.71 7.616-4.976c3.051-3.267 4.09-5.972 4.09-5.972zM25.078 33.02c6.608 0 11.965-5.357 11.965-11.965S31.686 9.09 25.078 9.09s-11.965 5.357-11.965 11.965S18.47 33.02 25.078 33.02z" fill="#296F8E"/>
  <path d="M15.06 24.97c.303 2.186.823 3.246-2.899 7.206 10.277.151 21.03 2.38 23.346.843-1.558-2.444-2.38-3.591-.758-5.582-3.85 2.618-14.496 1.147-19.689-2.466z" fill="#296F8E"/>
  <path d="M19.864 30.51c-3.895 5.495-2.964 12.159-.26 14.712 3.289 3.116 15.232 3.397 16.27-4.349.65-4.782-2.66-6.902-3.267-11.597.758-2.25 3.246-2.942 4.241-5.171 3.765-13.242-18.304-17.807-20.727-5.258-.974 5.56 6.34 8.006 3.743 11.662z" fill="#fff"/>
  <path d="M15.255 18.804c0 2.358 1.904 4.825 5.344 4.825 3.57 0 5.95-4.825 11.1-5.885 5.842-1.86 2.077-9.325-7.14-8.698-6.62.043-9.304 4.739-9.304 9.758z" fill="#CAE4ED"/>
  <path d="M22.893 17.852a2.216 2.216 0 002.207-2.207 2.216 2.216 0 00-2.207-2.207 2.216 2.216 0 00-2.207 2.207c0 1.212.995 2.207 2.207 2.207z" fill="#161616"/>
  <path d="M23.52 16.857c.433 0 .8-.368.8-.8 0-.433-.367-.801-.8-.801-.433 0-.8.368-.8.8 0 .433.367.8.8.8z" fill="#fff"/>
  <path d="M57.143 15.884c-.303 1.71-3.029.8-7.789 2.315-4.76 1.493-14.648 6.47-16.963 6.556-2.336.086-5.15-3.83-5.344-5.431-.195-1.601 10.385-1.147 15.99-2.402 5.581-1.233 13.435-2.315 14.106-1.038z" fill="#F3B761"/>
  <path d="M28.194 9.284c8.87-4.824 21.982-4.868 27.65-2.834 5.93 2.142 8.98 7.703 7.963 9.477-1.039 1.796-6.707-1.601-16.098.497-9.39 2.1-20.078 4.566-20.662 2.878-.736-2.077-.368-7.594 1.147-10.018z" fill="#F3B761"/>
  <path d="M53.27 5.78c.952.194 1.818.41 2.575.692 5.928 2.142 8.98 7.702 7.962 9.476-.757 1.32-4.067-.173-9.541-.216-.347 0-.693 0-1.039.022 1.168-3.29 2.92-6.967.043-9.975z" fill="#854400"/>
  <path d="M57.143 15.884c-5.323-2.315-21.334 2.618-23.757 2.878-3.873.432-4.717-.325-4.717-.325s.498 2.034 10.537-.13c10.04-2.163 12.722-2.834 17.937-2.423z" fill="#D6801C"/>
  <path d="M43.447 28.346H27.415a.48.48 0 01-.476-.476v-3.31a.48.48 0 01.476-.476h16.032a.48.48 0 01.476.476v3.31a.48.48 0 01-.476.476z" fill="#065C56"/>
  <path d="M42.387 41.933H26.354a.48.48 0 01-.476-.476v-3.31a.48.48 0 01.476-.476h16.033a.48.48 0 01.476.476v3.31a.48.48 0 01-.476.476z" fill="#48A8A1"/>
  <path d="M45.2 35.14H27.826a.49.49 0 01-.498-.497v-3.267a.49.49 0 01.498-.498H45.2a.49.49 0 01.497.498v3.267a.49.49 0 01-.497.497z" fill="#F3B761"/>
  <path d="M40.937 30.877H25.922a.342.342 0 01-.346-.346v-1.84c0-.194.151-.345.346-.345h15.015c.195 0 .347.151.347.346v1.839a.342.342 0 01-.347.346z" fill="#9ACECA"/>
  <path d="M43.75 37.671H28.734a.342.342 0 01-.346-.346v-1.84c0-.194.152-.345.346-.345H43.75c.195 0 .346.151.346.346v1.839c.022.195-.151.346-.346.346z" fill="#D6801C"/>
  <path d="M21.032 42.064c0 1.406-1.947 4.392-5.69 4.024-3.678-.563-5.885-2.488-6.318-5.582.368 0 2.488 1.471 6.253 1.471 3.764 0 5.755-1.298 5.755.087z" fill="#1F576F"/>
  <path d="M41.76 42.843c-.368 1.73-4.544 2.012-4.868 1.882.043-.627.605-2.229 1.298-2.748 1.428-1.125 1.904-3.851 2.704-3.851.78 0 1.255 2.878.866 4.717zM31.915 35.832c-.108 5.366-10.277 9.39-14.301 9.39-4.025 0-8.633-2.185-8.655-5.409-.022-4.305 3.786-6.923 5.712-10.818 1.104 4.912 4.825 8.59 12.398 7.313 3.418-.584 4.868-1.73 4.846-.476z" fill="#296F8E"/>
</svg>
