<svg width="378" height="162" viewBox="0 0 378 162" fill="none" xmlns="http://www.w3.org/2000/svg">
<g clip-path="url(#clip0_1022_60874)">
<path d="M378 0H0V162H378V0Z" fill="url(#paint0_linear_1022_60874)"/>
<path d="M222.126 -33.75C225.62 -24.1875 227.528 -13.8606 227.528 -3.09014C227.528 46.226 187.547 86.2067 138.231 86.2067C88.9147 86.2067 48.9375 46.226 48.9375 -3.09014C48.9375 -13.6442 50.7692 -23.7728 54.1298 -33.1731L222.126 -33.75Z" fill="#F5F5F5"/>
<path d="M172.125 117.562C172.441 116.93 172.706 116.269 173.081 115.672C175.165 112.354 177.859 109.491 180.162 106.355C185.505 99.0798 192.851 95.1939 201.284 92.9457C207.675 91.2449 213.775 88.8999 219.387 85.355C226.582 80.8123 232.51 74.813 238.307 68.7C245.182 61.4461 253.564 56.8487 262.949 53.7417C268.624 51.864 274.421 50.4999 280.231 49.178C283.489 48.437 286.807 47.9234 290.12 47.4897C293.682 47.0224 297.269 46.6182 300.856 46.4456C305.479 46.2267 310.131 45.9994 314.745 46.273C319.629 46.5635 324.428 46.6772 329.282 45.8225C336.41 44.5679 343.083 42.0924 349.474 38.8128C356.319 35.2974 362.495 30.7084 368.844 26.4058C376.304 21.3411 383.701 16.1627 392.012 12.5378C399.321 9.35081 407.029 7.69205 414.953 7.06475C421.28 6.56375 427.549 5.89014 433.717 4.21875H435.287L434.382 227.019H172.125V117.562Z" fill="url(#paint1_linear_1022_60874)"/>
<path d="M417.988 167.488C417.357 168.166 416.477 167.802 415.727 167.993C411.88 168.97 407.942 169.486 404.012 169.98C400.536 170.42 397.057 170.834 393.566 171.166C389.358 171.566 385.147 171.974 380.935 172.118C374.492 172.338 368.045 172.284 361.641 171.126C357.018 170.293 352.5 169.215 348.119 167.502C342.343 165.242 336.844 162.426 331.338 159.591C325.414 156.541 319.237 153.977 313.352 150.855C304.446 146.127 296.297 140.146 287.748 134.82C280.954 130.59 274.688 125.593 268.457 120.588C260.942 114.552 252.689 109.673 244.453 104.755C238.789 101.373 232.936 98.3294 226.785 95.928C220.716 93.559 214.392 92.0914 208.053 90.6347C201.487 89.1275 194.856 88.0241 188.203 87.1407C181.868 86.2969 175.558 85.3775 169.475 83.4268C164.373 81.7897 159.584 79.4929 155.542 75.7609C152.448 72.9051 149.996 69.577 147.671 66.1479C143.867 60.5409 139.287 55.7164 133.958 51.5445C128.766 47.4808 122.787 44.9099 116.802 42.4075C108.826 39.0722 100.897 35.6503 93.393 31.3522C84.4255 26.2176 78.3462 18.5878 74.6358 9.0145C72.1767 2.67195 71.0986 -4.02396 69.8149 -10.6442C68.6539 -16.6442 66.9988 -22.4242 63.9772 -27.7499C62.845 -29.7439 60.9411 -32.6249 58.2584 -33.1694L-43.6406 -33.667V226.846H417.591L417.988 167.488Z" fill="url(#paint2_linear_1022_60874)"/>
<path d="M142.123 143.666C144.193 145.177 147.096 144.724 148.607 142.654C150.119 140.584 149.666 137.681 147.596 136.17C145.526 134.659 142.623 135.111 141.111 137.181C139.6 139.251 140.053 142.155 142.123 143.666Z" fill="#E6E6E6"/>
<path d="M354.748 73.8262C356.818 75.3374 359.721 74.8845 361.232 72.8145C362.744 70.7445 362.291 67.8414 360.221 66.3301C358.151 64.8189 355.248 65.2718 353.736 67.3418C352.225 69.4118 352.678 72.3149 354.748 73.8262Z" fill="#E6E6E6"/>
<path d="M56.9043 13.0762C58.9742 14.5874 61.8774 14.1345 63.3886 12.0645C64.8999 9.9945 64.4469 7.09136 62.377 5.58012C60.307 4.06887 57.4038 4.52179 55.8926 6.59178C54.3813 8.66176 54.8343 11.5649 56.9043 13.0762Z" fill="#E6E6E6"/>
<path d="M83.0437 80.1438C84.1727 80.9681 85.7563 80.7211 86.5806 79.592C87.4049 78.4629 87.1578 76.8794 86.0288 76.0551C84.8997 75.2307 83.3161 75.4778 82.4918 76.6069C81.6675 77.736 81.9146 79.3195 83.0437 80.1438Z" fill="#E6E6E6"/>
<path d="M22.2937 140.05C23.4227 140.874 25.0063 140.627 25.8306 139.498C26.6549 138.369 26.4078 136.786 25.2788 135.961C24.1497 135.137 22.5661 135.384 21.7418 136.513C20.9175 137.642 21.1646 139.226 22.2937 140.05Z" fill="#E6E6E6"/>
<path d="M35.8199 54.5355C37.3254 55.6346 39.4367 55.3052 40.5358 53.7997C41.6349 52.2943 41.3055 50.1829 39.8001 49.0838C38.2946 47.9847 36.1832 48.3142 35.0841 49.8196C33.9851 51.325 34.3145 53.4364 35.8199 54.5355Z" fill="#E6E6E6"/>
<path d="M273.791 51.0848C275.466 52.3078 277.371 49.7071 275.692 48.4809C274.016 47.2579 272.111 49.8587 273.791 51.0848Z" fill="#E6E6E6"/>
<path d="M364.916 55.3036C366.591 56.5266 368.496 53.9259 366.817 52.6997C365.141 51.4767 363.236 54.0774 364.916 55.3036Z" fill="#E6E6E6"/>
<path d="M290.838 35.1657C292.199 36.1594 293.695 34.1176 292.331 33.1213C290.97 32.1275 289.474 34.1693 290.838 35.1657Z" fill="#E6E6E6"/>
<path d="M284.485 60.9964C286.924 62.777 289.603 59.1208 287.157 57.3355C284.718 55.5548 282.046 59.2157 284.485 60.9964Z" fill="#E6E6E6"/>
<path d="M150.482 121.96C152.157 123.183 154.063 120.582 152.383 119.356C150.708 118.133 148.802 120.734 150.482 121.96Z" fill="#E6E6E6"/>
<path d="M205.259 69.5223C206.934 70.7453 208.84 68.1446 207.16 66.9184C205.485 65.6954 203.58 68.2962 205.259 69.5223Z" fill="#E6E6E6"/>
</g>
<defs>
<linearGradient id="paint0_linear_1022_60874" x1="182.25" y1="-41.1429" x2="186.169" y2="196.118" gradientUnits="userSpaceOnUse">
<stop stop-color="#E6E6E6"/>
<stop offset="1" stop-color="#B4B4B4"/>
</linearGradient>
<linearGradient id="paint1_linear_1022_60874" x1="205.875" y1="-97.875" x2="325.688" y2="381.375" gradientUnits="userSpaceOnUse">
<stop stop-color="#B4B4B4"/>
<stop offset="1" stop-color="#E6E6E6"/>
</linearGradient>
<linearGradient id="paint2_linear_1022_60874" x1="187.174" y1="-33.667" x2="187.174" y2="226.846" gradientUnits="userSpaceOnUse">
<stop stop-color="#B4B4B4"/>
<stop offset="1" stop-color="#B4B4B4"/>
</linearGradient>
<clipPath id="clip0_1022_60874">
<rect width="378" height="162" fill="white"/>
</clipPath>
</defs>
</svg>
