<svg width="164" height="33" viewBox="0 0 164 33" fill="none" xmlns="http://www.w3.org/2000/svg">
<path d="M65.8278 22.886C65.8238 22.8899 65.8199 22.8899 65.8199 22.8939C62.6937 25.107 58.9894 27.4316 55.0019 29.8719L54.8464 29.9637C54.7946 30.0035 54.7786 30.0753 54.8185 30.1311C54.8544 30.1869 54.9302 30.1989 54.982 30.159L55.1136 30.0873C58.4949 28.3248 62.3747 26.2274 66.2824 24.0822C66.3023 24.0702 66.3223 24.0583 66.3462 24.0463C66.1269 23.6954 65.9514 23.3086 65.8278 22.886ZM86.3512 6.26632C81.4227 0.831447 49.7066 5.72004 36.2171 8.66676L35.9021 8.73454C35.8383 8.74651 35.7945 8.80632 35.8064 8.87411C35.8184 8.9379 35.8782 8.98177 35.946 8.9698L36.257 8.90999C47.4298 6.92026 70.6726 4.16096 75.6728 9.12133C77.2 10.6326 76.8332 12.5824 75.0667 14.8832C76.0197 15.4972 76.7016 16.4582 77.0046 17.6664C83.9069 13.0689 88.5482 8.69068 86.3512 6.26632Z" fill="#676A6C"/>
<path d="M67.8215 21.4545C67.8853 23.3684 69.0935 24.9355 70.6725 24.9355C73.7309 24.9355 75.0348 21.1793 74.9431 18.6672C74.8793 16.7493 73.6352 15.1862 72.0602 15.1862C69.4284 15.1902 67.7298 18.9304 67.8215 21.4545ZM66.2066 21.3548C66.0949 18.0891 68.6509 14.7516 72.3672 14.7516C74.8514 14.7516 76.4782 16.4064 76.5699 18.9424C76.6896 22.3875 74.3011 25.5456 70.4094 25.5456C67.9212 25.5456 66.2943 23.8948 66.2066 21.3548Z" fill="#515252"/>
<path d="M31.0097 20.4895C30.8781 20.5374 30.7066 20.5892 30.4913 20.6331C30.28 20.6809 29.8932 20.7487 29.331 20.8404C28.9442 20.9002 28.673 20.984 28.5215 21.0916C28.374 21.1993 28.2902 21.3309 28.2623 21.4864C28.2304 21.6539 28.2863 21.7894 28.4338 21.8931C28.5813 21.9968 28.8325 22.0486 29.1834 22.0486C29.4466 22.0486 29.7058 22.0047 29.957 21.925C30.2082 21.8413 30.4235 21.7296 30.587 21.5901C30.7066 21.4864 30.7944 21.3548 30.8582 21.1953C30.894 21.0956 30.9459 20.8604 31.0097 20.4895ZM34.2395 18.4838C34.2275 18.7829 34.1757 19.0461 34.096 19.5046L33.5497 22.571C33.5018 22.8421 33.6055 23.0574 33.8567 23.205L33.8408 23.3246L30.7106 23.3206L30.6827 22.5391C30.2281 22.8142 29.6779 23.0455 29.1794 23.181C28.685 23.3086 28.2823 23.3645 27.6802 23.3645C26.6713 23.3645 26.0892 23.2608 25.6904 22.9099C25.2837 22.547 25.0883 22.3078 25.1083 21.8133C25.1242 21.5263 25.2718 21.1594 25.4871 20.9042C25.7024 20.645 25.9975 20.4736 26.3205 20.322C26.6434 20.1665 27.0222 20.0549 27.5765 19.9712C28.1307 19.8794 28.9003 19.7917 29.9331 19.704C30.4754 19.6601 30.8063 19.5325 30.9618 19.4727C31.1772 19.389 31.2609 19.2973 31.2928 19.1218C31.3486 18.8068 31.2489 18.6274 30.8302 18.5437C29.7018 18.3204 27.5924 18.6872 26.4999 18.9583L27.09 17.3634C28.5255 17.152 29.8733 17.0204 31.2888 17.0204C33.5417 17.0165 34.2634 17.6584 34.2395 18.4838Z" fill="#515252"/>
<path d="M43.3102 23.3246L44.3947 17.1959H47.3893L46.3047 23.3246H43.3102ZM44.5622 15.7764C44.6499 15.274 45.4474 14.8633 46.3366 14.8633C47.2258 14.8633 47.8758 15.274 47.788 15.7764C47.6923 16.2788 46.8988 16.6895 46.0096 16.6895C45.1165 16.6895 44.4705 16.2788 44.5622 15.7764Z" fill="#515252"/>
<path d="M58.0286 20.5055C57.8931 20.5493 57.7216 20.6012 57.5103 20.649C57.2989 20.7008 56.9121 20.7607 56.3459 20.8524C55.9591 20.9122 55.688 20.9959 55.5405 21.1036C55.3969 21.2072 55.3132 21.3388 55.2813 21.4983C55.2494 21.6698 55.3132 21.8054 55.4527 21.905C55.6043 22.0087 55.8555 22.0606 56.2064 22.0606C56.4656 22.0606 56.7247 22.0207 56.9759 21.9409C57.2311 21.8572 57.4425 21.7456 57.6099 21.606C57.7256 21.5023 57.8133 21.3667 57.8771 21.2072C57.913 21.1115 57.9648 20.8723 58.0286 20.5055ZM61.2584 18.4958C61.2465 18.7948 61.1946 19.062 61.1109 19.5166L60.5686 22.5869C60.5208 22.858 60.6205 23.0694 60.8717 23.2209L60.8517 23.3286L57.7256 23.3365L57.7017 22.555C57.2431 22.8301 56.6928 23.0614 56.1984 23.197C55.7 23.3286 55.3012 23.3804 54.6951 23.3804C53.6863 23.3804 53.1121 23.2807 52.7094 22.9258C52.3027 22.563 52.1033 22.3237 52.1272 21.8293C52.1392 21.5422 52.2867 21.1714 52.506 20.9202C52.7213 20.657 53.0164 20.4895 53.3394 20.338C53.6624 20.1865 54.0452 20.0748 54.5915 19.9831C55.1457 19.8954 55.9193 19.8037 56.952 19.7159C57.4903 19.6721 57.8213 19.5485 57.9728 19.4887C58.1921 19.4049 58.2758 19.3092 58.3077 19.1338C58.3636 18.8228 58.2639 18.6393 57.8492 18.5556C56.7168 18.3323 54.6114 18.6992 53.5188 18.9703L54.109 17.3753C55.5524 17.164 56.8882 17.0284 58.3077 17.0284C60.5606 17.0244 61.2784 17.6704 61.2584 18.4958Z" fill="#515252"/>
<path d="M24.6975 21.1195C23.7206 21.3149 23.1743 21.3867 22.2093 21.3867C20.7778 21.3867 19.6414 20.6769 19.7012 19.373C19.7451 18.5038 20.7739 16.6735 23.3856 16.6735C24.207 16.6735 24.849 16.8171 25.7143 17.3115L26.0931 15.1822C24.9168 14.7396 24.1393 14.6719 23.1304 14.6838C19.7092 14.7197 16.4196 16.2788 16.0129 19.4408C15.5982 22.6547 19.5258 23.4641 21.2683 23.4562C22.2731 23.4522 23.3218 23.4123 24.2988 23.3126L24.6975 21.1195Z" fill="#515252"/>
<path d="M49.0404 17.16L49.2557 15.9119L52.3898 15.2301L52.0549 17.16H53.59L53.299 18.3961L51.8116 18.3921L50.9065 23.3206C50.9065 23.3206 47.888 23.3007 47.88 23.3206L48.7812 18.4041H47.6408L47.8721 17.16H49.0404V17.16Z" fill="#515252"/>
<path d="M64.3002 23.3206L61.2498 23.3246L62.7809 14.7715L65.7556 14.8553L64.3002 23.3206Z" fill="#515252"/>
<path d="M39.3472 18.6314C38.9564 18.6314 38.5976 18.751 38.2825 18.9862C37.9715 19.2255 37.7722 19.5724 37.6884 20.0349C37.5927 20.5693 37.6485 20.952 37.8599 21.1913C38.0752 21.4266 38.3822 21.5462 38.785 21.5462C39.0561 21.5462 39.3392 21.4983 39.5466 21.3947C39.8018 21.2591 39.9812 21.1155 40.1327 20.8922C40.2962 20.653 40.4079 20.3898 40.4637 20.0828C40.5474 19.6003 40.4756 19.2375 40.2523 18.9982C40.037 18.751 39.738 18.6314 39.3472 18.6314ZM33.8924 25.4379L35.3518 17.2238H37.9835L37.7801 18.2725C38.0074 17.9615 38.3743 17.7023 38.8767 17.491C39.3831 17.2836 39.9573 17.1281 40.5753 17.1281C41.2612 17.1281 41.6838 17.164 42.1982 17.4311C42.7086 17.6983 43.0635 18.0891 43.2589 18.5955C43.4543 19.0939 43.4981 19.6561 43.3905 20.2622C43.211 21.275 42.7206 22.0725 41.9111 22.6587C41.1096 23.2448 40.3839 23.4003 39.3552 23.4043C38.9883 23.4043 38.6853 23.3644 38.4301 23.3046C38.1829 23.2408 37.9835 23.1611 37.832 23.0654C37.6884 22.9697 37.5369 22.8341 37.3375 22.6188L36.8471 25.4339H33.8924V25.4379Z" fill="#515252"/>
<path d="M88.2773 19.385C88.2613 18.8906 88.0141 18.5596 87.5037 18.5596C86.2756 18.5596 84.9677 20.968 84.7444 21.937C86.7581 21.937 88.3251 20.7328 88.2773 19.385ZM88.5404 23.1571L88.7797 23.3166C88.1816 24.5368 86.9574 25.5177 85.5259 25.5177C84.3536 25.5177 83.3927 24.7361 83.3408 23.2728C83.2451 20.645 85.7054 18.2047 87.723 18.2047C88.5883 18.2047 89.3898 18.5835 89.4256 19.5126C89.5014 21.602 86.5667 22.24 84.6327 22.2839C84.569 22.5032 84.545 22.7225 84.557 23.0534C84.5889 23.9187 85.1152 24.6484 86.1958 24.6484C87.1329 24.6524 88.0659 23.8988 88.5404 23.1571Z" fill="#515252"/>
<path d="M76.5223 19.3132C76.7296 19.2853 77.0645 19.2494 77.2081 19.2494C77.4274 19.2494 77.6348 19.2893 77.6467 19.5086C77.6507 19.6362 77.4154 20.5693 77.3676 20.7846L76.9011 22.8461C76.7137 23.6874 76.5063 24.5727 76.3269 25.2705H77.5271L78.201 22.0047C80.2585 19.8595 81.052 19.1617 81.5384 19.1617C81.7578 19.1617 81.9093 19.2773 81.9173 19.5365C81.9292 19.9153 81.694 20.7726 81.6142 21.0159L80.9244 23.3964C80.7689 23.9307 80.6532 24.4132 80.6612 24.7601C80.6811 25.2824 81.0001 25.5137 81.4667 25.5137C82.3439 25.5137 82.9819 24.6006 83.5362 23.6994L83.3727 23.4043C83.1454 23.7672 82.627 24.5527 82.2163 24.5527C82.0847 24.5527 81.9651 24.465 81.9611 24.2497C81.9492 23.9706 82.0648 23.5559 82.1485 23.2807L82.9141 20.4935C83.1175 19.7239 83.2172 19.2295 83.2132 18.9663C83.1932 18.444 82.8902 18.2007 82.4237 18.2007C81.6341 18.2007 80.5855 18.7789 78.3645 21.3349H78.3326L78.6117 20.0868C78.7632 19.4049 78.9107 18.6952 79.0543 18.2007C78.2847 18.4759 77.1842 18.7869 76.5063 18.9185L76.5223 19.3132Z" fill="#515252"/>
<path d="M100.359 15.7654C99.8879 15.6531 99.4198 15.5969 98.9703 15.5969C98.3118 15.5969 97.7125 15.7124 97.1913 15.9433C96.667 16.1743 96.2456 16.5082 95.9429 16.9327C95.6401 17.3603 95.4841 17.8597 95.4841 18.4246C95.4841 18.9333 95.6214 19.364 95.896 19.7074C96.1676 20.0476 96.6233 20.3534 97.2444 20.6156L98.2025 21.0182C98.627 21.2055 98.936 21.4177 99.1264 21.6549C99.3137 21.889 99.4073 22.1855 99.4073 22.5351C99.4073 23.0969 99.1951 23.5557 98.7737 23.8959C98.3524 24.2392 97.7812 24.414 97.0852 24.414C96.6139 24.414 96.1395 24.3422 95.6713 24.1986C95.2063 24.0551 94.7912 23.8553 94.4354 23.5963L94.3792 23.5557V24.7355L94.3948 24.7448C94.7818 24.9789 95.2281 25.1662 95.7244 25.3004C96.2206 25.4346 96.7263 25.5032 97.2319 25.5032C97.9154 25.5032 98.5365 25.3784 99.0733 25.1287C99.6102 24.879 100.041 24.5201 100.35 24.0582C100.659 23.5963 100.815 23.0501 100.815 22.4352C100.815 21.8547 100.662 21.3615 100.362 20.9714C100.063 20.5813 99.5727 20.238 98.9048 19.9477L97.9216 19.517C97.5596 19.3578 97.2943 19.1799 97.132 18.9864C96.9728 18.796 96.8917 18.5588 96.8917 18.281C96.8917 17.8004 97.0914 17.4102 97.4847 17.1231C97.8811 16.8328 98.4179 16.6861 99.0827 16.6861C99.8723 16.6861 100.634 16.8703 101.345 17.2355L101.386 17.2573L101.583 16.2398L101.586 16.2149L101.564 16.2024C101.236 16.0276 100.834 15.8778 100.359 15.7654Z" fill="#515252"/>
<path d="M106.167 18.1843C105.574 18.1843 104.941 18.3559 104.289 18.693L105.003 15.0039L105.013 14.957L103.686 15.1131L101.714 25.2629L101.704 25.3035H103.003L104.098 19.6824C104.332 19.5451 104.598 19.4327 104.885 19.3484C105.178 19.2642 105.456 19.2205 105.712 19.2205C106.096 19.2205 106.392 19.3079 106.592 19.4764C106.789 19.6449 106.888 19.8915 106.888 20.2099C106.888 20.3597 106.87 20.5438 106.835 20.756L105.958 25.2598L105.949 25.3004H107.247L108.143 20.6874C108.19 20.4783 108.212 20.2536 108.212 20.0195C108.212 19.4452 108.031 18.9895 107.675 18.6649C107.319 18.3497 106.814 18.1843 106.167 18.1843Z" fill="#515252"/>
<path d="M112.868 18.1843C112.172 18.1843 111.542 18.3778 110.996 18.7648C110.45 19.1487 110.013 19.7042 109.697 20.419C109.382 21.1306 109.223 21.967 109.223 22.9002C109.223 23.7429 109.451 24.3953 109.9 24.8385C110.35 25.2848 111.008 25.5095 111.86 25.5095C112.556 25.5095 113.187 25.316 113.733 24.929C114.279 24.5451 114.716 23.9895 115.031 23.2748C115.347 22.5632 115.506 21.7298 115.506 20.7935C115.506 19.9508 115.278 19.2985 114.828 18.8553C114.379 18.409 113.721 18.1843 112.868 18.1843ZM111.966 24.467C111.492 24.467 111.139 24.3391 110.915 24.0894C110.687 23.8366 110.574 23.4371 110.574 22.9002C110.574 22.1949 110.665 21.5582 110.843 21.0026C111.021 20.4502 111.277 20.0101 111.608 19.6949C111.938 19.3828 112.325 19.2267 112.762 19.2267C113.234 19.2267 113.589 19.3547 113.814 19.6075C114.042 19.8603 114.154 20.2598 114.154 20.7966C114.154 21.4989 114.064 22.1387 113.886 22.6943C113.708 23.2498 113.452 23.6868 113.121 24.002C112.794 24.311 112.403 24.467 111.966 24.467Z" fill="#515252"/>
<path d="M120.581 18.1843C119.947 18.1843 119.273 18.3871 118.58 18.7929V18.3559L117.503 18.4714L115.584 28.3122L115.575 28.359L116.901 28.203L117.478 25.2255C118 25.4158 118.524 25.5095 119.042 25.5095C119.757 25.5095 120.409 25.3191 120.983 24.9446C121.558 24.57 122.017 24.0332 122.351 23.3466C122.684 22.663 122.853 21.864 122.853 20.9714C122.853 20.085 122.656 19.3953 122.266 18.9146C121.876 18.4308 121.308 18.1843 120.581 18.1843ZM118.565 19.6855C119.048 19.3796 119.563 19.2267 120.097 19.2267C120.578 19.2267 120.937 19.3734 121.161 19.6637C121.389 19.9571 121.505 20.4252 121.505 21.0526C121.505 21.708 121.399 22.3041 121.189 22.8191C120.98 23.331 120.678 23.7429 120.291 24.0394C119.904 24.3328 119.448 24.4826 118.936 24.4826C118.487 24.4826 118.065 24.3921 117.681 24.2142L118.565 19.6855Z" fill="#515252"/>
<path d="M127.931 18.1843C127.297 18.1843 126.623 18.3871 125.93 18.7929V18.3559L124.854 18.4714L122.934 28.3122L122.925 28.359L124.251 28.203L124.829 25.2255C125.35 25.4158 125.874 25.5095 126.392 25.5095C127.107 25.5095 127.759 25.3191 128.334 24.9446C128.908 24.57 129.367 24.0332 129.701 23.3466C130.035 22.663 130.203 21.864 130.203 20.9714C130.203 20.085 130.007 19.3953 129.616 18.9146C129.223 18.4308 128.658 18.1843 127.931 18.1843ZM125.912 19.6855C126.395 19.3796 126.91 19.2267 127.444 19.2267C127.925 19.2267 128.284 19.3734 128.508 19.6637C128.736 19.9571 128.852 20.4252 128.852 21.0526C128.852 21.708 128.746 22.3041 128.536 22.8191C128.327 23.331 128.025 23.7429 127.638 24.0394C127.251 24.3328 126.795 24.4826 126.283 24.4826C125.834 24.4826 125.412 24.3921 125.028 24.2142L125.912 19.6855Z" fill="#515252"/>
<path d="M133.933 15.5969C133.796 15.4783 133.608 15.419 133.377 15.419C133.081 15.419 132.844 15.5064 132.672 15.678C132.5 15.8497 132.413 16.0869 132.413 16.3834C132.413 16.5894 132.482 16.7548 132.622 16.8765C132.759 16.9951 132.947 17.0544 133.178 17.0544C133.474 17.0544 133.711 16.967 133.883 16.7954C134.055 16.6237 134.142 16.3865 134.142 16.09C134.142 15.8809 134.07 15.7155 133.933 15.5969Z" fill="#515252"/>
<path d="M130.874 25.266L130.868 25.3066H132.166L133.505 18.4028L133.515 18.3528L132.188 18.512L130.874 25.266Z" fill="#515252"/>
<path d="M138.393 18.1843C137.75 18.1843 137.057 18.3903 136.339 18.7929V18.3559L135.262 18.4714L133.936 25.266L133.927 25.3066H135.225L136.321 19.6855C136.555 19.5482 136.82 19.4358 137.107 19.3516C137.4 19.2673 137.678 19.2236 137.934 19.2236C138.318 19.2236 138.615 19.311 138.814 19.4795C139.011 19.6481 139.111 19.8946 139.111 20.213C139.111 20.3597 139.092 20.5469 139.058 20.7592L138.181 25.2629L138.171 25.3035H139.47L140.365 20.6905C140.412 20.4814 140.434 20.2567 140.434 20.0226C140.434 19.4483 140.253 18.9926 139.897 18.668C139.545 18.3497 139.036 18.1843 138.393 18.1843Z" fill="#515252"/>
<path d="M147.993 18.8771C147.553 18.6618 147.085 18.4901 146.598 18.3684C146.111 18.2467 145.656 18.1843 145.241 18.1843C144.535 18.1843 143.886 18.3715 143.315 18.7429C142.741 19.1144 142.279 19.6512 141.942 20.3409C141.604 21.0307 141.433 21.8328 141.433 22.7223C141.433 23.5463 141.639 24.2017 142.041 24.673C142.447 25.1474 143.015 25.3878 143.733 25.3878C144.301 25.3878 144.916 25.2161 145.559 24.879L145.384 25.806C145.172 26.8953 144.463 27.4508 143.274 27.4508C142.522 27.4508 141.81 27.2573 141.161 26.8765L141.108 26.8453V27.9252L141.127 27.9346C141.857 28.3029 142.613 28.4901 143.368 28.4901C144.27 28.4901 145.016 28.2436 145.581 27.7598C146.146 27.276 146.523 26.5675 146.704 25.6562L148.012 18.9146L148.018 18.8896L147.993 18.8771ZM146.604 19.4795L145.749 23.8865C145.266 24.1893 144.751 24.3453 144.217 24.3453C143.252 24.3453 142.781 23.7866 142.781 22.6412C142.781 21.992 142.887 21.4021 143.096 20.8871C143.302 20.3753 143.605 19.9633 143.995 19.6605C144.382 19.3609 144.838 19.2111 145.35 19.2111C145.799 19.2111 146.224 19.3016 146.604 19.4795Z" fill="#515252"/>
</svg>
