<svg width="352" height="198" viewBox="0 0 352 198" fill="none" xmlns="http://www.w3.org/2000/svg">
<path d="M9.00005 187.325H165.136C195.496 179.391 171.371 130.201 130.439 155.061C131.795 146.597 122.307 142.895 116.886 148.184C86.2549 116.976 60.7744 145.01 58.0637 158.762C38.8177 146.333 23.0957 165.904 27.1617 179.391C23.6378 174.63 10.3554 175.424 9.00005 187.325Z" fill="#F5F5F5"/>
<path d="M336.52 62.3247H184.307C154.71 54.3906 178.229 5.20053 218.132 30.0605C216.811 21.5974 226.06 17.8948 231.345 23.1842C261.206 -8.02379 286.046 20.0099 288.689 33.7622C307.451 21.3329 322.778 40.9035 318.815 54.3906C322.25 49.6302 335.199 50.4244 336.52 62.3247Z" fill="#F5F5F5"/>
<path d="M189 96.6667C189 92.9848 191.985 90 195.667 90H289.667C293.349 90 296.333 92.9848 296.333 96.6667V151.475C296.333 155.157 293.349 158.142 289.667 158.142H283.01C280.885 158.142 278.886 159.155 277.631 160.871L268.02 174L258.129 160.809C256.869 159.13 254.893 158.142 252.795 158.142H195.667C191.985 158.142 189 155.157 189 151.475V96.6667Z" fill="#C0E2DF"/>
<path d="M317.5 113C361 61 286 29 260.5 102.5C227.867 196.562 126 185 154.5 109" stroke="#9ACECA" stroke-dasharray="4 4"/>
<path d="M314.195 26.9054C309.637 28.8697 306.809 31.8554 304.295 36.884C303.98 37.5125 303.037 37.434 302.88 36.8054C301.387 32.2483 299.187 28.9483 293.53 26.984C292.823 26.7483 292.823 25.7268 293.53 25.4911C297.773 23.9197 300.68 21.0126 302.88 15.5126C303.116 14.884 303.98 14.8054 304.295 15.434C307.202 21.4054 309.402 23.3697 314.195 25.4911C314.823 25.7268 314.823 26.5911 314.195 26.9054Z" fill="#F3B761"/>
<path d="M127.879 25.9216C125.993 26.7073 124.814 27.9644 123.793 30.0859C123.636 30.3216 123.321 30.3216 123.164 30.0859C122.536 28.2002 121.671 26.8644 119.236 26.0001C118.921 25.9216 118.921 25.5287 119.236 25.3716C120.964 24.743 122.221 23.5644 123.086 21.2073C123.164 20.9716 123.557 20.893 123.714 21.2073C124.893 23.643 125.836 24.5073 127.8 25.3716C128.114 25.3716 128.114 25.7644 127.879 25.9216Z" fill="#F3B761"/>
<path d="M69.9874 128.141C67.2374 129.32 65.5874 131.048 64.0946 134.113C63.9374 134.505 63.3874 134.427 63.2303 134.034C62.2874 131.284 61.0303 129.32 57.6517 128.141C57.2588 127.984 57.2588 127.434 57.6517 127.277C60.166 126.334 61.8946 124.605 63.2303 121.305C63.3874 120.913 63.9374 120.913 64.0946 121.227C65.8231 124.763 67.1588 125.941 70.066 127.277C70.3803 127.434 70.3803 127.984 69.9874 128.141Z" fill="#F3B761"/>
<path d="M34.0213 101.565C32.1356 102.35 30.957 103.608 29.9356 105.729C29.7785 105.965 29.4642 105.965 29.307 105.729C28.6785 103.843 27.8142 102.508 25.3785 101.643C25.0642 101.565 25.0642 101.172 25.3785 101.015C27.107 100.386 28.3642 99.2075 29.2285 96.8504C29.307 96.6146 29.6999 96.5361 29.857 96.8504C31.0356 99.2861 31.9785 100.15 33.9428 101.015C34.3356 101.015 34.3356 101.408 34.0213 101.565Z" fill="#F3B761"/>
<path d="M146 56C146 50.4772 141.523 46 136 46H71C65.4772 46 61 50.4772 61 56V91.8792C61 96.7275 64.9304 100.658 69.7787 100.658C72.5561 100.658 75.1697 101.972 76.8259 104.202L83.3616 113L89.752 104.602C91.6432 102.117 94.5869 100.658 97.7099 100.658H136C141.523 100.658 146 96.1807 146 90.6579V56Z" fill="#9ACECA"/>
<path d="M331.283 168.916C326.726 170.88 323.898 173.866 321.383 178.894C321.069 179.523 320.126 179.444 319.969 178.816C318.476 174.259 316.276 170.959 310.541 168.994C309.833 168.759 309.833 167.816 310.462 167.501C314.783 165.773 317.926 162.001 319.891 151.63C320.048 150.844 321.226 150.766 321.383 151.551C324.055 161.687 326.491 165.066 331.283 167.423C331.991 167.737 331.912 168.601 331.283 168.916Z" fill="#F3B761"/>
<circle cx="51.0714" cy="158.715" r="6.28571" fill="#85C3D8"/>
<circle cx="314.071" cy="84.0714" r="7.07143" fill="#85C3D8"/>
<circle cx="29.857" cy="36.1431" r="4.71429" fill="#85C3D8"/>
<circle cx="74.6428" cy="173.643" r="2.35714" fill="#85C3D8"/>
<circle cx="164" cy="41" r="3" fill="#85C3D8"/>
<circle cx="301.357" cy="73.3571" r="2.35714" fill="#85C3D8"/>
<circle cx="279.714" cy="36.7145" r="2.35714" fill="#85C3D8"/>
<mask id="mask0_348_300787" style="mask-type:alpha" maskUnits="userSpaceOnUse" x="40" y="11" width="64" height="64">
<rect x="40" y="11" width="64" height="64" fill="#C4C4C4"/>
</mask>
<g mask="url(#mask0_348_300787)">
<path d="M42.6667 36.5504L102.667 18.3333L54.448 48.467L42.6667 36.5504Z" fill="#48A8A1"/>
<path d="M54.4481 48.4667L55.3334 62.3333L59.9166 53.8175L102.667 18.3333L54.4481 48.4667Z" fill="#065C56"/>
<path d="M55.3334 62.3332L59.9164 53.8176L102.667 18.3333L55.3334 62.3332Z" fill="#003330"/>
<path d="M102.667 18.3333L72.295 67.6667L59.9164 53.8175L102.667 18.3333Z" fill="#48A8A1"/>
</g>
<path d="M51.4999 67.5C23.9999 106.5 73.8231 130.32 100.5 82C153.5 -14 232 26 208.5 78.5" stroke="#C0E2DF" stroke-dasharray="4 4"/>
<path d="M174 155C174 149.477 178.477 145 184 145H206C211.523 145 216 149.477 216 155V170.194C216 172.95 213.766 175.184 211.01 175.184C209.451 175.184 207.982 175.912 207.038 177.153L203.349 182L201.039 179.036C199.144 176.605 196.234 175.184 193.152 175.184H184C178.477 175.184 174 170.707 174 165.184V155Z" fill="#9ACECA"/>
<g clip-path="url(#clip0_348_300787)">
<path d="M112.02 117.993C120.243 115.996 127.657 116.329 129.368 120.132C131.079 123.934 125.186 127.546 116.963 129.542C108.741 131.538 99.8052 132.537 98.0941 128.734C96.4306 124.932 103.798 119.989 112.02 117.993Z" fill="#163B4B"/>
<path d="M114.777 111.576C122.144 112.669 128.513 114.333 127.99 118.278C127.467 122.175 121.146 123.268 113.779 122.175C106.412 121.082 98.9971 118.801 99.52 114.903C100.043 110.911 107.41 110.436 114.777 111.576Z" fill="#1F576F"/>
<path d="M151.184 83.1539C114.587 83.1539 101.326 60.34 96.5256 58.9141C92.9134 58.1536 88.3031 91.0437 116.916 102.783C117.819 103.164 118.769 103.496 119.72 103.829C120.243 104.019 120.765 104.162 121.336 104.352C123.807 105.112 126.469 105.683 129.321 106.11C140.585 99.789 151.184 83.1539 151.184 83.1539Z" fill="#296F8E"/>
<path fill-rule="evenodd" clip-rule="evenodd" d="M179.131 112.574C179.131 128.797 165.98 141.947 149.758 141.947C133.536 141.947 120.385 128.797 120.385 112.574C120.385 110.673 120.566 108.814 120.911 107.014L128.037 105.92L121.58 104.256C125.167 92.085 136.425 83.2015 149.758 83.2015C165.98 83.2015 179.131 96.3522 179.131 112.574Z" fill="#296F8E"/>
<path d="M181.698 102.213C185.405 103.686 188.209 103.877 192.344 104.494C195.861 105.065 199.806 109.913 209.74 113.24C224.664 118.23 231.508 115.949 231.508 119.228C231.508 124.837 179.464 141.52 165.49 119.324C162.876 115.236 171.812 98.3157 181.698 102.213Z" fill="#296F8E"/>
<path d="M127.515 124.979C125.043 124.884 116.108 134.153 117.581 136.814C119.292 139.951 132.98 136.672 133.598 133.63C134.216 130.54 130.271 125.075 127.515 124.979Z" fill="#296F8E"/>
<path d="M134.691 130.54C133.123 131.111 126.326 140.616 127.752 143.136C129.178 145.655 139.349 140.949 141.393 137.717C144.007 133.582 141.393 128.116 134.691 130.54Z" fill="#296F8E"/>
<path d="M183.076 106.491C195.518 106.491 205.605 96.4042 205.605 83.9619C205.605 71.5196 195.518 61.4332 183.076 61.4332C170.634 61.4332 160.547 71.5196 160.547 83.9619C160.547 96.4042 170.634 106.491 183.076 106.491Z" fill="#296F8E"/>
<path d="M188.589 105.825C182.363 108.534 181.413 112.527 178.038 120.464C172.572 116.9 154.891 90.1407 149.758 83.1539C156.317 83.1064 159.977 83.6768 161.593 77.1178C161.735 87.6692 172.857 102.546 188.589 105.825Z" fill="#296F8E"/>
<path d="M160.547 97.6978C147.049 104.399 141.108 113.002 144.53 124.979C147.334 134.723 164.35 144.609 173.903 129.97C178.656 122.698 176.612 116.187 185.928 106.158C194.626 105.017 200.139 100.597 202.373 95.6065C218.913 66.6613 174.426 51.0718 169.007 79.209C166.869 91.614 167.962 93.9905 160.547 97.6978Z" fill="white"/>
<path d="M164.492 79.5418C164.492 84.8175 167.914 90.2833 175.566 90.2833C183.599 90.2833 186.26 83.154 197.81 80.7775C210.928 76.595 203.609 59.8648 182.981 61.2907C172.477 61.4332 164.492 69.4181 164.492 79.5418Z" fill="#CAE4ED"/>
<path d="M178.323 78.5912C180.89 78.5912 183.028 76.4999 183.028 73.8858C183.028 71.2717 180.937 69.1805 178.323 69.1805C175.709 69.1805 173.618 71.2717 173.618 73.8858C173.618 76.4999 175.709 78.5912 178.323 78.5912Z" fill="#161616"/>
<path d="M179.416 74.7413C180.367 74.7413 181.127 73.9809 181.127 73.0303C181.127 72.0797 180.367 71.3192 179.416 71.3192C178.466 71.3192 177.705 72.0797 177.705 73.0303C177.705 73.9809 178.466 74.7413 179.416 74.7413Z" fill="white"/>
<path d="M254.797 72.9828C254.797 75.787 251.233 74.2661 240.871 78.306C230.51 82.346 206.033 95.9393 200.804 96.5096C195.624 97.08 188.732 88.7149 188.067 85.1502C187.401 81.5855 211.118 81.0152 223.381 77.403C235.691 73.7908 253.086 70.2261 254.797 72.9828Z" fill="#F3B761"/>
<path d="M191.536 62.7165C210.595 50.6441 237.544 48.4103 250.472 52.1175C264.018 56.0149 271.718 67.9447 269.674 72.1272C267.63 76.2623 254.417 69.5607 233.789 75.6444C213.162 81.7281 189.587 88.8099 188.066 85.1502C186.118 80.5874 188.494 68.3724 191.536 62.7165Z" fill="#F3B761"/>
<path d="M244.626 50.9768C246.812 51.262 248.761 51.6422 250.472 52.1175C264.018 56.0149 271.718 67.9447 269.674 72.1272C268.153 75.2166 260.548 72.3173 248.333 73.0778C247.573 73.1253 246.812 73.1729 246.004 73.2679C248.143 65.7583 251.47 57.2506 244.626 50.9768Z" fill="#854400"/>
<path d="M255.843 73.0302C243.58 68.6576 207.553 82.0132 202.183 82.9638C193.58 84.4847 191.584 82.9638 191.584 82.9638C191.584 82.9638 193.01 87.4315 215.111 81.0626C237.164 74.6937 244.151 72.8876 255.843 73.0302Z" fill="#D6801C"/>
</g>
<path d="M320.587 126.724L263.028 146.145L318.31 134.211L320.587 126.724Z" fill="#003330"/>
<path d="M263.028 146.145L293.491 110.536L308.954 115.239L263.028 146.145Z" fill="#48A8A1"/>
<path d="M317.529 117.847L263.028 146.145L335.207 123.224L317.529 117.847Z" fill="#48A8A1"/>
<path d="M308.954 115.239L263.028 146.145L310.056 121.727L312.428 120.496L308.954 115.239Z" fill="#065C56"/>
<defs>
<clipPath id="clip0_348_300787">
<rect width="176" height="176" fill="white" transform="translate(94 9)"/>
</clipPath>
</defs>
</svg>
