<svg width="21" height="20" viewBox="0 0 21 20" fill="none" xmlns="http://www.w3.org/2000/svg">
<mask id="mask0_218_343108" style="mask-type:alpha" maskUnits="userSpaceOnUse" x="0" y="0" width="21" height="20">
<rect x="0.5" width="20" height="20" fill="#C4C4C4"/>
</mask>
<g mask="url(#mask0_218_343108)">
<path d="M1.3335 7.98433L20.0835 2.2915L5.01516 11.7083L1.3335 7.98433Z" fill="#48A8A1"/>
<path d="M5.01514 11.7082L5.29177 16.0415L6.72402 13.3803L20.0834 2.2915L5.01514 11.7082Z" fill="#065C56"/>
<path d="M5.29199 16.0415L6.7242 13.3803L20.0837 2.2915L5.29199 16.0415Z" fill="#003330"/>
<path d="M20.0835 2.2915L10.5924 17.7082L6.72412 13.3803L20.0835 2.2915Z" fill="#48A8A1"/>
<path d="M16.4375 20C17.3004 20 18 19.3004 18 18.4375C18 17.5746 17.3004 16.875 16.4375 16.875C15.5746 16.875 14.875 17.5746 14.875 18.4375C14.875 19.3004 15.5746 20 16.4375 20Z" fill="#85C3D8"/>
<path d="M1.02083 5.83317C1.30847 5.83317 1.54167 5.59998 1.54167 5.31234C1.54167 5.02468 1.30847 4.7915 1.02083 4.7915C0.733177 4.7915 0.5 5.02468 0.5 5.31234C0.5 5.59998 0.733177 5.83317 1.02083 5.83317Z" fill="#E99690"/>
<path d="M16.6458 13.3332C16.9335 13.3332 17.1667 13.1 17.1667 12.8123C17.1667 12.5247 16.9335 12.2915 16.6458 12.2915C16.3582 12.2915 16.125 12.5247 16.125 12.8123C16.125 13.1 16.3582 13.3332 16.6458 13.3332Z" fill="#E99690"/>
<path d="M3.8335 0.937501L2.89599 0L1.9585 0.937501L2.89599 1.875L3.8335 0.937501Z" fill="#85C3D8"/>
<path d="M20.4998 15.4167L19.4582 14.375L18.4165 15.4167L19.4582 16.4583L20.4998 15.4167Z" fill="#F3B761"/>
<path d="M6.75016 3.95833C7.32546 3.95833 7.79183 3.49196 7.79183 2.91667C7.79183 2.34137 7.32546 1.875 6.75016 1.875C6.17487 1.875 5.7085 2.34137 5.7085 2.91667C5.7085 3.49196 6.17487 3.95833 6.75016 3.95833Z" fill="#F3B761"/>
</g>
</svg>
