<svg width="40" height="40" viewBox="0 0 40 40" fill="none" xmlns="http://www.w3.org/2000/svg">
<path d="M0 0H36C38.2091 0 40 1.79086 40 4V36C40 38.2091 38.2091 40 36 40H0V0Z" fill="#C0E2DF"/>
<mask id="mask0_223_118902" style="mask-type:alpha" maskUnits="userSpaceOnUse" x="8" y="8" width="24" height="24">
<rect x="8" y="8" width="24" height="24" fill="#C4C4C4"/>
</mask>
<g mask="url(#mask0_223_118902)">
<path d="M9 17.5814L31.5 10.75L13.418 22.0501L9 17.5814Z" fill="#48A8A1"/>
<path d="M13.418 22.05L13.7499 27.25L15.4686 24.0566L31.4999 10.75L13.418 22.05Z" fill="#065C56"/>
<path d="M13.75 27.2499L15.4686 24.0566L31.5 10.75L13.75 27.2499Z" fill="#003330"/>
<path d="M31.4999 10.75L20.1106 29.25L15.4686 24.0566L31.4999 10.75Z" fill="#48A8A1"/>
<path d="M27.125 32C28.1605 32 29 31.1605 29 30.125C29 29.0895 28.1605 28.25 27.125 28.25C26.0895 28.25 25.25 29.0895 25.25 30.125C25.25 31.1605 26.0895 32 27.125 32Z" fill="#85C3D8"/>
<path d="M8.625 15C8.97017 15 9.25 14.7202 9.25 14.375C9.25 14.0298 8.97017 13.75 8.625 13.75C8.27981 13.75 8 14.0298 8 14.375C8 14.7202 8.27981 15 8.625 15Z" fill="#E99690"/>
<path d="M27.375 24C27.7202 24 28 23.7202 28 23.375C28 23.0298 27.7202 22.75 27.375 22.75C27.0298 22.75 26.75 23.0298 26.75 23.375C26.75 23.7202 27.0298 24 27.375 24Z" fill="#E99690"/>
<path d="M12 9.125L10.875 8L9.75 9.125L10.875 10.25L12 9.125Z" fill="#85C3D8"/>
<path d="M32 26.5L30.75 25.25L29.5 26.5L30.75 27.75L32 26.5Z" fill="#F3B761"/>
<path d="M15.5 12.75C16.1904 12.75 16.75 12.1904 16.75 11.5C16.75 10.8096 16.1904 10.25 15.5 10.25C14.8096 10.25 14.25 10.8096 14.25 11.5C14.25 12.1904 14.8096 12.75 15.5 12.75Z" fill="#F3B761"/>
</g>
</svg>
