<svg width="192" height="192" viewBox="0 0 192 192" fill="none" xmlns="http://www.w3.org/2000/svg">
<g clip-path="url(#clip0_218_400018)">
<rect width="192" height="192" transform="matrix(1 0 0 -1 0 192)" fill="url(#paint0_radial_218_400018)"/>
<path d="M113.96 40.607C118.258 54.0905 124.757 63.8633 142.028 63.8633C140.691 82.2332 159.01 99.2965 183.907 87.3025C191.245 97.4151 203.17 104 216.64 104C238.891 104 256.948 86.0482 257 63.8633V0L67.5199 0C59.9721 26.9146 81.3312 50.406 113.96 40.607Z" fill="white"/>
<mask id="mask0_218_400018" style="mask-type:alpha" maskUnits="userSpaceOnUse" x="135" y="96" width="46" height="46">
<rect width="46" height="46" transform="matrix(-1 0 0 1 181 96)" fill="#C4C4C4"/>
</mask>
<g mask="url(#mask0_218_400018)">
<path d="M179.083 114.365L135.958 101.271L170.615 122.93L179.083 114.365Z" fill="#48A8A1"/>
<path d="M170.615 122.929L169.979 132.896L166.685 126.775L135.958 101.271L170.615 122.929Z" fill="#065C56"/>
<path d="M169.979 132.896L166.685 126.775L135.958 101.271L169.979 132.896Z" fill="#003330"/>
<path d="M135.958 101.271L157.788 136.729L166.685 126.775L135.958 101.271Z" fill="#48A8A1"/>
</g>
<path d="M173 135C183 171.5 107.5 135 104 147C100.5 159 143.5 150.177 132 130C121.918 112.312 73.4999 124.5 94.9998 87" stroke="#9ACECA" stroke-dasharray="2 2"/>
<path d="M56.8818 27.7478L11.9268 42.9158L55.1031 33.5957L56.8818 27.7478Z" fill="#003330"/>
<path d="M11.9267 42.9156L35.719 15.1044L47.7957 18.7776L11.9267 42.9156Z" fill="#48A8A1"/>
<path d="M54.4932 20.8147L11.9267 42.9156L68.3004 25.0142L54.4932 20.8147Z" fill="#48A8A1"/>
<path d="M47.7957 18.7777L11.9267 42.9157L48.6571 23.845L50.5092 22.8834L47.7957 18.7777Z" fill="#065C56"/>
<path d="M54.7262 18.5817C54.4951 18.7329 54.4304 19.0428 54.5816 19.2738C54.7329 19.5049 55.0428 19.5696 55.2738 19.4184L54.7262 18.5817ZM78.5 27.5L78.1524 27.8594L78.2256 27.9301L78.3205 27.9667L78.5 27.5ZM104 51.5C104 51.7761 104.224 52 104.5 52C104.776 52 105 51.7761 105 51.5H104ZM55.2738 19.4184C55.5641 19.2284 55.8521 19.044 56.138 18.8652L55.6077 18.0174C55.3159 18.1999 55.0221 18.388 54.7262 18.5817L55.2738 19.4184ZM57.8321 17.8548C58.4333 17.514 59.0242 17.1981 59.6048 16.906L59.1554 16.0127C58.5596 16.3124 57.954 16.6361 57.3389 16.9849L57.8321 17.8548ZM61.4115 16.0583C62.0388 15.7856 62.653 15.5415 63.254 15.3243L62.9142 14.3838C62.2926 14.6084 61.6588 14.8604 61.0128 15.1412L61.4115 16.0583ZM65.1357 14.7188C65.793 14.5338 66.4329 14.3822 67.0554 14.2614L66.865 13.2797C66.2146 13.4059 65.5478 13.564 64.8648 13.7562L65.1357 14.7188ZM69.0049 13.9762C69.6827 13.9103 70.3371 13.8824 70.9681 13.889L70.9786 12.8891C70.3109 12.8821 69.6207 12.9116 68.9081 12.9809L69.0049 13.9762ZM72.9205 14.0247C73.5875 14.1123 74.224 14.2402 74.83 14.4029L75.0893 13.4371C74.4405 13.2629 73.7609 13.1265 73.0507 13.0333L72.9205 14.0247ZM76.6681 15.0373C77.2829 15.3 77.8589 15.6006 78.3958 15.9316L78.9205 15.0803C78.3419 14.7236 77.7219 14.4001 77.061 14.1177L76.6681 15.0373ZM79.9631 17.07C80.4709 17.5019 80.9298 17.9617 81.3394 18.4388L82.0981 17.7874C81.655 17.2712 81.1591 16.7744 80.6109 16.3082L79.9631 17.07ZM82.4771 20.0053C82.8255 20.5802 83.1078 21.1616 83.324 21.7333L84.2594 21.3795C84.0208 20.7487 83.7113 20.1123 83.3323 19.487L82.4771 20.0053ZM83.7993 23.5741C83.8887 24.2509 83.8692 24.8721 83.7501 25.4088L84.7263 25.6254C84.8751 24.955 84.8925 24.214 84.7907 23.4432L83.7993 23.5741ZM82.9529 26.8936C82.5829 27.2348 82.0809 27.4674 81.4188 27.5291L81.5116 28.5248C82.369 28.4449 83.0834 28.1335 83.6308 27.6287L82.9529 26.8936ZM79.5999 27.3348C79.3097 27.2576 79.003 27.1578 78.6795 27.0333L78.3205 27.9667C78.6743 28.1028 79.015 28.2139 79.3426 28.3011L79.5999 27.3348ZM78.8476 27.1406C78.6058 26.9068 78.4029 26.6731 78.2355 26.4408L77.4242 27.0254C77.6297 27.3106 77.8725 27.5887 78.1524 27.8594L78.8476 27.1406ZM77.5975 24.8305C77.5481 24.2822 77.6589 23.7133 77.9321 23.1257L77.0253 22.7042C76.6905 23.4243 76.5339 24.169 76.6015 24.9201L77.5975 24.8305ZM78.9917 21.5827C79.3866 21.1456 79.8604 20.7091 80.4076 20.2778L79.7886 19.4924C79.2051 19.9523 78.6885 20.4266 78.2497 20.9123L78.9917 21.5827ZM82.032 19.1463C82.5651 18.8147 83.1389 18.4904 83.7494 18.1754L83.2909 17.2867C82.6589 17.6128 82.0617 17.9502 81.5039 18.2971L82.032 19.1463ZM85.546 17.322C86.1387 17.0624 86.7564 16.8118 87.3962 16.5714L87.0444 15.6353C86.3888 15.8816 85.7546 16.1389 85.1449 16.406L85.546 17.322ZM89.2849 15.9127C89.9088 15.7111 90.5489 15.5192 91.203 15.3382L90.9364 14.3745C90.2688 14.5592 89.6151 14.755 88.9774 14.9611L89.2849 15.9127ZM93.1443 14.843C93.7877 14.6924 94.4416 14.5524 95.1043 14.4239L94.9139 13.4422C94.2387 13.5732 93.5722 13.7158 92.9164 13.8694L93.1443 14.843ZM97.0792 14.0794C97.7355 13.9776 98.3983 13.8874 99.0658 13.8094L98.9498 12.8162C98.2697 12.8956 97.5945 12.9875 96.9259 13.0912L97.0792 14.0794ZM101.061 13.6148C101.725 13.5628 102.392 13.5235 103.061 13.4975L103.022 12.4983C102.34 12.5248 101.66 12.5649 100.983 12.6178L101.061 13.6148ZM105.063 13.4606C105.731 13.462 106.398 13.4775 107.063 13.5077L107.109 12.5087C106.428 12.4778 105.747 12.462 105.065 12.4606L105.063 13.4606ZM109.058 13.6437C109.724 13.7047 110.386 13.7814 111.043 13.8745L111.184 12.8844C110.51 12.7889 109.831 12.7103 109.149 12.6479L109.058 13.6437ZM113.012 14.2068C113.668 14.336 114.316 14.4829 114.956 14.6482L115.206 13.68C114.547 13.5096 113.879 13.3584 113.205 13.2256L113.012 14.2068ZM116.867 15.2069C117.5 15.4149 118.123 15.6428 118.732 15.8916L119.11 14.9657C118.478 14.7077 117.833 14.4717 117.178 14.2568L116.867 15.2069ZM120.538 16.7104C121.131 17.0078 121.709 17.3276 122.269 17.6706L122.791 16.8178C122.206 16.4595 121.604 16.1261 120.987 15.8165L120.538 16.7104ZM123.905 18.7771C124.169 18.9739 124.428 19.1768 124.682 19.386L125.318 18.614C125.051 18.3945 124.78 18.1817 124.503 17.9755L123.905 18.7771ZM124.682 19.386C124.96 19.6146 125.222 19.8413 125.469 20.066L126.142 19.3257C125.882 19.0896 125.607 18.8524 125.318 18.614L124.682 19.386ZM126.866 21.491C127.331 22.0326 127.707 22.5604 128.005 23.0746L128.871 22.5738C128.538 21.9999 128.125 21.4222 127.625 20.8398L126.866 21.491ZM128.749 24.8584C128.91 25.4977 128.955 26.1207 128.898 26.7314L129.894 26.8242C129.961 26.1 129.908 25.3625 129.718 24.6129L128.749 24.8584ZM128.42 28.5733C128.179 29.1442 127.856 29.7118 127.458 30.2772L128.275 30.8528C128.707 30.2393 129.068 29.6095 129.342 28.9622L128.42 28.5733ZM126.195 31.8158C125.752 32.2895 125.266 32.7595 124.743 33.2266L125.408 33.9726C125.95 33.4889 126.459 32.9977 126.925 32.4983L126.195 31.8158ZM123.181 34.532C122.657 34.9447 122.111 35.3545 121.548 35.7619L122.134 36.5721C122.707 36.1581 123.264 35.7399 123.8 35.3172L123.181 34.532ZM119.866 36.9412C119.304 37.325 118.732 37.7066 118.154 38.0867L118.704 38.9219C119.285 38.5398 119.862 38.155 120.43 37.7673L119.866 36.9412ZM116.426 39.2135C115.846 39.5893 115.265 39.9647 114.69 40.3384L115.235 41.1768C115.809 40.8036 116.388 40.4296 116.97 40.0527L116.426 39.2135ZM112.957 41.4767C112.373 41.8664 111.799 42.2558 111.242 42.6453L111.815 43.4646C112.364 43.0806 112.932 42.6956 113.512 42.309L112.957 41.4767ZM109.553 43.8721C108.977 44.3093 108.428 44.7483 107.916 45.1896L108.57 45.9468C109.062 45.5219 109.594 45.0961 110.157 44.6688L109.553 43.8721ZM106.383 46.6443C105.864 47.1957 105.41 47.7564 105.042 48.328L105.883 48.8693C106.211 48.3605 106.623 47.8477 107.111 47.3299L106.383 46.6443ZM104.138 50.3598C104.048 50.7349 104 51.1152 104 51.5H105C105 51.1985 105.037 50.8967 105.11 50.5935L104.138 50.3598Z" fill="#C0E2DF"/>
<path d="M160.782 17.3345C158.679 18.2146 157.374 19.5524 156.213 21.8055C156.068 22.0872 155.633 22.052 155.56 21.7703C154.871 19.7284 153.856 18.2498 151.245 17.3697C150.918 17.264 150.918 16.8064 151.245 16.7008C153.203 15.9966 154.545 14.694 155.56 12.2297C155.669 11.948 156.068 11.9128 156.213 12.1945C157.555 14.8701 158.57 15.7502 160.782 16.7008C161.073 16.8064 161.073 17.1936 160.782 17.3345Z" fill="#F3B761"/>
<path d="M33.7238 114.486C31.2136 115.527 29.6555 117.108 28.2705 119.77C28.0974 120.103 27.578 120.061 27.4915 119.729C26.6691 117.316 25.4573 115.568 22.2978 114.528C21.9083 114.403 21.9083 113.904 22.2545 113.738C24.6349 112.822 26.3662 110.825 27.4482 105.334C27.5347 104.918 28.184 104.876 28.2705 105.292C29.7421 110.659 31.0837 112.448 33.7238 113.696C34.1134 113.862 34.0701 114.32 33.7238 114.486Z" fill="#F3B761"/>
<path d="M179.575 35.6134C175.749 37.2 173.453 39.5271 171.375 43.6523C171.157 44.1812 170.391 44.0754 170.173 43.5465C168.861 39.8444 167.111 37.2 162.41 35.6134C161.863 35.4018 161.863 34.6614 162.41 34.4499C165.909 33.1806 168.314 30.8535 170.173 26.411C170.391 25.8821 171.157 25.8821 171.375 26.3052C173.781 31.0651 175.639 32.6517 179.685 34.4499C180.122 34.6614 180.122 35.4018 179.575 35.6134Z" fill="#F3B761"/>
<circle cx="142" cy="40" r="5" fill="#85C3D8"/>
<circle cx="48.5" cy="104.5" r="3.5" fill="#85C3D8"/>
</g>
<defs>
<radialGradient id="paint0_radial_218_400018" cx="0" cy="0" r="1" gradientUnits="userSpaceOnUse" gradientTransform="translate(192 192) rotate(-125.373) scale(164.954 166.142)">
<stop stop-color="#296F8E" stop-opacity="0.75"/>
<stop offset="1" stop-color="#296F8E" stop-opacity="0"/>
</radialGradient>
<clipPath id="clip0_218_400018">
<rect width="192" height="192" fill="white"/>
</clipPath>
</defs>
</svg>
