<svg width="285" height="202" viewBox="0 0 285 202" fill="none" xmlns="http://www.w3.org/2000/svg">
<circle cx="243.926" cy="90.2014" r="5.08176" fill="#85C3D8"/>
<circle cx="19.0583" cy="132.126" r="5.08176" fill="#85C3D8"/>
<circle cx="248.371" cy="65.4276" r="3.1761" fill="#85C3D8"/>
<circle cx="271.239" cy="186.119" r="3.1761" fill="#85C3D8"/>
<ellipse cx="206.446" cy="2.54088" rx="3.1761" ry="2.54088" fill="#85C3D8"/>
<path d="M48.2771 25.4086C51.0837 25.4086 53.3588 23.1335 53.3588 20.3269C53.3588 17.5203 51.0837 15.2451 48.2771 15.2451C45.4705 15.2451 43.1953 17.5203 43.1953 20.3269C43.1953 23.1335 45.4705 25.4086 48.2771 25.4086Z" fill="#E99690"/>
<path d="M17.7867 104.176C21.9966 104.176 25.4093 101.048 25.4093 97.1886C25.4093 93.3295 21.9966 90.2012 17.7867 90.2012C13.5768 90.2012 10.1641 93.3295 10.1641 97.1886C10.1641 101.048 13.5768 104.176 17.7867 104.176Z" fill="#E99690"/>
<path d="M231.855 29.22C235.714 29.22 238.842 26.0916 238.842 22.2325C238.842 18.3735 235.714 15.2451 231.855 15.2451C227.996 15.2451 224.867 18.3735 224.867 22.2325C224.867 26.0916 227.996 29.22 231.855 29.22Z" fill="#E99690"/>
<path d="M271.874 114.34C273.979 114.34 275.685 112.633 275.685 110.528C275.685 108.423 273.979 106.717 271.874 106.717C269.769 106.717 268.062 108.423 268.062 110.528C268.062 112.633 269.769 114.34 271.874 114.34Z" fill="#E99690"/>
<path d="M188.026 34.3018C190.131 34.3018 191.837 32.5955 191.837 30.4905C191.837 28.3856 190.131 26.6792 188.026 26.6792C185.921 26.6792 184.215 28.3856 184.215 30.4905C184.215 32.5955 185.921 34.3018 188.026 34.3018Z" fill="#E99690"/>
<path d="M18.86 170.028L14.9805 166.122L11.101 170.028L14.9805 173.934L18.86 170.028Z" fill="#E99690"/>
<path d="M284.58 158.436L278.375 152.188L272.17 158.436L278.375 164.683L284.58 158.436Z" fill="#F3B761"/>
<path d="M86.5797 32.3021L80.375 26.0547L74.1703 32.3021L80.375 38.5495L86.5797 32.3021Z" fill="#F3B761"/>
<path d="M264.253 85.1197C266.358 85.1197 268.064 83.4133 268.064 81.3084C268.064 79.2035 266.358 77.4971 264.253 77.4971C262.148 77.4971 260.441 79.2035 260.441 81.3084C260.441 83.4133 262.148 85.1197 264.253 85.1197Z" fill="#F3B761"/>
<path d="M25.409 69.8741C27.5139 69.8741 29.2203 68.1677 29.2203 66.0628C29.2203 63.9579 27.5139 62.2515 25.409 62.2515C23.304 62.2515 21.5977 63.9579 21.5977 66.0628C21.5977 68.1677 23.304 69.8741 25.409 69.8741Z" fill="#F3B761"/>
<path d="M5.71698 154.994C8.87438 154.994 11.434 152.434 11.434 149.277C11.434 146.119 8.87438 143.56 5.71698 143.56C2.55958 143.56 0 146.119 0 149.277C0 152.434 2.55958 154.994 5.71698 154.994Z" fill="#F3B761"/>
<path fill-rule="evenodd" clip-rule="evenodd" d="M254.705 36.3358C254.877 36.4836 255.141 36.6177 255.606 36.6177C256.668 36.6177 257.07 36.1742 257.257 35.7873C257.504 35.2788 257.545 34.4886 257.249 33.7269C256.965 32.9937 256.459 32.5083 255.846 32.3579C255.451 32.2611 254.836 32.2614 253.989 32.6375C253.868 33.7216 253.935 34.669 254.148 35.3655C254.305 35.8762 254.513 36.1716 254.705 36.3358ZM250.702 30.1158C250.536 30.2342 250.37 30.3588 250.204 30.4893C248.207 32.0589 246.698 34.7885 245.697 37.1938C244.69 39.6135 244.014 42.1587 243.929 43.6662C243.869 44.7435 244.644 45.6685 245.661 45.7325C246.677 45.7964 247.551 44.975 247.611 43.8977C247.658 43.0524 248.146 40.9947 249.072 38.7703C249.495 37.7536 249.972 36.7953 250.479 35.9633C250.526 36.1701 250.579 36.3734 250.64 36.5725C250.961 37.6207 251.513 38.6267 252.385 39.374C253.276 40.1377 254.38 40.5255 255.606 40.5255C257.924 40.5255 259.663 39.3779 260.538 37.5725C261.355 35.8887 261.298 33.8854 260.661 32.2419C260.013 30.57 258.669 29.0388 256.677 28.5507C256.225 28.4398 255.761 28.3879 255.288 28.3944C256.598 25.8541 258.685 24.1278 261.055 24.241C262.073 24.2895 262.935 23.455 262.98 22.377C263.026 21.299 262.239 20.3857 261.221 20.3371C255.592 20.0684 252.037 25.2736 250.805 29.7247C250.769 29.8545 250.734 29.9848 250.702 30.1158Z" fill="#F3B761"/>
<path fill-rule="evenodd" clip-rule="evenodd" d="M11.7906 38.7744C13.3168 40.0489 13.9739 42.1368 13.9739 44.9101C13.9739 46.0678 13.1207 47.0063 12.0682 47.0063C11.0158 47.0064 10.1625 46.0679 10.1625 44.9101C10.1625 42.7922 9.67194 42.2689 9.4859 42.1135C9.15083 41.8337 8.59438 41.702 7.38762 41.6134C7.31618 41.6082 7.2416 41.603 7.16444 41.5976C6.68788 41.5641 6.11291 41.5238 5.57173 41.4314C4.93013 41.3219 4.16698 41.1162 3.45413 40.6383C1.80886 39.5352 1.19003 37.5583 1.2776 35.0474C1.31794 33.8905 2.20323 32.9887 3.25495 33.0331C4.30667 33.0775 5.12655 34.0512 5.0862 35.2081C5.0557 36.0828 5.15686 36.5507 5.24206 36.779C5.30996 36.961 5.3733 37.0152 5.43778 37.0584C5.5442 37.1297 5.75068 37.2194 6.1562 37.2886C6.51364 37.3496 6.89435 37.3768 7.38224 37.4116C7.46533 37.4176 7.55154 37.4237 7.64126 37.4303L7.66907 37.4323C8.72307 37.5096 10.4254 37.6343 11.7906 38.7744Z" fill="#F3B761"/>
<path fill-rule="evenodd" clip-rule="evenodd" d="M17.9402 192.82C18.4999 192.165 19.2778 191.996 19.9774 192.077C21.1305 192.212 21.8368 192.07 22.2644 191.88C22.6696 191.701 22.9271 191.434 23.1153 191.095C23.5202 190.364 23.5685 189.431 23.6173 188.488C23.6224 188.39 23.6275 188.292 23.633 188.194C23.6801 187.353 24.3997 186.71 25.2404 186.757C26.081 186.804 26.7243 187.524 26.6773 188.365C26.6731 188.44 26.6694 188.527 26.6653 188.626C26.6297 189.484 26.5597 191.17 25.7819 192.573C25.3132 193.418 24.5855 194.187 23.5002 194.668C22.5983 195.068 21.5336 195.232 20.3005 195.164C20.2924 195.29 20.2854 195.433 20.2771 195.601C20.2742 195.66 20.2711 195.723 20.2677 195.79C20.2462 196.215 20.2147 196.739 20.124 197.281C19.9407 198.376 19.4897 199.701 18.2319 200.682C17 201.643 15.2481 202.074 12.9038 201.99C12.0623 201.959 11.4049 201.252 11.4354 200.411C11.4659 199.569 12.1727 198.912 13.0141 198.942C14.9831 199.014 15.9115 198.625 16.3568 198.278C16.7763 197.951 16.9994 197.48 17.1167 196.778C17.1763 196.422 17.2017 196.048 17.2226 195.636C17.2252 195.584 17.2278 195.53 17.2305 195.474C17.2469 195.13 17.2664 194.723 17.3163 194.367C17.3697 193.987 17.492 193.345 17.9402 192.82Z" fill="#F3B761"/>
</svg>
