<svg width="265" height="227" viewBox="0 0 265 227" fill="none" xmlns="http://www.w3.org/2000/svg">
<g filter="url(#filter0_d_711_73583)">
<rect x="9.5" y="21" width="255" height="196" rx="8" fill="#161616" shape-rendering="crispEdges"/>
<path d="M247.628 47.9191H26.3725C24.5088 47.9191 22.998 49.4298 22.998 51.2935C22.998 53.1571 24.5088 54.6679 26.3725 54.6679H247.628C249.492 54.6679 251.003 53.1571 251.003 51.2935C251.003 49.4298 249.492 47.9191 247.628 47.9191Z" fill="#707070"/>
<rect x="22.998" y="68.1656" width="228.005" height="38.8059" rx="3.37442" fill="#45835F"/>
<path d="M76.9892 84.1941H39.8705C38.0069 84.1941 36.4961 85.7049 36.4961 87.5685C36.4961 89.4322 38.0069 90.9429 39.8705 90.9429H76.9892C78.8528 90.9429 80.3636 89.4322 80.3636 87.5685C80.3636 85.7049 78.8528 84.1941 76.9892 84.1941Z" fill="white"/>
<path d="M229.685 91.7783C229.915 92.009 230.308 92.009 230.538 91.7783L237.32 84.9965C237.551 84.7658 237.551 84.3737 237.32 84.143L236.49 83.3126C236.259 83.0819 235.89 83.0819 235.659 83.3126L230.123 88.8488L227.516 86.2652C227.286 86.0345 226.917 86.0345 226.686 86.2652L225.856 87.0956C225.625 87.3263 225.625 87.7185 225.856 87.9491L229.685 91.7783Z" fill="white"/>
<rect x="23.8417" y="114.564" width="226.317" height="37.1187" rx="2.53082" fill="#161616"/>
<path d="M76.9892 129.749H39.8705C38.0069 129.749 36.4961 131.26 36.4961 133.123C36.4961 134.987 38.0069 136.498 39.8705 136.498H76.9892C78.8528 136.498 80.3636 134.987 80.3636 133.123C80.3636 131.26 78.8528 129.749 76.9892 129.749Z" fill="#E6E6E6"/>
<path d="M229.685 137.333C229.915 137.564 230.308 137.564 230.538 137.333L237.32 130.551C237.551 130.321 237.551 129.928 237.32 129.698L236.49 128.867C236.259 128.637 235.89 128.637 235.659 128.867L230.123 134.404L227.516 131.82C227.286 131.589 226.917 131.589 226.686 131.82L225.856 132.65C225.625 132.881 225.625 133.273 225.856 133.504L229.685 137.333Z" fill="white"/>
<rect x="23.8417" y="114.564" width="226.317" height="37.1187" rx="2.53082" stroke="#282828" stroke-width="1.68721"/>
<rect x="23.8417" y="160.119" width="226.317" height="37.1187" rx="2.53082" fill="#161616"/>
<path d="M76.9892 175.304H39.8705C38.0069 175.304 36.4961 176.814 36.4961 178.678C36.4961 180.542 38.0069 182.052 39.8705 182.052H76.9892C78.8528 182.052 80.3636 180.542 80.3636 178.678C80.3636 176.814 78.8528 175.304 76.9892 175.304Z" fill="#E6E6E6"/>
<path d="M229.685 182.888C229.915 183.118 230.308 183.118 230.538 182.888L237.32 176.106C237.551 175.875 237.551 175.483 237.32 175.252L236.49 174.422C236.259 174.191 235.89 174.191 235.659 174.422L230.123 179.958L227.516 177.375C227.286 177.144 226.917 177.144 226.686 177.375L225.856 178.205C225.625 178.436 225.625 178.828 225.856 179.059L229.685 182.888Z" fill="white"/>
<rect x="23.8417" y="160.119" width="226.317" height="37.1187" rx="2.53082" stroke="#282828" stroke-width="1.68721"/>
<ellipse cx="135.998" cy="20.4976" rx="16" ry="16" fill="#48A8A1"/>
<mask id="mask0_711_73583" style="mask-type:alpha" maskUnits="userSpaceOnUse" x="119" y="4" width="33" height="33">
<ellipse cx="135.998" cy="20.4976" rx="16" ry="16" fill="#48A8A1"/>
</mask>
<g mask="url(#mask0_711_73583)">
<path d="M150.859 27.2008C149.251 29.6911 148.651 32.1164 149.985 32.9793C151.319 33.8423 153.325 32.2324 154.933 29.7421C156.541 27.2517 157.821 24.4521 156.487 23.5892C155.154 22.7262 152.467 24.7122 150.859 27.2008Z" fill="#163B4B"/>
<path d="M152.415 29.3801C150.807 31.8704 150.206 34.2957 151.54 35.1587C152.874 36.0216 154.881 34.4117 156.489 31.9214C158.097 29.431 159.376 26.6314 158.042 25.7685C156.708 24.9055 154.021 26.8897 152.415 29.3801Z" fill="#1F576F"/>
<path d="M133.99 29.0901C133.17 30.3186 130.669 33.366 130.186 35.9425C129.83 37.8423 130.56 39.6332 131.239 39.6332C131.692 39.6332 131.239 38.2272 132.43 37.2026C132.37 38.5365 132.416 41.9759 134.224 44.2026C136.506 47.0146 138.085 47.3661 138.612 47.1903C139.139 47.0146 139.841 45.6086 139.841 45.6086L139.829 45.5207C140.778 45.8055 141.784 45.9601 142.825 45.9601C143.933 45.9601 145 45.7861 146.002 45.4663C146.118 45.6842 146.852 47.0287 147.336 47.1903C147.863 47.3661 149.443 47.0146 151.725 44.2026C152.674 43.0322 154.586 39.6332 154.586 39.6332C154.284 39.2307 153.926 38.0831 153.675 37.1727C154.442 38.2483 155.264 39.2413 156.341 39.4575C157.219 39.6332 158.044 39.4733 157.921 37.8757C157.753 35.6929 154.028 30.9407 151.426 28.7368C149.144 26.8036 151.426 26.9794 151.251 21.004C151.119 16.5417 146.859 11.8976 142.399 11.8976C137.938 11.8976 129.779 19.38 133.346 22.0584C134.048 22.5857 134.734 23.1164 134.926 24.1674C135.277 26.1006 134.81 27.8634 133.99 29.0901Z" fill="#276A87"/>
<path d="M146.862 24.8704C146.39 27.9477 147.389 38.2272 138.787 37.8757C135.979 37.7615 133.697 35.5945 133.697 32.779C133.697 29.9636 136.536 28.4062 135.277 24.6947C134.747 22.8352 132.133 21.6472 132.819 21.3554C134.655 20.5751 138.714 10.7144 142.244 11.3576C144.175 11.7091 149.021 13.7509 149.671 17.489C150.373 21.5312 147.213 22.5857 146.862 24.8704Z" fill="white"/>
<path d="M150.021 18.4556C150.021 21.6103 148.082 23.8159 144.931 23.8159C139.698 23.8159 139.621 18.4556 137.307 18.1461C137.307 14.9915 138.857 10.5434 141.946 11.1621C145.457 11.8651 150.021 14.677 150.021 18.4556Z" fill="#CAE4ED"/>
<path d="M136.856 19.5979C136.856 20.2289 135.478 21.8826 133.345 21.8826C124.217 18.3677 118.073 20.1252 117.898 19.7737C117.266 18.509 125.222 17.569 127.201 17.529C129.348 17.529 131.755 17.4731 133.521 18.0162C134.155 18.2113 136.356 17.1744 137.032 17.489C137.707 17.8035 136.856 19.4661 136.856 19.5979Z" fill="#D6801C"/>
<path d="M123.554 9.95294C119.38 11.3888 115.412 14.7385 115.939 17.3747C116.242 18.8932 125.12 15.7895 132.756 18.0162C133.756 18.308 135.452 18.5435 137.208 18.192C134.916 20.1518 129.902 18.2371 126.149 18.0162C122.396 17.7953 117.188 18.3502 117.898 19.7737C118.074 20.1252 124.218 18.3677 133.346 21.8827C134.559 21.8827 135.979 21.7069 136.857 19.9495C137.682 18.2957 138.085 16.4345 141.947 11.1621C135.101 8.70161 129.049 8.06365 123.554 9.95294Z" fill="#F3B761"/>
<path d="M123.498 17.2745C119.988 17.626 115.44 18.6718 115.44 17.3133C115.44 15.9547 116.494 12.1981 124.217 9.73761C121.935 12.0223 120.163 14.4625 123.498 17.2745Z" fill="#854400"/>
<path d="M142.796 19.3941C143.863 19.3941 144.727 18.5286 144.727 17.4609C144.727 16.3932 143.863 15.5276 142.796 15.5276C141.73 15.5276 140.865 16.3932 140.865 17.4609C140.865 18.5286 141.73 19.3941 142.796 19.3941Z" fill="#161616"/>
<path d="M142.007 17.8124C142.395 17.8124 142.709 17.4976 142.709 17.1094C142.709 16.7211 142.395 16.4064 142.007 16.4064C141.619 16.4064 141.305 16.7211 141.305 17.1094C141.305 17.4976 141.619 17.8124 142.007 17.8124Z" fill="white"/>
</g>
<mask id="mask1_711_73583" style="mask-type:alpha" maskUnits="userSpaceOnUse" x="114" y="4" width="38" height="20">
<rect x="114.798" y="4.49756" width="37.2" height="19.2" fill="#C4C4C4"/>
</mask>
<g mask="url(#mask1_711_73583)">
<path d="M150.858 27.2008C149.25 29.6911 148.65 32.1164 149.984 32.9793C151.318 33.8423 153.324 32.2324 154.932 29.7421C156.54 27.2517 157.82 24.4521 156.486 23.5892C155.153 22.7262 152.466 24.7122 150.858 27.2008Z" fill="#163B4B"/>
<path d="M133.989 29.0901C133.169 30.3186 130.668 33.366 130.185 35.9425C129.829 37.8423 130.559 39.6332 131.238 39.6332C131.691 39.6332 131.238 38.2272 132.429 37.2026C132.369 38.5365 132.415 41.9759 134.223 44.2026C136.505 47.0146 138.084 47.3661 138.611 47.1903C139.138 47.0146 139.84 45.6086 139.84 45.6086L139.828 45.5207C140.777 45.8055 141.783 45.9601 142.824 45.9601C143.932 45.9601 144.999 45.7861 146.001 45.4663C146.117 45.6842 146.851 47.0287 147.335 47.1903C147.862 47.3661 149.442 47.0146 151.724 44.2026C152.673 43.0322 154.585 39.6332 154.585 39.6332C154.283 39.2307 153.925 38.0831 153.674 37.1727C154.441 38.2483 155.263 39.2413 156.34 39.4575C157.218 39.6332 158.043 39.4733 157.92 37.8757C157.752 35.6929 154.027 30.9407 151.425 28.7368C149.143 26.8036 151.425 26.9794 151.25 21.004C151.118 16.5417 146.858 11.8976 142.398 11.8976C137.937 11.8976 129.778 19.38 133.345 22.0584C134.047 22.5857 134.733 23.1164 134.925 24.1674C135.276 26.1006 134.809 27.8634 133.989 29.0901Z" fill="#276A87"/>
<path d="M146.861 24.8704C146.389 27.9477 147.388 38.2272 138.786 37.8757C135.978 37.7615 133.696 35.5945 133.696 32.779C133.696 29.9636 136.535 28.4062 135.276 24.6947C134.746 22.8352 132.132 21.6472 132.818 21.3554C134.654 20.5751 138.713 10.7144 142.243 11.3576C144.174 11.7091 149.02 13.7509 149.67 17.489C150.372 21.5312 147.212 22.5857 146.861 24.8704Z" fill="white"/>
<path d="M150.02 18.4556C150.02 21.6103 148.081 23.8159 144.93 23.8159C139.697 23.8159 139.62 18.4556 137.306 18.1461C137.306 14.9915 138.856 10.5434 141.946 11.1621C145.456 11.8651 150.02 14.677 150.02 18.4556Z" fill="#CAE4ED"/>
<path d="M136.855 19.5979C136.855 20.2289 135.477 21.8826 133.344 21.8826C124.216 18.3677 118.072 20.1252 117.897 19.7737C117.265 18.509 125.221 17.569 127.2 17.529C129.347 17.529 131.754 17.4731 133.52 18.0162C134.154 18.2113 136.355 17.1744 137.031 17.489C137.706 17.8035 136.855 19.4661 136.855 19.5979Z" fill="#D6801C"/>
<path d="M123.553 9.95294C119.379 11.3888 115.411 14.7385 115.938 17.3747C116.241 18.8932 125.119 15.7895 132.755 18.0162C133.756 18.308 135.451 18.5435 137.207 18.192C134.915 20.1518 129.901 18.2371 126.148 18.0162C122.395 17.7953 117.187 18.3502 117.897 19.7737C118.073 20.1252 124.217 18.3677 133.345 21.8827C134.558 21.8827 135.978 21.7069 136.856 19.9495C137.681 18.2957 138.084 16.4345 141.946 11.1621C135.1 8.70161 129.048 8.06365 123.553 9.95294Z" fill="#F3B761"/>
<path d="M123.497 17.2745C119.987 17.626 115.439 18.6718 115.439 17.3133C115.439 15.9547 116.493 12.1981 124.216 9.73761C121.934 12.0223 120.162 14.4625 123.497 17.2745Z" fill="#854400"/>
<path d="M142.795 19.3941C143.862 19.3941 144.726 18.5286 144.726 17.4609C144.726 16.3932 143.862 15.5276 142.795 15.5276C141.729 15.5276 140.864 16.3932 140.864 17.4609C140.864 18.5286 141.729 19.3941 142.795 19.3941Z" fill="#161616"/>
<path d="M142.006 17.8124C142.394 17.8124 142.708 17.4976 142.708 17.1094C142.708 16.7211 142.394 16.4064 142.006 16.4064C141.618 16.4064 141.304 16.7211 141.304 17.1094C141.304 17.4976 141.618 17.8124 142.006 17.8124Z" fill="white"/>
</g>
<rect x="9.6271" y="21.1271" width="254.746" height="195.746" rx="7.8729" stroke="#282828" stroke-width="0.254207" shape-rendering="crispEdges"/>
</g>
<defs>
<filter id="filter0_d_711_73583" x="0.34856" y="0.497559" width="264.151" height="225.654" filterUnits="userSpaceOnUse" color-interpolation-filters="sRGB">
<feFlood flood-opacity="0" result="BackgroundImageFix"/>
<feColorMatrix in="SourceAlpha" type="matrix" values="0 0 0 0 0 0 0 0 0 0 0 0 0 0 0 0 0 0 127 0" result="hardAlpha"/>
<feOffset dx="-8.13461" dy="8.13461"/>
<feGaussianBlur stdDeviation="0.508413"/>
<feComposite in2="hardAlpha" operator="out"/>
<feColorMatrix type="matrix" values="0 0 0 0 0.158333 0 0 0 0 0.158333 0 0 0 0 0.158333 0 0 0 0.05 0"/>
<feBlend mode="normal" in2="BackgroundImageFix" result="effect1_dropShadow_711_73583"/>
<feBlend mode="normal" in="SourceGraphic" in2="effect1_dropShadow_711_73583" result="shape"/>
</filter>
</defs>
</svg>
