<svg width="53" height="56" viewBox="0 0 53 56" fill="none" xmlns="http://www.w3.org/2000/svg">
<path d="M37.1523 16.6298C37.5058 19.5825 38.5958 21.8398 40.1777 21.652C41.7607 21.4632 42.2788 18.9359 41.9253 15.9831C41.5718 13.0304 40.7671 10.0477 39.1841 10.2365C37.6034 10.4234 36.7998 13.6782 37.1523 16.6298Z" fill="#163B4B"/>
<path d="M39.7508 17.3177C40.1043 20.2704 41.1943 22.5278 42.7761 22.34C44.3591 22.1512 44.8773 19.6238 44.5238 16.6711C44.1703 13.7184 43.3655 10.7357 41.7825 10.9245C40.2007 11.1123 39.3961 14.366 39.7508 17.3177Z" fill="#1F576F"/>
<path d="M35.6565 40.4984L35.6583 40.5021C32.3068 40.1105 29.166 37.5289 27.4702 35.0359C25.7257 36.4386 18.4641 32.1306 19.3781 30.1678C19.5468 29.8047 19.9932 29.954 20.6407 30.1706C21.4815 30.4519 22.6614 30.8465 24.0128 30.38C25.3402 29.9219 25.4094 28.4382 24.8524 27.1516C24.4414 26.0951 23.7751 25.4283 23.1567 24.8096C22.9951 24.6479 22.8367 24.4894 22.687 24.3281C21.9312 23.8111 21.1373 23.8393 20.335 23.8777C15.8649 24.0942 17.3735 13.089 20.818 10.232C24.2624 7.37508 30.5265 8.23284 33.4858 11.5945C35.2717 13.6232 35.8722 15.0069 36.2674 15.9178C36.7493 17.0283 36.9263 17.4361 38.5745 17.4533C41.9957 17.4876 47.9155 18.7716 49.4437 20.3498C50.5619 21.5039 50.0272 22.1565 49.2366 22.583C48.2667 23.1059 46.9952 22.8654 45.7143 22.5261C46.4903 23.069 47.502 23.7261 47.9934 23.8434C47.9934 23.8434 48.6955 27.6916 48.7116 29.2046C48.75 32.837 47.7553 34.1206 47.2364 34.3217C46.7595 34.5081 45.3306 33.9396 45.1019 33.8457C44.5332 34.7337 43.8204 35.5522 42.965 36.2617C42.1608 36.9288 41.2863 37.453 40.3696 37.8413L40.4354 37.9013C40.4354 37.9013 40.7936 39.4363 40.5 39.9091C40.2193 40.3611 38.886 41.0576 35.6565 40.4984Z" fill="#296F8E"/>
<path d="M32.5738 17.39C34.1808 20.0693 41.5352 27.3673 34.6676 32.605C32.426 34.3154 29.2754 34.103 27.4729 31.9298C25.6694 29.7554 26.8645 26.7349 23.5147 24.6747C21.914 23.579 19.1348 24.3356 19.4782 23.6707C20.396 21.8918 17.2149 11.6773 20.353 9.91311C22.0688 8.94849 27.1185 7.42076 30.0146 9.89158C33.1459 12.5635 31.3807 15.4011 32.5738 17.39Z" fill="white"/>
<path d="M30.8654 10.2997C32.886 12.7359 32.8009 15.6815 30.3676 17.6997C26.3269 21.0513 22.8339 16.9613 20.8486 18.2047C18.828 15.7685 17.1762 11.3406 19.9582 9.83947C23.1196 8.13364 28.4452 7.38182 30.8654 10.2997Z" fill="#CAE4ED"/>
<path d="M21.4297 19.6142C21.8339 20.1015 21.829 22.2612 20.182 23.6273C10.8817 26.7595 7.26295 32.0519 6.90226 31.8929C5.6045 31.3208 11.1459 25.4993 12.6487 24.2007C14.3065 22.8256 16.1295 21.2408 17.841 20.529C18.4554 20.2738 19.4911 18.0631 20.2145 17.8732C20.9379 17.6833 21.3453 19.5124 21.4297 19.6142Z" fill="#D6801C"/>
<path d="M4.97969 20.6851C2.67585 24.4676 1.75732 29.5958 3.85252 31.2942C5.05963 32.2723 9.92718 24.1894 17.2501 21.018C18.2096 20.6024 19.67 19.6981 20.8005 18.3023C20.286 21.2837 15.1874 23.0168 12.1479 25.25C9.1083 27.4832 5.44161 31.2477 6.90242 31.8916C7.26311 32.0506 10.8819 26.7582 20.1822 23.626C21.1189 22.849 22.1029 21.8037 21.655 19.8844C21.2329 18.0788 20.3525 16.383 19.9577 9.83789C13.0951 12.3228 8.01247 15.7069 4.97969 20.6851Z" fill="#F3B761"/>
<path d="M9.62517 26.3751C7.13919 28.8952 4.29766 32.6153 3.4275 31.5662C2.55734 30.5171 0.976339 26.9558 5.36484 20.1086C5.066 23.3346 5.24851 26.3399 9.62517 26.3751Z" fill="#854400"/>
<path d="M25.9261 15.7667C26.7493 15.0839 26.8622 13.862 26.1783 13.0376C25.4945 12.2131 24.2729 12.0981 23.4496 12.781C22.6263 13.4638 22.5135 14.6856 23.1973 15.5101C23.88 16.3356 25.1016 16.4506 25.9261 15.7667Z" fill="#161616"/>
<path d="M24.304 15.0515C24.603 14.8034 24.6445 14.3588 24.3955 14.0585C24.1464 13.7583 23.7018 13.7168 23.4027 13.9649C23.1037 14.2129 23.0622 14.6576 23.3112 14.9578C23.5603 15.2581 24.0037 15.3005 24.304 15.0515Z" fill="white"/>
</svg>
