<svg width="378" height="54" viewBox="0 0 378 54" fill="none" xmlns="http://www.w3.org/2000/svg">
<path fill-rule="evenodd" clip-rule="evenodd" d="M378 51.568V-0.000118256H0V52.65C4.49986 53.5112 9.14035 53.9614 13.8832 53.9614C41.4472 53.9614 65.5543 38.7535 78.6909 16.058C88.7506 21.1731 100.081 24.048 112.066 24.048C130.628 24.048 147.622 17.1513 160.754 5.71579C168.627 10.2918 177.724 12.9037 187.415 12.9037C193.231 12.9037 198.833 11.963 204.085 10.2214C222.157 26.153 245.648 35.7787 271.327 35.7787C289.388 35.7787 306.366 31.0169 321.138 22.6485C333.178 40.1716 353.04 51.6153 375.503 51.6153C376.339 51.6153 377.171 51.5994 378 51.568Z" fill="white"/>
</svg>
