<svg width="378" height="132" viewBox="0 0 378 132" fill="none" xmlns="http://www.w3.org/2000/svg">
<path d="M219.617 54.1961C219.617 44.1467 211.525 36 201.543 36C191.561 36 183.469 44.1467 183.469 54.1961V88.3137L219.617 94V54.1961Z" fill="#CAE4ED"/>
<path d="M201.543 37.9885C210.434 37.9885 217.642 45.2449 217.642 54.196V91.6765L185.444 86.6117V54.196C185.444 45.2449 192.652 37.9885 201.543 37.9885Z" fill="#85C3D8"/>
<mask id="mask0_720_71833" style="mask-type:alpha" maskUnits="userSpaceOnUse" x="192" y="37" width="26" height="51">
<path d="M217.642 87.3265L192.028 83.2974V50.8817C192.028 45.8727 194.286 41.3943 197.832 38.4214C199.023 38.1383 200.266 37.9885 201.543 37.9885C210.434 37.9885 217.642 45.2449 217.642 54.196V87.3265Z" fill="white"/>
</mask>
<g mask="url(#mask0_720_71833)">
<g clip-path="url(#clip0_720_71833)">
<rect width="25.8514" height="49.4491" transform="translate(191.942 37.9885)" fill="url(#paint0_linear_720_71833)"/>
<path d="M181.601 66.6393V35.386C181.601 35.386 218.278 35.386 230.202 35.386C226.227 49.0139 195.513 41.3217 195.513 52.224C195.513 56.2942 199.909 59.1894 196.778 63.6714C193.1 68.9348 181.601 66.6393 181.601 66.6393Z" fill="url(#paint1_linear_720_71833)"/>
<rect x="213.14" y="71.822" width="5.94582" height="9.88983" rx="2.97291" fill="#163B4B"/>
<rect x="189.615" y="74.4248" width="3.87771" height="7.28724" rx="1.93886" fill="#163B4B"/>
<rect x="192.2" y="70.0002" width="3.87771" height="11.7116" rx="1.93886" fill="#052430"/>
<rect x="195.044" y="71.822" width="3.10217" height="9.88983" rx="1.55108" fill="#052430"/>
<path d="M213.231 67.6296C213.13 67.464 212.891 67.464 212.79 67.6296L210.593 71.239C210.568 71.2799 210.555 71.327 210.555 71.375V84.835C210.555 84.9788 210.671 85.0953 210.813 85.0953H215.208C215.351 85.0953 215.467 84.9788 215.467 84.835V71.375C215.467 71.327 215.453 71.2799 215.428 71.239L214.988 70.5149C214.963 70.474 214.95 70.4269 214.95 70.3789V69.3563C214.95 69.2126 214.834 69.0961 214.691 69.0961L214.269 69.0961C214.179 69.0961 214.095 69.049 214.048 68.9718L213.231 67.6296Z" fill="#052430"/>
<path d="M189.357 73.0314C189.357 72.5809 189.481 72.1391 189.715 71.7543C190.672 70.1825 192.953 70.1825 193.91 71.7543C194.145 72.1391 194.268 72.5809 194.268 73.0314V83.6804C194.268 85.0368 193.169 86.1363 191.813 86.1363C190.456 86.1363 189.357 85.0368 189.357 83.6804V73.0314Z" fill="#163B4B"/>
<path d="M196.078 76.7772C196.078 76.2929 196.259 75.8262 196.586 75.4688C197.355 74.6283 198.679 74.6283 199.448 75.4688C199.774 75.8262 199.956 76.2929 199.956 76.7772V81.3348C199.956 82.4056 199.088 83.2736 198.017 83.2736C196.946 83.2736 196.078 82.4056 196.078 81.3348V76.7772Z" fill="#163B4B"/>
<rect x="209.262" y="76.2466" width="4.13623" height="7.28724" rx="2.06811" fill="#052430"/>
<rect x="213.657" y="75.4658" width="2.84366" height="6.2462" rx="1.42183" fill="#163B4B"/>
<rect x="191.942" y="78.5889" width="25.8514" height="8.84879" fill="#052430"/>
<path d="M214.665 51.0015L214.554 51.3294C214.497 51.5012 214.358 51.6183 214.179 51.6495L213.915 51.6938L214.133 51.7796C214.358 51.8681 214.541 52.0711 214.606 52.3054L214.665 52.5188L214.712 52.3262C214.758 52.1258 214.911 51.9852 215.112 51.9566L215.415 51.9124L215.211 51.8343C214.965 51.7406 214.774 51.5142 214.719 51.2591L214.665 51.0041V51.0015Z" fill="#F5F5F5"/>
<path d="M196.05 65.5785L195.946 65.9091C195.884 66.1043 195.737 66.2578 195.548 66.3307L195.302 66.4218L195.496 66.4608C195.737 66.5077 195.928 66.6846 195.998 66.9189L196.052 67.0958L196.094 66.9137C196.143 66.6898 196.303 66.5103 196.518 66.4348L196.799 66.3359L196.621 66.302C196.362 66.2552 196.156 66.0548 196.099 65.7945L196.052 65.5759L196.05 65.5785Z" fill="#F5F5F5"/>
<g clip-path="url(#clip1_720_71833)">
<path d="M212.58 81.712C204.781 76.591 205.388 51.8843 205.388 51.8843H204.868H204.348C204.348 51.8843 204.954 76.591 197.155 81.712C197.207 81.712 199.564 81.712 201.661 81.712V79.7355C201.661 77.9027 203.1 76.4113 204.868 76.4113C206.635 76.4113 208.074 77.9027 208.074 79.7355V81.712C210.171 81.712 212.528 81.712 212.58 81.712ZM204.781 63.5638H204.868H204.954L205.301 69.1341H204.868H204.434L204.781 63.5638ZM204.868 74.7942H203.394L203.862 71.9102C203.94 71.3981 204.374 71.0208 204.868 71.0208C205.362 71.0208 205.795 71.3981 205.873 71.9102L206.341 74.7942H204.868Z" fill="#C93C33"/>
<path d="M202.181 81.2627H196.981V81.7119H202.181V81.2627Z" fill="#651E19"/>
<path d="M204.088 52.603V53.5015C204.088 53.6542 204.2 53.771 204.348 53.771H205.388C205.535 53.771 205.648 53.6542 205.648 53.5015V52.603H204.088Z" fill="#F7D8D7"/>
<path d="M202.268 69.134V69.2958C202.268 69.4485 202.389 69.5832 202.545 69.5832H204.868H207.19C207.337 69.5832 207.467 69.4575 207.467 69.2958V69.134H202.268Z" fill="#F7D8D7"/>
<path d="M207.173 69.5833H202.554V70.4817H207.173V69.5833Z" fill="#651E19"/>
<path d="M200.708 74.7942V74.884C200.708 75.0817 200.864 75.2434 201.054 75.2434H204.867H208.68C208.871 75.2434 209.027 75.0817 209.027 74.884V74.7942H200.708Z" fill="#F7D8D7"/>
<path d="M208.767 75.2434H200.977V76.1418H208.767V75.2434Z" fill="#651E19"/>
<path d="M207.554 81.7119L212.753 81.7119L212.753 81.2627L207.554 81.2627L207.554 81.7119Z" fill="#651E19"/>
<path d="M205.128 51.3452H204.608V51.8843H205.128V51.3452Z" fill="#F7D8D7"/>
<path d="M204.954 48.9194H204.781V51.3452H204.954V48.9194Z" fill="#F7D8D7"/>
</g>
</g>
</g>
<path fill-rule="evenodd" clip-rule="evenodd" d="M378 48.3934V99.9615H0V47.3115C4.49986 46.4503 9.14035 46 13.8832 46C41.4472 46 65.5543 61.208 78.6909 83.9034C88.7506 78.7883 100.081 75.9135 112.066 75.9135C130.628 75.9135 147.622 82.8101 160.754 94.2456C168.627 89.6696 177.724 87.0577 187.415 87.0577C193.231 87.0577 198.833 87.9985 204.085 89.74C222.157 73.8085 245.648 64.1827 271.327 64.1827C289.388 64.1827 306.366 68.9445 321.138 77.3129C333.178 59.7898 353.04 48.3462 375.503 48.3462C376.339 48.3462 377.171 48.362 378 48.3934Z" fill="white"/>
<g clip-path="url(#clip2_720_71833)">
<path d="M49.1841 84.6938C54.7436 83.3441 59.7569 83.569 60.9138 86.1399C62.0707 88.7108 58.0858 91.1532 52.5262 92.5029C46.9667 93.8526 40.9251 94.5275 39.7682 91.9566C38.6435 89.3857 43.6246 86.0435 49.1841 84.6938Z" fill="#163B4B"/>
<path d="M51.0479 80.3556C56.029 81.0948 60.3353 82.2195 59.9818 84.8868C59.6283 87.522 55.3542 88.2611 50.3731 87.522C45.392 86.7829 40.3788 85.2403 40.7323 82.6052C41.0858 79.9057 46.0668 79.5844 51.0479 80.3556Z" fill="#1F576F"/>
<path d="M75.6642 61.1382C50.9194 61.1382 41.9534 45.7128 38.7077 44.7488C36.2653 44.2346 33.1481 66.4728 52.4941 74.4104C53.1046 74.6675 53.7474 74.8924 54.3901 75.1174C54.7436 75.2459 55.0971 75.3423 55.4827 75.4709C57.1538 75.985 58.9534 76.3707 60.8816 76.6599C68.4978 72.3858 75.6642 61.1382 75.6642 61.1382Z" fill="#276A87"/>
<path fill-rule="evenodd" clip-rule="evenodd" d="M94.5602 81.0305C94.5602 91.9989 85.6686 100.891 74.7001 100.891C63.7317 100.891 54.84 91.9989 54.84 81.0305C54.84 79.7451 54.9621 78.4882 55.1954 77.2708L60.014 76.5314L55.6477 75.4061C58.0732 67.1769 65.6852 61.1704 74.7001 61.1704C85.6686 61.1704 94.5602 70.0621 94.5602 81.0305Z" fill="#276A87"/>
<path d="M96.2955 74.0247C98.8022 75.0209 100.698 75.1495 103.494 75.5673C105.872 75.9529 108.539 79.2308 115.256 81.4803C125.347 84.8546 129.974 83.312 129.974 85.5294C129.974 89.3215 94.7852 100.601 85.3371 85.5937C83.5697 82.83 89.6112 71.3896 96.2955 74.0247Z" fill="#276A87"/>
<path d="M59.6604 89.418C57.9894 89.3537 51.9478 95.6202 52.944 97.4199C54.1009 99.5408 63.3561 97.3234 63.7739 95.2667C64.1916 93.1779 61.5243 89.4822 59.6604 89.418Z" fill="#276A87"/>
<path d="M64.5129 93.1779C63.4525 93.5635 58.857 99.9908 59.8211 101.694C60.7852 103.397 67.6623 100.216 69.0441 98.0305C70.8116 95.2346 69.0441 91.539 64.5129 93.1779Z" fill="#276A87"/>
<path d="M97.2275 76.9169C105.64 76.9169 112.46 70.0971 112.46 61.6844C112.46 53.2717 105.64 46.4519 97.2275 46.4519C88.8148 46.4519 81.995 53.2717 81.995 61.6844C81.995 70.0971 88.8148 76.9169 97.2275 76.9169Z" fill="#276A87"/>
<path d="M100.955 76.4671C96.7455 78.2988 96.1028 80.9983 93.8211 86.365C90.1255 83.9548 78.1708 65.8622 74.7001 61.1382C79.1349 61.106 81.6094 61.4917 82.702 57.0569C82.7984 64.1911 90.3183 74.2497 100.955 76.4671Z" fill="#276A87"/>
<path d="M81.995 70.9718C72.8684 75.503 68.8514 81.3196 71.1652 89.4179C73.0612 96.0058 84.5659 102.69 91.0253 92.7922C94.2389 87.8754 92.857 83.4728 99.1557 76.692C105.037 75.9208 108.764 72.9321 110.275 69.5578C121.458 49.9869 91.3788 39.4463 87.7152 58.4709C86.2691 66.8584 87.0082 68.4652 81.995 70.9718Z" fill="white"/>
<path d="M84.6623 58.696C84.6623 62.2631 86.9761 65.9587 92.15 65.9587C97.581 65.9587 99.3806 61.1383 107.19 59.5315C116.059 56.7035 111.11 45.3916 97.1632 46.3557C90.0611 46.4521 84.6623 51.851 84.6623 58.696Z" fill="#CAE4ED"/>
<path d="M94.0139 58.0531C95.7492 58.0531 97.1954 56.6391 97.1954 54.8717C97.1954 53.1042 95.7814 51.6902 94.0139 51.6902C92.2464 51.6902 90.8324 53.1042 90.8324 54.8717C90.8324 56.6391 92.2464 58.0531 94.0139 58.0531Z" fill="#161616"/>
<path d="M94.753 55.45C95.3957 55.45 95.9099 54.9359 95.9099 54.2931C95.9099 53.6504 95.3957 53.1362 94.753 53.1362C94.1103 53.1362 93.5961 53.6504 93.5961 54.2931C93.5961 54.9359 94.1103 55.45 94.753 55.45Z" fill="white"/>
<path d="M145.721 54.261C145.721 56.157 143.311 55.1286 136.305 57.8602C129.299 60.5918 112.749 69.7827 109.214 70.1683C105.711 70.554 101.052 64.898 100.602 62.4878C100.152 60.0776 116.188 59.692 124.479 57.2496C132.802 54.8073 144.564 52.3971 145.721 54.261Z" fill="#F3B761"/>
<path d="M102.948 47.3197C115.834 39.1571 134.055 37.6467 142.796 40.1534C151.955 42.7885 157.161 50.8547 155.779 53.6827C154.398 56.4785 145.464 51.9473 131.517 56.0607C117.57 60.1741 101.63 64.9624 100.602 62.4879C99.2842 59.4029 100.891 51.1439 102.948 47.3197Z" fill="#F3B761"/>
<path d="M138.844 39.3821C140.322 39.5749 141.64 39.832 142.796 40.1533C151.955 42.7885 157.161 50.8547 155.779 53.6826C154.751 55.7715 149.609 53.8112 141.35 54.3254C140.836 54.3575 140.322 54.3896 139.776 54.4539C141.222 49.3764 143.471 43.624 138.844 39.3821Z" fill="#854400"/>
<path d="M146.428 54.2933C138.137 51.3367 113.778 60.367 110.146 61.0097C104.33 62.0381 102.98 61.0097 102.98 61.0097C102.98 61.0097 103.944 64.0305 118.887 59.7243C133.798 55.418 138.522 54.1969 146.428 54.2933Z" fill="#D6801C"/>
</g>
<path d="M300.675 34.7559C300.675 15.5607 285.301 0 266.337 0C247.373 0 232 15.5607 232 34.7559V99.9231L300.675 110.784V34.7559Z" fill="#CAE4ED"/>
<path d="M266.337 3.79834C283.229 3.79834 296.922 17.6585 296.922 34.7559V106.346L235.753 96.6722V34.7559C235.753 17.6585 249.446 3.79834 266.337 3.79834Z" fill="#85C3D8"/>
<mask id="mask1_720_71833" style="mask-type:alpha" maskUnits="userSpaceOnUse" x="248" y="3" width="49" height="96">
<path d="M296.922 98.0376L248.261 90.3417V28.4254C248.261 18.8577 252.549 10.3037 259.286 4.62507C261.55 4.08442 263.911 3.79834 266.337 3.79834C283.229 3.79834 296.922 17.6585 296.922 34.7559V98.0376Z" fill="white"/>
</mask>
<g mask="url(#mask1_720_71833)">
<g clip-path="url(#clip3_720_71833)">
<rect width="49.1127" height="94.4516" transform="translate(248.097 3.79834)" fill="url(#paint2_linear_720_71833)"/>
<path d="M228.452 58.5233V-1.17285C228.452 -1.17285 298.129 -1.17285 320.783 -1.17285C313.232 24.8574 254.881 10.1648 254.881 30.989C254.881 38.7634 263.233 44.2934 257.284 52.8545C250.297 62.9079 228.452 58.5233 228.452 58.5233Z" fill="url(#paint3_linear_720_71833)"/>
<path d="M266.268 86.3191C266.268 86.3191 225.549 86.3191 218.138 86.3191C218.138 84.8268 218.138 68.615 218.138 68.615C228.533 62.7136 230.797 70.7212 239.763 70.1751C249.79 69.5646 266.268 78.7986 266.268 86.3191Z" fill="#346247"/>
<path d="M276.091 91.2903C276.091 91.2903 235.372 91.2903 227.96 91.2903C227.96 89.798 227.96 73.5862 227.96 73.5862C238.355 67.6848 240.619 75.6924 249.586 75.1463C259.613 74.5358 276.091 83.7698 276.091 91.2903Z" fill="#1D4530"/>
<path d="M321.703 73.9293C321.703 76.2655 321.766 105.209 321.766 105.209C321.766 105.209 298.003 102.989 289.288 100.895C284.441 99.73 293.746 97.7853 288.16 95.6922C281.319 93.1288 287.959 91.5782 278.191 91.1239C275.879 91.0166 278.644 88.9749 278.881 88.1418C279.234 86.8988 269.681 86.7757 265.777 86.1749C284.335 80.528 292.919 73.7263 301.765 70.7569C314.618 66.4424 321.703 73.9293 321.703 73.9293Z" fill="#1D4530"/>
<rect x="248.097" y="81.3481" width="49.1127" height="16.9019" fill="#133422"/>
<path d="M285.859 26.1734L285.663 26.8048C285.545 27.1776 285.265 27.4709 284.907 27.6101L284.44 27.7841L284.808 27.8586C285.265 27.9481 285.629 28.2862 285.761 28.7336L285.864 29.0716L285.943 28.7236C286.036 28.2961 286.341 27.9531 286.748 27.8089L287.284 27.62L286.945 27.5554C286.454 27.4659 286.061 27.0831 285.953 26.586L285.864 26.1685L285.859 26.1734Z" fill="#F5F5F5"/>
<path d="M259.146 13.246L259.044 13.5703C258.983 13.7618 258.838 13.9125 258.652 13.984L258.41 14.0733L258.601 14.1117C258.838 14.1576 259.026 14.3313 259.095 14.5611L259.148 14.7347L259.189 14.556C259.237 14.3364 259.395 14.1602 259.606 14.0861L259.884 13.9891L259.708 13.9559C259.454 13.9099 259.25 13.7133 259.194 13.4579L259.148 13.2434L259.146 13.246Z" fill="#F5F5F5"/>
<path d="M281.737 33.1305L281.636 33.4548C281.575 33.6463 281.43 33.797 281.244 33.8685L281.002 33.9579L281.193 33.9962C281.43 34.0421 281.618 34.2158 281.687 34.4456L281.74 34.6193L281.781 34.4405C281.829 34.2209 281.987 34.0447 282.198 33.9706L282.475 33.8736L282.3 33.8404C282.045 33.7944 281.842 33.5978 281.786 33.3424L281.74 33.1279L281.737 33.1305Z" fill="#F5F5F5"/>
<g clip-path="url(#clip4_720_71833)">
<path d="M276.563 46.061C276.563 49.2828 274.832 49.7642 273.156 49.7642C271.481 49.7642 269.75 49.0976 269.75 45.8758C269.75 39.5804 271.481 38.0991 273.156 38.0991C274.832 38.0991 276.563 39.7656 276.563 46.061Z" fill="#1F576F"/>
<path d="M282.087 79.0193H264.042V83.8334H282.087V79.0193Z" fill="#163B4B"/>
<path d="M279.509 76.427H266.62V79.0192H279.509V76.427Z" fill="#276A87"/>
<path d="M278.22 66.7988H267.909V76.4271H278.22V66.7988Z" fill="#1F576F"/>
<path d="M270.118 66.7988H269.198V76.4271H270.118V66.7988Z" fill="#276A87"/>
<path d="M272.383 66.7988H271.463V76.4271H272.383V66.7988Z" fill="#276A87"/>
<path d="M274.666 66.7988H273.746V76.4271H274.666V66.7988Z" fill="#276A87"/>
<path d="M276.931 66.7988H276.011V76.4271H276.931V66.7988Z" fill="#276A87"/>
<path d="M260.175 48.7272H254.541C254.412 48.7272 254.283 48.6531 254.209 48.542L253.657 47.5422C253.528 47.3015 253.694 46.9867 253.988 46.9867H256.124L255.977 46.5978C255.922 46.4682 256.014 46.3386 256.143 46.3386H256.953L257.597 46.9311L259.236 46.9682L260.175 48.7272Z" fill="#276A87"/>
<path d="M278.957 73.4645L267.172 67.9097V46.4312H278.957V73.4645Z" fill="#163B4B"/>
<path d="M284.37 48.7272H290.005C290.134 48.7272 290.263 48.6531 290.336 48.542L290.889 47.5422C291.018 47.3015 290.852 46.9867 290.557 46.9867H288.421L288.569 46.5978C288.624 46.4682 288.532 46.3386 288.403 46.3386H287.593L286.948 46.9311L285.291 46.9867L284.37 48.7272Z" fill="#276A87"/>
<path d="M272.512 75.1311H268.829V76.4272H272.512V75.1311Z" fill="#85C3D8"/>
<path d="M277.299 75.1311H273.617V76.4272H277.299V75.1311Z" fill="#85C3D8"/>
<path d="M278.957 68.0947L275.458 70.5018L267.172 55.689V46.431L271.555 45.5978L271.591 43.0981H274.538L274.593 45.5793L278.957 46.431V68.0947Z" fill="#276A87"/>
<path d="M269.75 60.3182L265.147 58.4666L265.092 51.986H260.912L258.518 46.9867L269.75 46.2461V60.3182Z" fill="#1F576F"/>
<path d="M275.274 60.3182L279.877 58.4666L279.933 51.986H284.113L286.506 46.9867L275.274 46.2461V60.3182Z" fill="#1F576F"/>
<path d="M278.957 52.5416H269.75L265.331 46.4313L271.039 45.6907L272.328 48.6532H274.169L275.274 45.6907L278.957 46.4313V52.5416Z" fill="#85C3D8"/>
<path d="M280.246 59.0222L275.274 60.3183V45.6907L280.246 46.4313V59.0222Z" fill="#CAE4ED"/>
<path d="M273.065 44.7647C272.052 44.7647 271.223 43.9315 271.223 42.9131V40.6912C271.223 39.6728 272.052 38.8396 273.065 38.8396C274.077 38.8396 274.906 39.6728 274.906 40.6912V42.9131C274.906 43.9315 274.077 44.7647 273.065 44.7647Z" fill="#276A87"/>
</g>
</g>
</g>
<path d="M235.865 15.9319C235.865 12.7964 239.641 11.039 239.641 11.039C236.461 11.039 235.865 5.38501 235.865 5.38501H235.776C235.776 5.38501 235.18 11.039 232 11.039C232 11.039 235.865 12.3886 235.865 15.5241V15.9319Z" fill="#F3B761"/>
<path d="M241.696 3.65717C241.696 2.57005 243.082 1.96077 243.082 1.96077C241.914 1.96077 241.696 0 241.696 0H241.663C241.663 0 241.443 1.96077 240.277 1.96077C240.277 1.96077 241.696 2.42874 241.696 3.51587V3.65717Z" fill="#F3B761"/>
<path d="M302.334 113.029C301.457 104.177 294.027 100.772 285.111 100.586C280.605 85.2977 261.213 84.214 253.471 95.5003C236.515 89.7654 227.065 100.678 227.638 111.425L303.564 113.012L302.334 113.029Z" fill="white"/>
<path d="M353.385 67.7647C353.385 56.849 344.503 48 333.547 48C322.591 48 313.71 56.849 313.71 67.7647V104.823L353.385 111V67.7647Z" fill="#CAE4ED"/>
<path d="M333.547 50.1599C343.306 50.1599 351.217 58.0418 351.217 67.7646V108.476L315.878 102.975V67.7646C315.878 58.0418 323.789 50.1599 333.547 50.1599Z" fill="#85C3D8"/>
<mask id="mask2_720_71833" style="mask-type:alpha" maskUnits="userSpaceOnUse" x="323" y="50" width="29" height="54">
<path d="M351.217 103.751L323.104 99.3747V64.1646C323.104 58.7237 325.582 53.8593 329.474 50.6301C330.782 50.3226 332.145 50.1599 333.547 50.1599C343.306 50.1599 351.217 58.0418 351.217 67.7646V103.751Z" fill="white"/>
</mask>
<g mask="url(#mask2_720_71833)">
<g clip-path="url(#clip5_720_71833)">
<rect width="28.3735" height="53.712" transform="translate(323.009 50.1599)" fill="url(#paint4_linear_720_71833)"/>
<path d="M311.66 81.2805V47.333C311.66 47.333 351.914 47.333 365.002 47.333C360.64 62.1357 326.929 53.7804 326.929 65.6226C326.929 70.0436 331.754 73.1884 328.317 78.0568C324.28 83.774 311.66 81.2805 311.66 81.2805Z" fill="url(#paint5_linear_720_71833)"/>
<path d="M333.508 97.0873C333.508 97.0873 309.983 97.0873 305.701 97.0873C305.701 96.2387 305.701 87.0195 305.701 87.0195C311.707 83.6635 313.015 88.2172 318.195 87.9067C323.988 87.5595 333.508 92.8106 333.508 97.0873Z" fill="#282828"/>
<path d="M339.182 99.9142C339.182 99.9142 315.658 99.9142 311.376 99.9142C311.376 99.0656 311.376 89.8464 311.376 89.8464C317.381 86.4905 318.689 91.0441 323.87 90.7336C329.662 90.3864 339.182 95.6375 339.182 99.9142Z" fill="#161616"/>
<path d="M365.533 90.0415C365.533 91.37 365.57 107.83 365.57 107.83C365.57 107.83 351.842 106.567 346.807 105.376C344.006 104.714 349.382 103.608 346.155 102.417C342.203 100.96 346.039 100.078 340.396 99.8195C339.06 99.7586 340.657 98.5975 340.794 98.1237C340.998 97.4169 335.479 97.3469 333.224 97.0052C343.945 93.794 348.904 89.926 354.015 88.2374C361.44 85.7839 365.533 90.0415 365.533 90.0415Z" fill="#161616"/>
<rect x="323.009" y="94.2603" width="28.3735" height="9.61161" fill="#1F576F"/>
<path d="M330.358 55.8137L330.236 56.1699C330.174 56.3565 330.02 56.4837 329.825 56.5176L329.535 56.5657L329.773 56.659C330.02 56.7551 330.222 56.9756 330.293 57.23L330.358 57.4618L330.409 57.2526C330.46 57.035 330.628 56.8823 330.849 56.8512L331.181 56.8032L330.957 56.7183C330.687 56.6166 330.477 56.3706 330.418 56.0936L330.358 55.8165V55.8137Z" fill="#F5F5F5"/>
<path d="M344.542 66.2763L344.428 66.6353C344.36 66.8473 344.199 67.0141 343.991 67.0933L343.722 67.1922L343.935 67.2346C344.199 67.2855 344.409 67.4777 344.485 67.7321L344.545 67.9244L344.59 67.7265C344.644 67.4834 344.82 67.2883 345.055 67.2063L345.365 67.0989L345.169 67.0622C344.885 67.0113 344.658 66.7936 344.596 66.5109L344.545 66.2734L344.542 66.2763Z" fill="#F5F5F5"/>
<path d="M340.742 69.6672L340.683 69.8517C340.648 69.9606 340.564 70.0462 340.457 70.0869L340.317 70.1377L340.427 70.1595C340.564 70.1857 340.673 70.2844 340.713 70.4151L340.743 70.5139L340.767 70.4122C340.795 70.2873 340.886 70.1871 341.008 70.145L341.168 70.0898L341.067 70.0709C340.92 70.0448 340.802 69.933 340.77 69.7878L340.743 69.6658L340.742 69.6672Z" fill="#F5F5F5"/>
<g clip-path="url(#clip6_720_71833)">
<path d="M347.029 78.116H327.364V79.5031H347.029V78.116Z" fill="#651E19"/>
<path d="M347.029 82.0173H327.364V83.4044H347.029V82.0173Z" fill="#651E19"/>
<path d="M347.899 78.1161H326.494L325.624 76.729H348.769L347.899 78.1161Z" fill="#651E19"/>
<path d="M349.726 76.729C349.726 76.729 344.07 77.5093 337.196 77.5093C330.322 77.5093 324.666 76.729 324.666 76.729L324.144 75.6887C324.144 75.6887 330.235 76.469 337.196 76.469C343.896 76.469 350.248 75.6887 350.248 75.6887L349.726 76.729Z" fill="#161616"/>
<path d="M338.414 79.0696H335.978V82.5373H338.414V79.0696Z" fill="#161616"/>
<path d="M332.149 95.6282H329.887L330.061 80.0234H331.975L332.149 95.6282Z" fill="#C93C33"/>
<path d="M332.236 79.5032H329.8V80.0233H332.236V79.5032Z" fill="#161616"/>
<path d="M332.41 87.3057H329.626V88.1726H332.41V87.3057Z" fill="#161616"/>
<path d="M332.584 95.6282H329.365L329.539 91.9871H332.41L332.584 95.6282Z" fill="#651E19"/>
<path d="M344.505 95.6282H342.243L342.417 80.0234H344.331L344.505 95.6282Z" fill="#C93C33"/>
<path d="M344.766 87.3057H341.982V88.1726H344.766V87.3057Z" fill="#161616"/>
<path d="M344.592 79.5032H342.156V80.0233H344.592V79.5032Z" fill="#161616"/>
<path d="M345.027 95.6282H341.807L341.982 91.9871H344.853L345.027 95.6282Z" fill="#651E19"/>
</g>
</g>
</g>
<path d="M331.944 108.699C333.307 104.58 337.062 98.4939 343.175 97.595C349.487 96.6667 354.869 99.3815 357.412 105.581C366.213 104.664 369.621 110.868 368.205 115.922L331.351 108.56L331.944 108.699Z" fill="white"/>
<defs>
<linearGradient id="paint0_linear_720_71833" x1="12.9257" y1="0" x2="12.9257" y2="107.778" gradientUnits="userSpaceOnUse">
<stop stop-color="#296F8E"/>
<stop offset="0.0001" stop-color="#163B4B"/>
<stop offset="0.515625" stop-color="#A33029"/>
<stop offset="1" stop-color="#296F8E"/>
</linearGradient>
<linearGradient id="paint1_linear_720_71833" x1="205.902" y1="35.3859" x2="205.902" y2="67.1376" gradientUnits="userSpaceOnUse">
<stop stop-color="#C93C33" stop-opacity="0.3"/>
<stop offset="1" stop-color="#E99690" stop-opacity="0"/>
</linearGradient>
<linearGradient id="paint2_linear_720_71833" x1="24.5563" y1="-4.97113" x2="24.5563" y2="205.864" gradientUnits="userSpaceOnUse">
<stop stop-color="#1F576F"/>
<stop offset="0.515625" stop-color="#F3B761"/>
</linearGradient>
<linearGradient id="paint3_linear_720_71833" x1="274.618" y1="-1.17305" x2="274.618" y2="59.475" gradientUnits="userSpaceOnUse">
<stop stop-color="#F3B761" stop-opacity="0.3"/>
<stop offset="1" stop-color="#F5D8AF" stop-opacity="0"/>
</linearGradient>
<linearGradient id="paint4_linear_720_71833" x1="14.1868" y1="-2.82695" x2="14.1868" y2="117.069" gradientUnits="userSpaceOnUse">
<stop stop-color="#296F8E"/>
<stop offset="0.515625" stop-color="#E99690"/>
</linearGradient>
<linearGradient id="paint5_linear_720_71833" x1="338.331" y1="47.3329" x2="338.331" y2="81.8218" gradientUnits="userSpaceOnUse">
<stop stop-color="#85C3D8" stop-opacity="0.3"/>
<stop offset="1" stop-color="#85C3D8" stop-opacity="0"/>
</linearGradient>
<clipPath id="clip0_720_71833">
<rect width="25.8514" height="49.4491" fill="white" transform="translate(191.942 37.9885)"/>
</clipPath>
<clipPath id="clip1_720_71833">
<rect width="32.5728" height="32.7926" fill="white" transform="translate(188.581 48.9194)"/>
</clipPath>
<clipPath id="clip2_720_71833">
<rect width="119" height="119" fill="white" transform="translate(37 11)"/>
</clipPath>
<clipPath id="clip3_720_71833">
<rect width="49.1127" height="94.4516" fill="white" transform="translate(248.097 3.79834)"/>
</clipPath>
<clipPath id="clip4_720_71833">
<rect width="45.1837" height="45.7345" fill="white" transform="translate(249.57 38.0991)"/>
</clipPath>
<clipPath id="clip5_720_71833">
<rect width="28.3735" height="53.712" fill="white" transform="translate(323.009 50.1599)"/>
</clipPath>
<clipPath id="clip6_720_71833">
<rect width="26.1036" height="26.0079" fill="white" transform="translate(324.144 69.6658)"/>
</clipPath>
</defs>
</svg>
