<svg width="24" height="24" fill="none" xmlns="http://www.w3.org/2000/svg">
  <path d="M7.945 8.233l.526-.075.232-.477 2.915-5.993c.165-.327.62-.303.758-.013l.003.006.004.007 2.962 5.998.233.472.52.075 6.547.946c.306.05.515.471.207.784l-4.71 4.64-.371.367.088.515 1.12 6.529a.457.457 0 01-.198.44c-.153.111-.32.122-.457.05h-.002l-5.829-3.11-.469-.25-.47.25-5.876 3.11h-.001c-.138.072-.305.061-.458-.05a.457.457 0 01-.198-.44l1.12-6.529.088-.514-.372-.367-4.709-4.641c-.307-.313-.099-.734.206-.784l6.591-.946z" fill="#F5D8AF" stroke="#F3B761" stroke-width="2"/>
</svg>
