<svg width="48" height="48" fill="none"
  xmlns="http://www.w3.org/2000/svg">
  <path fill-rule="evenodd" clip-rule="evenodd" d="M24 5.76C13.9263 5.76 5.76 13.9263 5.76 24c0 10.0737 8.1663 18.24 18.24 18.24 10.0737 0 18.24-8.1663 18.24-18.24 0-10.0737-8.1663-18.24-18.24-18.24zM0 24C0 10.7452 10.7452 0 24 0s24 10.7452 24 24-10.7452 24-24 24S0 37.2548 0 24z" fill="#F8C06D"/>
  <path d="M24.1195 5.37598c10.152 0 18.432 8.28002 18.432 18.43202 0 5.328-2.304 10.152-5.904 13.536-1.224 1.152-5.256.864-7.704 1.656-3.384 1.152-5.688 3.24-6.192 3.24-9.504-.72-17.064-8.64-17.064-18.432 0-10.152 8.28-18.43202 18.432-18.43202z" fill="#882834"/>
  <path d="M28.1516 10.416c.3977 0 .72-.3224.72-.72005 0-.39764-.3223-.72-.72-.72-.3976 0-.72.32236-.72.72 0 .39765.3224.72005.72.72005zM10.5123 31.296c.7953 0 1.44-.6447 1.44-1.44 0-.7953-.6447-1.44-1.44-1.44-.79532 0-1.44003.6447-1.44003 1.44 0 .7953.64471 1.44 1.44003 1.44z" fill="#F8C06D"/>
  <path d="M15.9843 8.18393c.5965 0 1.08-.48354 1.08-1.08 0-.59647-.4835-1.08-1.08-1.08s-1.08.48353-1.08 1.08c0 .59646.4835 1.08 1.08 1.08zM17.9278 28.2c.2784 0 .504-.2256.504-.504 0-.2783-.2256-.504-.504-.504-.2783 0-.504.2257-.504.504 0 .2784.2257.504.504.504z" fill="#D7323E"/>
  <path d="M31.9669 7.60798c.2783 0 .504-.22565.504-.504 0-.27836-.2257-.504-.504-.504-.2784 0-.504.22564-.504.504 0 .27835.2256.504.504.504zM22.8241 11.856c.5965 0 1.08-.4835 1.08-1.08 0-.5964-.4835-1.07996-1.08-1.07996-.5964 0-1.08.48356-1.08 1.07996 0 .5965.4836 1.08 1.08 1.08zM11.9524 26.544c.3977 0 .72-.3224.72-.72 0-.3976-.3223-.72-.72-.72-.3976 0-.72.3224-.72.72 0 .3976.3224.72.72.72z" fill="#FFC8C2"/>
  <path d="M17.5684 41.0639c1.8.72 3.744 1.08 5.832 1.224.216 0 4.536-2.52 6.48-3.24 1.728-.648 4.032.576 5.472-.576 2.304-1.728 4.104-4.032 5.4-6.624-.216-1.152 1.08-2.448.936-7.416-.144-5.112-5.04-10.512-10.224-10.512-5.112 0-14.544 8.64-10.44 11.736.792.576 1.584 1.224 1.8 2.448.432 2.232-.144 4.248-1.08 5.688-.864 1.224-3.384 4.392-4.176 7.272z" fill="#3F7494"/>
  <path d="M39.8878 20.433c-.72-4.32-6.336-6.624-8.568-7.056-4.032-.72-8.712 10.584-10.872 11.52-.792.36 2.232 1.728 2.808 3.816 1.44 4.248-1.8 6.048-1.8 9.288 0 1.728.72 3.24 1.872 4.248h.72c4.176 0 8.064-1.368 11.16-3.744 1.224-3.528 1.08-7.776 1.368-9.648.432-2.52 4.104-3.744 3.312-8.424z" fill="#fff"/>
  <path d="M40.2469 21.504c0 3.6-2.232 6.192-5.832 6.192-6.048 0-6.12-6.192-8.784-6.552 0-3.6 1.8-8.784 5.328-8.064 4.032.792 9.288 4.032 9.288 8.424z" fill="#CFECF5"/>
  <path d="M25.1272 22.8c0 .72-1.584 2.664-4.032 2.664-10.584-4.104-17.20808-1.368-17.42408-1.728-.72-1.44 7.56008-2.592 10.44008-2.736 2.88-.144 5.112-.648 7.128 0 .72.216 3.24-.936 4.032-.576.792.288-.144 2.232-.144 2.376z" fill="#E07A15"/>
  <path d="M9.79256 11.712c-4.824 1.656-9.360001 5.472-8.784 8.496.36 1.728 10.58404-1.8 19.36804.72 1.152.36 3.096.576 5.112.216-2.664 2.232-8.3521 1.224-12.6721.936-4.31998-.288-10.29598.36-9.50398 2.016.216.432 7.20008-2.736 17.71208 1.368 1.368 0 3.024-.216 4.032-2.232.936-1.872 1.44-4.032 5.832-10.152-7.776-2.808-14.76-3.60001-21.09604-1.368z" fill="#F8C06D"/>
  <path d="M9.71964 20.1359c-4.032.36-9.287999 1.584-9.287999 0S1.65564 14.2319 10.5116 11.424c-2.59196 2.6639-4.60796 5.4719-.79196 8.7119z" fill="#AB5930"/>
  <path d="M31.9683 22.584c1.224 0 2.232-1.008 2.232-2.232 0-1.224-1.008-2.232-2.232-2.232-1.224 0-2.232 1.008-2.232 2.232 0 1.224 1.008 2.232 2.232 2.232z" fill="#161616"/>
  <path d="M31.0322 20.7119c.432 0 .792-.36.792-.792 0-.432-.36-.792-.792-.792-.432 0-.792.36-.792.792 0 .432.36.792.792.792z" fill="#fff"/>
  <path d="M22.8239 27.6239c.144 3.528-1.368 8.784-4.176 7.776-3.384-1.296-3.672-5.04-4.896-4.464-1.656.792-1.224 4.896.144 8.208 2.016 1.368 4.32 2.304 6.768 2.808-.072-1.512 0-2.808.288-3.528 1.152-2.592.648-2.808.648-2.808s3.6-3.6 1.224-7.992z" fill="#3F7494"/>
  <path d="M32.6163 25.1039c1.5906 0 2.88-.8059 2.88-1.8 0-.9941-1.2894-1.8-2.88-1.8-1.5906 0-2.88.8059-2.88 1.8 0 .9941 1.2894 1.8 2.88 1.8z" fill="#CFECF5"/>
  <path d="M31.3203 13.08c2.448-2.304 11.88-8.35197 11.88-8.35197S41.8323 16.392 40.7523 20.568c-4.68-1.44-8.64-4.176-9.432-7.488z" fill="#EE6A63"/>
  <path d="M41.5445 16.7519c-2.088-1.368-5.04-4.032-5.832-6.98396-.936.64796-1.44 1.00796-2.232 1.58396.504 1.152 1.512 2.664 3.384 4.104 1.8 1.368 3.24 2.304 4.32 2.808.144-.504.216-1.008.36-1.512zM42.1916 12.72c.144-.792.216-1.512.288-2.304-.36-.072-.864-.144-1.368-.216-1.656-.36003-2.952-1.08003-3.816-1.58403-.288.216-.576.36-.864.576 1.296 1.72803 3.96 2.88003 5.76 3.52803zM43.1997 5.95196c.5169 0 .936-.41907.936-.936 0-.51694-.4191-.936-.936-.936-.517 0-.936.41906-.936.936 0 .51693.419.936.936.936z" fill="#FFC8C2"/>
</svg>