<svg width="48" height="48" fill="none"
  xmlns="http://www.w3.org/2000/svg">
  <path fill-rule="evenodd" clip-rule="evenodd" d="M24 8C15.1634 8 8 15.1634 8 24s7.1634 16 16 16 16-7.1634 16-16S32.8366 8 24 8zM0 24C0 10.7452 10.7452 0 24 0s24 10.7452 24 24-10.7452 24-24 24S0 37.2548 0 24z" fill="#C1E2D9"/>
  <path fill-rule="evenodd" clip-rule="evenodd" d="M20 4c0-2.20914 1.7909-4 4-4 13.2548 0 24 10.7452 24 24S37.2548 48 24 48 0 37.2548 0 24c0-2.2091 1.79086-4 4-4s4 1.7909 4 4c0 8.8366 7.1634 16 16 16s16-7.1634 16-16S32.8366 8 24 8c-2.2091 0-4-1.79086-4-4z" fill="#3EA39A"/>
  <g clip-path="url(#clip0)">
    <path d="M18.125 39.6875c1.5625.625 3.25.9375 5.0625 1.0625.1875 0 3.9375-2.1875 5.625-2.8125 1.5-.5625 3.5.5 4.75-.5 2-1.5 3.5625-3.5 4.6875-5.75-.1875-1 .9375-2.125.8125-6.4375-.125-4.4375-4.375-9.125-8.875-9.125-4.4375 0-12.625 7.5-9.0625 10.1875.6875.5 1.375 1.0625 1.5625 2.125.375 1.9375-.125 3.6875-.9375 4.9375-.75 1.125-2.9375 3.875-3.625 6.3125z" fill="#3F7494"/>
    <path d="M37.5008 21.75c-.625-3.75-5.5-5.75-7.4375-6.125-3.5-.625-7.5625 9.1876-9.4375 10.0001-.6875.3125 1.9375 1.4999 2.4375 3.3125 1.25 3.6875-1.5625 5.2499-1.5625 8.0625 0 1.5.625 2.8124 1.625 3.6874h.625c3.625 0 7-1.1874 9.6875-3.2499 1.0625-3.0625.9375-6.75 1.1875-8.375.375-2.25 3.5625-3.2501 2.875-7.3126z" fill="#fff"/>
    <path d="M37.8125 22.6875c0 3.125-1.9375 5.375-5.0625 5.375-5.25 0-5.3125-5.375-7.625-5.6875 0-3.125 1.5625-7.625 4.625-7 3.5.75 8.0625 3.5625 8.0625 7.3125z" fill="#CFECF5"/>
    <path d="M24.6873 23.875c0 .625-1.5 1.7501-3.625 1.7501C11.8748 22.0626 5.8748 24.375 5.6873 24c-.625-1.25 7.3125-2.1875 9.3125-2.25 2.125 0 4.5625-.0624 6.3125.5001.625.1875 2.8125-.8126 3.5-.5001s-.125 1.9375-.125 2.125z" fill="#E07A15"/>
    <path d="M11.3751 14.1875C7.18757 15.625 3.25007 19 3.75007 21.625c.3125 1.5 9.18753-1.5625 16.81253.625 1 .3125 2.6875.5 4.4375.1875-2.25 1.9375-7.3125.0625-11.0625-.1875s-8.93753.3125-8.25003 1.75c.1875.375 6.31253-1.375 15.43753 2.125 1.1875 0 2.625-.1875 3.5-1.9375.8125-1.625 1.25-3.5 5.0625-8.8125-6.75-2.4375-12.8125-3.0625-18.3125-1.1875z" fill="#F8C06D"/>
    <path d="M11.3125 21.5c-3.5.375-8.0625 1.4375-8.0625.0625S4.3125 16.4375 12 14c-2.25 2.3125-4 4.6875-.6875 7.5z" fill="#AB5930"/>
    <path d="M30.625 23.625c1.0625 0 1.9375-.875 1.9375-1.9375s-.875-1.9375-1.9375-1.9375-1.9375.875-1.9375 1.9375.875 1.9375 1.9375 1.9375z" fill="#161616"/>
    <path d="M29.8125 22.0625c.375 0 .6875-.3125.6875-.6875s-.3125-.6875-.6875-.6875-.6875.3125-.6875.6875.3125.6875.6875.6875z" fill="#fff"/>
  </g>
  <defs>
    <clipPath id="clip0">
      <path fill="#fff" transform="translate(2 5)" d="M0 0h40v40H0z"/>
    </clipPath>
  </defs>
</svg>