<?xml version="1.0" encoding="utf-8"?>
<!-- Generator: Adobe Illustrator 25.4.1, SVG Export Plug-In . SVG Version: 6.00 Build 0)  -->
<svg version="1.1" id="Layer_1" xmlns="http://www.w3.org/2000/svg" xmlns:xlink="http://www.w3.org/1999/xlink" x="0px" y="0px"
	 viewBox="0 0 22 22" style="enable-background:new 0 0 22 22;" xml:space="preserve">
<style type="text/css">
	.st0{fill:#0350DF;}
	.st1{fill:#FFFFFF;}
</style>
<rect x="-0.2" y="-0.3" class="st0" width="22.4" height="22.5"/>
<path class="st1" d="M7,18h8c0.2,0,0.4,0.2,0.4,0.4c0,0.2-0.2,0.4-0.4,0.4H7c-0.2,0-0.4-0.2-0.4-0.4S6.8,18,7,18z M15,17.4
	c-0.1,0.1-0.2,0.1-0.3,0.1H7.2c-0.2,0-0.3-0.1-0.3-0.3C6.9,17.1,7,17,7,16.9l1.4-0.8l0,0l0.7-9.7H8.8c-0.4,0-0.7-0.3-0.7-0.7V3.2
	h2.6v2.1h0.6V3.2h2.6v2.6c0,0.4-0.3,0.7-0.7,0.7h-0.4l0.9,9.7l1.4,0.8C15.1,17.1,15.1,17.3,15,17.4z"/>
</svg>
