<svg width="140" height="140" viewBox="0 0 140 140" fill="none" xmlns="http://www.w3.org/2000/svg">
<mask id="mask0_1265_61350" style="mask-type:alpha" maskUnits="userSpaceOnUse" x="0" y="0" width="140" height="140">
<rect width="140" height="140" fill="#C4C4C4"/>
</mask>
<g mask="url(#mask0_1265_61350)">
<path d="M71.1417 121.107C63.4377 129.79 73.6461 131.977 75.5167 140.066C82.3958 125.415 78.2514 120.378 71.1417 121.107Z" fill="#45835F"/>
<path d="M14.7651 88.957C9.49011 95.5503 6.01519 112.29 20.5986 113.02C29.3486 99.8945 15.4945 98.4362 14.7651 88.957Z" fill="#45835F"/>
<path d="M120.627 99.168C117.731 102.764 115.822 111.895 123.831 112.293C128.636 105.134 121.028 104.338 120.627 99.168Z" fill="#45835F"/>
<path d="M130.419 93.332C130.419 99.849 117.733 104.589 127.915 112.29C138.431 108.143 133.09 99.2565 130.419 93.332Z" fill="#45835F"/>
<path d="M0 111.383V126.169C0 127.336 0.929161 128.26 2.09229 128.168C17.3729 126.96 111.46 119.524 121.283 118.854C131.979 118.125 140 116.753 140 112.893C140 109.032 132.463 109.383 121.283 109.383H1.93136C0.826792 109.383 0 110.279 0 111.383Z" fill="#472600"/>
<path opacity="0.3" fill-rule="evenodd" clip-rule="evenodd" d="M85.3125 64.1667C92.9639 64.1667 99.1667 57.9639 99.1667 50.3125C99.1667 42.6611 92.9639 36.4583 85.3125 36.4583C77.6611 36.4583 71.4583 42.6611 71.4583 50.3125C71.4583 57.9639 77.6611 64.1667 85.3125 64.1667ZM85.3125 65.625C93.7694 65.625 100.625 58.7694 100.625 50.3125C100.625 41.8556 93.7694 35 85.3125 35C76.8556 35 70 41.8556 70 50.3125C70 58.7694 76.8556 65.625 85.3125 65.625Z" fill="#B4B4B4"/>
<path d="M13.6667 55.418C12.5622 55.418 11.6633 56.3176 11.7005 57.4215C12.7566 88.7104 38.454 113.751 70.0001 113.751C101.546 113.751 127.244 88.7105 128.3 57.4215C128.337 56.3176 127.438 55.418 126.333 55.418H13.6667Z" fill="#854400"/>
<path fill-rule="evenodd" clip-rule="evenodd" d="M17.7244 45.5456C18.3439 44.0587 20.0516 43.3556 21.5385 43.9751L126.538 87.7251C128.025 88.3447 128.729 90.0523 128.109 91.5392C127.489 93.0261 125.782 93.7293 124.295 93.1097L19.2949 49.3597C17.808 48.7402 17.1048 47.0326 17.7244 45.5456Z" fill="#472600"/>
<path fill-rule="evenodd" clip-rule="evenodd" d="M12.4891 75.8299C12.8933 74.2707 14.4851 73.3343 16.0444 73.7386L114.482 99.2594C116.041 99.6637 116.977 101.255 116.573 102.815C116.169 104.374 114.577 105.31 113.018 104.906L14.5804 79.3852C13.0211 78.981 12.0848 77.3892 12.4891 75.8299Z" fill="#472600"/>
<path fill-rule="evenodd" clip-rule="evenodd" d="M76.5416 92.7893C77.2456 93.1804 77.4993 94.0682 77.1082 94.7723L66.1707 114.46C65.7795 115.164 64.8917 115.418 64.1876 115.026C63.4836 114.635 63.2299 113.747 63.621 113.043L74.5585 93.3558C74.9497 92.6518 75.8375 92.3981 76.5416 92.7893Z" fill="#472600"/>
<path fill-rule="evenodd" clip-rule="evenodd" d="M95.4113 51.9472C95.7175 52.6921 95.3619 53.5442 94.617 53.8505L28.992 80.8297C28.2471 81.1359 27.3949 80.7803 27.0887 80.0354C26.7824 79.2904 27.138 78.4383 27.883 78.1321L93.508 51.1529C94.2529 50.8466 95.105 51.2023 95.4113 51.9472Z" fill="#472600"/>
<path fill-rule="evenodd" clip-rule="evenodd" d="M43.1422 90.5639C43.4637 89.8255 44.323 89.4876 45.0615 89.8092L90.2698 109.497C91.0082 109.818 91.3462 110.678 91.0246 111.416C90.703 112.154 89.8437 112.492 89.1053 112.171L43.8969 92.4833C43.1585 92.1617 42.8206 91.3024 43.1422 90.5639Z" fill="#472600"/>
<path fill-rule="evenodd" clip-rule="evenodd" d="M78.904 57.6815C79.2642 56.9611 80.1402 56.6691 80.8606 57.0293L130.444 81.8209C131.164 82.1811 131.456 83.0571 131.096 83.7775C130.736 84.4979 129.86 84.7899 129.14 84.4297L79.5562 59.638C78.8358 59.2778 78.5438 58.4019 78.904 57.6815Z" fill="#472600"/>
<path fill-rule="evenodd" clip-rule="evenodd" d="M69.1349 65.9094C69.7833 65.4316 70.6962 65.5699 71.174 66.2183L91.5906 93.9267C92.0684 94.5751 91.9301 95.488 91.2817 95.9658C90.6333 96.4436 89.7203 96.3053 89.2426 95.6568L68.8259 67.9485C68.3481 67.3001 68.4864 66.3872 69.1349 65.9094Z" fill="#472600"/>
<path fill-rule="evenodd" clip-rule="evenodd" d="M46.289 55.1665C46.8299 55.7633 46.7845 56.6856 46.1877 57.2264L22.8544 78.3723C22.2576 78.9131 21.3353 78.8678 20.7945 78.271C20.2536 77.6742 20.299 76.7519 20.8958 76.2111L44.2291 55.0652C44.8259 54.5244 45.7482 54.5697 46.289 55.1665Z" fill="#472600"/>
<path fill-rule="evenodd" clip-rule="evenodd" d="M24.6256 78.3268C25.2613 77.8323 26.1776 77.9468 26.672 78.5826L52.1929 111.395C52.6873 112.031 52.5728 112.947 51.9371 113.442C51.3013 113.936 50.3851 113.822 49.8906 113.186L24.3698 80.3733C23.8753 79.7375 23.9898 78.8213 24.6256 78.3268Z" fill="#472600"/>
<path fill-rule="evenodd" clip-rule="evenodd" d="M134.772 64.0524C135.237 65.5947 134.363 67.2218 132.821 67.6866L26.3626 99.7699C24.8202 100.235 23.1932 99.3613 22.7283 97.8189C22.2635 96.2766 23.137 94.6495 24.6793 94.1847L131.138 62.1014C132.68 61.6366 134.307 62.5101 134.772 64.0524Z" fill="#472600"/>
<circle cx="99.1667" cy="20.418" r="8.75" fill="white"/>
<ellipse cx="80.2084" cy="2.91667" rx="2.91667" ry="2.91667" fill="white"/>
<ellipse cx="49.5833" cy="37.918" rx="4.375" ry="4.375" fill="white"/>
<path opacity="0.3" fill-rule="evenodd" clip-rule="evenodd" d="M35 30.6237C41.4433 30.6237 46.6667 25.4004 46.6667 18.957C46.6667 12.5137 41.4433 7.29036 35 7.29036C28.5567 7.29036 23.3333 12.5137 23.3333 18.957C23.3333 25.4004 28.5567 30.6237 35 30.6237ZM35 32.082C42.2487 32.082 48.125 26.2058 48.125 18.957C48.125 11.7083 42.2487 5.83203 35 5.83203C27.7513 5.83203 21.875 11.7083 21.875 18.957C21.875 26.2058 27.7513 32.082 35 32.082Z" fill="#B4B4B4"/>
</g>
</svg>
