<svg width="120" height="120" viewBox="0 0 120 120" fill="none" xmlns="http://www.w3.org/2000/svg">
<mask id="mask0_604_82760" style="mask-type:alpha" maskUnits="userSpaceOnUse" x="0" y="0" width="120" height="120">
<rect width="120" height="120" fill="#C4C4C4"/>
</mask>
<g mask="url(#mask0_604_82760)">
<path d="M60.9786 103.808C54.3752 111.251 63.1252 113.126 64.7286 120.058C70.6249 107.501 67.0726 103.183 60.9786 103.808Z" fill="#B4B4B4"/>
<path d="M12.6559 76.25C8.13445 81.9013 5.15594 96.25 17.656 96.875C25.156 85.625 13.281 84.375 12.6559 76.25Z" fill="#B4B4B4"/>
<path d="M103.395 85C100.912 88.0826 99.2764 95.9091 106.141 96.25C110.259 90.1136 103.738 89.4318 103.395 85Z" fill="#B4B4B4"/>
<path d="M111.788 80C111.787 85.5859 100.914 89.6484 109.641 96.25C118.655 92.6953 114.077 85.0781 111.788 80Z" fill="#B4B4B4"/>
<path d="M0 95.7571V107.836C0 109.002 0.964695 109.924 2.12782 109.832C16.2038 108.719 95.6059 102.444 103.957 101.875C113.125 101.25 120 100.074 120 96.7651C120 93.4563 113.539 93.7571 103.957 93.7571H1.95421C0.849645 93.7571 0 94.6525 0 95.7571Z" fill="#707070"/>
<path opacity="0.3" fill-rule="evenodd" clip-rule="evenodd" d="M73.125 55C79.6834 55 85 49.6834 85 43.125C85 36.5666 79.6834 31.25 73.125 31.25C66.5666 31.25 61.25 36.5666 61.25 43.125C61.25 49.6834 66.5666 55 73.125 55ZM73.125 56.25C80.3737 56.25 86.25 50.3737 86.25 43.125C86.25 35.8763 80.3737 30 73.125 30C65.8763 30 60 35.8763 60 43.125C60 50.3737 65.8763 56.25 73.125 56.25Z" fill="#B4B4B4"/>
<path d="M12 47.5C10.8954 47.5 9.99589 48.3985 10.0394 49.5022C11.0903 76.1882 33.0563 97.5 60 97.5C86.9437 97.5 108.91 76.1882 109.961 49.5022C110.004 48.3985 109.105 47.5 108 47.5H12Z" fill="#E6E6E6"/>
<path fill-rule="evenodd" clip-rule="evenodd" d="M15.1923 39.0391C15.7234 37.7646 17.1871 37.1619 18.4616 37.693L108.462 75.193C109.736 75.724 110.339 77.1877 109.808 78.4622C109.277 79.7367 107.813 80.3394 106.538 79.8083L16.5385 42.3083C15.264 41.7773 14.6613 40.3136 15.1923 39.0391Z" fill="#B4B4B4"/>
<path fill-rule="evenodd" clip-rule="evenodd" d="M10.705 64.9982C11.0515 63.6617 12.4159 62.8591 13.7524 63.2056L98.1274 85.0806C99.4639 85.4271 100.266 86.7915 99.92 88.128C99.5735 89.4645 98.2091 90.2671 96.8726 89.9206L12.4976 68.0456C11.1611 67.6991 10.3585 66.3347 10.705 64.9982Z" fill="#B4B4B4"/>
<path fill-rule="evenodd" clip-rule="evenodd" d="M65.607 79.5325C66.2105 79.8678 66.4279 80.6288 66.0927 81.2323L56.7177 98.1073C56.3824 98.7108 55.6214 98.9282 55.0179 98.5929C54.4145 98.2577 54.197 97.4967 54.5323 96.8932L63.9073 80.0182C64.2426 79.4147 65.0036 79.1973 65.607 79.5325Z" fill="#B4B4B4"/>
<path fill-rule="evenodd" clip-rule="evenodd" d="M81.7811 44.525C82.0436 45.1635 81.7388 45.8939 81.1003 46.1564L24.8503 69.2814C24.2117 69.5439 23.4813 69.2391 23.2188 68.6006C22.9564 67.9621 23.2612 67.2317 23.8997 66.9692L80.1497 43.8442C80.7882 43.5817 81.5186 43.8865 81.7811 44.525Z" fill="#B4B4B4"/>
<path fill-rule="evenodd" clip-rule="evenodd" d="M36.9789 77.6262C37.2545 76.9933 37.9911 76.7036 38.624 76.9793L77.374 93.8543C78.007 94.1299 78.2966 94.8665 78.021 95.4994C77.7454 96.1323 77.0088 96.422 76.3759 96.1464L37.6259 79.2714C36.9929 78.9957 36.7033 78.2592 36.9789 77.6262Z" fill="#B4B4B4"/>
<path fill-rule="evenodd" clip-rule="evenodd" d="M67.632 49.4413C67.9407 48.8238 68.6916 48.5735 69.309 48.8822L111.809 70.1322C112.427 70.441 112.677 71.1918 112.368 71.8093C112.059 72.4268 111.308 72.677 110.691 72.3683L68.191 51.1183C67.5735 50.8096 67.3233 50.0587 67.632 49.4413Z" fill="#B4B4B4"/>
<path fill-rule="evenodd" clip-rule="evenodd" d="M59.2585 56.4938C59.8142 56.0842 60.5968 56.2028 61.0063 56.7586L78.5063 80.5086C78.9158 81.0644 78.7972 81.8469 78.2415 82.2564C77.6857 82.6659 76.9032 82.5474 76.4936 81.9916L58.9936 58.2416C58.5841 57.6858 58.7027 56.9033 59.2585 56.4938Z" fill="#B4B4B4"/>
<path fill-rule="evenodd" clip-rule="evenodd" d="M39.6762 47.2856C40.1398 47.7972 40.101 48.5877 39.5894 49.0512L19.5894 67.1762C19.0779 67.6398 18.2874 67.601 17.8238 67.0894C17.3602 66.5779 17.3991 65.7874 17.9106 65.3238L37.9106 47.1988C38.4222 46.7352 39.2127 46.7741 39.6762 47.2856Z" fill="#B4B4B4"/>
<path fill-rule="evenodd" clip-rule="evenodd" d="M21.1076 67.1384C21.6526 66.7145 22.4379 66.8127 22.8617 67.3576L44.7367 95.4826C45.1606 96.0276 45.0624 96.8129 44.5175 97.2367C43.9725 97.6606 43.1872 97.5624 42.7634 97.0175L20.8884 68.8925C20.4645 68.3475 20.5627 67.5622 21.1076 67.1384Z" fill="#B4B4B4"/>
<path fill-rule="evenodd" clip-rule="evenodd" d="M115.519 54.9043C115.917 56.2263 115.168 57.6209 113.846 58.0193L22.5964 85.5193C21.2744 85.9177 19.8798 85.169 19.4814 83.847C19.083 82.5251 19.8317 81.1304 21.1537 80.732L112.404 53.232C113.726 52.8336 115.12 53.5823 115.519 54.9043Z" fill="#B4B4B4"/>
<circle cx="85" cy="17.5" r="7.5" fill="#E6E6E6"/>
<circle cx="68.75" cy="2.5" r="2.5" fill="#E6E6E6"/>
<circle cx="42.5" cy="32.5" r="3.75" fill="#E6E6E6"/>
<path opacity="0.3" fill-rule="evenodd" clip-rule="evenodd" d="M30 26.25C35.5228 26.25 40 21.7728 40 16.25C40 10.7272 35.5228 6.25 30 6.25C24.4772 6.25 20 10.7272 20 16.25C20 21.7728 24.4772 26.25 30 26.25ZM30 27.5C36.2132 27.5 41.25 22.4632 41.25 16.25C41.25 10.0368 36.2132 5 30 5C23.7868 5 18.75 10.0368 18.75 16.25C18.75 22.4632 23.7868 27.5 30 27.5Z" fill="#B4B4B4"/>
</g>
</svg>
