<svg width="96" height="96" viewBox="0 0 96 96" fill="none" xmlns="http://www.w3.org/2000/svg">
<mask id="mask0_519_94724" style="mask-type:alpha" maskUnits="userSpaceOnUse" x="0" y="0" width="96" height="96">
<rect width="96" height="96" fill="#C4C4C4"/>
</mask>
<g mask="url(#mask0_519_94724)">
<path d="M48.7828 83.0468C43.5001 89.0005 50.5001 90.5005 51.7828 96.0468C56.4999 86.0005 53.658 82.5468 48.7828 83.0468Z" fill="#B4B4B4"/>
<path d="M10.1247 61C6.50756 65.5211 4.12476 77 14.1248 77.5C20.1248 68.5 10.6248 67.5 10.1247 61Z" fill="#B4B4B4"/>
<path d="M82.7159 68C80.7296 70.466 79.4211 76.7273 84.9125 77C88.2074 72.0909 82.9905 71.5455 82.7159 68Z" fill="#B4B4B4"/>
<path d="M89.4301 64C89.43 68.4688 80.7309 71.7188 87.713 77C94.9243 74.1562 91.2615 68.0625 89.4301 64Z" fill="#B4B4B4"/>
<path d="M0 77.0057V85.8355C0 87.0023 0.966368 87.9236 2.12949 87.8316C14.4776 86.8553 76.5648 81.95 83.1658 81.5C90.5 81 96 80.059 96 77.412C96 74.7651 90.8315 75.0057 83.1658 75.0057H1.98523C0.880659 75.0057 0 75.9011 0 77.0057Z" fill="#707070"/>
<path opacity="0.3" fill-rule="evenodd" clip-rule="evenodd" d="M58.5 44C63.7467 44 68 39.7467 68 34.5C68 29.2533 63.7467 25 58.5 25C53.2533 25 49 29.2533 49 34.5C49 39.7467 53.2533 44 58.5 44ZM58.5 45C64.299 45 69 40.299 69 34.5C69 28.701 64.299 24 58.5 24C52.701 24 48 28.701 48 34.5C48 40.299 52.701 45 58.5 45Z" fill="#F5F5F5"/>
<path d="M10 38C8.89543 38 7.9948 38.8965 8.04912 39.9997C9.09104 61.1621 26.5792 78 48 78C69.4208 78 86.909 61.1621 87.9509 39.9997C88.0052 38.8965 87.1046 38 86 38H10Z" fill="#B4B4B4"/>
<path fill-rule="evenodd" clip-rule="evenodd" d="M12.1539 31.2313C12.5787 30.2117 13.7497 29.7295 14.7693 30.1544L86.7693 60.1544C87.7889 60.5792 88.271 61.7502 87.8462 62.7698C87.4213 63.7894 86.2504 64.2715 85.2308 63.8467L13.2308 33.8467C12.2112 33.4218 11.729 32.2509 12.1539 31.2313Z" fill="#707070"/>
<path fill-rule="evenodd" clip-rule="evenodd" d="M8.564 51.9986C8.84121 50.9293 9.9327 50.2873 11.0019 50.5645L78.5019 68.0645C79.5711 68.3417 80.2132 69.4332 79.936 70.5024C79.6588 71.5716 78.5673 72.2137 77.4981 71.9365L9.99807 54.4365C8.92885 54.1593 8.2868 53.0678 8.564 51.9986Z" fill="#707070"/>
<path fill-rule="evenodd" clip-rule="evenodd" d="M52.4856 63.626C52.9684 63.8942 53.1423 64.503 52.8741 64.9858L45.3741 78.4858C45.1059 78.9686 44.4971 79.1426 44.0143 78.8743C43.5315 78.6061 43.3576 77.9973 43.6258 77.5145L51.1258 64.0145C51.394 63.5318 52.0028 63.3578 52.4856 63.626Z" fill="#707070"/>
<path fill-rule="evenodd" clip-rule="evenodd" d="M65.4249 35.62C65.6349 36.1308 65.3911 36.7152 64.8803 36.9252L19.8803 55.4252C19.3694 55.6352 18.7851 55.3913 18.5751 54.8805C18.3651 54.3697 18.609 53.7854 19.1198 53.5754L64.1198 35.0754C64.6306 34.8654 65.2149 35.1092 65.4249 35.62Z" fill="#707070"/>
<path fill-rule="evenodd" clip-rule="evenodd" d="M29.5832 62.101C29.8037 61.5946 30.3929 61.3629 30.8993 61.5834L61.8993 75.0834C62.4056 75.3039 62.6374 75.8932 62.4168 76.3995C62.1963 76.9059 61.6071 77.1376 61.1007 76.9171L30.1007 63.4171C29.5944 63.1966 29.3627 62.6073 29.5832 62.101Z" fill="#707070"/>
<path fill-rule="evenodd" clip-rule="evenodd" d="M54.1055 39.553C54.3525 39.059 54.9532 38.8588 55.4472 39.1058L89.4472 56.1058C89.9412 56.3528 90.1414 56.9535 89.8944 57.4474C89.6474 57.9414 89.0467 58.1416 88.5528 57.8946L54.5528 40.8946C54.0588 40.6477 53.8586 40.047 54.1055 39.553Z" fill="#707070"/>
<path fill-rule="evenodd" clip-rule="evenodd" d="M47.4067 45.195C47.8514 44.8674 48.4774 44.9622 48.805 45.4069L62.805 64.4069C63.1326 64.8515 63.0378 65.4775 62.5931 65.8051C62.1485 66.1327 61.5225 66.0379 61.1949 65.5933L47.1949 46.5933C46.8673 46.1486 46.9621 45.5226 47.4067 45.195Z" fill="#707070"/>
<path fill-rule="evenodd" clip-rule="evenodd" d="M31.741 37.8285C32.1119 38.2377 32.0808 38.8701 31.6715 39.241L15.6715 53.741C15.2623 54.1119 14.6299 54.0808 14.259 53.6715C13.8882 53.2623 13.9193 52.6299 14.3285 52.259L30.3285 37.759C30.7377 37.3882 31.3701 37.4193 31.741 37.8285Z" fill="#707070"/>
<path fill-rule="evenodd" clip-rule="evenodd" d="M16.8861 53.7107C17.3221 53.3716 17.9503 53.4502 18.2894 53.8861L35.7894 76.3861C36.1285 76.8221 36.0499 77.4503 35.614 77.7894C35.178 78.1285 34.5498 78.0499 34.2107 77.614L16.7107 55.114C16.3716 54.678 16.4502 54.0498 16.8861 53.7107Z" fill="#707070"/>
<path fill-rule="evenodd" clip-rule="evenodd" d="M92.415 43.9234C92.7337 44.981 92.1347 46.0967 91.0771 46.4155L18.0771 68.4155C17.0196 68.7342 15.9038 68.1352 15.5851 67.0776C15.2664 66.02 15.8654 64.9043 16.9229 64.5856L89.9229 42.5856C90.9805 42.2669 92.0962 42.8658 92.415 43.9234Z" fill="#707070"/>
<circle cx="68" cy="14" r="6" fill="#B4B4B4"/>
<circle cx="55" cy="2" r="2" fill="#B4B4B4"/>
<circle cx="34" cy="26" r="3" fill="#B4B4B4"/>
<path opacity="0.3" fill-rule="evenodd" clip-rule="evenodd" d="M24 21C28.4183 21 32 17.4183 32 13C32 8.58172 28.4183 5 24 5C19.5817 5 16 8.58172 16 13C16 17.4183 19.5817 21 24 21ZM24 22C28.9706 22 33 17.9706 33 13C33 8.02944 28.9706 4 24 4C19.0294 4 15 8.02944 15 13C15 17.9706 19.0294 22 24 22Z" fill="#F5F5F5"/>
</g>
</svg>
