<svg width="80" height="80" viewBox="0 0 80 80" fill="none" xmlns="http://www.w3.org/2000/svg">
<mask id="mask0_1349_40157" style="mask-type:alpha" maskUnits="userSpaceOnUse" x="0" y="0" width="80" height="80">
<rect width="80" height="80" fill="#C4C4C4"/>
</mask>
<g mask="url(#mask0_1349_40157)">
<path d="M40.54 80C32.6097 80 22.1847 76.4286 17.9488 70.7143C28.5385 70 1.00533 60.7143 16.5368 33.5714C26.4205 47.1429 13.713 27.8571 30.6564 12.8571C37.7162 23.5714 37.0102 7.14286 35.5982 0C63.8373 8.57143 53.2477 44.2857 63.8373 32.8571C70.8971 42.1429 73.721 78.5714 40.54 80Z" fill="#D6801C"/>
<path d="M41.4292 73.334C25.5201 73.334 16.6817 52.2402 29.409 43.8027C33.6515 54.3496 37.4636 36.5909 35.7727 28.334C54.8001 33.9088 46.3788 60.6777 55.5707 52.2402C61.9344 57.8652 57.3384 73.334 41.4292 73.334Z" fill="#F3B761"/>
<path d="M63.7195 16.5594C61.8596 17.1157 59.9998 15.4353 59.9998 13.2099C59.9998 9.07978 63.7195 10.5404 63.7195 5C65.5794 5 69.2992 14.8904 63.7195 16.5594Z" fill="#D6801C"/>
</g>
</svg>
