<svg width="40" height="40" viewBox="0 0 40 40" fill="none" xmlns="http://www.w3.org/2000/svg">
<mask id="mask0_1265_36832" style="mask-type:alpha" maskUnits="userSpaceOnUse" x="0" y="0" width="40" height="40">
<rect width="40" height="40" fill="#C4C4C4"/>
</mask>
<g mask="url(#mask0_1265_36832)">
<path d="M0 25.4409L24.5564 0.884459C25.7357 -0.294819 27.6477 -0.29482 28.827 0.884459L39.1155 11.173C40.2948 12.3523 40.2948 14.2643 39.1155 15.4436L14.5591 40L0 25.4409Z" fill="#D6801C"/>
<path d="M4.31777e-07 25.418L0 36.9765C4.26118e-07 38.647 1.35423 40.0013 3.02475 40.0013H14.5833L4.31777e-07 25.418Z" fill="#F5D8AF"/>
<path d="M6.66667 39.9987L0 33.332V36.9739C0 38.6444 1.35423 39.9987 3.02475 39.9987H6.66667Z" fill="#D6801C"/>
<path d="M33.9462 20.6138L31.4463 23.1138L16.8871 8.55469L19.3872 6.05469L33.9462 20.6138Z" fill="#F5D8AF"/>
<path d="M0 25.3833L17.0513 8.33203L31.6667 22.9474L14.6154 39.9987L0 25.3833Z" fill="#F3B761"/>
<path d="M3.33335 8.33333C4.94419 8.33333 6.25002 7.0275 6.25002 5.41667C6.25002 3.80583 4.94419 2.5 3.33335 2.5C1.72252 2.5 0.416687 3.80583 0.416687 5.41667C0.416687 7.0275 1.72252 8.33333 3.33335 8.33333Z" fill="#85C3D8"/>
<path d="M36.6667 34.1654C38.2775 34.1654 39.5833 32.8595 39.5833 31.2487C39.5833 29.6379 38.2775 28.332 36.6667 28.332C35.0558 28.332 33.75 29.6379 33.75 31.2487C33.75 32.8595 35.0558 34.1654 36.6667 34.1654Z" fill="#E99690"/>
<path d="M5.83331 13.332C6.52365 13.332 7.08331 12.7724 7.08331 12.082C7.08331 11.3917 6.52365 10.832 5.83331 10.832C5.14294 10.832 4.58331 11.3917 4.58331 12.082C4.58331 12.7724 5.14294 13.332 5.83331 13.332Z" fill="#E99690"/>
<path d="M30.8333 36.457L28.9583 34.582L27.0833 36.457L28.9583 38.332L30.8333 36.457Z" fill="#85C3D8"/>
<path d="M15 3.125L13.125 1.25L11.25 3.125L13.125 5L15 3.125Z" fill="#F3B761"/>
</g>
</svg>
