<svg width="80" height="80" viewBox="0 0 80 80" fill="none" xmlns="http://www.w3.org/2000/svg">
<mask id="mask0_1349_39892" style="mask-type:alpha" maskUnits="userSpaceOnUse" x="0" y="0" width="80" height="80">
<rect width="80" height="80" fill="#C4C4C4"/>
</mask>
<g mask="url(#mask0_1349_39892)">
<path d="M62.4992 49.2493L47.7874 54.1673L22.5 28.7688L29.297 15.9011C39.8948 14.4864 62.6557 35.7528 62.4992 49.2493Z" fill="#D6801C"/>
<path d="M62.499 49.5719C47.6717 58.5298 25.0607 70.4887 18.0171 74.8333C10.9736 79.1779 -1.09457 68.4284 3.75065 60.5902C8.59587 52.7519 21.6735 28.767 29.2105 16.3379C27.9992 30.6482 47.3577 50.602 62.499 49.5719Z" fill="#F3B761"/>
<path d="M22.4492 27.5L21.6667 28.9327C24.0587 51.3863 42.3672 60.8333 42.3672 60.8333L51.6667 55.5725C51.6667 55.5725 32.4194 48.879 22.4492 27.5Z" fill="#85C3D8"/>
<path d="M14.1667 42.228C14.1667 59.4215 29.278 68.3333 29.278 68.3333L36.6667 64.035C36.6667 64.035 19.1964 52.4226 15.413 40L14.1667 42.228Z" fill="#85C3D8"/>
<path d="M7.5 53.8963C8.12982 66.7509 19.9165 73.3333 19.9165 73.3333L25 70.5186C25 70.5186 12.1112 64.7119 8.30977 52.5L7.5 53.8963Z" fill="#85C3D8"/>
<path d="M38.7929 27.3355C38.2765 28.2195 37.1422 28.5189 36.2569 28.005C35.3699 27.4902 35.0681 26.3538 35.5828 25.4667L39.1529 19.314C39.4115 18.8683 39.4881 18.34 39.3668 17.8393L37.1137 8.53969C36.9123 7.70847 37.2618 6.84119 37.9832 6.38179L46.4394 0.99661C47.3039 0.446069 48.451 0.700099 49.0022 1.56416C49.5534 2.42813 49.3004 3.57528 48.4369 4.12727L42.2335 8.09305C41.5131 8.55354 41.1652 9.42095 41.3675 10.2516L43.3558 18.412C43.4784 18.9154 43.4009 19.4468 43.1396 19.8942L38.7929 27.3355Z" fill="#85C3D8"/>
<path d="M60.6857 10.8275L44.7479 29.5169C43.9666 30.4331 44.0769 31.808 44.9943 32.5879C45.9116 33.3677 47.2886 33.2573 48.0699 32.3411L64.0077 13.6517C64.789 12.7355 64.6787 11.3606 63.7613 10.5808C62.844 9.80088 61.467 9.91135 60.6857 10.8275Z" fill="#C0E2DF"/>
<path d="M54.6676 41.5434C53.6924 41.8833 52.6262 41.369 52.2852 40.3942C51.9438 39.4179 52.459 38.3498 53.4356 38.0093L60.8497 35.4247C61.507 35.1956 61.9979 34.6411 62.1457 33.9608L63.5554 27.4719C63.8062 26.3175 64.9976 25.6309 66.1222 25.9926L70.9676 27.5511C72.0578 27.9018 73.2193 27.2672 73.5131 26.1603L74.8888 20.9777C75.1543 19.9774 76.1792 19.3806 77.1802 19.6433C78.1852 19.907 78.7849 20.9368 78.5184 21.941L76.134 30.9268C75.8403 32.0336 74.679 32.6683 73.5889 32.3179L68.9116 30.8145C67.7871 30.453 66.5959 31.1397 66.3452 32.294L65.366 36.8019C65.2182 37.4822 64.7273 38.0367 64.0699 38.2659L54.6676 41.5434Z" fill="#F3B761"/>
<path d="M19.5833 13.334C21.6543 13.334 23.3333 11.6551 23.3333 9.58398C23.3333 7.51292 21.6543 5.83398 19.5833 5.83398C17.5122 5.83398 15.8333 7.51292 15.8333 9.58398C15.8333 11.6551 17.5122 13.334 19.5833 13.334Z" fill="#C0E2DF"/>
<path d="M71.6667 55.834C73.0475 55.834 74.1667 54.7147 74.1667 53.334C74.1667 51.9533 73.0475 50.834 71.6667 50.834C70.286 50.834 69.1667 51.9533 69.1667 53.334C69.1667 54.7147 70.286 55.834 71.6667 55.834Z" fill="#85C3D8"/>
<path d="M2.5 49.168C3.88071 49.168 5 48.0487 5 46.668C5 45.2873 3.88071 44.168 2.5 44.168C1.11929 44.168 0 45.2873 0 46.668C0 48.0487 1.11929 49.168 2.5 49.168Z" fill="#85C3D8"/>
<path d="M68.3568 72.4306L61.7083 65.793L55.0597 72.4306L61.7083 79.0682L68.3568 72.4306Z" fill="#C0E2DF"/>
<path d="M12.714 26.3584L9.11572 22.7656L5.51743 26.3584L9.11572 29.9511L12.714 26.3584Z" fill="#C0E2DF"/>
<path d="M39.8682 76.5321L36.4751 73.1445L33.082 76.5321L36.4751 79.9196L39.8682 76.5321Z" fill="#85C3D8"/>
<path d="M80.0002 11.4342L76.4016 7.8418L72.803 11.4342L76.4016 15.0266L80.0002 11.4342Z" fill="#85C3D8"/>
<path d="M66.4768 1.79621L64.6775 0L62.8782 1.79621L64.6775 3.59242L66.4768 1.79621Z" fill="#C0E2DF"/>
</g>
</svg>
