<svg width="20" height="20" viewBox="0 0 20 20" fill="none" xmlns="http://www.w3.org/2000/svg">
<mask id="mask0" mask-type="alpha" maskUnits="userSpaceOnUse" x="0" y="0" width="20" height="20">
<rect width="20" height="20" fill="#C4C4C4"/>
</mask>
<g mask="url(#mask0)">
<path d="M9.79134 16.6667C13.3582 16.6667 16.2497 13.7752 16.2497 10.2083C16.2497 6.64149 13.3582 3.75 9.79134 3.75C6.2245 3.75 3.33301 6.64149 3.33301 10.2083C3.33301 13.7752 6.2245 16.6667 9.79134 16.6667Z" fill="#00857C"/>
<path d="M9.79199 15.834C12.8986 15.834 15.417 13.3156 15.417 10.209C15.417 7.10238 12.8986 4.58398 9.79199 4.58398C6.68539 4.58398 4.16699 7.10238 4.16699 10.209C4.16699 13.3156 6.68539 15.834 9.79199 15.834Z" fill="#9ACECA"/>
<path d="M9.79199 15.209C12.5534 15.209 14.792 12.9704 14.792 10.209C14.792 7.44756 12.5534 5.20898 9.79199 5.20898C7.03057 5.20898 4.79199 7.44756 4.79199 10.209C4.79199 12.9704 7.03057 15.209 9.79199 15.209Z" fill="#C0E2DF"/>
<path d="M2.51987 8.73102C2.91212 6.91084 3.95243 5.29672 5.4532 4.19775C4.80514 3.57958 3.86715 3.30483 2.94622 3.52806C1.47956 3.90583 0.57568 5.38258 0.93382 6.85933C1.13847 7.73507 1.75242 8.40476 2.51987 8.73102Z" fill="url(#paint0_linear)"/>
<path d="M15.6348 5.52027C16.1635 4.86776 16.3852 3.99201 16.1805 3.13344C15.8224 1.63952 14.3387 0.746603 12.889 1.1072C11.9681 1.33043 11.2689 2.01729 10.9619 2.85869C12.7867 3.13344 14.458 4.07787 15.6348 5.52027Z" fill="url(#paint1_linear)"/>
<path d="M16.2311 14.6211C15.9753 14.9989 15.6854 15.3595 15.3613 15.7029L16.7598 16.5615C17.0838 16.7504 17.4931 16.6473 17.6978 16.3382C17.8854 16.012 17.783 15.5999 17.4761 15.3938L16.2311 14.6211Z" fill="url(#paint2_linear)"/>
<path d="M6.16929 17.1113L5.43595 18.3305C5.24836 18.6568 5.35068 19.0689 5.65766 19.2749C5.98169 19.4638 6.39099 19.3608 6.59564 19.0517L7.4313 17.6608C7.00494 17.5234 6.57859 17.3346 6.16929 17.1113Z" fill="url(#paint3_linear)"/>
<path d="M3.95285 16.1831C3.90169 16.1831 3.83347 16.166 3.78231 16.1488C2.9296 15.668 2.23037 14.8953 1.80402 13.9337C1.39471 12.9892 1.29239 11.9246 1.53115 10.9802C1.58231 10.7913 1.76991 10.6883 1.94045 10.7398C2.12805 10.7913 2.23037 10.9802 2.17921 11.1519C1.97456 11.959 2.05983 12.8519 2.41797 13.6589C2.77611 14.4832 3.37301 15.1528 4.08929 15.5478C4.25983 15.6336 4.31099 15.8397 4.22572 16.0114C4.19161 16.1144 4.07223 16.1831 3.95285 16.1831Z" fill="#C0E2DF"/>
<path d="M3.64552 17.7627C3.59436 17.7627 3.52614 17.7455 3.47498 17.7283C2.21297 17.0243 1.18971 15.8566 0.575757 14.4486C-0.0211425 13.0577 -0.157577 11.5123 0.183509 10.1042C0.234671 9.91532 0.422268 9.81229 0.592811 9.8638C0.780408 9.91532 0.882734 10.1042 0.831571 10.2759C0.524594 11.5294 0.643974 12.9203 1.18971 14.191C1.73545 15.4617 2.65638 16.5092 3.79901 17.1273C3.96956 17.2132 4.02072 17.4193 3.93545 17.591C3.88428 17.694 3.7649 17.7627 3.64552 17.7627Z" fill="#C0E2DF"/>
<path d="M17.5957 12.8346C17.5274 12.8346 17.4592 12.8174 17.4081 12.783C17.2546 12.68 17.2034 12.4568 17.3228 12.3022C17.7833 11.6154 18.005 10.7396 17.9367 9.84672C17.8685 8.9538 17.5445 8.12957 16.9988 7.5114C16.8794 7.37403 16.8794 7.1508 17.0329 7.0306C17.1693 6.9104 17.391 6.9104 17.5104 7.06494C18.1584 7.80331 18.5507 8.78209 18.6189 9.81238C18.6871 10.8598 18.4313 11.873 17.8856 12.6972C17.8174 12.783 17.698 12.8346 17.5957 12.8346Z" fill="#C0E2DF"/>
<path d="M18.6021 14.1055C18.5339 14.1055 18.4657 14.0883 18.4145 14.054C18.2611 13.951 18.2099 13.7277 18.3293 13.5732C19.0455 12.4914 19.3866 11.1348 19.3014 9.76113C19.2161 8.38741 18.6874 7.09955 17.8347 6.12077C17.7153 5.9834 17.7153 5.76017 17.8688 5.63997C18.0052 5.51977 18.2269 5.51977 18.3463 5.67431C19.3014 6.75612 19.8812 8.19852 19.9835 9.72678C20.0859 11.255 19.7107 12.7661 18.8921 13.9681C18.8238 14.0368 18.7045 14.1055 18.6021 14.1055Z" fill="#C0E2DF"/>
<path d="M9.85304 10.8432C9.73366 10.8432 9.61428 10.8088 9.52901 10.723L6.42513 8.07854C6.20342 7.88966 6.18637 7.5634 6.35691 7.35734C6.52746 7.15128 6.86854 7.11694 7.07319 7.28866L9.97242 9.76135L12.2747 9.19469C12.5476 9.12601 12.8205 9.29772 12.8887 9.57246C12.9569 9.84721 12.7864 10.122 12.5135 10.1906L9.95536 10.8088C9.93831 10.8432 9.88714 10.8432 9.85304 10.8432Z" fill="#48A8A1"/>
<path d="M8.33301 2.5C8.67819 2.5 8.95801 2.22018 8.95801 1.875C8.95801 1.52982 8.67819 1.25 8.33301 1.25C7.98783 1.25 7.70801 1.52982 7.70801 1.875C7.70801 2.22018 7.98783 2.5 8.33301 2.5Z" fill="#85C3D8"/>
<path d="M4.79779 0.485678L4.31543 0L3.83307 0.485678L4.31543 0.971356L4.79779 0.485678Z" fill="#E99690"/>
<path d="M15.2089 17.8939L14.7266 17.4082L14.2442 17.8939L14.7266 18.3796L15.2089 17.8939Z" fill="#E99690"/>
<path d="M18.6455 2.58626L18.1631 2.10059L17.6807 2.58626L18.1631 3.07194L18.6455 2.58626Z" fill="#E6E6E6"/>
<path d="M9.58366 18.9583C9.81378 18.9583 10.0003 18.7718 10.0003 18.5417C10.0003 18.3115 9.81378 18.125 9.58366 18.125C9.35354 18.125 9.16699 18.3115 9.16699 18.5417C9.16699 18.7718 9.35354 18.9583 9.58366 18.9583Z" fill="#E6E6E6"/>
<path d="M16.4587 1.45833C16.6888 1.45833 16.8753 1.27179 16.8753 1.04167C16.8753 0.811548 16.6888 0.625 16.4587 0.625C16.2285 0.625 16.042 0.811548 16.042 1.04167C16.042 1.27179 16.2285 1.45833 16.4587 1.45833Z" fill="#F3B761"/>
<path d="M1.04199 18.333C1.38717 18.333 1.66699 18.0532 1.66699 17.708C1.66699 17.3628 1.38717 17.083 1.04199 17.083C0.696814 17.083 0.416992 17.3628 0.416992 17.708C0.416992 18.0532 0.696814 18.333 1.04199 18.333Z" fill="#F3B761"/>
<path d="M1.45866 3.12533C1.68878 3.12533 1.87533 2.93878 1.87533 2.70866C1.87533 2.47854 1.68878 2.29199 1.45866 2.29199C1.22854 2.29199 1.04199 2.47854 1.04199 2.70866C1.04199 2.93878 1.22854 3.12533 1.45866 3.12533Z" fill="#E6E6E6"/>
<path d="M18.9951 18.3812L18.5127 17.8955L18.0303 18.3812L18.5127 18.8669L18.9951 18.3812Z" fill="#85C3D8"/>
<path d="M9.79134 11.0417C10.2516 11.0417 10.6247 10.6686 10.6247 10.2083C10.6247 9.7481 10.2516 9.375 9.79134 9.375C9.3311 9.375 8.95801 9.7481 8.95801 10.2083C8.95801 10.6686 9.3311 11.0417 9.79134 11.0417Z" fill="#00857C"/>
</g>
<defs>
<linearGradient id="paint0_linear" x1="0.833254" y1="3.54167" x2="6.66659" y2="7.8125" gradientUnits="userSpaceOnUse">
<stop stop-color="#2B7670"/>
<stop offset="1" stop-color="#274F4C"/>
</linearGradient>
<linearGradient id="paint1_linear" x1="16.2501" y1="-0.312168" x2="11.0418" y2="8.95866" gradientUnits="userSpaceOnUse">
<stop stop-color="#2B7670"/>
<stop offset="1" stop-color="#274F4C"/>
</linearGradient>
<linearGradient id="paint2_linear" x1="17.7079" y1="15.6253" x2="14.062" y2="12.9169" gradientUnits="userSpaceOnUse">
<stop stop-color="#2B7670"/>
<stop offset="1" stop-color="#274F4C"/>
</linearGradient>
<linearGradient id="paint3_linear" x1="5.41639" y1="18.334" x2="7.49972" y2="14.584" gradientUnits="userSpaceOnUse">
<stop stop-color="#2B7670"/>
<stop offset="1" stop-color="#274F4C"/>
</linearGradient>
</defs>
</svg>
