<svg width="56" height="57" viewBox="0 0 56 57" fill="none" xmlns="http://www.w3.org/2000/svg">
<mask id="mask0" mask-type="alpha" maskUnits="userSpaceOnUse" x="0" y="0" width="56" height="57">
<rect y="0.5" width="56" height="56" fill="#C4C4C4"/>
</mask>
<g mask="url(#mask0)">
<path d="M28.3784 56.5C22.8272 56.5 15.5296 54 12.5645 50C19.9773 49.5 0.704082 43 11.5761 24C18.4947 33.5 9.59943 20 21.4598 9.5C26.4017 17 25.9075 5.5 24.9191 0.5C44.6865 6.5 37.2737 31.5 44.6865 23.5C49.6283 30 51.605 55.5 28.3784 56.5Z" fill="#D6801C"/>
<path d="M29.0011 51.833C17.8647 51.833 11.6778 37.0674 20.587 31.1611C23.5567 38.5439 26.2252 26.1129 25.0415 20.333C38.3607 24.2354 32.4658 42.9736 38.9001 37.0674C43.3547 41.0049 40.1375 51.833 29.0011 51.833Z" fill="#F3B761"/>
<path d="M44.6038 12.0916C43.3019 12.481 42 11.3047 42 9.74695C42 6.85585 44.6038 7.87831 44.6038 4C45.9057 4 48.5096 10.9233 44.6038 12.0916Z" fill="#D6801C"/>
</g>
</svg>
