<svg width="540" height="960" viewBox="0 0 540 960" fill="none" xmlns="http://www.w3.org/2000/svg">
<g clip-path="url(#clip0)">
<rect width="540" height="960" fill="url(#paint0_linear)"/>
<path d="M304 677C304 677 126.789 676.747 -1.22223 676.747C-51.8572 676.747 -229 677 -229 677C-229 660.727 -102.014 682.612 -16.5972 637.719C13.3271 621.99 35.1539 661.086 64.8333 663.532C80.3279 664.812 99.3132 652.141 116.083 653.432C124.767 654.099 177.168 668.588 208.903 668.022C271.542 666.899 304 669.929 304 677Z" fill="url(#paint1_linear)"/>
<path d="M531.514 589.898C518.479 590.028 508.631 600.864 499.242 600.699C489.852 600.535 475.672 573 444.126 573C404.969 573 386.473 608.368 375.96 608.368C364.082 608.368 357.502 602.442 345.865 602.442C315.344 602.442 320.844 611.847 298 615.162C346.951 615.162 511.572 615.162 589.892 615.162C555.443 608.368 556.202 589.654 531.514 589.898Z" fill="url(#paint2_linear)"/>
<path d="M187.514 771.898C174.479 772.028 164.631 782.864 155.242 782.699C145.852 782.535 131.672 755 100.126 755C60.9688 755 42.4732 790.368 31.9596 790.368C20.0821 790.368 13.5023 784.442 1.86482 784.442C-28.6556 784.442 -23.156 793.847 -46 797.162C2.95056 797.162 167.572 797.162 245.892 797.162C211.443 790.368 212.202 771.654 187.514 771.898Z" fill="url(#paint3_linear)"/>
<path d="M569.1 731.04C569.1 731.04 544.747 731.278 447.333 731.278C408.801 731.278 274 731.473 274 731.473C274 718.907 406.167 732.773 431.733 721.94C455.497 711.869 475.015 719.184 497.6 721.073C509.391 722.061 525.572 704.043 538.333 705.04C556.2 706.435 569.1 727.101 569.1 731.04Z" fill="url(#paint4_linear)"/>
<path d="M-28 1239C232.126 1239 443 1150.13 443 1040.5C443 930.871 232.126 842 -28 842C-288.126 842 -499 930.871 -499 1040.5C-499 1150.13 -288.126 1239 -28 1239Z" fill="#161616"/>
<path d="M402 1239C662.126 1239 873 1150.13 873 1040.5C873 930.871 662.126 842 402 842C141.874 842 -69 930.871 -69 1040.5C-69 1150.13 141.874 1239 402 1239Z" fill="url(#paint5_linear)"/>
<path d="M512 841.334H322V850.001H512V841.334Z" fill="#854400"/>
<path d="M499.909 750.334H334.091V759.001H499.909V750.334Z" fill="#854400"/>
<path d="M501.636 739.067H332.364L328.909 730.4H505.091L501.636 739.067Z" fill="#854400"/>
<path d="M499.909 739.066H334.091V750.333H499.909V739.066Z" fill="#F5D8AF"/>
<path d="M494.727 711.334H339.272V730.401H494.727V711.334Z" fill="#F5D8AF"/>
<path d="M347.909 759H334.091V841.333H347.909V759Z" fill="#F5D8AF"/>
<path d="M378.309 759H364.491V841.333H378.309V759Z" fill="#F5D8AF"/>
<path d="M408.709 759H394.891V841.333H408.709V759Z" fill="#F5D8AF"/>
<path d="M439.109 759H425.291V841.333H439.109V759Z" fill="#F5D8AF"/>
<path d="M469.51 759H455.691V841.333H469.51V759Z" fill="#F5D8AF"/>
<path d="M499.909 759H486.091V841.333H499.909V759Z" fill="#F5D8AF"/>
<path d="M351.364 759H330.637V769.4H351.364V759Z" fill="#D6801C"/>
<path d="M346.182 741.666H342.728V748.599H346.182V741.666Z" fill="#F3B761"/>
<path d="M503.364 759H482.637V769.4H503.364V759Z" fill="#D6801C"/>
<path d="M351.364 830.934H330.637V841.334H351.364V830.934Z" fill="#D6801C"/>
<path d="M381.591 759H360.863V769.4H381.591V759Z" fill="#D6801C"/>
<path d="M381.591 830.934H360.863V841.334H381.591V830.934Z" fill="#D6801C"/>
<path d="M411.818 759H391.091V769.4H411.818V759Z" fill="#D6801C"/>
<path d="M411.818 830.934H391.091V841.334H411.818V830.934Z" fill="#D6801C"/>
<path d="M442.046 759H421.318V769.4H442.046V759Z" fill="#D6801C"/>
<path d="M442.046 830.934H421.318V841.334H442.046V830.934Z" fill="#D6801C"/>
<path d="M473.136 759H452.409V769.4H473.136V759Z" fill="#D6801C"/>
<path d="M473.136 830.934H452.409V841.334H473.136V830.934Z" fill="#D6801C"/>
<path d="M503.364 830.934H482.637V841.334H503.364V830.934Z" fill="#D6801C"/>
<path d="M364.318 741.666H360.863V748.599H364.318V741.666Z" fill="#F3B761"/>
<path d="M382.455 741.666H379V748.599H382.455V741.666Z" fill="#F3B761"/>
<path d="M501.637 713.933H332.364L330.637 710.467H503.364L501.637 713.933Z" fill="#854400"/>
<path d="M400.591 741.666H397.137V748.599H400.591V741.666Z" fill="#F3B761"/>
<path d="M418.727 741.666H415.272V748.599H418.727V741.666Z" fill="#F3B761"/>
<path d="M436.864 741.666H433.409V748.599H436.864V741.666Z" fill="#F3B761"/>
<path d="M455 741.666H451.546V748.599H455V741.666Z" fill="#F3B761"/>
<path d="M473.136 741.666H469.682V748.599H473.136V741.666Z" fill="#F3B761"/>
<path d="M491.273 741.666H487.818V748.599H491.273V741.666Z" fill="#F3B761"/>
<path d="M489.545 726.066H346.182V727.8H489.545V726.066Z" fill="#F3B761"/>
<path d="M477.541 721.301H358.1V723.034H477.541V721.301Z" fill="#F3B761"/>
<path d="M461.65 716.533H374.077V718.267H461.65V716.533Z" fill="#F3B761"/>
<path d="M442.218 704.4H392.991V730.4H442.218V704.4Z" fill="#F3B761"/>
<path d="M420.368 683.6H415.187V704.4H420.368V683.6Z" fill="#F5D8AF"/>
<path d="M418.641 676.666H416.914V697.466H418.641V676.666Z" fill="#F5D8AF"/>
<path d="M417.777 676.667C420.162 676.667 422.095 674.727 422.095 672.333C422.095 669.94 420.162 668 417.777 668C415.392 668 413.459 669.94 413.459 672.333C413.459 674.727 415.392 676.667 417.777 676.667Z" fill="#F5D8AF"/>
<path d="M405.6 687.066H403.613V704.4H410.954V692.44C410.954 689.493 408.536 687.066 405.6 687.066Z" fill="#F5D8AF"/>
<path d="M396.1 691.4H393.077V704.4H400.85V696.167C400.764 693.567 398.691 691.4 396.1 691.4Z" fill="#F5D8AF"/>
<path d="M429.695 687.066H431.682V704.4H424.341V692.44C424.341 689.493 426.759 687.066 429.695 687.066Z" fill="#F5D8AF"/>
<path d="M439.195 691.4H442.218V704.4H434.445V696.167C434.445 693.567 436.604 691.4 439.195 691.4Z" fill="#F5D8AF"/>
<rect opacity="0.6" width="540" height="960" fill="#323232"/>
</g>
<defs>
<linearGradient id="paint0_linear" x1="252.72" y1="-435.84" x2="252.72" y2="842.88" gradientUnits="userSpaceOnUse">
<stop stop-color="#E07A15"/>
<stop offset="1" stop-color="#F8C06D"/>
</linearGradient>
<linearGradient id="paint1_linear" x1="38" y1="603" x2="38" y2="677" gradientUnits="userSpaceOnUse">
<stop stop-color="white" stop-opacity="0.5"/>
<stop offset="1" stop-color="white" stop-opacity="0"/>
</linearGradient>
<linearGradient id="paint2_linear" x1="443.946" y1="615.161" x2="443.946" y2="461" gradientUnits="userSpaceOnUse">
<stop stop-color="white" stop-opacity="0"/>
<stop offset="1" stop-color="white" stop-opacity="0.7"/>
</linearGradient>
<linearGradient id="paint3_linear" x1="99.946" y1="797.161" x2="99.946" y2="643" gradientUnits="userSpaceOnUse">
<stop stop-color="white" stop-opacity="0"/>
<stop offset="1" stop-color="white" stop-opacity="0.7"/>
</linearGradient>
<linearGradient id="paint4_linear" x1="421.55" y1="669" x2="421.55" y2="731" gradientUnits="userSpaceOnUse">
<stop stop-color="white" stop-opacity="0.71"/>
<stop offset="1" stop-color="white" stop-opacity="0"/>
</linearGradient>
<linearGradient id="paint5_linear" x1="120" y1="1233" x2="158.306" y2="708.796" gradientUnits="userSpaceOnUse">
<stop stop-color="#161616"/>
<stop offset="0.651042" stop-color="#323232"/>
<stop offset="1" stop-color="#7D7D7D"/>
</linearGradient>
<clipPath id="clip0">
<rect width="540" height="960" fill="white"/>
</clipPath>
</defs>
</svg>
