<svg width="540" height="960" viewBox="0 0 540 960" fill="none" xmlns="http://www.w3.org/2000/svg">
<g clip-path="url(#clip0)">
<rect width="540" height="960" fill="url(#paint0_linear)"/>
<path d="M588 677C588 677 410.789 676.747 282.778 676.747C232.143 676.747 55 677 55 677C55 660.727 181.986 682.612 267.403 637.719C297.327 621.99 319.154 661.086 348.833 663.532C364.328 664.812 383.313 652.141 400.083 653.432C408.767 654.099 461.168 668.588 492.903 668.022C555.542 666.899 588 669.929 588 677Z" fill="url(#paint1_linear)"/>
<path d="M211.514 530.898C198.479 531.028 188.631 541.864 179.242 541.699C169.852 541.535 155.672 514 124.126 514C84.9688 514 66.4732 549.368 55.9596 549.368C44.0821 549.368 37.5023 543.442 25.8648 543.442C-4.65562 543.442 0.843956 552.847 -22 556.162C26.9506 556.162 191.572 556.162 269.892 556.162C235.443 549.368 236.202 530.654 211.514 530.898Z" fill="url(#paint2_linear)"/>
<path d="M187.514 771.898C174.479 772.028 164.631 782.864 155.242 782.699C145.852 782.535 131.672 755 100.126 755C60.9688 755 42.4732 790.368 31.9596 790.368C20.0821 790.368 13.5023 784.442 1.86482 784.442C-28.6556 784.442 -23.156 793.847 -46 797.162C2.95056 797.162 167.572 797.162 245.892 797.162C211.443 790.368 212.202 771.654 187.514 771.898Z" fill="url(#paint3_linear)"/>
<path d="M569.1 588.04C569.1 588.04 544.747 588.278 447.333 588.278C408.801 588.278 274 588.473 274 588.473C274 575.907 406.167 589.773 431.733 578.94C455.497 568.869 475.015 576.184 497.6 578.073C509.391 579.061 525.572 561.043 538.333 562.04C556.2 563.435 569.1 584.101 569.1 588.04Z" fill="url(#paint4_linear)"/>
<path d="M-28 1239C232.126 1239 443 1150.13 443 1040.5C443 930.871 232.126 842 -28 842C-288.126 842 -499 930.871 -499 1040.5C-499 1150.13 -288.126 1239 -28 1239Z" fill="#203D2C"/>
<path d="M402 1239C662.126 1239 873 1150.13 873 1040.5C873 930.871 662.126 842 402 842C141.874 842 -69 930.871 -69 1040.5C-69 1150.13 141.874 1239 402 1239Z" fill="url(#paint5_linear)"/>
<path d="M381.892 732C381.892 732 345.347 739.683 328.492 758.889L324.202 791.234C349.178 782.936 375.303 779.325 399.589 778.403L381.892 732Z" fill="#F5D8AF"/>
<path d="M366.032 783.858H357.604V771.95C357.604 769.645 359.52 767.725 361.818 767.725C364.117 767.725 366.032 769.645 366.032 771.95V783.858Z" fill="#F3B761"/>
<path d="M353.008 786.548H346.113V773.41C346.113 771.72 347.492 770.414 349.101 770.414H349.178C351.246 770.414 353.008 772.104 353.008 774.255V786.548Z" fill="#F3B761"/>
<path d="M341.516 790.388H335.387V777.327C335.387 775.637 336.766 774.254 338.451 774.254C340.137 774.254 341.516 775.637 341.516 777.327V790.388Z" fill="#F3B761"/>
<path d="M331.556 791.925H327.726V781.553C327.726 780.478 328.568 779.633 329.641 779.633H329.947C330.79 779.633 331.556 780.324 331.556 781.246V791.925Z" fill="#F3B761"/>
<path d="M382.121 781.17H369.863V771.951C369.863 768.57 372.621 765.805 375.992 765.805C379.363 765.805 382.121 768.57 382.121 771.951V781.17Z" fill="#F3B761"/>
<path d="M323.742 794.768L320.524 819.046C337.686 816.434 379.287 810.748 417.057 810.748C418.359 810.748 418.972 804.986 418.972 804.986L410.698 781.17C366.416 781.631 333.319 791.542 323.742 794.768Z" fill="#F5D8AF"/>
<path d="M413.532 781.17C412.536 781.17 411.54 781.17 410.621 781.17L418.895 804.986L417.363 811.132L420.887 810.748C465.093 811.056 493.746 816.126 503.782 818.277L501.178 794.538C486.544 790.389 449.847 781.17 413.532 781.17Z" fill="#D6801C"/>
<path d="M438.048 820.352H425.79V798.072C425.79 794.692 428.548 791.926 431.919 791.926C435.29 791.926 438.048 794.692 438.048 798.072V820.352Z" fill="#F3B761"/>
<path d="M455.669 820.352H443.411V798.072C443.411 794.692 446.169 791.926 449.54 791.926C452.911 791.926 455.669 794.692 455.669 798.072V820.352Z" fill="#F3B761"/>
<path d="M469.459 822.656H460.266V798.84C460.266 796.305 462.334 794.23 464.862 794.23C467.391 794.23 469.459 796.305 469.459 798.84V822.656Z" fill="#F3B761"/>
<path d="M366.032 823.423H356.839V800.298C356.839 797.763 358.831 795.766 361.359 795.766H361.512C364.04 795.766 366.032 797.763 366.032 800.298V823.423Z" fill="#F3B761"/>
<path d="M352.242 824.191H343.049V802.526C343.049 800.068 345.041 798.07 347.492 798.07H347.875C350.327 798.07 352.319 800.068 352.319 802.526V824.191H352.242Z" fill="#F3B761"/>
<path d="M483.25 823.424H474.057V801.759C474.057 799.3 476.049 797.303 478.5 797.303H478.883C481.335 797.303 483.327 799.3 483.327 801.759V823.424H483.25Z" fill="#F3B761"/>
<path d="M339.984 824.961H333.854V803.987C333.854 802.451 335.08 801.145 336.689 801.145H337.225C338.758 801.145 340.06 802.374 340.06 803.987V824.961H339.984Z" fill="#F3B761"/>
<path d="M492.443 823.424H486.314V802.45C486.314 800.913 487.54 799.607 489.149 799.607H489.685C491.218 799.607 492.52 800.837 492.52 802.45V823.424H492.443Z" fill="#F3B761"/>
<path d="M500.871 826.498H495.508V805.294C495.508 803.834 496.657 802.682 498.113 802.682H498.266C499.722 802.682 500.871 803.834 500.871 805.294V826.498Z" fill="#F3B761"/>
<path d="M330.024 824.961H324.661V805.985C324.661 804.602 325.81 803.449 327.189 803.449H327.572C328.951 803.449 330.101 804.602 330.101 805.985V824.961H330.024Z" fill="#F3B761"/>
<path d="M400.508 820.352H388.25V798.072C388.25 794.692 391.008 791.926 394.379 791.926C397.75 791.926 400.508 794.692 400.508 798.072V820.352Z" fill="#F3B761"/>
<path d="M382.887 821.887H370.629V799.607C370.629 796.227 373.387 793.461 376.758 793.461C380.129 793.461 382.887 796.227 382.887 799.607V821.887Z" fill="#F3B761"/>
<path d="M416.98 817.662C378.52 817.662 336.077 823.578 319.528 826.113L317 846.472C359.903 856.46 453.371 858.765 507 847.24L504.548 825.345C495.048 823.27 464.633 817.662 416.98 817.662Z" fill="#F5D8AF"/>
<path d="M421.194 811.131L418.895 805.062L414.375 792.001C413.992 791.924 413.609 791.848 413.226 791.848H412.383C409.242 791.848 406.714 794.383 406.714 797.533V810.747C410.161 810.67 413.609 810.593 417.057 810.593C417.593 810.747 420.581 811.131 421.194 811.131Z" fill="#F3B761"/>
<path d="M464.862 826.498C462.334 826.498 460.266 828.572 460.266 831.108V853.387C463.407 853.157 466.471 852.927 469.459 852.619V831.108C469.459 828.572 467.391 826.498 464.862 826.498Z" fill="#F3B761"/>
<path d="M450.307 826.498C446.936 826.498 444.178 829.264 444.178 832.644V854.386C448.315 854.233 452.375 854.002 456.436 853.695V832.644C456.436 829.264 453.678 826.498 450.307 826.498Z" fill="#F3B761"/>
<path d="M503.935 830.108C503.935 828.572 502.709 827.266 501.1 827.266H500.564C499.032 827.266 497.729 828.495 497.729 830.108V849.008C499.798 848.624 501.867 848.239 503.859 847.855V830.108H503.935Z" fill="#F3B761"/>
<path d="M431.919 826.498C428.548 826.498 425.79 829.264 425.79 832.644V854.924C429.927 854.847 433.988 854.77 438.048 854.617V832.644C438.048 829.264 435.29 826.498 431.919 826.498Z" fill="#F3B761"/>
<path d="M478.806 826.498H478.423C475.971 826.498 473.979 828.496 473.979 830.954V852.235C477.121 851.928 480.185 851.544 483.173 851.16V830.877C483.25 828.496 481.258 826.498 478.806 826.498Z" fill="#F3B761"/>
<path d="M490.375 827.266H489.839C488.306 827.266 487.004 828.495 487.004 830.108V850.698C489.072 850.391 491.141 850.083 493.133 849.776V830.108C493.21 828.495 491.984 827.266 490.375 827.266Z" fill="#F3B761"/>
<path d="M394.379 826.498C391.008 826.498 388.25 829.264 388.25 832.644V854.463C392.31 854.617 396.371 854.77 400.508 854.847V832.644C400.508 829.264 397.75 826.498 394.379 826.498Z" fill="#F3B761"/>
<path d="M325.734 826.498H325.121C323.589 826.498 322.363 827.727 322.363 829.264V847.625C324.355 848.01 326.347 848.394 328.492 848.778V829.264C328.492 827.727 327.267 826.498 325.734 826.498Z" fill="#F3B761"/>
<path d="M361.512 826.498H361.359C358.831 826.498 356.839 828.496 356.839 831.031V852.389C359.827 852.696 362.891 852.927 366.032 853.157V831.031C366.032 828.496 364.04 826.498 361.512 826.498Z" fill="#F3B761"/>
<path d="M336.383 826.498H335.924C334.315 826.498 333.089 827.804 333.089 829.341V849.546C335.081 849.853 337.149 850.161 339.218 850.468V829.417C339.218 827.804 337.915 826.498 336.383 826.498Z" fill="#F3B761"/>
<path d="M412.766 826.498C409.395 826.498 406.637 829.264 406.637 832.644V854.924C410.697 855.001 414.834 855.001 418.895 855.001V832.721C418.895 829.264 416.137 826.498 412.766 826.498Z" fill="#F3B761"/>
<path d="M347.798 826.498H347.415C344.964 826.498 342.972 828.496 342.972 830.954V850.929C345.96 851.313 349.024 851.62 352.165 852.005V830.954C352.242 828.496 350.25 826.498 347.798 826.498Z" fill="#F3B761"/>
<path d="M375.992 826.498C372.621 826.498 369.863 829.264 369.863 832.644V853.464C373.847 853.772 377.984 854.002 382.121 854.156V832.644C382.121 829.264 379.363 826.498 375.992 826.498Z" fill="#F3B761"/>
<path d="M504.548 825.345L503.782 818.277C493.44 816.126 463.331 810.748 416.98 810.748C379.21 810.748 337.609 816.433 320.448 819.045L319.528 826.113C336.077 823.578 378.52 817.662 416.98 817.662C464.633 817.662 495.048 823.271 504.548 825.345Z" fill="#FAEDDA"/>
<path d="M500.871 791.156C476.355 780.4 395.145 766.572 324.202 791.233L323.742 794.767C388.25 775.791 451.073 779.632 501.178 794.537L500.871 791.156Z" fill="#FAEDDA"/>
<rect opacity="0.6" width="540" height="960" fill="#161616"/>
</g>
<defs>
<linearGradient id="paint0_linear" x1="246.24" y1="-289.92" x2="246.24" y2="864" gradientUnits="userSpaceOnUse">
<stop stop-color="#B01434"/>
<stop offset="1" stop-color="#F8C06D"/>
</linearGradient>
<linearGradient id="paint1_linear" x1="322" y1="603" x2="322" y2="677" gradientUnits="userSpaceOnUse">
<stop stop-color="white" stop-opacity="0.5"/>
<stop offset="1" stop-color="white" stop-opacity="0"/>
</linearGradient>
<linearGradient id="paint2_linear" x1="123.946" y1="556.161" x2="123.946" y2="402" gradientUnits="userSpaceOnUse">
<stop stop-color="white" stop-opacity="0"/>
<stop offset="1" stop-color="white" stop-opacity="0.7"/>
</linearGradient>
<linearGradient id="paint3_linear" x1="99.946" y1="797.161" x2="99.946" y2="643" gradientUnits="userSpaceOnUse">
<stop stop-color="white" stop-opacity="0"/>
<stop offset="1" stop-color="white" stop-opacity="0.7"/>
</linearGradient>
<linearGradient id="paint4_linear" x1="421.55" y1="526" x2="421.55" y2="588" gradientUnits="userSpaceOnUse">
<stop stop-color="white" stop-opacity="0.71"/>
<stop offset="1" stop-color="white" stop-opacity="0"/>
</linearGradient>
<linearGradient id="paint5_linear" x1="120" y1="1233" x2="158.306" y2="708.796" gradientUnits="userSpaceOnUse">
<stop stop-color="#214D2E"/>
<stop offset="0.651042" stop-color="#286442"/>
<stop offset="1" stop-color="#52A078"/>
</linearGradient>
<clipPath id="clip0">
<rect width="540" height="960" fill="white"/>
</clipPath>
</defs>
</svg>
