<svg width="540" height="960" viewBox="0 0 540 960" fill="none" xmlns="http://www.w3.org/2000/svg">
<g clip-path="url(#clip0)">
<rect width="540" height="960" fill="url(#paint0_linear)"/>
<path d="M588 677C588 677 410.789 676.747 282.778 676.747C232.143 676.747 55 677 55 677C55 660.727 181.986 682.612 267.403 637.719C297.327 621.99 319.154 661.086 348.833 663.532C364.328 664.812 383.313 652.141 400.083 653.432C408.767 654.099 461.168 668.588 492.903 668.022C555.542 666.899 588 669.929 588 677Z" fill="url(#paint1_linear)"/>
<path d="M211.514 530.898C198.479 531.028 188.631 541.864 179.242 541.699C169.852 541.535 155.672 514 124.126 514C84.9688 514 66.4732 549.368 55.9596 549.368C44.0821 549.368 37.5023 543.442 25.8648 543.442C-4.65562 543.442 0.843956 552.847 -22 556.162C26.9506 556.162 191.572 556.162 269.892 556.162C235.443 549.368 236.202 530.654 211.514 530.898Z" fill="url(#paint2_linear)"/>
<path d="M187.514 771.898C174.479 772.028 164.631 782.864 155.242 782.699C145.852 782.535 131.672 755 100.126 755C60.9688 755 42.4732 790.368 31.9596 790.368C20.0821 790.368 13.5023 784.442 1.86482 784.442C-28.6556 784.442 -23.156 793.847 -46 797.162C2.95056 797.162 167.572 797.162 245.892 797.162C211.443 790.368 212.202 771.654 187.514 771.898Z" fill="url(#paint3_linear)"/>
<path d="M569.1 588.04C569.1 588.04 544.747 588.278 447.333 588.278C408.801 588.278 274 588.473 274 588.473C274 575.907 406.167 589.773 431.733 578.94C455.497 568.869 475.015 576.184 497.6 578.073C509.391 579.061 525.572 561.043 538.333 562.04C556.2 563.435 569.1 584.101 569.1 588.04Z" fill="url(#paint4_linear)"/>
<g clip-path="url(#clip1)">
<path d="M440.229 767.428H382.629V830.285H440.229V767.428Z" fill="#F3B761"/>
<path d="M343.314 766.629H340.686V792.8H343.314V766.629Z" fill="#F5D8AF"/>
<path d="M359.086 762.629H356.457V792.8H359.086V762.629Z" fill="#F5D8AF"/>
<path d="M379.885 765.258H361.6V775.772H379.885V765.258Z" fill="#F5D8AF"/>
<path d="M373.486 775.772H368.229V770.172C368.229 768.915 369.257 767.887 370.514 767.887H371.2C372.457 767.887 373.486 768.915 373.486 770.172V775.772Z" fill="#D6801C"/>
<path d="M366.857 775.772H362.972V770.972C362.972 770.058 363.772 769.258 364.686 769.258H365.143C366.057 769.258 366.857 770.058 366.857 770.972V775.772Z" fill="#D6801C"/>
<path d="M371.429 748.229H370.172V756.114H371.429V748.229Z" fill="#F5D8AF"/>
<path d="M411.429 688H410.172V708.914H411.429V688Z" fill="#F5D8AF"/>
<path d="M378.629 775.772H374.743V770.972C374.743 770.058 375.543 769.258 376.457 769.258H376.915C377.829 769.258 378.629 770.058 378.629 770.972V775.772Z" fill="#D6801C"/>
<path d="M370.857 754.742C366.971 757.371 361.714 760.114 361.714 765.256H380C380 760.228 374.742 757.371 370.857 754.742Z" fill="#F3B761"/>
<path d="M320.343 730.285H319.657V734.171H320.343V730.285Z" fill="#F5D8AF"/>
<path d="M315.429 738.742V743.999H316.114V741.714C316.114 741.142 316.572 740.685 317.143 740.685C317.714 740.685 318.172 741.142 318.172 741.714V743.999H318.857V741.371C318.857 740.685 319.429 740.114 320.114 740.114C320.8 740.114 321.372 740.685 321.372 741.371V743.999H322.057V741.714C322.057 741.142 322.514 740.685 323.086 740.685C323.657 740.685 324.114 741.142 324.114 741.714V743.999H324.572V738.742H315.429Z" fill="#F5D8AF"/>
<path d="M320 733.6C318.057 734.857 315.429 736.342 315.429 738.857H324.572C324.572 736.228 321.943 734.857 320 733.6Z" fill="#F3B761"/>
<path d="M382.628 775.314H356.457V830.286H382.628V775.314Z" fill="#D6801C"/>
<path d="M380.229 777.943H359.771V830.286H380.229V777.943Z" fill="#F5D8AF"/>
<path d="M377.943 781.828H362.172V804.114H377.943V781.828Z" fill="#F3B761"/>
<path d="M356.457 830.286H340.686V784.457L356.457 775.314V830.286Z" fill="#854400"/>
<path d="M353.829 831.592H343.314V786.515L353.829 781.029V831.592Z" fill="#D6801C"/>
<path d="M436.343 771.428H386.515V830.399H436.343V771.428Z" fill="#D6801C"/>
<path d="M432.458 775.314H390.515V830.286H432.458V775.314Z" fill="#F5D8AF"/>
<path d="M428.458 779.314H394.4V830.4H428.458V779.314Z" fill="#F3B761"/>
<path d="M411.429 780.572C404.115 785.487 394.286 790.744 394.286 800.229V830.401H428.572V800.229C428.572 790.744 418.743 785.487 411.429 780.572Z" fill="#D6801C"/>
<path d="M411.429 795.428C409.714 796.571 407.314 797.828 407.314 800.113V807.199H415.429V799.999C415.543 797.828 413.143 796.571 411.429 795.428Z" fill="#854400"/>
<path d="M411.429 818.514C409.714 819.657 407.314 820.914 407.314 823.199V830.285H415.429V823.199C415.543 820.914 413.143 819.771 411.429 818.514Z" fill="#854400"/>
<path d="M427.086 807.199H395.657V809.828H427.086V807.199Z" fill="#F3B761"/>
<path d="M369.943 787.543C367.429 789.143 364.229 790.972 364.229 794.057V804.114H375.657V794.057C375.657 790.972 372.457 789.143 369.943 787.543Z" fill="#D6801C"/>
<path d="M352.343 805.943L344.686 808.114V788.8L352.343 784.914V805.943Z" fill="#F3B761"/>
<path d="M348.571 790.971C347.314 792.685 345.714 794.514 345.714 796.799V808.914L351.314 806.399V794.285C351.314 792.114 349.714 791.656 348.571 790.971Z" fill="#D6801C"/>
<path d="M352.343 829.828L344.686 830.4L344.8 810.4L352.343 808.457V829.828Z" fill="#F3B761"/>
<path d="M348.571 813.828C347.428 815.314 345.828 816.914 345.828 819.2V831.542L351.314 830.171V817.828C351.314 815.542 349.714 814.742 348.571 813.828Z" fill="#D6801C"/>
<path d="M377.943 808.113H362.172V830.399H377.943V808.113Z" fill="#F3B761"/>
<path d="M369.943 813.715C367.429 815.315 364.229 817.143 364.229 820.229V830.286H375.657V820.229C375.657 817.143 372.457 815.429 369.943 813.715Z" fill="#D6801C"/>
<path d="M479.525 792.744L482.153 792.744L482.153 766.573L479.525 766.573L479.525 792.744Z" fill="#F5D8AF"/>
<path d="M463.861 792.814L466.489 792.814L466.489 762.643L463.861 762.643L463.861 792.814Z" fill="#F5D8AF"/>
<path d="M442.922 775.777L461.208 775.777L461.208 765.263L442.922 765.263L442.922 775.777Z" fill="#F5D8AF"/>
<path d="M449.371 775.772H454.628V770.172C454.628 768.915 453.6 767.887 452.343 767.887H451.657C450.4 767.887 449.371 768.915 449.371 770.172V775.772Z" fill="#D6801C"/>
<path d="M456 775.772H459.886V770.972C459.886 770.058 459.086 769.258 458.171 769.258H457.714C456.8 769.258 456 770.058 456 770.972V775.772Z" fill="#D6801C"/>
<path d="M451.38 756.133L452.637 756.133L452.637 748.247L451.38 748.247L451.38 756.133Z" fill="#F5D8AF"/>
<path d="M444.229 775.772H448.114V770.972C448.114 770.058 447.314 769.258 446.4 769.258H445.943C445.029 769.258 444.229 770.058 444.229 770.972V775.772Z" fill="#D6801C"/>
<path d="M452 754.742C455.886 757.371 461.143 760.114 461.143 765.256H442.857C442.857 760.228 448.115 757.371 452 754.742Z" fill="#F3B761"/>
<path d="M440.285 830.355L466.456 830.355L466.456 775.384L440.285 775.384L440.285 830.355Z" fill="#D6801C"/>
<path d="M442.682 830.348L463.139 830.348L463.139 778.005L442.682 778.005L442.682 830.348Z" fill="#F5D8AF"/>
<path d="M444.968 804.195L460.739 804.195L460.739 781.91L444.968 781.91L444.968 804.195Z" fill="#F3B761"/>
<path d="M466.4 830.286H482.172V784.457L466.4 775.314V830.286Z" fill="#854400"/>
<path d="M469.028 830.539H479.543V786.515L469.028 781.029V830.539Z" fill="#D6801C"/>
<path d="M452.914 787.543C455.429 789.143 458.629 790.972 458.629 794.057V804.114H447.2V794.057C447.2 790.972 450.4 789.143 452.914 787.543Z" fill="#D6801C"/>
<path d="M470.515 805.943L478.172 808.114V788.8L470.515 784.914V805.943Z" fill="#F3B761"/>
<path d="M474.286 790.971C475.543 792.685 477.143 794.514 477.143 796.799V808.914L471.543 806.399V794.285C471.543 792.114 473.143 791.656 474.286 790.971Z" fill="#D6801C"/>
<path d="M470.515 829.828L478.172 830.4L478.058 810.4L470.515 808.457V829.828Z" fill="#F3B761"/>
<path d="M474.286 813.828C475.429 815.314 477.029 816.914 477.029 819.2V831.542L471.543 830.171V817.828C471.543 815.542 473.143 814.742 474.286 813.828Z" fill="#D6801C"/>
<path d="M444.968 830.301L460.739 830.301L460.739 808.015L444.968 808.015L444.968 830.301Z" fill="#F3B761"/>
<path d="M452.914 813.715C455.429 815.315 458.629 817.143 458.629 820.229V830.286H447.2V820.229C447.2 817.143 450.4 815.429 452.914 813.715Z" fill="#D6801C"/>
<path d="M512 829.715H312V848.001H512V829.715Z" fill="#854400"/>
<path d="M436.914 753.486H384.571V767.886H436.914V753.486Z" fill="#F5D8AF"/>
<path d="M424 716.571C419.657 713.028 415.085 709.599 410.743 706.285C406.4 710.057 401.714 713.485 397.371 716.914C406.4 714.857 416.114 714.857 424 716.571Z" fill="#F3B761"/>
<path d="M424 716.57C416 714.856 406.4 714.742 397.371 716.913C388 724.342 380 731.999 380 743.656C380 747.542 382.629 755.313 383.886 758.742L410.171 750.856L437.714 758.742C439.086 755.313 441.6 747.656 441.6 743.656C441.6 733.37 433.486 724.57 424 716.57Z" fill="#F5D8AF"/>
<path d="M326.857 804.572H313.143V829.715H326.857V804.572Z" fill="#F3B761"/>
<path d="M325.715 777.143H314.286V804.571H325.715V777.143Z" fill="#F3B761"/>
<path d="M437.6 758.744C437.6 758.744 427.085 756.115 410.743 756.115C394.4 756.115 383.885 758.744 383.885 758.744L381.257 752.229C381.257 752.229 395.657 748.344 410.743 748.344C425.828 748.344 440.228 752.229 440.228 752.229L437.6 758.744Z" fill="#F3B761"/>
<path d="M324.572 744H315.429V779.429H324.572V744Z" fill="#F3B761"/>
<path d="M328 801.143H312V804.571H328V801.143Z" fill="#D6801C"/>
<path d="M326.857 774.857H313.143V778.286H326.857V774.857Z" fill="#D6801C"/>
<path d="M325.715 744H314.286V747.429H325.715V744Z" fill="#D6801C"/>
<path d="M504.343 730.285H503.657V734.171H504.343V730.285Z" fill="#F5D8AF"/>
<path d="M499.429 738.742V743.999H500.114V741.714C500.114 741.142 500.572 740.685 501.143 740.685C501.714 740.685 502.172 741.142 502.172 741.714V743.999H502.857V741.371C502.857 740.685 503.429 740.114 504.114 740.114C504.8 740.114 505.372 740.685 505.372 741.371V743.999H506.057V741.714C506.057 741.142 506.514 740.685 507.086 740.685C507.657 740.685 508.114 741.142 508.114 741.714V743.999H508.8V738.742H499.429Z" fill="#F5D8AF"/>
<path d="M504 733.6C502.057 734.857 499.429 736.342 499.429 738.857H508.572C508.572 736.228 505.943 734.857 504 733.6Z" fill="#F3B761"/>
<path d="M510.857 804.572H497.143V829.715H510.857V804.572Z" fill="#F3B761"/>
<path d="M509.715 777.143H498.286V804.571H509.715V777.143Z" fill="#F3B761"/>
<path d="M508.572 744H499.429V779.429H508.572V744Z" fill="#F3B761"/>
<path d="M512 801.143H496V804.571H512V801.143Z" fill="#D6801C"/>
<path d="M510.857 774.857H497.143V778.286H510.857V774.857Z" fill="#D6801C"/>
<path d="M509.715 744H498.286V747.429H509.715V744Z" fill="#D6801C"/>
</g>
<path d="M-28 1239C232.126 1239 443 1150.13 443 1040.5C443 930.871 232.126 842 -28 842C-288.126 842 -499 930.871 -499 1040.5C-499 1150.13 -288.126 1239 -28 1239Z" fill="#203D2C"/>
<path d="M402 1239C662.126 1239 873 1150.13 873 1040.5C873 930.871 662.126 842 402 842C141.874 842 -69 930.871 -69 1040.5C-69 1150.13 141.874 1239 402 1239Z" fill="url(#paint5_linear)"/>
<rect opacity="0.6" width="540" height="960" fill="#323232"/>
</g>
<defs>
<linearGradient id="paint0_linear" x1="246.24" y1="-167.04" x2="246.24" y2="1008" gradientUnits="userSpaceOnUse">
<stop stop-color="#854400"/>
<stop offset="1" stop-color="#F3B761"/>
</linearGradient>
<linearGradient id="paint1_linear" x1="322" y1="603" x2="322" y2="677" gradientUnits="userSpaceOnUse">
<stop stop-color="white" stop-opacity="0.5"/>
<stop offset="1" stop-color="white" stop-opacity="0"/>
</linearGradient>
<linearGradient id="paint2_linear" x1="123.946" y1="556.161" x2="123.946" y2="402" gradientUnits="userSpaceOnUse">
<stop stop-color="white" stop-opacity="0"/>
<stop offset="1" stop-color="white" stop-opacity="0.7"/>
</linearGradient>
<linearGradient id="paint3_linear" x1="99.946" y1="797.161" x2="99.946" y2="643" gradientUnits="userSpaceOnUse">
<stop stop-color="white" stop-opacity="0"/>
<stop offset="1" stop-color="white" stop-opacity="0.7"/>
</linearGradient>
<linearGradient id="paint4_linear" x1="421.55" y1="526" x2="421.55" y2="588" gradientUnits="userSpaceOnUse">
<stop stop-color="white" stop-opacity="0.71"/>
<stop offset="1" stop-color="white" stop-opacity="0"/>
</linearGradient>
<linearGradient id="paint5_linear" x1="120" y1="1233" x2="158.306" y2="708.796" gradientUnits="userSpaceOnUse">
<stop stop-color="#214D2E"/>
<stop offset="0.651042" stop-color="#286442"/>
<stop offset="1" stop-color="#52A078"/>
</linearGradient>
<clipPath id="clip0">
<rect width="540" height="960" fill="white"/>
</clipPath>
<clipPath id="clip1">
<rect width="200" height="200" fill="white" transform="translate(312 648)"/>
</clipPath>
</defs>
</svg>
