<svg width="540" height="960" viewBox="0 0 540 960" fill="none" xmlns="http://www.w3.org/2000/svg">
<g clip-path="url(#clip0)">
<rect width="540" height="960" fill="url(#paint0_linear)"/>
<path d="M588 677C588 677 410.789 676.747 282.778 676.747C232.143 676.747 55 677 55 677C55 660.727 181.986 682.612 267.403 637.719C297.327 621.99 319.154 661.086 348.833 663.532C364.328 664.812 383.313 652.141 400.083 653.432C408.767 654.099 461.168 668.588 492.903 668.022C555.542 666.899 588 669.929 588 677Z" fill="url(#paint1_linear)"/>
<path d="M211.514 530.898C198.479 531.028 188.631 541.864 179.242 541.699C169.852 541.535 155.672 514 124.126 514C84.9688 514 66.4732 549.368 55.9596 549.368C44.0821 549.368 37.5023 543.442 25.8648 543.442C-4.65562 543.442 0.843956 552.847 -22 556.162C26.9506 556.162 191.572 556.162 269.892 556.162C235.443 549.368 236.202 530.654 211.514 530.898Z" fill="url(#paint2_linear)"/>
<path d="M187.514 771.898C174.479 772.028 164.631 782.864 155.242 782.699C145.852 782.535 131.672 755 100.126 755C60.9688 755 42.4732 790.368 31.9596 790.368C20.0821 790.368 13.5023 784.442 1.86482 784.442C-28.6556 784.442 -23.156 793.847 -46 797.162C2.95056 797.162 167.572 797.162 245.892 797.162C211.443 790.368 212.202 771.654 187.514 771.898Z" fill="url(#paint3_linear)"/>
<path d="M569.1 588.04C569.1 588.04 544.747 588.278 447.333 588.278C408.801 588.278 274 588.473 274 588.473C274 575.907 406.167 589.773 431.733 578.94C455.497 568.869 475.015 576.184 497.6 578.073C509.391 579.061 525.572 561.043 538.333 562.04C556.2 563.435 569.1 584.101 569.1 588.04Z" fill="url(#paint4_linear)"/>
<path d="M479.368 794.316H344.631V848.001H479.368V794.316Z" fill="#854400"/>
<path d="M479.368 808H344.631V814.316H479.368V808Z" fill="#D6801C"/>
<path d="M382.526 756.422H361.474V848.001H382.526V756.422Z" fill="#F3B761"/>
<path d="M463.578 756.422H442.525V848.001H463.578V756.422Z" fill="#F3B761"/>
<path d="M380.42 685.895H363.578V732.21H380.42V685.895Z" fill="#F3B761"/>
<path d="M461.473 685.895H444.631V732.21H461.473V685.895Z" fill="#F3B761"/>
<path d="M379.368 662.738L371.999 655.369L364.631 662.738V669.053H379.368V662.738Z" fill="#F3B761"/>
<path d="M460.42 662.738L453.052 655.369L445.684 662.738V669.053H460.42V662.738Z" fill="#F3B761"/>
<path d="M384.631 738.525H359.368V751.157H384.631V738.525Z" fill="#F3B761"/>
<path d="M465.684 738.525H440.421V751.157H465.684V738.525Z" fill="#F3B761"/>
<path d="M384.631 752.211H359.368L361.473 756.421H382.526L384.631 752.211Z" fill="#F3B761"/>
<path d="M465.684 752.211H440.421L442.526 756.421H463.579L465.684 752.211Z" fill="#F3B761"/>
<path d="M446.736 765.895H377.263V848H446.736V765.895Z" fill="#F5D8AF"/>
<path d="M446.736 765.895H377.263V776.421H446.736V765.895Z" fill="#F3B761"/>
<path d="M433.053 790.105H390.947V848H433.053V790.105Z" fill="#F3B761"/>
<path d="M433.053 790.105H390.947V794.316H433.053V790.105Z" fill="#D6801C"/>
<path d="M372.526 648H371.474V660.632H372.526V648Z" fill="#F3B761"/>
<path d="M453.578 648H452.525V660.632H453.578V648Z" fill="#F3B761"/>
<path d="M403.578 798.525H395.157V806.946H403.578V798.525Z" fill="#F5D8AF"/>
<path d="M416.21 798.525H407.789V806.946H416.21V798.525Z" fill="#F5D8AF"/>
<path d="M428.842 798.525H420.421V806.946H428.842V798.525Z" fill="#F5D8AF"/>
<path d="M403.578 848H395.157V824.737C395.157 824.737 395.157 812.211 399.368 812.211C403.578 812.211 403.578 824.737 403.578 824.737V848Z" fill="#D6801C"/>
<path d="M374.105 786.947H368.842V774.632C368.842 774.632 368.842 768 371.406 768C373.97 768 373.97 774.632 373.97 774.632V786.947H374.105Z" fill="#D6801C"/>
<path d="M455.158 786.947H449.895V774.632C449.895 774.632 449.895 768 452.459 768C455.023 768 455.023 774.632 455.023 774.632V786.947H455.158Z" fill="#D6801C"/>
<path d="M374.105 820.631H368.842V808.315C368.842 808.315 368.842 801.684 371.406 801.684C373.97 801.684 373.97 808.315 373.97 808.315V820.631H374.105Z" fill="#D6801C"/>
<path d="M455.158 820.631H449.895V808.315C449.895 808.315 449.895 801.684 452.459 801.684C455.023 801.684 455.023 808.315 455.023 808.315V820.631H455.158Z" fill="#D6801C"/>
<path d="M372.982 694.316H370.947V691.579C370.947 691.579 370.947 690.105 372 690.105C373.053 690.105 373.053 691.579 373.053 691.579V694.316H372.982Z" fill="#D6801C"/>
<path d="M454.035 694.316H452V691.579C452 691.579 452 690.105 453.053 690.105C454.105 690.105 454.105 691.579 454.105 691.579V694.316H454.035Z" fill="#D6801C"/>
<path d="M377.192 694.316H375.157V691.579C375.157 691.579 375.157 690.105 376.21 690.105C377.262 690.105 377.262 691.579 377.262 691.579V694.316H377.192Z" fill="#D6801C"/>
<path d="M458.245 694.316H456.21V691.579C456.21 691.579 456.21 690.105 457.263 690.105C458.315 690.105 458.315 691.579 458.315 691.579V694.316H458.245Z" fill="#D6801C"/>
<path d="M368.771 694.316H366.736V691.579C366.736 691.579 366.736 690.105 367.789 690.105C368.842 690.105 368.842 691.579 368.842 691.579V694.316H368.771Z" fill="#D6801C"/>
<path d="M449.824 694.316H447.789V691.579C447.789 691.579 447.789 690.105 448.842 690.105C449.894 690.105 449.894 691.579 449.894 691.579V694.316H449.824Z" fill="#D6801C"/>
<path d="M416.21 848H407.789V824.737C407.789 824.737 407.789 812.211 412 812.211C416.21 812.211 416.21 824.737 416.21 824.737V848Z" fill="#D6801C"/>
<path d="M428.842 848H420.421V824.737C420.421 824.737 420.421 812.211 424.631 812.211C428.842 812.211 428.842 824.737 428.842 824.737V848Z" fill="#D6801C"/>
<path d="M379.368 765.895H377.263V776.421H379.368V765.895Z" fill="#D6801C"/>
<path d="M446.736 765.895H444.631V776.421H446.736V765.895Z" fill="#D6801C"/>
<path d="M413.053 765.895H410.947V776.421H413.053V765.895Z" fill="#D6801C"/>
<path d="M396.21 765.895H394.104V776.421H396.21V765.895Z" fill="#D6801C"/>
<path d="M387.789 765.895H385.684V776.421H387.789V765.895Z" fill="#D6801C"/>
<path d="M404.631 765.895H402.525V776.421H404.631V765.895Z" fill="#D6801C"/>
<path d="M421.473 765.895H419.368V776.421H421.473V765.895Z" fill="#D6801C"/>
<path d="M438.315 765.895H436.21V776.421H438.315V765.895Z" fill="#D6801C"/>
<path d="M429.894 765.895H427.789V776.421H429.894V765.895Z" fill="#D6801C"/>
<path d="M446.736 765.895H377.263V768H446.736V765.895Z" fill="#D6801C"/>
<path d="M446.736 774.316H377.263V776.422H446.736V774.316Z" fill="#D6801C"/>
<path d="M381.473 671.158H362.525V681.685H381.473V671.158Z" fill="#F3B761"/>
<path d="M462.525 671.158H443.578V681.685H462.525V671.158Z" fill="#F3B761"/>
<path d="M381.473 681.684H362.525L363.578 685.894H380.42L381.473 681.684Z" fill="#F3B761"/>
<path d="M462.525 681.684H443.578L444.631 685.894H461.473L462.525 681.684Z" fill="#F3B761"/>
<path d="M386.736 738.527H357.263L361.473 732.211H382.526L386.736 738.527Z" fill="#D6801C"/>
<path d="M467.789 738.527H438.315L442.526 732.211H463.579L467.789 738.527Z" fill="#D6801C"/>
<path d="M384.631 750.105H359.368V752.211H384.631V750.105Z" fill="#D6801C"/>
<path d="M465.684 750.105H440.421V752.211H465.684V750.105Z" fill="#D6801C"/>
<path d="M361.473 738.525H359.368V750.104H361.473V738.525Z" fill="#D6801C"/>
<path d="M442.526 738.525H440.421V750.104H442.526V738.525Z" fill="#D6801C"/>
<path d="M384.631 738.525H382.525V750.104H384.631V738.525Z" fill="#D6801C"/>
<path d="M465.683 738.525H463.578V750.104H465.683V738.525Z" fill="#D6801C"/>
<path d="M367.789 738.525H365.684V750.104H367.789V738.525Z" fill="#D6801C"/>
<path d="M448.842 738.525H446.736V750.104H448.842V738.525Z" fill="#D6801C"/>
<path d="M378.315 738.525H376.21V750.104H378.315V738.525Z" fill="#D6801C"/>
<path d="M459.368 738.525H457.263V750.104H459.368V738.525Z" fill="#D6801C"/>
<path d="M383.579 671.158H360.421L364.631 666.947H379.368L383.579 671.158Z" fill="#D6801C"/>
<path d="M464.632 671.158H441.474L445.684 666.947H460.421L464.632 671.158Z" fill="#D6801C"/>
<path d="M445.683 671.158H443.578V679.579H445.683V671.158Z" fill="#D6801C"/>
<path d="M462.526 671.158H460.421V679.579H462.526V671.158Z" fill="#D6801C"/>
<path d="M450.947 671.158H448.842V679.579H450.947V671.158Z" fill="#D6801C"/>
<path d="M457.262 671.158H455.157V679.579H457.262V671.158Z" fill="#D6801C"/>
<path d="M381.473 679.578H362.525V681.683H381.473V679.578Z" fill="#D6801C"/>
<path d="M462.525 679.578H443.578V681.683H462.525V679.578Z" fill="#D6801C"/>
<path d="M364.631 671.158H362.525V679.579H364.631V671.158Z" fill="#D6801C"/>
<path d="M381.473 671.158H379.368V679.579H381.473V671.158Z" fill="#D6801C"/>
<path d="M369.894 671.158H367.789V679.579H369.894V671.158Z" fill="#D6801C"/>
<path d="M376.21 671.158H374.104V679.579H376.21V671.158Z" fill="#D6801C"/>
<path d="M344.631 848.001H317.263V822.686L344.631 814.316V848.001Z" fill="#472600"/>
<path d="M479.368 848.001H506.736V822.686L479.368 814.316V848.001Z" fill="#472600"/>
<path d="M-28 1239C232.126 1239 443 1150.13 443 1040.5C443 930.871 232.126 842 -28 842C-288.126 842 -499 930.871 -499 1040.5C-499 1150.13 -288.126 1239 -28 1239Z" fill="#203D2C"/>
<path d="M402 1239C662.126 1239 873 1150.13 873 1040.5C873 930.871 662.126 842 402 842C141.874 842 -69 930.871 -69 1040.5C-69 1150.13 141.874 1239 402 1239Z" fill="url(#paint5_linear)"/>
<rect opacity="0.6" width="540" height="960" fill="#323232"/>
</g>
<defs>
<linearGradient id="paint0_linear" x1="246.24" y1="-167.04" x2="246.24" y2="1008" gradientUnits="userSpaceOnUse">
<stop stop-color="#45835F"/>
<stop offset="1" stop-color="#F8C066"/>
</linearGradient>
<linearGradient id="paint1_linear" x1="322" y1="603" x2="322" y2="677" gradientUnits="userSpaceOnUse">
<stop stop-color="white" stop-opacity="0.5"/>
<stop offset="1" stop-color="white" stop-opacity="0"/>
</linearGradient>
<linearGradient id="paint2_linear" x1="123.946" y1="556.161" x2="123.946" y2="402" gradientUnits="userSpaceOnUse">
<stop stop-color="white" stop-opacity="0"/>
<stop offset="1" stop-color="white" stop-opacity="0.7"/>
</linearGradient>
<linearGradient id="paint3_linear" x1="99.946" y1="797.161" x2="99.946" y2="643" gradientUnits="userSpaceOnUse">
<stop stop-color="white" stop-opacity="0"/>
<stop offset="1" stop-color="white" stop-opacity="0.7"/>
</linearGradient>
<linearGradient id="paint4_linear" x1="421.55" y1="526" x2="421.55" y2="588" gradientUnits="userSpaceOnUse">
<stop stop-color="white" stop-opacity="0.71"/>
<stop offset="1" stop-color="white" stop-opacity="0"/>
</linearGradient>
<linearGradient id="paint5_linear" x1="120" y1="1233" x2="158.306" y2="708.796" gradientUnits="userSpaceOnUse">
<stop stop-color="#214D2E"/>
<stop offset="0.651042" stop-color="#286442"/>
<stop offset="1" stop-color="#52A078"/>
</linearGradient>
<clipPath id="clip0">
<rect width="540" height="960" fill="white"/>
</clipPath>
</defs>
</svg>
