<svg width="540" height="960" viewBox="0 0 540 960" fill="none" xmlns="http://www.w3.org/2000/svg">
<g clip-path="url(#clip0)">
<rect width="540" height="960" fill="url(#paint0_linear)"/>
<path d="M304 677C304 677 126.789 676.747 -1.22223 676.747C-51.8572 676.747 -229 677 -229 677C-229 660.727 -102.014 682.612 -16.5972 637.719C13.3271 621.99 35.1539 661.086 64.8333 663.532C80.3279 664.812 99.3132 652.141 116.083 653.432C124.767 654.099 177.168 668.588 208.903 668.022C271.542 666.899 304 669.929 304 677Z" fill="url(#paint1_linear)"/>
<path d="M531.514 589.898C518.479 590.028 508.631 600.864 499.242 600.699C489.852 600.535 475.672 573 444.126 573C404.969 573 386.473 608.368 375.96 608.368C364.082 608.368 357.502 602.442 345.865 602.442C315.344 602.442 320.844 611.847 298 615.162C346.951 615.162 511.572 615.162 589.892 615.162C555.443 608.368 556.202 589.654 531.514 589.898Z" fill="url(#paint2_linear)"/>
<path d="M187.514 771.898C174.479 772.028 164.631 782.864 155.242 782.699C145.852 782.535 131.672 755 100.126 755C60.9688 755 42.4732 790.368 31.9596 790.368C20.0821 790.368 13.5023 784.442 1.86482 784.442C-28.6556 784.442 -23.156 793.847 -46 797.162C2.95056 797.162 167.572 797.162 245.892 797.162C211.443 790.368 212.202 771.654 187.514 771.898Z" fill="url(#paint3_linear)"/>
<path d="M569.1 731.04C569.1 731.04 544.747 731.278 447.333 731.278C408.801 731.278 274 731.473 274 731.473C274 718.907 406.167 732.773 431.733 721.94C455.497 711.869 475.015 719.184 497.6 721.073C509.391 722.061 525.572 704.043 538.333 705.04C556.2 706.435 569.1 727.101 569.1 731.04Z" fill="url(#paint4_linear)"/>
<path d="M-28 1239C232.126 1239 443 1150.13 443 1040.5C443 930.871 232.126 842 -28 842C-288.126 842 -499 930.871 -499 1040.5C-499 1150.13 -288.126 1239 -28 1239Z" fill="#163B4B"/>
<path d="M402 1239C662.126 1239 873 1150.13 873 1040.5C873 930.871 662.126 842 402 842C141.874 842 -69 930.871 -69 1040.5C-69 1150.13 141.874 1239 402 1239Z" fill="url(#paint5_linear)"/>
<path d="M494.484 866C426.242 822.43 431.55 612.225 431.55 612.225H427H422.451C422.451 612.225 427.758 822.43 359.517 866C359.972 866 380.596 866 398.945 866V849.184C398.945 833.59 411.532 820.901 427 820.901C442.468 820.901 455.055 833.59 455.055 849.184V866C473.405 866 494.029 866 494.484 866ZM426.242 711.594H427H427.758L430.791 758.986H427H423.209L426.242 711.594ZM427 807.142H414.11L418.205 782.606C418.887 778.249 422.678 775.038 427 775.038C431.322 775.038 435.113 778.249 435.796 782.606L439.89 807.142H427Z" fill="#C93C33"/>
<path d="M403.495 862.178H358V866H403.495V862.178Z" fill="#651E19"/>
<path d="M420.176 618.34V625.984C420.176 627.283 421.161 628.277 422.451 628.277H431.549C432.838 628.277 433.824 627.283 433.824 625.984V618.34H420.176Z" fill="#E99690"/>
<path d="M404.253 758.986V760.362C404.253 761.662 405.314 762.808 406.679 762.808H427H447.321C448.61 762.808 449.747 761.738 449.747 760.362V758.986H404.253Z" fill="#E99690"/>
<path d="M447.169 762.809H406.755V770.452H447.169V762.809Z" fill="#651E19"/>
<path d="M390.604 807.143V807.907C390.604 809.589 391.969 810.964 393.637 810.964H427H460.363C462.031 810.964 463.396 809.589 463.396 807.907V807.143H390.604Z" fill="#E99690"/>
<path d="M461.121 810.965H392.955V818.609H461.121V810.965Z" fill="#651E19"/>
<path d="M450.506 866L496 866L496 862.178L450.506 862.178L450.506 866Z" fill="#651E19"/>
<path d="M429.275 607.639H424.726V612.225H429.275V607.639Z" fill="#E99690"/>
<path d="M427.759 587H426.242V607.638H427.759V587Z" fill="#E99690"/>
<rect opacity="0.6" width="540" height="960" fill="#163B4B"/>
</g>
<defs>
<linearGradient id="paint0_linear" x1="252.72" y1="23.04" x2="252.72" y2="842.88" gradientUnits="userSpaceOnUse">
<stop stop-color="#3F7494"/>
<stop offset="1" stop-color="#FFC8C2"/>
</linearGradient>
<linearGradient id="paint1_linear" x1="38" y1="603" x2="38" y2="677" gradientUnits="userSpaceOnUse">
<stop stop-color="white" stop-opacity="0.5"/>
<stop offset="1" stop-color="white" stop-opacity="0"/>
</linearGradient>
<linearGradient id="paint2_linear" x1="443.946" y1="615.161" x2="443.946" y2="461" gradientUnits="userSpaceOnUse">
<stop stop-color="white" stop-opacity="0"/>
<stop offset="1" stop-color="white" stop-opacity="0.7"/>
</linearGradient>
<linearGradient id="paint3_linear" x1="99.946" y1="797.161" x2="99.946" y2="643" gradientUnits="userSpaceOnUse">
<stop stop-color="white" stop-opacity="0"/>
<stop offset="1" stop-color="white" stop-opacity="0.7"/>
</linearGradient>
<linearGradient id="paint4_linear" x1="421.55" y1="669" x2="421.55" y2="731" gradientUnits="userSpaceOnUse">
<stop stop-color="white" stop-opacity="0.71"/>
<stop offset="1" stop-color="white" stop-opacity="0"/>
</linearGradient>
<linearGradient id="paint5_linear" x1="120" y1="1233" x2="158.306" y2="708.796" gradientUnits="userSpaceOnUse">
<stop stop-color="#323C46"/>
<stop offset="0.651042" stop-color="#335267"/>
<stop offset="1" stop-color="#3F7494"/>
</linearGradient>
<clipPath id="clip0">
<rect width="540" height="960" fill="white"/>
</clipPath>
</defs>
</svg>
