<svg width="540" height="960" viewBox="0 0 540 960" fill="none" xmlns="http://www.w3.org/2000/svg">
<g clip-path="url(#clip0)">
<rect width="540" height="960" fill="url(#paint0_linear)"/>
<path d="M334 647C334 647 156.789 646.747 28.7778 646.747C-21.8572 646.747 -199 647 -199 647C-199 630.727 -72.0139 652.612 13.4028 607.719C43.3271 591.99 65.1539 631.086 94.8333 633.532C110.328 634.812 129.313 622.141 146.083 623.432C154.767 624.099 207.168 638.588 238.903 638.022C301.542 636.899 334 639.929 334 647Z" fill="url(#paint1_linear)"/>
<path d="M531.514 679.898C518.479 680.028 508.631 690.864 499.242 690.699C489.852 690.535 475.672 663 444.126 663C404.969 663 386.473 698.368 375.96 698.368C364.082 698.368 357.502 692.442 345.865 692.442C315.344 692.442 320.844 701.847 298 705.162C346.951 705.162 511.572 705.162 589.892 705.162C555.443 698.368 556.202 679.654 531.514 679.898Z" fill="url(#paint2_linear)"/>
<path d="M187.514 771.898C174.479 772.028 164.631 782.864 155.242 782.699C145.852 782.535 131.672 755 100.126 755C60.9688 755 42.4732 790.368 31.9596 790.368C20.0821 790.368 13.5023 784.442 1.86482 784.442C-28.6556 784.442 -23.156 793.847 -46 797.162C2.95056 797.162 167.572 797.162 245.892 797.162C211.443 790.368 212.202 771.654 187.514 771.898Z" fill="url(#paint3_linear)"/>
<path d="M569.1 541.04C569.1 541.04 544.747 541.278 447.333 541.278C408.801 541.278 274 541.473 274 541.473C274 528.907 406.167 542.773 431.733 531.94C455.497 521.869 475.015 529.184 497.6 531.073C509.391 532.061 525.572 514.043 538.333 515.04C556.2 516.435 569.1 537.101 569.1 541.04Z" fill="url(#paint4_linear)"/>
<path d="M-38 1239C222.126 1239 433 1150.13 433 1040.5C433 930.871 222.126 842 -38 842C-298.126 842 -509 930.871 -509 1040.5C-509 1150.13 -298.126 1239 -38 1239Z" fill="#651E19"/>
<path d="M402 1239C662.126 1239 873 1150.13 873 1040.5C873 930.871 662.126 842 402 842C141.874 842 -69 930.871 -69 1040.5C-69 1150.13 141.874 1239 402 1239Z" fill="url(#paint5_linear)"/>
<path d="M388.128 647.224C390.65 647.224 392.695 645.18 392.695 642.657C392.695 640.135 390.65 638.09 388.128 638.09C385.605 638.09 383.561 640.135 383.561 642.657C383.561 645.18 385.605 647.224 388.128 647.224Z" fill="#F5D8AF"/>
<path d="M396.502 809.678H379.755V691.373L388.128 641.133L396.502 691.373V809.678Z" fill="#F3B761"/>
<path d="M396.502 809.679H379.755V722.71L396.502 715.098V809.679Z" fill="#C93C33"/>
<path d="M407.222 632.697C409.744 632.697 411.789 630.652 411.789 628.13C411.789 625.607 409.744 623.562 407.222 623.562C404.699 623.562 402.654 625.607 402.654 628.13C402.654 630.652 404.699 632.697 407.222 632.697Z" fill="#F5D8AF"/>
<path d="M415.595 795.216H398.785V676.911L407.222 626.607L415.595 676.911V795.216Z" fill="#F3B761"/>
<path d="M438.495 776.883H410.267V752.461L423.968 715.859L438.495 752.461V776.883Z" fill="#651E19"/>
<path d="M415.595 795.216H398.785V708.247L415.595 700.635V795.216Z" fill="#C93C33"/>
<path d="M460.57 647.224C463.093 647.224 465.137 645.18 465.137 642.657C465.137 640.135 463.093 638.09 460.57 638.09C458.048 638.09 456.003 640.135 456.003 642.657C456.003 645.18 458.048 647.224 460.57 647.224Z" fill="#F5D8AF"/>
<path d="M452.196 809.678H469.006V691.373L460.57 641.133L452.196 691.373V809.678Z" fill="#F3B761"/>
<path d="M452.196 809.679H469.006V722.71L452.196 715.098V809.679Z" fill="#C93C33"/>
<path d="M441.54 632.697C444.062 632.697 446.107 630.652 446.107 628.13C446.107 625.607 444.062 623.562 441.54 623.562C439.018 623.562 436.973 625.607 436.973 628.13C436.973 630.652 439.018 632.697 441.54 632.697Z" fill="#F5D8AF"/>
<path d="M433.166 795.216H449.913V676.911L441.539 626.607L433.166 676.911V795.216Z" fill="#F3B761"/>
<path d="M433.166 795.216H449.913V708.247L433.166 700.635V795.216Z" fill="#C93C33"/>
<path d="M469.007 815.071H379.755V790.649L423.969 757.092L469.007 790.649V815.071Z" fill="#651E19"/>
<path d="M494 847.867H490.384C488.354 849.453 486.451 850.785 482.011 853.196H475.921C471.354 855.289 467.104 859.095 460.633 860.808C460.633 860.808 455.178 860.237 452.26 860.808C444.141 862.331 434.689 866.517 424.032 866.137C413.692 865.819 403.035 862.394 395.042 860.808H388.191C382.482 859.413 377.915 854.845 373.665 853.196H366.814C361.168 850.595 359.011 849.39 356.918 847.867H354.063L372.396 808.094L424.095 773.078L475.794 808.094L494 847.867Z" fill="#651E19"/>
<path d="M423.968 753.223C426.07 753.223 427.774 750.156 427.774 746.372C427.774 742.589 426.07 739.521 423.968 739.521C421.866 739.521 420.162 742.589 420.162 746.372C420.162 750.156 421.866 753.223 423.968 753.223Z" fill="#D6801C"/>
<path d="M397.263 850.151H389.65V833.848L397.263 831.818V850.151Z" fill="#D6801C"/>
<path d="M450.674 850.151H458.286V833.848L450.674 831.818V850.151Z" fill="#D6801C"/>
<path d="M388.128 863.091H394.979C402.971 864.677 413.628 868.103 423.968 868.42C434.625 868.737 444.077 864.55 452.197 863.091C455.178 862.521 460.57 863.091 460.57 863.091C467.04 861.379 471.29 857.573 475.858 855.479H481.947C486.388 853.069 488.291 849.453 490.321 847.867H356.854C358.948 849.39 361.105 852.879 366.75 855.479H373.601C377.851 857.129 382.355 861.696 388.128 863.091Z" fill="url(#paint6_linear)"/>
<path d="M494 847.867H490.194C490.194 847.867 477.444 809.743 470.529 809.743C462.917 809.743 481.884 855.543 481.884 855.543H475.604C475.604 855.543 464.44 797.564 452.26 796.803C440.081 796.041 460.633 863.155 460.633 863.155H452.26C452.26 863.155 440.842 777.709 424.032 777.709C407.222 777.709 395.232 863.155 395.232 863.155H388.191C388.191 863.155 408.807 797.564 397.326 797.564C385.844 797.564 373.792 855.543 373.792 855.543H366.75C366.75 855.543 385.908 809.743 378.232 809.743C370.556 809.743 356.855 847.867 356.855 847.867H354L369.288 808.094L424.032 766.988L478.776 808.094L494 847.867Z" fill="#F3B761"/>
<path d="M433.166 712.814C433.166 712.814 429.36 707.486 424.412 707.486C419.464 707.486 415.658 712.814 415.658 712.814V700.635H433.23V712.814H433.166Z" fill="#651E19"/>
<path d="M422.446 847.866H414.834V829.534L422.446 827.25V847.866Z" fill="#D6801C"/>
<path d="M425.491 847.866H433.167V829.534L425.491 827.25V847.866Z" fill="#D6801C"/>
<path d="M383.18 749.417C382.736 749.417 382.419 749.1 382.419 748.656V725.058C382.419 724.614 382.736 724.297 383.18 724.297C383.624 724.297 383.941 724.614 383.941 725.058V748.719C383.941 749.1 383.561 749.417 383.18 749.417Z" fill="#651E19"/>
<path d="M386.606 747.894C386.162 747.894 385.845 747.577 385.845 747.133V723.472C385.845 723.028 386.162 722.711 386.606 722.711C387.05 722.711 387.367 723.028 387.367 723.472V747.133C387.367 747.577 387.05 747.894 386.606 747.894Z" fill="#651E19"/>
<path d="M390.031 746.371C389.587 746.371 389.27 746.054 389.27 745.61V721.949C389.27 721.505 389.587 721.188 390.031 721.188C390.475 721.188 390.792 721.505 390.792 721.949V745.61C390.792 746.054 390.475 746.371 390.031 746.371Z" fill="#651E19"/>
<path d="M393.457 744.85C393.012 744.85 392.695 744.532 392.695 744.088V720.427C392.695 719.983 393.012 719.666 393.457 719.666C393.901 719.666 394.218 719.983 394.218 720.427V744.088C394.218 744.532 393.901 744.85 393.457 744.85Z" fill="#651E19"/>
<path d="M402.21 734.191C401.766 734.191 401.449 733.874 401.449 733.43V709.769C401.449 709.325 401.766 709.008 402.21 709.008C402.654 709.008 402.972 709.325 402.972 709.769V733.43C402.972 733.811 402.654 734.191 402.21 734.191Z" fill="#651E19"/>
<path d="M405.699 732.67C405.255 732.67 404.938 732.353 404.938 731.909V708.248C404.938 707.803 405.255 707.486 405.699 707.486C406.143 707.486 406.46 707.803 406.46 708.248V731.909C406.46 732.289 406.079 732.67 405.699 732.67Z" fill="#651E19"/>
<path d="M409.125 731.148C408.68 731.148 408.363 730.831 408.363 730.387V706.726C408.363 706.282 408.68 705.965 409.125 705.965C409.569 705.965 409.886 706.282 409.886 706.726V730.387C409.886 730.768 409.505 731.148 409.125 731.148Z" fill="#651E19"/>
<path d="M412.55 729.625C412.106 729.625 411.789 729.308 411.789 728.864V705.203C411.789 704.759 412.106 704.441 412.55 704.441C412.994 704.441 413.311 704.759 413.311 705.203V728.864C413.311 729.244 412.931 729.625 412.55 729.625Z" fill="#651E19"/>
<path d="M465.962 749.417C466.406 749.417 466.724 749.1 466.724 748.656V725.058C466.724 724.614 466.406 724.297 465.962 724.297C465.518 724.297 465.201 724.614 465.201 725.058V748.719C465.201 749.1 465.518 749.417 465.962 749.417Z" fill="#651E19"/>
<path d="M462.537 747.894C462.981 747.894 463.298 747.577 463.298 747.133V723.472C463.298 723.028 462.981 722.711 462.537 722.711C462.093 722.711 461.775 723.028 461.775 723.472V747.133C461.775 747.577 462.093 747.894 462.537 747.894Z" fill="#651E19"/>
<path d="M459.047 746.371C459.491 746.371 459.809 746.054 459.809 745.61V721.949C459.809 721.505 459.491 721.188 459.047 721.188C458.603 721.188 458.286 721.505 458.286 721.949V745.61C458.286 746.054 458.667 746.371 459.047 746.371Z" fill="#651E19"/>
<path d="M455.623 744.85C456.067 744.85 456.384 744.532 456.384 744.088V720.427C456.384 719.983 456.067 719.666 455.623 719.666C455.178 719.666 454.861 719.983 454.861 720.427V744.088C454.861 744.532 455.242 744.85 455.623 744.85Z" fill="#651E19"/>
<path d="M446.869 734.191C447.313 734.191 447.63 733.874 447.63 733.43V709.769C447.63 709.325 447.313 709.008 446.869 709.008C446.425 709.008 446.107 709.325 446.107 709.769V733.43C446.107 733.811 446.425 734.191 446.869 734.191Z" fill="#651E19"/>
<path d="M443.443 732.67C443.887 732.67 444.204 732.353 444.204 731.909V708.248C444.204 707.803 443.887 707.486 443.443 707.486C442.999 707.486 442.682 707.803 442.682 708.248V731.909C442.682 732.289 442.999 732.67 443.443 732.67Z" fill="#651E19"/>
<path d="M440.017 731.148C440.461 731.148 440.778 730.831 440.778 730.387V706.726C440.778 706.282 440.461 705.965 440.017 705.965C439.573 705.965 439.256 706.282 439.256 706.726V730.387C439.256 730.768 439.573 731.148 440.017 731.148Z" fill="#651E19"/>
<path d="M436.592 729.625C437.036 729.625 437.353 729.308 437.353 728.864V705.203C437.353 704.759 437.036 704.441 436.592 704.441C436.148 704.441 435.831 704.759 435.831 705.203V728.864C435.831 729.244 436.148 729.625 436.592 729.625Z" fill="#651E19"/>
<path d="M383.18 701.968C382.736 701.968 382.419 701.65 382.419 701.206V699.494C382.419 699.05 382.736 698.732 383.18 698.732C383.624 698.732 383.941 699.05 383.941 699.494V701.206C383.941 701.65 383.561 701.968 383.18 701.968Z" fill="#C93C33"/>
<path d="M386.605 707.106C386.161 707.106 385.844 706.789 385.844 706.345V704.632C385.844 704.188 386.161 703.871 386.605 703.871C387.049 703.871 387.366 704.188 387.366 704.632V706.345C387.366 706.789 387.049 707.106 386.605 707.106Z" fill="#C93C33"/>
<path d="M393.457 707.106C393.012 707.106 392.695 706.789 392.695 706.345V704.632C392.695 704.188 393.012 703.871 393.457 703.871C393.901 703.871 394.218 704.188 394.218 704.632V706.345C394.218 706.789 393.901 707.106 393.457 707.106Z" fill="#C93C33"/>
<path d="M390.031 696.829C389.587 696.829 389.27 696.512 389.27 696.068V694.355C389.27 693.911 389.587 693.594 390.031 693.594C390.475 693.594 390.792 693.911 390.792 694.355V696.068C390.792 696.512 390.475 696.829 390.031 696.829Z" fill="#C93C33"/>
<path d="M390.031 677.735C389.587 677.735 389.27 677.418 389.27 676.974V675.261C389.27 674.817 389.587 674.5 390.031 674.5C390.475 674.5 390.792 674.817 390.792 675.261V676.974C390.792 677.418 390.475 677.735 390.031 677.735Z" fill="#C93C33"/>
<path d="M386.986 667.841C386.542 667.841 386.225 667.523 386.225 667.079V665.367C386.225 664.923 386.542 664.605 386.986 664.605C387.43 664.605 387.747 664.923 387.747 665.367V667.079C387.747 667.523 387.43 667.841 386.986 667.841Z" fill="#C93C33"/>
<path d="M386.986 687.694C386.542 687.694 386.225 687.377 386.225 686.933V685.22C386.225 684.776 386.542 684.459 386.986 684.459C387.43 684.459 387.747 684.776 387.747 685.22V686.933C387.747 687.314 387.43 687.694 386.986 687.694Z" fill="#C93C33"/>
<path d="M393.457 712.243C393.012 712.243 392.695 711.926 392.695 711.482V709.769C392.695 709.325 393.012 709.008 393.457 709.008C393.901 709.008 394.218 709.325 394.218 709.769V711.482C394.218 711.862 393.901 712.243 393.457 712.243Z" fill="#C93C33"/>
<path d="M383.56 716.05C383.116 716.05 382.799 715.732 382.799 715.288V713.576C382.799 713.132 383.116 712.814 383.56 712.814C384.004 712.814 384.321 713.132 384.321 713.576V715.288C384.321 715.732 383.941 716.05 383.56 716.05Z" fill="#C93C33"/>
<path d="M402.21 680.272C401.766 680.272 401.449 679.955 401.449 679.511V677.798C401.449 677.354 401.766 677.037 402.21 677.037C402.654 677.037 402.972 677.354 402.972 677.798V679.511C402.972 679.892 402.654 680.272 402.21 680.272Z" fill="#C93C33"/>
<path d="M405.699 685.411C405.255 685.411 404.938 685.094 404.938 684.65V682.937C404.938 682.493 405.255 682.176 405.699 682.176C406.143 682.176 406.46 682.493 406.46 682.937V684.65C406.46 685.03 406.079 685.411 405.699 685.411Z" fill="#C93C33"/>
<path d="M412.55 690.55C412.106 690.55 411.789 690.232 411.789 689.788V688.076C411.789 687.632 412.106 687.314 412.55 687.314C412.994 687.314 413.311 687.632 413.311 688.076V689.788C413.311 690.169 412.931 690.55 412.55 690.55Z" fill="#C93C33"/>
<path d="M409.125 675.136C408.68 675.136 408.363 674.818 408.363 674.374V672.662C408.363 672.218 408.68 671.9 409.125 671.9C409.569 671.9 409.886 672.218 409.886 672.662V674.374C409.886 674.755 409.505 675.136 409.125 675.136Z" fill="#C93C33"/>
<path d="M409.125 664.858C408.68 664.858 408.363 664.541 408.363 664.097V662.384C408.363 661.94 408.68 661.623 409.125 661.623C409.569 661.623 409.886 661.94 409.886 662.384V664.097C409.886 664.478 409.505 664.858 409.125 664.858Z" fill="#C93C33"/>
<path d="M406.08 659.72C405.636 659.72 405.318 659.402 405.318 658.958V657.246C405.318 656.802 405.636 656.484 406.08 656.484C406.524 656.484 406.841 656.802 406.841 657.246V658.958C406.841 659.339 406.46 659.72 406.08 659.72Z" fill="#C93C33"/>
<path d="M406.08 669.997C405.636 669.997 405.318 669.68 405.318 669.236V667.523C405.318 667.079 405.636 666.762 406.08 666.762C406.524 666.762 406.841 667.079 406.841 667.523V669.236C406.841 669.616 406.46 669.997 406.08 669.997Z" fill="#C93C33"/>
<path d="M412.55 695.688C412.106 695.688 411.789 695.371 411.789 694.927V693.214C411.789 692.77 412.106 692.453 412.55 692.453C412.994 692.453 413.311 692.77 413.311 693.214V694.927C413.311 695.308 412.931 695.688 412.55 695.688Z" fill="#C93C33"/>
<path d="M402.591 700.763C402.147 700.763 401.83 700.445 401.83 700.001V698.289C401.83 697.845 402.147 697.527 402.591 697.527C403.035 697.527 403.353 697.845 403.353 698.289V700.001C403.353 700.445 403.035 700.763 402.591 700.763Z" fill="#C93C33"/>
<path d="M465.962 701.968C466.406 701.968 466.724 701.65 466.724 701.206V699.494C466.724 699.05 466.406 698.732 465.962 698.732C465.518 698.732 465.201 699.05 465.201 699.494V701.206C465.201 701.65 465.518 701.968 465.962 701.968Z" fill="#C93C33"/>
<path d="M462.537 707.106C462.981 707.106 463.298 706.789 463.298 706.345V704.632C463.298 704.188 462.981 703.871 462.537 703.871C462.093 703.871 461.775 704.188 461.775 704.632V706.345C461.775 706.789 462.093 707.106 462.537 707.106Z" fill="#C93C33"/>
<path d="M455.623 707.106C456.067 707.106 456.384 706.789 456.384 706.345V704.632C456.384 704.188 456.067 703.871 455.623 703.871C455.178 703.871 454.861 704.188 454.861 704.632V706.345C454.861 706.789 455.242 707.106 455.623 707.106Z" fill="#C93C33"/>
<path d="M459.047 696.829C459.491 696.829 459.809 696.512 459.809 696.068V694.355C459.809 693.911 459.491 693.594 459.047 693.594C458.603 693.594 458.286 693.911 458.286 694.355V696.068C458.286 696.512 458.667 696.829 459.047 696.829Z" fill="#C93C33"/>
<path d="M459.047 677.735C459.491 677.735 459.809 677.418 459.809 676.974V675.261C459.809 674.817 459.491 674.5 459.047 674.5C458.603 674.5 458.286 674.817 458.286 675.261V676.974C458.286 677.418 458.667 677.735 459.047 677.735Z" fill="#C93C33"/>
<path d="M462.156 667.841C462.6 667.841 462.917 667.523 462.917 667.079V665.367C462.917 664.923 462.6 664.605 462.156 664.605C461.712 664.605 461.395 664.923 461.395 665.367V667.079C461.395 667.523 461.712 667.841 462.156 667.841Z" fill="#C93C33"/>
<path d="M462.156 687.694C462.6 687.694 462.917 687.377 462.917 686.933V685.22C462.917 684.776 462.6 684.459 462.156 684.459C461.712 684.459 461.395 684.776 461.395 685.22V686.933C461.395 687.314 461.712 687.694 462.156 687.694Z" fill="#C93C33"/>
<path d="M455.623 712.243C456.067 712.243 456.384 711.926 456.384 711.482V709.769C456.384 709.325 456.067 709.008 455.623 709.008C455.178 709.008 454.861 709.325 454.861 709.769V711.482C454.861 711.862 455.242 712.243 455.623 712.243Z" fill="#C93C33"/>
<path d="M465.582 716.05C466.026 716.05 466.343 715.732 466.343 715.288V713.576C466.343 713.132 466.026 712.814 465.582 712.814C465.137 712.814 464.82 713.132 464.82 713.576V715.288C464.82 715.732 465.137 716.05 465.582 716.05Z" fill="#C93C33"/>
<path d="M446.869 680.272C447.313 680.272 447.63 679.955 447.63 679.511V677.798C447.63 677.354 447.313 677.037 446.869 677.037C446.425 677.037 446.107 677.354 446.107 677.798V679.511C446.107 679.892 446.425 680.272 446.869 680.272Z" fill="#C93C33"/>
<path d="M443.443 685.411C443.887 685.411 444.204 685.094 444.204 684.65V682.937C444.204 682.493 443.887 682.176 443.443 682.176C442.999 682.176 442.682 682.493 442.682 682.937V684.65C442.682 685.03 442.999 685.411 443.443 685.411Z" fill="#C93C33"/>
<path d="M436.592 690.55C437.036 690.55 437.353 690.232 437.353 689.788V688.076C437.353 687.632 437.036 687.314 436.592 687.314C436.148 687.314 435.831 687.632 435.831 688.076V689.788C435.831 690.169 436.148 690.55 436.592 690.55Z" fill="#C93C33"/>
<path d="M440.017 675.136C440.461 675.136 440.778 674.818 440.778 674.374V672.662C440.778 672.218 440.461 671.9 440.017 671.9C439.573 671.9 439.256 672.218 439.256 672.662V674.374C439.256 674.755 439.573 675.136 440.017 675.136Z" fill="#C93C33"/>
<path d="M440.017 664.858C440.461 664.858 440.778 664.541 440.778 664.097V662.384C440.778 661.94 440.461 661.623 440.017 661.623C439.573 661.623 439.256 661.94 439.256 662.384V664.097C439.256 664.478 439.573 664.858 440.017 664.858Z" fill="#C93C33"/>
<path d="M443.062 659.72C443.506 659.72 443.823 659.402 443.823 658.958V657.246C443.823 656.802 443.506 656.484 443.062 656.484C442.618 656.484 442.301 656.802 442.301 657.246V658.958C442.301 659.339 442.618 659.72 443.062 659.72Z" fill="#C93C33"/>
<path d="M443.062 669.997C443.506 669.997 443.823 669.68 443.823 669.236V667.523C443.823 667.079 443.506 666.762 443.062 666.762C442.618 666.762 442.301 667.079 442.301 667.523V669.236C442.301 669.616 442.618 669.997 443.062 669.997Z" fill="#C93C33"/>
<path d="M436.592 695.688C437.036 695.688 437.353 695.371 437.353 694.927V693.214C437.353 692.77 437.036 692.453 436.592 692.453C436.148 692.453 435.831 692.77 435.831 693.214V694.927C435.831 695.308 436.148 695.688 436.592 695.688Z" fill="#C93C33"/>
<path d="M446.488 700.763C446.932 700.763 447.249 700.445 447.249 700.001V698.289C447.249 697.845 446.932 697.527 446.488 697.527C446.044 697.527 445.727 697.845 445.727 698.289V700.001C445.727 700.445 446.044 700.763 446.488 700.763Z" fill="#C93C33"/>
<rect opacity="0.6" width="540" height="960" fill="#6C0000"/>
</g>
<defs>
<linearGradient id="paint0_linear" x1="12.96" y1="501.493" x2="368.126" y2="968.17" gradientUnits="userSpaceOnUse">
<stop stop-color="#D7323E"/>
<stop offset="1" stop-color="#F8C06D"/>
</linearGradient>
<linearGradient id="paint1_linear" x1="68" y1="573" x2="68" y2="647" gradientUnits="userSpaceOnUse">
<stop stop-color="#FFE1A8"/>
<stop offset="1" stop-color="#FFE1A8" stop-opacity="0"/>
</linearGradient>
<linearGradient id="paint2_linear" x1="443.946" y1="705.161" x2="443.946" y2="551" gradientUnits="userSpaceOnUse">
<stop stop-color="#FFE1A8" stop-opacity="0"/>
<stop offset="1" stop-color="#FFE1A8"/>
</linearGradient>
<linearGradient id="paint3_linear" x1="99.946" y1="797.161" x2="99.946" y2="643" gradientUnits="userSpaceOnUse">
<stop stop-color="#FFE1A8" stop-opacity="0"/>
<stop offset="1" stop-color="#FFE1A8"/>
</linearGradient>
<linearGradient id="paint4_linear" x1="421.55" y1="479" x2="421.55" y2="541" gradientUnits="userSpaceOnUse">
<stop stop-color="#FFE1A8"/>
<stop offset="1" stop-color="#FFE1A8" stop-opacity="0"/>
</linearGradient>
<linearGradient id="paint5_linear" x1="112" y1="994" x2="281.665" y2="685.516" gradientUnits="userSpaceOnUse">
<stop stop-color="#882834"/>
<stop offset="0.651042" stop-color="#B01434"/>
<stop offset="1" stop-color="#D7323E"/>
</linearGradient>
<linearGradient id="paint6_linear" x1="382.153" y1="874.473" x2="383.878" y2="825.325" gradientUnits="userSpaceOnUse">
<stop stop-color="#B01434"/>
<stop offset="1" stop-color="#B01434" stop-opacity="0"/>
</linearGradient>
<clipPath id="clip0">
<rect width="540" height="960" fill="white"/>
</clipPath>
</defs>
</svg>
