<svg width="540" height="960" viewBox="0 0 540 960" fill="none" xmlns="http://www.w3.org/2000/svg">
<g clip-path="url(#clip0)">
<rect width="540" height="960" fill="url(#paint0_linear)"/>
<path d="M304 677C304 677 126.789 676.747 -1.22223 676.747C-51.8572 676.747 -229 677 -229 677C-229 660.727 -102.014 682.612 -16.5972 637.719C13.3271 621.99 35.1539 661.086 64.8333 663.532C80.3279 664.812 99.3132 652.141 116.083 653.432C124.767 654.099 177.168 668.588 208.903 668.022C271.542 666.899 304 669.929 304 677Z" fill="url(#paint1_linear)"/>
<path d="M531.514 589.898C518.479 590.028 508.631 600.864 499.242 600.699C489.852 600.535 475.672 573 444.126 573C404.969 573 386.473 608.368 375.96 608.368C364.082 608.368 357.502 602.442 345.865 602.442C315.344 602.442 320.844 611.847 298 615.162C346.951 615.162 511.572 615.162 589.892 615.162C555.443 608.368 556.202 589.654 531.514 589.898Z" fill="url(#paint2_linear)"/>
<path d="M187.514 771.898C174.479 772.028 164.631 782.864 155.242 782.699C145.852 782.535 131.672 755 100.126 755C60.9688 755 42.4732 790.368 31.9596 790.368C20.0821 790.368 13.5023 784.442 1.86482 784.442C-28.6556 784.442 -23.156 793.847 -46 797.162C2.95056 797.162 167.572 797.162 245.892 797.162C211.443 790.368 212.202 771.654 187.514 771.898Z" fill="url(#paint3_linear)"/>
<path d="M569.1 731.04C569.1 731.04 544.747 731.278 447.333 731.278C408.801 731.278 274 731.473 274 731.473C274 718.907 406.167 732.773 431.733 721.94C455.497 711.869 475.015 719.184 497.6 721.073C509.391 722.061 525.572 704.043 538.333 705.04C556.2 706.435 569.1 727.101 569.1 731.04Z" fill="url(#paint4_linear)"/>
<path d="M-28 1239C232.126 1239 443 1150.13 443 1040.5C443 930.871 232.126 842 -28 842C-288.126 842 -499 930.871 -499 1040.5C-499 1150.13 -288.126 1239 -28 1239Z" fill="#163B4B"/>
<path d="M402 1239C662.126 1239 873 1150.13 873 1040.5C873 930.871 662.126 842 402 842C141.874 842 -69 930.871 -69 1040.5C-69 1150.13 141.874 1239 402 1239Z" fill="url(#paint5_linear)"/>
<path d="M486.3 827.5H313.6V834.4H486.3V827.5Z" fill="#C93C33"/>
<path d="M497.9 834.4H302.1V841.3H497.9V834.4Z" fill="#E99690"/>
<path d="M509.4 841.301H290.6V848.201H509.4V841.301Z" fill="#F7D8D7"/>
<path d="M429.9 848.2H370.1L381.6 827.5H418.4L429.9 848.2Z" fill="#E99690"/>
<path d="M469.1 726.1H330.9V776.8H469.1V726.1Z" fill="#E99690"/>
<path d="M337.8 776.801H319.4V827.501H337.8V776.801Z" fill="#651E19"/>
<path d="M388.5 776.801H367.8V827.501H388.5V776.801Z" fill="#651E19"/>
<path d="M432.2 776.801H411.5V827.501H432.2V776.801Z" fill="#651E19"/>
<path d="M480.6 776.801H462.2V827.501H480.6V776.801Z" fill="#651E19"/>
<path d="M326.3 781.4H319.4V827.5H326.3V781.4Z" fill="#163B4B"/>
<path d="M480.6 781.4H473.7V827.5H480.6V781.4Z" fill="#163B4B"/>
<path d="M425.3 781.4H418.4V827.5H425.3V781.4Z" fill="#163B4B"/>
<path d="M381.6 781.4H374.7V827.5H381.6V781.4Z" fill="#163B4B"/>
<path d="M355.1 743.4H336.7V766.4H355.1V743.4Z" fill="#651E19"/>
<path d="M463.3 743.4H444.9V766.4H463.3V743.4Z" fill="#651E19"/>
<path d="M376.7 743.4H358.3V766.4H376.7V743.4Z" fill="#651E19"/>
<path d="M398.4 743.4H380V766.4H398.4V743.4Z" fill="#651E19"/>
<path d="M420 743.4H401.6V766.4H420V743.4Z" fill="#651E19"/>
<path d="M441.7 743.4H423.3V766.4H441.7V743.4Z" fill="#651E19"/>
<path d="M495.6 733L493.3 724.9C474.9 730.7 454.1 723.7 454.1 723.7L453.9 710H448.6C448.6 710 448.4 712.3 448.6 712.3C411.6 719.2 389.7 719.2 351.4 712.3C351.6 712.3 351.4 710 351.4 710H345.6L345.9 723.8C345.9 723.8 326.3 729.6 306.7 725L304.4 733C304.4 733 339.5 742.8 399.4 742.8C459.3 742.8 495.6 733 495.6 733Z" fill="#1F576F"/>
<path d="M399.4 742.8C339.5 742.8 304.4 733 304.4 733L330.9 748H469.1L495.6 733C495.6 733 459.3 742.8 399.4 742.8Z" fill="#163B4B"/>
<path d="M412.6 745.699H387.3V752.599H412.6V745.699Z" fill="#F7D8D7"/>
<path d="M400 787.202C322.8 787.202 286 775.602 286 775.602C286 775.602 304.4 796.302 319.4 796.302C334.4 796.302 465.6 796.302 480.6 796.302C495.6 796.302 514 775.602 514 775.602C514 775.602 477.2 787.202 400 787.202Z" fill="#163B4B"/>
<path d="M514 775.601L511.7 768.701C469.1 768.701 469.1 761.801 469.1 761.801H330.9C330.9 761.801 330.9 768.701 288.3 768.701L286 775.601C286 775.601 322.8 787.101 400 787.101C477.2 787.101 514 775.601 514 775.601Z" fill="#1F576F"/>
<rect opacity="0.6" width="540" height="960" fill="#163B4B"/>
</g>
<defs>
<linearGradient id="paint0_linear" x1="252.72" y1="23.04" x2="252.72" y2="842.88" gradientUnits="userSpaceOnUse">
<stop stop-color="#3F7494"/>
<stop offset="1" stop-color="#FFC8C2"/>
</linearGradient>
<linearGradient id="paint1_linear" x1="38" y1="603" x2="38" y2="677" gradientUnits="userSpaceOnUse">
<stop stop-color="white" stop-opacity="0.5"/>
<stop offset="1" stop-color="white" stop-opacity="0"/>
</linearGradient>
<linearGradient id="paint2_linear" x1="443.946" y1="615.161" x2="443.946" y2="461" gradientUnits="userSpaceOnUse">
<stop stop-color="white" stop-opacity="0"/>
<stop offset="1" stop-color="white" stop-opacity="0.7"/>
</linearGradient>
<linearGradient id="paint3_linear" x1="99.946" y1="797.161" x2="99.946" y2="643" gradientUnits="userSpaceOnUse">
<stop stop-color="white" stop-opacity="0"/>
<stop offset="1" stop-color="white" stop-opacity="0.7"/>
</linearGradient>
<linearGradient id="paint4_linear" x1="421.55" y1="669" x2="421.55" y2="731" gradientUnits="userSpaceOnUse">
<stop stop-color="white" stop-opacity="0.71"/>
<stop offset="1" stop-color="white" stop-opacity="0"/>
</linearGradient>
<linearGradient id="paint5_linear" x1="120" y1="1233" x2="158.306" y2="708.796" gradientUnits="userSpaceOnUse">
<stop stop-color="#323C46"/>
<stop offset="0.651042" stop-color="#335267"/>
<stop offset="1" stop-color="#3F7494"/>
</linearGradient>
<clipPath id="clip0">
<rect width="540" height="960" fill="white"/>
</clipPath>
</defs>
</svg>
