<svg width="540" height="960" viewBox="0 0 540 960" fill="none" xmlns="http://www.w3.org/2000/svg">
<g clip-path="url(#clip0)">
<rect width="540" height="960" fill="url(#paint0_linear)"/>
<path d="M588 677C588 677 410.789 676.747 282.778 676.747C232.143 676.747 55 677 55 677C55 660.727 181.986 682.612 267.403 637.719C297.327 621.99 319.154 661.086 348.833 663.532C364.328 664.812 383.313 652.141 400.083 653.432C408.767 654.099 461.168 668.588 492.903 668.022C555.542 666.899 588 669.929 588 677Z" fill="url(#paint1_linear)"/>
<path d="M211.514 530.898C198.479 531.028 188.631 541.864 179.242 541.699C169.852 541.535 155.672 514 124.126 514C84.9688 514 66.4732 549.368 55.9596 549.368C44.0821 549.368 37.5023 543.442 25.8648 543.442C-4.65562 543.442 0.843956 552.847 -22 556.162C26.9506 556.162 191.572 556.162 269.892 556.162C235.443 549.368 236.202 530.654 211.514 530.898Z" fill="url(#paint2_linear)"/>
<path d="M187.514 771.898C174.479 772.028 164.631 782.864 155.242 782.699C145.852 782.535 131.672 755 100.126 755C60.9688 755 42.4732 790.368 31.9596 790.368C20.0821 790.368 13.5023 784.442 1.86482 784.442C-28.6556 784.442 -23.156 793.847 -46 797.162C2.95056 797.162 167.572 797.162 245.892 797.162C211.443 790.368 212.202 771.654 187.514 771.898Z" fill="url(#paint3_linear)"/>
<path d="M569.1 588.04C569.1 588.04 544.747 588.278 447.333 588.278C408.801 588.278 274 588.473 274 588.473C274 575.907 406.167 589.773 431.733 578.94C455.497 568.869 475.015 576.184 497.6 578.073C509.391 579.061 525.572 561.043 538.333 562.04C556.2 563.435 569.1 584.101 569.1 588.04Z" fill="url(#paint4_linear)"/>
<path d="M-28 1239C232.126 1239 443 1150.13 443 1040.5C443 930.871 232.126 842 -28 842C-288.126 842 -499 930.871 -499 1040.5C-499 1150.13 -288.126 1239 -28 1239Z" fill="#203D2C"/>
<path d="M402 1239C662.126 1239 873 1150.13 873 1040.5C873 930.871 662.126 842 402 842C141.874 842 -69 930.871 -69 1040.5C-69 1150.13 141.874 1239 402 1239Z" fill="url(#paint5_linear)"/>
<path d="M432.016 689.947C432.016 703.684 424.546 705.737 417.315 705.737C410.083 705.737 402.613 702.895 402.613 689.158C402.613 662.316 410.083 656 417.315 656C424.546 656 432.016 663.105 432.016 689.947Z" fill="#1F576F"/>
<path d="M455.856 830.475H377.979V851.001H455.856V830.475Z" fill="#163B4B"/>
<path d="M444.731 819.422H389.104V830.475H444.731V819.422Z" fill="#296F8E"/>
<path d="M439.168 778.369H394.667V819.422H439.168V778.369Z" fill="#1F576F"/>
<path d="M404.203 778.369H400.229V819.422H404.203V778.369Z" fill="#296F8E"/>
<path d="M413.977 778.369H410.004V819.422H413.977V778.369Z" fill="#296F8E"/>
<path d="M423.831 778.369H419.857V819.422H423.831V778.369Z" fill="#296F8E"/>
<path d="M433.605 778.369H429.632V819.422H433.605V778.369Z" fill="#296F8E"/>
<path d="M361.291 701.315H336.974C336.418 701.315 335.861 700.999 335.544 700.526L333.16 696.262C332.603 695.236 333.318 693.894 334.59 693.894H343.808L343.172 692.236C342.934 691.683 343.331 691.131 343.888 691.131H347.384L350.165 693.657L357.238 693.815L361.291 701.315Z" fill="#296F8E"/>
<path d="M442.347 806.789L391.488 783.104V691.525H442.347V806.789Z" fill="#163B4B"/>
<path d="M465.71 701.315H490.027C490.583 701.315 491.139 700.999 491.457 700.526L493.841 696.262C494.398 695.236 493.682 693.894 492.411 693.894H483.193L483.828 692.236C484.067 691.683 483.669 691.131 483.113 691.131H479.617L476.835 693.657L469.683 693.894L465.71 701.315Z" fill="#296F8E"/>
<path d="M414.533 813.895H398.64V819.421H414.533V813.895Z" fill="#85C3D8"/>
<path d="M435.195 813.895H419.302V819.421H435.195V813.895Z" fill="#85C3D8"/>
<path d="M442.347 783.895L427.248 794.159L391.488 731.001V691.527L410.401 687.974L410.56 677.316H423.275L423.513 687.895L442.347 691.527V783.895Z" fill="#296F8E"/>
<path d="M402.613 750.736L382.747 742.842L382.508 715.21H364.469L354.139 693.894L402.613 690.736V750.736Z" fill="#1F576F"/>
<path d="M426.453 750.736L446.32 742.842L446.558 715.21H464.597L474.928 693.894L426.453 690.736V750.736Z" fill="#1F576F"/>
<path d="M442.347 717.58H402.613L383.541 691.527L408.176 688.369L413.738 701.001H421.685L426.453 688.369L442.347 691.527V717.58Z" fill="#85C3D8"/>
<path d="M447.909 745.211L426.453 750.738V688.369L447.909 691.527V745.211Z" fill="#CAE4ED"/>
<path d="M416.917 684.421C412.547 684.421 408.971 680.869 408.971 676.527V667.053C408.971 662.711 412.547 659.158 416.917 659.158C421.288 659.158 424.864 662.711 424.864 667.053V676.527C424.864 680.869 421.288 684.421 416.917 684.421Z" fill="#296F8E"/>
<rect opacity="0.6" width="540" height="960" fill="#163B4B"/>
</g>
<defs>
<linearGradient id="paint0_linear" x1="246.24" y1="-167.04" x2="246.24" y2="1008" gradientUnits="userSpaceOnUse">
<stop stop-color="#83C2D6"/>
<stop offset="1" stop-color="#F8C06D"/>
</linearGradient>
<linearGradient id="paint1_linear" x1="322" y1="603" x2="322" y2="677" gradientUnits="userSpaceOnUse">
<stop stop-color="white" stop-opacity="0.5"/>
<stop offset="1" stop-color="white" stop-opacity="0"/>
</linearGradient>
<linearGradient id="paint2_linear" x1="123.946" y1="556.161" x2="123.946" y2="402" gradientUnits="userSpaceOnUse">
<stop stop-color="white" stop-opacity="0"/>
<stop offset="1" stop-color="white" stop-opacity="0.7"/>
</linearGradient>
<linearGradient id="paint3_linear" x1="99.946" y1="797.161" x2="99.946" y2="643" gradientUnits="userSpaceOnUse">
<stop stop-color="white" stop-opacity="0"/>
<stop offset="1" stop-color="white" stop-opacity="0.7"/>
</linearGradient>
<linearGradient id="paint4_linear" x1="421.55" y1="526" x2="421.55" y2="588" gradientUnits="userSpaceOnUse">
<stop stop-color="white" stop-opacity="0.71"/>
<stop offset="1" stop-color="white" stop-opacity="0"/>
</linearGradient>
<linearGradient id="paint5_linear" x1="120" y1="1233" x2="158.306" y2="708.796" gradientUnits="userSpaceOnUse">
<stop stop-color="#214D2E"/>
<stop offset="0.651042" stop-color="#286442"/>
<stop offset="1" stop-color="#52A078"/>
</linearGradient>
<clipPath id="clip0">
<rect width="540" height="960" fill="white"/>
</clipPath>
</defs>
</svg>
