<svg width="540" height="960" viewBox="0 0 540 960" fill="none" xmlns="http://www.w3.org/2000/svg">
<g clip-path="url(#clip0)">
<rect width="540" height="960" fill="url(#paint0_linear)"/>
<path d="M304 677C304 677 126.789 676.747 -1.22223 676.747C-51.8572 676.747 -229 677 -229 677C-229 660.727 -102.014 682.612 -16.5972 637.719C13.3271 621.99 35.1539 661.086 64.8333 663.532C80.3279 664.812 99.3132 652.141 116.083 653.432C124.767 654.099 177.168 668.588 208.903 668.022C271.542 666.899 304 669.929 304 677Z" fill="url(#paint1_linear)"/>
<path d="M531.514 589.898C518.479 590.028 508.631 600.864 499.242 600.699C489.852 600.535 475.672 573 444.126 573C404.969 573 386.473 608.368 375.96 608.368C364.082 608.368 357.502 602.442 345.865 602.442C315.344 602.442 320.844 611.847 298 615.162C346.951 615.162 511.572 615.162 589.892 615.162C555.443 608.368 556.202 589.654 531.514 589.898Z" fill="url(#paint2_linear)"/>
<path d="M187.514 771.898C174.479 772.028 164.631 782.864 155.242 782.699C145.852 782.535 131.672 755 100.126 755C60.9688 755 42.4732 790.368 31.9596 790.368C20.0821 790.368 13.5023 784.442 1.86482 784.442C-28.6556 784.442 -23.156 793.847 -46 797.162C2.95056 797.162 167.572 797.162 245.892 797.162C211.443 790.368 212.202 771.654 187.514 771.898Z" fill="url(#paint3_linear)"/>
<path d="M569.1 731.04C569.1 731.04 544.747 731.278 447.333 731.278C408.801 731.278 274 731.473 274 731.473C274 718.907 406.167 732.773 431.733 721.94C455.497 711.869 475.015 719.184 497.6 721.073C509.391 722.061 525.572 704.043 538.333 705.04C556.2 706.435 569.1 727.101 569.1 731.04Z" fill="url(#paint4_linear)"/>
<path d="M-28 1239C232.126 1239 443 1150.13 443 1040.5C443 930.871 232.126 842 -28 842C-288.126 842 -499 930.871 -499 1040.5C-499 1150.13 -288.126 1239 -28 1239Z" fill="#651E19"/>
<path d="M402 1239C662.126 1239 873 1150.13 873 1040.5C873 930.871 662.126 842 402 842C141.874 842 -69 930.871 -69 1040.5C-69 1150.13 141.874 1239 402 1239Z" fill="url(#paint5_linear)"/>
<g clip-path="url(#clip1)">
<path d="M440.642 721.525C440.642 734.02 433.878 735.536 427.268 735.536C420.659 735.536 413.895 734.02 413.895 721.525C413.895 718.079 416.442 714.065 416.442 711.336C416.442 694.82 421.603 690.957 427.268 690.957C432.716 690.957 437.368 694.82 438.095 711.336C438.24 714.639 440.642 717.145 440.642 721.525Z" fill="#163B4B"/>
<path d="M466.115 857.811H394.789V868H466.115V857.811Z" fill="#0D242F"/>
<path d="M455.926 801.768H404.979V857.81H455.926V801.768Z" fill="#163B4B"/>
<path d="M415.168 801.768H410.073V857.81H415.168V801.768Z" fill="#1F576F"/>
<path d="M424.084 801.768H418.989V857.81H424.084V801.768Z" fill="#1F576F"/>
<path d="M433 801.768H427.905V857.81H433V801.768Z" fill="#1F576F"/>
<path d="M441.915 801.768H436.82V857.81H441.915V801.768Z" fill="#1F576F"/>
<path d="M467.231 773.929C467.086 778.309 463.672 781.828 459.241 781.828C454.811 781.828 451.252 778.309 451.252 773.929C451.252 758.131 454.811 755.976 459.241 755.976C463.672 755.976 467.957 755.258 467.231 773.929Z" fill="#0D242F"/>
<path d="M450.831 801.768H445.736V857.81H450.831V801.768Z" fill="#1F576F"/>
<path d="M403.705 848.894L439.368 827.242V768.652H403.705V848.894Z" fill="#0D242F"/>
<path d="M467.158 738.022L477.762 744.629C478.852 745.275 479.142 746.639 478.489 747.717L461.929 774.645C461.202 775.794 459.605 776.082 458.515 775.22L449.073 767.536C448.201 766.818 447.983 765.597 448.565 764.664L463.962 738.884C464.616 737.735 466.069 737.376 467.158 738.022Z" fill="#85C3D8"/>
<path d="M457.2 809.789L431.296 823.42V758.849H413.895V722.977L421.537 720.252V710.062H433V720.252L457.2 730.869V809.789Z" fill="#296F8E"/>
<path d="M457.2 762.283L442.097 747.142L436.275 769.496H402.511V731.715L394.789 721.525L399.884 701.146H412.621L418.989 720.252L429.179 722.799L433 720.252L457.2 730.441V762.283Z" fill="#85C3D8"/>
<path d="M427.268 716.43C423.415 716.43 420.263 713.206 420.263 709.266V700.668C420.263 698.519 421.173 696.585 422.644 695.295C423.905 694.22 425.517 693.504 427.268 693.504C431.121 693.504 434.273 696.728 434.273 700.668V709.266C434.273 713.206 431.121 716.43 427.268 716.43Z" fill="#296F8E"/>
<path d="M402.432 813.231L435.862 785.21L443.508 753.368L457.2 777.568V730.441L433 720.252L402.432 766.105V813.231Z" fill="#1F576F"/>
<path d="M427.284 690.629C428.737 690.629 428.737 695.656 425.832 697.092C423.507 698.241 421.474 697.81 420.021 700.682C418.568 699.964 418.568 696.374 420.021 694.219C421.474 692.065 424.379 690.629 427.284 690.629Z" fill="#163B4B"/>
<path d="M427.139 690.629C425.686 690.629 425.686 695.656 428.591 697.092C430.916 698.241 432.949 697.81 434.402 700.682C435.855 699.964 435.855 696.374 434.402 694.219C432.949 692.065 430.044 690.629 427.139 690.629Z" fill="#163B4B"/>
<path d="M403.705 635.998C403.705 638.131 402.436 640.01 399.883 640.01C397.331 640.01 396.062 638.131 396.062 635.998C396.062 633.671 397.777 632.908 397.154 630.84C397.901 630.387 398.792 633.132 399.884 633.132C400.975 633.132 400.429 628.547 403.705 628.547C401.521 631.986 403.705 633.413 403.705 635.998Z" fill="#85C3D8"/>
<path d="M436.944 697.882L448.347 690.629L434.91 694.435C434.692 694.148 434.474 693.86 434.184 693.573L441.374 682.586L429.971 690.988C429.753 690.916 429.608 690.916 429.39 690.844L426.558 677.703L424.451 690.844L413.193 682.586L420.384 693.573C420.166 693.86 419.875 694.148 419.658 694.435L406.221 690.629L417.624 697.882L406.221 698.528C415.805 701.147 420.263 702.421 420.263 702.421C420.263 698.112 422.91 693.501 427.268 693.501C431.626 693.501 434.273 698.112 434.273 702.421C438.877 701.283 443.728 699.715 448.347 698.528L436.944 697.882Z" fill="#0D242F"/>
<path d="M412.621 701.148L403.705 711.337L397.337 669.306V657.843L399.884 654.021C399.884 654.021 404.979 657.518 404.979 660.39C404.979 663.262 404.979 669.306 404.979 669.306L412.621 701.148Z" fill="#296F8E"/>
<path d="M408.8 641.285H390.969V646.38H408.8V641.285Z" fill="#163B4B"/>
<path d="M467.595 757.628C466.723 759.064 468.176 760.5 468.249 761.577C468.321 762.655 468.103 763.804 468.902 764.234C470.21 764.881 472.461 763.947 474.204 760.931C475.948 757.987 475.512 756.982 474.713 754.54C474.495 753.822 473.138 750.893 472.484 750.821C471.25 750.749 471.081 752.17 470.282 754.325C469.701 755.833 468.103 756.694 467.595 757.628Z" fill="#296F8E"/>
<path d="M408.8 645.105H390.969V647.653H408.8V645.105Z" fill="#296F8E"/>
<path d="M407.527 651.473H392.242L390.969 647.652H408.8L407.527 651.473Z" fill="#0D242F"/>
<path d="M402.432 668.669C402.432 668.669 401.795 674.401 399.884 674.401C397.974 674.401 397.337 668.669 397.337 668.669V651.475H402.432V668.669Z" fill="#0D242F"/>
<path d="M392.242 641.285H390.969V645.106H392.242V641.285Z" fill="#296F8E"/>
<path d="M401.158 642.559H398.61V645.106H401.158V642.559Z" fill="#296F8E"/>
<path d="M396.063 642.559H394.789V645.106H396.063V642.559Z" fill="#296F8E"/>
<path d="M404.979 642.559H403.705V645.106H404.979V642.559Z" fill="#296F8E"/>
<path d="M408.8 642.559H407.526V645.106H408.8V642.559Z" fill="#296F8E"/>
<path d="M408.8 641.285H390.969V642.559H408.8V641.285Z" fill="#296F8E"/>
<path d="M403.316 659.75C403.316 662.695 404.042 666.213 399.466 665.495C397.142 665.136 395.181 665.423 395.181 662.407C395.181 660.971 394.963 660.397 395.036 658.53C395.036 657.596 392.421 654.58 392.857 654.006C393.438 653.216 394.963 653.431 396.706 654.293C396.706 656.303 397.796 656.878 399.03 657.811C400.773 659.248 403.316 658.601 403.316 659.75Z" fill="#296F8E"/>
<path d="M403.706 668.031H396.063V671.852H403.706V668.031Z" fill="#0D242F"/>
<path d="M404.979 638.736H394.789V641.284H404.979V638.736Z" fill="#0D242F"/>
</g>
<rect opacity="0.6" width="540" height="960" fill="#163B4B"/>
</g>
<defs>
<linearGradient id="paint0_linear" x1="252.72" y1="23.04" x2="252.72" y2="842.88" gradientUnits="userSpaceOnUse">
<stop stop-color="#3F7494"/>
<stop offset="1" stop-color="#8EC9DC"/>
</linearGradient>
<linearGradient id="paint1_linear" x1="38" y1="603" x2="38" y2="677" gradientUnits="userSpaceOnUse">
<stop stop-color="white" stop-opacity="0.5"/>
<stop offset="1" stop-color="white" stop-opacity="0"/>
</linearGradient>
<linearGradient id="paint2_linear" x1="443.946" y1="615.161" x2="443.946" y2="461" gradientUnits="userSpaceOnUse">
<stop stop-color="white" stop-opacity="0"/>
<stop offset="1" stop-color="white" stop-opacity="0.7"/>
</linearGradient>
<linearGradient id="paint3_linear" x1="99.946" y1="797.161" x2="99.946" y2="643" gradientUnits="userSpaceOnUse">
<stop stop-color="white" stop-opacity="0"/>
<stop offset="1" stop-color="white" stop-opacity="0.7"/>
</linearGradient>
<linearGradient id="paint4_linear" x1="421.55" y1="669" x2="421.55" y2="731" gradientUnits="userSpaceOnUse">
<stop stop-color="white" stop-opacity="0.71"/>
<stop offset="1" stop-color="white" stop-opacity="0"/>
</linearGradient>
<linearGradient id="paint5_linear" x1="120" y1="1233" x2="158.306" y2="708.796" gradientUnits="userSpaceOnUse">
<stop stop-color="#951513"/>
<stop offset="0.651042" stop-color="#BE2A26"/>
<stop offset="1" stop-color="#D73F36"/>
</linearGradient>
<clipPath id="clip0">
<rect width="540" height="960" fill="white"/>
</clipPath>
<clipPath id="clip1">
<rect width="242" height="242" fill="white" transform="translate(312 626)"/>
</clipPath>
</defs>
</svg>
