<svg width="540" height="960" viewBox="0 0 540 960" fill="none" xmlns="http://www.w3.org/2000/svg">
<g clip-path="url(#clip0)">
<rect width="540" height="960" fill="url(#paint0_linear)"/>
<path d="M334 647C334 647 156.789 646.747 28.7778 646.747C-21.8572 646.747 -199 647 -199 647C-199 630.727 -72.0139 652.612 13.4028 607.719C43.3271 591.99 65.1539 631.086 94.8333 633.532C110.328 634.812 129.313 622.141 146.083 623.432C154.767 624.099 207.168 638.588 238.903 638.022C301.542 636.899 334 639.929 334 647Z" fill="url(#paint1_linear)"/>
<path d="M531.514 679.898C518.479 680.028 508.631 690.864 499.242 690.699C489.852 690.535 475.672 663 444.126 663C404.969 663 386.473 698.368 375.96 698.368C364.082 698.368 357.502 692.442 345.865 692.442C315.344 692.442 320.844 701.847 298 705.162C346.951 705.162 511.572 705.162 589.892 705.162C555.443 698.368 556.202 679.654 531.514 679.898Z" fill="url(#paint2_linear)"/>
<path d="M187.514 771.898C174.479 772.028 164.631 782.864 155.242 782.699C145.852 782.535 131.672 755 100.126 755C60.9688 755 42.4732 790.368 31.9596 790.368C20.0821 790.368 13.5023 784.442 1.86482 784.442C-28.6556 784.442 -23.156 793.847 -46 797.162C2.95056 797.162 167.572 797.162 245.892 797.162C211.443 790.368 212.202 771.654 187.514 771.898Z" fill="url(#paint3_linear)"/>
<path d="M569.1 541.04C569.1 541.04 544.747 541.278 447.333 541.278C408.801 541.278 274 541.473 274 541.473C274 528.907 406.167 542.773 431.733 531.94C455.497 521.869 475.015 529.184 497.6 531.073C509.391 532.061 525.572 514.043 538.333 515.04C556.2 516.435 569.1 537.101 569.1 541.04Z" fill="url(#paint4_linear)"/>
<g clip-path="url(#clip1)">
<path d="M441.79 663.895H415.158V848H441.79V663.895Z" fill="#B4B4B4"/>
<path d="M477.526 755.369C476.974 755.369 476.526 755.817 476.526 756.369V761.366H467.263V756.369C467.263 755.817 466.815 755.369 466.263 755.369H450.935C450.383 755.369 449.935 755.817 449.935 756.369V761.366H409.368V848.001H495.052V769.021V756.369C495.052 755.817 494.605 755.369 494.052 755.369H477.526Z" fill="#B4B4B4"/>
<path d="M495.052 779.684H409.368V783.157H495.052V779.684Z" fill="#707070"/>
<path fill-rule="evenodd" clip-rule="evenodd" d="M360.895 735.684H345.526C344.974 735.684 344.526 736.131 344.526 736.684V746.105V748.578V847.999H444.105V748.578V746.105V736.684C444.105 736.131 443.658 735.684 443.105 735.684H427.737C427.185 735.684 426.737 736.131 426.737 736.684V746.105H417.474V736.684C417.474 736.131 417.026 735.684 416.474 735.684H401.105C400.553 735.684 400.105 736.131 400.105 736.684V746.105H389.684V736.684C389.684 736.131 389.237 735.684 388.684 735.684H373.316C372.764 735.684 372.316 736.131 372.316 736.684V746.105H361.895V736.684C361.895 736.131 361.447 735.684 360.895 735.684Z" fill="#296F8E"/>
<path d="M439.474 647.684H417.474V663.894H439.474V647.684Z" fill="#B4B4B4"/>
<path d="M439.474 647.685H417.474L428.408 637.264L439.474 647.685Z" fill="#B4B4B4"/>
<path d="M444.105 751.895H344.526V755.368H444.105V751.895Z" fill="#1F576F"/>
<path d="M428.473 638.421C429.432 638.421 430.21 637.643 430.21 636.684C430.21 635.725 429.432 634.947 428.473 634.947C427.514 634.947 426.736 635.725 426.736 636.684C426.736 637.643 427.514 638.421 428.473 638.421Z" fill="#707070"/>
<path d="M428.473 634.948C429.432 634.948 430.21 634.171 430.21 633.211C430.21 632.252 429.432 631.475 428.473 631.475C427.514 631.475 426.736 632.252 426.736 633.211C426.736 634.171 427.514 634.948 428.473 634.948Z" fill="#707070"/>
<path d="M428.473 630.509C427.65 630.509 427.011 629.93 426.828 629.158C426.828 629.351 426.736 629.448 426.736 629.641C426.736 630.702 427.559 631.474 428.473 631.474C429.479 631.474 430.21 630.606 430.21 629.641C430.21 629.448 430.21 629.351 430.21 629.158C430.027 629.93 429.296 630.509 428.473 630.509Z" fill="#707070"/>
<path d="M488.106 764.633H484.632V772.738H488.106V764.633Z" fill="#707070"/>
<path d="M460.315 764.633H456.842V772.738H460.315V764.633Z" fill="#707070"/>
<path d="M436.605 719.727H433.582V728.652H436.605V719.727Z" fill="#707070"/>
<path d="M436.605 696.137H433.582V705.062H436.605V696.137Z" fill="#707070"/>
<path d="M468.421 808.633C461.316 808.633 455.685 817.395 455.685 828.317V848.001H481.158V828.317C481.158 817.522 475.527 808.633 468.421 808.633Z" fill="#707070"/>
<path d="M416.315 771.58C409.21 771.58 403.579 780.343 403.579 791.264V810.949H429.05V791.264C429.185 780.343 423.42 771.58 416.315 771.58Z" fill="#1F576F"/>
<path d="M436.605 672.529H433.582V681.455H436.605V672.529Z" fill="#707070"/>
<path d="M442.947 663.895H414V667.368H442.947V663.895Z" fill="#707070"/>
<path d="M442.947 685.895H414V688.21H442.947V685.895Z" fill="#707070"/>
<path d="M442.947 689.369H414V691.685H442.947V689.369Z" fill="#707070"/>
<path d="M442.947 707.895H414V710.21H442.947V707.895Z" fill="#707070"/>
<path d="M442.947 711.369H414V713.685H442.947V711.369Z" fill="#707070"/>
<path fill-rule="evenodd" clip-rule="evenodd" d="M433.685 658.105H424.421H423.263H416.316H415.158V659.263V663.895H416.316V659.263H423.263V663.895H424.421V659.263H433.685V663.895H434.842V659.263H440.632V663.895H441.79V659.263V658.105H440.632H434.842H433.685Z" fill="#707070"/>
<path fill-rule="evenodd" clip-rule="evenodd" d="M349.316 797.053H333.947C333.395 797.053 332.947 797.5 332.947 798.053V809.79V809.947V848H444.105V809.79H378.105V798.053C378.105 797.5 377.657 797.053 377.105 797.053H361.737C361.184 797.053 360.737 797.5 360.737 798.053V809.79H350.316V798.053C350.316 797.5 349.868 797.053 349.316 797.053Z" fill="#163B4B"/>
</g>
<path d="M-38 1239C222.126 1239 433 1150.13 433 1040.5C433 930.871 222.126 842 -38 842C-298.126 842 -509 930.871 -509 1040.5C-509 1150.13 -298.126 1239 -38 1239Z" fill="#296F8E"/>
<path d="M402 1239C662.126 1239 873 1150.13 873 1040.5C873 930.871 662.126 842 402 842C141.874 842 -69 930.871 -69 1040.5C-69 1150.13 141.874 1239 402 1239Z" fill="url(#paint5_linear)"/>
<rect opacity="0.6" width="540" height="960" fill="#323232"/>
</g>
<defs>
<linearGradient id="paint0_linear" x1="252.72" y1="-92.16" x2="252.72" y2="960" gradientUnits="userSpaceOnUse">
<stop stop-color="#7D7D7D"/>
<stop offset="1" stop-color="white"/>
</linearGradient>
<linearGradient id="paint1_linear" x1="68" y1="598" x2="68" y2="647" gradientUnits="userSpaceOnUse">
<stop stop-color="#CDCDCD"/>
<stop offset="1" stop-color="#CDCDCD" stop-opacity="0"/>
</linearGradient>
<linearGradient id="paint2_linear" x1="444" y1="725" x2="443.946" y2="551" gradientUnits="userSpaceOnUse">
<stop stop-color="#CDCDCD" stop-opacity="0"/>
<stop offset="1" stop-color="white"/>
</linearGradient>
<linearGradient id="paint3_linear" x1="100" y1="810" x2="100" y2="722" gradientUnits="userSpaceOnUse">
<stop stop-color="#CDCDCD" stop-opacity="0"/>
<stop offset="1" stop-color="white"/>
</linearGradient>
<linearGradient id="paint4_linear" x1="421.55" y1="479" x2="421.55" y2="541" gradientUnits="userSpaceOnUse">
<stop stop-color="white"/>
<stop offset="1" stop-color="#CDCDCD" stop-opacity="0"/>
</linearGradient>
<linearGradient id="paint5_linear" x1="112" y1="994" x2="281.665" y2="685.516" gradientUnits="userSpaceOnUse">
<stop stop-color="#293C4C"/>
<stop offset="0.498313" stop-color="#335267"/>
<stop offset="1" stop-color="#296F8E"/>
</linearGradient>
<clipPath id="clip0">
<rect width="540" height="960" fill="white"/>
</clipPath>
<clipPath id="clip1">
<rect width="220" height="220" fill="white" transform="translate(304 628)"/>
</clipPath>
</defs>
</svg>
