<svg width="540" height="960" viewBox="0 0 540 960" fill="none" xmlns="http://www.w3.org/2000/svg">
<g clip-path="url(#clip0)">
<rect width="540" height="960" fill="url(#paint0_linear)"/>
<path d="M334 647C334 647 156.789 646.747 28.7778 646.747C-21.8572 646.747 -199 647 -199 647C-199 630.727 -72.0139 652.612 13.4028 607.719C43.3271 591.99 65.1539 631.086 94.8333 633.532C110.328 634.812 129.313 622.141 146.083 623.432C154.767 624.099 207.168 638.588 238.903 638.022C301.542 636.899 334 639.929 334 647Z" fill="url(#paint1_linear)"/>
<path d="M531.514 679.898C518.479 680.028 508.631 690.864 499.242 690.699C489.852 690.535 475.672 663 444.126 663C404.969 663 386.473 698.368 375.96 698.368C364.082 698.368 357.502 692.442 345.865 692.442C315.344 692.442 320.844 701.847 298 705.162C346.951 705.162 511.572 705.162 589.892 705.162C555.443 698.368 556.202 679.654 531.514 679.898Z" fill="url(#paint2_linear)"/>
<path d="M187.514 771.898C174.479 772.028 164.631 782.864 155.242 782.699C145.852 782.535 131.672 755 100.126 755C60.9688 755 42.4732 790.368 31.9596 790.368C20.0821 790.368 13.5023 784.442 1.86482 784.442C-28.6556 784.442 -23.156 793.847 -46 797.162C2.95056 797.162 167.572 797.162 245.892 797.162C211.443 790.368 212.202 771.654 187.514 771.898Z" fill="url(#paint3_linear)"/>
<path d="M569.1 541.04C569.1 541.04 544.747 541.278 447.333 541.278C408.801 541.278 274 541.473 274 541.473C274 528.907 406.167 542.773 431.733 531.94C455.497 521.869 475.015 529.184 497.6 531.073C509.391 532.061 525.572 514.043 538.333 515.04C556.2 516.435 569.1 537.101 569.1 541.04Z" fill="url(#paint4_linear)"/>
<path d="M-38 1239C222.126 1239 433 1150.13 433 1040.5C433 930.871 222.126 842 -38 842C-298.126 842 -509 930.871 -509 1040.5C-509 1150.13 -298.126 1239 -38 1239Z" fill="#6C0000"/>
<path d="M402 1239C662.126 1239 873 1150.13 873 1040.5C873 930.871 662.126 842 402 842C141.874 842 -69 930.871 -69 1040.5C-69 1150.13 141.874 1239 402 1239Z" fill="url(#paint5_linear)"/>
<g clip-path="url(#clip1)">
<path d="M489.116 776.916H373.158V801.927H489.116V776.916Z" fill="#E99690"/>
<path d="M384.527 773.504H373.158V803.062H384.527V773.504Z" fill="#651E19"/>
<path d="M420.905 778.053H407.263V803.063H420.905V778.053Z" fill="#651E19"/>
<path d="M453.874 778.053H440.231V803.063H453.874V778.053Z" fill="#651E19"/>
<path d="M489.115 773.504H477.747V803.062H489.115V773.504Z" fill="#651E19"/>
<path d="M377.706 776.916H373.158V803.063H377.706V776.916Z" fill="#6C0000"/>
<path d="M489.116 776.916H484.568V803.063H489.116V776.916Z" fill="#6C0000"/>
<path d="M450.463 776.916H445.916V803.063H450.463V776.916Z" fill="#6C0000"/>
<path d="M415.221 776.916H410.674V803.063H415.221V776.916Z" fill="#6C0000"/>
<path d="M538 815.568H322V859.905H538V815.568Z" fill="#6C0000"/>
<path d="M478.884 806.473V810.452H474.337V806.473C474.337 806.132 474.109 805.904 473.768 805.904H466.379C466.038 805.904 465.811 806.132 465.811 806.473V810.452H461.263V806.473C461.263 806.132 461.036 805.904 460.695 805.904H453.305C452.964 805.904 452.737 806.132 452.737 806.473V810.452H448.189V806.473C448.189 806.132 447.962 805.904 447.621 805.904H440.232C439.891 805.904 439.663 806.132 439.663 806.473V810.452H435.116V806.473C435.116 806.132 434.888 805.904 434.547 805.904H427.158C426.817 805.904 426.589 806.132 426.589 806.473V810.452H422.042V806.473C422.042 806.132 421.815 805.904 421.474 805.904H414.084C413.743 805.904 413.516 806.132 413.516 806.473V810.452H408.968V806.473C408.968 806.132 408.741 805.904 408.4 805.904H401.011C400.669 805.904 400.442 806.132 400.442 806.473V810.452H395.895V806.473C395.895 806.132 395.667 805.904 395.326 805.904H387.937C387.596 805.904 387.368 806.132 387.368 806.473V810.452H382.821V806.473C382.821 806.132 382.594 805.904 382.253 805.904H374.863C374.522 805.904 374.295 806.132 374.295 806.473V810.452H369.747V806.473C369.747 806.132 369.52 805.904 369.179 805.904H361.789C361.448 805.904 361.221 806.132 361.221 806.473V810.452H356.674V806.473C356.674 806.132 356.446 805.904 356.105 805.904H349.284C348.943 805.904 348.716 806.132 348.716 806.473V810.452H345.305V806.473C345.305 806.132 345.078 805.904 344.737 805.904H336.211C335.869 805.904 335.642 806.132 335.642 806.473V810.452H331.095V806.473C331.095 806.132 330.867 805.904 330.526 805.904H322.568C322.227 805.904 322 806.132 322 806.473V816.136H490.253V806.473C490.253 806.132 490.025 805.904 489.684 805.904H479.453C479.112 805.904 478.884 806.132 478.884 806.473Z" fill="#6C0000"/>
<path d="M380.547 806.473V810.452H385.094V806.473C385.094 806.132 385.322 805.904 385.663 805.904H393.052C393.393 805.904 393.621 806.132 393.621 806.473V810.452H398.168V806.473C398.168 806.132 398.396 805.904 398.737 805.904H406.126C406.467 805.904 406.694 806.132 406.694 806.473V810.452H411.242V806.473C411.242 806.132 411.469 805.904 411.81 805.904H419.2C419.541 805.904 419.768 806.132 419.768 806.473V810.452H424.316V806.473C424.316 806.132 424.543 805.904 424.884 805.904H432.273C432.614 805.904 432.842 806.132 432.842 806.473V810.452H437.389V806.473C437.389 806.132 437.617 805.904 437.958 805.904H445.347C445.688 805.904 445.916 806.132 445.916 806.473V810.452H450.463V806.473C450.463 806.132 450.69 805.904 451.031 805.904H458.421C458.762 805.904 458.989 806.132 458.989 806.473V810.452H463.537V806.473C463.537 806.132 463.764 805.904 464.105 805.904H471.494C471.836 805.904 472.063 806.132 472.063 806.473V810.452H476.61V806.473C476.61 806.132 476.838 805.904 477.179 805.904H484.568C484.909 805.904 485.137 806.132 485.137 806.473V810.452H489.684V806.473C489.684 806.132 489.911 805.904 490.252 805.904H497.642C497.983 805.904 498.21 806.132 498.21 806.473V810.452H502.758V806.473C502.758 806.132 502.985 805.904 503.326 805.904H510.716C511.057 805.904 511.284 806.132 511.284 806.473V810.452H514.694V806.473C514.694 806.132 514.922 805.904 515.263 805.904H523.789C524.13 805.904 524.358 806.132 524.358 806.473V810.452H528.905V806.473C528.905 806.132 529.132 805.904 529.473 805.904H537.431C537.772 805.904 538 806.132 538 806.473V816.136H369.179V806.473C369.179 806.132 369.406 805.904 369.747 805.904H379.979C380.32 805.904 380.547 806.132 380.547 806.473Z" fill="#6C0000"/>
<path d="M527.768 869.567H332.231L343.6 809.314H516.4L527.768 869.567Z" fill="#A33029"/>
<path d="M430 840.01C421.814 840.01 415.221 846.603 415.221 854.789V870.704H444.779V854.789C444.779 846.603 438.185 840.01 430 840.01Z" fill="#6C0000"/>
<path d="M516.4 807.609H343.6V809.883H516.4V807.609Z" fill="#651E19"/>
<path d="M508.442 797.947V801.926H502.757V797.947C502.757 797.606 502.53 797.379 502.189 797.379H495.368C495.027 797.379 494.8 797.606 494.8 797.947V801.926H489.115V797.947C489.115 797.606 488.888 797.379 488.547 797.379H481.726C481.385 797.379 481.157 797.606 481.157 797.947V801.926H475.473V797.947C475.473 797.606 475.246 797.379 474.905 797.379H468.084C467.743 797.379 467.515 797.606 467.515 797.947V801.926H461.831V797.947C461.831 797.606 461.604 797.379 461.263 797.379H454.442C454.101 797.379 453.873 797.606 453.873 797.947V801.926H448.189V797.947C448.189 797.606 447.962 797.379 447.621 797.379H440.8C440.459 797.379 440.231 797.606 440.231 797.947V801.926H434.547V797.947C434.547 797.606 434.32 797.379 433.979 797.379H427.157C426.816 797.379 426.589 797.606 426.589 797.947V801.926H420.905V797.947C420.905 797.606 420.677 797.379 420.336 797.379L413.515 797.379C413.174 797.379 412.947 797.606 412.947 797.947V801.926H407.263V797.947C407.263 797.606 407.035 797.379 406.694 797.379H399.873C399.532 797.379 399.305 797.606 399.305 797.947V801.926H393.621V797.947C393.621 797.606 393.393 797.379 393.052 797.379H386.231C385.89 797.379 385.663 797.606 385.663 797.947V801.926H381.115V797.947C381.115 797.606 380.888 797.379 380.547 797.379H373.726C373.385 797.379 373.158 797.606 373.158 797.947V801.926H367.473V797.947C367.473 797.606 367.246 797.379 366.905 797.379H360.084C359.743 797.379 359.515 797.606 359.515 797.947V801.926H353.831V797.947C353.831 797.606 353.604 797.379 353.263 797.379H344.168C343.827 797.379 343.6 797.606 343.6 797.947V807.611H516.4V797.947C516.4 797.606 516.172 797.379 515.831 797.379H509.01C508.669 797.379 508.442 797.606 508.442 797.947Z" fill="#A33029"/>
<path d="M430.732 774.892C383.324 774.892 356.105 768.957 356.105 768.957C356.105 768.957 370.884 781.712 377.705 781.712C386.828 781.712 475.296 781.712 484.569 781.712C491.39 781.712 503.895 768.957 503.895 768.957C503.895 768.957 478.14 774.892 430.732 774.892Z" fill="#6C0000"/>
<path d="M503.895 768.957L502.758 767.82C486.842 771.231 475.474 770.094 475.474 770.094H384.527C384.527 770.094 372.021 771.231 357.242 767.82L356.105 768.957C356.105 768.957 383.324 775.879 430.881 775.879C478.439 775.879 503.895 768.957 503.895 768.957Z" fill="#651E19"/>
<path d="M475.474 743.947H384.526V770.095H475.474V743.947Z" fill="#E99690"/>
<path d="M401.579 750.768H390.211V770.094H401.579V750.768Z" fill="#A33029"/>
<path d="M469.789 750.768H458.421V770.094H469.789V750.768Z" fill="#A33029"/>
<path d="M415.221 750.768H403.853V770.094H415.221V750.768Z" fill="#A33029"/>
<path d="M430.225 742.38C387.453 742.38 362.927 735.949 362.927 735.949C362.927 735.949 378.792 747.358 384.476 747.358C392.851 747.358 467.198 747.358 475.424 747.358C481.108 747.358 497.074 735.989 497.074 735.989C497.074 735.989 472.997 742.38 430.225 742.38Z" fill="#6C0000"/>
<path d="M497.074 735.988L495.937 734.851C476.047 737.992 469.739 737.125 469.739 737.125H390.16C390.16 737.125 385.21 737.893 364.422 734.752L363.076 735.948C363.076 735.948 387.304 742.529 430.075 742.529C472.847 742.529 497.074 735.988 497.074 735.988Z" fill="#651E19"/>
<path d="M428.864 750.768H417.495V770.094H428.864V750.768Z" fill="#A33029"/>
<path d="M442.505 750.768H431.137V770.094H442.505V750.768Z" fill="#A33029"/>
<path d="M456.148 750.768H444.779V770.094H456.148V750.768Z" fill="#A33029"/>
<path d="M469.79 721.211H390.211V737.127H469.79V721.211Z" fill="#E99690"/>
<path d="M406.126 724.621H397.031V737.126H406.126V724.621Z" fill="#A33029"/>
<path d="M417.495 724.621H408.4V737.126H417.495V724.621Z" fill="#A33029"/>
<path d="M428.863 724.621H419.769V737.126H428.863V724.621Z" fill="#A33029"/>
<path d="M440.231 724.621H431.137V737.126H440.231V724.621Z" fill="#A33029"/>
<path d="M430 709.24C429.318 709.24 428.863 708.941 428.863 708.492V693.537C428.863 693.088 429.318 692.789 430 692.789C430.682 692.789 431.137 693.088 431.137 693.537V708.492C431.137 708.941 430.682 709.24 430 709.24Z" fill="#D6801C"/>
<path d="M432.411 703.021H427.59C427.038 703.021 426.59 703.469 426.59 704.021V704.295C426.59 704.847 427.038 705.295 427.59 705.295H432.411C432.963 705.295 433.411 704.847 433.411 704.295V704.021C433.411 703.469 432.963 703.021 432.411 703.021Z" fill="#D6801C"/>
<path d="M431.274 699.609H428.727C428.174 699.609 427.727 700.057 427.727 700.609V700.883C427.727 701.435 428.174 701.883 428.727 701.883H431.274C431.826 701.883 432.274 701.435 432.274 700.883V700.609C432.274 700.057 431.826 699.609 431.274 699.609Z" fill="#D6801C"/>
<path d="M431.274 696.199H428.727C428.174 696.199 427.727 696.647 427.727 697.199V697.473C427.727 698.025 428.174 698.473 428.727 698.473H431.274C431.826 698.473 432.274 698.025 432.274 697.473V697.199C432.274 696.647 431.826 696.199 431.274 696.199Z" fill="#D6801C"/>
<path d="M451.6 724.621H442.505V737.126H451.6V724.621Z" fill="#A33029"/>
<path d="M462.969 724.621H453.874V737.126H462.969V724.621Z" fill="#A33029"/>
<path d="M486.842 713.253L484.569 710.98C473.801 714.419 465.242 712.116 465.242 712.116L466.256 702.995C466.322 702.403 465.858 701.885 465.262 701.885H462.634C462.165 701.885 461.79 702.215 461.787 702.684C461.786 703.027 461.796 703.505 461.832 704.158C440.147 708.196 421.738 708.196 399.305 704.158V702.885C399.305 702.332 398.858 701.885 398.305 701.885H395.875C395.279 701.885 394.816 702.403 394.881 702.995L395.895 712.116C395.895 712.116 388.084 713.671 376.569 710.98L374.295 713.253C374.295 713.253 394.933 718.662 430.078 718.662C465.222 718.662 486.842 713.253 486.842 713.253Z" fill="#651E19"/>
<path d="M430.227 717.673C395.083 717.673 374.295 713.251 374.295 713.251L391.348 722.346H470.926L486.842 713.252C486.842 713.102 465.372 717.673 430.227 717.673Z" fill="#6C0000"/>
<path d="M434.684 720.074H425.315C424.763 720.074 424.315 720.522 424.315 721.074V724.758C424.315 725.311 424.763 725.758 425.315 725.758H434.684C435.236 725.758 435.684 725.311 435.684 724.758V721.074C435.684 720.522 435.236 720.074 434.684 720.074Z" fill="#F3B761"/>
</g>
<rect opacity="0.6" width="540" height="960" fill="#6C0000"/>
</g>
<defs>
<linearGradient id="paint0_linear" x1="252.72" y1="-65.28" x2="252.72" y2="1002.24" gradientUnits="userSpaceOnUse">
<stop stop-color="#D6801C"/>
<stop offset="1" stop-color="#F8C066"/>
</linearGradient>
<linearGradient id="paint1_linear" x1="68" y1="573" x2="68" y2="647" gradientUnits="userSpaceOnUse">
<stop stop-color="#FFE1A8"/>
<stop offset="1" stop-color="#FFE1A8" stop-opacity="0"/>
</linearGradient>
<linearGradient id="paint2_linear" x1="443.946" y1="705.161" x2="443.946" y2="551" gradientUnits="userSpaceOnUse">
<stop stop-color="#FFE1A8" stop-opacity="0"/>
<stop offset="1" stop-color="#FFE1A8"/>
</linearGradient>
<linearGradient id="paint3_linear" x1="99.946" y1="797.161" x2="99.946" y2="643" gradientUnits="userSpaceOnUse">
<stop stop-color="#FFE1A8" stop-opacity="0"/>
<stop offset="1" stop-color="#FFE1A8"/>
</linearGradient>
<linearGradient id="paint4_linear" x1="421.55" y1="479" x2="421.55" y2="541" gradientUnits="userSpaceOnUse">
<stop stop-color="#FFE1A8"/>
<stop offset="1" stop-color="#FFE1A8" stop-opacity="0"/>
</linearGradient>
<linearGradient id="paint5_linear" x1="621" y1="942" x2="351.721" y2="746.821" gradientUnits="userSpaceOnUse">
<stop stop-color="#6C0000"/>
<stop offset="0.651042" stop-color="#951513"/>
<stop offset="1" stop-color="#951513"/>
</linearGradient>
<clipPath id="clip0">
<rect width="540" height="960" fill="white"/>
</clipPath>
<clipPath id="clip1">
<rect width="216" height="216" fill="white" transform="translate(322 653)"/>
</clipPath>
</defs>
</svg>
