<svg width="380" height="181" fill="none" xmlns="http://www.w3.org/2000/svg">
  <mask id="a" mask-type="alpha" maskUnits="userSpaceOnUse" x="0" y="0" width="380" height="181">
    <path fill="#C4C4C4" d="M0 0h380v181H0z"/>
  </mask>
  <g mask="url(#a)">
    <path fill="url(#paint0_linear)" d="M0 0h380v181H0z"/>
    <path d="M303.285 154.218c-14.672-46.201-36.859-79.688-95.814-79.688 4.562-62.945-57.972-121.413-142.96-80.315C39.46-40.436-1.246-63-47.23-63-123.181-63-184.82-1.488-185 74.53v218.024l646.812.806c25.765-92.224-47.147-172.718-158.527-139.142z" fill="#fff"/>
    <path d="M150.274 204.257c.261-35.075 28.737-63.378 63.812-63.378 19.708 0 37.246 8.943 48.966 22.92 10.158-21.704 32.21-36.811 57.822-36.811 5.99 0 11.807.868 17.277 2.431 13.023-35.856 47.403-61.468 87.774-61.468 51.397 0 93.07 41.587 93.331 92.897v107.655H150.274v-64.246z" fill="#fff"/>
    <path d="M279.256 229.257c-.261-35.075-28.738-63.378-63.812-63.378-19.708 0-37.246 8.943-48.966 22.92-10.158-21.704-32.21-36.811-57.822-36.811-5.991 0-11.807.868-17.277 2.431-13.023-35.856-47.403-61.468-87.774-61.468-51.397 0-93.07 41.587-93.33 92.897v107.655h368.981v-64.246zM320.274 214.257c.261-35.075 28.737-63.378 63.812-63.378 19.708 0 37.246 8.943 48.966 22.92 10.158-21.704 32.21-36.811 57.822-36.811 5.99 0 11.807.868 17.277 2.431 13.023-35.856 47.403-61.468 87.774-61.468 51.397 0 93.07 41.587 93.331 92.897v107.655H320.274v-64.246z" fill="#F5F5F5"/>
    <path d="M372.788 41.654l-2.896-1.03-1.081-3.403A.324.324 0 00368.5 37a.324.324 0 00-.311.221l-1.081 3.404-2.896 1.03a.314.314 0 00-.212.292c0 .13.085.248.212.293l2.895 1.03 1.081 3.507a.324.324 0 00.312.223c.144 0 .271-.09.312-.224l1.082-3.507 2.894-1.029a.313.313 0 00.212-.293.314.314 0 00-.212-.293zM357.528 21.239l-6.434-2.265-2.403-7.487A.72.72 0 00348 11a.72.72 0 00-.691.487l-2.402 7.487-6.435 2.265a.69.69 0 00-.472.645.69.69 0 00.472.645l6.431 2.264 2.404 7.715A.72.72 0 00348 33c.32 0 .602-.2.693-.492l2.404-7.716 6.432-2.264a.69.69 0 00.471-.644.692.692 0 00-.472-.645z" fill="#fff"/>
  </g>
  <defs>
    <linearGradient id="paint0_linear" x1="190" y1="0" x2="190.102" y2="293.345" gradientUnits="userSpaceOnUse">
      <stop stop-color="#CFECF5"/>
      <stop offset="1" stop-color="#fff"/>
    </linearGradient>
  </defs>
</svg>
