<svg width="90" height="90" fill="none" xmlns="http://www.w3.org/2000/svg">
  <g clip-path="url(#clip0)">
    <path d="M48.505 75.856c10.05 0 18.198-8.147 18.198-18.198 0-10.05-8.147-18.197-18.198-18.197-10.05 0-18.197 8.147-18.197 18.197 0 10.05 8.147 18.198 18.197 18.198z" fill="#417A96"/>
    <path d="M30.697 61.414s-.162 6.476 2.299 10.233c2.46 3.755 5.569 6.508 8.386 6.378 1.36-.485 2.946-3.982 3.53-4.857-2.008-1.651-10.265-9.358-10.265-11.462 0-2.105-1.036-2.623-1.975-2.688-.94-.064-1.975 1.263-1.975 2.396zM66.735 58.824s.842 3.983 1.263 4.922c.421.939.648 1.36.648 1.36s-3.206 6.897-7.9 10.75c-3.368 2.752-4.437 2.428-5.052 1.943-1.263-1.004-3.497-5.408-3.497-5.408s5.666-2.137 9.455-6.184c3.788-4.048 5.083-7.383 5.083-7.383z" fill="#417A96"/>
    <path d="M63.109 47.038c-2.526 4.727-3.238 9.196-.68 10.556 2.525 1.36 5.893-1.846 8.419-6.573 2.525-4.728 4.403-9.973 1.845-11.333-2.558-1.36-7.091 2.622-9.584 7.35z" fill="#293C4C"/>
    <path d="M67.61 48.786c-4.534 2.85-7.383 6.347-5.861 8.775 1.522 2.429 6.055 1.328 10.588-1.49 4.533-2.849 8.775-6.443 7.285-8.871-1.554-2.429-7.447-1.23-12.013 1.586z" fill="#335267"/>
    <path d="M48.15 47.005c7.868 0 14.246-6.378 14.246-14.247 0-7.868-6.378-14.247-14.247-14.247-7.868 0-14.247 6.379-14.247 14.247 0 7.869 6.379 14.247 14.247 14.247z" fill="#417A96"/>
    <path d="M33.934 33.762c1.037 5.699 2.785 9.164-.809 14.15 3.011-1.975 8.904-2.882 15.996-3.011 6.864-.13 12.012 1.683 15.218 2.59-2.428-2.785-3.886-6.67-2.234-11.883-4.339 2.428-8.613 4.177-13.373 4.047-5.764-.13-12.79-4.177-14.797-5.893z" fill="#417A96"/>
    <path d="M55.467 39.882c-.81 5.245.907 22.828-13.794 22.212-4.792-.194-8.71-3.885-8.71-8.71 0-4.824 4.857-7.48 2.688-13.826-.907-3.173-2.98-2.947-4.21-5.699-.754-1.448 4.116-2.825 4.598-5.064 1.299-6.025 1.982-13.803 11.495-12.032 3.303.615 11.592 4.08 12.693 10.49 1.23 6.93-4.145 8.743-4.76 12.629z" fill="#fff"/>
    <path d="M60.874 28.938c0 5.375-3.302 9.163-8.71 9.163-5.375 0-6.897-6.897-13.21-9.002-7.707-2.46-3.077-14.376 8.094-12.628 6.023 1.198 13.826 5.99 13.826 12.467z" fill="#CFECF5"/>
    <path d="M48.505 30.524a3.317 3.317 0 003.303-3.303 3.317 3.317 0 00-3.303-3.302 3.317 3.317 0 00-3.302 3.302c.032 1.846 1.49 3.303 3.302 3.303z" fill="#161616"/>
    <path d="M47.275 27.48c.583 0 1.036-.453 1.036-1.036s-.453-1.036-1.036-1.036-1.036.453-1.036 1.036.453 1.036 1.036 1.036z" fill="#fff"/>
    <path d="M35.715 30.07c-4.565 1.36-11.592.713-15.671 1.426-3.595.647-14.992 3.205-13.373 5.407.388.55 10.232-4.242 26.616-1.036 2.04-.356 4.371-1.069 5.343-4.307.13-.453.226-1.068.356-1.554-.972-.453-2.072-.291-3.27.065z" fill="#F8C066"/>
    <path d="M15.64 14.399c-7.124 2.46-13.923 8.192-13.017 12.693.518 2.59 17-2.72 30.049 1.1 1.716.486 5.925 2.818 5.925 2.818 1.328-3.594 3.562-7.836 8.451-14.506C35.36 12.262 25.03 11.16 15.64 14.399z" fill="#F8C066"/>
    <path d="M15.575 26.962c-5.99.616-13.794 2.332-13.794 0 0-2.331 1.814-8.71 14.992-12.92-3.885 3.919-6.897 8.128-1.198 12.92z" fill="#854400"/>
    <path d="M38.694 28.517c-2.364.906-4.306-.389-6.41-.486-.228 0-2.462.291-4.89.55-9.585 1.037-14.053 3.886-18.165 5.829.097-.033 8.16-2.558 11.915-2.98 6.185-.712 15.09.292 17.55-2.913z" fill="#D6801C"/>
    <path d="M48.635 33.535c2.039 0 3.691-1 3.691-2.234s-1.652-2.234-3.691-2.234c-2.039 0-3.691 1-3.691 2.234s1.652 2.234 3.691 2.234z" fill="#CFECF5"/>
    <path d="M30.685 62.623s0 8.029 3.411 12.747c2.267 3.886 4.955 5.796 7.286 5.796 2.331 0 2.946-3.983 3.53-4.857-2.008-1.651-10.265-9.358-10.265-11.462 0-2.105-1.036-2.623-1.975-2.688-.907-.097-1.987-.702-1.987.464zM69.423 62.354s-1.846 9.066-9.617 16.384c-3.173 2.979-4.727 2.687-5.537 1.878-1.133-1.133-2.979-5.343-2.979-5.343s5.666-2.137 9.455-6.184c3.756-4.048 8.678-6.735 8.678-6.735zM58.543 59.245c5.375-3.594 1.975-13.956 4.792-12.984 3.433 1.198 8.452 7.641 5.537 14.247-1.23 2.785-8.257 4.792-10.329 4.63-3.626-.291-1.651-4.76 0-5.893zM35.165 43.347s-1.587 3.173-4.76 4.468c-1.748.745-2.364 2.364-2.364 2.364l5.02.777s2.363-5.278 2.622-6.865c.26-1.522-.518-.744-.518-.744z" fill="#417A96"/>
    <path opacity=".2" d="M62.17 45.322c1.198 1.23 2.201 3.173 4.112 6.217 1.198 1.91 1.457 8.16 1.392 11.753.324.972 1.62.972 1.62.972-1.944 1.619-5.181 4.21-10.362 4.21-4.76 0-8.743-4.534-7.674-9.553 1.327 0 6.314 1.328 6.314 1.328 3.432-1.587 2.622-7.642 2.622-7.642l1.976-7.285z" fill="#323232"/>
    <path d="M7.513 59.277l-3.66-.744A1.266 1.266 0 012.85 57.01l1.982-9.526 6.185 1.295-1.983 9.526c-.162.68-.841 1.133-1.521.971z" fill="#F8C066"/>
    <path opacity=".3" fill-rule="evenodd" clip-rule="evenodd" d="M10.756 50.03l-6.162-1.4.238-1.145 6.185 1.295-.26 1.25z" fill="#D6801C"/>
    <path d="M16.579 56.881l-3.66-.744a1.266 1.266 0 01-1.003-1.522l1.004-5.448 6.184 1.296-1.003 5.447c-.162.68-.842 1.133-1.522.971z" fill="#F8C066"/>
    <path opacity=".3" fill-rule="evenodd" clip-rule="evenodd" d="M18.883 51.667l-6.19-1.266.227-1.234 6.185 1.296-.223 1.204z" fill="#D6801C"/>
    <path d="M70.006 61.512L1.036 47.167a1.266 1.266 0 01-1.003-1.521L1.1 40.432c.162-.712.842-1.165 1.555-1.003l68.969 14.344-1.62 7.739z" fill="#F8C066"/>
    <path d="M80.756 47.556c-6.282-1.295-12.402 2.72-13.73 9.002-1.295 6.281 2.72 12.401 9.002 13.729 6.282 1.295 12.402-2.72 13.73-9.002 1.294-6.282-2.72-12.401-9.002-13.73zm3.076 12.498c-.615 2.98-3.562 4.922-6.541 4.307-2.979-.615-4.922-3.562-4.306-6.54.615-2.98 3.561-4.922 6.54-4.307a5.518 5.518 0 014.307 6.54z" fill="#F8C066"/>
    <path opacity=".2" d="M69.973 50.956a11.666 11.666 0 00-2.914 5.602 11.545 11.545 0 001.457 8.386c2.558-1.392 4.015-10.07 1.457-13.988z" fill="#323232"/>
    <path d="M22.764 41.5c-4.534 0-6.055 8.16-3.692 13.698 1.974 4.624 7.727 7.492 11.613 7.363 2.299-2.138 1.825-7.914 1.825-7.914l-.26-1s-1.845-.35-4.209-.868c-1.23-2.85-1.716-6.94-.518-8.137-.81-1.814-2.137-3.141-4.76-3.141zM62.17 43.994c1.198 1.23 4.112 3.724 6.022 6.767 2.3 3.66 3.886 16.06-9.293 16.06-4.76 0-6.379-2.46-7.123-3.95-.777-1.586-.518-5.277-.518-5.277l6.314 1.327c3.432-1.586 1.845-7.641 1.845-7.641l2.753-7.286z" fill="#417A96"/>
    <path opacity=".2" d="M28.06 52.779l29.476 6.139s-2.353.432-6.429 0c-4.076-.432-18.803-3.632-20.571-4.436-1.768-.803-2.475-1.703-2.475-1.703z" fill="#323232"/>
    <path d="M46.07 54.326c-.294 5.833 5.315 10.245 7.248 11.595a1.09 1.09 0 001.25-.022l4.452-3.403c.65-.473.534-1.458-.197-1.808-2.59-1.271-7.445-4.05-8.694-7.684-1.668-5.008-3.867-2.73-4.06 1.322z" fill="#951513"/>
    <path d="M45.489 52.797s-2.652 2.746-4.263 4.75c-2.546 3.139-4.332 6.43-3.49 7.567.843 1.138 3.354-.289 4.614.216 1.26.505 7.631 5.266 10.393 3.177 1.202-.943.339-6.986-.059-9.02-.397-2.035-2.696-5.452-2.696-5.452l-4.5-1.238z" fill="#BE2A26"/>
    <path d="M46.95 50.418c2.012-5.467 8.927-7.3 11.256-7.769.46-.107.924.116 1.162.54l2.752 4.89c.407.684-.071 1.549-.894 1.596-2.861.149-8.447.773-11.032 3.617-3.553 3.914-4.659.937-3.244-2.874z" fill="#951513"/>
    <path d="M46.173 51.156s-1.346-3.565-2.047-5.99c-1.121-3.865-1.45-7.58-.21-8.292 1.238-.713 2.957 1.561 4.308 1.603 1.35.043 9.27-.82 10.66 1.493.78 1.304-2.421 6.529-3.61 8.229-1.155 1.699-4.64 3.9-4.64 3.9l-4.46-.943z" fill="#BE2A26"/>
    <path d="M53.802 50.773l-1.343 6.564a1.208 1.208 0 01-1.44.96l-7.467-1.626a1.208 1.208 0 01-.96-1.441l1.344-6.564a1.208 1.208 0 011.44-.96l7.467 1.627c.675.137 1.097.765.96 1.44z" fill="#D73F36"/>
  </g>
  <defs>
    <clipPath id="clip0">
      <path fill="#fff" d="M0 0h90v90H0z"/>
    </clipPath>
  </defs>
</svg>
