<svg width="15" height="13" fill="none" xmlns="http://www.w3.org/2000/svg">
  <path d="M12.742 3.572a6.093 6.093 0 001.425-1.48 5.392 5.392 0 01-1.644.439 2.81 2.81 0 001.26-1.59 6.076 6.076 0 01-1.808.713A2.877 2.877 0 009.865.75 2.876 2.876 0 006.99 3.627c0 .219.027.438.082.657a8.346 8.346 0 01-5.945-3.013 2.798 2.798 0 00-.384 1.452A2.83 2.83 0 002.03 5.106C1.564 5.08 1.098 4.97.715 4.75v.027a2.88 2.88 0 002.3 2.822c-.218.055-.492.11-.739.11-.192 0-.356-.027-.548-.055a2.863 2.863 0 002.685 2 5.784 5.784 0 01-3.561 1.233c-.247 0-.466-.027-.685-.055 1.26.822 2.767 1.288 4.41 1.288 5.288 0 8.165-4.356 8.165-8.165v-.383z" fill="#fff"/>
</svg>
