<svg width="48" height="25" viewBox="0 0 48 25" fill="none" xmlns="http://www.w3.org/2000/svg">
<path d="M0.387665 4.55538C13.0596 1.78726 42.8535 -2.80505 47.4832 2.30043C48.5441 3.471 47.9078 5.12645 46.1583 7.04553C41.7076 13.2122 27.9753 19.9569 18.1433 24.6129L17.8698 24.7434C17.8155 24.7712 17.7475 24.7511 17.7162 24.6928C17.6873 24.6374 17.7056 24.5695 17.7629 24.5395L18.0287 24.4051C19.4961 23.4311 21.0008 22.462 22.4967 21.4987C28.4692 17.6523 34.2993 13.8976 37.0362 10.2846C37.0295 10.2802 37.0228 10.2758 37.016 10.2715C38.6754 8.11015 38.8867 6.40205 37.4521 4.9824C32.7549 0.322665 10.9208 2.91474 0.425122 4.78388L0.132953 4.84006C0.0692745 4.8513 0.0130871 4.8101 0.00184974 4.75016C-0.00938757 4.68649 0.0318165 4.6303 0.0917489 4.61906L0.387665 4.55538Z" fill="#CC2427"/>
</svg>
