<svg width="500" height="625" fill="none" xmlns="http://www.w3.org/2000/svg">
  <g clip-path="url(#clip0)">
    <path fill="url(#paint0_linear)" d="M0 0h500v625H0z"/>
    <path d="M568 342s-177.211-.253-305.222-.253C212.143 341.747 35 342 35 342c0-16.273 126.986 5.612 212.403-39.281 29.924-15.729 51.751 23.367 81.43 25.813 15.495 1.28 34.48-11.391 51.25-10.1 8.684.667 61.085 15.156 92.82 14.59C535.542 331.899 568 334.929 568 342z" fill="url(#paint1_linear)"/>
    <path d="M191.514 195.898c-13.035.13-22.883 10.966-32.272 10.801-9.39-.164-23.57-27.699-55.116-27.699-39.157 0-57.653 35.368-68.166 35.368-11.878 0-18.458-5.926-30.095-5.926-30.52 0-25.021 9.405-47.865 12.72h291.892c-34.449-6.794-33.69-25.508-58.378-25.264z" fill="url(#paint2_linear)"/>
    <path d="M167.514 436.898c-13.035.13-22.883 10.966-32.272 10.801-9.39-.164-23.57-27.699-55.116-27.699-39.157 0-57.653 35.368-68.166 35.368-11.878 0-18.458-5.926-30.095-5.926-30.52 0-25.021 9.405-47.865 12.72h291.892c-34.449-6.794-33.69-25.508-58.378-25.264z" fill="url(#paint3_linear)"/>
    <path d="M549.1 253.04s-24.353.238-121.767.238c-38.532 0-173.333.195-173.333.195 0-12.566 132.167 1.3 157.733-9.533 23.764-10.071 43.282-2.756 65.867-.867 11.791.988 27.972-17.03 40.733-16.033 17.867 1.395 30.767 22.061 30.767 26z" fill="url(#paint4_linear)"/>
    <path d="M459.37 459.316H324.633V513H459.37v-53.684z" fill="#854400"/>
    <path d="M459.37 473H324.633v6.316H459.37V473z" fill="#D6801C"/>
    <path d="M362.527 421.421h-21.052V513h21.052v-91.579zM443.58 421.421h-21.053V513h21.053v-91.579zM360.422 350.895H343.58v46.315h16.842v-46.315zM441.475 350.895h-16.842v46.315h16.842v-46.315zM359.37 327.737l-7.369-7.368-7.368 7.368v6.316h14.737v-6.316zM440.422 327.737l-7.368-7.368-7.368 7.368v6.316h14.736v-6.316zM364.632 403.526h-25.263v12.632h25.263v-12.632zM445.685 403.526h-25.263v12.632h25.263v-12.632zM364.632 417.21h-25.263l2.105 4.211h21.053l2.105-4.211zM445.685 417.21h-25.263l2.105 4.211h21.053l2.105-4.211z" fill="#F3B761"/>
    <path d="M426.737 430.895h-69.473V513h69.473v-82.105z" fill="#F5D8AF"/>
    <path d="M426.737 430.895h-69.473v10.526h69.473v-10.526zM413.053 455.105h-42.106V513h42.106v-57.895z" fill="#F3B761"/>
    <path d="M413.053 455.105h-42.106v4.211h42.106v-4.211z" fill="#D6801C"/>
    <path d="M352.527 313h-1.052v12.632h1.052V313zM433.58 313h-1.053v12.632h1.053V313z" fill="#F3B761"/>
    <path d="M383.579 463.526h-8.421v8.421h8.421v-8.421zM396.21 463.526h-8.421v8.421h8.421v-8.421zM408.843 463.526h-8.421v8.421h8.421v-8.421z" fill="#F5D8AF"/>
    <path d="M383.579 513h-8.421v-23.263s0-12.527 4.211-12.527c4.21 0 4.21 12.527 4.21 12.527V513zM354.105 451.947h-5.263v-12.315s0-6.632 2.564-6.632 2.564 6.632 2.564 6.632v12.315h.135zM435.158 451.947h-5.263v-12.315s0-6.632 2.564-6.632 2.564 6.632 2.564 6.632v12.315h.135zM354.105 485.631h-5.263v-12.315s0-6.632 2.564-6.632 2.564 6.632 2.564 6.632v12.315h.135zM435.158 485.631h-5.263v-12.315s0-6.632 2.564-6.632 2.564 6.632 2.564 6.632v12.315h.135zM352.982 359.316h-2.035v-2.737s0-1.474 1.053-1.474 1.053 1.474 1.053 1.474v2.737h-.071zM434.035 359.316H432v-2.737s0-1.474 1.053-1.474c1.052 0 1.052 1.474 1.052 1.474v2.737h-.07zM357.193 359.316h-2.035v-2.737s0-1.474 1.053-1.474c1.052 0 1.052 1.474 1.052 1.474v2.737h-.07zM438.246 359.316h-2.035v-2.737s0-1.474 1.053-1.474c1.052 0 1.052 1.474 1.052 1.474v2.737h-.07zM348.773 359.316h-2.035v-2.737s0-1.474 1.053-1.474 1.053 1.474 1.053 1.474v2.737h-.071zM429.824 359.316h-2.035v-2.737s0-1.474 1.053-1.474c1.052 0 1.052 1.474 1.052 1.474v2.737h-.07zM396.21 513h-8.421v-23.263s0-12.527 4.211-12.527c4.21 0 4.21 12.527 4.21 12.527V513zM408.843 513h-8.421v-23.263s0-12.527 4.21-12.527c4.211 0 4.211 12.527 4.211 12.527V513zM359.369 430.895h-2.105v10.526h2.105v-10.526zM426.738 430.895h-2.105v10.526h2.105v-10.526zM393.053 430.895h-2.106v10.526h2.106v-10.526zM376.211 430.895h-2.106v10.526h2.106v-10.526zM367.791 430.895h-2.105v10.526h2.105v-10.526zM384.633 430.895h-2.106v10.526h2.106v-10.526zM401.474 430.895h-2.105v10.526h2.105v-10.526zM418.316 430.895h-2.105v10.526h2.105v-10.526zM409.894 430.895h-2.105v10.526h2.105v-10.526z" fill="#D6801C"/>
    <path d="M426.737 430.895h-69.473V433h69.473v-2.105zM426.737 439.316h-69.473v2.105h69.473v-2.105z" fill="#D6801C"/>
    <path d="M361.475 336.158h-18.948v10.526h18.948v-10.526zM442.527 336.158H423.58v10.526h18.947v-10.526zM361.475 346.684h-18.948l1.053 4.211h16.842l1.053-4.211zM442.527 346.684H423.58l1.053 4.211h16.842l1.052-4.211z" fill="#F3B761"/>
    <path d="M366.737 403.526h-29.473l4.21-6.316h21.053l4.21 6.316zM447.79 403.526h-29.474l4.211-6.316h21.053l4.21 6.316zM364.632 415.105h-25.263v2.105h25.263v-2.105zM445.685 415.105h-25.263v2.105h25.263v-2.105zM341.474 403.526h-2.105v11.579h2.105v-11.579zM422.527 403.526h-2.105v11.579h2.105v-11.579zM364.633 403.526h-2.106v11.579h2.106v-11.579zM445.685 403.526h-2.105v11.579h2.105v-11.579zM347.791 403.526h-2.105v11.579h2.105v-11.579zM428.844 403.526h-2.106v11.579h2.106v-11.579zM358.316 403.526h-2.105v11.579h2.105v-11.579zM439.369 403.526h-2.105v11.579h2.105v-11.579zM363.58 336.158h-23.158l4.21-4.211h14.737l4.211 4.211zM444.632 336.158h-23.157l4.21-4.211h14.737l4.21 4.211zM425.685 336.158h-2.105v8.421h2.105v-8.421zM442.527 336.158h-2.105v8.421h2.105v-8.421zM430.947 336.158h-2.105v8.421h2.105v-8.421zM437.263 336.158h-2.105v8.421h2.105v-8.421zM361.475 344.579h-18.948v2.105h18.948v-2.105zM442.527 344.579H423.58v2.105h18.947v-2.105zM344.633 336.158h-2.106v8.421h2.106v-8.421zM361.474 336.158h-2.105v8.421h2.105v-8.421zM349.894 336.158h-2.105v8.421h2.105v-8.421zM356.211 336.158h-2.106v8.421h2.106v-8.421z" fill="#D6801C"/>
    <path d="M324.632 513h-27.368v-25.314l27.368-8.37V513zM459.37 513h27.368v-25.314l-27.368-8.37V513z" fill="#472600"/>
    <path d="M-48 904c260.126 0 471-88.872 471-198.5C423 595.871 212.126 507-48 507s-471 88.871-471 198.5C-519 815.128-308.126 904-48 904z" fill="#203D2C"/>
    <path d="M382 904c260.126 0 471-88.872 471-198.5C853 595.871 642.126 507 382 507S-89 595.871-89 705.5C-89 815.128 121.874 904 382 904z" fill="url(#paint5_linear)"/>
    <path opacity=".6" fill="#323232" d="M0 0h500v625H0z"/>
  </g>
  <defs>
    <linearGradient id="paint0_linear" x1="228" y1="-108.75" x2="228" y2="656.25" gradientUnits="userSpaceOnUse">
      <stop stop-color="#45835F"/>
      <stop offset="1" stop-color="#F8C066"/>
    </linearGradient>
    <linearGradient id="paint1_linear" x1="302" y1="268" x2="302" y2="342" gradientUnits="userSpaceOnUse">
      <stop stop-color="#fff" stop-opacity=".5"/>
      <stop offset="1" stop-color="#fff" stop-opacity="0"/>
    </linearGradient>
    <linearGradient id="paint2_linear" x1="103.946" y1="221.161" x2="103.946" y2="67" gradientUnits="userSpaceOnUse">
      <stop stop-color="#fff" stop-opacity="0"/>
      <stop offset="1" stop-color="#fff" stop-opacity=".7"/>
    </linearGradient>
    <linearGradient id="paint3_linear" x1="79.946" y1="462.161" x2="79.946" y2="308" gradientUnits="userSpaceOnUse">
      <stop stop-color="#fff" stop-opacity="0"/>
      <stop offset="1" stop-color="#fff" stop-opacity=".7"/>
    </linearGradient>
    <linearGradient id="paint4_linear" x1="401.55" y1="191" x2="401.55" y2="253" gradientUnits="userSpaceOnUse">
      <stop stop-color="#fff" stop-opacity=".71"/>
      <stop offset="1" stop-color="#fff" stop-opacity="0"/>
    </linearGradient>
    <linearGradient id="paint5_linear" x1="100" y1="898" x2="138.306" y2="373.796" gradientUnits="userSpaceOnUse">
      <stop stop-color="#214D2E"/>
      <stop offset=".651" stop-color="#286442"/>
      <stop offset="1" stop-color="#52A078"/>
    </linearGradient>
    <clipPath id="clip0">
      <path fill="#fff" d="M0 0h500v625H0z"/>
    </clipPath>
  </defs>
</svg>
