<svg width="1440" height="480" fill="none" xmlns="http://www.w3.org/2000/svg">
  <g clip-path="url(#clip0)">
    <path d="M0 0h1440v480H0V0z" fill="url(#paint0_linear)"/>
    <path d="M534 178s-252.019-.358-434.068-.358C27.922 177.642-224 178-224 178c0-23.086 180.592 7.961 302.066-55.724 42.557-22.313 73.598 33.148 115.806 36.619 22.035 1.815 49.035-16.16 72.884-14.329 12.35.947 86.871 21.501 132.003 20.697C487.84 163.671 534 167.97 534 178z" fill="url(#paint1_linear)"/>
    <path d="M1021.51 81.898c-13.03.13-22.879 10.966-32.268 10.801-9.39-.164-23.57-27.699-55.116-27.699-39.157 0-57.653 35.368-68.166 35.368-11.878 0-18.458-5.926-30.095-5.926-30.521 0-25.021 9.405-47.865 12.72h291.89c-34.45-6.794-33.69-25.508-58.38-25.264z" fill="url(#paint2_linear)"/>
    <path d="M1127.51 323.898c-13.03.13-22.88 10.966-32.27 10.801-9.39-.164-23.57-27.699-55.11-27.699-39.16 0-57.657 35.368-68.17 35.368-11.878 0-18.458-5.926-30.095-5.926-30.521 0-25.021 9.405-47.865 12.72h291.89c-34.45-6.794-33.69-25.508-58.38-25.264z" fill="url(#paint3_linear)"/>
    <path d="M1419.1 313.04s-24.35.238-121.77.238c-38.53 0-173.33.195-173.33.195 0-12.566 132.17 1.3 157.73-9.533 23.77-10.071 43.28-2.756 65.87-.867 11.79.988 27.97-17.03 40.73-16.033 17.87 1.395 30.77 22.061 30.77 26z" fill="url(#paint4_linear)"/>
    <path d="M1343.95 327.526h-181.9V400h181.9v-72.474z" fill="#854400"/>
    <path d="M1343.95 346h-181.9v8.526h181.9V346z" fill="#D6801C"/>
    <path d="M1213.21 276.369h-28.42V400h28.42V276.369zM1322.63 276.369h-28.42V400h28.42V276.369zM1210.37 181.158h-22.74v62.526h22.74v-62.526zM1319.79 181.158h-22.74v62.526h22.74v-62.526zM1208.95 149.895l-9.95-9.948-9.95 9.948v8.526h19.9v-8.526zM1318.37 149.895l-9.95-9.948-9.95 9.948v8.526h19.9v-8.526zM1216.05 252.21h-34.1v17.053h34.1V252.21zM1325.47 252.21h-34.1v17.053h34.1V252.21zM1216.05 270.684h-34.1l2.84 5.684h28.42l2.84-5.684zM1325.47 270.684h-34.1l2.84 5.684h28.42l2.84-5.684z" fill="#F3B761"/>
    <path d="M1299.89 289.158h-93.78V400h93.78V289.158z" fill="#F5D8AF"/>
    <path d="M1299.89 289.158h-93.78v14.21h93.78v-14.21zM1281.42 321.842h-56.84V400h56.84v-78.158z" fill="#F3B761"/>
    <path d="M1281.42 321.842h-56.84v5.685h56.84v-5.685z" fill="#D6801C"/>
    <path d="M1199.71 130h-1.42v17.053h1.42V130zM1309.13 130h-1.42v17.053h1.42V130z" fill="#F3B761"/>
    <path d="M1241.63 333.21h-11.37v11.369h11.37V333.21zM1258.68 333.21h-11.36v11.369h11.36V333.21zM1275.74 333.21h-11.37v11.369h11.37V333.21z" fill="#F5D8AF"/>
    <path d="M1241.63 400h-11.37v-31.405s0-16.911 5.69-16.911c5.68 0 5.68 16.911 5.68 16.911V400zM1201.84 317.579h-7.1v-16.626s0-8.953 3.46-8.953 3.46 8.953 3.46 8.953v16.626h.18zM1311.26 317.579h-7.1v-16.626s0-8.953 3.46-8.953 3.46 8.953 3.46 8.953v16.626h.18zM1201.84 363.053h-7.1v-16.627s0-8.952 3.46-8.952 3.46 8.952 3.46 8.952v16.627h.18zM1311.26 363.053h-7.1v-16.627s0-8.952 3.46-8.952 3.46 8.952 3.46 8.952v16.627h.18zM1200.33 192.526h-2.75v-3.694s0-1.99 1.42-1.99 1.42 1.99 1.42 1.99v3.694h-.09zM1309.75 192.526H1307v-3.694s0-1.99 1.42-1.99 1.42 1.99 1.42 1.99v3.694h-.09zM1206.01 192.526h-2.75v-3.694s0-1.99 1.42-1.99c1.43 0 1.43 1.99 1.43 1.99v3.694h-.1zM1315.43 192.526h-2.75v-3.694s0-1.99 1.42-1.99c1.43 0 1.43 1.99 1.43 1.99v3.694h-.1zM1194.64 192.526h-2.75v-3.694s0-1.99 1.43-1.99c1.42 0 1.42 1.99 1.42 1.99v3.694h-.1zM1304.06 192.526h-2.74v-3.694s0-1.99 1.42-1.99 1.42 1.99 1.42 1.99v3.694h-.1zM1258.68 400h-11.36v-31.405s0-16.911 5.68-16.911 5.68 16.911 5.68 16.911V400zM1275.74 400h-11.37v-31.405s0-16.911 5.68-16.911c5.69 0 5.69 16.911 5.69 16.911V400zM1208.95 289.158h-2.84v14.21h2.84v-14.21zM1299.89 289.158h-2.84v14.21h2.84v-14.21zM1254.42 289.158h-2.84v14.21h2.84v-14.21zM1231.68 289.158h-2.84v14.21h2.84v-14.21zM1220.32 289.158h-2.85v14.21h2.85v-14.21zM1243.05 289.158h-2.84v14.21h2.84v-14.21zM1265.79 289.158h-2.84v14.21h2.84v-14.21zM1288.53 289.158h-2.85v14.21h2.85v-14.21zM1277.16 289.158h-2.84v14.21h2.84v-14.21z" fill="#D6801C"/>
    <path d="M1299.89 289.158h-93.78V292h93.78v-2.842zM1299.89 300.526h-93.78v2.842h93.78v-2.842z" fill="#D6801C"/>
    <path d="M1211.79 161.263h-25.58v14.211h25.58v-14.211zM1321.21 161.263h-25.58v14.211h25.58v-14.211z" fill="#F3B761"/>
    <path d="M1211.79 175.474h-25.58l1.42 5.684h22.74l1.42-5.684zM1321.21 175.474h-25.58l1.42 5.684h22.74l1.42-5.684z" fill="#F3B761"/>
    <path d="M1218.89 252.211h-39.78l5.68-8.526h28.42l5.68 8.526zM1328.32 252.211h-39.79l5.68-8.526h28.42l5.69 8.526zM1216.05 267.842h-34.1v2.842h34.1v-2.842zM1325.47 267.842h-34.1v2.842h34.1v-2.842z" fill="#D6801C"/>
    <path d="M1184.79 252.21h-2.84v15.632h2.84V252.21zM1294.21 252.21h-2.84v15.632h2.84V252.21zM1216.05 252.21h-2.84v15.632h2.84V252.21zM1325.47 252.21h-2.84v15.632h2.84V252.21zM1193.32 252.21h-2.85v15.632h2.85V252.21zM1302.74 252.21h-2.85v15.632h2.85V252.21zM1207.53 252.21h-2.85v15.632h2.85V252.21zM1316.95 252.21h-2.84v15.632h2.84V252.21zM1214.63 161.263h-31.26l5.68-5.684h19.9l5.68 5.684zM1324.05 161.263h-31.26l5.68-5.684h19.9l5.68 5.684zM1298.47 161.263h-2.84v11.369h2.84v-11.369zM1321.21 161.263h-2.84v11.369h2.84v-11.369zM1305.58 161.263h-2.84v11.369h2.84v-11.369zM1314.11 161.263h-2.85v11.369h2.85v-11.369zM1211.79 172.632h-25.58v2.842h25.58v-2.842zM1321.21 172.632h-25.58v2.842h25.58v-2.842zM1189.05 161.263h-2.84v11.369h2.84v-11.369zM1211.79 161.263h-2.84v11.369h2.84v-11.369zM1196.16 161.263h-2.84v11.369h2.84v-11.369zM1204.68 161.263h-2.84v11.369h2.84v-11.369z" fill="#D6801C"/>
    <path d="M1162.05 400h-36.94v-34.174l36.94-11.3V400zM1343.95 400h36.94v-34.174l-36.94-11.3V400z" fill="#472600"/>
    <path d="M723 846c332.48 0 602-113.496 602-253.5 0-140.004-269.52-253.5-602-253.5-332.475 0-602 113.496-602 253.5C121 732.504 390.525 846 723 846z" fill="#203D2C"/>
    <path d="M1252 781c260.13 0 471-88.872 471-198.5 0-109.629-210.87-198.5-471-198.5-260.126 0-471 88.871-471 198.5C781 692.128 991.874 781 1252 781z" fill="url(#paint5_linear)"/>
    <path d="M99 788c276.695 0 501-94.692 501-211.5S375.695 365 99 365s-501 94.692-501 211.5S-177.695 788 99 788z" fill="url(#paint6_linear)"/>
    <path d="M822 77.894c5.523 0 10-4.712 10-10.526 0-5.813-4.477-10.526-10-10.526s-10 4.713-10 10.526c0 5.814 4.477 10.526 10 10.526zM351.306 451.246c9.413 0 9.436-15.408 0-15.408-9.413 0-9.435 15.408 0 15.408z" fill="#45835F"/>
    <path d="M304.664 268.766c16.865 0 16.906-26.661 0-26.661-16.865 0-16.906 26.661 0 26.661zM381.983 327.774c7.972 0 7.983-13.037 0-13.037-7.972 0-7.983 13.037 0 13.037z" fill="#B1D6BF"/>
    <path d="M999.983 151.985c7.967 0 7.987-13.038 0-13.038-7.972 0-7.983 13.038 0 13.038zM90.72 220.668c11.616 0 11.633-18.356 0-18.356-11.618 0-11.635 18.356 0 18.356z" fill="#45835F"/>
    <path d="M551.862 43.853c6.656 0 6.656-10.88 0-10.88-6.636 0-6.657 10.88 0 10.88zM394.393 420.211c1.657 0 3.239-1.533 3.163-3.333-.076-1.806-1.392-3.333-3.163-3.333-1.658 0-3.24 1.533-3.164 3.333.076 1.806 1.392 3.333 3.164 3.333zM1320.01 30.526c26.62 0 26.68-42.105 0-42.105s-26.68 42.105 0 42.105zM166.008 327.368c18.635 0 18.677-29.473 0-29.473s-18.677 29.473 0 29.473z" fill="#B1D6BF"/>
    <path d="M1367.72 235.789c10.29 0 10.31-16.842 0-16.842-10.28 0-10.31 16.842 0 16.842z" fill="#45835F"/>
    <path d="M1059 408.421c11.99 0 12.01-18.947 0-18.947-11.99 0-12.01 18.947 0 18.947z" fill="#B1D6BF"/>
    <path d="M1396.01 289.474c13.31 0 13.34-21.053 0-21.053-13.35 0-13.35 21.053 0 21.053z" fill="#45835F"/>
    <path opacity=".6" fill="#323232" d="M0-177h1440v750H0z"/>
    <path d="M367.443 115.299c0-14.563 12.155-22.724 12.155-22.724-10.236 0-12.155-26.26-12.155-26.26h-.288s-1.919 26.26-12.155 26.26c0 0 12.443 6.268 12.443 20.83v1.894zM951.222 451.579c0-22.532 18.778-35.16 18.778-35.16-15.813 0-18.778-40.629-18.778-40.629h-.444s-2.965 40.629-18.778 40.629c0 0 19.222 9.698 19.222 32.23v2.93zM304.718 67.23c0-9.034 7.537-14.096 7.537-14.096-6.35 0-7.537-16.292-7.537-16.292h-.18S303.344 53.134 297 53.134c0 0 7.718 3.889 7.718 12.921v1.174zM242.718 330.387c0-9.033 7.537-14.095 7.537-14.095-6.35 0-7.537-16.292-7.537-16.292h-.18s-1.194 16.292-7.538 16.292c0 0 7.718 3.888 7.718 12.921v1.174zM1018.17 107.369c0-16.584 13.83-25.879 13.83-25.879-11.66 0-13.83-29.91-13.83-29.91h-.34s-2.19 29.91-13.83 29.91c0 0 14.17 7.14 14.17 23.723v2.156zM1070.07 128.421c0-7.196 5.93-11.23 5.93-11.23-5 0-5.93-12.98-5.93-12.98h-.14s-.94 12.98-5.93 12.98c0 0 6.07 3.098 6.07 10.295v.935z" fill="#F3B761"/>
  </g>
  <defs>
    <linearGradient id="paint0_linear" x1="-286" y1="317.895" x2="1734" y2="317.895" gradientUnits="userSpaceOnUse">
      <stop stop-color="#45835F"/>
      <stop offset="1" stop-color="#F8C066"/>
    </linearGradient>
    <linearGradient id="paint1_linear" x1="155.711" y1="73.023" x2="155.711" y2="178" gradientUnits="userSpaceOnUse">
      <stop stop-color="#fff" stop-opacity=".5"/>
      <stop offset="1" stop-color="#fff" stop-opacity="0"/>
    </linearGradient>
    <linearGradient id="paint2_linear" x1="933.946" y1="107.161" x2="933.946" y2="-47" gradientUnits="userSpaceOnUse">
      <stop stop-color="#fff" stop-opacity="0"/>
      <stop offset="1" stop-color="#fff" stop-opacity=".7"/>
    </linearGradient>
    <linearGradient id="paint3_linear" x1="1039.95" y1="349.161" x2="1039.95" y2="195" gradientUnits="userSpaceOnUse">
      <stop stop-color="#fff" stop-opacity="0"/>
      <stop offset="1" stop-color="#fff" stop-opacity=".7"/>
    </linearGradient>
    <linearGradient id="paint4_linear" x1="1271.55" y1="251" x2="1271.55" y2="313" gradientUnits="userSpaceOnUse">
      <stop stop-color="#fff" stop-opacity=".71"/>
      <stop offset="1" stop-color="#fff" stop-opacity="0"/>
    </linearGradient>
    <linearGradient id="paint5_linear" x1="970" y1="775" x2="995.332" y2="239.268" gradientUnits="userSpaceOnUse">
      <stop stop-color="#214D2E"/>
      <stop offset=".651" stop-color="#286442"/>
      <stop offset="1" stop-color="#45835F"/>
    </linearGradient>
    <linearGradient id="paint6_linear" x1="-200.962" y1="781.607" x2="602.069" y2="404.971" gradientUnits="userSpaceOnUse">
      <stop stop-color="#214D2E"/>
      <stop offset=".651" stop-color="#286442"/>
      <stop offset="1" stop-color="#45835F"/>
    </linearGradient>
    <clipPath id="clip0">
      <path fill="#fff" d="M0 0h1440v480H0z"/>
    </clipPath>
  </defs>
</svg>
