<svg width="1440" height="480" fill="none" xmlns="http://www.w3.org/2000/svg">
  <g clip-path="url(#clip0)">
    <path d="M0 0h1440v480H0V0z" fill="url(#paint0_linear)"/>
    <path d="M534 178s-252.019-.358-434.068-.358C27.922 177.642-224 178-224 178c0-23.086 180.592 7.961 302.066-55.724 42.557-22.313 73.598 33.148 115.806 36.619 22.035 1.815 49.035-16.16 72.884-14.329 12.35.947 86.871 21.501 132.003 20.697C487.84 163.671 534 167.97 534 178z" fill="url(#paint1_linear)"/>
    <path d="M1021.51 81.898c-13.03.13-22.879 10.966-32.268 10.801-9.39-.164-23.57-27.699-55.116-27.699-39.157 0-57.653 35.368-68.166 35.368-11.878 0-18.458-5.926-30.095-5.926-30.521 0-25.021 9.405-47.865 12.72h291.89c-34.45-6.794-33.69-25.508-58.38-25.264z" fill="url(#paint2_linear)"/>
    <path d="M1127.51 323.898c-13.03.13-22.88 10.966-32.27 10.801-9.39-.164-23.57-27.699-55.11-27.699-39.16 0-57.657 35.368-68.17 35.368-11.878 0-18.458-5.926-30.095-5.926-30.521 0-25.021 9.405-47.865 12.72h291.89c-34.45-6.794-33.69-25.508-58.38-25.264z" fill="url(#paint3_linear)"/>
    <path d="M1419.1 313.04s-24.35.238-121.77.238c-38.53 0-173.33.195-173.33.195 0-12.566 132.17 1.3 157.73-9.533 23.77-10.071 43.28-2.756 65.87-.867 11.79.988 27.97-17.03 40.73-16.033 17.87 1.395 30.77 22.061 30.77 26z" fill="url(#paint4_linear)"/>
    <path d="M723 846c332.48 0 602-113.496 602-253.5 0-140.004-269.52-253.5-602-253.5-332.475 0-602 113.496-602 253.5C121 732.504 390.525 846 723 846z" fill="#6C0000"/>
    <path d="M1252 781c260.13 0 471-88.872 471-198.5 0-109.629-210.87-198.5-471-198.5-260.126 0-471 88.871-471 198.5C781 692.128 991.874 781 1252 781z" fill="url(#paint5_linear)"/>
    <path d="M99 788c276.695 0 501-94.692 501-211.5S375.695 365 99 365s-501 94.692-501 211.5S-177.695 788 99 788z" fill="url(#paint6_linear)"/>
    <g clip-path="url(#clip1)">
      <path d="M1334.58 280.579h-171.79v37.052h171.79v-37.052z" fill="#E99690"/>
      <path d="M1179.63 275.526h-16.84v43.79h16.84v-43.79zM1233.53 282.263h-20.21v37.053h20.21v-37.053zM1282.37 282.263h-20.21v37.053h20.21v-37.053zM1334.58 275.526h-16.84v43.79h16.84v-43.79z" fill="#651E19"/>
      <path d="M1169.53 280.579h-6.74v38.736h6.74v-38.736zM1334.58 280.579h-6.74v38.736h6.74v-38.736zM1277.31 280.579h-6.73v38.736h6.73v-38.736zM1225.11 280.579h-6.74v38.736h6.74v-38.736zM1407 337.842h-320v65.684h320v-65.684z" fill="#6C0000"/>
      <path d="M1319.42 324.368v5.895h-6.74v-5.895c0-.505-.33-.842-.84-.842h-10.95c-.5 0-.84.337-.84.842v5.895h-6.73v-5.895c0-.505-.34-.842-.85-.842h-10.94c-.51 0-.85.337-.85.842v5.895h-6.73v-5.895c0-.505-.34-.842-.84-.842h-10.95c-.51 0-.84.337-.84.842v5.895h-6.74v-5.895c0-.505-.34-.842-.84-.842h-10.95c-.51 0-.84.337-.84.842v5.895h-6.74v-5.895c0-.505-.34-.842-.84-.842h-10.95c-.5 0-.84.337-.84.842v5.895h-6.74v-5.895c0-.505-.33-.842-.84-.842h-10.95c-.5 0-.84.337-.84.842v5.895h-6.74v-5.895c0-.505-.33-.842-.84-.842h-10.95c-.5 0-.84.337-.84.842v5.895h-6.73v-5.895c0-.505-.34-.842-.85-.842h-10.94c-.51 0-.85.337-.85.842v5.895h-6.73v-5.895c0-.505-.34-.842-.85-.842h-10.94c-.51 0-.84.337-.84.842v5.895h-6.74v-5.895c0-.505-.34-.842-.84-.842h-10.11c-.5 0-.84.337-.84.842v5.895h-5.05v-5.895c0-.505-.34-.842-.85-.842h-12.63c-.5 0-.84.337-.84.842v5.895h-6.74v-5.895c0-.505-.33-.842-.84-.842h-11.79c-.5 0-.84.337-.84.842v14.316h249.26v-14.316c0-.505-.33-.842-.84-.842h-15.16c-.5 0-.84.337-.84.842z" fill="#6C0000"/>
      <path d="M1173.74 324.368v5.895h6.73v-5.895c0-.505.34-.842.85-.842h10.94c.51 0 .85.337.85.842v5.895h6.73v-5.895c0-.505.34-.842.84-.842h10.95c.51 0 .84.337.84.842v5.895h6.74v-5.895c0-.505.34-.842.84-.842H1231c.51 0 .84.337.84.842v5.895h6.74v-5.895c0-.505.34-.842.84-.842h10.95c.5 0 .84.337.84.842v5.895h6.74v-5.895c0-.505.33-.842.84-.842h10.95c.5 0 .84.337.84.842v5.895h6.74v-5.895c0-.505.33-.842.84-.842h10.95c.5 0 .84.337.84.842v5.895h6.73v-5.895c0-.505.34-.842.85-.842h10.94c.51 0 .85.337.85.842v5.895h6.73v-5.895c0-.505.34-.842.84-.842h10.95c.51 0 .84.337.84.842v5.895h6.74v-5.895c0-.505.34-.842.84-.842h10.95c.51 0 .84.337.84.842v5.895h6.74v-5.895c0-.505.34-.842.84-.842h10.95c.5 0 .84.337.84.842v5.895h5.05v-5.895c0-.505.34-.842.85-.842h12.63c.5 0 .84.337.84.842v5.895h6.74v-5.895c0-.505.33-.842.84-.842h11.79c.5 0 .84.337.84.842v14.316h-250.11v-14.316c0-.505.34-.842.85-.842h15.15c.51 0 .85.337.85.842z" fill="#6C0000"/>
      <path d="M1391.84 417.842h-289.68l16.84-89.263h256l16.84 89.263z" fill="#A33029"/>
      <path d="M1247 374.053a21.844 21.844 0 00-21.89 21.894v23.579h43.78v-23.579a21.844 21.844 0 00-21.89-21.894z" fill="#6C0000"/>
      <path d="M1375 326.053h-256v3.368h256v-3.368z" fill="#651E19"/>
      <path d="M1363.21 311.737v5.894h-8.42v-5.894c0-.506-.34-.842-.84-.842h-10.11c-.5 0-.84.336-.84.842v5.894h-8.42v-5.894c0-.506-.34-.842-.84-.842h-10.11c-.5 0-.84.336-.84.842v5.894h-8.42v-5.894c0-.506-.34-.842-.84-.842h-10.11c-.5 0-.84.336-.84.842v5.894h-8.42v-5.894c0-.506-.34-.842-.84-.842h-10.11c-.5 0-.84.336-.84.842v5.894h-8.42v-5.894c0-.506-.34-.842-.84-.842H1263c-.51 0-.84.336-.84.842v5.894h-8.42v-5.894c0-.506-.34-.842-.85-.842h-10.1c-.51 0-.84.336-.84.842v5.894h-8.42v-5.894c0-.506-.34-.842-.85-.842h-10.1c-.51 0-.84.336-.84.842v5.894h-8.42v-5.894c0-.506-.34-.842-.85-.842h-10.1c-.51 0-.84.336-.84.842v5.894h-8.42v-5.894c0-.506-.34-.842-.85-.842h-10.1c-.51 0-.84.336-.84.842v5.894h-6.74v-5.894c0-.506-.34-.842-.84-.842h-10.11c-.5 0-.84.336-.84.842v5.894h-8.42v-5.894c0-.506-.34-.842-.84-.842h-10.11c-.5 0-.84.336-.84.842v5.894h-8.42v-5.894c0-.506-.34-.842-.84-.842h-13.48c-.5 0-.84.336-.84.842v14.315h256v-14.315c0-.506-.34-.842-.84-.842h-10.11c-.5 0-.84.336-.84.842z" fill="#A33029"/>
      <path d="M1248.08 277.582c-70.23 0-110.55-8.792-110.55-8.792s21.89 18.895 32 18.895h158.31c10.11 0 28.63-18.895 28.63-18.895s-38.15 8.792-108.39 8.792z" fill="#6C0000"/>
      <path d="M1356.47 268.789l-1.68-1.684c-23.58 5.053-40.42 3.368-40.42 3.368h-134.74s-18.53 1.685-40.42-3.368l-1.68 1.684s40.32 10.255 110.77 10.255c70.46 0 108.17-10.255 108.17-10.255z" fill="#651E19"/>
      <path d="M1314.37 231.737h-134.74v38.737h134.74v-38.737z" fill="#E99690"/>
      <path d="M1204.89 241.842h-16.84v28.631h16.84v-28.631zM1305.95 241.842h-16.84v28.631h16.84v-28.631zM1225.11 241.842h-16.85v28.631h16.85v-28.631z" fill="#A33029"/>
      <path d="M1247.33 229.415c-63.36 0-99.7-9.527-99.7-9.527s23.5 16.902 31.93 16.902h134.73c8.42 0 32.08-16.843 32.08-16.843s-35.67 9.468-99.04 9.468z" fill="#6C0000"/>
      <path d="M1346.37 219.947l-1.69-1.684c-29.46 4.653-38.81 3.368-38.81 3.368h-117.89s-7.34 1.137-38.13-3.515l-2 1.772s35.9 9.749 99.26 9.749c63.37 0 99.26-9.69 99.26-9.69z" fill="#651E19"/>
      <path d="M1245.32 241.842h-16.85v28.631h16.85v-28.631zM1265.53 241.842h-16.85v28.631h16.85v-28.631zM1285.74 241.842h-16.85v28.631h16.85v-28.631z" fill="#A33029"/>
      <path d="M1305.95 198.053h-117.9v23.579h117.9v-23.579z" fill="#E99690"/>
      <path d="M1211.63 203.105h-13.47v18.526h13.47v-18.526zM1228.47 203.105H1215v18.526h13.47v-18.526zM1245.32 203.105h-13.48v18.526h13.48v-18.526zM1262.16 203.105h-13.48v18.526h13.48v-18.526z" fill="#A33029"/>
      <path d="M1247 180.319c-1.01 0-1.68-.443-1.68-1.108v-22.156c0-.665.67-1.108 1.68-1.108 1.01 0 1.68.443 1.68 1.108v22.156c0 .665-.67 1.108-1.68 1.108z" fill="#D6801C"/>
      <path d="M1251.05 171.105h-8.1c-.56 0-1 .448-1 1v1.368c0 .553.44 1 1 1h8.1c.55 0 1-.447 1-1v-1.368c0-.552-.45-1-1-1zM1249.37 166.053h-4.74c-.55 0-1 .447-1 1v1.368c0 .552.45 1 1 1h4.74c.55 0 1-.448 1-1v-1.368c0-.553-.45-1-1-1zM1249.37 161h-4.74c-.55 0-1 .448-1 1v1.368c0 .553.45 1 1 1h4.74c.55 0 1-.447 1-1V162c0-.552-.45-1-1-1z" fill="#D6801C"/>
      <path d="M1279 203.105h-13.47v18.526H1279v-18.526zM1295.84 203.105h-13.47v18.526h13.47v-18.526z" fill="#A33029"/>
      <path d="M1331.21 186.263l-3.37-3.368c-15.95 5.095-28.63 1.684-28.63 1.684l1.56-14.048a.998.998 0 00-.99-1.11h-4.82c-.47 0-.85.33-.86.798-.02.515-.01 1.328.06 2.57-32.13 5.982-59.4 5.982-92.63 0v-2.368c0-.552-.45-1-1-1h-4.62c-.6 0-1.06.518-1 1.11l1.56 14.048s-11.57 2.304-28.63-1.684l-3.37 3.368s30.58 8.013 82.65 8.013c52.06 0 84.09-8.013 84.09-8.013z" fill="#651E19"/>
      <path d="M1247.34 192.814c-52.07 0-82.87-6.551-82.87-6.551l25.27 13.474h117.89l23.58-13.473c0-.222-31.81 6.55-83.87 6.55z" fill="#6C0000"/>
      <path d="M1254.42 196.368h-14.84c-.55 0-1 .448-1 1v6.421c0 .552.45 1 1 1h14.84c.55 0 1-.448 1-1v-6.421c0-.552-.45-1-1-1z" fill="#F3B761"/>
    </g>
    <path d="M822.5 76c5.799 0 10.5-4.477 10.5-10s-4.701-10-10.5-10S812 60.477 812 66s4.701 10 10.5 10z" fill="#651E19"/>
    <path d="M315.306 382.683c9.413 0 9.436-14.637 0-14.637-9.413 0-9.435 14.637 0 14.637z" fill="#D6801C"/>
    <path d="M295.664 247.328c16.865 0 16.906-25.328 0-25.328-16.865 0-16.906 25.328 0 25.328z" fill="#651E19"/>
    <path d="M381.983 323.386c7.972 0 7.983-12.386 0-12.386-7.972 0-7.983 12.386 0 12.386zM999.983 144.386c7.967 0 7.987-12.386 0-12.386-7.972 0-7.983 12.386 0 12.386z" fill="#F5D8AF"/>
    <path d="M464.393 111.2c1.657 0 3.239-1.456 3.163-3.166-.076-1.716-1.392-3.166-3.163-3.166-1.658 0-3.24 1.457-3.164 3.166.076 1.716 1.392 3.166 3.164 3.166z" fill="#651E19"/>
    <path d="M1320.01 41c26.62 0 26.68-40 0-40s-26.68 40 0 40zM74.507 223c16.639 0 16.676-25 0-25s-16.676 25 0 25zM1267.81 94.882c5.07 0 5.08-7.882 0-7.882s-5.08 7.882 0 7.882z" fill="#F5D8AF"/>
    <path d="M1387.72 146c10.29 0 10.31-16 0-16-10.28 0-10.31 16 0 16z" fill="#D6801C"/>
    <path d="M1062.5 432.996c12.65 0 12.67-18.996 0-18.996s-12.67 18.996 0 18.996z" fill="#651E19"/>
    <path opacity=".6" fill="#6C0000" d="M0-177h1440v750H0z"/>
    <path d="M367.443 121.534c0-13.834 12.155-21.588 12.155-21.588-10.236 0-12.155-24.946-12.155-24.946h-.288S365.236 99.946 355 99.946c0 0 12.443 5.955 12.443 19.789v1.799zM951.222 441c0-21.405 18.778-33.402 18.778-33.402-15.813 0-18.778-38.598-18.778-38.598h-.444s-2.965 38.598-18.778 38.598c0 0 19.222 9.213 19.222 30.618V441zM304.718 75.868c0-8.581 7.537-13.39 7.537-13.39-6.35 0-7.537-15.478-7.537-15.478h-.18S303.344 62.477 297 62.477c0 0 7.718 3.694 7.718 12.275v1.116zM242.718 325.868c0-8.581 7.537-13.391 7.537-13.391-6.35 0-7.537-15.477-7.537-15.477h-.18s-1.194 15.477-7.538 15.477c0 0 7.718 3.694 7.718 12.275v1.116zM1088.17 164c0-15.755 13.83-24.584 13.83-24.584-11.66 0-13.83-28.416-13.83-28.416h-.34s-2.19 28.416-13.83 28.416c0 0 14.17 6.782 14.17 22.536V164zM1140.07 184c0-6.837 5.93-10.669 5.93-10.669-5 0-5.93-12.331-5.93-12.331h-.14s-.94 12.331-5.93 12.331c0 0 6.07 2.943 6.07 9.78V184z" fill="#F3B761"/>
  </g>
  <defs>
    <linearGradient id="paint0_linear" x1="-684" y1="526.316" x2="2246" y2="526.316" gradientUnits="userSpaceOnUse">
      <stop stop-color="#D6801C"/>
      <stop offset="1" stop-color="#F8C06D"/>
    </linearGradient>
    <linearGradient id="paint1_linear" x1="155.711" y1="73.023" x2="155.711" y2="178" gradientUnits="userSpaceOnUse">
      <stop stop-color="#fff" stop-opacity=".5"/>
      <stop offset="1" stop-color="#fff" stop-opacity="0"/>
    </linearGradient>
    <linearGradient id="paint2_linear" x1="933.946" y1="107.161" x2="933.946" y2="-47" gradientUnits="userSpaceOnUse">
      <stop stop-color="#fff" stop-opacity="0"/>
      <stop offset="1" stop-color="#fff" stop-opacity=".7"/>
    </linearGradient>
    <linearGradient id="paint3_linear" x1="1039.95" y1="349.161" x2="1039.95" y2="195" gradientUnits="userSpaceOnUse">
      <stop stop-color="#fff" stop-opacity="0"/>
      <stop offset="1" stop-color="#fff" stop-opacity=".7"/>
    </linearGradient>
    <linearGradient id="paint4_linear" x1="1271.55" y1="251" x2="1271.55" y2="313" gradientUnits="userSpaceOnUse">
      <stop stop-color="#fff" stop-opacity=".71"/>
      <stop offset="1" stop-color="#fff" stop-opacity="0"/>
    </linearGradient>
    <linearGradient id="paint5_linear" x1="1508" y1="690" x2="1172.25" y2="133.732" gradientUnits="userSpaceOnUse">
      <stop stop-color="#6C0000"/>
      <stop offset=".651" stop-color="#951513"/>
      <stop offset="1" stop-color="#BE2A26"/>
    </linearGradient>
    <linearGradient id="paint6_linear" x1="-8" y1="642" x2="821.555" y2="741.557" gradientUnits="userSpaceOnUse">
      <stop stop-color="#6C0000"/>
      <stop offset=".651" stop-color="#951513"/>
      <stop offset="1" stop-color="#BE2A26"/>
    </linearGradient>
    <clipPath id="clip0">
      <path fill="#fff" d="M0 0h1440v480H0z"/>
    </clipPath>
    <clipPath id="clip1">
      <path fill="#fff" transform="translate(1087 97)" d="M0 0h320v320H0z"/>
    </clipPath>
  </defs>
</svg>
