<svg width="500" height="625" fill="none" xmlns="http://www.w3.org/2000/svg">
  <g clip-path="url(#clip0)">
    <path fill="url(#paint0_linear)" d="M0 0h500v625H0z"/>
    <path d="M314 312s-177.211-.253-305.222-.253C-41.857 311.747-219 312-219 312c0-16.273 126.986 5.612 212.403-39.281 29.924-15.729 51.75 23.367 81.43 25.813 15.495 1.28 34.48-11.391 51.25-10.1 8.684.667 61.085 15.156 92.82 14.59C281.542 301.899 314 304.929 314 312z" fill="url(#paint1_linear)"/>
    <path d="M511.514 344.898c-13.035.13-22.883 10.966-32.272 10.801-9.39-.164-23.57-27.699-55.116-27.699-39.157 0-57.653 35.368-68.166 35.368-11.878 0-18.458-5.926-30.095-5.926-30.521 0-25.021 9.405-47.865 12.72h291.892c-34.449-6.794-33.69-25.508-58.378-25.264z" fill="url(#paint2_linear)"/>
    <path d="M167.514 436.898c-13.035.13-22.883 10.966-32.272 10.801-9.39-.164-23.57-27.699-55.116-27.699-39.157 0-57.653 35.368-68.166 35.368-11.878 0-18.458-5.926-30.095-5.926-30.52 0-25.021 9.405-47.865 12.72h291.892c-34.449-6.794-33.69-25.508-58.378-25.264z" fill="url(#paint3_linear)"/>
    <path d="M549.1 206.04s-24.353.238-121.767.238c-38.532 0-173.333.195-173.333.195 0-12.566 132.167 1.3 157.733-9.533 23.764-10.071 43.282-2.756 65.867-.867 11.791.988 27.972-17.03 40.733-16.033 17.867 1.395 30.767 22.061 30.767 26z" fill="url(#paint4_linear)"/>
    <path d="M-58 904c260.126 0 471-88.872 471-198.5C413 595.871 202.126 507-58 507s-471 88.871-471 198.5C-529 815.128-318.126 904-58 904z" fill="#6C0000"/>
    <path d="M382 904c260.126 0 471-88.872 471-198.5C853 595.871 642.126 507 382 507S-89 595.871-89 705.5C-89 815.128 121.874 904 382 904z" fill="url(#paint5_linear)"/>
    <path d="M380 197c6.659 0 6.675-10 0-10-6.659 0-6.675 10 0 10z" fill="#F5D8AF"/>
    <path d="M386.5 84c5.996 0 6.004-9 0-9-5.996 0-6.004 9 0 9z" fill="#651E19"/>
    <path d="M34.5 110c5.996 0 6.004-9 0-9-5.996 0-6.004 9 0 9z" fill="#F5D8AF"/>
    <path d="M410.5 149c1.309 0 2.558-1.15 2.498-2.5-.06-1.355-1.099-2.5-2.498-2.5-1.309 0-2.558 1.15-2.498 2.5.06 1.355 1.099 2.5 2.498 2.5z" fill="#C93C33"/>
    <path d="M58.5 141c5.497 0 10.743-4.83 10.491-10.5-.251-5.691-4.616-10.5-10.491-10.5-5.497 0-10.743 4.83-10.491 10.5.252 5.691 4.616 10.5 10.491 10.5z" fill="#651E19"/>
    <g clip-path="url(#clip1)">
      <path d="M449.116 441.916H333.158v25.01h115.958v-25.01z" fill="#E99690"/>
      <path d="M344.527 438.505h-11.369v29.558h11.369v-29.558zM380.906 443.053h-13.642v25.01h13.642v-25.01zM413.875 443.053h-13.643v25.01h13.643v-25.01zM449.116 438.505h-11.368v29.558h11.368v-29.558z" fill="#651E19"/>
      <path d="M337.706 441.916h-4.548v26.147h4.548v-26.147zM449.116 441.916h-4.548v26.147h4.548v-26.147zM410.463 441.916h-4.547v26.147h4.547v-26.147zM375.221 441.916h-4.547v26.147h4.547v-26.147zM498 480.569H282v44.336h216v-44.336z" fill="#6C0000"/>
      <path d="M438.884 471.474v3.979h-4.547v-3.979c0-.341-.228-.569-.569-.569h-7.389c-.341 0-.568.228-.568.569v3.979h-4.548v-3.979c0-.341-.227-.569-.568-.569h-7.39c-.341 0-.568.228-.568.569v3.979h-4.548v-3.979c0-.341-.227-.569-.568-.569h-7.389c-.341 0-.569.228-.569.569v3.979h-4.547v-3.979c0-.341-.228-.569-.569-.569h-7.389c-.341 0-.569.228-.569.569v3.979h-4.547v-3.979c0-.341-.227-.569-.568-.569h-7.39c-.341 0-.568.228-.568.569v3.979h-4.548v-3.979c0-.341-.227-.569-.568-.569h-7.389c-.342 0-.569.228-.569.569v3.979h-4.547v-3.979c0-.341-.228-.569-.569-.569h-7.389c-.341 0-.569.228-.569.569v3.979h-4.547v-3.979c0-.341-.227-.569-.568-.569h-7.39c-.341 0-.568.228-.568.569v3.979h-4.548v-3.979c0-.341-.227-.569-.568-.569h-7.39c-.341 0-.568.228-.568.569v3.979h-4.547v-3.979c0-.341-.228-.569-.569-.569h-6.821c-.341 0-.568.228-.568.569v3.979h-3.411v-3.979c0-.341-.227-.569-.568-.569h-8.526c-.342 0-.569.228-.569.569v3.979h-4.547v-3.979c0-.341-.228-.569-.569-.569h-7.958c-.341 0-.568.228-.568.569v9.663h168.253v-9.663c0-.341-.228-.569-.569-.569h-10.231c-.341 0-.569.228-.569.569z" fill="#6C0000"/>
      <path d="M340.548 471.474v3.979h4.547v-3.979c0-.341.228-.569.569-.569h7.389c.341 0 .569.228.569.569v3.979h4.547v-3.979c0-.341.228-.569.569-.569h7.389c.341 0 .568.228.568.569v3.979h4.548v-3.979c0-.341.227-.569.568-.569h7.39c.341 0 .568.228.568.569v3.979h4.548v-3.979c0-.341.227-.569.568-.569h7.389c.341 0 .569.228.569.569v3.979h4.547v-3.979c0-.341.228-.569.569-.569h7.389c.341 0 .569.228.569.569v3.979h4.547v-3.979c0-.341.227-.569.568-.569h7.39c.341 0 .568.228.568.569v3.979h4.548v-3.979c0-.341.227-.569.568-.569h7.389c.342 0 .569.228.569.569v3.979h4.547v-3.979c0-.341.228-.569.569-.569h7.389c.341 0 .569.228.569.569v3.979h4.547v-3.979c0-.341.227-.569.568-.569h7.39c.341 0 .568.228.568.569v3.979h4.548v-3.979c0-.341.227-.569.568-.569h7.39c.341 0 .568.228.568.569v3.979h3.41v-3.979c0-.341.228-.569.569-.569h8.526c.341 0 .569.228.569.569v3.979h4.547v-3.979c0-.341.227-.569.568-.569h7.958c.341 0 .569.228.569.569v9.663H329.18v-9.663c0-.341.227-.569.568-.569h10.232c.341 0 .568.228.568.569z" fill="#6C0000"/>
      <path d="M487.769 534.569H292.232l11.369-60.253h172.8l11.368 60.253z" fill="#A33029"/>
      <path d="M390 505.01a14.75 14.75 0 00-14.779 14.779v15.916h29.558v-15.916A14.75 14.75 0 00390 505.01z" fill="#6C0000"/>
      <path d="M476.4 472.611H303.6v2.273h172.8v-2.273z" fill="#651E19"/>
      <path d="M468.442 462.947v3.979h-5.685v-3.979c0-.341-.227-.568-.568-.568h-6.821c-.341 0-.568.227-.568.568v3.979h-5.685v-3.979c0-.341-.227-.568-.568-.568h-6.821c-.341 0-.569.227-.569.568v3.979h-5.684v-3.979c0-.341-.227-.568-.568-.568h-6.821c-.341 0-.569.227-.569.568v3.979h-5.684v-3.979c0-.341-.227-.568-.568-.568h-6.821c-.341 0-.569.227-.569.568v3.979h-5.684v-3.979c0-.341-.227-.568-.568-.568H400.8c-.341 0-.569.227-.569.568v3.979h-5.684v-3.979c0-.341-.227-.568-.568-.568h-6.822c-.341 0-.568.227-.568.568v3.979h-5.684v-3.979c0-.341-.228-.568-.569-.568h-6.821c-.341 0-.568.227-.568.568v3.979h-5.684v-3.979c0-.341-.228-.568-.569-.568h-6.821c-.341 0-.568.227-.568.568v3.979h-5.684v-3.979c0-.341-.228-.568-.569-.568h-6.821c-.341 0-.568.227-.568.568v3.979h-4.548v-3.979c0-.341-.227-.568-.568-.568h-6.821c-.341 0-.568.227-.568.568v3.979h-5.685v-3.979c0-.341-.227-.568-.568-.568h-6.821c-.341 0-.569.227-.569.568v3.979h-5.684v-3.979c0-.341-.227-.568-.568-.568h-9.095c-.341 0-.568.227-.568.568v9.664h172.8v-9.664c0-.341-.228-.568-.569-.568h-6.821c-.341 0-.568.227-.568.568z" fill="#A33029"/>
      <path d="M390.732 439.893c-47.408 0-74.627-5.935-74.627-5.935s14.779 12.755 21.6 12.755h106.864c6.821 0 19.326-12.755 19.326-12.755s-25.755 5.935-73.163 5.935z" fill="#6C0000"/>
      <path d="M463.895 433.958l-1.137-1.137c-15.916 3.411-27.284 2.273-27.284 2.273h-90.947s-12.506 1.138-27.285-2.273l-1.137 1.137s27.219 6.922 74.776 6.922c47.558 0 73.014-6.922 73.014-6.922z" fill="#651E19"/>
      <path d="M435.473 408.948h-90.948v26.147h90.948v-26.147z" fill="#E99690"/>
      <path d="M361.579 415.769h-11.368v19.326h11.368v-19.326zM429.79 415.769h-11.368v19.326h11.368v-19.326zM375.222 415.769h-11.368v19.326h11.368v-19.326z" fill="#A33029"/>
      <path d="M390.224 407.38c-42.772 0-67.298-6.431-67.298-6.431s15.865 11.409 21.549 11.409h90.948c5.684 0 21.65-11.369 21.65-11.369s-24.077 6.391-66.849 6.391z" fill="#6C0000"/>
      <path d="M457.074 400.99l-1.137-1.137c-19.89 3.14-26.198 2.273-26.198 2.273H350.16s-4.95.768-25.738-2.373l-1.346 1.197s24.228 6.58 66.999 6.58c42.772 0 66.999-6.54 66.999-6.54z" fill="#651E19"/>
      <path d="M388.863 415.769h-11.369v19.326h11.369v-19.326zM402.505 415.769h-11.368v19.326h11.368v-19.326zM416.148 415.769h-11.369v19.326h11.369v-19.326z" fill="#A33029"/>
      <path d="M429.79 386.211h-79.579v15.915h79.579v-15.915z" fill="#E99690"/>
      <path d="M366.126 389.621h-9.095v12.505h9.095v-12.505zM377.495 389.621H368.4v12.505h9.095v-12.505zM388.862 389.621h-9.094v12.505h9.094v-12.505zM400.231 389.621h-9.094v12.505h9.094v-12.505z" fill="#A33029"/>
      <path d="M390 374.24c-.682 0-1.137-.299-1.137-.748v-14.955c0-.448.455-.747 1.137-.747.682 0 1.137.299 1.137.747v14.955c0 .449-.455.748-1.137.748z" fill="#D6801C"/>
      <path d="M392.411 368.021h-4.821a1 1 0 00-1 1v.274a1 1 0 001 1h4.821a1 1 0 001-1v-.274a1 1 0 00-1-1zM391.274 364.611h-2.547a1 1 0 00-1 1v.273a1 1 0 001 1h2.547a1 1 0 001-1v-.273a1 1 0 00-1-1zM391.274 361.2h-2.547a1 1 0 00-1 1v.274a1 1 0 001 1h2.547a1 1 0 001-1v-.274a1 1 0 00-1-1z" fill="#D6801C"/>
      <path d="M411.601 389.621h-9.095v12.505h9.095v-12.505zM422.968 389.621h-9.095v12.505h9.095v-12.505z" fill="#A33029"/>
      <path d="M446.842 378.253l-2.273-2.274c-10.768 3.44-19.327 1.137-19.327 1.137l1.014-9.121a1 1 0 00-.994-1.111h-2.628c-.469 0-.844.331-.847.8-.001.343.009.82.045 1.474-21.685 4.038-40.094 4.038-62.527 0v-1.274a1 1 0 00-1-1h-2.43a1 1 0 00-.994 1.111l1.014 9.121s-7.811 1.555-19.326-1.137l-2.274 2.274s20.638 5.409 55.783 5.409c35.144 0 56.764-5.409 56.764-5.409z" fill="#651E19"/>
      <path d="M390.227 382.675c-35.144 0-55.932-4.422-55.932-4.422l17.053 9.095h79.578l15.916-9.095c0-.15-21.47 4.422-56.615 4.422z" fill="#6C0000"/>
      <path d="M394.685 385.074h-9.369a1 1 0 00-1 1v3.684a1 1 0 001 1h9.369a1 1 0 001-1v-3.684a1 1 0 00-1-1z" fill="#F3B761"/>
    </g>
    <path opacity=".6" fill="#6C0000" d="M0 0h500v625H0z"/>
    <path d="M454.588 247c0-8.324 7.412-12.99 7.412-12.99-6.242 0-7.412-15.01-7.412-15.01h-.176s-1.17 15.01-7.412 15.01c0 0 7.588 3.583 7.588 11.908V247zM177.059 70c0-5.945 4.941-9.277 4.941-9.277-4.163 0-4.941-10.723-4.941-10.723h-.118s-.782 10.723-4.941 10.723c0 0 5.059 2.56 5.059 8.504V70zM420.647 118c0-14.268 12.353-22.265 12.353-22.265-10.407 0-12.353-25.735-12.353-25.735h-.294S418.397 95.735 408 95.735c0 0 12.647 6.142 12.647 20.41V118zM470.071 124c0-6.837 5.929-10.669 5.929-10.669-4.995 0-5.929-12.331-5.929-12.331h-.142s-.938 12.331-5.929 12.331c0 0 6.071 2.943 6.071 9.78V124z" fill="#F3B761"/>
  </g>
  <defs>
    <linearGradient id="paint0_linear" x1="234" y1="-42.5" x2="234" y2="652.5" gradientUnits="userSpaceOnUse">
      <stop stop-color="#D6801C"/>
      <stop offset="1" stop-color="#F8C066"/>
    </linearGradient>
    <linearGradient id="paint1_linear" x1="48" y1="238" x2="48" y2="312" gradientUnits="userSpaceOnUse">
      <stop stop-color="#FFE1A8"/>
      <stop offset="1" stop-color="#FFE1A8" stop-opacity="0"/>
    </linearGradient>
    <linearGradient id="paint2_linear" x1="423.946" y1="370.161" x2="423.946" y2="216" gradientUnits="userSpaceOnUse">
      <stop stop-color="#FFE1A8" stop-opacity="0"/>
      <stop offset="1" stop-color="#FFE1A8"/>
    </linearGradient>
    <linearGradient id="paint3_linear" x1="79.946" y1="462.161" x2="79.946" y2="308" gradientUnits="userSpaceOnUse">
      <stop stop-color="#FFE1A8" stop-opacity="0"/>
      <stop offset="1" stop-color="#FFE1A8"/>
    </linearGradient>
    <linearGradient id="paint4_linear" x1="401.55" y1="144" x2="401.55" y2="206" gradientUnits="userSpaceOnUse">
      <stop stop-color="#FFE1A8"/>
      <stop offset="1" stop-color="#FFE1A8" stop-opacity="0"/>
    </linearGradient>
    <linearGradient id="paint5_linear" x1="601" y1="607" x2="331.721" y2="411.821" gradientUnits="userSpaceOnUse">
      <stop stop-color="#6C0000"/>
      <stop offset=".651" stop-color="#951513"/>
      <stop offset="1" stop-color="#951513"/>
    </linearGradient>
    <clipPath id="clip0">
      <path fill="#fff" d="M0 0h500v625H0z"/>
    </clipPath>
    <clipPath id="clip1">
      <path fill="#fff" transform="translate(282 318)" d="M0 0h216v216H0z"/>
    </clipPath>
  </defs>
</svg>
