<svg width="1440" height="480" fill="none"
  xmlns="http://www.w3.org/2000/svg">
  <g clip-path="url(#clip0)">
    <path d="M0 0h1440v480H0V0z" fill="url(#paint0_linear)"/>
    <path d="M534 178s-252.019-.358-434.068-.358C27.922 177.642-224 178-224 178c0-23.086 180.592 7.961 302.066-55.724 42.557-22.313 73.598 33.148 115.806 36.619 22.035 1.815 49.035-16.16 72.884-14.329 12.35.947 86.871 21.501 132.003 20.697C487.84 163.671 534 167.97 534 178z" fill="url(#paint1_linear)"/>
    <path d="M1021.51 81.898c-13.03.13-22.879 10.966-32.268 10.801-9.39-.164-23.57-27.699-55.116-27.699-39.157 0-57.653 35.368-68.166 35.368-11.878 0-18.458-5.926-30.095-5.926-30.521 0-25.021 9.405-47.865 12.72h291.89c-34.45-6.794-33.69-25.508-58.38-25.264z" fill="url(#paint2_linear)"/>
    <path d="M1127.51 323.898c-13.03.13-22.88 10.966-32.27 10.801-9.39-.164-23.57-27.699-55.11-27.699-39.16 0-57.657 35.368-68.17 35.368-11.878 0-18.458-5.926-30.095-5.926-30.521 0-25.021 9.405-47.865 12.72h291.89c-34.45-6.794-33.69-25.508-58.38-25.264z" fill="url(#paint3_linear)"/>
    <path d="M1419.1 313.04s-24.35.238-121.77.238c-38.53 0-173.33.195-173.33.195 0-12.566 132.17 1.3 157.73-9.533 23.77-10.071 43.28-2.756 65.87-.867 11.79.988 27.97-17.03 40.73-16.033 17.87 1.395 30.77 22.061 30.77 26z" fill="url(#paint4_linear)"/>
    <path d="M723 846c332.48 0 602-113.496 602-253.5 0-140.004-269.52-253.5-602-253.5-332.475 0-602 113.496-602 253.5C121 732.504 390.525 846 723 846z" fill="#6C0000"/>
    <path d="M1252 781c260.13 0 471-88.872 471-198.5 0-109.629-210.87-198.5-471-198.5-260.126 0-471 88.871-471 198.5C781 692.128 991.874 781 1252 781z" fill="url(#paint5_linear)"/>
    <path d="M99 788c276.695 0 501-94.692 501-211.5S375.695 365 99 365s-501 94.692-501 211.5S-177.695 788 99 788z" fill="url(#paint6_linear)"/>
    <g clip-path="url(#clip1)">
      <path d="M1258.43 207.895c0 18.691-10.12 20.958-20 20.958-9.89 0-20.01-2.267-20.01-20.958 0-5.156 3.81-11.16 3.81-15.242 0-24.707 7.72-30.485 16.2-30.485 8.14 0 15.1 5.778 16.19 30.485.22 4.941 3.81 8.689 3.81 15.242z" fill="#163B4B"/>
      <path d="M1296.54 411.758h-106.7V427h106.7v-15.242z" fill="#0D242F"/>
      <path d="M1281.29 327.926h-76.21v83.832h76.21v-83.832z" fill="#163B4B"/>
      <path d="M1220.33 327.926h-7.62v83.832h7.62v-83.832zM1233.66 327.926h-7.62v83.832h7.62v-83.832zM1247 327.926h-7.62v83.832h7.62v-83.832zM1260.34 327.926h-7.63v83.832h7.63v-83.832z" fill="#1F576F"/>
      <path d="M1298.21 286.282c-.22 6.553-5.33 11.816-11.96 11.816-6.62 0-11.95-5.263-11.95-11.816 0-23.632 5.33-26.855 11.95-26.855 6.63 0 13.04-1.074 11.96 26.855z" fill="#0D242F"/>
      <path d="M1273.67 327.926h-7.62v83.832h7.62v-83.832z" fill="#1F576F"/>
      <path d="M1203.18 398.421l53.35-32.389V278.39h-53.35v120.031z" fill="#0D242F"/>
      <path d="M1298.1 232.573l15.86 9.882c1.63.967 2.06 3.008 1.09 4.619l-24.77 40.282c-1.09 1.719-3.48 2.148-5.11.859l-14.13-11.493c-1.3-1.075-1.63-2.901-.76-4.297l23.04-38.563a3.473 3.473 0 014.78-1.289z" fill="#85C3D8"/>
      <path d="M1283.2 339.925l-38.75 20.391v-96.59h-26.03v-53.661l11.43-4.075v-15.242H1247v15.242l36.2 15.881v118.054z" fill="#296F8E"/>
      <path d="M1283.2 268.863l-22.59-22.649-8.71 33.438h-50.51v-56.515l-11.55-15.242 7.62-30.484h19.06l9.52 28.579 15.24 3.81 5.72-3.81 36.2 15.242v47.631z" fill="#85C3D8"/>
      <path d="M1238.43 200.274c-5.77 0-10.48-4.823-10.48-10.717v-12.861c0-3.215 1.36-6.109 3.56-8.038 1.89-1.607 4.3-2.679 6.92-2.679 5.76 0 10.48 4.823 10.48 10.717v12.861c0 5.894-4.72 10.717-10.48 10.717z" fill="#296F8E"/>
      <path d="M1201.27 345.073l50.01-41.915 11.44-47.632 20.48 36.2v-70.495l-36.2-15.242-45.73 68.59v70.494z" fill="#1F576F"/>
      <path d="M1238.45 161.677c2.17 0 2.17 7.519-2.17 9.667-3.48 1.719-6.52 1.075-8.7 5.371-2.17-1.074-2.17-6.445 0-9.667 2.18-3.223 6.52-5.371 10.87-5.371z" fill="#163B4B"/>
      <path d="M1238.23 161.677c-2.17 0-2.17 7.519 2.17 9.667 3.48 1.719 6.52 1.075 8.7 5.371 2.17-1.074 2.17-6.445 0-9.667-2.18-3.223-6.52-5.371-10.87-5.371z" fill="#163B4B"/>
      <path d="M1203.18 79.956c0 3.19-1.9 6.002-5.72 6.002s-5.71-2.811-5.71-6.002c0-3.48 2.56-4.622 1.63-7.716 1.12-.677 2.45 3.43 4.08 3.43s.82-6.86 5.72-6.86c-3.27 5.145 0 7.28 0 11.146z" fill="#85C3D8"/>
      <path d="M1252.9 172.526l17.06-10.849-20.1 5.693c-.33-.43-.65-.86-1.09-1.289l10.76-16.435-17.06 12.568c-.33-.108-.54-.108-.87-.215l-4.24-19.658-3.15 19.658-16.84-12.353 10.76 16.435c-.33.429-.76.859-1.09 1.289l-20.1-5.693 17.06 10.849-17.06.967c14.34 3.918 21.01 5.823 21.01 5.823 0-6.445 3.96-13.343 10.48-13.343 6.51 0 10.47 6.898 10.47 13.343 6.89-1.702 14.15-4.047 21.06-5.823l-17.06-.967z" fill="#0D242F"/>
      <path d="M1216.52 177.411l-13.34 15.242-9.53-62.874v-17.147l3.81-5.716s7.62 5.23 7.62 9.526v13.337l11.44 47.632z" fill="#296F8E"/>
      <path d="M1210.8 87.863h-26.67v7.621h26.67v-7.62z" fill="#163B4B"/>
      <path d="M1298.75 261.898c-1.3 2.148.87 4.297.98 5.908.11 1.611-.22 3.33.97 3.974 1.96.967 5.33-.429 7.94-4.941 2.6-4.404 1.95-5.908.76-9.56-.33-1.074-2.36-5.456-3.34-5.563-1.84-.108-2.1 2.018-3.29 5.241-.87 2.256-3.26 3.545-4.02 4.941zM1210.8 93.58h-26.67v3.81h26.67v-3.81z" fill="#296F8E"/>
      <path d="M1208.9 103.105h-22.87l-1.9-5.715h26.67l-1.9 5.715z" fill="#0D242F"/>
      <path d="M1201.27 128.827s-.95 8.573-3.81 8.573c-2.86 0-3.81-8.573-3.81-8.573v-25.722h7.62v25.722z" fill="#0D242F"/>
      <path d="M1186.03 87.863h-1.9v5.716h1.9v-5.716zM1199.37 89.769h-3.81v3.81h3.81v-3.81zM1191.75 89.769h-1.91v3.81h1.91v-3.81zM1205.08 89.769h-1.9v3.81h1.9v-3.81zM1210.8 89.769h-1.91v3.81h1.91v-3.81z" fill="#296F8E"/>
      <path d="M1210.8 87.863h-26.67v1.906h26.67v-1.906zM1202.6 115.486c0 4.405 1.08 9.668-5.76 8.594-3.48-.537-6.41-.107-6.41-4.619 0-2.148-.33-3.008-.22-5.801 0-1.396-3.91-5.908-3.26-6.767.87-1.182 3.15-.859 5.76.43 0 3.007 1.63 3.867 3.48 5.263 2.6 2.149 6.41 1.182 6.41 2.9z" fill="#296F8E"/>
      <path d="M1203.18 127.874h-11.43v5.715h11.43v-5.715zM1205.08 84.053h-15.24v3.81h15.24v-3.81z" fill="#0D242F"/>
    </g>
    <path d="M822.5 76c5.799 0 10.5-4.477 10.5-10s-4.701-10-10.5-10S812 60.477 812 66s4.701 10 10.5 10z" fill="#651E19"/>
    <path d="M315.306 382.683c9.413 0 9.436-14.637 0-14.637-9.413 0-9.435 14.637 0 14.637z" fill="#1F576F"/>
    <path d="M295.664 247.328c16.865 0 16.906-25.328 0-25.328-16.865 0-16.906 25.328 0 25.328z" fill="#651E19"/>
    <path d="M381.983 323.386c7.972 0 7.983-12.386 0-12.386-7.972 0-7.983 12.386 0 12.386zM999.983 144.386c7.967 0 7.987-12.386 0-12.386-7.972 0-7.983 12.386 0 12.386z" fill="#E6E6E6"/>
    <path d="M464.393 111.2c1.657 0 3.239-1.456 3.163-3.166-.076-1.716-1.392-3.166-3.163-3.166-1.658 0-3.24 1.457-3.164 3.166.076 1.716 1.392 3.166 3.164 3.166z" fill="#651E19"/>
    <path d="M1320.01 41c26.62 0 26.68-40 0-40s-26.68 40 0 40zM74.507 223c16.639 0 16.676-25 0-25s-16.676 25 0 25zM1267.81 94.882c5.07 0 5.08-7.882 0-7.882s-5.08 7.882 0 7.882z" fill="#E6E6E6"/>
    <path d="M1387.72 146c10.29 0 10.31-16 0-16-10.28 0-10.31 16 0 16z" fill="#1F576F"/>
    <path d="M1062.5 432.996c12.65 0 12.67-18.996 0-18.996s-12.67 18.996 0 18.996z" fill="#651E19"/>
    <path opacity=".6" fill="#163B4B" d="M0-177h1440v750H0z"/>
    <path d="M367.443 121.534c0-13.834 12.155-21.588 12.155-21.588-10.236 0-12.155-24.946-12.155-24.946h-.288S365.236 99.946 355 99.946c0 0 12.443 5.955 12.443 19.789v1.799zM951.222 441c0-21.405 18.778-33.402 18.778-33.402-15.813 0-18.778-38.598-18.778-38.598h-.444s-2.965 38.598-18.778 38.598c0 0 19.222 9.213 19.222 30.618V441zM304.718 75.868c0-8.581 7.537-13.39 7.537-13.39-6.35 0-7.537-15.478-7.537-15.478h-.18S303.344 62.477 297 62.477c0 0 7.718 3.694 7.718 12.275v1.116zM242.718 325.868c0-8.581 7.537-13.391 7.537-13.391-6.35 0-7.537-15.477-7.537-15.477h-.18s-1.194 15.477-7.538 15.477c0 0 7.718 3.694 7.718 12.275v1.116zM1088.17 164c0-15.755 13.83-24.584 13.83-24.584-11.66 0-13.83-28.416-13.83-28.416h-.34s-2.19 28.416-13.83 28.416c0 0 14.17 6.782 14.17 22.536V164zM1140.07 184c0-6.837 5.93-10.669 5.93-10.669-5 0-5.93-12.331-5.93-12.331h-.14s-.94 12.331-5.93 12.331c0 0 6.07 2.943 6.07 9.78V184z" fill="#F3B761"/>
  </g>
  <defs>
    <linearGradient id="paint0_linear" x1="-684" y1="526.316" x2="2246" y2="526.316" gradientUnits="userSpaceOnUse">
      <stop stop-color="#296F8E"/>
      <stop offset="1" stop-color="#8EC9DC"/>
    </linearGradient>
    <linearGradient id="paint1_linear" x1="155.711" y1="73.023" x2="155.711" y2="178" gradientUnits="userSpaceOnUse">
      <stop stop-color="#fff" stop-opacity=".5"/>
      <stop offset="1" stop-color="#fff" stop-opacity="0"/>
    </linearGradient>
    <linearGradient id="paint2_linear" x1="933.946" y1="107.161" x2="933.946" y2="-47" gradientUnits="userSpaceOnUse">
      <stop stop-color="#fff" stop-opacity="0"/>
      <stop offset="1" stop-color="#fff" stop-opacity=".7"/>
    </linearGradient>
    <linearGradient id="paint3_linear" x1="1039.95" y1="349.161" x2="1039.95" y2="195" gradientUnits="userSpaceOnUse">
      <stop stop-color="#fff" stop-opacity="0"/>
      <stop offset="1" stop-color="#fff" stop-opacity=".7"/>
    </linearGradient>
    <linearGradient id="paint4_linear" x1="1271.55" y1="251" x2="1271.55" y2="313" gradientUnits="userSpaceOnUse">
      <stop stop-color="#fff" stop-opacity=".71"/>
      <stop offset="1" stop-color="#fff" stop-opacity="0"/>
    </linearGradient>
    <linearGradient id="paint5_linear" x1="1508" y1="690" x2="1172.25" y2="133.732" gradientUnits="userSpaceOnUse">
      <stop stop-color="#6C0000"/>
      <stop offset=".651" stop-color="#951513"/>
      <stop offset="1" stop-color="#BE2A26"/>
    </linearGradient>
    <linearGradient id="paint6_linear" x1="-8" y1="642" x2="821.555" y2="741.557" gradientUnits="userSpaceOnUse">
      <stop stop-color="#6C0000"/>
      <stop offset=".651" stop-color="#951513"/>
      <stop offset="1" stop-color="#BE2A26"/>
    </linearGradient>
    <clipPath id="clip0">
      <path fill="#fff" d="M0 0h1440v480H0z"/>
    </clipPath>
    <clipPath id="clip1">
      <path fill="#fff" transform="translate(1066 65)" d="M0 0h362v362H0z"/>
    </clipPath>
  </defs>
</svg>