<svg width="500" height="625" viewBox="0 0 500 625" fill="none" xmlns="http://www.w3.org/2000/svg">
<g clip-path="url(#clip0)">
<rect width="500" height="625" fill="url(#paint0_linear)"/>
<path d="M284 342C284 342 106.789 341.747 -21.2222 341.747C-71.8572 341.747 -249 342 -249 342C-249 325.727 -122.014 347.612 -36.5972 302.719C-6.67293 286.99 15.1539 326.086 44.8333 328.532C60.3279 329.812 79.3132 317.141 96.0833 318.432C104.767 319.099 157.168 333.588 188.903 333.022C251.542 331.899 284 334.929 284 342Z" fill="url(#paint1_linear)"/>
<path d="M511.514 254.898C498.479 255.028 488.631 265.864 479.242 265.699C469.852 265.535 455.672 238 424.126 238C384.969 238 366.473 273.368 355.96 273.368C344.082 273.368 337.502 267.442 325.865 267.442C295.344 267.442 300.844 276.847 278 280.162C326.951 280.162 491.572 280.162 569.892 280.162C535.443 273.368 536.202 254.654 511.514 254.898Z" fill="url(#paint2_linear)"/>
<path d="M167.514 436.898C154.479 437.028 144.631 447.864 135.242 447.699C125.852 447.535 111.672 420 80.126 420C40.9688 420 22.4732 455.368 11.9596 455.368C0.0820999 455.368 -6.4977 449.442 -18.1352 449.442C-48.6556 449.442 -43.156 458.847 -66 462.162C-17.0494 462.162 147.572 462.162 225.892 462.162C191.443 455.368 192.202 436.654 167.514 436.898Z" fill="url(#paint3_linear)"/>
<path d="M549.1 396.04C549.1 396.04 524.747 396.278 427.333 396.278C388.801 396.278 254 396.473 254 396.473C254 383.907 386.167 397.773 411.733 386.94C435.497 376.869 455.015 384.184 477.6 386.073C489.391 387.061 505.572 369.043 518.333 370.04C536.2 371.435 549.1 392.101 549.1 396.04Z" fill="url(#paint4_linear)"/>
<path d="M-48 904C212.126 904 423 815.128 423 705.5C423 595.871 212.126 507 -48 507C-308.126 507 -519 595.871 -519 705.5C-519 815.128 -308.126 904 -48 904Z" fill="#951513"/>
<path d="M382 904C642.126 904 853 815.128 853 705.5C853 595.871 642.126 507 382 507C121.874 507 -89 595.871 -89 705.5C-89 815.128 121.874 904 382 904Z" fill="url(#paint5_linear)"/>
<g clip-path="url(#clip1)">
<path d="M420.642 386.526C420.642 399.021 413.878 400.537 407.268 400.537C400.659 400.537 393.895 399.021 393.895 386.526C393.895 383.08 396.442 379.066 396.442 376.337C396.442 359.821 401.603 355.958 407.268 355.958C412.716 355.958 417.368 359.821 418.095 376.337C418.24 379.64 420.642 382.146 420.642 386.526Z" fill="#293C4C"/>
<path d="M446.116 522.811H374.79V533H446.116V522.811Z" fill="#1E2630"/>
<path d="M435.926 466.768H384.979V522.81H435.926V466.768Z" fill="#293C4C"/>
<path d="M395.168 466.768H390.074V522.81H395.168V466.768Z" fill="#335267"/>
<path d="M404.084 466.768H398.99V522.81H404.084V466.768Z" fill="#335267"/>
<path d="M413 466.768H407.905V522.81H413V466.768Z" fill="#335267"/>
<path d="M421.916 466.768H416.821V522.81H421.916V466.768Z" fill="#335267"/>
<path d="M447.232 438.929C447.086 443.309 443.673 446.828 439.242 446.828C434.812 446.828 431.253 443.309 431.253 438.929C431.253 423.13 434.812 420.976 439.242 420.976C443.673 420.976 447.958 420.258 447.232 438.929Z" fill="#1E2630"/>
<path d="M430.832 466.768H425.737V522.81H430.832V466.768Z" fill="#335267"/>
<path d="M383.705 513.895L419.368 492.242V433.653H383.705V513.895Z" fill="#1E2630"/>
<path d="M447.159 403.024L457.763 409.63C458.853 410.277 459.143 411.641 458.489 412.718L441.929 439.647C441.203 440.796 439.605 441.083 438.516 440.221L429.074 432.538C428.202 431.82 427.984 430.599 428.565 429.665L443.963 403.885C444.617 402.737 446.069 402.377 447.159 403.024Z" fill="#8EC9DC"/>
<path d="M437.2 474.789L411.296 488.421V423.85H393.895V387.977L401.537 385.253V375.063H413V385.253L437.2 395.869V474.789Z" fill="#296F8E"/>
<path d="M437.2 427.284L422.098 412.143L416.275 434.497H382.511V396.716L374.79 386.526L379.884 366.147H392.621L398.99 385.253L409.179 387.8L413 385.253L437.2 395.442V427.284Z" fill="#8EC9DC"/>
<path d="M407.268 381.432C403.416 381.432 400.263 378.208 400.263 374.267V365.67C400.263 363.521 401.174 361.586 402.645 360.296C403.906 359.222 405.517 358.505 407.268 358.505C411.121 358.505 414.274 361.729 414.274 365.67V374.267C414.274 378.208 411.121 381.432 407.268 381.432Z" fill="#296F8E"/>
<path d="M382.432 478.232L415.862 450.211L423.508 418.368L437.2 442.568V395.442L413 385.253L382.432 431.105V478.232Z" fill="#335267"/>
<path d="M407.284 355.629C408.737 355.629 408.737 360.656 405.832 362.092C403.507 363.241 401.474 362.81 400.021 365.683C398.568 364.964 398.568 361.374 400.021 359.22C401.474 357.065 404.379 355.629 407.284 355.629Z" fill="#293C4C"/>
<path d="M407.139 355.629C405.686 355.629 405.686 360.656 408.592 362.092C410.916 363.241 412.95 362.81 414.402 365.683C415.855 364.964 415.855 361.374 414.402 359.22C412.95 357.065 410.044 355.629 407.139 355.629Z" fill="#293C4C"/>
<path d="M383.705 300.998C383.705 303.131 382.437 305.011 379.884 305.011C377.332 305.011 376.063 303.131 376.063 300.998C376.063 298.672 377.778 297.908 377.155 295.84C377.902 295.388 378.793 298.133 379.884 298.133C380.976 298.133 380.43 293.547 383.705 293.547C381.522 296.986 383.705 298.413 383.705 300.998Z" fill="#8EC9DC"/>
<path d="M416.944 362.882L428.347 355.629L414.91 359.435C414.693 359.148 414.475 358.861 414.184 358.573L421.375 347.586L409.971 355.988C409.754 355.916 409.608 355.916 409.39 355.845L406.558 342.703L404.451 355.845L393.194 347.586L400.384 358.573C400.166 358.861 399.876 359.148 399.658 359.435L386.221 355.629L397.624 362.882L386.221 363.528C395.805 366.147 400.263 367.421 400.263 367.421C400.263 363.113 402.91 358.502 407.268 358.502C411.626 358.502 414.274 363.113 414.274 367.421C418.877 366.283 423.728 364.716 428.347 363.528L416.944 362.882Z" fill="#1E2630"/>
<path d="M392.621 366.147L383.705 376.337L377.337 334.305V322.842L379.884 319.021C379.884 319.021 384.979 322.517 384.979 325.389C384.979 328.262 384.979 334.305 384.979 334.305L392.621 366.147Z" fill="#296F8E"/>
<path d="M388.8 306.284H370.969V311.379H388.8V306.284Z" fill="#293C4C"/>
<path d="M447.595 422.628C446.723 424.064 448.176 425.5 448.248 426.577C448.321 427.655 448.103 428.804 448.902 429.234C450.209 429.881 452.461 428.947 454.204 425.931C455.947 422.987 455.512 421.982 454.713 419.54C454.495 418.822 453.138 415.893 452.484 415.821C451.25 415.749 451.081 417.17 450.282 419.325C449.701 420.833 448.103 421.694 447.595 422.628Z" fill="#296F8E"/>
<path d="M388.8 310.105H370.969V312.653H388.8V310.105Z" fill="#296F8E"/>
<path d="M387.526 316.474H372.242L370.969 312.653H388.8L387.526 316.474Z" fill="#1E2630"/>
<path d="M382.432 333.668C382.432 333.668 381.795 339.4 379.884 339.4C377.974 339.4 377.337 333.668 377.337 333.668V316.474H382.432V333.668Z" fill="#1E2630"/>
<path d="M372.242 306.284H370.969V310.105H372.242V306.284Z" fill="#296F8E"/>
<path d="M381.158 307.558H378.611V310.105H381.158V307.558Z" fill="#296F8E"/>
<path d="M376.063 307.558H374.79V310.105H376.063V307.558Z" fill="#296F8E"/>
<path d="M384.979 307.558H383.705V310.105H384.979V307.558Z" fill="#296F8E"/>
<path d="M388.8 307.558H387.526V310.105H388.8V307.558Z" fill="#296F8E"/>
<path d="M388.8 306.284H370.969V307.558H388.8V306.284Z" fill="#296F8E"/>
<path d="M383.316 324.751C383.316 327.695 384.042 331.214 379.466 330.496C377.142 330.137 375.181 330.424 375.181 327.408C375.181 325.972 374.963 325.397 375.036 323.53C375.036 322.597 372.421 319.581 372.857 319.006C373.438 318.216 374.963 318.432 376.706 319.293C376.706 321.304 377.796 321.878 379.031 322.812C380.774 324.248 383.316 323.602 383.316 324.751Z" fill="#296F8E"/>
<path d="M383.705 333.031H376.063V336.853H383.705V333.031Z" fill="#1E2630"/>
<path d="M384.979 303.737H374.79V306.284H384.979V303.737Z" fill="#1E2630"/>
</g>
<rect opacity="0.6" width="500" height="625" fill="#293C4C"/>
</g>
<defs>
<linearGradient id="paint0_linear" x1="234" y1="15" x2="234" y2="548.75" gradientUnits="userSpaceOnUse">
<stop stop-color="#3F7494"/>
<stop offset="1" stop-color="#8EC9DC"/>
</linearGradient>
<linearGradient id="paint1_linear" x1="18" y1="268" x2="18" y2="342" gradientUnits="userSpaceOnUse">
<stop stop-color="white" stop-opacity="0.5"/>
<stop offset="1" stop-color="white" stop-opacity="0"/>
</linearGradient>
<linearGradient id="paint2_linear" x1="423.946" y1="280.161" x2="423.946" y2="126" gradientUnits="userSpaceOnUse">
<stop stop-color="white" stop-opacity="0"/>
<stop offset="1" stop-color="white" stop-opacity="0.7"/>
</linearGradient>
<linearGradient id="paint3_linear" x1="79.946" y1="462.161" x2="79.946" y2="308" gradientUnits="userSpaceOnUse">
<stop stop-color="white" stop-opacity="0"/>
<stop offset="1" stop-color="white" stop-opacity="0.7"/>
</linearGradient>
<linearGradient id="paint4_linear" x1="401.55" y1="334" x2="401.55" y2="396" gradientUnits="userSpaceOnUse">
<stop stop-color="white" stop-opacity="0.71"/>
<stop offset="1" stop-color="white" stop-opacity="0"/>
</linearGradient>
<linearGradient id="paint5_linear" x1="100" y1="898" x2="138.306" y2="373.796" gradientUnits="userSpaceOnUse">
<stop stop-color="#951513"/>
<stop offset="0.651042" stop-color="#BE2A26"/>
<stop offset="1" stop-color="#D73F36"/>
</linearGradient>
<clipPath id="clip0">
<rect width="500" height="625" fill="white"/>
</clipPath>
<clipPath id="clip1">
<rect width="242" height="242" fill="white" transform="translate(292 291)"/>
</clipPath>
</defs>
</svg>
