<svg width="500" height="625" fill="none"
  xmlns="http://www.w3.org/2000/svg">
  <g clip-path="url(#clip0)">
    <path fill="url(#paint0_linear)" d="M0 0h500v625H0z"/>
    <path d="M284 342s-177.211-.253-305.222-.253C-71.857 341.747-249 342-249 342c0-16.273 126.986 5.612 212.403-39.281 29.924-15.729 51.75 23.367 81.43 25.813 15.495 1.28 34.48-11.391 51.25-10.1 8.684.667 61.085 15.156 92.82 14.59C251.542 331.899 284 334.929 284 342z" fill="url(#paint1_linear)"/>
    <path d="M511.514 254.898c-13.035.13-22.883 10.966-32.272 10.801-9.39-.164-23.57-27.699-55.116-27.699-39.157 0-57.653 35.368-68.166 35.368-11.878 0-18.458-5.926-30.095-5.926-30.521 0-25.021 9.405-47.865 12.72h291.892c-34.449-6.794-33.69-25.508-58.378-25.264z" fill="url(#paint2_linear)"/>
    <path d="M167.514 436.898c-13.035.13-22.883 10.966-32.272 10.801-9.39-.164-23.57-27.699-55.116-27.699-39.157 0-57.653 35.368-68.166 35.368-11.878 0-18.458-5.926-30.095-5.926-30.52 0-25.021 9.405-47.865 12.72h291.892c-34.449-6.794-33.69-25.508-58.378-25.264z" fill="url(#paint3_linear)"/>
    <path d="M549.1 396.04s-24.353.238-121.767.238c-38.532 0-173.333.195-173.333.195 0-12.566 132.167 1.3 157.733-9.533 23.764-10.071 43.282-2.756 65.867-.867 11.791.988 27.972-17.03 40.733-16.033 17.867 1.395 30.767 22.061 30.767 26z" fill="url(#paint4_linear)"/>
    <path d="M-48 904c260.126 0 471-88.872 471-198.5C423 595.871 212.126 507-48 507s-471 88.871-471 198.5C-519 815.128-308.126 904-48 904z" fill="#951513"/>
    <path d="M382 904c260.126 0 471-88.872 471-198.5C853 595.871 642.126 507 382 507S-89 595.871-89 705.5C-89 815.128 121.874 904 382 904z" fill="url(#paint5_linear)"/>
    <g clip-path="url(#clip1)">
      <path d="M420.642 386.526c0 12.495-6.764 14.011-13.374 14.011-6.609 0-13.373-1.516-13.373-14.011 0-3.446 2.547-7.46 2.547-10.189 0-16.516 5.161-20.379 10.826-20.379 5.448 0 10.1 3.863 10.827 20.379.145 3.303 2.547 5.809 2.547 10.189z" fill="#293C4C"/>
      <path d="M446.116 522.811H374.79V533h71.326v-10.189z" fill="#1E2630"/>
      <path d="M435.926 466.768h-50.947v56.042h50.947v-56.042z" fill="#293C4C"/>
      <path d="M395.168 466.768h-5.094v56.042h5.094v-56.042zM404.084 466.768h-5.094v56.042h5.094v-56.042zM413 466.768h-5.095v56.042H413v-56.042zM421.916 466.768h-5.095v56.042h5.095v-56.042z" fill="#335267"/>
      <path d="M447.232 438.929c-.146 4.38-3.559 7.899-7.99 7.899-4.43 0-7.989-3.519-7.989-7.899 0-15.799 3.559-17.953 7.989-17.953 4.431 0 8.716-.718 7.99 17.953z" fill="#1E2630"/>
      <path d="M430.832 466.768h-5.095v56.042h5.095v-56.042z" fill="#335267"/>
      <path d="M383.705 513.895l35.663-21.653v-58.589h-35.663v80.242z" fill="#1E2630"/>
      <path d="M447.159 403.024l10.604 6.606c1.09.647 1.38 2.011.726 3.088l-16.56 26.929a2.337 2.337 0 01-3.413.574l-9.442-7.683c-.872-.718-1.09-1.939-.509-2.873l15.398-25.78a2.324 2.324 0 013.196-.861z" fill="#8EC9DC"/>
      <path d="M437.2 474.789l-25.904 13.632V423.85h-17.401v-35.873l7.642-2.724v-10.19H413v10.19l24.2 10.616v78.92z" fill="#296F8E"/>
      <path d="M437.2 427.284l-15.102-15.141-5.823 22.354h-33.764v-37.781l-7.721-10.19 5.094-20.379h12.737l6.369 19.106 10.189 2.547 3.821-2.547 24.2 10.189v31.842z" fill="#8EC9DC"/>
      <path d="M407.268 381.432c-3.852 0-7.005-3.224-7.005-7.165v-8.597c0-2.149.911-4.084 2.382-5.374 1.261-1.074 2.872-1.791 4.623-1.791 3.853 0 7.006 3.224 7.006 7.165v8.597c0 3.941-3.153 7.165-7.006 7.165z" fill="#296F8E"/>
      <path d="M382.432 478.232l33.43-28.021 7.646-31.843 13.692 24.2v-47.126L413 385.253l-30.568 45.852v47.127z" fill="#335267"/>
      <path d="M407.284 355.629c1.453 0 1.453 5.027-1.452 6.463-2.325 1.149-4.358.718-5.811 3.591-1.453-.719-1.453-4.309 0-6.463 1.453-2.155 4.358-3.591 7.263-3.591z" fill="#293C4C"/>
      <path d="M407.139 355.629c-1.453 0-1.453 5.027 1.453 6.463 2.324 1.149 4.358.718 5.81 3.591 1.453-.719 1.453-4.309 0-6.463-1.452-2.155-4.358-3.591-7.263-3.591z" fill="#293C4C"/>
      <path d="M383.705 300.998c0 2.133-1.268 4.013-3.821 4.013-2.552 0-3.821-1.88-3.821-4.013 0-2.326 1.715-3.09 1.092-5.158.747-.452 1.638 2.293 2.729 2.293 1.092 0 .546-4.586 3.821-4.586-2.183 3.439 0 4.866 0 7.451z" fill="#8EC9DC"/>
      <path d="M416.944 362.882l11.403-7.253-13.437 3.806a7.569 7.569 0 00-.726-.862l7.191-10.987-11.404 8.402c-.217-.072-.363-.072-.581-.143l-2.832-13.142-2.107 13.142-11.257-8.259 7.19 10.987c-.218.288-.508.575-.726.862l-13.437-3.806 11.403 7.253-11.403.646c9.584 2.619 14.042 3.893 14.042 3.893 0-4.308 2.647-8.919 7.005-8.919 4.358 0 7.006 4.611 7.006 8.919 4.603-1.138 9.454-2.705 14.073-3.893l-11.403-.646z" fill="#1E2630"/>
      <path d="M392.621 366.147l-8.916 10.19-6.368-42.032v-11.463l2.547-3.821s5.095 3.496 5.095 6.368v8.916l7.642 31.842z" fill="#296F8E"/>
      <path d="M388.8 306.284h-17.831v5.095H388.8v-5.095z" fill="#293C4C"/>
      <path d="M447.595 422.628c-.872 1.436.581 2.872.653 3.949.073 1.078-.145 2.227.654 2.657 1.307.647 3.559-.287 5.302-3.303 1.743-2.944 1.308-3.949.509-6.391-.218-.718-1.575-3.647-2.229-3.719-1.234-.072-1.403 1.349-2.202 3.504-.581 1.508-2.179 2.369-2.687 3.303zM388.8 310.105h-17.831v2.548H388.8v-2.548z" fill="#296F8E"/>
      <path d="M387.526 316.474h-15.284l-1.273-3.821H388.8l-1.274 3.821zM382.432 333.668s-.637 5.732-2.548 5.732c-1.91 0-2.547-5.732-2.547-5.732v-17.194h5.095v17.194z" fill="#1E2630"/>
      <path d="M372.242 306.284h-1.273v3.821h1.273v-3.821zM381.158 307.558h-2.547v2.547h2.547v-2.547zM376.063 307.558h-1.273v2.547h1.273v-2.547zM384.979 307.558h-1.274v2.547h1.274v-2.547zM388.8 307.558h-1.274v2.547h1.274v-2.547z" fill="#296F8E"/>
      <path d="M388.8 306.284h-17.831v1.274H388.8v-1.274zM383.316 324.751c0 2.944.726 6.463-3.85 5.745-2.324-.359-4.285-.072-4.285-3.088 0-1.436-.218-2.011-.145-3.878 0-.933-2.615-3.949-2.179-4.524.581-.79 2.106-.574 3.849.287 0 2.011 1.09 2.585 2.325 3.519 1.743 1.436 4.285.79 4.285 1.939z" fill="#296F8E"/>
      <path d="M383.705 333.031h-7.642v3.822h7.642v-3.822zM384.979 303.737H374.79v2.547h10.189v-2.547z" fill="#1E2630"/>
    </g>
    <path d="M380 197c6.659 0 6.675-10 0-10-6.659 0-6.675 10 0 10z" fill="#fff"/>
    <path d="M386.5 84c5.996 0 6.004-9 0-9-5.996 0-6.004 9 0 9z" fill="#335267"/>
    <path d="M34.5 110c5.996 0 6.004-9 0-9-5.996 0-6.004 9 0 9z" fill="#fff"/>
    <path d="M410.5 149c1.309 0 2.558-1.15 2.498-2.5-.06-1.355-1.099-2.5-2.498-2.5-1.309 0-2.558 1.15-2.498 2.5.06 1.355 1.099 2.5 2.498 2.5zM58.5 141c5.497 0 10.743-4.83 10.491-10.5-.251-5.691-4.616-10.5-10.491-10.5-5.497 0-10.743 4.83-10.491 10.5.252 5.691 4.616 10.5 10.491 10.5z" fill="#335267"/>
    <path opacity=".6" fill="#293C4C" d="M0 0h500v625H0z"/>
    <path d="M454.588 247c0-8.324 7.412-12.99 7.412-12.99-6.242 0-7.412-15.01-7.412-15.01h-.176s-1.17 15.01-7.412 15.01c0 0 7.588 3.583 7.588 11.908V247zM177.059 70c0-5.945 4.941-9.277 4.941-9.277-4.163 0-4.941-10.723-4.941-10.723h-.118s-.782 10.723-4.941 10.723c0 0 5.059 2.56 5.059 8.504V70zM420.647 118c0-14.268 12.353-22.265 12.353-22.265-10.407 0-12.353-25.735-12.353-25.735h-.294S418.397 95.735 408 95.735c0 0 12.647 6.142 12.647 20.41V118zM470.071 124c0-6.837 5.929-10.669 5.929-10.669-4.995 0-5.929-12.331-5.929-12.331h-.142s-.938 12.331-5.929 12.331c0 0 6.071 2.943 6.071 9.78V124z" fill="#F8C066"/>
  </g>
  <defs>
    <linearGradient id="paint0_linear" x1="234" y1="15" x2="234" y2="548.75" gradientUnits="userSpaceOnUse">
      <stop stop-color="#3F7494"/>
      <stop offset="1" stop-color="#8EC9DC"/>
    </linearGradient>
    <linearGradient id="paint1_linear" x1="18" y1="268" x2="18" y2="342" gradientUnits="userSpaceOnUse">
      <stop stop-color="#fff" stop-opacity=".5"/>
      <stop offset="1" stop-color="#fff" stop-opacity="0"/>
    </linearGradient>
    <linearGradient id="paint2_linear" x1="423.946" y1="280.161" x2="423.946" y2="126" gradientUnits="userSpaceOnUse">
      <stop stop-color="#fff" stop-opacity="0"/>
      <stop offset="1" stop-color="#fff" stop-opacity=".7"/>
    </linearGradient>
    <linearGradient id="paint3_linear" x1="79.946" y1="462.161" x2="79.946" y2="308" gradientUnits="userSpaceOnUse">
      <stop stop-color="#fff" stop-opacity="0"/>
      <stop offset="1" stop-color="#fff" stop-opacity=".7"/>
    </linearGradient>
    <linearGradient id="paint4_linear" x1="401.55" y1="334" x2="401.55" y2="396" gradientUnits="userSpaceOnUse">
      <stop stop-color="#fff" stop-opacity=".71"/>
      <stop offset="1" stop-color="#fff" stop-opacity="0"/>
    </linearGradient>
    <linearGradient id="paint5_linear" x1="100" y1="898" x2="138.306" y2="373.796" gradientUnits="userSpaceOnUse">
      <stop stop-color="#951513"/>
      <stop offset=".651" stop-color="#BE2A26"/>
      <stop offset="1" stop-color="#D73F36"/>
    </linearGradient>
    <clipPath id="clip0">
      <path fill="#fff" d="M0 0h500v625H0z"/>
    </clipPath>
    <clipPath id="clip1">
      <path fill="#fff" transform="translate(292 291)" d="M0 0h242v242H0z"/>
    </clipPath>
  </defs>
</svg>