<svg width="500" height="625" viewBox="0 0 500 625" fill="none" xmlns="http://www.w3.org/2000/svg">
<g clip-path="url(#clip0)">
<rect width="500" height="625" fill="url(#paint0_linear)"/>
<path d="M284 342C284 342 106.789 341.747 -21.2222 341.747C-71.8572 341.747 -249 342 -249 342C-249 325.727 -122.014 347.612 -36.5972 302.719C-6.67293 286.99 15.1539 326.086 44.8333 328.532C60.3279 329.812 79.3132 317.141 96.0833 318.432C104.767 319.099 157.168 333.588 188.903 333.022C251.542 331.899 284 334.929 284 342Z" fill="url(#paint1_linear)"/>
<path d="M511.514 254.898C498.479 255.028 488.631 265.864 479.242 265.699C469.852 265.535 455.672 238 424.126 238C384.969 238 366.473 273.368 355.96 273.368C344.082 273.368 337.502 267.442 325.865 267.442C295.344 267.442 300.844 276.847 278 280.162C326.951 280.162 491.572 280.162 569.892 280.162C535.443 273.368 536.202 254.654 511.514 254.898Z" fill="url(#paint2_linear)"/>
<path d="M167.514 436.898C154.479 437.028 144.631 447.864 135.242 447.699C125.852 447.535 111.672 420 80.126 420C40.9688 420 22.4732 455.368 11.9596 455.368C0.0820999 455.368 -6.4977 449.442 -18.1352 449.442C-48.6556 449.442 -43.156 458.847 -66 462.162C-17.0494 462.162 147.572 462.162 225.892 462.162C191.443 455.368 192.202 436.654 167.514 436.898Z" fill="url(#paint3_linear)"/>
<path d="M549.1 396.04C549.1 396.04 524.747 396.278 427.333 396.278C388.801 396.278 254 396.473 254 396.473C254 383.907 386.167 397.773 411.733 386.94C435.497 376.869 455.015 384.184 477.6 386.073C489.391 387.061 505.572 369.043 518.333 370.04C536.2 371.435 549.1 392.101 549.1 396.04Z" fill="url(#paint4_linear)"/>
<path d="M-48 904C212.126 904 423 815.128 423 705.5C423 595.871 212.126 507 -48 507C-308.126 507 -519 595.871 -519 705.5C-519 815.128 -308.126 904 -48 904Z" fill="#293C4C"/>
<path d="M382 904C642.126 904 853 815.128 853 705.5C853 595.871 642.126 507 382 507C121.874 507 -89 595.871 -89 705.5C-89 815.128 121.874 904 382 904Z" fill="url(#paint5_linear)"/>
<path d="M474.484 531C406.242 487.43 411.55 277.225 411.55 277.225H407H402.451C402.451 277.225 407.758 487.43 339.517 531C339.972 531 360.596 531 378.945 531V514.184C378.945 498.59 391.532 485.901 407 485.901C422.468 485.901 435.055 498.59 435.055 514.184V531C453.405 531 474.029 531 474.484 531ZM406.242 376.594H407H407.758L410.791 423.986H407H403.209L406.242 376.594ZM407 472.142H394.11L398.205 447.606C398.887 443.249 402.678 440.038 407 440.038C411.322 440.038 415.113 443.249 415.796 447.606L419.89 472.142H407Z" fill="#D73F36"/>
<path d="M383.495 527.178H338V531H383.495V527.178Z" fill="#951513"/>
<path d="M400.176 283.34V290.984C400.176 292.283 401.161 293.277 402.451 293.277H411.549C412.838 293.277 413.824 292.283 413.824 290.984V283.34H400.176Z" fill="#F17462"/>
<path d="M384.253 423.986V425.362C384.253 426.662 385.314 427.808 386.679 427.808H407H427.321C428.61 427.808 429.747 426.738 429.747 425.362V423.986H384.253Z" fill="#F17462"/>
<path d="M427.169 427.808H386.755V435.452H427.169V427.808Z" fill="#951513"/>
<path d="M370.604 472.143V472.907C370.604 474.589 371.969 475.964 373.637 475.964H407H440.363C442.031 475.964 443.396 474.589 443.396 472.907V472.143H370.604Z" fill="#F17462"/>
<path d="M441.121 475.964H372.955V483.608H441.121V475.964Z" fill="#951513"/>
<path d="M430.506 531L476 531L476 527.178L430.506 527.178L430.506 531Z" fill="#951513"/>
<path d="M409.275 272.638H404.725V277.225H409.275V272.638Z" fill="#F17462"/>
<path d="M407.758 252H406.242V272.638H407.758V252Z" fill="#F17462"/>
<path d="M380 197C386.659 197 386.675 187 380 187C373.341 187 373.325 197 380 197Z" fill="white"/>
<path d="M386.5 84C392.496 84 392.504 75 386.5 75C380.504 75 380.496 84 386.5 84Z" fill="#BE2A26"/>
<path d="M34.5 110C40.4958 110 40.5042 101 34.5 101C28.5042 101 28.4958 110 34.5 110Z" fill="white"/>
<path d="M410.5 149C411.809 149 413.058 147.85 412.998 146.5C412.938 145.145 411.899 144 410.5 144C409.191 144 407.942 145.15 408.002 146.5C408.062 147.855 409.101 149 410.5 149Z" fill="#8EC9DC"/>
<path d="M58.5 141C63.9974 141 69.2431 136.17 68.9913 130.5C68.7395 124.809 64.3751 120 58.5 120C53.0026 120 47.7569 124.83 48.0087 130.5C48.2605 136.191 52.6249 141 58.5 141Z" fill="#8EC9DC"/>
<rect opacity="0.6" width="500" height="625" fill="#293C4C"/>
<path d="M454.588 247C454.588 238.676 462 234.01 462 234.01C455.758 234.01 454.588 219 454.588 219H454.412C454.412 219 453.242 234.01 447 234.01C447 234.01 454.588 237.593 454.588 245.918V247Z" fill="#F8C066"/>
<path d="M177.059 70C177.059 64.0548 182 60.7229 182 60.7229C177.837 60.7229 177.059 50 177.059 50H176.941C176.941 50 176.159 60.7229 172 60.7229C172 60.7229 177.059 63.2821 177.059 69.2273V70Z" fill="#F8C066"/>
<path d="M420.647 118C420.647 103.732 433 95.7349 433 95.7349C422.593 95.7349 420.647 70 420.647 70H420.353C420.353 70 418.397 95.7349 408 95.7349C408 95.7349 420.647 101.877 420.647 116.145V118Z" fill="#F8C066"/>
<path d="M470.071 124C470.071 117.163 476 113.331 476 113.331C471.005 113.331 470.071 101 470.071 101H469.929C469.929 101 468.991 113.331 464 113.331C464 113.331 470.071 116.274 470.071 123.111V124Z" fill="#F8C066"/>
</g>
<defs>
<linearGradient id="paint0_linear" x1="234" y1="15" x2="234" y2="548.75" gradientUnits="userSpaceOnUse">
<stop stop-color="#3F7494"/>
<stop offset="1" stop-color="#FFC8C2"/>
</linearGradient>
<linearGradient id="paint1_linear" x1="18" y1="268" x2="18" y2="342" gradientUnits="userSpaceOnUse">
<stop stop-color="white" stop-opacity="0.5"/>
<stop offset="1" stop-color="white" stop-opacity="0"/>
</linearGradient>
<linearGradient id="paint2_linear" x1="423.946" y1="280.161" x2="423.946" y2="126" gradientUnits="userSpaceOnUse">
<stop stop-color="white" stop-opacity="0"/>
<stop offset="1" stop-color="white" stop-opacity="0.7"/>
</linearGradient>
<linearGradient id="paint3_linear" x1="79.946" y1="462.161" x2="79.946" y2="308" gradientUnits="userSpaceOnUse">
<stop stop-color="white" stop-opacity="0"/>
<stop offset="1" stop-color="white" stop-opacity="0.7"/>
</linearGradient>
<linearGradient id="paint4_linear" x1="401.55" y1="334" x2="401.55" y2="396" gradientUnits="userSpaceOnUse">
<stop stop-color="white" stop-opacity="0.71"/>
<stop offset="1" stop-color="white" stop-opacity="0"/>
</linearGradient>
<linearGradient id="paint5_linear" x1="100" y1="898" x2="138.306" y2="373.796" gradientUnits="userSpaceOnUse">
<stop stop-color="#323C46"/>
<stop offset="0.651042" stop-color="#335267"/>
<stop offset="1" stop-color="#3F7494"/>
</linearGradient>
<clipPath id="clip0">
<rect width="500" height="625" fill="white"/>
</clipPath>
</defs>
</svg>
