<svg width="1440" height="480" fill="none" xmlns="http://www.w3.org/2000/svg">
  <g clip-path="url(#clip0)">
    <path d="M0 0h1440v480H0V0z" fill="url(#paint0_linear)"/>
    <path d="M534 178s-252.019-.358-434.068-.358C27.922 177.642-224 178-224 178c0-23.086 180.592 7.961 302.066-55.724 42.557-22.313 73.598 33.148 115.806 36.619 22.035 1.815 49.035-16.16 72.884-14.329 12.35.947 86.871 21.501 132.003 20.697C487.84 163.671 534 167.97 534 178z" fill="url(#paint1_linear)"/>
    <path d="M1021.51 81.898c-13.03.13-22.879 10.966-32.268 10.801-9.39-.164-23.57-27.699-55.116-27.699-39.157 0-57.653 35.368-68.166 35.368-11.878 0-18.458-5.926-30.095-5.926-30.521 0-25.021 9.405-47.865 12.72h291.89c-34.45-6.794-33.69-25.508-58.38-25.264z" fill="url(#paint2_linear)"/>
    <path d="M1127.51 323.898c-13.03.13-22.88 10.966-32.27 10.801-9.39-.164-23.57-27.699-55.11-27.699-39.16 0-57.657 35.368-68.17 35.368-11.878 0-18.458-5.926-30.095-5.926-30.521 0-25.021 9.405-47.865 12.72h291.89c-34.45-6.794-33.69-25.508-58.38-25.264z" fill="url(#paint3_linear)"/>
    <path d="M1419.1 313.04s-24.35.238-121.77.238c-38.53 0-173.33.195-173.33.195 0-12.566 132.17 1.3 157.73-9.533 23.77-10.071 43.28-2.756 65.87-.867 11.79.988 27.97-17.03 40.73-16.033 17.87 1.395 30.77 22.061 30.77 26z" fill="url(#paint4_linear)"/>
    <path d="M723 846c332.48 0 602-113.496 602-253.5 0-140.004-269.52-253.5-602-253.5-332.475 0-602 113.496-602 253.5C121 732.504 390.525 846 723 846z" fill="#323C46"/>
    <path d="M1252 781c260.13 0 471-88.872 471-198.5 0-109.629-210.87-198.5-471-198.5-260.126 0-471 88.871-471 198.5C781 692.128 991.874 781 1252 781z" fill="url(#paint5_linear)"/>
    <path d="M99 788c276.695 0 501-94.692 501-211.5S375.695 365 99 365s-501 94.692-501 211.5S-177.695 788 99 788z" fill="url(#paint6_linear)"/>
    <path d="M1331.79 427.37c-99.39-63.461-91.66-369.63-91.66-369.63h-13.26s7.73 306.169-91.66 369.63h57.43v-24.494c0-22.712 18.33-41.194 40.86-41.194s40.86 18.482 40.86 41.194v24.494h57.43zm-99.39-224.895h2.2l4.42 69.027h-11.04l4.42-69.027zm1.1 139.167h-18.77l5.96-35.738c.99-6.346 6.52-11.022 12.81-11.022 6.3 0 11.82 4.676 12.81 11.022l5.96 35.738h-18.77z" fill="#D7323E"/>
    <path d="M1199.26 421.803H1133v5.567h66.26v-5.567z" fill="#882834"/>
    <path d="M1223.56 66.647v11.134c0 1.892 1.44 3.34 3.31 3.34h13.26c1.87 0 3.31-1.448 3.31-3.34V66.647h-19.88zM1200.37 271.502v2.004c0 1.893 1.54 3.563 3.53 3.563h59.2c1.87 0 3.53-1.559 3.53-3.563v-2.004h-66.26z" fill="#EE6A63"/>
    <path d="M1262.88 277.068h-58.87v11.134h58.87v-11.134z" fill="#882834"/>
    <path d="M1180.49 341.643v1.113c0 2.449 1.99 4.453 4.42 4.453h97.18c2.43 0 4.42-2.004 4.42-4.453v-1.113h-106.02z" fill="#EE6A63"/>
    <path d="M1283.2 347.209h-99.29v11.133h99.29v-11.133zM1267.74 427.37H1334v-5.567h-66.26v5.567z" fill="#882834"/>
    <path d="M1236.81 51.06h-6.62v6.68h6.62v-6.68zM1234.61 21h-2.21v30.06h2.21V21zM822.5 76c5.799 0 10.5-4.477 10.5-10s-4.701-10-10.5-10S812 60.477 812 66s4.701 10 10.5 10z" fill="#EE6A63"/>
    <path d="M361.306 435.683c9.413 0 9.436-14.637 0-14.637-9.413 0-9.435 14.637 0 14.637z" fill="#F8C06D"/>
    <path d="M304.664 267.328c16.865 0 16.906-25.328 0-25.328-16.865 0-16.906 25.328 0 25.328z" fill="#EE6A63"/>
    <path d="M381.983 323.386c7.972 0 7.983-12.386 0-12.386-7.972 0-7.983 12.386 0 12.386zM999.983 144.386c7.967 0 7.987-12.386 0-12.386-7.972 0-7.983 12.386 0 12.386z" fill="#83C2D6"/>
    <path d="M70.72 231.635c11.617 0 11.633-17.439 0-17.439-11.618 0-11.635 17.439 0 17.439z" fill="#F8C06D"/>
    <path d="M121.862 412.66c6.656 0 6.656-10.336 0-10.336-6.636 0-6.657 10.336 0 10.336zM394.393 411.2c1.657 0 3.239-1.456 3.163-3.166-.076-1.716-1.392-3.166-3.163-3.166-1.658 0-3.24 1.457-3.164 3.166.076 1.716 1.392 3.166 3.164 3.166z" fill="#EE6A63"/>
    <path d="M1320.01 41c26.62 0 26.68-40 0-40s-26.68 40 0 40zM166.008 343c18.635 0 18.677-28 0-28s-18.677 28 0 28zM1267.81 94.882c5.07 0 5.08-7.882 0-7.882s-5.08 7.882 0 7.882z" fill="#83C2D6"/>
    <path d="M1367.72 236c10.29 0 10.31-16 0-16-10.28 0-10.31 16 0 16z" fill="#F8C06D"/>
    <path d="M1319.5 298.996c12.65 0 12.67-18.996 0-18.996s-12.67 18.996 0 18.996z" fill="#EE6A63"/>
    <path opacity=".6" fill="#323C46" d="M0-177h1440v750H0z"/>
    <path d="M367.443 121.534c0-13.834 12.155-21.588 12.155-21.588-10.236 0-12.155-24.946-12.155-24.946h-.288S365.236 99.946 355 99.946c0 0 12.443 5.955 12.443 19.789v1.799zM951.222 441c0-21.405 18.778-33.402 18.778-33.402-15.813 0-18.778-38.598-18.778-38.598h-.444s-2.965 38.598-18.778 38.598c0 0 19.222 9.213 19.222 30.618V441zM304.718 75.868c0-8.581 7.537-13.39 7.537-13.39-6.35 0-7.537-15.478-7.537-15.478h-.18S303.344 62.477 297 62.477c0 0 7.718 3.694 7.718 12.275v1.116zM242.718 325.868c0-8.581 7.537-13.391 7.537-13.391-6.35 0-7.537-15.477-7.537-15.477h-.18s-1.194 15.477-7.538 15.477c0 0 7.718 3.694 7.718 12.275v1.116zM1088.17 164c0-15.755 13.83-24.584 13.83-24.584-11.66 0-13.83-28.416-13.83-28.416h-.34s-2.19 28.416-13.83 28.416c0 0 14.17 6.782 14.17 22.536V164zM1140.07 184c0-6.837 5.93-10.669 5.93-10.669-5 0-5.93-12.331-5.93-12.331h-.14s-.94 12.331-5.93 12.331c0 0 6.07 2.943 6.07 9.78V184z" fill="#F8C06D"/>
  </g>
  <defs>
    <linearGradient id="paint0_linear" x1="2311" y1="240" x2="-21" y2="240" gradientUnits="userSpaceOnUse">
      <stop stop-color="#FFC8C2"/>
      <stop offset="1" stop-color="#335267"/>
    </linearGradient>
    <linearGradient id="paint1_linear" x1="155.711" y1="73.023" x2="155.711" y2="178" gradientUnits="userSpaceOnUse">
      <stop stop-color="#fff" stop-opacity=".5"/>
      <stop offset="1" stop-color="#fff" stop-opacity="0"/>
    </linearGradient>
    <linearGradient id="paint2_linear" x1="933.946" y1="107.161" x2="933.946" y2="-47" gradientUnits="userSpaceOnUse">
      <stop stop-color="#fff" stop-opacity="0"/>
      <stop offset="1" stop-color="#fff" stop-opacity=".7"/>
    </linearGradient>
    <linearGradient id="paint3_linear" x1="1039.95" y1="349.161" x2="1039.95" y2="195" gradientUnits="userSpaceOnUse">
      <stop stop-color="#fff" stop-opacity="0"/>
      <stop offset="1" stop-color="#fff" stop-opacity=".7"/>
    </linearGradient>
    <linearGradient id="paint4_linear" x1="1271.55" y1="251" x2="1271.55" y2="313" gradientUnits="userSpaceOnUse">
      <stop stop-color="#fff" stop-opacity=".71"/>
      <stop offset="1" stop-color="#fff" stop-opacity="0"/>
    </linearGradient>
    <linearGradient id="paint5_linear" x1="970" y1="775" x2="1008.31" y2="250.796" gradientUnits="userSpaceOnUse">
      <stop stop-color="#323C46"/>
      <stop offset=".651" stop-color="#335267"/>
      <stop offset="1" stop-color="#3F7494"/>
    </linearGradient>
    <linearGradient id="paint6_linear" x1="-200.962" y1="781.607" x2="757.994" y2="696.916" gradientUnits="userSpaceOnUse">
      <stop stop-color="#323C46"/>
      <stop offset=".651" stop-color="#335267"/>
      <stop offset="1" stop-color="#3F7494"/>
    </linearGradient>
    <clipPath id="clip0">
      <path fill="#fff" d="M0 0h1440v480H0z"/>
    </clipPath>
  </defs>
</svg>
