<svg width="500" height="625" fill="none"
  xmlns="http://www.w3.org/2000/svg">
  <g clip-path="url(#clip0)">
    <path fill="url(#paint0_linear)" d="M0 0h500v625H0z"/>
    <path d="M284 342s-177.211-.253-305.2222-.253C-71.8572 341.747-249 342-249 342c0-16.273 126.986 5.612 212.4028-39.281 29.92427-15.729 51.7511 23.367 81.4305 25.813 15.4946 1.28 34.4799-11.391 51.25-10.1 8.6837.667 61.0847 15.156 92.8197 14.59C251.542 331.899 284 334.929 284 342z" fill="url(#paint1_linear)"/>
    <path d="M511.514 254.898c-13.035.13-22.883 10.966-32.272 10.801-9.39-.164-23.57-27.699-55.116-27.699-39.157 0-57.653 35.368-68.166 35.368-11.878 0-18.458-5.926-30.095-5.926-30.521 0-25.021 9.405-47.865 12.72h291.892c-34.449-6.794-33.69-25.508-58.378-25.264z" fill="url(#paint2_linear)"/>
    <path d="M167.514 436.898c-13.035.13-22.883 10.966-32.272 10.801-9.39-.164-23.57-27.699-55.116-27.699-39.1572 0-57.6528 35.368-68.1664 35.368-11.8775001 0-18.4573-5.926-30.0948-5.926-30.5204 0-25.0208 9.405-47.8648 12.72h291.892c-34.449-6.794-33.69-25.508-58.378-25.264z" fill="url(#paint3_linear)"/>
    <path d="M549.1 396.04s-24.353.238-121.767.238c-38.532 0-173.333.195-173.333.195 0-12.566 132.167 1.3 157.733-9.533 23.764-10.071 43.282-2.756 65.867-.867 11.791.988 27.972-17.03 40.733-16.033 17.867 1.395 30.767 22.061 30.767 26z" fill="url(#paint4_linear)"/>
    <path d="M-48 904c260.126 0 471-88.872 471-198.5C423 595.871 212.126 507-48 507s-471 88.871-471 198.5C-519 815.128-308.126 904-48 904z" fill="#323C46"/>
    <path d="M382 904c260.126 0 471-88.872 471-198.5C853 595.871 642.126 507 382 507S-89 595.871-89 705.5C-89 815.128 121.874 904 382 904z" fill="url(#paint5_linear)"/>
    <path d="M474.483 531c-68.242-43.57-62.934-253.775-62.934-253.775h-9.099S407.757 487.43 339.516 531h39.428v-16.816c0-15.594 12.587-28.283 28.055-28.283s28.055 12.689 28.055 28.283V531h39.429zm-68.242-154.406h1.516l3.033 47.392h-7.582l3.033-47.392zm.758 95.548h-12.89l4.095-24.536c.682-4.357 4.473-7.568 8.795-7.568s8.113 3.211 8.796 7.568l4.094 24.536h-12.89z" fill="#D7323E"/>
    <path d="M383.495 527.178H338V531h45.495v-3.822z" fill="#882834"/>
    <path d="M400.176 283.34v7.644c0 1.299.985 2.293 2.275 2.293h9.098c1.289 0 2.275-.994 2.275-2.293v-7.644h-13.648zM384.252 423.986v1.376c0 1.3 1.061 2.446 2.426 2.446h40.642c1.289 0 2.426-1.07 2.426-2.446v-1.376h-45.494z" fill="#EE6A63"/>
    <path d="M427.17 427.808h-40.414v7.644h40.414v-7.644z" fill="#882834"/>
    <path d="M370.604 472.143v.764c0 1.682 1.364 3.057 3.032 3.057h66.726c1.668 0 3.033-1.375 3.033-3.057v-.764h-72.791z" fill="#EE6A63"/>
    <path d="M441.121 475.964h-68.166v7.644h68.166v-7.644zM430.506 531H476v-3.822h-45.494V531z" fill="#882834"/>
    <path d="M409.274 272.638h-4.549v4.586h4.549v-4.586zM407.759 252h-1.517v20.638h1.517V252z" fill="#EE6A63"/>
    <path opacity=".6" fill="#323C46" d="M0 0h500v625H0z"/>
  </g>
  <defs>
    <linearGradient id="paint0_linear" x1="234" y1="15" x2="234" y2="548.75" gradientUnits="userSpaceOnUse">
      <stop stop-color="#3F7494"/>
      <stop offset="1" stop-color="#FFC8C2"/>
    </linearGradient>
    <linearGradient id="paint1_linear" x1="18" y1="268" x2="18" y2="342" gradientUnits="userSpaceOnUse">
      <stop stop-color="#fff" stop-opacity=".5"/>
      <stop offset="1" stop-color="#fff" stop-opacity="0"/>
    </linearGradient>
    <linearGradient id="paint2_linear" x1="423.946" y1="280.161" x2="423.946" y2="126" gradientUnits="userSpaceOnUse">
      <stop stop-color="#fff" stop-opacity="0"/>
      <stop offset="1" stop-color="#fff" stop-opacity=".7"/>
    </linearGradient>
    <linearGradient id="paint3_linear" x1="79.946" y1="462.161" x2="79.946" y2="308" gradientUnits="userSpaceOnUse">
      <stop stop-color="#fff" stop-opacity="0"/>
      <stop offset="1" stop-color="#fff" stop-opacity=".7"/>
    </linearGradient>
    <linearGradient id="paint4_linear" x1="401.55" y1="334" x2="401.55" y2="396" gradientUnits="userSpaceOnUse">
      <stop stop-color="#fff" stop-opacity=".71"/>
      <stop offset="1" stop-color="#fff" stop-opacity="0"/>
    </linearGradient>
    <linearGradient id="paint5_linear" x1="100" y1="898" x2="138.306" y2="373.796" gradientUnits="userSpaceOnUse">
      <stop stop-color="#323C46"/>
      <stop offset=".651042" stop-color="#335267"/>
      <stop offset="1" stop-color="#3F7494"/>
    </linearGradient>
    <clipPath id="clip0">
      <path fill="#fff" d="M0 0h500v625H0z"/>
    </clipPath>
  </defs>
</svg>