<svg width="500" height="625" viewBox="0 0 500 625" fill="none" xmlns="http://www.w3.org/2000/svg">
<g clip-path="url(#clip0)">
<rect width="500" height="625" fill="url(#paint0_linear)"/>
<path d="M284 342C284 342 106.789 341.747 -21.2222 341.747C-71.8572 341.747 -249 342 -249 342C-249 325.727 -122.014 347.612 -36.5972 302.719C-6.67293 286.99 15.1539 326.086 44.8333 328.532C60.3279 329.812 79.3132 317.141 96.0833 318.432C104.767 319.099 157.168 333.588 188.903 333.022C251.542 331.899 284 334.929 284 342Z" fill="url(#paint1_linear)"/>
<path d="M511.514 254.898C498.479 255.028 488.631 265.864 479.242 265.699C469.852 265.535 455.672 238 424.126 238C384.969 238 366.473 273.368 355.96 273.368C344.082 273.368 337.502 267.442 325.865 267.442C295.344 267.442 300.844 276.847 278 280.162C326.951 280.162 491.572 280.162 569.892 280.162C535.443 273.368 536.202 254.654 511.514 254.898Z" fill="url(#paint2_linear)"/>
<path d="M167.514 436.898C154.479 437.028 144.631 447.864 135.242 447.699C125.852 447.535 111.672 420 80.126 420C40.9688 420 22.4732 455.368 11.9596 455.368C0.0820999 455.368 -6.4977 449.442 -18.1352 449.442C-48.6556 449.442 -43.156 458.847 -66 462.162C-17.0494 462.162 147.572 462.162 225.892 462.162C191.443 455.368 192.202 436.654 167.514 436.898Z" fill="url(#paint3_linear)"/>
<path d="M549.1 396.04C549.1 396.04 524.747 396.278 427.333 396.278C388.801 396.278 254 396.473 254 396.473C254 383.907 386.167 397.773 411.733 386.94C435.497 376.869 455.015 384.184 477.6 386.073C489.391 387.061 505.572 369.043 518.333 370.04C536.2 371.435 549.1 392.101 549.1 396.04Z" fill="url(#paint4_linear)"/>
<path d="M-48 904C212.126 904 423 815.128 423 705.5C423 595.871 212.126 507 -48 507C-308.126 507 -519 595.871 -519 705.5C-519 815.128 -308.126 904 -48 904Z" fill="#161616"/>
<path d="M382 904C642.126 904 853 815.128 853 705.5C853 595.871 642.126 507 382 507C121.874 507 -89 595.871 -89 705.5C-89 815.128 121.874 904 382 904Z" fill="url(#paint5_linear)"/>
<path d="M492 506.333H302V515H492V506.333Z" fill="#854400"/>
<path d="M479.909 415.333H314.091V424H479.909V415.333Z" fill="#854400"/>
<path d="M481.636 404.067H312.364L308.909 395.4H485.091L481.636 404.067Z" fill="#854400"/>
<path d="M479.909 404.067H314.091V415.333H479.909V404.067Z" fill="#FFE1A8"/>
<path d="M474.727 376.333H319.273V395.4H474.727V376.333Z" fill="#FFE1A8"/>
<path d="M327.909 424H314.091V506.333H327.909V424Z" fill="#FFE1A8"/>
<path d="M358.309 424H344.491V506.333H358.309V424Z" fill="#FFE1A8"/>
<path d="M388.709 424H374.891V506.333H388.709V424Z" fill="#FFE1A8"/>
<path d="M419.109 424H405.291V506.333H419.109V424Z" fill="#FFE1A8"/>
<path d="M449.509 424H435.691V506.333H449.509V424Z" fill="#FFE1A8"/>
<path d="M479.909 424H466.091V506.333H479.909V424Z" fill="#FFE1A8"/>
<path d="M331.364 424H310.636V434.4H331.364V424Z" fill="#D6801C"/>
<path d="M326.182 406.667H322.727V413.6H326.182V406.667Z" fill="#F8C066"/>
<path d="M483.363 424H462.636V434.4H483.363V424Z" fill="#D6801C"/>
<path d="M331.364 495.933H310.636V506.333H331.364V495.933Z" fill="#D6801C"/>
<path d="M361.591 424H340.864V434.4H361.591V424Z" fill="#D6801C"/>
<path d="M361.591 495.933H340.864V506.333H361.591V495.933Z" fill="#D6801C"/>
<path d="M391.818 424H371.091V434.4H391.818V424Z" fill="#D6801C"/>
<path d="M391.818 495.933H371.091V506.333H391.818V495.933Z" fill="#D6801C"/>
<path d="M422.045 424H401.318V434.4H422.045V424Z" fill="#D6801C"/>
<path d="M422.045 495.933H401.318V506.333H422.045V495.933Z" fill="#D6801C"/>
<path d="M453.136 424H432.409V434.4H453.136V424Z" fill="#D6801C"/>
<path d="M453.136 495.933H432.409V506.333H453.136V495.933Z" fill="#D6801C"/>
<path d="M483.363 495.933H462.636V506.333H483.363V495.933Z" fill="#D6801C"/>
<path d="M344.318 406.667H340.864V413.6H344.318V406.667Z" fill="#F8C066"/>
<path d="M362.455 406.667H359V413.6H362.455V406.667Z" fill="#F8C066"/>
<path d="M481.636 378.933H312.364L310.636 375.467H483.363L481.636 378.933Z" fill="#854400"/>
<path d="M380.591 406.667H377.136V413.6H380.591V406.667Z" fill="#F8C066"/>
<path d="M398.727 406.667H395.273V413.6H398.727V406.667Z" fill="#F8C066"/>
<path d="M416.864 406.667H413.409V413.6H416.864V406.667Z" fill="#F8C066"/>
<path d="M435 406.667H431.545V413.6H435V406.667Z" fill="#F8C066"/>
<path d="M453.136 406.667H449.682V413.6H453.136V406.667Z" fill="#F8C066"/>
<path d="M471.273 406.667H467.818V413.6H471.273V406.667Z" fill="#F8C066"/>
<path d="M469.546 391.067H326.182V392.8H469.546V391.067Z" fill="#F8C066"/>
<path d="M457.541 386.3H338.1V388.033H457.541V386.3Z" fill="#F8C066"/>
<path d="M441.65 381.533H354.077V383.267H441.65V381.533Z" fill="#F8C066"/>
<path d="M422.218 369.4H372.991V395.4H422.218V369.4Z" fill="#F8C066"/>
<path d="M400.368 348.6H395.186V369.4H400.368V348.6Z" fill="#FFE1A8"/>
<path d="M398.641 341.667H396.914V362.467H398.641V341.667Z" fill="#FFE1A8"/>
<path d="M397.777 341.667C400.162 341.667 402.095 339.727 402.095 337.333C402.095 334.94 400.162 333 397.777 333C395.392 333 393.459 334.94 393.459 337.333C393.459 339.727 395.392 341.667 397.777 341.667Z" fill="#FFE1A8"/>
<path d="M385.6 352.067H383.614V369.4H390.955V357.44C390.955 354.493 388.536 352.067 385.6 352.067Z" fill="#FFE1A8"/>
<path d="M376.1 356.4H373.077V369.4H380.85V361.167C380.764 358.567 378.691 356.4 376.1 356.4Z" fill="#FFE1A8"/>
<path d="M409.695 352.067H411.682V369.4H404.341V357.44C404.341 354.493 406.759 352.067 409.695 352.067Z" fill="#FFE1A8"/>
<path d="M419.195 356.4H422.218V369.4H414.445V361.167C414.445 358.567 416.604 356.4 419.195 356.4Z" fill="#FFE1A8"/>
<path d="M380 197C386.659 197 386.675 187 380 187C373.341 187 373.325 197 380 197Z" fill="white"/>
<path d="M386.5 84C392.496 84 392.504 75 386.5 75C380.504 75 380.496 84 386.5 84Z" fill="#323232"/>
<path d="M34.5 110C40.4958 110 40.5042 101 34.5 101C28.5042 101 28.4958 110 34.5 110Z" fill="white"/>
<path d="M410.5 149C411.809 149 413.058 147.85 412.998 146.5C412.938 145.145 411.899 144 410.5 144C409.191 144 407.942 145.15 408.002 146.5C408.062 147.855 409.101 149 410.5 149Z" fill="#F8C066"/>
<path d="M58.5 141C63.9974 141 69.2431 136.17 68.9913 130.5C68.7395 124.809 64.3751 120 58.5 120C53.0026 120 47.7569 124.83 48.0087 130.5C48.2605 136.191 52.6249 141 58.5 141Z" fill="#323232"/>
<rect opacity="0.6" width="500" height="625" fill="#323232"/>
<path d="M454.588 247C454.588 238.676 462 234.01 462 234.01C455.758 234.01 454.588 219 454.588 219H454.412C454.412 219 453.242 234.01 447 234.01C447 234.01 454.588 237.593 454.588 245.918V247Z" fill="#F8C066"/>
<path d="M177.059 70C177.059 64.0548 182 60.7229 182 60.7229C177.837 60.7229 177.059 50 177.059 50H176.941C176.941 50 176.159 60.7229 172 60.7229C172 60.7229 177.059 63.2821 177.059 69.2273V70Z" fill="#F8C066"/>
<path d="M420.647 118C420.647 103.732 433 95.7349 433 95.7349C422.593 95.7349 420.647 70 420.647 70H420.353C420.353 70 418.397 95.7349 408 95.7349C408 95.7349 420.647 101.877 420.647 116.145V118Z" fill="#F8C066"/>
<path d="M470.071 124C470.071 117.163 476 113.331 476 113.331C471.005 113.331 470.071 101 470.071 101H469.929C469.929 101 468.991 113.331 464 113.331C464 113.331 470.071 116.274 470.071 123.111V124Z" fill="#F8C066"/>
</g>
<defs>
<linearGradient id="paint0_linear" x1="234" y1="-283.75" x2="234" y2="548.75" gradientUnits="userSpaceOnUse">
<stop stop-color="#E07A15"/>
<stop offset="1" stop-color="#F8C06D"/>
</linearGradient>
<linearGradient id="paint1_linear" x1="18" y1="268" x2="18" y2="342" gradientUnits="userSpaceOnUse">
<stop stop-color="white" stop-opacity="0.5"/>
<stop offset="1" stop-color="white" stop-opacity="0"/>
</linearGradient>
<linearGradient id="paint2_linear" x1="423.946" y1="280.161" x2="423.946" y2="126" gradientUnits="userSpaceOnUse">
<stop stop-color="white" stop-opacity="0"/>
<stop offset="1" stop-color="white" stop-opacity="0.7"/>
</linearGradient>
<linearGradient id="paint3_linear" x1="79.946" y1="462.161" x2="79.946" y2="308" gradientUnits="userSpaceOnUse">
<stop stop-color="white" stop-opacity="0"/>
<stop offset="1" stop-color="white" stop-opacity="0.7"/>
</linearGradient>
<linearGradient id="paint4_linear" x1="401.55" y1="334" x2="401.55" y2="396" gradientUnits="userSpaceOnUse">
<stop stop-color="white" stop-opacity="0.71"/>
<stop offset="1" stop-color="white" stop-opacity="0"/>
</linearGradient>
<linearGradient id="paint5_linear" x1="100" y1="898" x2="138.306" y2="373.796" gradientUnits="userSpaceOnUse">
<stop stop-color="#161616"/>
<stop offset="0.651042" stop-color="#323232"/>
<stop offset="1" stop-color="#7D7D7D"/>
</linearGradient>
<clipPath id="clip0">
<rect width="500" height="625" fill="white"/>
</clipPath>
</defs>
</svg>
