<svg width="500" height="625" fill="none"
  xmlns="http://www.w3.org/2000/svg">
  <g clip-path="url(#clip0)">
    <path fill="url(#paint0_linear)" d="M0 0h500v625H0z"/>
    <path d="M284 342s-177.211-.253-305.2222-.253C-71.8572 341.747-249 342-249 342c0-16.273 126.986 5.612 212.4028-39.281 29.92427-15.729 51.7511 23.367 81.4305 25.813 15.4946 1.28 34.4799-11.391 51.25-10.1 8.6837.667 61.0847 15.156 92.8197 14.59C251.542 331.899 284 334.929 284 342z" fill="url(#paint1_linear)"/>
    <path d="M511.514 254.898c-13.035.13-22.883 10.966-32.272 10.801-9.39-.164-23.57-27.699-55.116-27.699-39.157 0-57.653 35.368-68.166 35.368-11.878 0-18.458-5.926-30.095-5.926-30.521 0-25.021 9.405-47.865 12.72h291.892c-34.449-6.794-33.69-25.508-58.378-25.264z" fill="url(#paint2_linear)"/>
    <path d="M167.514 436.898c-13.035.13-22.883 10.966-32.272 10.801-9.39-.164-23.57-27.699-55.116-27.699-39.1572 0-57.6528 35.368-68.1664 35.368-11.8775001 0-18.4573-5.926-30.0948-5.926-30.5204 0-25.0208 9.405-47.8648 12.72h291.892c-34.449-6.794-33.69-25.508-58.378-25.264z" fill="url(#paint3_linear)"/>
    <path d="M549.1 396.04s-24.353.238-121.767.238c-38.532 0-173.333.195-173.333.195 0-12.566 132.167 1.3 157.733-9.533 23.764-10.071 43.282-2.756 65.867-.867 11.791.988 27.972-17.03 40.733-16.033 17.867 1.395 30.767 22.061 30.767 26z" fill="url(#paint4_linear)"/>
    <path d="M-48 904c260.126 0 471-88.872 471-198.5C423 595.871 212.126 507-48 507s-471 88.871-471 198.5C-519 815.128-308.126 904-48 904z" fill="#161616"/>
    <path d="M382 904c260.126 0 471-88.872 471-198.5C853 595.871 642.126 507 382 507S-89 595.871-89 705.5C-89 815.128 121.874 904 382 904z" fill="url(#paint5_linear)"/>
    <path d="M492 506.333H302V515h190v-8.667zM479.91 415.333H314.092V424H479.91v-8.667zM481.635 404.067H312.363l-3.455-8.667H485.09l-3.455 8.667z" fill="#AB5930"/>
    <path d="M479.91 404.066H314.092v11.267H479.91v-11.267zM474.728 376.333H319.273V395.4h155.455v-19.067zM327.91 424h-13.818v82.333h13.818V424zM358.308 424H344.49v82.333h13.818V424zM388.709 424h-13.818v82.333h13.818V424zM419.109 424h-13.818v82.333h13.818V424zM449.51 424h-13.819v82.333h13.819V424zM479.91 424h-13.818v82.333h13.818V424z" fill="#FFE1A8"/>
    <path d="M331.364 424h-20.727v10.4h20.727V424z" fill="#E07A15"/>
    <path d="M326.181 406.667h-3.454v6.933h3.454v-6.933z" fill="#F8C06D"/>
    <path d="M483.364 424h-20.727v10.4h20.727V424zM331.364 495.934h-20.727v10.4h20.727v-10.4zM361.591 424h-20.728v10.4h20.728V424zM361.591 495.934h-20.728v10.4h20.728v-10.4zM391.819 424h-20.727v10.4h20.727V424zM391.819 495.934h-20.727v10.4h20.727v-10.4zM422.046 424h-20.728v10.4h20.728V424zM422.046 495.934h-20.728v10.4h20.728v-10.4zM453.135 424h-20.727v10.4h20.727V424zM453.135 495.934h-20.727v10.4h20.727v-10.4zM483.364 495.934h-20.727v10.4h20.727v-10.4z" fill="#E07A15"/>
    <path d="M344.318 406.667h-3.455v6.933h3.455v-6.933zM362.455 406.667H359v6.933h3.455v-6.933z" fill="#F8C06D"/>
    <path d="M481.637 378.933H312.364l-1.727-3.466h172.727l-1.727 3.466z" fill="#AB5930"/>
    <path d="M380.591 406.667h-3.454v6.933h3.454v-6.933zM398.728 406.667h-3.455v6.933h3.455v-6.933zM416.863 406.667h-3.455v6.933h3.455v-6.933zM434.999 406.667h-3.454v6.933h3.454v-6.933zM453.136 406.667h-3.454v6.933h3.454v-6.933zM471.273 406.667h-3.455v6.933h3.455v-6.933zM469.545 391.066H326.182v1.734h143.363v-1.734zM457.541 386.3H338.1v1.733h119.441V386.3zM441.651 381.533h-87.573v1.734h87.573v-1.734z" fill="#F8C06D"/>
    <path d="M422.218 369.4H372.99v26h49.228v-26z" fill="#F8C06D"/>
    <path d="M400.367 348.6h-5.181v20.8h5.181v-20.8z" fill="#FFE1A8"/>
    <path d="M398.641 341.667h-1.727v20.8h1.727v-20.8zM397.777 341.667c2.385 0 4.318-1.94 4.318-4.334 0-2.393-1.933-4.333-4.318-4.333s-4.318 1.94-4.318 4.333c0 2.394 1.933 4.334 4.318 4.334zM385.6 352.067h-1.987V369.4h7.341v-11.96c0-2.946-2.418-5.373-5.354-5.373zM376.101 356.4h-3.023v13h7.773v-8.233c-.087-2.6-2.159-4.767-4.75-4.767zM409.696 352.067h1.987V369.4h-7.341v-11.96c0-2.946 2.418-5.373 5.354-5.373zM419.195 356.4h3.023v13h-7.773v-8.233c0-2.6 2.159-4.767 4.75-4.767z" fill="#FFE1A8"/>
    <path opacity=".6" fill="#323232" d="M0 0h500v625H0z"/>
  </g>
  <defs>
    <linearGradient id="paint0_linear" x1="234" y1="-283.75" x2="234" y2="548.75" gradientUnits="userSpaceOnUse">
      <stop stop-color="#E07A15"/>
      <stop offset="1" stop-color="#F8C06D"/>
    </linearGradient>
    <linearGradient id="paint1_linear" x1="18" y1="268" x2="18" y2="342" gradientUnits="userSpaceOnUse">
      <stop stop-color="#fff" stop-opacity=".5"/>
      <stop offset="1" stop-color="#fff" stop-opacity="0"/>
    </linearGradient>
    <linearGradient id="paint2_linear" x1="423.946" y1="280.161" x2="423.946" y2="126" gradientUnits="userSpaceOnUse">
      <stop stop-color="#fff" stop-opacity="0"/>
      <stop offset="1" stop-color="#fff" stop-opacity=".7"/>
    </linearGradient>
    <linearGradient id="paint3_linear" x1="79.946" y1="462.161" x2="79.946" y2="308" gradientUnits="userSpaceOnUse">
      <stop stop-color="#fff" stop-opacity="0"/>
      <stop offset="1" stop-color="#fff" stop-opacity=".7"/>
    </linearGradient>
    <linearGradient id="paint4_linear" x1="401.55" y1="334" x2="401.55" y2="396" gradientUnits="userSpaceOnUse">
      <stop stop-color="#fff" stop-opacity=".71"/>
      <stop offset="1" stop-color="#fff" stop-opacity="0"/>
    </linearGradient>
    <linearGradient id="paint5_linear" x1="100" y1="898" x2="138.306" y2="373.796" gradientUnits="userSpaceOnUse">
      <stop stop-color="#161616"/>
      <stop offset=".651042" stop-color="#323232"/>
      <stop offset="1" stop-color="#7D7D7D"/>
    </linearGradient>
    <clipPath id="clip0">
      <path fill="#fff" d="M0 0h500v625H0z"/>
    </clipPath>
  </defs>
</svg>