<svg width="1440" height="480" fill="none" xmlns="http://www.w3.org/2000/svg">
  <g clip-path="url(#clip0)">
    <path d="M0 0h1440v480H0V0z" fill="url(#paint0_linear)"/>
    <path d="M534 178s-252.019-.358-434.068-.358C27.922 177.642-224 178-224 178c0-23.086 180.592 7.961 302.066-55.724 42.557-22.313 73.598 33.148 115.806 36.619 22.035 1.815 49.035-16.16 72.884-14.329 12.35.947 86.871 21.501 132.003 20.697C487.84 163.671 534 167.97 534 178z" fill="url(#paint1_linear)"/>
    <path d="M1021.51 81.898c-13.03.13-22.879 10.966-32.268 10.801-9.39-.164-23.57-27.699-55.116-27.699-39.157 0-57.653 35.368-68.166 35.368-11.878 0-18.458-5.926-30.095-5.926-30.521 0-25.021 9.405-47.865 12.72h291.89c-34.45-6.794-33.69-25.508-58.38-25.264z" fill="url(#paint2_linear)"/>
    <path d="M1127.51 323.898c-13.03.13-22.88 10.966-32.27 10.801-9.39-.164-23.57-27.699-55.11-27.699-39.16 0-57.657 35.368-68.17 35.368-11.878 0-18.458-5.926-30.095-5.926-30.521 0-25.021 9.405-47.865 12.72h291.89c-34.45-6.794-33.69-25.508-58.38-25.264z" fill="url(#paint3_linear)"/>
    <path d="M1419.1 313.04s-24.35.238-121.77.238c-38.53 0-173.33.195-173.33.195 0-12.566 132.17 1.3 157.73-9.533 23.77-10.071 43.28-2.756 65.87-.867 11.79.988 27.97-17.03 40.73-16.033 17.87 1.395 30.77 22.061 30.77 26z" fill="url(#paint4_linear)"/>
    <path d="M723 846c332.48 0 602-113.496 602-253.5 0-140.004-269.52-253.5-602-253.5-332.475 0-602 113.496-602 253.5C121 732.504 390.525 846 723 846z" fill="#161616"/>
    <path d="M1252 781c260.13 0 471-88.872 471-198.5 0-109.629-210.87-198.5-471-198.5-260.126 0-471 88.871-471 198.5C781 692.128 991.874 781 1252 781z" fill="url(#paint5_linear)"/>
    <path d="M99 788c276.695 0 501-94.692 501-211.5S375.695 365 99 365s-501 94.692-501 211.5S-177.695 788 99 788z" fill="url(#paint6_linear)"/>
    <path d="M1380.15 396.667h-292.3V410h292.3v-13.333zM1361.55 256.667h-255.1V270h255.1v-13.333zM1364.21 239.333h-260.42L1098.47 226h271.05l-5.31 13.333z" fill="#AB5930"/>
    <path d="M1361.55 239.333h-255.1v17.334h255.1v-17.334zM1353.58 196.667h-239.16V226h239.16v-29.333zM1127.71 270h-21.26v126.667h21.26V270zM1174.48 270h-21.26v126.667h21.26V270zM1221.24 270h-21.25v126.667h21.25V270zM1268.01 270h-21.26v126.667h21.26V270zM1314.78 270h-21.26v126.667h21.26V270zM1361.55 270h-21.26v126.667h21.26V270z" fill="#FFE1A8"/>
    <path d="M1133.02 270h-31.89v16h31.89v-16z" fill="#E07A15"/>
    <path d="M1125.05 243.333h-5.32V254h5.32v-10.667z" fill="#F8C06D"/>
    <path d="M1366.87 270h-31.89v16h31.89v-16zM1133.02 380.667h-31.89v16h31.89v-16zM1179.52 270h-31.88v16h31.88v-16zM1179.52 380.667h-31.88v16h31.88v-16zM1226.03 270h-31.89v16h31.89v-16zM1226.03 380.667h-31.89v16h31.89v-16zM1272.53 270h-31.89v16h31.89v-16zM1272.53 380.667h-31.89v16h31.89v-16zM1320.36 270h-31.89v16h31.89v-16zM1320.36 380.667h-31.89v16h31.89v-16zM1366.87 380.667h-31.89v16h31.89v-16z" fill="#E07A15"/>
    <path d="M1152.95 243.333h-5.31V254h5.31v-10.667zM1180.85 243.333h-5.31V254h5.31v-10.667z" fill="#F8C06D"/>
    <path d="M1364.21 200.667h-260.42l-2.66-5.334h265.74l-2.66 5.334z" fill="#AB5930"/>
    <path d="M1208.76 243.333h-5.32V254h5.32v-10.667zM1236.66 243.333h-5.32V254h5.32v-10.667zM1264.56 243.333h-5.32V254h5.32v-10.667zM1292.46 243.333h-5.31V254h5.31v-10.667zM1320.36 243.333h-5.31V254h5.31v-10.667zM1348.27 243.333h-5.32V254h5.32v-10.667zM1345.61 219.333h-220.56V222h220.56v-2.667zM1327.14 212h-183.76v2.667h183.76V212zM1302.69 204.667h-134.73v2.667h134.73v-2.667z" fill="#F8C06D"/>
    <path d="M1272.8 186h-75.74v40h75.74v-40z" fill="#F8C06D"/>
    <path d="M1239.18 154h-7.97v32h7.97v-32z" fill="#FFE1A8"/>
    <path d="M1236.52 143.333h-2.65v32h2.65v-32zM1235.2 143.333c3.66 0 6.64-2.984 6.64-6.666 0-3.682-2.98-6.667-6.64-6.667-3.67 0-6.65 2.985-6.65 6.667s2.98 6.666 6.65 6.666zM1216.46 159.333h-3.05V186h11.29v-18.4c0-4.533-3.72-8.267-8.24-8.267zM1201.85 166h-4.65v20h11.95v-12.667c-.13-4-3.32-7.333-7.3-7.333zM1253.53 159.333h3.06V186h-11.3v-18.4c0-4.533 3.72-8.267 8.24-8.267zM1268.15 166h4.65v20h-11.96v-12.667c0-4 3.32-7.333 7.31-7.333z" fill="#FFE1A8"/>
    <path opacity=".6" fill="#323232" d="M0-177h1440v750H0z"/>
  </g>
  <defs>
    <linearGradient id="paint0_linear" x1="-238" y1="309.474" x2="2076" y2="309.474" gradientUnits="userSpaceOnUse">
      <stop stop-color="#E07A15"/>
      <stop offset="1" stop-color="#F8C06D"/>
    </linearGradient>
    <linearGradient id="paint1_linear" x1="155.711" y1="73.023" x2="155.711" y2="178" gradientUnits="userSpaceOnUse">
      <stop stop-color="#fff" stop-opacity=".5"/>
      <stop offset="1" stop-color="#fff" stop-opacity="0"/>
    </linearGradient>
    <linearGradient id="paint2_linear" x1="933.946" y1="107.161" x2="933.946" y2="-47" gradientUnits="userSpaceOnUse">
      <stop stop-color="#fff" stop-opacity="0"/>
      <stop offset="1" stop-color="#fff" stop-opacity=".7"/>
    </linearGradient>
    <linearGradient id="paint3_linear" x1="1039.95" y1="349.161" x2="1039.95" y2="195" gradientUnits="userSpaceOnUse">
      <stop stop-color="#fff" stop-opacity="0"/>
      <stop offset="1" stop-color="#fff" stop-opacity=".7"/>
    </linearGradient>
    <linearGradient id="paint4_linear" x1="1271.55" y1="251" x2="1271.55" y2="313" gradientUnits="userSpaceOnUse">
      <stop stop-color="#fff" stop-opacity=".71"/>
      <stop offset="1" stop-color="#fff" stop-opacity="0"/>
    </linearGradient>
    <linearGradient id="paint5_linear" x1="970" y1="775" x2="1008.31" y2="250.796" gradientUnits="userSpaceOnUse">
      <stop stop-color="#161616"/>
      <stop offset=".651" stop-color="#323232"/>
      <stop offset="1" stop-color="#7D7D7D"/>
    </linearGradient>
    <linearGradient id="paint6_linear" x1="-200.962" y1="781.607" x2="757.994" y2="696.916" gradientUnits="userSpaceOnUse">
      <stop stop-color="#161616"/>
      <stop offset=".651" stop-color="#323232"/>
      <stop offset="1" stop-color="#7D7D7D"/>
    </linearGradient>
    <clipPath id="clip0">
      <path fill="#fff" d="M0 0h1440v480H0z"/>
    </clipPath>
  </defs>
</svg>
