<svg width="500" height="625" fill="none" xmlns="http://www.w3.org/2000/svg">
  <g clip-path="url(#clip0)">
    <path fill="url(#paint0_linear)" d="M0 0h500v625H0z"/>
    <path d="M314 312s-177.211-.253-305.222-.253C-41.857 311.747-219 312-219 312c0-16.273 126.986 5.612 212.403-39.281 29.924-15.729 51.75 23.367 81.43 25.813 15.495 1.28 34.48-11.391 51.25-10.1 8.684.667 61.085 15.156 92.82 14.59C281.542 301.899 314 304.929 314 312z" fill="url(#paint1_linear)"/>
    <path d="M511.514 344.898c-13.035.13-22.883 10.966-32.272 10.801-9.39-.164-23.57-27.699-55.116-27.699-39.157 0-57.653 35.368-68.166 35.368-11.878 0-18.458-5.926-30.095-5.926-30.521 0-25.021 9.405-47.865 12.72h291.892c-34.449-6.794-33.69-25.508-58.378-25.264z" fill="url(#paint2_linear)"/>
    <path d="M167.514 436.898c-13.035.13-22.883 10.966-32.272 10.801-9.39-.164-23.57-27.699-55.116-27.699-39.157 0-57.653 35.368-68.166 35.368-11.878 0-18.458-5.926-30.095-5.926-30.52 0-25.021 9.405-47.865 12.72h291.892c-34.449-6.794-33.69-25.508-58.378-25.264z" fill="url(#paint3_linear)"/>
    <path d="M549.1 206.04s-24.353.238-121.767.238c-38.532 0-173.333.195-173.333.195 0-12.566 132.167 1.3 157.733-9.533 23.764-10.071 43.282-2.756 65.867-.867 11.791.988 27.972-17.03 40.733-16.033 17.867 1.395 30.767 22.061 30.767 26z" fill="url(#paint4_linear)"/>
    <path d="M421.79 328.895h-26.632V513h26.632V328.895z" fill="#B4B4B4"/>
    <path d="M457.527 420.368a1 1 0 00-1 1v4.997h-9.263v-4.997a1 1 0 00-1-1h-15.328a1 1 0 00-1 1v4.997h-40.567V513h85.684v-91.632a1 1 0 00-1-1h-16.526z" fill="#B4B4B4"/>
    <path d="M475.053 444.684h-85.684v3.474h85.684v-3.474z" fill="#707070"/>
    <path fill-rule="evenodd" clip-rule="evenodd" d="M340.894 400.684h-15.369a1 1 0 00-1 1V513h99.579V401.684a1 1 0 00-1-1h-15.368a1 1 0 00-1 1v9.421h-9.263v-9.421a1 1 0 00-1-1h-15.369a1 1 0 00-1 1v9.421h-10.421v-9.421a1 1 0 00-1-1h-15.368a1 1 0 00-1 1v9.421h-10.421v-9.421a1 1 0 00-1-1z" fill="#296F8E"/>
    <path d="M419.473 312.684h-22v16.211h22v-16.211zM419.473 312.684h-22l10.934-10.421 11.066 10.421z" fill="#B4B4B4"/>
    <path d="M424.104 416.895h-99.579v3.473h99.579v-3.473z" fill="#1F576F"/>
    <path d="M408.473 303.421a1.737 1.737 0 100-3.475 1.737 1.737 0 000 3.475z" fill="#707070"/>
    <path d="M408.473 299.947a1.737 1.737 0 100-3.474 1.737 1.737 0 000 3.474z" fill="#707070"/>
    <path d="M408.473 295.509c-.823 0-1.462-.579-1.645-1.351 0 .193-.092.289-.092.482 0 1.062.823 1.834 1.737 1.834 1.006 0 1.737-.869 1.737-1.834v-.482c-.183.772-.914 1.351-1.737 1.351zM468.105 429.631h-3.474v8.106h3.474v-8.106zM440.315 429.631h-3.473v8.106h3.473v-8.106zM416.605 384.725h-3.023v8.926h3.023v-8.926zM416.605 361.137h-3.023v8.925h3.023v-8.925zM448.42 473.631c-7.105 0-12.736 8.763-12.736 19.685V513h25.473v-19.684c0-10.795-5.631-19.685-12.737-19.685z" fill="#707070"/>
    <path d="M396.314 436.579c-7.105 0-12.736 8.762-12.736 19.684v19.684h25.472v-19.684c.134-10.922-5.631-19.684-12.736-19.684z" fill="#1F576F"/>
    <path d="M416.605 337.529h-3.023v8.926h3.023v-8.926zM422.947 328.895H394v3.473h28.947v-3.473zM422.947 350.895H394v2.315h28.947v-2.315zM422.947 354.368H394v2.316h28.947v-2.316zM422.947 372.895H394v2.315h28.947v-2.315zM422.947 376.368H394v2.316h28.947v-2.316z" fill="#707070"/>
    <path fill-rule="evenodd" clip-rule="evenodd" d="M413.685 323.105h-18.527v5.789h1.158v-4.631h6.947v4.631h1.158v-4.631h9.264v4.631h1.157v-4.631h5.79v4.631h1.158v-5.789h-8.105z" fill="#707070"/>
    <path fill-rule="evenodd" clip-rule="evenodd" d="M329.316 462.052h-15.369a1 1 0 00-1 1V513h111.158v-38.211h-66v-11.737a1 1 0 00-1-1h-15.368a1 1 0 00-1 1v11.737h-10.421v-11.737a1 1 0 00-1-1z" fill="#163B4B"/>
    <path d="M-58 904c260.126 0 471-88.872 471-198.5C413 595.871 202.126 507-58 507s-471 88.871-471 198.5C-529 815.128-318.126 904-58 904z" fill="#296F8E"/>
    <path d="M382 904c260.126 0 471-88.872 471-198.5C853 595.871 642.126 507 382 507S-89 595.871-89 705.5C-89 815.128 121.874 904 382 904z" fill="url(#paint5_linear)"/>
    <path d="M380 197c6.659 0 6.675-10 0-10-6.659 0-6.675 10 0 10z" fill="#fff"/>
    <path d="M386.5 84c5.996 0 6.004-9 0-9-5.996 0-6.004 9 0 9z" fill="#1F576F"/>
    <path d="M34.5 110c5.996 0 6.004-9 0-9-5.996 0-6.004 9 0 9z" fill="#fff"/>
    <path d="M410.5 149c1.309 0 2.558-1.15 2.498-2.5-.06-1.355-1.099-2.5-2.498-2.5-1.309 0-2.558 1.15-2.498 2.5.06 1.355 1.099 2.5 2.498 2.5z" fill="#296F8E"/>
    <path d="M58.5 141c5.497 0 10.743-4.83 10.491-10.5-.251-5.691-4.616-10.5-10.491-10.5-5.497 0-10.743 4.83-10.491 10.5.252 5.691 4.616 10.5 10.491 10.5z" fill="#1F576F"/>
    <path opacity=".6" fill="#323232" d="M0 0h500v625H0z"/>
    <path d="M454.588 247c0-8.324 7.412-12.99 7.412-12.99-6.242 0-7.412-15.01-7.412-15.01h-.176s-1.17 15.01-7.412 15.01c0 0 7.588 3.583 7.588 11.908V247zM177.059 70c0-5.945 4.941-9.277 4.941-9.277-4.163 0-4.941-10.723-4.941-10.723h-.118s-.782 10.723-4.941 10.723c0 0 5.059 2.56 5.059 8.504V70zM420.647 118c0-14.268 12.353-22.265 12.353-22.265-10.407 0-12.353-25.735-12.353-25.735h-.294S418.397 95.735 408 95.735c0 0 12.647 6.142 12.647 20.41V118zM470.071 124c0-6.837 5.929-10.669 5.929-10.669-4.995 0-5.929-12.331-5.929-12.331h-.142s-.938 12.331-5.929 12.331c0 0 6.071 2.943 6.071 9.78V124z" fill="#F3B761"/>
  </g>
  <defs>
    <linearGradient id="paint0_linear" x1="234" y1="-60" x2="234" y2="625" gradientUnits="userSpaceOnUse">
      <stop stop-color="#7D7D7D"/>
      <stop offset="1" stop-color="#fff"/>
    </linearGradient>
    <linearGradient id="paint1_linear" x1="48" y1="263" x2="48" y2="312" gradientUnits="userSpaceOnUse">
      <stop stop-color="#CDCDCD"/>
      <stop offset="1" stop-color="#CDCDCD" stop-opacity="0"/>
    </linearGradient>
    <linearGradient id="paint2_linear" x1="424" y1="390" x2="423.946" y2="216" gradientUnits="userSpaceOnUse">
      <stop stop-color="#CDCDCD" stop-opacity="0"/>
      <stop offset="1" stop-color="#fff"/>
    </linearGradient>
    <linearGradient id="paint3_linear" x1="80" y1="475" x2="80" y2="387" gradientUnits="userSpaceOnUse">
      <stop stop-color="#CDCDCD" stop-opacity="0"/>
      <stop offset="1" stop-color="#fff"/>
    </linearGradient>
    <linearGradient id="paint4_linear" x1="401.55" y1="144" x2="401.55" y2="206" gradientUnits="userSpaceOnUse">
      <stop stop-color="#fff"/>
      <stop offset="1" stop-color="#CDCDCD" stop-opacity="0"/>
    </linearGradient>
    <linearGradient id="paint5_linear" x1="92" y1="659" x2="261.665" y2="350.516" gradientUnits="userSpaceOnUse">
      <stop stop-color="#293C4C"/>
      <stop offset=".498" stop-color="#335267"/>
      <stop offset="1" stop-color="#296F8E"/>
    </linearGradient>
    <clipPath id="clip0">
      <path fill="#fff" d="M0 0h500v625H0z"/>
    </clipPath>
  </defs>
</svg>
