<svg width="500" height="625" fill="none" xmlns="http://www.w3.org/2000/svg">
  <g clip-path="url(#clip0)">
    <path fill="url(#paint0_linear)" d="M0 0h500v625H0z"/>
    <path d="M568 342s-177.211-.253-305.222-.253C212.143 341.747 35 342 35 342c0-16.273 126.986 5.612 212.403-39.281 29.924-15.729 51.751 23.367 81.43 25.813 15.495 1.28 34.48-11.391 51.25-10.1 8.684.667 61.085 15.156 92.82 14.59C535.542 331.899 568 334.929 568 342z" fill="url(#paint1_linear)"/>
    <path d="M191.514 195.898c-13.035.13-22.883 10.966-32.272 10.801-9.39-.164-23.57-27.699-55.116-27.699-39.157 0-57.653 35.368-68.166 35.368-11.878 0-18.458-5.926-30.095-5.926-30.52 0-25.021 9.405-47.865 12.72h291.892c-34.449-6.794-33.69-25.508-58.378-25.264z" fill="url(#paint2_linear)"/>
    <path d="M167.514 436.898c-13.035.13-22.883 10.966-32.272 10.801-9.39-.164-23.57-27.699-55.116-27.699-39.157 0-57.653 35.368-68.166 35.368-11.878 0-18.458-5.926-30.095-5.926-30.52 0-25.021 9.405-47.865 12.72h291.892c-34.449-6.794-33.69-25.508-58.378-25.264z" fill="url(#paint3_linear)"/>
    <path d="M549.1 253.04s-24.353.238-121.767.238c-38.532 0-173.333.195-173.333.195 0-12.566 132.167 1.3 157.733-9.533 23.764-10.071 43.282-2.756 65.867-.867 11.791.988 27.972-17.03 40.733-16.033 17.867 1.395 30.767 22.061 30.767 26z" fill="url(#paint4_linear)"/>
    <g clip-path="url(#clip1)">
      <path d="M420.229 432.429h-57.6v62.857h57.6v-62.857z" fill="#F3B761"/>
      <path d="M323.314 431.628h-2.628V457.8h2.628v-26.172zM339.086 427.628h-2.629V457.8h2.629v-30.172zM359.885 430.257H341.6v10.515h18.285v-10.515z" fill="#F5D8AF"/>
      <path d="M353.486 440.771h-5.257v-5.6a2.291 2.291 0 012.285-2.285h.686a2.292 2.292 0 012.286 2.285v5.6zM346.856 440.772h-3.885v-4.8c0-.915.8-1.715 1.714-1.715h.457c.914 0 1.714.8 1.714 1.715v4.8z" fill="#D6801C"/>
      <path d="M351.429 413.229h-1.257v7.885h1.257v-7.885zM391.429 353h-1.257v20.914h1.257V353z" fill="#F5D8AF"/>
      <path d="M358.628 440.772h-3.886v-4.8c0-.915.8-1.715 1.714-1.715h.458c.914 0 1.714.8 1.714 1.715v4.8z" fill="#D6801C"/>
      <path d="M350.858 419.743c-3.886 2.628-9.143 5.371-9.143 10.514h18.286c0-5.029-5.258-7.886-9.143-10.514z" fill="#F3B761"/>
      <path d="M300.342 395.286h-.686v3.885h.686v-3.885zM295.428 403.743V409h.685v-2.286c0-.571.458-1.028 1.029-1.028s1.029.457 1.029 1.028V409h.685v-2.629c0-.685.572-1.257 1.257-1.257a1.27 1.27 0 011.258 1.257V409h.685v-2.286c0-.571.457-1.028 1.029-1.028.571 0 1.028.457 1.028 1.028V409h.458v-5.257h-9.143z" fill="#F5D8AF"/>
      <path d="M299.999 398.6c-1.943 1.257-4.571 2.743-4.571 5.257h9.143c0-2.628-2.629-4-4.572-5.257z" fill="#F3B761"/>
      <path d="M362.628 440.314h-26.171v54.972h26.171v-54.972z" fill="#D6801C"/>
      <path d="M360.229 442.943h-20.458v52.343h20.458v-52.343z" fill="#F5D8AF"/>
      <path d="M357.943 446.829h-15.771v22.285h15.771v-22.285z" fill="#F3B761"/>
      <path d="M336.457 495.286h-15.771v-45.829l15.771-9.143v54.972z" fill="#854400"/>
      <path d="M333.829 496.591h-10.515v-45.076l10.515-5.486v50.562zM416.342 436.429h-49.828V495.4h49.828v-58.971z" fill="#D6801C"/>
      <path d="M412.457 440.314h-41.943v54.972h41.943v-54.972z" fill="#F5D8AF"/>
      <path d="M408.458 444.314H374.4V495.4h34.058v-51.086z" fill="#F3B761"/>
      <path d="M391.428 445.571c-7.314 4.915-17.143 10.172-17.143 19.657V495.4h34.286v-30.172c0-9.485-9.829-14.742-17.143-19.657z" fill="#D6801C"/>
      <path d="M391.429 460.429c-1.715 1.143-4.115 2.4-4.115 4.685v7.086h8.115V465c.114-2.171-2.286-3.428-4-4.571zM391.429 483.514c-1.715 1.143-4.115 2.4-4.115 4.686v7.086h8.115V488.2c.114-2.286-2.286-3.429-4-4.686z" fill="#854400"/>
      <path d="M407.085 472.2h-31.429v2.629h31.429V472.2z" fill="#F3B761"/>
      <path d="M349.943 452.543c-2.514 1.6-5.714 3.429-5.714 6.514v10.057h11.428v-10.057c0-3.085-3.2-4.914-5.714-6.514z" fill="#D6801C"/>
      <path d="M332.343 470.943l-7.657 2.172V453.8l7.657-3.885v21.028z" fill="#F3B761"/>
      <path d="M328.572 455.971c-1.257 1.714-2.857 3.543-2.857 5.829v12.114l5.6-2.514v-12.115c0-2.171-1.6-2.628-2.743-3.314z" fill="#D6801C"/>
      <path d="M332.343 494.828l-7.657.572.114-20 7.543-1.943v21.371z" fill="#F3B761"/>
      <path d="M328.571 478.829c-1.143 1.485-2.743 3.085-2.743 5.371v12.343l5.486-1.372v-12.342c0-2.286-1.6-3.086-2.743-4z" fill="#D6801C"/>
      <path d="M357.943 473.114h-15.771V495.4h15.771v-22.286z" fill="#F3B761"/>
      <path d="M349.943 478.714c-2.514 1.6-5.714 3.429-5.714 6.515v10.057h11.428v-10.057c0-3.086-3.2-4.8-5.714-6.515z" fill="#D6801C"/>
      <path d="M459.526 457.744h2.628v-26.172h-2.628v26.172zM443.862 457.814h2.628v-30.171h-2.628v30.171zM422.921 440.778h18.286v-10.514h-18.286v10.514z" fill="#F5D8AF"/>
      <path d="M429.371 440.771h5.257v-5.6a2.291 2.291 0 00-2.285-2.285h-.686a2.292 2.292 0 00-2.286 2.285v5.6zM436 440.772h3.886v-4.8c0-.915-.8-1.715-1.715-1.715h-.457c-.914 0-1.714.8-1.714 1.715v4.8z" fill="#D6801C"/>
      <path d="M431.38 421.132h1.257v-7.885h-1.257v7.885z" fill="#F5D8AF"/>
      <path d="M424.229 440.772h3.885v-4.8c0-.915-.8-1.715-1.714-1.715h-.457c-.914 0-1.714.8-1.714 1.715v4.8z" fill="#D6801C"/>
      <path d="M432 419.743c3.886 2.628 9.143 5.371 9.143 10.514h-18.286c0-5.029 5.258-7.886 9.143-10.514z" fill="#F3B761"/>
      <path d="M420.284 495.356h26.171v-54.971h-26.171v54.971z" fill="#D6801C"/>
      <path d="M422.682 495.347h20.457v-52.343h-20.457v52.343z" fill="#F5D8AF"/>
      <path d="M424.967 469.194h15.771v-22.285h-15.771v22.285z" fill="#F3B761"/>
      <path d="M446.4 495.286h15.772v-45.829l-15.772-9.143v54.972z" fill="#854400"/>
      <path d="M449.029 495.539h10.515v-44.024l-10.515-5.486v49.51zM432.914 452.543c2.514 1.6 5.714 3.429 5.714 6.514v10.057h-11.429v-10.057c0-3.085 3.2-4.914 5.715-6.514z" fill="#D6801C"/>
      <path d="M450.514 470.943l7.657 2.172V453.8l-7.657-3.885v21.028z" fill="#F3B761"/>
      <path d="M454.286 455.971c1.257 1.714 2.857 3.543 2.857 5.829v12.114l-5.6-2.514v-12.115c0-2.171 1.6-2.628 2.743-3.314z" fill="#D6801C"/>
      <path d="M450.514 494.828l7.657.572-.114-20-7.543-1.943v21.371z" fill="#F3B761"/>
      <path d="M454.286 478.829c1.143 1.485 2.743 3.085 2.743 5.371v12.343l-5.486-1.372v-12.342c0-2.286 1.6-3.086 2.743-4z" fill="#D6801C"/>
      <path d="M424.967 495.301h15.771v-22.286h-15.771v22.286z" fill="#F3B761"/>
      <path d="M432.914 478.714c2.514 1.6 5.714 3.429 5.714 6.515v10.057h-11.429v-10.057c0-3.086 3.2-4.8 5.715-6.515z" fill="#D6801C"/>
      <path d="M492 494.714H292V513h200v-18.286z" fill="#854400"/>
      <path d="M416.915 418.486h-52.343v14.4h52.343v-14.4z" fill="#F5D8AF"/>
      <path d="M404 381.571c-4.343-3.542-8.915-6.971-13.257-10.285-4.343 3.771-9.029 7.2-13.372 10.628 9.029-2.057 18.743-2.057 26.629-.343z" fill="#F3B761"/>
      <path d="M404 381.571c-8-1.714-17.6-1.828-26.629.343C368 389.343 360 397 360 408.657c0 3.886 2.629 11.657 3.886 15.086l26.285-7.886 27.543 7.886c1.372-3.429 3.886-11.086 3.886-15.086 0-10.286-8.114-19.086-17.6-27.086z" fill="#F5D8AF"/>
      <path d="M306.857 469.571h-13.714v25.143h13.714v-25.143z" fill="#F3B761"/>
      <path d="M305.714 442.143h-11.429v27.429h11.429v-27.429zM417.601 423.743s-10.515-2.629-26.857-2.629c-16.343 0-26.858 2.629-26.858 2.629l-2.628-6.515s14.4-3.885 29.486-3.885c15.085 0 29.485 3.885 29.485 3.885l-2.628 6.515z" fill="#F3B761"/>
      <path d="M304.571 409h-9.143v35.429h9.143V409z" fill="#F3B761"/>
      <path d="M308 466.143h-16v3.429h16v-3.429zM306.857 439.857h-13.714v3.429h13.714v-3.429zM305.714 409h-11.429v3.429h11.429V409z" fill="#D6801C"/>
      <path d="M484.342 395.286h-.686v3.885h.686v-3.885zM479.428 403.743V409h.685v-2.286c0-.571.458-1.028 1.029-1.028s1.029.457 1.029 1.028V409h.685v-2.629c0-.685.572-1.257 1.257-1.257a1.27 1.27 0 011.258 1.257V409h.685v-2.286c0-.571.457-1.028 1.029-1.028.571 0 1.028.457 1.028 1.028V409h.686v-5.257h-9.371z" fill="#F5D8AF"/>
      <path d="M483.999 398.6c-1.943 1.257-4.571 2.743-4.571 5.257h9.143c0-2.628-2.629-4-4.572-5.257zM490.857 469.571h-13.714v25.143h13.714v-25.143z" fill="#F3B761"/>
      <path d="M489.714 442.143h-11.429v27.429h11.429v-27.429z" fill="#F3B761"/>
      <path d="M488.571 409h-9.143v35.429h9.143V409z" fill="#F3B761"/>
      <path d="M492 466.143h-16v3.429h16v-3.429zM490.857 439.857h-13.714v3.429h13.714v-3.429zM489.714 409h-11.429v3.429h11.429V409z" fill="#D6801C"/>
    </g>
    <path d="M-48 904c260.126 0 471-88.872 471-198.5C423 595.871 212.126 507-48 507s-471 88.871-471 198.5C-519 815.128-308.126 904-48 904z" fill="#203D2C"/>
    <path d="M382 904c260.126 0 471-88.872 471-198.5C853 595.871 642.126 507 382 507S-89 595.871-89 705.5C-89 815.128 121.874 904 382 904z" fill="url(#paint5_linear)"/>
    <path opacity=".6" fill="#323232" d="M0 0h500v625H0z"/>
  </g>
  <defs>
    <linearGradient id="paint0_linear" x1="228" y1="-108.75" x2="228" y2="656.25" gradientUnits="userSpaceOnUse">
      <stop stop-color="#854400"/>
      <stop offset="1" stop-color="#F3B761"/>
    </linearGradient>
    <linearGradient id="paint1_linear" x1="302" y1="268" x2="302" y2="342" gradientUnits="userSpaceOnUse">
      <stop stop-color="#fff" stop-opacity=".5"/>
      <stop offset="1" stop-color="#fff" stop-opacity="0"/>
    </linearGradient>
    <linearGradient id="paint2_linear" x1="103.946" y1="221.161" x2="103.946" y2="67" gradientUnits="userSpaceOnUse">
      <stop stop-color="#fff" stop-opacity="0"/>
      <stop offset="1" stop-color="#fff" stop-opacity=".7"/>
    </linearGradient>
    <linearGradient id="paint3_linear" x1="79.946" y1="462.161" x2="79.946" y2="308" gradientUnits="userSpaceOnUse">
      <stop stop-color="#fff" stop-opacity="0"/>
      <stop offset="1" stop-color="#fff" stop-opacity=".7"/>
    </linearGradient>
    <linearGradient id="paint4_linear" x1="401.55" y1="191" x2="401.55" y2="253" gradientUnits="userSpaceOnUse">
      <stop stop-color="#fff" stop-opacity=".71"/>
      <stop offset="1" stop-color="#fff" stop-opacity="0"/>
    </linearGradient>
    <linearGradient id="paint5_linear" x1="100" y1="898" x2="138.306" y2="373.796" gradientUnits="userSpaceOnUse">
      <stop stop-color="#214D2E"/>
      <stop offset=".651" stop-color="#286442"/>
      <stop offset="1" stop-color="#52A078"/>
    </linearGradient>
    <clipPath id="clip0">
      <path fill="#fff" d="M0 0h500v625H0z"/>
    </clipPath>
    <clipPath id="clip1">
      <path fill="#fff" transform="translate(292 313)" d="M0 0h200v200H0z"/>
    </clipPath>
  </defs>
</svg>
