<svg width="1440" height="480" fill="none" xmlns="http://www.w3.org/2000/svg">
  <g clip-path="url(#clip0)">
    <path d="M0 0h1440v480H0V0z" fill="url(#paint0_linear)"/>
    <path d="M534 178s-252.019-.358-434.068-.358C27.922 177.642-224 178-224 178c0-23.086 180.592 7.961 302.066-55.724 42.557-22.313 73.598 33.148 115.806 36.619 22.035 1.815 49.035-16.16 72.884-14.329 12.35.947 86.871 21.501 132.003 20.697C487.84 163.671 534 167.97 534 178z" fill="url(#paint1_linear)"/>
    <path d="M1021.51 81.898c-13.03.13-22.879 10.966-32.268 10.801-9.39-.164-23.57-27.699-55.116-27.699-39.157 0-57.653 35.368-68.166 35.368-11.878 0-18.458-5.926-30.095-5.926-30.521 0-25.021 9.405-47.865 12.72h291.89c-34.45-6.794-33.69-25.508-58.38-25.264z" fill="url(#paint2_linear)"/>
    <path d="M1127.51 323.898c-13.03.13-22.88 10.966-32.27 10.801-9.39-.164-23.57-27.699-55.11-27.699-39.16 0-57.657 35.368-68.17 35.368-11.878 0-18.458-5.926-30.095-5.926-30.521 0-25.021 9.405-47.865 12.72h291.89c-34.45-6.794-33.69-25.508-58.38-25.264z" fill="url(#paint3_linear)"/>
    <path d="M1419.1 313.04s-24.35.238-121.77.238c-38.53 0-173.33.195-173.33.195 0-12.566 132.17 1.3 157.73-9.533 23.77-10.071 43.28-2.756 65.87-.867 11.79.988 27.97-17.03 40.73-16.033 17.87 1.395 30.77 22.061 30.77 26z" fill="url(#paint4_linear)"/>
    <g clip-path="url(#clip1)">
      <path d="M1291.11 291.229h-77.76v84.857h77.76v-84.857z" fill="#F3B761"/>
      <path d="M1160.28 290.148h-3.55v35.332h3.55v-35.332zM1181.57 284.749h-3.55v40.731h3.55v-40.731zM1209.65 288.297h-24.69v14.194h24.69v-14.194z" fill="#F5D8AF"/>
      <path d="M1201.01 302.491h-7.1v-7.56a3.094 3.094 0 013.08-3.085h.93c1.7 0 3.09 1.388 3.09 3.085v7.56zM1192.06 302.492h-5.25v-6.48c0-1.235 1.08-2.315 2.31-2.315h.62c1.24 0 2.32 1.08 2.32 2.315v6.48z" fill="#D6801C"/>
      <path d="M1198.23 265.309h-1.7v10.645h1.7v-10.645zM1252.23 184h-1.7v28.234h1.7V184z" fill="#F5D8AF"/>
      <path d="M1207.95 302.492h-5.25v-6.48c0-1.235 1.08-2.315 2.32-2.315h.61c1.24 0 2.32 1.08 2.32 2.315v6.48z" fill="#D6801C"/>
      <path d="M1197.46 274.103c-5.25 3.548-12.35 7.251-12.35 14.194h24.69c0-6.789-7.1-10.646-12.34-14.194z" fill="#F3B761"/>
      <path d="M1129.26 241.086h-.92v5.246h.92v-5.246zM1122.63 252.503v7.097h.92v-3.086c0-.771.62-1.388 1.39-1.388.77 0 1.39.617 1.39 1.388v3.086h.93v-3.549c0-.925.77-1.697 1.69-1.697.93 0 1.7.772 1.7 1.697v3.549h.93v-3.086c0-.771.61-1.388 1.39-1.388.77 0 1.38.617 1.38 1.388v3.086h.62v-7.097h-12.34z" fill="#F5D8AF"/>
      <path d="M1128.8 245.561c-2.62 1.697-6.17 3.702-6.17 7.097h12.34c0-3.549-3.55-5.4-6.17-7.097z" fill="#F3B761"/>
      <path d="M1213.35 301.874h-35.33v74.211h35.33v-74.211z" fill="#D6801C"/>
      <path d="M1210.11 305.423h-27.62v70.663h27.62v-70.663z" fill="#F5D8AF"/>
      <path d="M1207.02 310.669h-21.29v30.086h21.29v-30.086z" fill="#F3B761"/>
      <path d="M1178.02 376.085h-21.29v-61.868l21.29-12.343v74.211z" fill="#854400"/>
      <path d="M1174.47 377.848h-14.2v-60.853l14.2-7.406v68.259zM1285.86 296.629h-67.27v79.611h67.27v-79.611z" fill="#D6801C"/>
      <path d="M1280.62 301.874h-56.63v74.211h56.63v-74.211z" fill="#F5D8AF"/>
      <path d="M1275.22 307.274h-45.98v68.966h45.98v-68.966z" fill="#F3B761"/>
      <path d="M1252.23 308.972c-9.88 6.634-23.14 13.731-23.14 26.537v40.731h46.28v-40.731c0-12.806-13.27-19.903-23.14-26.537z" fill="#D6801C"/>
      <path d="M1252.23 329.028c-2.32 1.543-5.56 3.24-5.56 6.326v9.566h10.96v-9.72c.15-2.932-3.09-4.629-5.4-6.172zM1252.23 360.194c-2.32 1.543-5.56 3.24-5.56 6.326v9.566h10.96v-9.566c.15-3.086-3.09-4.629-5.4-6.326z" fill="#854400"/>
      <path d="M1273.37 344.92h-42.43v3.548h42.43v-3.548z" fill="#F3B761"/>
      <path d="M1196.22 318.383c-3.39 2.16-7.71 4.628-7.71 8.794v13.577h15.43v-13.577c0-4.166-4.32-6.634-7.72-8.794z" fill="#D6801C"/>
      <path d="M1172.46 343.223l-10.34 2.931V320.08l10.34-5.246v28.389z" fill="#F3B761"/>
      <path d="M1167.37 323.012c-1.7 2.314-3.86 4.783-3.86 7.868v16.355l7.56-3.395v-16.354c0-2.931-2.16-3.549-3.7-4.474z" fill="#D6801C"/>
      <path d="M1172.46 375.469l-10.34.771.16-27 10.18-2.623v28.852z" fill="#F3B761"/>
      <path d="M1167.37 353.868c-1.54 2.006-3.7 4.166-3.7 7.252v16.662l7.4-1.851v-16.663c0-3.086-2.16-4.166-3.7-5.4z" fill="#D6801C"/>
      <path d="M1207.02 346.154h-21.29v30.086h21.29v-30.086z" fill="#F3B761"/>
      <path d="M1196.22 353.714c-3.39 2.16-7.71 4.628-7.71 8.794v13.577h15.43v-13.577c0-4.166-4.32-6.48-7.72-8.794z" fill="#D6801C"/>
      <path d="M1344.16 325.404h3.55v-35.331h-3.55v35.331zM1323.01 325.5h3.55v-40.731h-3.55V325.5zM1294.74 302.5h24.69v-14.194h-24.69V302.5z" fill="#F5D8AF"/>
      <path d="M1303.45 302.491h7.1v-7.56a3.096 3.096 0 00-3.09-3.085h-.92c-1.7 0-3.09 1.388-3.09 3.085v7.56zM1312.4 302.492h5.25v-6.48c0-1.235-1.08-2.315-2.32-2.315h-.62c-1.23 0-2.31 1.08-2.31 2.315v6.48z" fill="#D6801C"/>
      <path d="M1306.16 275.979h1.7v-10.646h-1.7v10.646z" fill="#F5D8AF"/>
      <path d="M1296.51 302.492h5.24v-6.48c0-1.235-1.08-2.315-2.31-2.315h-.62c-1.23 0-2.31 1.08-2.31 2.315v6.48z" fill="#D6801C"/>
      <path d="M1307 274.103c5.24 3.548 12.34 7.251 12.34 14.194h-24.68c0-6.789 7.09-10.646 12.34-14.194z" fill="#F3B761"/>
      <path d="M1291.18 376.181h35.34v-74.212h-35.34v74.212z" fill="#D6801C"/>
      <path d="M1294.42 376.168h27.62v-70.663h-27.62v70.663z" fill="#F5D8AF"/>
      <path d="M1297.51 340.862h21.29v-30.085h-21.29v30.085z" fill="#F3B761"/>
      <path d="M1326.44 376.085h21.29v-61.868l-21.29-12.343v74.211z" fill="#854400"/>
      <path d="M1329.99 376.427h14.19v-59.432l-14.19-7.406v66.838zM1308.23 318.383c3.4 2.16 7.72 4.628 7.72 8.794v13.577h-15.43v-13.577c0-4.166 4.32-6.634 7.71-8.794z" fill="#D6801C"/>
      <path d="M1331.99 343.223l10.34 2.931V320.08l-10.34-5.246v28.389z" fill="#F3B761"/>
      <path d="M1337.09 323.012c1.69 2.314 3.85 4.783 3.85 7.868v16.355l-7.56-3.395v-16.354c0-2.931 2.16-3.549 3.71-4.474z" fill="#D6801C"/>
      <path d="M1331.99 375.469l10.34.771-.15-27-10.19-2.623v28.852z" fill="#F3B761"/>
      <path d="M1337.09 353.868c1.54 2.006 3.7 4.166 3.7 7.252v16.662l-7.41-1.851v-16.663c0-3.086 2.16-4.166 3.71-5.4z" fill="#D6801C"/>
      <path d="M1297.51 376.106h21.29v-30.085h-21.29v30.085z" fill="#F3B761"/>
      <path d="M1308.23 353.714c3.4 2.16 7.72 4.628 7.72 8.794v13.577h-15.43v-13.577c0-4.166 4.32-6.48 7.71-8.794z" fill="#D6801C"/>
      <path d="M1388 375.314h-270V400h270v-24.686z" fill="#854400"/>
      <path d="M1286.63 272.406h-70.66v19.44h70.66v-19.44z" fill="#F5D8AF"/>
      <path d="M1269.2 222.571c-5.86-4.783-12.03-9.411-17.9-13.885-5.86 5.091-12.19 9.72-18.05 14.348 12.19-2.777 25.3-2.777 35.95-.463z" fill="#F3B761"/>
      <path d="M1269.2 222.571c-10.8-2.314-23.76-2.468-35.95.463-12.65 10.029-23.45 20.366-23.45 36.103 0 5.246 3.55 15.737 5.25 20.366l35.48-10.646 37.19 10.646c1.85-4.629 5.24-14.966 5.24-20.366 0-13.886-10.95-25.766-23.76-36.566z" fill="#F5D8AF"/>
      <path d="M1138.06 341.371h-18.52v33.943h18.52v-33.943z" fill="#F3B761"/>
      <path d="M1136.51 304.343h-15.42v37.028h15.42v-37.028zM1287.56 279.503s-14.19-3.549-36.26-3.549c-22.06 0-36.25 3.549-36.25 3.549l-3.55-8.794s19.44-5.246 39.8-5.246c20.37 0 39.81 5.246 39.81 5.246l-3.55 8.794z" fill="#F3B761"/>
      <path d="M1134.97 259.6h-12.34v47.828h12.34V259.6z" fill="#F3B761"/>
      <path d="M1139.6 336.743H1118v4.629h21.6v-4.629zM1138.06 301.257h-18.52v4.628h18.52v-4.628zM1136.51 259.6h-15.42v4.628h15.42V259.6z" fill="#D6801C"/>
      <path d="M1377.66 241.086h-.92v5.246h.92v-5.246zM1371.03 252.503v7.097h.93v-3.086c0-.771.61-1.388 1.38-1.388.78 0 1.39.617 1.39 1.388v3.086h.93v-3.549c0-.925.77-1.697 1.7-1.697.92 0 1.69.772 1.69 1.697v3.549h.93v-3.086c0-.771.62-1.388 1.39-1.388.77 0 1.39.617 1.39 1.388v3.086h.92v-7.097h-12.65z" fill="#F5D8AF"/>
      <path d="M1377.2 245.561c-2.62 1.697-6.17 3.702-6.17 7.097h12.34c0-3.549-3.55-5.4-6.17-7.097zM1386.46 341.371h-18.52v33.943h18.52v-33.943z" fill="#F3B761"/>
      <path d="M1384.91 304.343h-15.42v37.028h15.42v-37.028z" fill="#F3B761"/>
      <path d="M1383.37 259.6h-12.34v47.828h12.34V259.6z" fill="#F3B761"/>
      <path d="M1388 336.743h-21.6v4.629h21.6v-4.629zM1386.46 301.257h-18.52v4.628h18.52v-4.628zM1384.91 259.6h-15.42v4.628h15.42V259.6z" fill="#D6801C"/>
    </g>
    <path d="M723 846c332.48 0 602-113.496 602-253.5 0-140.004-269.52-253.5-602-253.5-332.475 0-602 113.496-602 253.5C121 732.504 390.525 846 723 846z" fill="#203D2C"/>
    <path d="M1252 781c260.13 0 471-88.872 471-198.5 0-109.629-210.87-198.5-471-198.5-260.126 0-471 88.871-471 198.5C781 692.128 991.874 781 1252 781z" fill="url(#paint5_linear)"/>
    <path d="M99 788c276.695 0 501-94.692 501-211.5S375.695 365 99 365s-501 94.692-501 211.5S-177.695 788 99 788z" fill="url(#paint6_linear)"/>
    <path d="M822 77.894c5.523 0 10-4.712 10-10.526 0-5.813-4.477-10.526-10-10.526s-10 4.713-10 10.526c0 5.814 4.477 10.526 10 10.526zM351.306 451.246c9.413 0 9.436-15.408 0-15.408-9.413 0-9.435 15.408 0 15.408z" fill="#45835F"/>
    <path d="M304.664 268.767c16.865 0 16.906-26.662 0-26.662-16.865 0-16.906 26.662 0 26.662zM381.983 327.774c7.972 0 7.983-13.038 0-13.038-7.972 0-7.983 13.038 0 13.038z" fill="#B1D6BF"/>
    <path d="M999.983 151.985c7.967 0 7.987-13.038 0-13.038-7.972 0-7.983 13.038 0 13.038zM90.72 220.668c11.616 0 11.633-18.356 0-18.356-11.618 0-11.635 18.356 0 18.356z" fill="#45835F"/>
    <path d="M551.862 43.853c6.656 0 6.656-10.88 0-10.88-6.636 0-6.657 10.88 0 10.88zM394.393 420.211c1.657 0 3.239-1.533 3.163-3.332-.076-1.807-1.392-3.333-3.163-3.333-1.658 0-3.24 1.533-3.164 3.333.076 1.806 1.392 3.332 3.164 3.332zM1320.01 30.526c26.62 0 26.68-42.105 0-42.105s-26.68 42.105 0 42.105zM166.008 327.368c18.635 0 18.677-29.473 0-29.473s-18.677 29.473 0 29.473z" fill="#B1D6BF"/>
    <path d="M1367.72 235.789c10.29 0 10.31-16.842 0-16.842-10.28 0-10.31 16.842 0 16.842z" fill="#45835F"/>
    <path d="M1059 408.421c11.99 0 12.01-18.947 0-18.947-11.99 0-12.01 18.947 0 18.947z" fill="#B1D6BF"/>
    <path d="M1396.01 289.474c13.31 0 13.34-21.053 0-21.053-13.35 0-13.35 21.053 0 21.053z" fill="#45835F"/>
    <path opacity=".6" fill="#323232" d="M0-177h1440v750H0z"/>
    <path d="M367.443 115.299c0-14.563 12.155-22.724 12.155-22.724-10.236 0-12.155-26.26-12.155-26.26h-.288s-1.919 26.26-12.155 26.26c0 0 12.443 6.268 12.443 20.83v1.894zM951.222 451.58c0-22.532 18.778-35.161 18.778-35.161-15.813 0-18.778-40.629-18.778-40.629h-.444s-2.965 40.629-18.778 40.629c0 0 19.222 9.699 19.222 32.231v2.93zM304.718 67.23c0-9.034 7.537-14.096 7.537-14.096-6.35 0-7.537-16.292-7.537-16.292h-.18S303.344 53.134 297 53.134c0 0 7.718 3.889 7.718 12.921v1.174zM242.718 330.387c0-9.033 7.537-14.095 7.537-14.095-6.35 0-7.537-16.292-7.537-16.292h-.18s-1.194 16.292-7.538 16.292c0 0 7.718 3.888 7.718 12.921v1.174zM1018.17 107.369c0-16.584 13.83-25.879 13.83-25.879-11.66 0-13.83-29.91-13.83-29.91h-.34s-2.19 29.91-13.83 29.91c0 0 14.17 7.14 14.17 23.723v2.156zM1070.07 128.421c0-7.196 5.93-11.23 5.93-11.23-5 0-5.93-12.98-5.93-12.98h-.14s-.94 12.98-5.93 12.98c0 0 6.07 3.098 6.07 10.295v.935z" fill="#F3B761"/>
  </g>
  <defs>
    <linearGradient id="paint0_linear" x1="-286" y1="317.895" x2="1734" y2="317.895" gradientUnits="userSpaceOnUse">
      <stop stop-color="#854400"/>
      <stop offset="1" stop-color="#F3B761"/>
    </linearGradient>
    <linearGradient id="paint1_linear" x1="155.711" y1="73.023" x2="155.711" y2="178" gradientUnits="userSpaceOnUse">
      <stop stop-color="#fff" stop-opacity=".5"/>
      <stop offset="1" stop-color="#fff" stop-opacity="0"/>
    </linearGradient>
    <linearGradient id="paint2_linear" x1="933.946" y1="107.161" x2="933.946" y2="-47" gradientUnits="userSpaceOnUse">
      <stop stop-color="#fff" stop-opacity="0"/>
      <stop offset="1" stop-color="#fff" stop-opacity=".7"/>
    </linearGradient>
    <linearGradient id="paint3_linear" x1="1039.95" y1="349.161" x2="1039.95" y2="195" gradientUnits="userSpaceOnUse">
      <stop stop-color="#fff" stop-opacity="0"/>
      <stop offset="1" stop-color="#fff" stop-opacity=".7"/>
    </linearGradient>
    <linearGradient id="paint4_linear" x1="1271.55" y1="251" x2="1271.55" y2="313" gradientUnits="userSpaceOnUse">
      <stop stop-color="#fff" stop-opacity=".71"/>
      <stop offset="1" stop-color="#fff" stop-opacity="0"/>
    </linearGradient>
    <linearGradient id="paint5_linear" x1="970" y1="775" x2="995.332" y2="239.268" gradientUnits="userSpaceOnUse">
      <stop stop-color="#214D2E"/>
      <stop offset=".651" stop-color="#286442"/>
      <stop offset="1" stop-color="#45835F"/>
    </linearGradient>
    <linearGradient id="paint6_linear" x1="-200.962" y1="781.607" x2="602.069" y2="404.971" gradientUnits="userSpaceOnUse">
      <stop stop-color="#214D2E"/>
      <stop offset=".651" stop-color="#286442"/>
      <stop offset="1" stop-color="#45835F"/>
    </linearGradient>
    <clipPath id="clip0">
      <path fill="#fff" d="M0 0h1440v480H0z"/>
    </clipPath>
    <clipPath id="clip1">
      <path fill="#fff" transform="translate(1118 130)" d="M0 0h270v270H0z"/>
    </clipPath>
  </defs>
</svg>
