<svg width="500" height="625" viewBox="0 0 500 625" fill="none" xmlns="http://www.w3.org/2000/svg">
<g clip-path="url(#clip0)">
<rect width="500" height="625" fill="url(#paint0_linear)"/>
<path d="M568 342C568 342 390.789 341.747 262.778 341.747C212.143 341.747 35 342 35 342C35 325.727 161.986 347.612 247.403 302.719C277.327 286.99 299.154 326.086 328.833 328.532C344.328 329.812 363.313 317.141 380.083 318.432C388.767 319.099 441.168 333.588 472.903 333.022C535.542 331.899 568 334.929 568 342Z" fill="url(#paint1_linear)"/>
<path d="M191.514 195.898C178.479 196.028 168.631 206.864 159.242 206.699C149.852 206.535 135.672 179 104.126 179C64.9688 179 46.4732 214.368 35.9596 214.368C24.0821 214.368 17.5023 208.442 5.86482 208.442C-24.6556 208.442 -19.156 217.847 -42 221.162C6.95056 221.162 171.572 221.162 249.892 221.162C215.443 214.368 216.202 195.654 191.514 195.898Z" fill="url(#paint2_linear)"/>
<path d="M167.514 436.898C154.479 437.028 144.631 447.864 135.242 447.699C125.852 447.535 111.672 420 80.126 420C40.9688 420 22.4732 455.368 11.9596 455.368C0.0820999 455.368 -6.4977 449.442 -18.1352 449.442C-48.6556 449.442 -43.156 458.847 -66 462.162C-17.0494 462.162 147.572 462.162 225.892 462.162C191.443 455.368 192.202 436.654 167.514 436.898Z" fill="url(#paint3_linear)"/>
<path d="M549.1 253.04C549.1 253.04 524.747 253.278 427.333 253.278C388.801 253.278 254 253.473 254 253.473C254 240.907 386.167 254.773 411.733 243.94C435.497 233.869 455.015 241.184 477.6 243.073C489.391 244.061 505.572 226.043 518.333 227.04C536.2 228.435 549.1 249.101 549.1 253.04Z" fill="url(#paint4_linear)"/>
<path d="M-48 904C212.126 904 423 815.128 423 705.5C423 595.871 212.126 507 -48 507C-308.126 507 -519 595.871 -519 705.5C-519 815.128 -308.126 904 -48 904Z" fill="#214D2E"/>
<path d="M382 904C642.126 904 853 815.128 853 705.5C853 595.871 642.126 507 382 507C121.874 507 -89 595.871 -89 705.5C-89 815.128 121.874 904 382 904Z" fill="url(#paint5_linear)"/>
<path d="M361.891 397C361.891 397 325.347 404.683 308.492 423.889L304.202 456.234C329.177 447.936 355.302 444.325 379.589 443.403L361.891 397Z" fill="#FFE1A8"/>
<path d="M346.032 448.858H337.605V436.95C337.605 434.645 339.52 432.725 341.819 432.725C344.117 432.725 346.032 434.645 346.032 436.95V448.858Z" fill="#F8C066"/>
<path d="M333.008 451.547H326.113V438.41C326.113 436.72 327.492 435.414 329.101 435.414H329.177C331.246 435.414 333.008 437.104 333.008 439.255V451.547Z" fill="#F8C066"/>
<path d="M321.516 455.389H315.387V442.328C315.387 440.638 316.766 439.255 318.452 439.255C320.137 439.255 321.516 440.638 321.516 442.328V455.389Z" fill="#F8C066"/>
<path d="M311.556 456.925H307.726V446.553C307.726 445.478 308.568 444.633 309.641 444.633H309.947C310.79 444.633 311.556 445.324 311.556 446.246V456.925Z" fill="#F8C066"/>
<path d="M362.121 446.169H349.863V436.95C349.863 433.57 352.621 430.804 355.992 430.804C359.363 430.804 362.121 433.57 362.121 436.95V446.169Z" fill="#F8C066"/>
<path d="M303.742 459.768L300.524 484.045C317.685 481.433 359.286 475.748 397.056 475.748C398.359 475.748 398.972 469.986 398.972 469.986L390.698 446.169C346.415 446.63 313.319 456.541 303.742 459.768Z" fill="#FFE1A8"/>
<path d="M393.532 446.169C392.536 446.169 391.54 446.169 390.621 446.169L398.895 469.986L397.363 476.132L400.887 475.748C445.093 476.055 473.746 481.125 483.782 483.277L481.178 459.537C466.544 455.388 429.847 446.169 393.532 446.169Z" fill="#D6801C"/>
<path d="M418.048 485.351H405.79V463.071C405.79 459.691 408.548 456.925 411.919 456.925C415.29 456.925 418.048 459.691 418.048 463.071V485.351Z" fill="#F8C066"/>
<path d="M435.669 485.351H423.411V463.071C423.411 459.691 426.169 456.925 429.54 456.925C432.911 456.925 435.669 459.691 435.669 463.071V485.351Z" fill="#F8C066"/>
<path d="M449.46 487.656H440.266V463.839C440.266 461.304 442.335 459.23 444.863 459.23C447.391 459.23 449.46 461.304 449.46 463.839V487.656Z" fill="#F8C066"/>
<path d="M346.032 488.424H336.839V465.299C336.839 462.764 338.831 460.766 341.359 460.766H341.512C344.04 460.766 346.032 462.764 346.032 465.299V488.424Z" fill="#F8C066"/>
<path d="M332.242 489.192H323.048V467.527C323.048 465.069 325.04 463.071 327.492 463.071H327.875C330.327 463.071 332.318 465.069 332.318 467.527V489.192H332.242Z" fill="#F8C066"/>
<path d="M463.25 488.424H454.057V466.759C454.057 464.3 456.049 462.303 458.5 462.303H458.883C461.335 462.303 463.327 464.3 463.327 466.759V488.424H463.25Z" fill="#F8C066"/>
<path d="M319.984 489.961H313.855V468.987C313.855 467.45 315.081 466.144 316.69 466.144H317.226C318.758 466.144 320.061 467.374 320.061 468.987V489.961H319.984Z" fill="#F8C066"/>
<path d="M472.443 488.424H466.314V467.45C466.314 465.914 467.54 464.608 469.149 464.608H469.685C471.218 464.608 472.52 465.837 472.52 467.45V488.424H472.443Z" fill="#F8C066"/>
<path d="M480.871 491.497H475.508V470.293C475.508 468.833 476.657 467.681 478.113 467.681H478.266C479.722 467.681 480.871 468.833 480.871 470.293V491.497Z" fill="#F8C066"/>
<path d="M310.024 489.961H304.661V470.985C304.661 469.602 305.81 468.449 307.189 468.449H307.572C308.951 468.449 310.101 469.602 310.101 470.985V489.961H310.024Z" fill="#F8C066"/>
<path d="M380.508 485.351H368.25V463.071C368.25 459.691 371.008 456.925 374.379 456.925C377.75 456.925 380.508 459.691 380.508 463.071V485.351Z" fill="#F8C066"/>
<path d="M362.887 486.888H350.629V464.608C350.629 461.227 353.387 458.462 356.758 458.462C360.129 458.462 362.887 461.227 362.887 464.608V486.888Z" fill="#F8C066"/>
<path d="M396.98 482.662C358.52 482.662 316.077 488.578 299.528 491.113L297 511.472C339.903 521.46 433.371 523.765 487 512.24L484.548 490.345C475.048 488.27 444.633 482.662 396.98 482.662Z" fill="#FFE1A8"/>
<path d="M401.194 476.132L398.895 470.063L394.375 457.002C393.992 456.925 393.609 456.848 393.226 456.848H392.383C389.242 456.848 386.714 459.384 386.714 462.534V475.748C390.161 475.671 393.609 475.594 397.057 475.594C397.593 475.748 400.581 476.132 401.194 476.132Z" fill="#F8C066"/>
<path d="M444.863 491.497C442.335 491.497 440.266 493.571 440.266 496.107V518.387C443.407 518.156 446.472 517.926 449.46 517.618V496.107C449.46 493.571 447.391 491.497 444.863 491.497Z" fill="#F8C066"/>
<path d="M430.306 491.497C426.935 491.497 424.177 494.263 424.177 497.643V519.385C428.314 519.232 432.375 519.001 436.435 518.694V497.643C436.435 494.263 433.677 491.497 430.306 491.497Z" fill="#F8C066"/>
<path d="M483.936 495.108C483.936 493.571 482.71 492.265 481.101 492.265H480.565C479.032 492.265 477.73 493.495 477.73 495.108V514.007C479.799 513.623 481.867 513.239 483.859 512.855V495.108H483.936Z" fill="#F8C066"/>
<path d="M411.919 491.497C408.548 491.497 405.79 494.263 405.79 497.643V519.923C409.927 519.846 413.988 519.769 418.048 519.616V497.643C418.048 494.263 415.29 491.497 411.919 491.497Z" fill="#F8C066"/>
<path d="M458.807 491.497H458.424C455.972 491.497 453.98 493.495 453.98 495.953V517.234C457.121 516.927 460.186 516.543 463.174 516.159V495.876C463.25 493.495 461.258 491.497 458.807 491.497Z" fill="#F8C066"/>
<path d="M470.375 492.265H469.839C468.306 492.265 467.004 493.495 467.004 495.108V515.698C469.072 515.39 471.141 515.083 473.133 514.776V495.108C473.21 493.495 471.984 492.265 470.375 492.265Z" fill="#F8C066"/>
<path d="M374.379 491.497C371.008 491.497 368.25 494.263 368.25 497.643V519.462C372.31 519.616 376.371 519.769 380.508 519.846V497.643C380.508 494.263 377.75 491.497 374.379 491.497Z" fill="#F8C066"/>
<path d="M305.734 491.497H305.121C303.589 491.497 302.363 492.726 302.363 494.263V512.624C304.355 513.009 306.347 513.393 308.492 513.777V494.263C308.492 492.726 307.266 491.497 305.734 491.497Z" fill="#F8C066"/>
<path d="M341.512 491.497H341.359C338.831 491.497 336.839 493.495 336.839 496.03V517.388C339.827 517.695 342.891 517.926 346.032 518.156V496.03C346.032 493.495 344.04 491.497 341.512 491.497Z" fill="#F8C066"/>
<path d="M316.383 491.497H315.924C314.315 491.497 313.089 492.803 313.089 494.34V514.545C315.081 514.852 317.149 515.16 319.218 515.467V494.416C319.218 492.803 317.915 491.497 316.383 491.497Z" fill="#F8C066"/>
<path d="M392.766 491.497C389.395 491.497 386.637 494.263 386.637 497.643V519.923C390.698 520 394.835 520 398.895 520V497.72C398.895 494.263 396.137 491.497 392.766 491.497Z" fill="#F8C066"/>
<path d="M327.798 491.497H327.415C324.964 491.497 322.972 493.495 322.972 495.953V515.928C325.96 516.312 329.024 516.619 332.165 517.004V495.953C332.242 493.495 330.25 491.497 327.798 491.497Z" fill="#F8C066"/>
<path d="M355.992 491.497C352.621 491.497 349.863 494.263 349.863 497.643V518.463C353.847 518.771 357.984 519.001 362.121 519.155V497.643C362.121 494.263 359.363 491.497 355.992 491.497Z" fill="#F8C066"/>
<path d="M484.548 490.345L483.782 483.277C473.44 481.125 443.331 475.748 396.98 475.748C359.21 475.748 317.609 481.433 300.448 484.045L299.528 491.113C316.077 488.578 358.52 482.662 396.98 482.662C444.633 482.662 475.048 488.27 484.548 490.345Z" fill="#FFEFD8"/>
<path d="M480.871 456.157C456.355 445.401 375.145 431.572 304.202 456.234L303.742 459.768C368.25 440.791 431.073 444.633 481.178 459.537L480.871 456.157Z" fill="#FFEFD8"/>
<path d="M380 197C386.659 197 386.675 187 380 187C373.341 187 373.325 197 380 197Z" fill="white"/>
<path d="M386.5 84C392.496 84 392.504 75 386.5 75C380.504 75 380.496 84 386.5 84Z" fill="#BE2A26"/>
<path d="M34.5 110C40.4958 110 40.5042 101 34.5 101C28.5042 101 28.4958 110 34.5 110Z" fill="white"/>
<path d="M410.5 149C411.809 149 413.058 147.85 412.998 146.5C412.938 145.145 411.899 144 410.5 144C409.191 144 407.942 145.15 408.002 146.5C408.062 147.855 409.101 149 410.5 149Z" fill="#286442"/>
<path d="M58.5 141C63.9974 141 69.2431 136.17 68.9913 130.5C68.7395 124.809 64.3751 120 58.5 120C53.0026 120 47.7569 124.83 48.0087 130.5C48.2605 136.191 52.6249 141 58.5 141Z" fill="#286442"/>
<rect opacity="0.6" width="500" height="625" fill="#161616"/>
<path d="M454.588 247C454.588 238.676 462 234.01 462 234.01C455.758 234.01 454.588 219 454.588 219H454.412C454.412 219 453.242 234.01 447 234.01C447 234.01 454.588 237.593 454.588 245.918V247Z" fill="#F8C066"/>
<path d="M177.059 70C177.059 64.0548 182 60.7229 182 60.7229C177.837 60.7229 177.059 50 177.059 50H176.941C176.941 50 176.159 60.7229 172 60.7229C172 60.7229 177.059 63.2821 177.059 69.2273V70Z" fill="#F8C066"/>
<path d="M420.647 118C420.647 103.732 433 95.7349 433 95.7349C422.593 95.7349 420.647 70 420.647 70H420.353C420.353 70 418.397 95.7349 408 95.7349C408 95.7349 420.647 101.877 420.647 116.145V118Z" fill="#F8C066"/>
<path d="M470.071 124C470.071 117.163 476 113.331 476 113.331C471.005 113.331 470.071 101 470.071 101H469.929C469.929 101 468.991 113.331 464 113.331C464 113.331 470.071 116.274 470.071 123.111V124Z" fill="#F8C066"/>
</g>
<defs>
<linearGradient id="paint0_linear" x1="228" y1="-188.75" x2="228" y2="562.5" gradientUnits="userSpaceOnUse">
<stop stop-color="#B01434"/>
<stop offset="1" stop-color="#F8C06D"/>
</linearGradient>
<linearGradient id="paint1_linear" x1="302" y1="268" x2="302" y2="342" gradientUnits="userSpaceOnUse">
<stop stop-color="white" stop-opacity="0.5"/>
<stop offset="1" stop-color="white" stop-opacity="0"/>
</linearGradient>
<linearGradient id="paint2_linear" x1="103.946" y1="221.161" x2="103.946" y2="67" gradientUnits="userSpaceOnUse">
<stop stop-color="white" stop-opacity="0"/>
<stop offset="1" stop-color="white" stop-opacity="0.7"/>
</linearGradient>
<linearGradient id="paint3_linear" x1="79.946" y1="462.161" x2="79.946" y2="308" gradientUnits="userSpaceOnUse">
<stop stop-color="white" stop-opacity="0"/>
<stop offset="1" stop-color="white" stop-opacity="0.7"/>
</linearGradient>
<linearGradient id="paint4_linear" x1="401.55" y1="191" x2="401.55" y2="253" gradientUnits="userSpaceOnUse">
<stop stop-color="white" stop-opacity="0.71"/>
<stop offset="1" stop-color="white" stop-opacity="0"/>
</linearGradient>
<linearGradient id="paint5_linear" x1="100" y1="898" x2="138.306" y2="373.796" gradientUnits="userSpaceOnUse">
<stop stop-color="#214D2E"/>
<stop offset="0.651042" stop-color="#286442"/>
<stop offset="1" stop-color="#52A078"/>
</linearGradient>
<clipPath id="clip0">
<rect width="500" height="625" fill="white"/>
</clipPath>
</defs>
</svg>
