<svg width="500" height="625" fill="none"
  xmlns="http://www.w3.org/2000/svg">
  <g clip-path="url(#clip0)">
    <path fill="url(#paint0_linear)" d="M0 0h500v625H0z"/>
    <path d="M568 342s-177.211-.253-305.222-.253C212.143 341.747 35 342 35 342c0-16.273 126.986 5.612 212.403-39.281 29.924-15.729 51.751 23.367 81.43 25.813 15.495 1.28 34.48-11.391 51.25-10.1 8.684.667 61.085 15.156 92.82 14.59C535.542 331.899 568 334.929 568 342z" fill="url(#paint1_linear)"/>
    <path d="M191.514 195.898c-13.035.13-22.883 10.966-32.272 10.801-9.39-.164-23.57-27.699-55.116-27.699-39.1572 0-57.6528 35.368-68.1664 35.368-11.8775 0-18.4573-5.926-30.09478-5.926-30.52042 0-25.02082 9.405-47.86482 12.72h291.892c-34.449-6.794-33.69-25.508-58.378-25.264z" fill="url(#paint2_linear)"/>
    <path d="M167.514 436.898c-13.035.13-22.883 10.966-32.272 10.801-9.39-.164-23.57-27.699-55.116-27.699-39.1572 0-57.6528 35.368-68.1664 35.368-11.8775001 0-18.4573-5.926-30.0948-5.926-30.5204 0-25.0208 9.405-47.8648 12.72h291.892c-34.449-6.794-33.69-25.508-58.378-25.264z" fill="url(#paint3_linear)"/>
    <path d="M549.1 253.04s-24.353.238-121.767.238c-38.532 0-173.333.195-173.333.195 0-12.566 132.167 1.3 157.733-9.533 23.764-10.071 43.282-2.756 65.867-.867 11.791.988 27.972-17.03 40.733-16.033 17.867 1.395 30.767 22.061 30.767 26z" fill="url(#paint4_linear)"/>
    <path d="M-48 904c260.126 0 471-88.872 471-198.5C423 595.871 212.126 507-48 507s-471 88.871-471 198.5C-519 815.128-308.126 904-48 904z" fill="#214D2E"/>
    <path d="M382 904c260.126 0 471-88.872 471-198.5C853 595.871 642.126 507 382 507S-89 595.871-89 705.5C-89 815.128 121.874 904 382 904z" fill="url(#paint5_linear)"/>
    <path d="M361.891 397s-36.545 7.683-53.4 26.889l-4.29 32.345c24.976-8.298 51.101-11.909 75.387-12.831L361.891 397z" fill="#FFE1A8"/>
    <path d="M346.033 448.858h-8.428V436.95c0-2.305 1.916-4.225 4.214-4.225 2.299 0 4.214 1.92 4.214 4.225v11.908zM333.008 451.547h-6.895v-13.138c0-1.69 1.379-2.996 2.988-2.996h.077c2.068 0 3.83 1.69 3.83 3.841v12.293zM321.516 455.389h-6.129v-13.061c0-1.69 1.379-3.073 3.064-3.073 1.686 0 3.065 1.383 3.065 3.073v13.061zM311.557 456.925h-3.83v-10.372c0-1.075.842-1.92 1.915-1.92h.306c.843 0 1.609.691 1.609 1.613v10.679zM362.121 446.169h-12.258v-9.219c0-3.381 2.758-6.146 6.129-6.146 3.371 0 6.129 2.765 6.129 6.146v9.219z" fill="#F8C06D"/>
    <path d="M303.741 459.767l-3.218 24.278c17.162-2.612 58.763-8.298 96.533-8.298 1.302 0 1.915-5.762 1.915-5.762l-8.274-23.816c-44.282.461-77.379 10.372-86.956 13.598z" fill="#FFE1A8"/>
    <path d="M393.532 446.169h-2.911l8.274 23.816-1.532 6.146 3.524-.384c44.206.308 72.859 5.378 82.895 7.529l-2.604-23.739c-14.634-4.149-51.331-13.368-87.646-13.368z" fill="#E07A15"/>
    <path d="M418.049 485.351h-12.258v-22.28c0-3.38 2.758-6.146 6.129-6.146 3.371 0 6.129 2.766 6.129 6.146v22.28zM435.67 485.351h-12.258v-22.28c0-3.38 2.758-6.146 6.129-6.146 3.371 0 6.129 2.766 6.129 6.146v22.28zM449.459 487.655h-9.193v-23.816c0-2.535 2.068-4.61 4.596-4.61 2.529 0 4.597 2.075 4.597 4.61v23.816zM346.031 488.424h-9.193v-23.125c0-2.535 1.992-4.532 4.52-4.532h.153c2.529 0 4.52 1.997 4.52 4.532v23.125zM332.242 489.192h-9.193v-21.665c0-2.458 1.992-4.456 4.443-4.456h.383c2.452 0 4.444 1.998 4.444 4.456v21.665h-.077zM463.25 488.424h-9.193v-21.665c0-2.459 1.992-4.456 4.443-4.456h.383c2.452 0 4.444 1.997 4.444 4.456v21.665h-.077zM319.985 489.961h-6.13v-20.974c0-1.536 1.226-2.842 2.835-2.842h.536c1.533 0 2.835 1.229 2.835 2.842v20.974h-.076zM472.443 488.424h-6.129V467.45c0-1.537 1.226-2.843 2.835-2.843h.536c1.533 0 2.835 1.23 2.835 2.843v20.974h-.077zM480.871 491.497h-5.363v-21.204c0-1.46 1.149-2.612 2.605-2.612h.153c1.456 0 2.605 1.152 2.605 2.612v21.204zM310.025 489.961h-5.363v-18.976c0-1.383 1.149-2.536 2.528-2.536h.383c1.379 0 2.529 1.153 2.529 2.536v18.976h-.077zM380.508 485.351H368.25v-22.28c0-3.38 2.758-6.146 6.129-6.146 3.371 0 6.129 2.766 6.129 6.146v22.28zM362.887 486.888h-12.258v-22.28c0-3.38 2.758-6.146 6.129-6.146 3.371 0 6.129 2.766 6.129 6.146v22.28z" fill="#F8C06D"/>
    <path d="M396.98 482.662c-38.46 0-80.903 5.916-97.452 8.451L297 511.472c42.903 9.988 136.371 12.293 190 .768l-2.452-21.895c-9.5-2.075-39.915-7.683-87.568-7.683z" fill="#FFE1A8"/>
    <path d="M401.193 476.132l-2.299-6.069-4.52-13.061c-.383-.077-.766-.153-1.149-.153h-.843c-3.141 0-5.669 2.535-5.669 5.685v13.214c3.447-.077 6.895-.154 10.343-.154.536.154 3.524.538 4.137.538zM444.862 491.497c-2.528 0-4.596 2.074-4.596 4.61v22.28c3.141-.231 6.205-.461 9.193-.769v-21.511c0-2.536-2.068-4.61-4.597-4.61zM430.307 491.497c-3.371 0-6.129 2.766-6.129 6.146v21.742c4.137-.153 8.197-.384 12.258-.691v-21.051c0-3.38-2.758-6.146-6.129-6.146zM483.936 495.108c0-1.536-1.226-2.842-2.835-2.842h-.536c-1.532 0-2.835 1.229-2.835 2.842v18.9c2.069-.384 4.138-.769 6.129-1.153v-17.747h.077zM411.92 491.497c-3.371 0-6.129 2.766-6.129 6.146v22.28c4.137-.077 8.198-.154 12.258-.307v-21.973c0-3.38-2.758-6.146-6.129-6.146zM458.807 491.497h-.383c-2.452 0-4.444 1.998-4.444 4.456v21.281c3.142-.307 6.206-.691 9.194-1.075v-20.283c.077-2.381-1.915-4.379-4.367-4.379zM470.375 492.266h-.536c-1.533 0-2.835 1.229-2.835 2.842v20.59c2.068-.307 4.137-.615 6.129-.922v-19.668c.077-1.613-1.149-2.842-2.758-2.842zM374.379 491.497c-3.371 0-6.129 2.766-6.129 6.146v21.819c4.06.154 8.121.307 12.258.384v-22.203c0-3.38-2.758-6.146-6.129-6.146zM305.734 491.497h-.613c-1.532 0-2.758 1.229-2.758 2.766v18.361c1.992.385 3.984.769 6.129 1.153v-19.514c0-1.537-1.225-2.766-2.758-2.766zM341.511 491.497h-.153c-2.528 0-4.52 1.998-4.52 4.533v21.358c2.988.307 6.052.538 9.193.768V496.03c0-2.535-1.991-4.533-4.52-4.533zM316.382 491.497h-.459c-1.609 0-2.835 1.306-2.835 2.843v20.205c1.992.307 4.06.615 6.129.922v-21.051c0-1.613-1.302-2.919-2.835-2.919zM392.766 491.497c-3.371 0-6.129 2.766-6.129 6.146v22.28c4.06.077 8.197.077 12.258.077v-22.28c0-3.457-2.758-6.223-6.129-6.223zM327.799 491.497h-.383c-2.451 0-4.443 1.998-4.443 4.456v19.975c2.988.384 6.052.691 9.193 1.076v-21.051c.077-2.458-1.915-4.456-4.367-4.456zM355.992 491.497c-3.371 0-6.129 2.766-6.129 6.146v20.82c3.984.308 8.121.538 12.258.692v-21.512c0-3.38-2.758-6.146-6.129-6.146z" fill="#F8C06D"/>
    <path d="M484.548 490.345l-.767-7.068c-10.342-2.151-40.451-7.529-86.802-7.529-37.77 0-79.371 5.685-96.532 8.297l-.92 7.068c16.549-2.535 58.992-8.451 97.452-8.451 47.653 0 78.069 5.609 87.569 7.683zM480.871 456.156c-24.516-10.756-105.726-24.584-176.669.077l-.46 3.534c64.508-18.976 127.331-15.135 177.436-.23l-.307-3.381z" fill="#FFEFD8"/>
    <path opacity=".6" fill="#161616" d="M0 0h500v625H0z"/>
  </g>
  <defs>
    <linearGradient id="paint0_linear" x1="228" y1="-188.75" x2="228" y2="562.5" gradientUnits="userSpaceOnUse">
      <stop stop-color="#B01434"/>
      <stop offset="1" stop-color="#F8C06D"/>
    </linearGradient>
    <linearGradient id="paint1_linear" x1="302" y1="268" x2="302" y2="342" gradientUnits="userSpaceOnUse">
      <stop stop-color="#fff" stop-opacity=".5"/>
      <stop offset="1" stop-color="#fff" stop-opacity="0"/>
    </linearGradient>
    <linearGradient id="paint2_linear" x1="103.946" y1="221.161" x2="103.946" y2="67" gradientUnits="userSpaceOnUse">
      <stop stop-color="#fff" stop-opacity="0"/>
      <stop offset="1" stop-color="#fff" stop-opacity=".7"/>
    </linearGradient>
    <linearGradient id="paint3_linear" x1="79.946" y1="462.161" x2="79.946" y2="308" gradientUnits="userSpaceOnUse">
      <stop stop-color="#fff" stop-opacity="0"/>
      <stop offset="1" stop-color="#fff" stop-opacity=".7"/>
    </linearGradient>
    <linearGradient id="paint4_linear" x1="401.55" y1="191" x2="401.55" y2="253" gradientUnits="userSpaceOnUse">
      <stop stop-color="#fff" stop-opacity=".71"/>
      <stop offset="1" stop-color="#fff" stop-opacity="0"/>
    </linearGradient>
    <linearGradient id="paint5_linear" x1="100" y1="898" x2="138.306" y2="373.796" gradientUnits="userSpaceOnUse">
      <stop stop-color="#214D2E"/>
      <stop offset=".651042" stop-color="#286442"/>
      <stop offset="1" stop-color="#52A078"/>
    </linearGradient>
    <clipPath id="clip0">
      <path fill="#fff" d="M0 0h500v625H0z"/>
    </clipPath>
  </defs>
</svg>