<svg width="1440" height="480" fill="none" xmlns="http://www.w3.org/2000/svg">
  <g clip-path="url(#clip0)">
    <path d="M0 0h1440v480H0V0z" fill="url(#paint0_linear)"/>
    <path d="M534 178s-252.019-.358-434.068-.358C27.922 177.642-224 178-224 178c0-23.086 180.592 7.961 302.066-55.724 42.557-22.313 73.598 33.148 115.806 36.619 22.035 1.815 49.035-16.16 72.884-14.329 12.35.947 86.871 21.501 132.003 20.697C487.84 163.671 534 167.97 534 178z" fill="url(#paint1_linear)"/>
    <path d="M1021.51 81.898c-13.03.13-22.879 10.966-32.268 10.801-9.39-.164-23.57-27.699-55.116-27.699-39.157 0-57.653 35.368-68.166 35.368-11.878 0-18.458-5.926-30.095-5.926-30.521 0-25.021 9.405-47.865 12.72h291.89c-34.45-6.794-33.69-25.508-58.38-25.264z" fill="url(#paint2_linear)"/>
    <path d="M1127.51 323.898c-13.03.13-22.88 10.966-32.27 10.801-9.39-.164-23.57-27.699-55.11-27.699-39.16 0-57.657 35.368-68.17 35.368-11.878 0-18.458-5.926-30.095-5.926-30.521 0-25.021 9.405-47.865 12.72h291.89c-34.45-6.794-33.69-25.508-58.38-25.264z" fill="url(#paint3_linear)"/>
    <path d="M1419.1 313.04s-24.35.238-121.77.238c-38.53 0-173.33.195-173.33.195 0-12.566 132.17 1.3 157.73-9.533 23.77-10.071 43.28-2.756 65.87-.867 11.79.988 27.97-17.03 40.73-16.033 17.87 1.395 30.77 22.061 30.77 26z" fill="url(#paint4_linear)"/>
    <path d="M720 846c332.48 0 602-113.496 602-253.5 0-140.004-269.52-253.5-602-253.5-332.475 0-602 113.496-602 253.5C118 732.504 387.525 846 720 846z" fill="#214D2E"/>
    <path d="M1252 781c260.13 0 471-88.872 471-198.5 0-109.629-210.87-198.5-471-198.5-260.126 0-471 88.871-471 198.5C781 692.128 991.874 781 1252 781z" fill="url(#paint5_linear)"/>
    <path d="M99 788c276.695 0 501-94.692 501-211.5S375.695 365 99 365s-501 94.692-501 211.5S-177.695 788 99 788z" fill="url(#paint6_linear)"/>
    <path d="M1209.69 210.526s-53.77 11.901-78.58 41.652l-6.31 50.101c36.75-12.853 75.2-18.446 110.94-19.874l-26.05-71.879z" fill="#FFE1A8"/>
    <path d="M1186.36 290.854h-12.4v-18.445c0-3.57 2.81-6.545 6.2-6.545 3.38 0 6.2 2.975 6.2 6.545v18.445zM1167.19 295.02h-10.15v-20.35c0-2.618 2.03-4.641 4.4-4.641h.11c3.05 0 5.64 2.618 5.64 5.95v19.041zM1150.28 300.97h-9.02v-20.231c0-2.618 2.03-4.76 4.51-4.76s4.51 2.142 4.51 4.76v20.231zM1135.62 303.35h-5.63v-16.066c0-1.666 1.24-2.975 2.82-2.975h.45c1.24 0 2.36 1.071 2.36 2.499v16.542zM1210.03 286.689h-18.04v-14.28c0-5.236 4.06-9.521 9.02-9.521s9.02 4.285 9.02 9.521v14.28z" fill="#F8C06D"/>
    <path d="M1124.12 307.753l-4.73 37.605c25.25-4.046 86.47-12.852 142.05-12.852 1.92 0 2.82-8.925 2.82-8.925l-12.18-36.892c-65.16.714-113.86 16.066-127.96 21.064z" fill="#FFE1A8"/>
    <path d="M1256.25 286.689h-4.28l12.18 36.892-2.26 9.52 5.19-.595c65.05.476 107.21 8.33 121.98 11.662l-3.83-36.772c-21.53-6.426-75.54-20.707-128.98-20.707z" fill="#E07A15"/>
    <path d="M1292.33 347.382h-18.04V312.87c0-5.236 4.06-9.52 9.02-9.52s9.02 4.284 9.02 9.52v34.512zM1318.26 347.382h-18.04V312.87c0-5.236 4.06-9.52 9.02-9.52s9.02 4.284 9.02 9.52v34.512zM1338.55 350.952h-13.52V314.06c0-3.927 3.04-7.14 6.76-7.14 3.72 0 6.76 3.213 6.76 7.14v36.892zM1186.36 352.142h-13.53v-35.821c0-3.927 2.93-7.021 6.65-7.021h.23c3.72 0 6.65 3.094 6.65 7.021v35.821zM1166.06 353.332h-13.53v-33.559c0-3.809 2.94-6.903 6.54-6.903h.57c3.6 0 6.54 3.094 6.54 6.903v33.559h-.12zM1358.85 352.142h-13.53v-33.559c0-3.808 2.93-6.903 6.54-6.903h.56c3.61 0 6.54 3.095 6.54 6.903v33.559h-.11zM1148.02 354.522h-9.01v-32.488c0-2.381 1.8-4.404 4.17-4.404h.79c2.25 0 4.17 1.904 4.17 4.404v32.488h-.12zM1372.38 352.142h-9.02v-32.489c0-2.38 1.8-4.403 4.17-4.403h.79c2.25 0 4.17 1.904 4.17 4.403v32.489h-.11zM1384.78 356.902h-7.89v-32.845c0-2.261 1.69-4.046 3.83-4.046h.22c2.15 0 3.84 1.785 3.84 4.046v32.845zM1133.37 354.522h-7.89v-29.394c0-2.142 1.69-3.928 3.72-3.928h.56c2.03 0 3.72 1.786 3.72 3.928v29.394h-.11zM1237.09 347.382h-18.04V312.87c0-5.236 4.06-9.52 9.02-9.52s9.02 4.284 9.02 9.52v34.512zM1211.16 349.762h-18.04v-34.511c0-5.237 4.06-9.521 9.02-9.521s9.02 4.284 9.02 9.521v34.511z" fill="#F8C06D"/>
    <path d="M1261.33 343.217c-56.6 0-119.05 9.163-143.41 13.09l-3.72 31.536c63.14 15.471 200.68 19.041 279.6 1.19l-3.61-33.916c-13.98-3.213-58.74-11.9-128.86-11.9z" fill="#FFE1A8"/>
    <path d="M1267.53 333.101l-3.38-9.401-6.66-20.231c-.56-.119-1.12-.238-1.69-.238h-1.24c-4.62 0-8.34 3.927-8.34 8.807v20.468c5.07-.119 10.15-.238 15.22-.238.79.238 5.19.833 6.09.833zM1331.79 356.902c-3.72 0-6.76 3.213-6.76 7.14v34.511c4.62-.357 9.13-.714 13.52-1.19v-33.321c0-3.927-3.04-7.14-6.76-7.14zM1310.37 356.902c-4.96 0-9.02 4.284-9.02 9.52V400.1c6.09-.238 12.06-.595 18.04-1.071v-32.607c0-5.236-4.06-9.52-9.02-9.52zM1389.29 362.495c0-2.38-1.81-4.403-4.17-4.403h-.79c-2.26 0-4.17 1.904-4.17 4.403v29.275c3.04-.595 6.08-1.19 9.01-1.785v-27.49h.12zM1283.31 356.902c-4.96 0-9.02 4.284-9.02 9.52v34.512c6.09-.119 12.07-.238 18.04-.476v-34.036c0-5.236-4.06-9.52-9.02-9.52zM1352.31 356.902h-.57c-3.6 0-6.53 3.094-6.53 6.902v32.964c4.62-.476 9.13-1.071 13.52-1.666v-31.417c.12-3.689-2.81-6.783-6.42-6.783zM1369.33 358.092h-.79c-2.25 0-4.17 1.904-4.17 4.403v31.893c3.05-.476 6.09-.952 9.02-1.428v-30.465c.11-2.499-1.69-4.403-4.06-4.403zM1228.07 356.902c-4.96 0-9.02 4.284-9.02 9.52v33.798c5.98.238 11.95.476 18.04.595v-34.393c0-5.236-4.06-9.52-9.02-9.52zM1127.06 356.902h-.91c-2.25 0-4.06 1.904-4.06 4.284v28.442c2.94.595 5.87 1.19 9.02 1.785v-30.227c0-2.38-1.8-4.284-4.05-4.284zM1179.71 356.902h-.23c-3.72 0-6.65 3.094-6.65 7.021v33.083c4.39.476 8.9.833 13.53 1.19v-34.273c0-3.927-2.93-7.021-6.65-7.021zM1142.73 356.902h-.68c-2.37 0-4.17 2.023-4.17 4.403v31.298c2.93.476 5.97.952 9.02 1.428v-32.607c0-2.499-1.92-4.522-4.17-4.522zM1255.13 356.902c-4.96 0-9.02 4.284-9.02 9.52v34.512c5.97.119 12.06.119 18.04.119v-34.512c0-5.355-4.06-9.639-9.02-9.639zM1159.52 356.902h-.56c-3.61 0-6.54 3.094-6.54 6.902v30.941c4.4.595 8.91 1.071 13.53 1.666v-32.607c.11-3.808-2.82-6.902-6.43-6.902zM1201.01 356.902c-4.96 0-9.02 4.284-9.02 9.52v32.25c5.87.476 11.95.833 18.04 1.071v-33.321c0-5.236-4.06-9.52-9.02-9.52z" fill="#F8C06D"/>
    <path d="M1390.19 355.117l-1.13-10.949c-15.22-3.332-59.52-11.662-127.73-11.662-55.58 0-116.8 8.806-142.05 12.852l-1.36 10.949c24.36-3.927 86.81-13.091 143.41-13.091 70.12 0 114.88 8.688 128.86 11.901zM1384.78 302.16c-36.08-16.661-155.58-38.082-259.98.119l-.68 5.474c94.93-29.394 187.38-23.444 261.11-.357l-.45-5.236z" fill="#FFEFD8"/>
    <path opacity=".6" fill="#161616" d="M0-177h1440v750H0z"/>
  </g>
  <defs>
    <linearGradient id="paint0_linear" x1="-1442" y1="330.527" x2="1994" y2="330.527" gradientUnits="userSpaceOnUse">
      <stop stop-color="#B01434"/>
      <stop offset="1" stop-color="#F8C06D"/>
    </linearGradient>
    <linearGradient id="paint1_linear" x1="155.711" y1="73.023" x2="155.711" y2="178" gradientUnits="userSpaceOnUse">
      <stop stop-color="#fff" stop-opacity=".5"/>
      <stop offset="1" stop-color="#fff" stop-opacity="0"/>
    </linearGradient>
    <linearGradient id="paint2_linear" x1="933.946" y1="107.161" x2="933.946" y2="-47" gradientUnits="userSpaceOnUse">
      <stop stop-color="#fff" stop-opacity="0"/>
      <stop offset="1" stop-color="#fff" stop-opacity=".7"/>
    </linearGradient>
    <linearGradient id="paint3_linear" x1="1039.95" y1="349.161" x2="1039.95" y2="195" gradientUnits="userSpaceOnUse">
      <stop stop-color="#fff" stop-opacity="0"/>
      <stop offset="1" stop-color="#fff" stop-opacity=".7"/>
    </linearGradient>
    <linearGradient id="paint4_linear" x1="1271.55" y1="251" x2="1271.55" y2="313" gradientUnits="userSpaceOnUse">
      <stop stop-color="#fff" stop-opacity=".71"/>
      <stop offset="1" stop-color="#fff" stop-opacity="0"/>
    </linearGradient>
    <linearGradient id="paint5_linear" x1="970" y1="775" x2="1043.66" y2="170.608" gradientUnits="userSpaceOnUse">
      <stop stop-color="#323C46"/>
      <stop offset="0" stop-color="#214D2E"/>
      <stop offset=".651" stop-color="#286442"/>
      <stop offset="1" stop-color="#52A078"/>
    </linearGradient>
    <linearGradient id="paint6_linear" x1="-200.962" y1="781.607" x2="757.994" y2="696.916" gradientUnits="userSpaceOnUse">
      <stop stop-color="#214D2E"/>
      <stop offset=".651" stop-color="#286442"/>
      <stop offset="1" stop-color="#52A078"/>
    </linearGradient>
    <clipPath id="clip0">
      <path fill="#fff" d="M0 0h1440v480H0z"/>
    </clipPath>
  </defs>
</svg>
