<svg width="500" height="625" viewBox="0 0 500 625" fill="none" xmlns="http://www.w3.org/2000/svg">
<g clip-path="url(#clip0)">
<rect width="500" height="625" fill="url(#paint0_linear)"/>
<path d="M314 312C314 312 136.789 311.747 8.77777 311.747C-41.8572 311.747 -219 312 -219 312C-219 295.727 -92.0139 317.612 -6.59723 272.719C23.3271 256.99 45.1539 296.086 74.8333 298.532C90.3279 299.812 109.313 287.141 126.083 288.432C134.767 289.099 187.168 303.588 218.903 303.022C281.542 301.899 314 304.929 314 312Z" fill="url(#paint1_linear)"/>
<path d="M511.514 344.898C498.479 345.028 488.631 355.864 479.242 355.699C469.852 355.535 455.672 328 424.126 328C384.969 328 366.473 363.368 355.96 363.368C344.082 363.368 337.502 357.442 325.865 357.442C295.344 357.442 300.844 366.847 278 370.162C326.951 370.162 491.572 370.162 569.892 370.162C535.443 363.368 536.202 344.654 511.514 344.898Z" fill="url(#paint2_linear)"/>
<path d="M167.514 436.898C154.479 437.028 144.631 447.864 135.242 447.699C125.852 447.535 111.672 420 80.126 420C40.9688 420 22.4732 455.368 11.9596 455.368C0.0820999 455.368 -6.4977 449.442 -18.1352 449.442C-48.6556 449.442 -43.156 458.847 -66 462.162C-17.0494 462.162 147.572 462.162 225.892 462.162C191.443 455.368 192.202 436.654 167.514 436.898Z" fill="url(#paint3_linear)"/>
<path d="M549.1 206.04C549.1 206.04 524.747 206.278 427.333 206.278C388.801 206.278 254 206.473 254 206.473C254 193.907 386.167 207.773 411.733 196.94C435.497 186.869 455.015 194.184 477.6 196.073C489.391 197.061 505.572 179.043 518.333 180.04C536.2 181.435 549.1 202.101 549.1 206.04Z" fill="url(#paint4_linear)"/>
<path d="M-58 904C202.126 904 413 815.128 413 705.5C413 595.871 202.126 507 -58 507C-318.126 507 -529 595.871 -529 705.5C-529 815.128 -318.126 904 -58 904Z" fill="#951513"/>
<path d="M382 904C642.126 904 853 815.128 853 705.5C853 595.871 642.126 507 382 507C121.874 507 -89 595.871 -89 705.5C-89 815.128 121.874 904 382 904Z" fill="url(#paint5_linear)"/>
<path d="M460.1 388.6H301.9V399.8H460.1V388.6Z" fill="#951513"/>
<path d="M460.1 420.1H301.9V431.3H460.1V420.1Z" fill="#951513"/>
<path d="M467.1 388.6H294.9L287.9 377.4H474.1L467.1 388.6Z" fill="#951513"/>
<path d="M481.8 377.4C481.8 377.4 436.3 383.7 381 383.7C325.7 383.7 280.2 377.4 280.2 377.4L276 369C276 369 325 375.3 381 375.3C434.9 375.3 486 369 486 369L481.8 377.4Z" fill="#161616"/>
<path d="M390.8 396.3H371.2V424.3H390.8V396.3Z" fill="#161616"/>
<path d="M340.4 530H322.2L323.6 404H339L340.4 530Z" fill="#D73F36"/>
<path d="M341.1 399.8H321.5V404H341.1V399.8Z" fill="#161616"/>
<path d="M342.5 462.8H320.1V469.8H342.5V462.8Z" fill="#161616"/>
<path d="M343.9 530H318L319.4 500.6H342.5L343.9 530Z" fill="#951513"/>
<path d="M439.8 530H421.6L423 404H438.4L439.8 530Z" fill="#D73F36"/>
<path d="M441.9 462.8H419.5V469.8H441.9V462.8Z" fill="#161616"/>
<path d="M440.5 399.8H420.9V404H440.5V399.8Z" fill="#161616"/>
<path d="M444 530H418.1L419.5 500.6H442.6L444 530Z" fill="#951513"/>
<path d="M380 197C386.659 197 386.675 187 380 187C373.341 187 373.325 197 380 197Z" fill="white"/>
<path d="M386.5 84C392.496 84 392.504 75 386.5 75C380.504 75 380.496 84 386.5 84Z" fill="#D73F36"/>
<path d="M34.5 110C40.4958 110 40.5042 101 34.5 101C28.5042 101 28.4958 110 34.5 110Z" fill="white"/>
<path d="M410.5 149C411.809 149 413.058 147.85 412.998 146.5C412.938 145.145 411.899 144 410.5 144C409.191 144 407.942 145.15 408.002 146.5C408.062 147.855 409.101 149 410.5 149Z" fill="#F8C066"/>
<path d="M58.5 141C63.9974 141 69.2431 136.17 68.9913 130.5C68.7395 124.809 64.3751 120 58.5 120C53.0026 120 47.7569 124.83 48.0087 130.5C48.2605 136.191 52.6249 141 58.5 141Z" fill="#D73F36"/>
<rect opacity="0.6" width="500" height="625" fill="#323232"/>
<path d="M454.588 247C454.588 238.676 462 234.01 462 234.01C455.758 234.01 454.588 219 454.588 219H454.412C454.412 219 453.242 234.01 447 234.01C447 234.01 454.588 237.593 454.588 245.918V247Z" fill="#F8C066"/>
<path d="M177.059 70C177.059 64.0548 182 60.7229 182 60.7229C177.837 60.7229 177.059 50 177.059 50H176.941C176.941 50 176.159 60.7229 172 60.7229C172 60.7229 177.059 63.2821 177.059 69.2273V70Z" fill="#F8C066"/>
<path d="M420.647 118C420.647 103.732 433 95.7349 433 95.7349C422.593 95.7349 420.647 70 420.647 70H420.353C420.353 70 418.397 95.7349 408 95.7349C408 95.7349 420.647 101.877 420.647 116.145V118Z" fill="#F8C066"/>
<path d="M470.071 124C470.071 117.163 476 113.331 476 113.331C471.005 113.331 470.071 101 470.071 101H469.929C469.929 101 468.991 113.331 464 113.331C464 113.331 470.071 116.274 470.071 123.111V124Z" fill="#F8C066"/>
</g>
<defs>
<linearGradient id="paint0_linear" x1="234" y1="-60" x2="234" y2="625" gradientUnits="userSpaceOnUse">
<stop stop-color="#7D7D7D"/>
<stop offset="1" stop-color="white"/>
</linearGradient>
<linearGradient id="paint1_linear" x1="48" y1="263" x2="48" y2="312" gradientUnits="userSpaceOnUse">
<stop stop-color="#CDCDCD"/>
<stop offset="1" stop-color="#CDCDCD" stop-opacity="0"/>
</linearGradient>
<linearGradient id="paint2_linear" x1="424" y1="390" x2="423.946" y2="216" gradientUnits="userSpaceOnUse">
<stop stop-color="#CDCDCD" stop-opacity="0"/>
<stop offset="1" stop-color="white"/>
</linearGradient>
<linearGradient id="paint3_linear" x1="80" y1="475" x2="80" y2="387" gradientUnits="userSpaceOnUse">
<stop stop-color="#CDCDCD" stop-opacity="0"/>
<stop offset="1" stop-color="white"/>
</linearGradient>
<linearGradient id="paint4_linear" x1="401.55" y1="144" x2="401.55" y2="206" gradientUnits="userSpaceOnUse">
<stop stop-color="white"/>
<stop offset="1" stop-color="#CDCDCD" stop-opacity="0"/>
</linearGradient>
<linearGradient id="paint5_linear" x1="92" y1="659" x2="261.665" y2="350.516" gradientUnits="userSpaceOnUse">
<stop stop-color="#882834"/>
<stop offset="0.651042" stop-color="#B01434"/>
<stop offset="1" stop-color="#D7323E"/>
</linearGradient>
<clipPath id="clip0">
<rect width="500" height="625" fill="white"/>
</clipPath>
</defs>
</svg>
