<svg width="500" height="625" fill="none"
  xmlns="http://www.w3.org/2000/svg">
  <g clip-path="url(#clip0)">
    <path fill="url(#paint0_linear)" d="M0 0h500v625H0z"/>
    <path d="M284 342s-177.211-.253-305.2222-.253C-71.8572 341.747-249 342-249 342c0-16.273 126.986 5.612 212.4028-39.281 29.92427-15.729 51.7511 23.367 81.4305 25.813 15.4946 1.28 34.4799-11.391 51.25-10.1 8.6837.667 61.0847 15.156 92.8197 14.59C251.542 331.899 284 334.929 284 342z" fill="url(#paint1_linear)"/>
    <path d="M511.514 254.898c-13.035.13-22.883 10.966-32.272 10.801-9.39-.164-23.57-27.699-55.116-27.699-39.157 0-57.653 35.368-68.166 35.368-11.878 0-18.458-5.926-30.095-5.926-30.521 0-25.021 9.405-47.865 12.72h291.892c-34.449-6.794-33.69-25.508-58.378-25.264z" fill="url(#paint2_linear)"/>
    <path d="M167.514 436.898c-13.035.13-22.883 10.966-32.272 10.801-9.39-.164-23.57-27.699-55.116-27.699-39.1572 0-57.6528 35.368-68.1664 35.368-11.8775001 0-18.4573-5.926-30.0948-5.926-30.5204 0-25.0208 9.405-47.8648 12.72h291.892c-34.449-6.794-33.69-25.508-58.378-25.264z" fill="url(#paint3_linear)"/>
    <path d="M549.1 396.04s-24.353.238-121.767.238c-38.532 0-173.333.195-173.333.195 0-12.566 132.167 1.3 157.733-9.533 23.764-10.071 43.282-2.756 65.867-.867 11.791.988 27.972-17.03 40.733-16.033 17.867 1.395 30.767 22.061 30.767 26z" fill="url(#paint4_linear)"/>
    <path d="M-48 904c260.126 0 471-88.872 471-198.5C423 595.871 212.126 507-48 507s-471 88.871-471 198.5C-519 815.128-308.126 904-48 904z" fill="#323C46"/>
    <path d="M382 904c260.126 0 471-88.872 471-198.5C853 595.871 642.126 507 382 507S-89 595.871-89 705.5C-89 815.128 121.874 904 382 904z" fill="url(#paint5_linear)"/>
    <path d="M466.3 492.5H293.6v6.9h172.7v-6.9z" fill="#D7323E"/>
    <path d="M477.9 499.4H282.1v6.9h195.8v-6.9z" fill="#EE6A63"/>
    <path d="M489.4 506.3H270.6v6.9h218.8v-6.9z" fill="#FFC8C2"/>
    <path d="M409.9 513.2h-59.8l11.5-20.7h36.8l11.5 20.7zM449.1 391.1H310.9v50.7h138.2v-50.7z" fill="#EE6A63"/>
    <path d="M317.8 441.8h-18.4v50.7h18.4v-50.7zM368.501 441.8h-20.7v50.7h20.7v-50.7zM412.2 441.8h-20.7v50.7h20.7v-50.7zM460.599 441.8h-18.4v50.7h18.4v-50.7z" fill="#882834"/>
    <path d="M306.3 446.4h-6.9v46.1h6.9v-46.1zM460.599 446.4h-6.9v46.1h6.9v-46.1zM405.3 446.4h-6.9v46.1h6.9v-46.1zM361.599 446.4h-6.9v46.1h6.9v-46.1z" fill="#323C46"/>
    <path d="M335.099 408.4h-18.4v23h18.4v-23zM443.3 408.4h-18.4v23h18.4v-23zM356.701 408.4h-18.4v23h18.4v-23zM378.4 408.4H360v23h18.4v-23zM400 408.4h-18.4v23H400v-23zM421.701 408.4h-18.4v23h18.4v-23z" fill="#882834"/>
    <path d="M475.6 398l-2.3-8.1c-18.4 5.8-39.2-1.2-39.2-1.2l-.2-13.7h-5.3s-.2 2.3 0 2.3c-37 6.9-58.9 6.9-97.2 0 .2 0 0-2.3 0-2.3h-5.8l.3 13.8s-19.6 5.8-39.2 1.2l-2.3 8s35.1 9.8 95 9.8 96.2-9.8 96.2-9.8z" fill="#335267"/>
    <path d="M379.4 407.8c-59.9 0-95-9.8-95-9.8l26.5 15h138.2l26.5-15s-36.3 9.8-96.2 9.8z" fill="#323C46"/>
    <path d="M392.601 410.7h-25.3v6.9h25.3v-6.9z" fill="#FFC8C2"/>
    <path d="M380 452.2c-77.2 0-114-11.6-114-11.6s18.4 20.7 33.4 20.7h161.2c15 0 33.4-20.7 33.4-20.7s-36.8 11.6-114 11.6z" fill="#323C46"/>
    <path d="M494 440.6l-2.3-6.9c-42.6 0-42.6-6.9-42.6-6.9H310.9s0 6.9-42.6 6.9l-2.3 6.9s36.8 11.5 114 11.5 114-11.5 114-11.5z" fill="#335267"/>
    <path opacity=".6" fill="#323C46" d="M0 0h500v625H0z"/>
  </g>
  <defs>
    <linearGradient id="paint0_linear" x1="234" y1="15" x2="234" y2="548.75" gradientUnits="userSpaceOnUse">
      <stop stop-color="#3F7494"/>
      <stop offset="1" stop-color="#FFC8C2"/>
    </linearGradient>
    <linearGradient id="paint1_linear" x1="18" y1="268" x2="18" y2="342" gradientUnits="userSpaceOnUse">
      <stop stop-color="#fff" stop-opacity=".5"/>
      <stop offset="1" stop-color="#fff" stop-opacity="0"/>
    </linearGradient>
    <linearGradient id="paint2_linear" x1="423.946" y1="280.161" x2="423.946" y2="126" gradientUnits="userSpaceOnUse">
      <stop stop-color="#fff" stop-opacity="0"/>
      <stop offset="1" stop-color="#fff" stop-opacity=".7"/>
    </linearGradient>
    <linearGradient id="paint3_linear" x1="79.946" y1="462.161" x2="79.946" y2="308" gradientUnits="userSpaceOnUse">
      <stop stop-color="#fff" stop-opacity="0"/>
      <stop offset="1" stop-color="#fff" stop-opacity=".7"/>
    </linearGradient>
    <linearGradient id="paint4_linear" x1="401.55" y1="334" x2="401.55" y2="396" gradientUnits="userSpaceOnUse">
      <stop stop-color="#fff" stop-opacity=".71"/>
      <stop offset="1" stop-color="#fff" stop-opacity="0"/>
    </linearGradient>
    <linearGradient id="paint5_linear" x1="100" y1="898" x2="138.306" y2="373.796" gradientUnits="userSpaceOnUse">
      <stop stop-color="#323C46"/>
      <stop offset=".651042" stop-color="#335267"/>
      <stop offset="1" stop-color="#3F7494"/>
    </linearGradient>
    <clipPath id="clip0">
      <path fill="#fff" d="M0 0h500v625H0z"/>
    </clipPath>
  </defs>
</svg>