<svg width="1440" height="480" fill="none" xmlns="http://www.w3.org/2000/svg">
  <g clip-path="url(#clip0)">
    <path d="M0 0h1440v480H0V0z" fill="url(#paint0_linear)"/>
    <path d="M534 178s-252.019-.358-434.068-.358C27.922 177.642-224 178-224 178c0-23.086 180.592 7.961 302.066-55.724 42.557-22.313 73.598 33.148 115.806 36.619 22.035 1.815 49.035-16.16 72.884-14.329 12.35.947 86.871 21.501 132.003 20.697C487.84 163.671 534 167.97 534 178z" fill="url(#paint1_linear)"/>
    <path d="M1021.51 81.898c-13.03.13-22.879 10.966-32.268 10.801-9.39-.164-23.57-27.699-55.116-27.699-39.157 0-57.653 35.368-68.166 35.368-11.878 0-18.458-5.926-30.095-5.926-30.521 0-25.021 9.405-47.865 12.72h291.89c-34.45-6.794-33.69-25.508-58.38-25.264z" fill="url(#paint2_linear)"/>
    <path d="M1127.51 323.898c-13.03.13-22.88 10.966-32.27 10.801-9.39-.164-23.57-27.699-55.11-27.699-39.16 0-57.657 35.368-68.17 35.368-11.878 0-18.458-5.926-30.095-5.926-30.521 0-25.021 9.405-47.865 12.72h291.89c-34.45-6.794-33.69-25.508-58.38-25.264z" fill="url(#paint3_linear)"/>
    <path d="M1419.1 313.04s-24.35.238-121.77.238c-38.53 0-173.33.195-173.33.195 0-12.566 132.17 1.3 157.73-9.533 23.77-10.071 43.28-2.756 65.87-.867 11.79.988 27.97-17.03 40.73-16.033 17.87 1.395 30.77 22.061 30.77 26z" fill="url(#paint4_linear)"/>
    <path d="M723 846c332.48 0 602-113.496 602-253.5 0-140.004-269.52-253.5-602-253.5-332.475 0-602 113.496-602 253.5C121 732.504 390.525 846 723 846z" fill="#323C46"/>
    <path d="M1252 781c260.13 0 471-88.872 471-198.5 0-109.629-210.87-198.5-471-198.5-260.126 0-471 88.871-471 198.5C781 692.128 991.874 781 1252 781z" fill="url(#paint5_linear)"/>
    <path d="M99 788c276.695 0 501-94.692 501-211.5S375.695 365 99 365s-501 94.692-501 211.5S-177.695 788 99 788z" fill="url(#paint6_linear)"/>
    <path d="M1370.52 369.011h-235.18v9.396h235.18v-9.396z" fill="#D7323E"/>
    <path d="M1386.32 378.407h-266.64v9.397h266.64v-9.397z" fill="#EE6A63"/>
    <path d="M1401.98 387.804h-297.96v9.396h297.96v-9.396z" fill="#FFC8C2"/>
    <path d="M1293.72 397.2h-81.44l15.66-28.189h50.12l15.66 28.189zM1347.1 230.925h-188.2v69.043h188.2v-69.043z" fill="#EE6A63"/>
    <path d="M1168.3 299.968h-25.06v69.043h25.06v-69.043zM1237.34 299.968h-28.19v69.043h28.19v-69.043zM1296.85 299.968h-28.19v69.043h28.19v-69.043zM1362.76 299.968h-25.06v69.043h25.06v-69.043z" fill="#882834"/>
    <path d="M1152.63 306.232h-9.39v62.779h9.39v-62.779zM1362.76 306.232h-9.4v62.779h9.4v-62.779zM1287.45 306.232h-9.39v62.779h9.39v-62.779zM1227.94 306.232h-9.4v62.779h9.4v-62.779z" fill="#323C46"/>
    <path d="M1191.85 254.484h-25.05v31.321h25.05v-31.321zM1339.2 254.484h-25.06v31.321h25.06v-31.321zM1221.27 254.484h-25.06v31.321h25.06v-31.321zM1250.82 254.484h-25.06v31.321h25.06v-31.321zM1280.23 254.484h-25.05v31.321h25.05v-31.321zM1309.79 254.484h-25.06v31.321h25.06v-31.321z" fill="#882834"/>
    <path d="M1383.19 240.321l-3.13-11.03c-25.06 7.898-53.39-1.634-53.39-1.634L1326.4 209h-7.22s-.27 3.132 0 3.132c-50.38 9.397-80.21 9.397-132.36 0 .27 0 0-3.132 0-3.132h-7.9l.41 18.793s-26.69 7.898-53.39 1.634l-3.13 10.894s47.8 13.346 129.37 13.346c81.57 0 131.01-13.346 131.01-13.346z" fill="#335267"/>
    <path d="M1252.18 253.667c-81.57 0-129.37-13.346-129.37-13.346l36.09 20.427h188.2l36.09-20.427s-49.44 13.346-131.01 13.346z" fill="#323C46"/>
    <path d="M1270.16 257.616h-34.46v9.397h34.46v-9.397z" fill="#FFC8C2"/>
    <path d="M1253 314.131c-105.13 0-155.25-15.797-155.25-15.797s25.06 28.189 45.49 28.189h219.52c20.43 0 45.48-28.189 45.48-28.189s-50.11 15.797-155.24 15.797z" fill="#323C46"/>
    <path d="M1408.24 298.334l-3.13-9.397c-58.01 0-58.01-9.396-58.01-9.396h-188.2s0 9.396-58.01 9.396l-3.14 9.397s50.12 15.66 155.25 15.66 155.24-15.66 155.24-15.66z" fill="#335267"/>
    <path d="M822.5 76c5.799 0 10.5-4.477 10.5-10s-4.701-10-10.5-10S812 60.477 812 66s4.701 10 10.5 10z" fill="#EE6A63"/>
    <path d="M315.306 382.683c9.413 0 9.436-14.637 0-14.637-9.413 0-9.435 14.637 0 14.637z" fill="#F8C06D"/>
    <path d="M295.664 247.328c16.865 0 16.906-25.328 0-25.328-16.865 0-16.906 25.328 0 25.328z" fill="#EE6A63"/>
    <path d="M381.983 323.386c7.972 0 7.983-12.386 0-12.386-7.972 0-7.983 12.386 0 12.386zM999.983 144.386c7.967 0 7.987-12.386 0-12.386-7.972 0-7.983 12.386 0 12.386z" fill="#fff"/>
    <path d="M464.393 111.2c1.657 0 3.239-1.456 3.163-3.166-.076-1.716-1.392-3.166-3.163-3.166-1.658 0-3.24 1.457-3.164 3.166.076 1.716 1.392 3.166 3.164 3.166z" fill="#EE6A63"/>
    <path d="M1320.01 41c26.62 0 26.68-40 0-40s-26.68 40 0 40zM74.507 223c16.639 0 16.676-25 0-25s-16.676 25 0 25zM1267.81 94.882c5.07 0 5.08-7.882 0-7.882s-5.08 7.882 0 7.882z" fill="#fff"/>
    <path d="M1387.72 146c10.29 0 10.31-16 0-16-10.28 0-10.31 16 0 16z" fill="#F8C06D"/>
    <path d="M1062.5 432.996c12.65 0 12.67-18.996 0-18.996s-12.67 18.996 0 18.996z" fill="#EE6A63"/>
    <path opacity=".6" fill="#323C46" d="M0-177h1440v750H0z"/>
    <path d="M367.443 121.534c0-13.834 12.155-21.588 12.155-21.588-10.236 0-12.155-24.946-12.155-24.946h-.288S365.236 99.946 355 99.946c0 0 12.443 5.955 12.443 19.789v1.799zM951.222 441c0-21.405 18.778-33.402 18.778-33.402-15.813 0-18.778-38.598-18.778-38.598h-.444s-2.965 38.598-18.778 38.598c0 0 19.222 9.213 19.222 30.618V441zM304.718 75.868c0-8.581 7.537-13.39 7.537-13.39-6.35 0-7.537-15.478-7.537-15.478h-.18S303.344 62.477 297 62.477c0 0 7.718 3.694 7.718 12.275v1.116zM242.718 325.868c0-8.581 7.537-13.391 7.537-13.391-6.35 0-7.537-15.477-7.537-15.477h-.18s-1.194 15.477-7.538 15.477c0 0 7.718 3.694 7.718 12.275v1.116zM1088.17 164c0-15.755 13.83-24.584 13.83-24.584-11.66 0-13.83-28.416-13.83-28.416h-.34s-2.19 28.416-13.83 28.416c0 0 14.17 6.782 14.17 22.536V164zM1140.07 184c0-6.837 5.93-10.669 5.93-10.669-5 0-5.93-12.331-5.93-12.331h-.14s-.94 12.331-5.93 12.331c0 0 6.07 2.943 6.07 9.78V184z" fill="#F8C06D"/>
  </g>
  <defs>
    <linearGradient id="paint0_linear" x1="2311" y1="240" x2="-21" y2="240" gradientUnits="userSpaceOnUse">
      <stop stop-color="#FFC8C2"/>
      <stop offset="1" stop-color="#335267"/>
    </linearGradient>
    <linearGradient id="paint1_linear" x1="155.711" y1="73.023" x2="155.711" y2="178" gradientUnits="userSpaceOnUse">
      <stop stop-color="#fff" stop-opacity=".5"/>
      <stop offset="1" stop-color="#fff" stop-opacity="0"/>
    </linearGradient>
    <linearGradient id="paint2_linear" x1="933.946" y1="107.161" x2="933.946" y2="-47" gradientUnits="userSpaceOnUse">
      <stop stop-color="#fff" stop-opacity="0"/>
      <stop offset="1" stop-color="#fff" stop-opacity=".7"/>
    </linearGradient>
    <linearGradient id="paint3_linear" x1="1039.95" y1="349.161" x2="1039.95" y2="195" gradientUnits="userSpaceOnUse">
      <stop stop-color="#fff" stop-opacity="0"/>
      <stop offset="1" stop-color="#fff" stop-opacity=".7"/>
    </linearGradient>
    <linearGradient id="paint4_linear" x1="1271.55" y1="251" x2="1271.55" y2="313" gradientUnits="userSpaceOnUse">
      <stop stop-color="#fff" stop-opacity=".71"/>
      <stop offset="1" stop-color="#fff" stop-opacity="0"/>
    </linearGradient>
    <linearGradient id="paint5_linear" x1="970" y1="775" x2="1008.31" y2="250.796" gradientUnits="userSpaceOnUse">
      <stop stop-color="#323C46"/>
      <stop offset=".651" stop-color="#335267"/>
      <stop offset="1" stop-color="#3F7494"/>
    </linearGradient>
    <linearGradient id="paint6_linear" x1="-200.962" y1="781.607" x2="757.994" y2="696.916" gradientUnits="userSpaceOnUse">
      <stop stop-color="#323C46"/>
      <stop offset=".651" stop-color="#335267"/>
      <stop offset="1" stop-color="#3F7494"/>
    </linearGradient>
    <clipPath id="clip0">
      <path fill="#fff" d="M0 0h1440v480H0z"/>
    </clipPath>
  </defs>
</svg>
