<svg width="500" height="625" fill="none"
  xmlns="http://www.w3.org/2000/svg">
  <g clip-path="url(#clip0)">
    <path fill="url(#paint0_linear)" d="M0 0h500v625H0z"/>
    <path d="M568 342s-177.211-.253-305.222-.253C212.143 341.747 35 342 35 342c0-16.273 126.986 5.612 212.403-39.281 29.924-15.729 51.751 23.367 81.43 25.813 15.495 1.28 34.48-11.391 51.25-10.1 8.684.667 61.085 15.156 92.82 14.59C535.542 331.899 568 334.929 568 342z" fill="url(#paint1_linear)"/>
    <path d="M191.514 195.898c-13.035.13-22.883 10.966-32.272 10.801-9.39-.164-23.57-27.699-55.116-27.699-39.1572 0-57.6528 35.368-68.1664 35.368-11.8775 0-18.4573-5.926-30.09478-5.926-30.52042 0-25.02082 9.405-47.86482 12.72h291.892c-34.449-6.794-33.69-25.508-58.378-25.264z" fill="url(#paint2_linear)"/>
    <path d="M167.514 436.898c-13.035.13-22.883 10.966-32.272 10.801-9.39-.164-23.57-27.699-55.116-27.699-39.1572 0-57.6528 35.368-68.1664 35.368-11.8775001 0-18.4573-5.926-30.0948-5.926-30.5204 0-25.0208 9.405-47.8648 12.72h291.892c-34.449-6.794-33.69-25.508-58.378-25.264z" fill="url(#paint3_linear)"/>
    <path d="M549.1 253.04s-24.353.238-121.767.238c-38.532 0-173.333.195-173.333.195 0-12.566 132.167 1.3 157.733-9.533 23.764-10.071 43.282-2.756 65.867-.867 11.791.988 27.972-17.03 40.733-16.033 17.867 1.395 30.767 22.061 30.767 26z" fill="url(#paint4_linear)"/>
    <path d="M-48 904c260.126 0 471-88.872 471-198.5C423 595.871 212.126 507-48 507s-471 88.871-471 198.5C-519 815.128-308.126 904-48 904z" fill="#214D2E"/>
    <path d="M382 904c260.126 0 471-88.872 471-198.5C853 595.871 642.126 507 382 507S-89 595.871-89 705.5C-89 815.128 121.874 904 382 904z" fill="url(#paint5_linear)"/>
    <path d="M412.016 354.947c0 13.737-7.47 15.79-14.701 15.79-7.232 0-14.702-2.842-14.702-16.579 0-26.842 7.47-33.158 14.702-33.158 7.231 0 14.701 7.105 14.701 33.947z" fill="#335267"/>
    <path d="M435.856 495.474h-77.877V516h77.877v-20.526z" fill="#323C46"/>
    <path d="M424.73 484.421h-55.626v11.053h55.626v-11.053z" fill="#3F7494"/>
    <path d="M419.168 443.368h-44.502v41.053h44.502v-41.053z" fill="#335267"/>
    <path d="M384.202 443.368h-3.973v41.053h3.973v-41.053zM393.977 443.368h-3.973v41.053h3.973v-41.053zM403.831 443.368h-3.974v41.053h3.974v-41.053zM413.606 443.368h-3.973v41.053h3.973v-41.053zM341.291 366.316h-24.317c-.556 0-1.113-.316-1.43-.789l-2.384-4.264c-.557-1.026.158-2.368 1.43-2.368h9.218l-.636-1.658c-.238-.553.159-1.105.716-1.105h3.496l2.781 2.526 7.073.158 4.053 7.5z" fill="#3F7494"/>
    <path d="M422.347 471.79l-50.859-23.685v-91.579h50.859V471.79z" fill="#323C46"/>
    <path d="M445.711 366.316h24.317c.556 0 1.112-.316 1.43-.789l2.384-4.264c.557-1.026-.159-2.368-1.43-2.368h-9.218l.635-1.658c.239-.553-.159-1.105-.715-1.105h-3.496l-2.782 2.526-7.152.237-3.973 7.421z" fill="#3F7494"/>
    <path d="M394.534 478.895h-15.893v5.526h15.893v-5.526zM415.194 478.895h-15.893v5.526h15.893v-5.526z" fill="#83C2D6"/>
    <path d="M422.347 448.894l-15.099 10.264L371.488 396v-39.474l18.913-3.553.159-10.658h12.715l.238 10.579 18.834 3.632v92.368z" fill="#3F7494"/>
    <path d="M382.613 415.737l-19.866-7.894-.239-27.632h-18.039l-10.33-21.316 48.474-3.158v60zM406.453 415.737l19.867-7.894.238-27.632h18.039l10.331-21.316-48.475-3.158v60z" fill="#335267"/>
    <path d="M422.347 382.579h-39.734l-19.072-26.053 24.635-3.158L393.738 366h7.947l4.768-12.632 15.894 3.158v26.053z" fill="#83C2D6"/>
    <path d="M427.909 410.21l-21.456 5.527v-62.369l21.456 3.158v53.684z" fill="#CFECF5"/>
    <path d="M396.917 349.421c-4.37 0-7.946-3.552-7.946-7.894v-9.474c0-4.342 3.576-7.895 7.946-7.895 4.371 0 7.947 3.553 7.947 7.895v9.474c0 4.342-3.576 7.894-7.947 7.894z" fill="#3F7494"/>
    <path opacity=".6" fill="#323C46" d="M0 0h500v625H0z"/>
  </g>
  <defs>
    <linearGradient id="paint0_linear" x1="228" y1="-108.75" x2="228" y2="656.25" gradientUnits="userSpaceOnUse">
      <stop stop-color="#83C2D6"/>
      <stop offset="1" stop-color="#F8C06D"/>
    </linearGradient>
    <linearGradient id="paint1_linear" x1="302" y1="268" x2="302" y2="342" gradientUnits="userSpaceOnUse">
      <stop stop-color="#fff" stop-opacity=".5"/>
      <stop offset="1" stop-color="#fff" stop-opacity="0"/>
    </linearGradient>
    <linearGradient id="paint2_linear" x1="103.946" y1="221.161" x2="103.946" y2="67" gradientUnits="userSpaceOnUse">
      <stop stop-color="#fff" stop-opacity="0"/>
      <stop offset="1" stop-color="#fff" stop-opacity=".7"/>
    </linearGradient>
    <linearGradient id="paint3_linear" x1="79.946" y1="462.161" x2="79.946" y2="308" gradientUnits="userSpaceOnUse">
      <stop stop-color="#fff" stop-opacity="0"/>
      <stop offset="1" stop-color="#fff" stop-opacity=".7"/>
    </linearGradient>
    <linearGradient id="paint4_linear" x1="401.55" y1="191" x2="401.55" y2="253" gradientUnits="userSpaceOnUse">
      <stop stop-color="#fff" stop-opacity=".71"/>
      <stop offset="1" stop-color="#fff" stop-opacity="0"/>
    </linearGradient>
    <linearGradient id="paint5_linear" x1="100" y1="898" x2="138.306" y2="373.796" gradientUnits="userSpaceOnUse">
      <stop stop-color="#214D2E"/>
      <stop offset=".651042" stop-color="#286442"/>
      <stop offset="1" stop-color="#52A078"/>
    </linearGradient>
    <clipPath id="clip0">
      <path fill="#fff" d="M0 0h500v625H0z"/>
    </clipPath>
  </defs>
</svg>