<svg width="1440" height="480" fill="none" xmlns="http://www.w3.org/2000/svg">
  <g clip-path="url(#clip0)">
    <path d="M0 0h1440v480H0V0z" fill="url(#paint0_linear)"/>
    <path d="M534 178s-252.019-.358-434.068-.358C27.922 177.642-224 178-224 178c0-23.086 180.592 7.961 302.066-55.724 42.557-22.313 73.598 33.148 115.806 36.619 22.035 1.815 49.035-16.16 72.884-14.329 12.35.947 86.871 21.501 132.003 20.697C487.84 163.671 534 167.97 534 178z" fill="url(#paint1_linear)"/>
    <path d="M1021.51 81.898c-13.03.13-22.879 10.966-32.268 10.801-9.39-.164-23.57-27.699-55.116-27.699-39.157 0-57.653 35.368-68.166 35.368-11.878 0-18.458-5.926-30.095-5.926-30.521 0-25.021 9.405-47.865 12.72h291.89c-34.45-6.794-33.69-25.508-58.38-25.264z" fill="url(#paint2_linear)"/>
    <path d="M1127.51 323.898c-13.03.13-22.88 10.966-32.27 10.801-9.39-.164-23.57-27.699-55.11-27.699-39.16 0-57.657 35.368-68.17 35.368-11.878 0-18.458-5.926-30.095-5.926-30.521 0-25.021 9.405-47.865 12.72h291.89c-34.45-6.794-33.69-25.508-58.38-25.264z" fill="url(#paint3_linear)"/>
    <path d="M1419.1 313.04s-24.35.238-121.77.238c-38.53 0-173.33.195-173.33.195 0-12.566 132.17 1.3 157.73-9.533 23.77-10.071 43.28-2.756 65.87-.867 11.79.988 27.97-17.03 40.73-16.033 17.87 1.395 30.77 22.061 30.77 26z" fill="url(#paint4_linear)"/>
    <path d="M723 846c332.48 0 602-113.496 602-253.5 0-140.004-269.52-253.5-602-253.5-332.475 0-602 113.496-602 253.5C121 732.504 390.525 846 723 846z" fill="#214D2E"/>
    <path d="M1252 781c260.13 0 471-88.872 471-198.5 0-109.629-210.87-198.5-471-198.5-260.126 0-471 88.871-471 198.5C781 692.128 991.874 781 1252 781z" fill="url(#paint5_linear)"/>
    <path d="M99 788c276.695 0 501-94.692 501-211.5S375.695 365 99 365s-501 94.692-501 211.5S-177.695 788 99 788z" fill="url(#paint6_linear)"/>
    <path d="M1262.56 149.271c0 21.557-11.73 24.778-23.07 24.778-11.35 0-23.07-4.46-23.07-26.017 0-42.121 11.72-52.032 23.07-52.032 11.34 0 23.07 11.15 23.07 53.271z" fill="#335267"/>
    <path d="M1299.97 369.79h-122.21V402h122.21v-32.21z" fill="#323C46"/>
    <path d="M1282.51 352.445h-87.29v17.344h87.29v-17.344z" fill="#3F7494"/>
    <path d="M1273.78 288.024h-69.83v64.421h69.83v-64.421z" fill="#335267"/>
    <path d="M1218.91 288.024h-6.24v64.421h6.24v-64.421zM1234.25 288.024h-6.24v64.421h6.24v-64.421zM1249.71 288.024h-6.23v64.421h6.23v-64.421zM1265.05 288.024h-6.24v64.421h6.24v-64.421zM1151.57 167.111h-38.16c-.87 0-1.74-.496-2.24-1.239l-3.74-6.69c-.88-1.61.25-3.716 2.24-3.716h14.47l-1-2.602a1.22 1.22 0 011.12-1.734h5.49l4.36 3.964 11.1.248 6.36 11.769z" fill="#3F7494"/>
    <path d="M1278.77 332.624l-79.81-37.166V151.749h79.81v180.875z" fill="#323C46"/>
    <path d="M1315.43 167.111h38.16c.87 0 1.74-.496 2.24-1.239l3.74-6.69c.88-1.61-.25-3.716-2.24-3.716h-14.47l1-2.602a1.22 1.22 0 00-1.12-1.734h-5.49l-4.36 3.964-11.23.372-6.23 11.645z" fill="#3F7494"/>
    <path d="M1235.12 343.773h-24.94v8.673h24.94v-8.673zM1267.54 343.773h-24.94v8.673h24.94v-8.673z" fill="#83C2D6"/>
    <path d="M1278.77 296.696l-23.7 16.106-56.11-99.11v-61.943l29.68-5.575.25-16.725h19.95l.37 16.601 29.56 5.699v144.947z" fill="#3F7494"/>
    <path d="M1216.42 244.664l-31.18-12.389-.37-43.36h-28.31l-16.21-33.45 76.07-4.955v94.154zM1253.83 244.664l31.17-12.389.38-43.36h28.3l16.21-33.45-76.06-4.955v94.154z" fill="#335267"/>
    <path d="M1278.77 192.631h-62.35l-29.93-40.882 38.66-4.956 8.73 19.822h12.47l7.48-19.822 24.94 4.956v40.882z" fill="#83C2D6"/>
    <path d="M1287.5 235.992l-33.67 8.672v-97.871l33.67 4.956v84.243z" fill="#CFECF5"/>
    <path d="M1238.86 140.599c-6.86 0-12.47-5.575-12.47-12.389v-14.866c0-6.814 5.61-12.389 12.47-12.389s12.47 5.575 12.47 12.389v14.866c0 6.814-5.61 12.389-12.47 12.389z" fill="#3F7494"/>
    <path d="M822 77.895c5.523 0 10-4.713 10-10.526 0-5.814-4.477-10.527-10-10.527s-10 4.713-10 10.527c0 5.813 4.477 10.526 10 10.526zM351.306 451.246c9.413 0 9.436-15.408 0-15.408-9.413 0-9.435 15.408 0 15.408z" fill="#F8C06D"/>
    <path d="M304.664 268.767c16.865 0 16.906-26.662 0-26.662-16.865 0-16.906 26.662 0 26.662zM381.983 327.774c7.972 0 7.983-13.037 0-13.037-7.972 0-7.983 13.037 0 13.037z" fill="#83C2D6"/>
    <path d="M999.983 151.985c7.967 0 7.987-13.037 0-13.037-7.972 0-7.983 13.037 0 13.037zM90.72 220.668c11.616 0 11.633-18.356 0-18.356-11.618 0-11.635 18.356 0 18.356z" fill="#F8C06D"/>
    <path d="M551.862 43.853c6.656 0 6.656-10.88 0-10.88-6.636 0-6.657 10.88 0 10.88zM394.393 420.211c1.657 0 3.239-1.533 3.163-3.332-.076-1.807-1.392-3.333-3.163-3.333-1.658 0-3.24 1.533-3.164 3.333.076 1.806 1.392 3.332 3.164 3.332zM1320.01 30.526c26.62 0 26.68-42.105 0-42.105s-26.68 42.105 0 42.105zM166.008 327.369c18.635 0 18.677-29.474 0-29.474s-18.677 29.474 0 29.474z" fill="#83C2D6"/>
    <path d="M1367.72 235.789c10.29 0 10.31-16.842 0-16.842-10.28 0-10.31 16.842 0 16.842z" fill="#F8C06D"/>
    <path d="M1059 408.421c11.99 0 12.01-18.947 0-18.947-11.99 0-12.01 18.947 0 18.947z" fill="#83C2D6"/>
    <path d="M1396.01 289.474c13.31 0 13.34-21.053 0-21.053-13.35 0-13.35 21.053 0 21.053z" fill="#F8C06D"/>
    <path opacity=".6" fill="#323C46" d="M0-177h1440v750H0z"/>
    <path d="M367.443 115.299c0-14.563 12.155-22.725 12.155-22.725-10.236 0-12.155-26.258-12.155-26.258h-.288S365.236 92.574 355 92.574c0 0 12.443 6.269 12.443 20.831v1.894zM951.222 451.579c0-22.532 18.778-35.16 18.778-35.16-15.813 0-18.778-40.629-18.778-40.629h-.444s-2.965 40.629-18.778 40.629c0 0 19.222 9.698 19.222 32.23v2.93zM304.718 67.23c0-9.034 7.537-14.096 7.537-14.096-6.35 0-7.537-16.292-7.537-16.292h-.18S303.344 53.134 297 53.134c0 0 7.718 3.888 7.718 12.921v1.174zM242.718 330.387c0-9.033 7.537-14.095 7.537-14.095-6.35 0-7.537-16.292-7.537-16.292h-.18s-1.194 16.292-7.538 16.292c0 0 7.718 3.888 7.718 12.921v1.174zM1018.17 107.368c0-16.584 13.83-25.878 13.83-25.878-11.66 0-13.83-29.911-13.83-29.911h-.34S1015.64 81.49 1004 81.49c0 0 14.17 7.139 14.17 23.723v2.155zM1070.07 128.421c0-7.197 5.93-11.23 5.93-11.23-5 0-5.93-12.981-5.93-12.981h-.14s-.94 12.981-5.93 12.981c0 0 6.07 3.098 6.07 10.295v.935z" fill="#F8C06D"/>
  </g>
  <defs>
    <linearGradient id="paint0_linear" x1="-286" y1="317.895" x2="1734" y2="317.895" gradientUnits="userSpaceOnUse">
      <stop stop-color="#3F7494"/>
      <stop offset="1" stop-color="#FFE1A8"/>
    </linearGradient>
    <linearGradient id="paint1_linear" x1="155.711" y1="73.023" x2="155.711" y2="178" gradientUnits="userSpaceOnUse">
      <stop stop-color="#fff" stop-opacity=".5"/>
      <stop offset="1" stop-color="#fff" stop-opacity="0"/>
    </linearGradient>
    <linearGradient id="paint2_linear" x1="933.946" y1="107.161" x2="933.946" y2="-47" gradientUnits="userSpaceOnUse">
      <stop stop-color="#fff" stop-opacity="0"/>
      <stop offset="1" stop-color="#fff" stop-opacity=".7"/>
    </linearGradient>
    <linearGradient id="paint3_linear" x1="1039.95" y1="349.161" x2="1039.95" y2="195" gradientUnits="userSpaceOnUse">
      <stop stop-color="#fff" stop-opacity="0"/>
      <stop offset="1" stop-color="#fff" stop-opacity=".7"/>
    </linearGradient>
    <linearGradient id="paint4_linear" x1="1271.55" y1="251" x2="1271.55" y2="313" gradientUnits="userSpaceOnUse">
      <stop stop-color="#fff" stop-opacity=".71"/>
      <stop offset="1" stop-color="#fff" stop-opacity="0"/>
    </linearGradient>
    <linearGradient id="paint5_linear" x1="970" y1="775" x2="995.332" y2="239.268" gradientUnits="userSpaceOnUse">
      <stop stop-color="#286442"/>
      <stop offset=".651" stop-color="#286442"/>
      <stop offset="1" stop-color="#52A078"/>
    </linearGradient>
    <linearGradient id="paint6_linear" x1="-200.962" y1="781.607" x2="757.994" y2="696.916" gradientUnits="userSpaceOnUse">
      <stop stop-color="#286442"/>
      <stop offset=".651" stop-color="#286442"/>
      <stop offset="1" stop-color="#52A078"/>
    </linearGradient>
    <clipPath id="clip0">
      <path fill="#fff" d="M0 0h1440v480H0z"/>
    </clipPath>
  </defs>
</svg>
