<svg width="1440" height="480" fill="none" xmlns="http://www.w3.org/2000/svg">
  <g clip-path="url(#clip0)">
    <path d="M0 0h1440v480H0V0z" fill="url(#paint0_linear)"/>
    <path d="M534 178s-252.019-.358-434.068-.358C27.922 177.642-224 178-224 178c0-23.086 180.592 7.961 302.066-55.724 42.557-22.313 73.598 33.148 115.806 36.619 22.035 1.815 49.035-16.16 72.884-14.329 12.35.947 86.871 21.501 132.003 20.697C487.84 163.671 534 167.97 534 178z" fill="url(#paint1_linear)"/>
    <path d="M1021.51 81.898c-13.03.13-22.879 10.966-32.268 10.801-9.39-.164-23.57-27.699-55.116-27.699-39.157 0-57.653 35.368-68.166 35.368-11.878 0-18.458-5.926-30.095-5.926-30.521 0-25.021 9.405-47.865 12.72h291.89c-34.45-6.794-33.69-25.508-58.38-25.264z" fill="url(#paint2_linear)"/>
    <path d="M1127.51 323.898c-13.03.13-22.88 10.966-32.27 10.801-9.39-.164-23.57-27.699-55.11-27.699-39.16 0-57.657 35.368-68.17 35.368-11.878 0-18.458-5.926-30.095-5.926-30.521 0-25.021 9.405-47.865 12.72h291.89c-34.45-6.794-33.69-25.508-58.38-25.264z" fill="url(#paint3_linear)"/>
    <path d="M1419.1 313.04s-24.35.238-121.77.238c-38.53 0-173.33.195-173.33.195 0-12.566 132.17 1.3 157.73-9.533 23.77-10.071 43.28-2.756 65.87-.867 11.79.988 27.97-17.03 40.73-16.033 17.87 1.395 30.77 22.061 30.77 26z" fill="url(#paint4_linear)"/>
    <path d="M723 846c332.48 0 602-113.496 602-253.5 0-140.004-269.52-253.5-602-253.5-332.475 0-602 113.496-602 253.5C121 732.504 390.525 846 723 846z" fill="#214D2E"/>
    <path d="M1252 781c260.13 0 471-88.872 471-198.5 0-109.629-210.87-198.5-471-198.5-260.126 0-471 88.871-471 198.5C781 692.128 991.874 781 1252 781z" fill="url(#paint5_linear)"/>
    <path d="M99 788c276.695 0 501-94.692 501-211.5S375.695 365 99 365s-501 94.692-501 211.5S-177.695 788 99 788z" fill="url(#paint6_linear)"/>
    <path d="M1262.55 149.271c0 21.557-11.72 24.778-23.07 24.778-11.34 0-23.06-4.46-23.06-26.017 0-42.121 11.72-52.032 23.06-52.032 11.35 0 23.07 11.15 23.07 53.271z" fill="#335267"/>
    <path d="M1299.97 369.79h-122.21V402h122.21v-32.21z" fill="#323C46"/>
    <path d="M1282.51 352.445h-87.29v17.344h87.29v-17.344z" fill="#3F7494"/>
    <path d="M1273.78 288.024h-69.83v64.421h69.83v-64.421z" fill="#335267"/>
    <path d="M1218.91 288.024h-6.24v64.421h6.24v-64.421zM1234.25 288.024h-6.24v64.421h6.24v-64.421zM1249.71 288.024h-6.23v64.421h6.23v-64.421zM1265.05 288.024h-6.24v64.421h6.24v-64.421zM1151.57 167.111h-38.16c-.87 0-1.74-.496-2.24-1.239l-3.74-6.69c-.88-1.61.25-3.716 2.24-3.716h14.47l-1-2.602a1.22 1.22 0 011.12-1.734h5.49l4.36 3.964 11.1.248 6.36 11.769z" fill="#3F7494"/>
    <path d="M1278.77 332.624l-79.81-37.166V151.749h79.81v180.875z" fill="#323C46"/>
    <path d="M1315.43 167.111h38.16c.87 0 1.74-.496 2.24-1.239l3.74-6.69c.88-1.61-.25-3.716-2.24-3.716h-14.47l1-2.602a1.223 1.223 0 00-1.12-1.734h-5.49l-4.36 3.964-11.23.372-6.23 11.645z" fill="#3F7494"/>
    <path d="M1235.12 343.773h-24.94v8.673h24.94v-8.673zM1267.54 343.773h-24.94v8.673h24.94v-8.673z" fill="#83C2D6"/>
    <path d="M1278.77 296.696l-23.7 16.106-56.11-99.11v-61.943l29.68-5.575.25-16.725h19.95l.37 16.601 29.56 5.699v144.947z" fill="#3F7494"/>
    <path d="M1216.42 244.664l-31.18-12.389-.37-43.36h-28.31l-16.21-33.45 76.07-4.955v94.154zM1253.83 244.664l31.17-12.389.38-43.36h28.3l16.21-33.45-76.06-4.955v94.154z" fill="#335267"/>
    <path d="M1278.77 192.631h-62.35l-29.93-40.882 38.65-4.956 8.73 19.822h12.47l7.49-19.822 24.94 4.956v40.882z" fill="#83C2D6"/>
    <path d="M1287.5 235.992l-33.67 8.672v-97.871l33.67 4.956v84.243z" fill="#CFECF5"/>
    <path d="M1238.86 140.599c-6.86 0-12.47-5.575-12.47-12.389v-14.866c0-6.814 5.61-12.389 12.47-12.389s12.47 5.575 12.47 12.389v14.866c0 6.814-5.61 12.389-12.47 12.389z" fill="#3F7494"/>
    <path opacity=".6" fill="#323C46" d="M0-177h1440v750H0z"/>
  </g>
  <defs>
    <linearGradient id="paint0_linear" x1="-286" y1="317.895" x2="1734" y2="317.895" gradientUnits="userSpaceOnUse">
      <stop stop-color="#3F7494"/>
      <stop offset="1" stop-color="#FFE1A8"/>
    </linearGradient>
    <linearGradient id="paint1_linear" x1="155.711" y1="73.023" x2="155.711" y2="178" gradientUnits="userSpaceOnUse">
      <stop stop-color="#fff" stop-opacity=".5"/>
      <stop offset="1" stop-color="#fff" stop-opacity="0"/>
    </linearGradient>
    <linearGradient id="paint2_linear" x1="933.946" y1="107.161" x2="933.946" y2="-47" gradientUnits="userSpaceOnUse">
      <stop stop-color="#fff" stop-opacity="0"/>
      <stop offset="1" stop-color="#fff" stop-opacity=".7"/>
    </linearGradient>
    <linearGradient id="paint3_linear" x1="1039.95" y1="349.161" x2="1039.95" y2="195" gradientUnits="userSpaceOnUse">
      <stop stop-color="#fff" stop-opacity="0"/>
      <stop offset="1" stop-color="#fff" stop-opacity=".7"/>
    </linearGradient>
    <linearGradient id="paint4_linear" x1="1271.55" y1="251" x2="1271.55" y2="313" gradientUnits="userSpaceOnUse">
      <stop stop-color="#fff" stop-opacity=".71"/>
      <stop offset="1" stop-color="#fff" stop-opacity="0"/>
    </linearGradient>
    <linearGradient id="paint5_linear" x1="970" y1="775" x2="995.332" y2="239.268" gradientUnits="userSpaceOnUse">
      <stop stop-color="#286442"/>
      <stop offset=".651" stop-color="#286442"/>
      <stop offset="1" stop-color="#52A078"/>
    </linearGradient>
    <linearGradient id="paint6_linear" x1="-200.962" y1="781.607" x2="757.994" y2="696.916" gradientUnits="userSpaceOnUse">
      <stop stop-color="#286442"/>
      <stop offset=".651" stop-color="#286442"/>
      <stop offset="1" stop-color="#52A078"/>
    </linearGradient>
    <clipPath id="clip0">
      <path fill="#fff" d="M0 0h1440v480H0z"/>
    </clipPath>
  </defs>
</svg>
