<svg width="500" height="625" viewBox="0 0 500 625" fill="none" xmlns="http://www.w3.org/2000/svg">
<g clip-path="url(#clip0)">
<rect width="500" height="625" fill="url(#paint0_linear)"/>
<path d="M568 342C568 342 390.789 341.747 262.778 341.747C212.143 341.747 35 342 35 342C35 325.727 161.986 347.612 247.403 302.719C277.327 286.99 299.154 326.086 328.833 328.532C344.328 329.812 363.313 317.141 380.083 318.432C388.767 319.099 441.168 333.588 472.903 333.022C535.542 331.899 568 334.929 568 342Z" fill="url(#paint1_linear)"/>
<path d="M191.514 195.898C178.479 196.028 168.631 206.864 159.242 206.699C149.852 206.535 135.672 179 104.126 179C64.9688 179 46.4732 214.368 35.9596 214.368C24.0821 214.368 17.5023 208.442 5.86482 208.442C-24.6556 208.442 -19.156 217.847 -42 221.162C6.95056 221.162 171.572 221.162 249.892 221.162C215.443 214.368 216.202 195.654 191.514 195.898Z" fill="url(#paint2_linear)"/>
<path d="M167.514 436.898C154.479 437.028 144.631 447.864 135.242 447.699C125.852 447.535 111.672 420 80.126 420C40.9688 420 22.4732 455.368 11.9596 455.368C0.0820999 455.368 -6.4977 449.442 -18.1352 449.442C-48.6556 449.442 -43.156 458.847 -66 462.162C-17.0494 462.162 147.572 462.162 225.892 462.162C191.443 455.368 192.202 436.654 167.514 436.898Z" fill="url(#paint3_linear)"/>
<path d="M549.1 253.04C549.1 253.04 524.747 253.278 427.333 253.278C388.801 253.278 254 253.473 254 253.473C254 240.907 386.167 254.773 411.733 243.94C435.497 233.869 455.015 241.184 477.6 243.073C489.391 244.061 505.572 226.043 518.333 227.04C536.2 228.435 549.1 249.101 549.1 253.04Z" fill="url(#paint4_linear)"/>
<path d="M-48 904C212.126 904 423 815.128 423 705.5C423 595.871 212.126 507 -48 507C-308.126 507 -519 595.871 -519 705.5C-519 815.128 -308.126 904 -48 904Z" fill="#214D2E"/>
<path d="M382 904C642.126 904 853 815.128 853 705.5C853 595.871 642.126 507 382 507C121.874 507 -89 595.871 -89 705.5C-89 815.128 121.874 904 382 904Z" fill="url(#paint5_linear)"/>
<path d="M412.016 354.947C412.016 368.684 404.546 370.737 397.314 370.737C390.083 370.737 382.613 367.895 382.613 354.158C382.613 327.316 390.083 321 397.314 321C404.546 321 412.016 328.105 412.016 354.947Z" fill="#335267"/>
<path d="M435.856 495.474H357.978V516H435.856V495.474Z" fill="#293C4C"/>
<path d="M424.73 484.421H369.104V495.474H424.73V484.421Z" fill="#417A96"/>
<path d="M419.168 443.368H374.666V484.421H419.168V443.368Z" fill="#335267"/>
<path d="M384.202 443.368H380.229V484.421H384.202V443.368Z" fill="#417A96"/>
<path d="M393.977 443.368H390.003V484.421H393.977V443.368Z" fill="#417A96"/>
<path d="M403.831 443.368H399.857V484.421H403.831V443.368Z" fill="#417A96"/>
<path d="M413.605 443.368H409.632V484.421H413.605V443.368Z" fill="#417A96"/>
<path d="M341.29 366.316H316.973C316.417 366.316 315.861 366 315.543 365.526L313.159 361.263C312.603 360.237 313.318 358.895 314.589 358.895H323.808L323.172 357.237C322.933 356.684 323.331 356.132 323.887 356.132H327.384L330.165 358.658L337.238 358.816L341.29 366.316Z" fill="#417A96"/>
<path d="M422.347 471.79L371.488 448.105V356.526H422.347V471.79Z" fill="#293C4C"/>
<path d="M445.71 366.316H470.027C470.583 366.316 471.139 366 471.457 365.526L473.841 361.263C474.398 360.237 473.682 358.895 472.411 358.895H463.193L463.828 357.237C464.067 356.684 463.669 356.132 463.113 356.132H459.617L456.835 358.658L449.683 358.895L445.71 366.316Z" fill="#417A96"/>
<path d="M394.533 478.895H378.64V484.421H394.533V478.895Z" fill="#8EC9DC"/>
<path d="M415.194 478.895H399.301V484.421H415.194V478.895Z" fill="#8EC9DC"/>
<path d="M422.347 448.895L407.248 459.158L371.488 396V356.526L390.401 352.974L390.56 342.316H403.275L403.513 352.895L422.347 356.526V448.895Z" fill="#417A96"/>
<path d="M382.613 415.737L362.746 407.842L362.508 380.211H344.469L334.138 358.895L382.613 355.737V415.737Z" fill="#335267"/>
<path d="M406.453 415.737L426.32 407.842L426.558 380.211H444.597L454.928 358.895L406.453 355.737V415.737Z" fill="#335267"/>
<path d="M422.347 382.579H382.613L363.541 356.526L388.176 353.368L393.738 366H401.685L406.453 353.368L422.347 356.526V382.579Z" fill="#8EC9DC"/>
<path d="M427.909 410.211L406.453 415.737V353.368L427.909 356.526V410.211Z" fill="#CFECF5"/>
<path d="M396.917 349.421C392.546 349.421 388.97 345.868 388.97 341.526V332.053C388.97 327.711 392.546 324.158 396.917 324.158C401.288 324.158 404.864 327.711 404.864 332.053V341.526C404.864 345.868 401.288 349.421 396.917 349.421Z" fill="#417A96"/>
<path d="M380 197C386.659 197 386.675 187 380 187C373.341 187 373.325 197 380 197Z" fill="#45835F"/>
<path d="M386.5 84C392.496 84 392.504 75 386.5 75C380.504 75 380.496 84 386.5 84Z" fill="#417A96"/>
<path d="M34.5 110C40.4958 110 40.5042 101 34.5 101C28.5042 101 28.4958 110 34.5 110Z" fill="#45835F"/>
<path d="M410.5 149C411.809 149 413.058 147.85 412.998 146.5C412.938 145.145 411.899 144 410.5 144C409.191 144 407.942 145.15 408.002 146.5C408.062 147.855 409.101 149 410.5 149Z" fill="#F8C066"/>
<path d="M58.5 141C63.9974 141 69.2431 136.17 68.9913 130.5C68.7395 124.809 64.3751 120 58.5 120C53.0026 120 47.7569 124.83 48.0087 130.5C48.2605 136.191 52.6249 141 58.5 141Z" fill="#417A96"/>
<rect opacity="0.6" width="500" height="625" fill="#293C4C"/>
<path d="M454.588 247C454.588 238.676 462 234.01 462 234.01C455.758 234.01 454.588 219 454.588 219H454.412C454.412 219 453.242 234.01 447 234.01C447 234.01 454.588 237.593 454.588 245.918V247Z" fill="#F8C066"/>
<path d="M177.059 70C177.059 64.0548 182 60.7229 182 60.7229C177.837 60.7229 177.059 50 177.059 50H176.941C176.941 50 176.159 60.7229 172 60.7229C172 60.7229 177.059 63.2821 177.059 69.2273V70Z" fill="#F8C066"/>
<path d="M420.647 118C420.647 103.732 433 95.7349 433 95.7349C422.593 95.7349 420.647 70 420.647 70H420.353C420.353 70 418.397 95.7349 408 95.7349C408 95.7349 420.647 101.877 420.647 116.145V118Z" fill="#F8C066"/>
<path d="M470.071 124C470.071 117.163 476 113.331 476 113.331C471.005 113.331 470.071 101 470.071 101H469.929C469.929 101 468.991 113.331 464 113.331C464 113.331 470.071 116.274 470.071 123.111V124Z" fill="#F8C066"/>
</g>
<defs>
<linearGradient id="paint0_linear" x1="228" y1="-108.75" x2="228" y2="656.25" gradientUnits="userSpaceOnUse">
<stop stop-color="#83C2D6"/>
<stop offset="1" stop-color="#F8C06D"/>
</linearGradient>
<linearGradient id="paint1_linear" x1="302" y1="268" x2="302" y2="342" gradientUnits="userSpaceOnUse">
<stop stop-color="white" stop-opacity="0.5"/>
<stop offset="1" stop-color="white" stop-opacity="0"/>
</linearGradient>
<linearGradient id="paint2_linear" x1="103.946" y1="221.161" x2="103.946" y2="67" gradientUnits="userSpaceOnUse">
<stop stop-color="white" stop-opacity="0"/>
<stop offset="1" stop-color="white" stop-opacity="0.7"/>
</linearGradient>
<linearGradient id="paint3_linear" x1="79.946" y1="462.161" x2="79.946" y2="308" gradientUnits="userSpaceOnUse">
<stop stop-color="white" stop-opacity="0"/>
<stop offset="1" stop-color="white" stop-opacity="0.7"/>
</linearGradient>
<linearGradient id="paint4_linear" x1="401.55" y1="191" x2="401.55" y2="253" gradientUnits="userSpaceOnUse">
<stop stop-color="white" stop-opacity="0.71"/>
<stop offset="1" stop-color="white" stop-opacity="0"/>
</linearGradient>
<linearGradient id="paint5_linear" x1="100" y1="898" x2="138.306" y2="373.796" gradientUnits="userSpaceOnUse">
<stop stop-color="#214D2E"/>
<stop offset="0.651042" stop-color="#286442"/>
<stop offset="1" stop-color="#52A078"/>
</linearGradient>
<clipPath id="clip0">
<rect width="500" height="625" fill="white"/>
</clipPath>
</defs>
</svg>
