<svg width="500" height="625" fill="none"
  xmlns="http://www.w3.org/2000/svg">
  <g clip-path="url(#clip0)">
    <path fill="url(#paint0_linear)" d="M0 0h500v625H0z"/>
    <path d="M314 312s-177.211-.253-305.22223-.253C-41.8572 311.747-219 312-219 312c0-16.273 126.9861 5.612 212.40277-39.281C23.3271 256.99 45.1539 296.086 74.8333 298.532c15.4946 1.28 34.4797-11.391 51.2497-10.1 8.684.667 61.085 15.156 92.82 14.59C281.542 301.899 314 304.929 314 312z" fill="url(#paint1_linear)"/>
    <path d="M511.514 344.898c-13.035.13-22.883 10.966-32.272 10.801-9.39-.164-23.57-27.699-55.116-27.699-39.157 0-57.653 35.368-68.166 35.368-11.878 0-18.458-5.926-30.095-5.926-30.521 0-25.021 9.405-47.865 12.72h291.892c-34.449-6.794-33.69-25.508-58.378-25.264z" fill="url(#paint2_linear)"/>
    <path d="M167.514 436.898c-13.035.13-22.883 10.966-32.272 10.801-9.39-.164-23.57-27.699-55.116-27.699-39.1572 0-57.6528 35.368-68.1664 35.368-11.8775001 0-18.4573-5.926-30.0948-5.926-30.5204 0-25.0208 9.405-47.8648 12.72h291.892c-34.449-6.794-33.69-25.508-58.378-25.264z" fill="url(#paint3_linear)"/>
    <path d="M549.1 206.04s-24.353.238-121.767.238c-38.532 0-173.333.195-173.333.195 0-12.566 132.167 1.3 157.733-9.533 23.764-10.071 43.282-2.756 65.867-.867 11.791.988 27.972-17.03 40.733-16.033 17.867 1.395 30.767 22.061 30.767 26z" fill="url(#paint4_linear)"/>
    <path d="M-58 904c260.126 0 471-88.872 471-198.5C413 595.871 202.126 507-58 507s-471 88.871-471 198.5C-529 815.128-318.126 904-58 904z" fill="#882834"/>
    <path d="M382 904c260.126 0 471-88.872 471-198.5C853 595.871 642.126 507 382 507S-89 595.871-89 705.5C-89 815.128 121.874 904 382 904z" fill="url(#paint5_linear)"/>
    <path d="M368.128 312.224c2.522 0 4.567-2.045 4.567-4.567 0-2.523-2.045-4.568-4.567-4.568-2.523 0-4.567 2.045-4.567 4.568 0 2.522 2.044 4.567 4.567 4.567z" fill="#FFE1A8"/>
    <path d="M376.501 474.68h-16.747V356.374l8.373-50.24 8.374 50.24V474.68z" fill="#F8C06D"/>
    <path d="M376.501 474.68h-16.747v-86.969l16.747-7.612v94.581z" fill="#D7323E"/>
    <path d="M387.222 297.698c2.522 0 4.567-2.045 4.567-4.568 0-2.522-2.045-4.567-4.567-4.567-2.523 0-4.568 2.045-4.568 4.567 0 2.523 2.045 4.568 4.568 4.568z" fill="#FFE1A8"/>
    <path d="M395.595 460.217h-16.81V341.911l8.437-50.303 8.373 50.303v118.306z" fill="#F8C06D"/>
    <path d="M418.494 441.884h-28.228v-24.422l13.701-36.602 14.527 36.602v24.422z" fill="#882834"/>
    <path d="M395.595 460.217h-16.81v-86.969l16.81-7.612v94.581z" fill="#D7323E"/>
    <path d="M440.569 312.224c2.523 0 4.568-2.045 4.568-4.567 0-2.523-2.045-4.568-4.568-4.568-2.522 0-4.567 2.045-4.567 4.568 0 2.522 2.045 4.567 4.567 4.567z" fill="#FFE1A8"/>
    <path d="M432.197 474.68h16.81V356.374l-8.436-50.24-8.374 50.24V474.68z" fill="#F8C06D"/>
    <path d="M432.197 474.68h16.81v-86.969l-16.81-7.612v94.581z" fill="#D7323E"/>
    <path d="M421.54 297.698c2.522 0 4.567-2.045 4.567-4.568 0-2.522-2.045-4.567-4.567-4.567-2.522 0-4.567 2.045-4.567 4.567 0 2.523 2.045 4.568 4.567 4.568z" fill="#FFE1A8"/>
    <path d="M413.166 460.217h16.747V341.911l-8.374-50.303-8.373 50.303v118.306z" fill="#F8C06D"/>
    <path d="M413.166 460.217h16.747v-86.969l-16.747-7.612v94.581z" fill="#D7323E"/>
    <path d="M449.006 480.072h-89.252V455.65l44.214-33.557 45.038 33.557v24.422z" fill="#882834"/>
    <path d="M473.999 512.867h-3.616c-2.03 1.586-3.933 2.918-8.373 5.329h-6.09c-4.567 2.093-8.817 5.899-15.287 7.612 0 0-5.456-.571-8.374 0-8.119 1.523-17.571 5.709-28.228 5.329-10.34-.318-20.997-3.743-28.99-5.329h-6.851c-5.709-1.395-10.276-5.963-14.526-7.612h-6.851c-5.646-2.601-7.803-3.806-9.896-5.329h-2.855l18.333-39.773 51.699-35.016 51.699 35.016 18.206 39.773z" fill="#882834"/>
    <path d="M403.968 418.223c2.102 0 3.806-3.067 3.806-6.851 0-3.783-1.704-6.851-3.806-6.851-2.102 0-3.806 3.068-3.806 6.851 0 3.784 1.704 6.851 3.806 6.851zM377.263 515.151h-7.613v-16.303l7.613-2.03v18.333zM430.674 515.151h7.612v-16.303l-7.612-2.03v18.333z" fill="#E07A15"/>
    <path d="M368.129 528.092h6.851c7.992 1.586 18.649 5.011 28.989 5.328 10.657.318 20.109-3.869 28.229-5.328 2.981-.571 8.373 0 8.373 0 6.47-1.713 10.72-5.519 15.288-7.612h6.089c4.441-2.411 6.344-6.026 8.374-7.612H336.855c2.094 1.522 4.251 5.011 9.896 7.612h6.851c4.25 1.649 8.754 6.216 14.527 7.612z" fill="url(#paint6_linear)"/>
    <path d="M474 512.867h-3.806s-12.75-38.124-19.665-38.124c-7.612 0 11.355 45.8 11.355 45.8h-6.28s-11.164-57.979-23.344-58.74c-12.179-.762 8.373 66.352 8.373 66.352h-8.373s-11.418-85.446-28.228-85.446c-16.81 0-28.8 85.446-28.8 85.446h-7.041s20.616-65.591 9.135-65.591c-11.482 0-23.534 57.979-23.534 57.979h-7.042s19.158-45.8 11.482-45.8c-7.676 0-21.377 38.124-21.377 38.124H334l15.288-39.773 54.744-41.106 54.744 41.106L474 512.867z" fill="#F8C06D"/>
    <path d="M413.166 377.815s-3.806-5.328-8.754-5.328c-4.948 0-8.754 5.328-8.754 5.328v-12.179h17.572v12.179h-.064z" fill="#882834"/>
    <path d="M402.446 512.868h-7.612v-18.333l7.612-2.284v20.617zM405.49 512.868h7.676v-18.333l-7.676-2.284v20.617z" fill="#E07A15"/>
    <path d="M363.179 414.417c-.444 0-.761-.317-.761-.761v-23.598c0-.444.317-.761.761-.761s.761.317.761.761v23.661c0 .381-.38.698-.761.698zM366.605 412.894c-.444 0-.761-.317-.761-.761v-23.661c0-.444.317-.761.761-.761s.761.317.761.761v23.661c0 .444-.317.761-.761.761zM370.031 411.372c-.444 0-.761-.317-.761-.761V386.95c0-.444.317-.761.761-.761s.761.317.761.761v23.661c0 .444-.317.761-.761.761zM373.457 409.85c-.445 0-.762-.317-.762-.761v-23.661c0-.444.317-.761.762-.761.444 0 .761.317.761.761v23.661c0 .444-.317.761-.761.761zM382.21 399.193c-.444 0-.761-.317-.761-.761V374.77c0-.444.317-.761.761-.761s.762.317.762.761v23.662c0 .38-.318.761-.762.761zM385.699 397.67c-.444 0-.761-.317-.761-.761v-23.661c0-.444.317-.761.761-.761s.761.317.761.761v23.661c0 .381-.381.761-.761.761zM389.125 396.148c-.445 0-.762-.317-.762-.761v-23.661c0-.444.317-.762.762-.762.444 0 .761.318.761.762v23.661c0 .38-.381.761-.761.761zM392.55 394.625c-.444 0-.761-.317-.761-.761v-23.661c0-.444.317-.761.761-.761s.761.317.761.761v23.661c0 .381-.38.761-.761.761zM445.962 414.417c.444 0 .762-.317.762-.761v-23.598c0-.444-.318-.761-.762-.761s-.761.317-.761.761v23.661c0 .381.317.698.761.698zM442.537 412.894c.444 0 .761-.317.761-.761v-23.661c0-.444-.317-.761-.761-.761s-.762.317-.762.761v23.661c0 .444.318.761.762.761zM439.048 411.372c.444 0 .762-.317.762-.761V386.95c0-.444-.318-.761-.762-.761s-.761.317-.761.761v23.661c0 .444.381.761.761.761zM435.623 409.85c.444 0 .761-.317.761-.761v-23.661c0-.444-.317-.761-.761-.761-.445 0-.762.317-.762.761v23.661c0 .444.381.761.762.761zM426.869 399.193c.444 0 .761-.317.761-.761V374.77c0-.444-.317-.761-.761-.761s-.762.317-.762.761v23.662c0 .38.318.761.762.761zM423.443 397.67c.444 0 .761-.317.761-.761v-23.661c0-.444-.317-.761-.761-.761s-.761.317-.761.761v23.661c0 .381.317.761.761.761zM420.017 396.148c.444 0 .761-.317.761-.761v-23.661c0-.444-.317-.762-.761-.762s-.761.318-.761.762v23.661c0 .38.317.761.761.761zM416.591 394.625c.444 0 .762-.317.762-.761v-23.661c0-.444-.318-.761-.762-.761s-.761.317-.761.761v23.661c0 .381.317.761.761.761z" fill="#882834"/>
    <path d="M363.179 366.968c-.444 0-.761-.317-.761-.761v-1.713c0-.444.317-.761.761-.761s.761.317.761.761v1.713c0 .444-.38.761-.761.761zM366.605 372.106c-.444 0-.761-.317-.761-.761v-1.713c0-.444.317-.761.761-.761s.761.317.761.761v1.713c0 .444-.317.761-.761.761zM373.457 372.106c-.445 0-.762-.317-.762-.761v-1.713c0-.444.317-.761.762-.761.444 0 .761.317.761.761v1.713c0 .444-.317.761-.761.761zM370.031 361.83c-.444 0-.761-.317-.761-.761v-1.713c0-.444.317-.761.761-.761s.761.317.761.761v1.713c0 .444-.317.761-.761.761zM370.031 342.736c-.444 0-.761-.317-.761-.761v-1.713c0-.444.317-.761.761-.761s.761.317.761.761v1.713c0 .444-.317.761-.761.761zM366.986 332.841c-.444 0-.761-.318-.761-.762v-1.712c0-.444.317-.762.761-.762s.761.318.761.762v1.712c0 .444-.317.762-.761.762zM366.986 352.695c-.444 0-.761-.317-.761-.761v-1.713c0-.444.317-.761.761-.761s.761.317.761.761v1.713c0 .381-.317.761-.761.761zM373.457 377.244c-.445 0-.762-.317-.762-.761v-1.713c0-.444.317-.761.762-.761.444 0 .761.317.761.761v1.713c0 .381-.317.761-.761.761zM363.56 381.051c-.444 0-.761-.318-.761-.762v-1.712c0-.444.317-.762.761-.762s.761.318.761.762v1.712c0 .444-.38.762-.761.762zM382.21 345.273c-.444 0-.761-.317-.761-.761v-1.713c0-.444.317-.761.761-.761s.762.317.762.761v1.713c0 .381-.318.761-.762.761zM385.699 350.412c-.444 0-.761-.317-.761-.761v-1.713c0-.444.317-.761.761-.761s.761.317.761.761v1.713c0 .38-.381.761-.761.761zM392.55 355.55c-.444 0-.761-.318-.761-.762v-1.712c0-.444.317-.762.761-.762s.761.318.761.762v1.712c0 .381-.38.762-.761.762zM389.125 340.135c-.445 0-.762-.317-.762-.761v-1.713c0-.444.317-.761.762-.761.444 0 .761.317.761.761v1.713c0 .38-.381.761-.761.761zM389.125 329.859c-.445 0-.762-.317-.762-.762v-1.712c0-.444.317-.761.762-.761.444 0 .761.317.761.761v1.712c0 .381-.381.762-.761.762zM386.08 324.721c-.444 0-.762-.318-.762-.762v-1.712c0-.444.318-.762.762-.762s.761.318.761.762v1.712c0 .381-.381.762-.761.762zM386.08 334.997c-.444 0-.762-.317-.762-.761v-1.713c0-.444.318-.761.762-.761s.761.317.761.761v1.713c0 .38-.381.761-.761.761zM392.55 360.688c-.444 0-.761-.317-.761-.761v-1.713c0-.444.317-.761.761-.761s.761.317.761.761v1.713c0 .381-.38.761-.761.761zM382.591 365.763c-.444 0-.761-.317-.761-.761v-1.713c0-.444.317-.761.761-.761s.762.317.762.761v1.713c0 .444-.318.761-.762.761zM445.962 366.968c.444 0 .762-.317.762-.761v-1.713c0-.444-.318-.761-.762-.761s-.761.317-.761.761v1.713c0 .444.317.761.761.761zM442.537 372.106c.444 0 .761-.317.761-.761v-1.713c0-.444-.317-.761-.761-.761s-.762.317-.762.761v1.713c0 .444.318.761.762.761zM435.623 372.106c.444 0 .761-.317.761-.761v-1.713c0-.444-.317-.761-.761-.761-.445 0-.762.317-.762.761v1.713c0 .444.381.761.762.761zM439.048 361.83c.444 0 .762-.317.762-.761v-1.713c0-.444-.318-.761-.762-.761s-.761.317-.761.761v1.713c0 .444.381.761.761.761zM439.048 342.736c.444 0 .762-.317.762-.761v-1.713c0-.444-.318-.761-.762-.761s-.761.317-.761.761v1.713c0 .444.381.761.761.761zM442.156 332.841c.444 0 .761-.318.761-.762v-1.712c0-.444-.317-.762-.761-.762s-.761.318-.761.762v1.712c0 .444.317.762.761.762zM442.156 352.695c.444 0 .761-.317.761-.761v-1.713c0-.444-.317-.761-.761-.761s-.761.317-.761.761v1.713c0 .381.317.761.761.761zM435.623 377.244c.444 0 .761-.317.761-.761v-1.713c0-.444-.317-.761-.761-.761-.445 0-.762.317-.762.761v1.713c0 .381.381.761.762.761zM445.582 381.051c.444 0 .761-.318.761-.762v-1.712c0-.444-.317-.762-.761-.762-.445 0-.762.318-.762.762v1.712c0 .444.317.762.762.762zM426.869 345.273c.444 0 .761-.317.761-.761v-1.713c0-.444-.317-.761-.761-.761s-.762.317-.762.761v1.713c0 .381.318.761.762.761zM423.443 350.412c.444 0 .761-.317.761-.761v-1.713c0-.444-.317-.761-.761-.761s-.761.317-.761.761v1.713c0 .38.317.761.761.761zM416.591 355.55c.444 0 .762-.318.762-.762v-1.712c0-.444-.318-.762-.762-.762s-.761.318-.761.762v1.712c0 .381.317.762.761.762zM420.017 340.135c.444 0 .761-.317.761-.761v-1.713c0-.444-.317-.761-.761-.761s-.761.317-.761.761v1.713c0 .38.317.761.761.761zM420.017 329.859c.444 0 .761-.317.761-.762v-1.712c0-.444-.317-.761-.761-.761s-.761.317-.761.761v1.712c0 .381.317.762.761.762zM423.062 324.721c.444 0 .761-.318.761-.762v-1.712c0-.444-.317-.762-.761-.762s-.761.318-.761.762v1.712c0 .381.317.762.761.762zM423.062 334.997c.444 0 .761-.317.761-.761v-1.713c0-.444-.317-.761-.761-.761s-.761.317-.761.761v1.713c0 .38.317.761.761.761zM416.591 360.688c.444 0 .762-.317.762-.761v-1.713c0-.444-.318-.761-.762-.761s-.761.317-.761.761v1.713c0 .381.317.761.761.761zM426.488 365.763c.444 0 .761-.317.761-.761v-1.713c0-.444-.317-.761-.761-.761s-.761.317-.761.761v1.713c0 .444.317.761.761.761z" fill="#D7323E"/>
    <path opacity=".6" fill="#882834" d="M0 0h500v625H0z"/>
  </g>
  <defs>
    <linearGradient id="paint0_linear" x1="12" y1="326.493" x2="211.596" y2="699.489" gradientUnits="userSpaceOnUse">
      <stop stop-color="#D7323E"/>
      <stop offset="1" stop-color="#F8C06D"/>
    </linearGradient>
    <linearGradient id="paint1_linear" x1="48" y1="238" x2="48" y2="312" gradientUnits="userSpaceOnUse">
      <stop stop-color="#FFE1A8"/>
      <stop offset="1" stop-color="#FFE1A8" stop-opacity="0"/>
    </linearGradient>
    <linearGradient id="paint2_linear" x1="423.946" y1="370.161" x2="423.946" y2="216" gradientUnits="userSpaceOnUse">
      <stop stop-color="#FFE1A8" stop-opacity="0"/>
      <stop offset="1" stop-color="#FFE1A8"/>
    </linearGradient>
    <linearGradient id="paint3_linear" x1="79.946" y1="462.161" x2="79.946" y2="308" gradientUnits="userSpaceOnUse">
      <stop stop-color="#FFE1A8" stop-opacity="0"/>
      <stop offset="1" stop-color="#FFE1A8"/>
    </linearGradient>
    <linearGradient id="paint4_linear" x1="401.55" y1="144" x2="401.55" y2="206" gradientUnits="userSpaceOnUse">
      <stop stop-color="#FFE1A8"/>
      <stop offset="1" stop-color="#FFE1A8" stop-opacity="0"/>
    </linearGradient>
    <linearGradient id="paint5_linear" x1="92" y1="659" x2="261.665" y2="350.516" gradientUnits="userSpaceOnUse">
      <stop stop-color="#882834"/>
      <stop offset=".651042" stop-color="#B01434"/>
      <stop offset="1" stop-color="#D7323E"/>
    </linearGradient>
    <linearGradient id="paint6_linear" x1="362.154" y1="539.473" x2="363.878" y2="490.326" gradientUnits="userSpaceOnUse">
      <stop stop-color="#B01434"/>
      <stop offset="1" stop-color="#B01434" stop-opacity="0"/>
    </linearGradient>
    <clipPath id="clip0">
      <path fill="#fff" d="M0 0h500v625H0z"/>
    </clipPath>
  </defs>
</svg>