<svg width="1440" height="480" fill="none" xmlns="http://www.w3.org/2000/svg">
  <g clip-path="url(#clip0)">
    <path d="M0 0h1440v480H0V0z" fill="url(#paint0_linear)"/>
    <path d="M534 178s-252.019-.358-434.068-.358C27.922 177.642-224 178-224 178c0-23.086 180.592 7.961 302.066-55.724 42.557-22.313 73.598 33.148 115.806 36.619 22.035 1.815 49.035-16.16 72.884-14.329 12.35.947 86.871 21.501 132.003 20.697C487.84 163.671 534 167.97 534 178z" fill="url(#paint1_linear)"/>
    <path d="M1021.51 81.898c-13.03.13-22.879 10.966-32.268 10.801-9.39-.164-23.57-27.699-55.116-27.699-39.157 0-57.653 35.368-68.166 35.368-11.878 0-18.458-5.926-30.095-5.926-30.521 0-25.021 9.405-47.865 12.72h291.89c-34.45-6.794-33.69-25.508-58.38-25.264z" fill="url(#paint2_linear)"/>
    <path d="M1127.51 323.898c-13.03.13-22.88 10.966-32.27 10.801-9.39-.164-23.57-27.699-55.11-27.699-39.16 0-57.657 35.368-68.17 35.368-11.878 0-18.458-5.926-30.095-5.926-30.521 0-25.021 9.405-47.865 12.72h291.89c-34.45-6.794-33.69-25.508-58.38-25.264z" fill="url(#paint3_linear)"/>
    <path d="M1419.1 313.04s-24.35.238-121.77.238c-38.53 0-173.33.195-173.33.195 0-12.566 132.17 1.3 157.73-9.533 23.77-10.071 43.28-2.756 65.87-.867 11.79.988 27.97-17.03 40.73-16.033 17.87 1.395 30.77 22.061 30.77 26z" fill="url(#paint4_linear)"/>
    <path d="M723 846c332.48 0 602-113.496 602-253.5 0-140.004-269.52-253.5-602-253.5-332.475 0-602 113.496-602 253.5C121 732.504 390.525 846 723 846z" fill="#882834"/>
    <path d="M1252 781c260.13 0 471-88.872 471-198.5 0-109.629-210.87-198.5-471-198.5-260.126 0-471 88.871-471 198.5C781 692.128 991.874 781 1252 781z" fill="url(#paint5_linear)"/>
    <path d="M99 788c276.695 0 501-94.692 501-211.5S375.695 365 99 365s-501 94.692-501 211.5S-177.695 788 99 788z" fill="url(#paint6_linear)"/>
    <path d="M1182.73 115.819c3.6 0 6.53-2.923 6.53-6.528a6.533 6.533 0 00-6.53-6.528 6.526 6.526 0 00-6.53 6.528 6.527 6.527 0 006.53 6.528z" fill="#FFE1A8"/>
    <path d="M1194.7 348.018h-23.94V178.923l11.97-71.808 11.97 71.808v169.095z" fill="#F8C06D"/>
    <path d="M1194.7 348.017h-23.94V223.713l23.94-10.88v135.184z" fill="#D7323E"/>
    <path d="M1210.02 95.056c3.6 0 6.53-2.923 6.53-6.528a6.533 6.533 0 00-6.53-6.528 6.527 6.527 0 00-6.53 6.528 6.527 6.527 0 006.53 6.528z" fill="#FFE1A8"/>
    <path d="M1221.99 327.346h-24.03V158.251l12.06-71.899 11.97 71.899v169.095z" fill="#F8C06D"/>
    <path d="M1254.72 301.143h-40.35v-34.907l19.59-52.315 20.76 52.315v34.907z" fill="#882834"/>
    <path d="M1221.99 327.346h-24.03V203.041l24.03-10.88v135.185z" fill="#D7323E"/>
    <path d="M1286.27 115.819c3.61 0 6.53-2.923 6.53-6.528a6.526 6.526 0 00-6.53-6.528 6.526 6.526 0 00-6.53 6.528 6.527 6.527 0 006.53 6.528z" fill="#FFE1A8"/>
    <path d="M1274.3 348.018h24.03V178.923l-12.06-71.808-11.97 71.808v169.095z" fill="#F8C06D"/>
    <path d="M1274.3 348.017h24.03V223.713l-24.03-10.88v135.184z" fill="#D7323E"/>
    <path d="M1259.07 95.056c3.6 0 6.53-2.923 6.53-6.528a6.533 6.533 0 00-6.53-6.528 6.527 6.527 0 00-6.53 6.528 6.527 6.527 0 006.53 6.528z" fill="#FFE1A8"/>
    <path d="M1247.1 327.346h23.94V158.251l-11.97-71.899-11.97 71.899v169.095z" fill="#F8C06D"/>
    <path d="M1247.1 327.346h23.94V203.041l-23.94-10.88v135.185z" fill="#D7323E"/>
    <path d="M1298.33 355.725h-127.57v-34.907l63.19-47.963 64.38 47.963v34.907z" fill="#882834"/>
    <path d="M1334.05 402.599h-5.17c-2.9 2.267-5.62 4.171-11.97 7.616h-8.7c-6.53 2.992-12.6 8.432-21.85 10.88 0 0-7.8-.816-11.97 0-11.6 2.176-25.11 8.16-40.34 7.616-14.78-.453-30.02-5.349-41.44-7.616h-9.79c-8.16-1.994-14.69-8.522-20.76-10.88h-9.8c-8.07-3.717-11.15-5.44-14.14-7.616h-4.08l26.2-56.848 73.9-50.048 73.89 50.048 26.02 56.848z" fill="#882834"/>
    <path d="M1233.96 267.324c3 0 5.44-4.384 5.44-9.792 0-5.408-2.44-9.792-5.44-9.792-3.01 0-5.44 4.384-5.44 9.792 0 5.408 2.43 9.792 5.44 9.792zM1195.78 405.864h-10.88v-23.302l10.88-2.901v26.203zM1272.12 405.864h10.89v-23.302l-10.89-2.901v26.203z" fill="#E07A15"/>
    <path d="M1182.73 424.36h9.79c11.42 2.266 26.66 7.162 41.44 7.616 15.23.453 28.74-5.531 40.34-7.616 4.26-.817 11.97 0 11.97 0 9.25-2.449 15.32-7.889 21.85-10.881h8.71c6.34-3.445 9.06-8.613 11.96-10.88h-190.76c2.99 2.176 6.07 7.163 14.14 10.88h9.8c6.07 2.358 12.51 8.886 20.76 10.881z" fill="url(#paint7_linear)"/>
    <path d="M1334.05 402.6h-5.44s-18.22-54.492-28.11-54.492c-10.88 0 16.23 65.462 16.23 65.462h-8.97s-15.96-82.87-33.37-83.958c-17.41-1.088 11.97 94.838 11.97 94.838h-11.97s-16.32-122.128-40.34-122.128c-24.03 0-41.17 122.128-41.17 122.128h-10.06s29.47-93.75 13.05-93.75c-16.41 0-33.63 82.87-33.63 82.87h-10.07s27.38-65.462 16.41-65.462c-10.97 0-30.55 54.492-30.55 54.492h-4.08l21.85-56.849 78.25-58.752 78.24 58.752 21.76 56.849z" fill="#F8C06D"/>
    <path d="M1247.1 209.569s-5.44-7.616-12.51-7.616c-7.07 0-12.51 7.616-12.51 7.616v-17.408h25.11v17.408h-.09z" fill="#882834"/>
    <path d="M1231.78 402.599h-10.88v-26.202l10.88-3.264v29.466zM1236.13 402.599h10.97v-26.202l-10.97-3.264v29.466z" fill="#E07A15"/>
    <path d="M1175.66 261.884c-.64 0-1.09-.453-1.09-1.088v-33.728c0-.635.45-1.088 1.09-1.088.63 0 1.08.453 1.08 1.088v33.819c0 .544-.54.997-1.08.997zM1180.55 259.708c-.63 0-1.09-.454-1.09-1.088v-33.819c0-.635.46-1.088 1.09-1.088.64 0 1.09.453 1.09 1.088v33.819c0 .634-.45 1.088-1.09 1.088zM1185.45 257.532c-.64 0-1.09-.454-1.09-1.088v-33.819c0-.635.45-1.088 1.09-1.088.63 0 1.09.453 1.09 1.088v33.819c0 .634-.46 1.088-1.09 1.088zM1190.34 255.356c-.63 0-1.08-.454-1.08-1.088v-33.819c0-.635.45-1.088 1.08-1.088.64 0 1.09.453 1.09 1.088v33.819c0 .634-.45 1.088-1.09 1.088zM1202.86 240.124c-.64 0-1.09-.454-1.09-1.088v-33.819c0-.635.45-1.088 1.09-1.088.63 0 1.08.453 1.08 1.088v33.819c0 .544-.45 1.088-1.08 1.088zM1207.84 237.948c-.63 0-1.09-.453-1.09-1.088v-33.819c0-.635.46-1.088 1.09-1.088.64 0 1.09.453 1.09 1.088v33.819c0 .544-.54 1.088-1.09 1.088zM1212.74 235.772c-.64 0-1.09-.454-1.09-1.088v-33.819c0-.635.45-1.088 1.09-1.088.63 0 1.09.453 1.09 1.088v33.819c0 .544-.55 1.088-1.09 1.088zM1217.63 233.595c-.63 0-1.08-.453-1.08-1.088v-33.818c0-.635.45-1.088 1.08-1.088.64 0 1.09.453 1.09 1.088v33.818c0 .544-.54 1.088-1.09 1.088zM1293.98 261.884c.63 0 1.08-.453 1.08-1.088v-33.728c0-.635-.45-1.088-1.08-1.088-.64 0-1.09.453-1.09 1.088v33.819c0 .544.45.997 1.09.997zM1289.08 259.708c.63 0 1.09-.454 1.09-1.088v-33.819c0-.635-.46-1.088-1.09-1.088-.63 0-1.09.453-1.09 1.088v33.819c0 .634.46 1.088 1.09 1.088zM1284.09 257.532c.64 0 1.09-.454 1.09-1.088v-33.819c0-.635-.45-1.088-1.09-1.088-.63 0-1.08.453-1.08 1.088v33.819c0 .634.54 1.088 1.08 1.088zM1279.2 255.356c.63 0 1.09-.454 1.09-1.088v-33.819c0-.635-.46-1.088-1.09-1.088-.64 0-1.09.453-1.09 1.088v33.819c0 .634.54 1.088 1.09 1.088zM1266.69 240.124c.63 0 1.08-.454 1.08-1.088v-33.819c0-.635-.45-1.088-1.08-1.088-.64 0-1.09.453-1.09 1.088v33.819c0 .544.45 1.088 1.09 1.088zM1261.79 237.948c.63 0 1.09-.453 1.09-1.088v-33.819c0-.635-.46-1.088-1.09-1.088-.64 0-1.09.453-1.09 1.088v33.819c0 .544.45 1.088 1.09 1.088zM1256.89 235.772c.64 0 1.09-.454 1.09-1.088v-33.819c0-.635-.45-1.088-1.09-1.088-.63 0-1.08.453-1.08 1.088v33.819c0 .544.45 1.088 1.08 1.088zM1252 233.595c.63 0 1.09-.453 1.09-1.088v-33.818c0-.635-.46-1.088-1.09-1.088-.64 0-1.09.453-1.09 1.088v33.818c0 .544.45 1.088 1.09 1.088z" fill="#882834"/>
    <path d="M1175.66 194.065c-.64 0-1.09-.454-1.09-1.088v-2.448c0-.635.45-1.088 1.09-1.088.63 0 1.08.453 1.08 1.088v2.448c0 .634-.54 1.088-1.08 1.088zM1180.55 201.409c-.63 0-1.09-.454-1.09-1.088v-2.448c0-.635.46-1.088 1.09-1.088.64 0 1.09.453 1.09 1.088v2.448c0 .634-.45 1.088-1.09 1.088zM1190.34 201.409c-.63 0-1.08-.454-1.08-1.088v-2.448c0-.635.45-1.088 1.08-1.088.64 0 1.09.453 1.09 1.088v2.448c0 .634-.45 1.088-1.09 1.088zM1185.45 186.721c-.64 0-1.09-.454-1.09-1.088v-2.448c0-.635.45-1.088 1.09-1.088.63 0 1.09.453 1.09 1.088v2.448c0 .634-.46 1.088-1.09 1.088zM1185.45 159.429c-.64 0-1.09-.453-1.09-1.088v-2.448c0-.634.45-1.088 1.09-1.088.63 0 1.09.454 1.09 1.088v2.448c0 .635-.46 1.088-1.09 1.088zM1181.1 145.286c-.64 0-1.09-.453-1.09-1.088v-2.448c0-.635.45-1.088 1.09-1.088.63 0 1.08.453 1.08 1.088v2.448c0 .635-.45 1.088-1.08 1.088zM1181.1 173.665c-.64 0-1.09-.454-1.09-1.088v-2.448c0-.635.45-1.088 1.09-1.088.63 0 1.08.453 1.08 1.088v2.448c0 .544-.45 1.088-1.08 1.088zM1190.34 208.753c-.63 0-1.08-.454-1.08-1.088v-2.448c0-.635.45-1.088 1.08-1.088.64 0 1.09.453 1.09 1.088v2.448c0 .544-.45 1.088-1.09 1.088zM1176.2 214.193c-.64 0-1.09-.453-1.09-1.088v-2.448c0-.635.45-1.088 1.09-1.088.63 0 1.09.453 1.09 1.088v2.448c0 .635-.55 1.088-1.09 1.088zM1202.86 163.056c-.64 0-1.09-.453-1.09-1.088v-2.448c0-.634.45-1.088 1.09-1.088.63 0 1.08.454 1.08 1.088v2.448c0 .544-.45 1.088-1.08 1.088zM1207.84 170.401c-.63 0-1.09-.454-1.09-1.088v-2.448c0-.635.46-1.088 1.09-1.088.64 0 1.09.453 1.09 1.088v2.448c0 .544-.54 1.088-1.09 1.088zM1217.63 177.745c-.63 0-1.08-.454-1.08-1.088v-2.449c0-.634.45-1.088 1.08-1.088.64 0 1.09.454 1.09 1.088v2.449c0 .544-.54 1.088-1.09 1.088zM1212.74 155.712c-.64 0-1.09-.453-1.09-1.088v-2.448c0-.634.45-1.088 1.09-1.088.63 0 1.09.454 1.09 1.088v2.448c0 .544-.55 1.088-1.09 1.088zM1212.74 141.025c-.64 0-1.09-.454-1.09-1.088v-2.448c0-.635.45-1.088 1.09-1.088.63 0 1.09.453 1.09 1.088v2.448c0 .544-.55 1.088-1.09 1.088zM1208.39 133.68c-.64 0-1.09-.453-1.09-1.088v-2.448c0-.634.45-1.088 1.09-1.088.63 0 1.08.454 1.08 1.088v2.448c0 .544-.54 1.088-1.08 1.088zM1208.39 148.368c-.64 0-1.09-.453-1.09-1.088v-2.448c0-.634.45-1.088 1.09-1.088.63 0 1.08.454 1.08 1.088v2.448c0 .544-.54 1.088-1.08 1.088zM1217.63 185.089c-.63 0-1.08-.454-1.08-1.088v-2.448c0-.635.45-1.088 1.08-1.088.64 0 1.09.453 1.09 1.088v2.448c0 .544-.54 1.088-1.09 1.088zM1203.4 192.342c-.63 0-1.09-.453-1.09-1.088v-2.448c0-.635.46-1.088 1.09-1.088.64 0 1.09.453 1.09 1.088v2.448c0 .635-.45 1.088-1.09 1.088zM1293.98 194.065c.63 0 1.08-.454 1.08-1.088v-2.448c0-.635-.45-1.088-1.08-1.088-.64 0-1.09.453-1.09 1.088v2.448c0 .634.45 1.088 1.09 1.088zM1289.08 201.409c.63 0 1.09-.454 1.09-1.088v-2.448c0-.635-.46-1.088-1.09-1.088-.63 0-1.09.453-1.09 1.088v2.448c0 .634.46 1.088 1.09 1.088zM1279.2 201.409c.63 0 1.09-.454 1.09-1.088v-2.448c0-.635-.46-1.088-1.09-1.088-.64 0-1.09.453-1.09 1.088v2.448c0 .634.54 1.088 1.09 1.088zM1284.09 186.721c.64 0 1.09-.454 1.09-1.088v-2.448c0-.635-.45-1.088-1.09-1.088-.63 0-1.08.453-1.08 1.088v2.448c0 .634.54 1.088 1.08 1.088zM1284.09 159.429c.64 0 1.09-.453 1.09-1.088v-2.448c0-.634-.45-1.088-1.09-1.088-.63 0-1.08.454-1.08 1.088v2.448c0 .635.54 1.088 1.08 1.088zM1288.54 145.286c.63 0 1.09-.453 1.09-1.088v-2.448c0-.635-.46-1.088-1.09-1.088-.64 0-1.09.453-1.09 1.088v2.448c0 .635.45 1.088 1.09 1.088zM1288.54 173.665c.63 0 1.09-.454 1.09-1.088v-2.448c0-.635-.46-1.088-1.09-1.088-.64 0-1.09.453-1.09 1.088v2.448c0 .544.45 1.088 1.09 1.088zM1279.2 208.753c.63 0 1.09-.454 1.09-1.088v-2.448c0-.635-.46-1.088-1.09-1.088-.64 0-1.09.453-1.09 1.088v2.448c0 .544.54 1.088 1.09 1.088zM1293.43 214.193c.64 0 1.09-.453 1.09-1.088v-2.448c0-.635-.45-1.088-1.09-1.088-.63 0-1.08.453-1.08 1.088v2.448c0 .635.45 1.088 1.08 1.088zM1266.69 163.056c.63 0 1.08-.453 1.08-1.088v-2.448c0-.634-.45-1.088-1.08-1.088-.64 0-1.09.454-1.09 1.088v2.448c0 .544.45 1.088 1.09 1.088zM1261.79 170.401c.63 0 1.09-.454 1.09-1.088v-2.448c0-.635-.46-1.088-1.09-1.088-.64 0-1.09.453-1.09 1.088v2.448c0 .544.45 1.088 1.09 1.088zM1252 177.745c.63 0 1.09-.454 1.09-1.088v-2.449c0-.634-.46-1.088-1.09-1.088-.64 0-1.09.454-1.09 1.088v2.449c0 .544.45 1.088 1.09 1.088zM1256.89 155.712c.64 0 1.09-.453 1.09-1.088v-2.448c0-.634-.45-1.088-1.09-1.088-.63 0-1.08.454-1.08 1.088v2.448c0 .544.45 1.088 1.08 1.088zM1256.89 141.025c.64 0 1.09-.454 1.09-1.088v-2.448c0-.635-.45-1.088-1.09-1.088-.63 0-1.08.453-1.08 1.088v2.448c0 .544.45 1.088 1.08 1.088zM1261.25 133.68c.63 0 1.08-.453 1.08-1.088v-2.448c0-.634-.45-1.088-1.08-1.088-.64 0-1.09.454-1.09 1.088v2.448c0 .544.45 1.088 1.09 1.088zM1261.25 148.368c.63 0 1.08-.453 1.08-1.088v-2.448c0-.634-.45-1.088-1.08-1.088-.64 0-1.09.454-1.09 1.088v2.448c0 .544.45 1.088 1.09 1.088zM1252 185.089c.63 0 1.09-.454 1.09-1.088v-2.448c0-.635-.46-1.088-1.09-1.088-.64 0-1.09.453-1.09 1.088v2.448c0 .544.45 1.088 1.09 1.088zM1266.14 192.342c.64 0 1.09-.453 1.09-1.088v-2.448c0-.635-.45-1.088-1.09-1.088-.63 0-1.09.453-1.09 1.088v2.448c0 .635.46 1.088 1.09 1.088z" fill="#D7323E"/>
    <path d="M822.5 76c5.799 0 10.5-4.477 10.5-10s-4.701-10-10.5-10S812 60.477 812 66s4.701 10 10.5 10z" fill="#882834"/>
    <path d="M361.306 435.684c9.413 0 9.436-14.638 0-14.638-9.413 0-9.435 14.638 0 14.638z" fill="#F8C06D"/>
    <path d="M304.664 267.328c16.865 0 16.906-25.328 0-25.328-16.865 0-16.906 25.328 0 25.328z" fill="#882834"/>
    <path d="M381.983 323.386c7.972 0 7.983-12.386 0-12.386-7.972 0-7.983 12.386 0 12.386zM999.983 144.386c7.967 0 7.987-12.386 0-12.386-7.972 0-7.983 12.386 0 12.386z" fill="#B01434"/>
    <path d="M70.72 231.635c11.617 0 11.633-17.439 0-17.439-11.618 0-11.635 17.439 0 17.439z" fill="#F8C06D"/>
    <path d="M121.862 412.66c6.656 0 6.656-10.336 0-10.336-6.636 0-6.657 10.336 0 10.336zM394.393 411.2c1.657 0 3.239-1.456 3.163-3.166-.076-1.716-1.392-3.166-3.163-3.166-1.658 0-3.24 1.457-3.164 3.166.076 1.716 1.392 3.166 3.164 3.166z" fill="#882834"/>
    <path d="M1320.01 41c26.62 0 26.68-40 0-40s-26.68 40 0 40zM166.008 343c18.635 0 18.677-28 0-28s-18.677 28 0 28zM1267.81 94.882c5.07 0 5.08-7.882 0-7.882s-5.08 7.882 0 7.882z" fill="#B01434"/>
    <path d="M1367.72 236c10.29 0 10.31-16 0-16-10.28 0-10.31 16 0 16z" fill="#F8C06D"/>
    <path d="M1319.5 298.996c12.65 0 12.67-18.996 0-18.996s-12.67 18.996 0 18.996z" fill="#882834"/>
    <path opacity=".6" fill="#882834" d="M0-177h1440v750H0z"/>
    <path d="M367.443 121.534c0-13.834 12.155-21.588 12.155-21.588-10.236 0-12.155-24.946-12.155-24.946h-.288S365.236 99.946 355 99.946c0 0 12.443 5.955 12.443 19.789v1.799zM951.222 441c0-21.405 18.778-33.402 18.778-33.402-15.813 0-18.778-38.598-18.778-38.598h-.444s-2.965 38.598-18.778 38.598c0 0 19.222 9.213 19.222 30.618V441zM304.718 75.868c0-8.581 7.537-13.39 7.537-13.39-6.35 0-7.537-15.478-7.537-15.478h-.18S303.344 62.477 297 62.477c0 0 7.718 3.694 7.718 12.275v1.116zM242.718 325.868c0-8.581 7.537-13.391 7.537-13.391-6.35 0-7.537-15.477-7.537-15.477h-.18s-1.194 15.477-7.538 15.477c0 0 7.718 3.694 7.718 12.275v1.116zM1088.17 164c0-15.755 13.83-24.584 13.83-24.584-11.66 0-13.83-28.416-13.83-28.416h-.34s-2.19 28.416-13.83 28.416c0 0 14.17 6.782 14.17 22.536V164zM1140.07 184c0-6.837 5.93-10.669 5.93-10.669-5 0-5.93-12.331-5.93-12.331h-.14s-.94 12.331-5.93 12.331c0 0 6.07 2.943 6.07 9.78V184z" fill="#F8C06D"/>
  </g>
  <defs>
    <linearGradient id="paint0_linear" x1="-684" y1="526.316" x2="2246" y2="526.316" gradientUnits="userSpaceOnUse">
      <stop stop-color="#B01434"/>
      <stop offset="1" stop-color="#F8C06D"/>
    </linearGradient>
    <linearGradient id="paint1_linear" x1="155.711" y1="73.023" x2="155.711" y2="178" gradientUnits="userSpaceOnUse">
      <stop stop-color="#fff" stop-opacity=".5"/>
      <stop offset="1" stop-color="#fff" stop-opacity="0"/>
    </linearGradient>
    <linearGradient id="paint2_linear" x1="933.946" y1="107.161" x2="933.946" y2="-47" gradientUnits="userSpaceOnUse">
      <stop stop-color="#fff" stop-opacity="0"/>
      <stop offset="1" stop-color="#fff" stop-opacity=".7"/>
    </linearGradient>
    <linearGradient id="paint3_linear" x1="1039.95" y1="349.161" x2="1039.95" y2="195" gradientUnits="userSpaceOnUse">
      <stop stop-color="#fff" stop-opacity="0"/>
      <stop offset="1" stop-color="#fff" stop-opacity=".7"/>
    </linearGradient>
    <linearGradient id="paint4_linear" x1="1271.55" y1="251" x2="1271.55" y2="313" gradientUnits="userSpaceOnUse">
      <stop stop-color="#fff" stop-opacity=".71"/>
      <stop offset="1" stop-color="#fff" stop-opacity="0"/>
    </linearGradient>
    <linearGradient id="paint5_linear" x1="800" y1="978" x2="1008.33" y2="-53.813" gradientUnits="userSpaceOnUse">
      <stop stop-color="#882834"/>
      <stop offset=".651" stop-color="#B01434"/>
      <stop offset="1" stop-color="#D7323E"/>
    </linearGradient>
    <linearGradient id="paint6_linear" x1="150" y1="798" x2="790.266" y2="806.857" gradientUnits="userSpaceOnUse">
      <stop stop-color="#882834"/>
      <stop offset=".651" stop-color="#B01434"/>
      <stop offset="1" stop-color="#D7323E"/>
    </linearGradient>
    <linearGradient id="paint7_linear" x1="1174.19" y1="440.627" x2="1176.65" y2="370.38" gradientUnits="userSpaceOnUse">
      <stop stop-color="#B01434"/>
      <stop offset="1" stop-color="#B01434" stop-opacity="0"/>
    </linearGradient>
    <clipPath id="clip0">
      <path fill="#fff" d="M0 0h1440v480H0z"/>
    </clipPath>
  </defs>
</svg>
