<svg width="500" height="625" viewBox="0 0 500 625" fill="none" xmlns="http://www.w3.org/2000/svg">
<g clip-path="url(#clip0)">
<rect width="500" height="625" fill="url(#paint0_linear)"/>
<path d="M314 312C314 312 136.789 311.747 8.77777 311.747C-41.8572 311.747 -219 312 -219 312C-219 295.727 -92.0139 317.612 -6.59723 272.719C23.3271 256.99 45.1539 296.086 74.8333 298.532C90.3279 299.812 109.313 287.141 126.083 288.432C134.767 289.099 187.168 303.588 218.903 303.022C281.542 301.899 314 304.929 314 312Z" fill="url(#paint1_linear)"/>
<path d="M511.514 344.898C498.479 345.028 488.631 355.864 479.242 355.699C469.852 355.535 455.672 328 424.126 328C384.969 328 366.473 363.368 355.96 363.368C344.082 363.368 337.502 357.442 325.865 357.442C295.344 357.442 300.844 366.847 278 370.162C326.951 370.162 491.572 370.162 569.892 370.162C535.443 363.368 536.202 344.654 511.514 344.898Z" fill="url(#paint2_linear)"/>
<path d="M167.514 436.898C154.479 437.028 144.631 447.864 135.242 447.699C125.852 447.535 111.672 420 80.126 420C40.9688 420 22.4732 455.368 11.9596 455.368C0.0820999 455.368 -6.4977 449.442 -18.1352 449.442C-48.6556 449.442 -43.156 458.847 -66 462.162C-17.0494 462.162 147.572 462.162 225.892 462.162C191.443 455.368 192.202 436.654 167.514 436.898Z" fill="url(#paint3_linear)"/>
<path d="M549.1 206.04C549.1 206.04 524.747 206.278 427.333 206.278C388.801 206.278 254 206.473 254 206.473C254 193.907 386.167 207.773 411.733 196.94C435.497 186.869 455.015 194.184 477.6 196.073C489.391 197.061 505.572 179.043 518.333 180.04C536.2 181.435 549.1 202.101 549.1 206.04Z" fill="url(#paint4_linear)"/>
<path d="M-58 904C202.126 904 413 815.128 413 705.5C413 595.871 202.126 507 -58 507C-318.126 507 -529 595.871 -529 705.5C-529 815.128 -318.126 904 -58 904Z" fill="#951513"/>
<path d="M382 904C642.126 904 853 815.128 853 705.5C853 595.871 642.126 507 382 507C121.874 507 -89 595.871 -89 705.5C-89 815.128 121.874 904 382 904Z" fill="url(#paint5_linear)"/>
<path d="M368.128 312.224C370.65 312.224 372.695 310.179 372.695 307.657C372.695 305.134 370.65 303.089 368.128 303.089C365.605 303.089 363.561 305.134 363.561 307.657C363.561 310.179 365.605 312.224 368.128 312.224Z" fill="#FFE1A8"/>
<path d="M376.501 474.68H359.755V356.374L368.128 306.134L376.501 356.374V474.68Z" fill="#F8C066"/>
<path d="M376.501 474.68H359.755V387.711L376.501 380.099V474.68Z" fill="#D73F36"/>
<path d="M387.222 297.698C389.744 297.698 391.789 295.653 391.789 293.13C391.789 290.608 389.744 288.563 387.222 288.563C384.699 288.563 382.654 290.608 382.654 293.13C382.654 295.653 384.699 297.698 387.222 297.698Z" fill="#FFE1A8"/>
<path d="M395.595 460.217H378.785V341.911L387.222 291.608L395.595 341.911V460.217Z" fill="#F8C066"/>
<path d="M418.495 441.884H390.267V417.462L403.968 380.86L418.495 417.462V441.884Z" fill="#951513"/>
<path d="M395.595 460.217H378.785V373.248L395.595 365.636V460.217Z" fill="#D73F36"/>
<path d="M440.57 312.224C443.092 312.224 445.137 310.179 445.137 307.657C445.137 305.134 443.092 303.089 440.57 303.089C438.048 303.089 436.003 305.134 436.003 307.657C436.003 310.179 438.048 312.224 440.57 312.224Z" fill="#FFE1A8"/>
<path d="M432.197 474.68H449.007V356.374L440.57 306.134L432.197 356.374V474.68Z" fill="#F8C066"/>
<path d="M432.197 474.68H449.007V387.711L432.197 380.099V474.68Z" fill="#D73F36"/>
<path d="M421.539 297.698C424.062 297.698 426.107 295.653 426.107 293.13C426.107 290.608 424.062 288.563 421.539 288.563C419.017 288.563 416.972 290.608 416.972 293.13C416.972 295.653 419.017 297.698 421.539 297.698Z" fill="#FFE1A8"/>
<path d="M413.166 460.217H429.913V341.911L421.54 291.608L413.166 341.911V460.217Z" fill="#F8C066"/>
<path d="M413.166 460.217H429.913V373.248L413.166 365.636V460.217Z" fill="#D73F36"/>
<path d="M449.007 480.072H359.755V455.65L403.968 422.093L449.007 455.65V480.072Z" fill="#951513"/>
<path d="M474 512.867H470.384C468.354 514.453 466.451 515.785 462.011 518.196H455.921C451.354 520.289 447.104 524.095 440.633 525.808C440.633 525.808 435.178 525.237 432.26 525.808C424.141 527.331 414.689 531.517 404.032 531.137C393.692 530.819 383.035 527.394 375.042 525.808H368.191C362.482 524.413 357.915 519.845 353.665 518.196H346.814C341.168 515.595 339.011 514.39 336.918 512.867H334.063L352.396 473.094L404.095 438.078L455.794 473.094L474 512.867Z" fill="#951513"/>
<path d="M403.968 418.223C406.07 418.223 407.774 415.156 407.774 411.372C407.774 407.589 406.07 404.521 403.968 404.521C401.866 404.521 400.162 407.589 400.162 411.372C400.162 415.156 401.866 418.223 403.968 418.223Z" fill="#D6801C"/>
<path d="M377.263 515.151H369.65V498.849L377.263 496.819V515.151Z" fill="#D6801C"/>
<path d="M430.674 515.151H438.286V498.849L430.674 496.819V515.151Z" fill="#D6801C"/>
<path d="M368.128 528.092H374.979C382.971 529.678 393.628 533.103 403.968 533.42C414.625 533.738 424.077 529.551 432.197 528.092C435.178 527.521 440.57 528.092 440.57 528.092C447.04 526.379 451.29 522.573 455.858 520.48H461.947C466.388 518.069 468.291 514.454 470.321 512.868H336.854C338.948 514.39 341.105 517.879 346.75 520.48H353.601C357.851 522.129 362.355 526.696 368.128 528.092Z" fill="url(#paint6_linear)"/>
<path d="M474 512.868H470.194C470.194 512.868 457.444 474.743 450.529 474.743C442.917 474.743 461.884 520.543 461.884 520.543H455.604C455.604 520.543 444.44 462.564 432.26 461.803C420.081 461.042 440.633 528.155 440.633 528.155H432.26C432.26 528.155 420.842 442.709 404.032 442.709C387.222 442.709 375.232 528.155 375.232 528.155H368.191C368.191 528.155 388.807 462.564 377.326 462.564C365.844 462.564 353.792 520.543 353.792 520.543H346.75C346.75 520.543 365.908 474.743 358.232 474.743C350.556 474.743 336.855 512.868 336.855 512.868H334L349.288 473.094L404.032 431.989L458.776 473.094L474 512.868Z" fill="#F8C066"/>
<path d="M413.166 377.815C413.166 377.815 409.36 372.487 404.412 372.487C399.465 372.487 395.658 377.815 395.658 377.815V365.636H413.23V377.815H413.166Z" fill="#951513"/>
<path d="M402.446 512.867H394.834V494.535L402.446 492.251V512.867Z" fill="#D6801C"/>
<path d="M405.491 512.867H413.167V494.535L405.491 492.251V512.867Z" fill="#D6801C"/>
<path d="M363.18 414.417C362.736 414.417 362.419 414.1 362.419 413.656V390.058C362.419 389.614 362.736 389.297 363.18 389.297C363.624 389.297 363.941 389.614 363.941 390.058V413.719C363.941 414.1 363.561 414.417 363.18 414.417Z" fill="#951513"/>
<path d="M366.606 412.895C366.162 412.895 365.844 412.578 365.844 412.133V388.472C365.844 388.028 366.162 387.711 366.606 387.711C367.05 387.711 367.367 388.028 367.367 388.472V412.133C367.367 412.578 367.05 412.895 366.606 412.895Z" fill="#951513"/>
<path d="M370.031 411.372C369.587 411.372 369.27 411.055 369.27 410.611V386.95C369.27 386.506 369.587 386.189 370.031 386.189C370.475 386.189 370.792 386.506 370.792 386.95V410.611C370.792 411.055 370.475 411.372 370.031 411.372Z" fill="#951513"/>
<path d="M373.456 409.85C373.012 409.85 372.695 409.533 372.695 409.089V385.428C372.695 384.984 373.012 384.667 373.456 384.667C373.9 384.667 374.217 384.984 374.217 385.428V409.089C374.217 409.533 373.9 409.85 373.456 409.85Z" fill="#951513"/>
<path d="M382.21 399.193C381.766 399.193 381.449 398.876 381.449 398.432V374.77C381.449 374.326 381.766 374.009 382.21 374.009C382.654 374.009 382.971 374.326 382.971 374.77V398.432C382.971 398.812 382.654 399.193 382.21 399.193Z" fill="#951513"/>
<path d="M385.699 397.67C385.255 397.67 384.938 397.353 384.938 396.909V373.248C384.938 372.804 385.255 372.487 385.699 372.487C386.143 372.487 386.46 372.804 386.46 373.248V396.909C386.46 397.29 386.08 397.67 385.699 397.67Z" fill="#951513"/>
<path d="M389.125 396.148C388.681 396.148 388.364 395.831 388.364 395.387V371.726C388.364 371.282 388.681 370.965 389.125 370.965C389.569 370.965 389.886 371.282 389.886 371.726V395.387C389.886 395.768 389.505 396.148 389.125 396.148Z" fill="#951513"/>
<path d="M392.55 394.625C392.106 394.625 391.789 394.308 391.789 393.864V370.203C391.789 369.759 392.106 369.442 392.55 369.442C392.994 369.442 393.311 369.759 393.311 370.203V393.864C393.311 394.245 392.931 394.625 392.55 394.625Z" fill="#951513"/>
<path d="M445.962 414.417C446.406 414.417 446.723 414.1 446.723 413.656V390.058C446.723 389.614 446.406 389.297 445.962 389.297C445.518 389.297 445.201 389.614 445.201 390.058V413.719C445.201 414.1 445.518 414.417 445.962 414.417Z" fill="#951513"/>
<path d="M442.537 412.895C442.981 412.895 443.298 412.578 443.298 412.133V388.472C443.298 388.028 442.981 387.711 442.537 387.711C442.093 387.711 441.775 388.028 441.775 388.472V412.133C441.775 412.578 442.093 412.895 442.537 412.895Z" fill="#951513"/>
<path d="M439.048 411.372C439.492 411.372 439.809 411.055 439.809 410.611V386.95C439.809 386.506 439.492 386.189 439.048 386.189C438.604 386.189 438.286 386.506 438.286 386.95V410.611C438.286 411.055 438.667 411.372 439.048 411.372Z" fill="#951513"/>
<path d="M435.622 409.85C436.066 409.85 436.383 409.533 436.383 409.089V385.428C436.383 384.984 436.066 384.667 435.622 384.667C435.178 384.667 434.861 384.984 434.861 385.428V409.089C434.861 409.533 435.241 409.85 435.622 409.85Z" fill="#951513"/>
<path d="M426.868 399.193C427.312 399.193 427.629 398.876 427.629 398.432V374.77C427.629 374.326 427.312 374.009 426.868 374.009C426.424 374.009 426.107 374.326 426.107 374.77V398.432C426.107 398.812 426.424 399.193 426.868 399.193Z" fill="#951513"/>
<path d="M423.443 397.67C423.887 397.67 424.204 397.353 424.204 396.909V373.248C424.204 372.804 423.887 372.487 423.443 372.487C422.999 372.487 422.681 372.804 422.681 373.248V396.909C422.681 397.29 422.999 397.67 423.443 397.67Z" fill="#951513"/>
<path d="M420.017 396.148C420.461 396.148 420.778 395.831 420.778 395.387V371.726C420.778 371.282 420.461 370.965 420.017 370.965C419.573 370.965 419.256 371.282 419.256 371.726V395.387C419.256 395.768 419.573 396.148 420.017 396.148Z" fill="#951513"/>
<path d="M416.592 394.625C417.036 394.625 417.353 394.308 417.353 393.864V370.203C417.353 369.759 417.036 369.442 416.592 369.442C416.148 369.442 415.831 369.759 415.831 370.203V393.864C415.831 394.245 416.148 394.625 416.592 394.625Z" fill="#951513"/>
<path d="M363.18 366.968C362.736 366.968 362.419 366.651 362.419 366.207V364.494C362.419 364.05 362.736 363.733 363.18 363.733C363.624 363.733 363.941 364.05 363.941 364.494V366.207C363.941 366.651 363.561 366.968 363.18 366.968Z" fill="#D73F36"/>
<path d="M366.605 372.106C366.161 372.106 365.844 371.789 365.844 371.345V369.632C365.844 369.188 366.161 368.871 366.605 368.871C367.049 368.871 367.366 369.188 367.366 369.632V371.345C367.366 371.789 367.049 372.106 366.605 372.106Z" fill="#D73F36"/>
<path d="M373.456 372.106C373.012 372.106 372.695 371.789 372.695 371.345V369.632C372.695 369.188 373.012 368.871 373.456 368.871C373.9 368.871 374.217 369.188 374.217 369.632V371.345C374.217 371.789 373.9 372.106 373.456 372.106Z" fill="#D73F36"/>
<path d="M370.031 361.83C369.587 361.83 369.27 361.513 369.27 361.069V359.356C369.27 358.912 369.587 358.595 370.031 358.595C370.475 358.595 370.792 358.912 370.792 359.356V361.069C370.792 361.513 370.475 361.83 370.031 361.83Z" fill="#D73F36"/>
<path d="M370.031 342.736C369.587 342.736 369.27 342.419 369.27 341.975V340.262C369.27 339.818 369.587 339.501 370.031 339.501C370.475 339.501 370.792 339.818 370.792 340.262V341.975C370.792 342.419 370.475 342.736 370.031 342.736Z" fill="#D73F36"/>
<path d="M366.986 332.84C366.542 332.84 366.225 332.523 366.225 332.079V330.366C366.225 329.922 366.542 329.605 366.986 329.605C367.43 329.605 367.747 329.922 367.747 330.366V332.079C367.747 332.523 367.43 332.84 366.986 332.84Z" fill="#D73F36"/>
<path d="M366.986 352.695C366.542 352.695 366.225 352.378 366.225 351.934V350.221C366.225 349.777 366.542 349.46 366.986 349.46C367.43 349.46 367.747 349.777 367.747 350.221V351.934C367.747 352.315 367.43 352.695 366.986 352.695Z" fill="#D73F36"/>
<path d="M373.456 377.244C373.012 377.244 372.695 376.927 372.695 376.483V374.77C372.695 374.326 373.012 374.009 373.456 374.009C373.9 374.009 374.217 374.326 374.217 374.77V376.483C374.217 376.864 373.9 377.244 373.456 377.244Z" fill="#D73F36"/>
<path d="M363.561 381.051C363.116 381.051 362.799 380.733 362.799 380.289V378.577C362.799 378.133 363.116 377.815 363.561 377.815C364.005 377.815 364.322 378.133 364.322 378.577V380.289C364.322 380.733 363.941 381.051 363.561 381.051Z" fill="#D73F36"/>
<path d="M382.21 345.273C381.766 345.273 381.449 344.956 381.449 344.512V342.799C381.449 342.355 381.766 342.038 382.21 342.038C382.654 342.038 382.971 342.355 382.971 342.799V344.512C382.971 344.893 382.654 345.273 382.21 345.273Z" fill="#D73F36"/>
<path d="M385.699 350.412C385.255 350.412 384.938 350.095 384.938 349.65V347.938C384.938 347.494 385.255 347.177 385.699 347.177C386.143 347.177 386.46 347.494 386.46 347.938V349.65C386.46 350.031 386.08 350.412 385.699 350.412Z" fill="#D73F36"/>
<path d="M392.55 355.55C392.106 355.55 391.789 355.233 391.789 354.789V353.076C391.789 352.632 392.106 352.315 392.55 352.315C392.994 352.315 393.311 352.632 393.311 353.076V354.789C393.311 355.169 392.931 355.55 392.55 355.55Z" fill="#D73F36"/>
<path d="M389.125 340.135C388.68 340.135 388.363 339.818 388.363 339.374V337.661C388.363 337.217 388.68 336.9 389.125 336.9C389.569 336.9 389.886 337.217 389.886 337.661V339.374C389.886 339.755 389.505 340.135 389.125 340.135Z" fill="#D73F36"/>
<path d="M389.125 329.859C388.68 329.859 388.363 329.542 388.363 329.097V327.385C388.363 326.941 388.68 326.624 389.125 326.624C389.569 326.624 389.886 326.941 389.886 327.385V329.097C389.886 329.478 389.505 329.859 389.125 329.859Z" fill="#D73F36"/>
<path d="M386.08 324.721C385.636 324.721 385.319 324.404 385.319 323.96V322.247C385.319 321.803 385.636 321.486 386.08 321.486C386.524 321.486 386.841 321.803 386.841 322.247V323.96C386.841 324.34 386.46 324.721 386.08 324.721Z" fill="#D73F36"/>
<path d="M386.08 334.997C385.636 334.997 385.319 334.68 385.319 334.236V332.523C385.319 332.079 385.636 331.762 386.08 331.762C386.524 331.762 386.841 332.079 386.841 332.523V334.236C386.841 334.617 386.46 334.997 386.08 334.997Z" fill="#D73F36"/>
<path d="M392.55 360.688C392.106 360.688 391.789 360.371 391.789 359.927V358.214C391.789 357.77 392.106 357.453 392.55 357.453C392.994 357.453 393.311 357.77 393.311 358.214V359.927C393.311 360.307 392.931 360.688 392.55 360.688Z" fill="#D73F36"/>
<path d="M382.591 365.763C382.147 365.763 381.83 365.446 381.83 365.002V363.289C381.83 362.845 382.147 362.528 382.591 362.528C383.035 362.528 383.352 362.845 383.352 363.289V365.002C383.352 365.446 383.035 365.763 382.591 365.763Z" fill="#D73F36"/>
<path d="M445.962 366.968C446.406 366.968 446.723 366.651 446.723 366.207V364.494C446.723 364.05 446.406 363.733 445.962 363.733C445.518 363.733 445.201 364.05 445.201 364.494V366.207C445.201 366.651 445.518 366.968 445.962 366.968Z" fill="#D73F36"/>
<path d="M442.537 372.106C442.981 372.106 443.298 371.789 443.298 371.345V369.632C443.298 369.188 442.981 368.871 442.537 368.871C442.093 368.871 441.775 369.188 441.775 369.632V371.345C441.775 371.789 442.093 372.106 442.537 372.106Z" fill="#D73F36"/>
<path d="M435.622 372.106C436.066 372.106 436.383 371.789 436.383 371.345V369.632C436.383 369.188 436.066 368.871 435.622 368.871C435.178 368.871 434.861 369.188 434.861 369.632V371.345C434.861 371.789 435.241 372.106 435.622 372.106Z" fill="#D73F36"/>
<path d="M439.048 361.83C439.492 361.83 439.809 361.513 439.809 361.069V359.356C439.809 358.912 439.492 358.595 439.048 358.595C438.604 358.595 438.286 358.912 438.286 359.356V361.069C438.286 361.513 438.667 361.83 439.048 361.83Z" fill="#D73F36"/>
<path d="M439.048 342.736C439.492 342.736 439.809 342.419 439.809 341.975V340.262C439.809 339.818 439.492 339.501 439.048 339.501C438.604 339.501 438.286 339.818 438.286 340.262V341.975C438.286 342.419 438.667 342.736 439.048 342.736Z" fill="#D73F36"/>
<path d="M442.156 332.84C442.6 332.84 442.917 332.523 442.917 332.079V330.366C442.917 329.922 442.6 329.605 442.156 329.605C441.712 329.605 441.395 329.922 441.395 330.366V332.079C441.395 332.523 441.712 332.84 442.156 332.84Z" fill="#D73F36"/>
<path d="M442.156 352.695C442.6 352.695 442.917 352.378 442.917 351.934V350.221C442.917 349.777 442.6 349.46 442.156 349.46C441.712 349.46 441.395 349.777 441.395 350.221V351.934C441.395 352.315 441.712 352.695 442.156 352.695Z" fill="#D73F36"/>
<path d="M435.622 377.244C436.066 377.244 436.383 376.927 436.383 376.483V374.77C436.383 374.326 436.066 374.009 435.622 374.009C435.178 374.009 434.861 374.326 434.861 374.77V376.483C434.861 376.864 435.241 377.244 435.622 377.244Z" fill="#D73F36"/>
<path d="M445.582 381.051C446.026 381.051 446.343 380.733 446.343 380.289V378.577C446.343 378.133 446.026 377.815 445.582 377.815C445.137 377.815 444.82 378.133 444.82 378.577V380.289C444.82 380.733 445.137 381.051 445.582 381.051Z" fill="#D73F36"/>
<path d="M426.868 345.273C427.312 345.273 427.629 344.956 427.629 344.512V342.799C427.629 342.355 427.312 342.038 426.868 342.038C426.424 342.038 426.107 342.355 426.107 342.799V344.512C426.107 344.893 426.424 345.273 426.868 345.273Z" fill="#D73F36"/>
<path d="M423.443 350.412C423.887 350.412 424.204 350.095 424.204 349.65V347.938C424.204 347.494 423.887 347.177 423.443 347.177C422.999 347.177 422.681 347.494 422.681 347.938V349.65C422.681 350.031 422.999 350.412 423.443 350.412Z" fill="#D73F36"/>
<path d="M416.592 355.55C417.036 355.55 417.353 355.233 417.353 354.789V353.076C417.353 352.632 417.036 352.315 416.592 352.315C416.148 352.315 415.831 352.632 415.831 353.076V354.789C415.831 355.169 416.148 355.55 416.592 355.55Z" fill="#D73F36"/>
<path d="M420.017 340.135C420.461 340.135 420.778 339.818 420.778 339.374V337.661C420.778 337.217 420.461 336.9 420.017 336.9C419.573 336.9 419.256 337.217 419.256 337.661V339.374C419.256 339.755 419.573 340.135 420.017 340.135Z" fill="#D73F36"/>
<path d="M420.017 329.859C420.461 329.859 420.778 329.542 420.778 329.097V327.385C420.778 326.941 420.461 326.624 420.017 326.624C419.573 326.624 419.256 326.941 419.256 327.385V329.097C419.256 329.478 419.573 329.859 420.017 329.859Z" fill="#D73F36"/>
<path d="M423.062 324.721C423.506 324.721 423.823 324.404 423.823 323.96V322.247C423.823 321.803 423.506 321.486 423.062 321.486C422.618 321.486 422.301 321.803 422.301 322.247V323.96C422.301 324.34 422.618 324.721 423.062 324.721Z" fill="#D73F36"/>
<path d="M423.062 334.997C423.506 334.997 423.823 334.68 423.823 334.236V332.523C423.823 332.079 423.506 331.762 423.062 331.762C422.618 331.762 422.301 332.079 422.301 332.523V334.236C422.301 334.617 422.618 334.997 423.062 334.997Z" fill="#D73F36"/>
<path d="M416.592 360.688C417.036 360.688 417.353 360.371 417.353 359.927V358.214C417.353 357.77 417.036 357.453 416.592 357.453C416.148 357.453 415.831 357.77 415.831 358.214V359.927C415.831 360.307 416.148 360.688 416.592 360.688Z" fill="#D73F36"/>
<path d="M426.488 365.763C426.932 365.763 427.249 365.446 427.249 365.002V363.289C427.249 362.845 426.932 362.528 426.488 362.528C426.043 362.528 425.726 362.845 425.726 363.289V365.002C425.726 365.446 426.043 365.763 426.488 365.763Z" fill="#D73F36"/>
<path d="M380 197C386.659 197 386.675 187 380 187C373.341 187 373.325 197 380 197Z" fill="white"/>
<path d="M386.5 84C392.496 84 392.504 75 386.5 75C380.504 75 380.496 84 386.5 84Z" fill="#BE2A26"/>
<path d="M34.5 110C40.4958 110 40.5042 101 34.5 101C28.5042 101 28.4958 110 34.5 110Z" fill="white"/>
<path d="M410.5 149C411.809 149 413.058 147.85 412.998 146.5C412.938 145.145 411.899 144 410.5 144C409.191 144 407.942 145.15 408.002 146.5C408.062 147.855 409.101 149 410.5 149Z" fill="#F8C066"/>
<path d="M58.5 141C63.9974 141 69.2431 136.17 68.9913 130.5C68.7395 124.809 64.3751 120 58.5 120C53.0026 120 47.7569 124.83 48.0087 130.5C48.2605 136.191 52.6249 141 58.5 141Z" fill="#F8C066"/>
<rect opacity="0.6" width="500" height="625" fill="#6C0000"/>
<path d="M454.588 247C454.588 238.676 462 234.01 462 234.01C455.758 234.01 454.588 219 454.588 219H454.412C454.412 219 453.242 234.01 447 234.01C447 234.01 454.588 237.593 454.588 245.918V247Z" fill="#F8C066"/>
<path d="M177.059 70C177.059 64.0548 182 60.7229 182 60.7229C177.837 60.7229 177.059 50 177.059 50H176.941C176.941 50 176.159 60.7229 172 60.7229C172 60.7229 177.059 63.2821 177.059 69.2273V70Z" fill="#F8C066"/>
<path d="M420.647 118C420.647 103.732 433 95.7349 433 95.7349C422.593 95.7349 420.647 70 420.647 70H420.353C420.353 70 418.397 95.7349 408 95.7349C408 95.7349 420.647 101.877 420.647 116.145V118Z" fill="#F8C066"/>
<path d="M470.071 124C470.071 117.163 476 113.331 476 113.331C471.005 113.331 470.071 101 470.071 101H469.929C469.929 101 468.991 113.331 464 113.331C464 113.331 470.071 116.274 470.071 123.111V124Z" fill="#F8C066"/>
</g>
<defs>
<linearGradient id="paint0_linear" x1="12" y1="326.493" x2="211.596" y2="699.489" gradientUnits="userSpaceOnUse">
<stop stop-color="#D7323E"/>
<stop offset="1" stop-color="#F8C06D"/>
</linearGradient>
<linearGradient id="paint1_linear" x1="48" y1="238" x2="48" y2="312" gradientUnits="userSpaceOnUse">
<stop stop-color="#FFE1A8"/>
<stop offset="1" stop-color="#FFE1A8" stop-opacity="0"/>
</linearGradient>
<linearGradient id="paint2_linear" x1="423.946" y1="370.161" x2="423.946" y2="216" gradientUnits="userSpaceOnUse">
<stop stop-color="#FFE1A8" stop-opacity="0"/>
<stop offset="1" stop-color="#FFE1A8"/>
</linearGradient>
<linearGradient id="paint3_linear" x1="79.946" y1="462.161" x2="79.946" y2="308" gradientUnits="userSpaceOnUse">
<stop stop-color="#FFE1A8" stop-opacity="0"/>
<stop offset="1" stop-color="#FFE1A8"/>
</linearGradient>
<linearGradient id="paint4_linear" x1="401.55" y1="144" x2="401.55" y2="206" gradientUnits="userSpaceOnUse">
<stop stop-color="#FFE1A8"/>
<stop offset="1" stop-color="#FFE1A8" stop-opacity="0"/>
</linearGradient>
<linearGradient id="paint5_linear" x1="92" y1="659" x2="261.665" y2="350.516" gradientUnits="userSpaceOnUse">
<stop stop-color="#882834"/>
<stop offset="0.651042" stop-color="#B01434"/>
<stop offset="1" stop-color="#D7323E"/>
</linearGradient>
<linearGradient id="paint6_linear" x1="362.153" y1="539.473" x2="363.878" y2="490.326" gradientUnits="userSpaceOnUse">
<stop stop-color="#B01434"/>
<stop offset="1" stop-color="#B01434" stop-opacity="0"/>
</linearGradient>
<clipPath id="clip0">
<rect width="500" height="625" fill="white"/>
</clipPath>
</defs>
</svg>
