<svg width="83" height="87" viewBox="0 0 83 87" fill="none" xmlns="http://www.w3.org/2000/svg">
<g clip-path="url(#clip0_1465_80531)">
<rect width="80" height="80" fill="#B4B4B4"/>
<rect width="83" height="87" transform="matrix(1 0 0 -1 0 87)" fill="url(#paint0_linear_1465_80531)"/>
<path d="M76.7852 35.5571C76.7852 32.6142 74.3995 30.2285 71.4566 30.2285H56.1302C53.1873 30.2285 50.8017 32.6142 50.8017 35.5571V47.0336C50.8017 48.718 52.1671 50.0834 53.8515 50.0834C54.8355 50.0834 55.759 50.5581 56.3316 51.3583L58.628 54.5668L60.3183 52.2614C61.322 50.8923 62.918 50.0834 64.6156 50.0834H71.4566C74.3995 50.0834 76.7852 47.6978 76.7852 44.7549V35.5571Z" fill="#1F576F"/>
<path d="M63.7958 35.6732L64.9286 38.0075C64.9831 38.122 65.0903 38.2018 65.2132 38.223L67.7208 38.6387C68.0297 38.691 68.1546 39.0773 67.9329 39.2961L66.1313 41.0664C66.0441 41.1525 66.0045 41.2786 66.0244 41.4038L66.4665 43.9553C66.5221 44.2693 66.2006 44.5022 65.9224 44.3491L63.6744 43.1084C63.5655 43.0471 63.433 43.0462 63.3253 43.1029L61.0912 44.2624C60.8156 44.4052 60.4916 44.1601 60.544 43.8495L60.9569 41.3146C60.9769 41.1904 60.9366 41.0622 60.8473 40.9725L59.0238 39.1384C58.7997 38.9127 58.9208 38.528 59.2287 38.4888L61.7319 38.162C61.8535 38.1467 61.9587 38.0699 62.0129 37.9566L63.1187 35.6632C63.2568 35.3785 63.6556 35.3841 63.7958 35.6732Z" fill="#F5D8AF"/>
<path d="M9.33789 30.3403C9.33789 27.3974 11.7236 25.0117 14.6665 25.0117H49.8951C52.838 25.0117 55.2236 27.3974 55.2236 30.3403V55.6111C55.2236 58.554 52.8064 60.9397 49.8635 60.9397C48.1228 60.9397 46.4754 61.7899 45.4786 63.217L41.4026 69.0524L37.1919 63.1676C36.1914 61.7693 34.5777 60.9397 32.8584 60.9397H14.6665C11.7236 60.9397 9.33789 58.554 9.33789 55.6111V30.3403Z" fill="#276A87"/>
<path d="M36.5191 50.6719H28.8086V52.4327H36.5191V50.6719Z" fill="#D6801C"/>
<path d="M36.5191 52.4355H28.8086V54.1964H36.5191V52.4355Z" fill="#F3B761"/>
<path d="M40.5118 39.6132C40.5118 35.0707 36.9988 31.3867 32.6651 31.3867C28.3314 31.3867 24.8184 35.0691 24.8184 39.6132C24.8184 42.489 26.2273 45.0192 28.3608 46.4895L28.8099 50.6717H36.5203L36.9694 46.4895C39.1029 45.0208 40.5118 42.4907 40.5118 39.6132Z" fill="#FAEDDA"/>
<path d="M30.8607 46.6718L29.3511 39.6706C29.2768 39.3282 29.526 39.002 29.8605 39.002H30.4302C30.7182 39.002 30.952 39.247 30.952 39.5489V40.3895C30.952 40.6914 31.1858 40.9365 31.4738 40.9365C31.7618 40.9365 31.9956 40.6914 31.9956 40.3895V39.5489C31.9956 39.247 32.2294 39.002 32.5173 39.002H32.7078C32.9958 39.002 33.2295 39.247 33.2295 39.5489V40.4837C33.2295 40.7855 33.4633 41.0306 33.7513 41.0306H33.8907C34.1787 41.0306 34.4124 40.7855 34.4124 40.4837V39.5489C34.4124 39.247 34.6462 39.002 34.9342 39.002H35.4591C35.7951 39.002 36.0428 39.3298 35.9685 39.6722L34.4279 46.6734C34.3737 46.9217 34.1616 47.097 33.9185 47.097H31.367C31.127 47.0986 30.9149 46.9217 30.8607 46.6718Z" fill="#F3B761"/>
<path d="M33.7842 47.0977H31.5547V50.6729H33.7842V47.0977Z" fill="#D6801C"/>
<path d="M62.2504 18.4875C65.6884 18.4875 68.4754 15.5662 68.4754 11.9625C68.4754 8.35885 65.6884 5.4375 62.2504 5.4375C58.8124 5.4375 56.0254 8.35885 56.0254 11.9625C56.0254 15.5662 58.8124 18.4875 62.2504 18.4875Z" fill="#85C3D8"/>
<path d="M21.7883 77.2125C23.5073 77.2125 24.9008 75.7518 24.9008 73.95C24.9008 72.1482 23.5073 70.6875 21.7883 70.6875C20.0693 70.6875 18.6758 72.1482 18.6758 73.95C18.6758 75.7518 20.0693 77.2125 21.7883 77.2125Z" fill="#85C3D8"/>
<path d="M66.9195 64.1629C67.779 64.1629 68.4758 63.4326 68.4758 62.5316C68.4758 61.6307 67.779 60.9004 66.9195 60.9004C66.06 60.9004 65.3633 61.6307 65.3633 62.5316C65.3633 63.4326 66.06 64.1629 66.9195 64.1629Z" fill="#85C3D8"/>
<path d="M49.2809 19.575C50.1404 19.575 50.8371 18.8447 50.8371 17.9438C50.8371 17.0428 50.1404 16.3125 49.2809 16.3125C48.4214 16.3125 47.7246 17.0428 47.7246 17.9438C47.7246 18.8447 48.4214 19.575 49.2809 19.575Z" fill="#85C3D8"/>
</g>
<defs>
<linearGradient id="paint0_linear_1465_80531" x1="43.9085" y1="183.788" x2="44.5483" y2="-30.4481" gradientUnits="userSpaceOnUse">
<stop stop-color="#F7D8D7"/>
<stop offset="1" stop-color="#CAE4ED"/>
</linearGradient>
<clipPath id="clip0_1465_80531">
<rect width="83" height="87" fill="white"/>
</clipPath>
</defs>
</svg>
