<svg width="83" height="87" viewBox="0 0 83 87" fill="none" xmlns="http://www.w3.org/2000/svg">
<g clip-path="url(#clip0_1465_80420)">
<rect width="80" height="80" fill="#FAEDDA"/>
<path d="M-23.875 97.9397V-47.5586H92.2723V97.9397" fill="url(#paint0_linear_1465_80420)"/>
<path d="M89.1646 35.7436C66.5489 34.1911 57.063 37.1043 33.7661 46.675C7.26299 51.6566 -4.48394 33.3016 -18.8734 37.1043C-24.6582 38.6329 -39.0273 82.2946 -39.0273 82.2946L-4.84978 -58.7246L105.223 -29.4135L89.1646 35.7462V35.7436Z" fill="url(#paint1_linear_1465_80420)"/>
<path d="M45.0833 47.2372L44.6531 47.0881C44.2286 46.942 43.7725 47.1835 43.632 47.6219L38.4004 64.1086C38.2598 64.5499 37.8038 64.7884 37.3793 64.6423C36.9548 64.4962 36.7254 64.0221 36.8659 63.5808L42.0975 47.0941C42.238 46.6528 42.0057 46.1786 41.5841 46.0325L41.26 45.9222C40.8355 45.7761 40.3794 46.0176 40.2389 46.456L35.0073 62.9427C34.8668 63.384 34.4107 63.6225 33.9862 63.4764C33.5617 63.3303 33.3323 62.8562 33.4728 62.4149L38.7044 45.9282C38.8449 45.4869 38.6126 45.0127 38.191 44.8666L37.8669 44.7563C37.4424 44.6102 36.9864 44.8517 36.8458 45.2901L31.6142 61.7767C31.4737 62.2181 31.0176 62.4566 30.5931 62.3105C30.1686 62.1644 29.9392 61.6903 30.0797 61.249L35.3113 44.7623C35.4519 44.3209 35.2195 43.8468 34.7979 43.7007L34.3333 43.5427C33.9088 43.3966 33.4527 43.6381 33.3122 44.0764L26.6092 65.1999C25.8032 67.7405 26.9448 70.4599 29.1849 71.6169L12.5923 121.846C12.0904 123.287 12.9594 124.849 14.4107 125.117L16.7225 126.048C18.2197 126.322 18.8335 126.155 19.3039 124.148L33.5818 73.078C35.8706 73.3553 38.1078 71.936 38.8564 69.5743L45.6082 48.2987C45.7487 47.8574 45.5164 47.3833 45.0948 47.2372H45.0833Z" fill="#003936"/>
<path d="M73.6486 44.114L53.6275 37.1516C52.6445 39.9704 50.4944 41.714 48.502 41.1437C46.7698 40.6477 45.6685 38.5477 45.6238 36.0289C44.5224 38.2209 42.6694 39.4744 40.9372 38.9784C39.7176 38.6279 38.8108 37.4843 38.3666 35.9576C37.3309 37.0596 36.0509 37.5794 34.8312 37.2289C32.6023 36.5903 31.4168 33.2992 32.1844 29.8745C32.1975 29.818 32.2107 29.7646 32.2238 29.7081L12.4681 22.8379C11.9135 36.2903 23.5419 59.1258 49.2879 56.3129C75.0339 53.4971 73.6486 44.111 73.6486 44.111V44.114Z" fill="#F3B761"/>
<path d="M73.2222 43.9784L52.992 36.9394C51.9139 39.2297 50.0161 40.5637 48.2489 40.0561C46.5287 39.5632 45.435 37.4766 45.3906 34.9738C44.2968 37.1519 42.4565 38.3974 40.7363 37.9045C39.5251 37.5563 38.6245 36.42 38.1834 34.903C37.1549 35.998 35.8837 36.5144 34.6725 36.1662C32.6207 35.5789 31.4617 32.7249 31.9081 29.6024L12.4635 22.8379C11.9127 36.2045 27.3086 53.6116 52.8771 50.8137C78.4456 48.0158 73.2222 43.9754 73.2222 43.9754V43.9784Z" fill="#FAEDDA"/>
<path d="M52.9612 12.1914C54.1672 12.1914 55.145 11.1666 55.145 9.90235C55.145 8.63813 54.1672 7.61328 52.9612 7.61328C51.7551 7.61328 50.7773 8.63813 50.7773 9.90235C50.7773 11.1666 51.7551 12.1914 52.9612 12.1914Z" fill="#F5D8AF"/>
<path d="M41.3229 15.9513C41.7978 15.9513 42.1828 15.5477 42.1828 15.0499C42.1828 14.552 41.7978 14.1484 41.3229 14.1484C40.8479 14.1484 40.4629 14.552 40.4629 15.0499C40.4629 15.5477 40.8479 15.9513 41.3229 15.9513Z" fill="#F5D8AF"/>
<path d="M47.2362 23.1913C48.166 23.1913 48.9197 22.4013 48.9197 21.4267C48.9197 20.4521 48.166 19.6621 47.2362 19.6621C46.3064 19.6621 45.5527 20.4521 45.5527 21.4267C45.5527 22.4013 46.3064 23.1913 47.2362 23.1913Z" fill="#F5D8AF"/>
</g>
<defs>
<linearGradient id="paint0_linear_1465_80420" x1="-15.8546" y1="103.569" x2="90.8733" y2="-48.5394" gradientUnits="userSpaceOnUse">
<stop stop-color="#F5D8AF"/>
<stop offset="0.83" stop-color="#6DB5AC"/>
<stop offset="1" stop-color="#48A7A0"/>
</linearGradient>
<linearGradient id="paint1_linear_1465_80420" x1="133.838" y1="-150.075" x2="-49.3558" y2="65.5113" gradientUnits="userSpaceOnUse">
<stop stop-color="#065C56"/>
<stop offset="1" stop-color="#00857C"/>
</linearGradient>
<clipPath id="clip0_1465_80420">
<rect width="83" height="87" fill="white"/>
</clipPath>
</defs>
</svg>
