<svg width="83" height="87" viewBox="0 0 83 87" fill="none" xmlns="http://www.w3.org/2000/svg">
<g clip-path="url(#clip0_1465_80438)">
<rect width="80" height="80" fill="#E6E6E6"/>
<g clip-path="url(#clip1_1465_80438)">
<rect width="147.556" height="87" transform="matrix(1 0 0 -1 0 87)" fill="url(#paint0_linear_1465_80438)"/>
<path d="M26.0423 74.4405C26.2242 74.4405 26.3716 74.2859 26.3716 74.0952C26.3716 73.9046 26.2242 73.75 26.0423 73.75C25.8604 73.75 25.7129 73.9046 25.7129 74.0952C25.7129 74.2859 25.8604 74.4405 26.0423 74.4405Z" fill="white"/>
<path d="M58.2441 59.0667C58.3023 59.0667 58.3495 59.0172 58.3495 58.9562C58.3495 58.8952 58.3023 58.8457 58.2441 58.8457C58.1859 58.8457 58.1387 58.8952 58.1387 58.9562C58.1387 59.0172 58.1859 59.0667 58.2441 59.0667Z" fill="white"/>
<path d="M61.2875 47.8108C61.3966 47.8108 61.4851 47.718 61.4851 47.6036C61.4851 47.4892 61.3966 47.3965 61.2875 47.3965C61.1783 47.3965 61.0898 47.4892 61.0898 47.6036C61.0898 47.718 61.1783 47.8108 61.2875 47.8108Z" fill="white"/>
<path d="M9.75675 8.36867C10.4152 8.36867 10.9491 7.80913 10.9491 7.1189C10.9491 6.42868 10.4152 5.86914 9.75675 5.86914C9.09826 5.86914 8.56445 6.42868 8.56445 7.1189C8.56445 7.80913 9.09826 8.36867 9.75675 8.36867Z" fill="white"/>
<path d="M72.5951 47.8805C72.6897 47.8805 72.7664 47.8001 72.7664 47.701C72.7664 47.6018 72.6897 47.5215 72.5951 47.5215C72.5005 47.5215 72.4238 47.6018 72.4238 47.701C72.4238 47.8001 72.5005 47.8805 72.5951 47.8805Z" fill="white"/>
<ellipse cx="27.6658" cy="28.3092" rx="0.988095" ry="1.03571" fill="#FAEDDA"/>
<path d="M186.42 98.7481C140.217 98.7481 -26.6793 98.7481 -26.6793 98.7481C-9.88167 85.9743 8.56277 73.891 30.6302 77.6886C37.5469 44.2005 74.1064 38.3314 94.5271 44.5457C99.1382 36.9505 109.276 27.6014 127.134 27.2838C146.567 26.9386 155.789 35.2243 164.682 50.0695C164.682 50.0695 175.534 42.3983 186.42 43.8552C186.42 62.1529 186.42 98.7481 186.42 98.7481Z" fill="url(#paint1_linear_1465_80438)"/>
<path d="M73.5911 94.8318C73.9267 96.1641 84.5288 95.1824 85.7329 95.0956C90.232 94.7711 94.7101 94.0008 99.0429 92.6812C105.929 90.5857 115.279 86.6024 119.505 80.1353C120.175 79.1082 120.055 78.7238 118.911 78.2702C110.85 75.0616 102.155 74.82 93.8785 77.5244C86.4504 79.9493 77.758 85.2129 74.0053 92.6604C73.6935 93.2791 73.4572 93.8868 73.5322 94.5918L73.5911 94.8318Z" fill="#FAEDDA"/>
<path d="M96.1406 97.1267C96.0174 96.8684 95.9138 96.5979 95.7676 96.3533C94.9541 94.9958 93.9023 93.8245 93.0033 92.5411C90.9178 89.5644 88.927 91.8901 85.6352 90.9702C83.1404 90.2743 80.7591 89.3148 78.5684 87.8643C75.7598 86.0056 72.5689 79.6351 70.3059 77.1339C67.6221 74.1658 64.3501 72.2846 60.6868 71.0133C58.4715 70.245 56.2085 69.6869 53.9406 69.146C52.6685 68.8428 51.3735 68.6327 50.0801 68.4552C48.6898 68.264 47.2896 68.0986 45.8894 68.028C44.0849 67.9384 42.2689 67.8454 40.4677 67.9574C38.5613 68.0763 36.6878 68.1228 34.7929 67.7731C32.0106 67.2597 29.4058 66.2468 26.911 64.9049C24.2388 63.4665 21.8279 61.5888 19.3496 59.8283C16.4374 57.756 13.5499 55.6371 10.3058 54.1539C7.45279 52.8499 4.44366 52.1712 1.35072 51.9145C-1.11936 51.7095 -3.56641 51.4339 -5.97404 50.75H-6.58706L-6.23373 141.914H96.1406V97.1267Z" fill="url(#paint2_linear_1465_80438)"/>
<path d="M31.2889 78.714C31.8346 78.714 32.277 78.2503 32.277 77.6783C32.277 77.1063 31.8346 76.6426 31.2889 76.6426C30.7432 76.6426 30.3008 77.1063 30.3008 77.6783C30.3008 78.2503 30.7432 78.714 31.2889 78.714Z" fill="white"/>
<path d="M65.2147 63.8683C65.7604 63.8683 66.2028 63.4046 66.2028 62.8326C66.2028 62.2606 65.7604 61.7969 65.2147 61.7969C64.6689 61.7969 64.2266 62.2606 64.2266 62.8326C64.2266 63.4046 64.6689 63.8683 65.2147 63.8683Z" fill="white"/>
<path d="M83.6578 78.0237C84.7493 78.0237 85.634 77.0963 85.634 75.9523C85.634 74.8083 84.7493 73.8809 83.6578 73.8809C82.5664 73.8809 81.6816 74.8083 81.6816 75.9523C81.6816 77.0963 82.5664 78.0237 83.6578 78.0237Z" fill="white"/>
<path d="M16.9614 74.2253C17.598 74.2253 18.1141 73.6843 18.1141 73.0169C18.1141 72.3496 17.598 71.8086 16.9614 71.8086C16.3247 71.8086 15.8086 72.3496 15.8086 73.0169C15.8086 73.6843 16.3247 74.2253 16.9614 74.2253Z" fill="white"/>
<path d="M25.1963 65.9402C26.1967 65.9402 27.0078 65.0901 27.0078 64.0414C27.0078 62.9927 26.1967 62.1426 25.1963 62.1426C24.1958 62.1426 23.3848 62.9927 23.3848 64.0414C23.3848 65.0901 24.1958 65.9402 25.1963 65.9402Z" fill="white"/>
<path fill-rule="evenodd" clip-rule="evenodd" d="M8.15234 42.7001C8.15243 42.6998 8.1525 42.6995 7.35322 42.4261C6.55394 42.1526 6.55398 42.1524 6.55401 42.1523L6.55368 42.1534L6.552 42.1587L6.54433 42.1829C6.53729 42.205 6.52641 42.2388 6.51163 42.284C6.48206 42.3745 6.43691 42.5104 6.3758 42.6883C6.25356 43.0441 6.06749 43.5677 5.81453 44.2317C5.30852 45.56 4.5354 47.4482 3.47083 49.6762C1.33993 54.1358 -1.94958 59.9374 -6.58766 65.3329L-5.3384 66.5128C-0.569796 60.9654 2.79882 55.0186 4.97437 50.4655C6.06302 48.1871 6.85522 46.253 7.37621 44.8854C7.63675 44.2015 7.82961 43.6589 7.95792 43.2855C8.02208 43.0987 8.07011 42.9542 8.10241 42.8554C8.11856 42.806 8.13077 42.768 8.13911 42.7419L8.1487 42.7117L8.15132 42.7033L8.15234 42.7001Z" fill="#FAEDDA"/>
<path d="M7.11441 45.3239C9.07304 40.7708 10.8161 36.2354 12.0957 31.3998C12.7871 28.7883 13.3229 26.1204 13.5185 23.4072C13.6586 21.4607 13.54 19.4577 12.8486 17.6468C12.0664 15.5986 10.1155 13.0711 7.73341 13.4843C6.86804 13.6344 6.10583 14.2138 5.56997 14.9417C5.03412 15.6696 4.70152 16.5412 4.45207 17.4241C3.66831 20.1824 3.62674 23.0909 3.70527 25.9461C3.82691 30.3426 4.28887 34.7489 5.29282 39.026C5.56537 40.1897 5.8764 41.3438 6.22593 42.4849L7.11441 45.3239Z" fill="#FAEDDA"/>
<path d="M31.202 43.4324C31.3945 43.61 31.5146 43.844 31.7363 44.0119C33.3654 45.2434 35.1639 46.4668 37.1041 47.064C39.1412 47.6902 41.3016 47.8774 43.4096 47.6014C44.877 47.4094 46.346 46.9833 47.5624 46.102C48.3801 45.5097 49.0653 44.7172 49.5503 43.8085C49.8029 43.3356 50.003 42.8159 50 42.2736C49.9953 41.5828 49.6504 40.9307 49.1854 40.44C47.2899 38.4467 44.2503 38.2176 41.7451 38.6081C39.691 38.9277 37.6877 39.5717 35.7968 40.4659C34.8498 40.913 33.9321 41.4246 33.0467 41.9927C32.9035 42.0863 31.1897 43.4211 31.202 43.4324Z" fill="#FAEDDA"/>
<path d="M41.2565 20.7502C41.2288 20.2466 41.857 19.7511 42.1665 19.5009C43.7679 18.2097 45.3755 16.9137 47.1401 15.8839C48.9047 14.8542 50.8449 14.0924 52.8605 13.9552C53.5349 13.9084 54.2355 13.9391 54.8484 14.2376C55.4612 14.5379 55.9663 15.1609 55.9801 15.8678C55.9924 16.4553 55.6783 16.9928 55.3319 17.4528C53.9507 19.2911 51.8935 20.4855 49.7362 21.0843C47.5774 21.6831 45.3123 21.7267 43.0842 21.5717C42.6146 21.5394 41.5321 21.491 41.3027 20.939C41.275 20.8777 41.2611 20.8131 41.2565 20.7502Z" fill="#FAEDDA"/>
<path d="M47.9239 -3.53474C47.6005 -3.39432 47.2802 -3.2426 46.9646 -3.07959C42.5268 -0.787687 39.398 3.52173 36.5016 7.72624C35.7671 8.7931 35.028 9.87288 34.469 11.056C34.292 11.432 33.77 12.2519 34.0672 12.578C34.4229 12.9686 35.6193 12.5651 36.0227 12.4553C40.9008 11.1334 45.8544 10.0391 50.5862 8.18946C54.5343 6.64485 59.1568 4.51758 61.5712 0.706891C62.1409 -0.190501 62.6798 -1.38971 62.7384 -2.48402C62.8246 -4.1061 61.4403 -4.49508 60.1792 -4.6823C56.071 -5.28917 51.7395 -5.1891 47.9239 -3.53474Z" fill="#FAEDDA"/>
<path d="M17.76 48.4817C17.7708 48.5076 17.7831 48.535 17.7985 48.5608C18.0572 49.0111 19.2705 49.4695 19.7032 49.6132C21.3139 50.149 22.4856 50.304 24.1486 50.6268C25.3697 50.864 26.6416 50.9819 27.8442 50.6574C28.745 50.4137 29.6765 49.7907 29.8074 48.8239C29.889 48.2203 29.6257 47.607 29.2208 47.1712C28.8142 46.7354 28.2799 46.4562 27.7364 46.2431C24.8847 45.1294 21.628 45.6976 18.8902 47.0937C18.4575 47.3148 17.5013 47.8571 17.76 48.4817Z" fill="#FAEDDA"/>
<path d="M32.002 -3.39681C31.6478 -2.02812 31.3414 -0.648138 30.9379 0.710863C29.4151 5.84343 26.7173 10.4288 23.5315 14.6011C22.6245 15.789 21.6837 17.1464 20.4826 18.0228C20.1593 18.2584 19.779 18.4602 19.3894 18.4069C19.3263 18.3988 19.2616 18.3811 19.2108 18.3391C18.8674 18.0534 18.9182 17.445 18.8751 17.0398C18.8027 16.3555 18.7319 15.6695 18.6765 14.9836C18.5656 13.6101 18.4994 12.2333 18.4748 10.8549C18.4101 7.03941 18.5656 3.0996 19.3817 -0.631998C19.4833 -1.09522 19.5942 -1.55683 19.7097 -2.01682C19.7913 -2.34285 19.8529 -3.1547 20.0684 -3.39519C20.07 -3.39681 26.3016 -10.3484 32.002 -3.39681Z" fill="#FAEDDA"/>
<path d="M56.7719 24.2841C54.6962 24.2164 52.6052 24.473 50.5819 24.9782C48.5524 25.4866 46.5845 26.2419 44.6906 27.1555C44.3734 27.3088 39.7308 29.8912 40.1512 30.206C43.9653 33.0579 48.5 34.4541 53.1133 35.1287C56.524 35.6274 60.1487 35.7033 63.2483 34.1264C64.4509 33.5147 65.6042 32.5786 66.0169 31.2454C66.4804 29.7476 65.8706 28.048 64.8004 26.9424C63.7303 25.8368 62.2736 25.2364 60.8154 24.8571C59.4912 24.5117 58.1346 24.3277 56.7719 24.2841Z" fill="#FAEDDA"/>
<path d="M33.393 21.7722C32.3937 21.6544 31.3574 21.8352 30.4012 22.187C26.8581 23.4896 23.9063 26.3205 21.6643 29.3968C19.3346 32.5942 17.416 36.2419 15.8962 39.9299C15.5436 40.7869 15.0755 41.6036 14.8891 42.5269C14.4565 44.6703 19.507 42.8319 20.377 42.5414C25.1304 40.958 29.4542 37.8252 32.7925 33.9677C34.4262 32.081 35.8721 29.9585 36.6389 27.5407C37.3765 25.2117 36.8252 22.8649 34.4201 22.0095C34.0844 21.8901 33.741 21.8126 33.393 21.7722Z" fill="#FAEDDA"/>
<path d="M61.625 11.2704C61.217 11.172 60.9383 10.8314 61.1985 10.486C64.1811 6.50909 68.0199 2.51924 72.4791 0.732527C75.8251 -0.608719 79.9826 -0.385985 82.4894 2.39496C83.886 3.9428 84.1047 6.08299 82.7435 7.75995C82.029 8.63958 81.0482 9.23354 80.0427 9.70645C74.9028 12.1226 67.1129 12.5971 61.625 11.2704Z" fill="#FAEDDA"/>
<path d="M61.7198 18.6975C65.7788 16.5348 73.5009 13.544 76.2233 18.541C76.3465 18.7653 76.4373 19.0123 76.4604 19.2705C76.6852 21.7061 72.306 22.6842 70.6677 22.689C69.1525 22.6938 67.6496 22.2984 66.2284 21.7803C65.6356 21.564 63.0271 19.9936 61.7291 19.3544C61.4673 19.2253 61.4612 18.8363 61.7198 18.6975Z" fill="#FAEDDA"/>
</g>
<path d="M89.2242 -9.78711H-8.30078V96.7879H89.2242V-9.78711Z" fill="#1F576F"/>
<path d="M101.337 -116.382L198.846 -2.33474L5.42191 179.368C5.42191 179.368 14.0591 179.75 30.1832 103.024C46.3041 26.2957 94.6441 14.6887 88.3224 -28.8072C81.9975 -72.3052 101.338 -116.379 101.338 -116.379L101.337 -116.382Z" fill="url(#paint3_linear_1465_80438)"/>
<path d="M36.3198 21.1273C36.3739 21.6156 36.9383 35.7662 37.3331 38.4362C37.395 38.8493 37.6932 39.8618 38.1012 39.6885C38.3488 39.5842 38.7861 39.7498 39.0853 38.3996C39.6856 35.7052 39.9936 24.7529 40.6553 18.2873C40.8092 16.8078 41.8178 15.1017 43.8072 15.3967C45.7963 15.6945 46.0219 17.9476 46.0219 17.9476C45.9758 21.3652 45.499 23.9582 45.1893 27.2977C44.8053 31.4295 44.3966 35.3582 44.0055 39.4807C43.9649 39.8708 44.0639 40.3417 44.3782 40.527C44.9177 40.8481 45.5468 40.3335 45.783 39.822C46.3078 38.6808 46.3637 36.9025 46.5593 35.6166C46.7837 34.131 46.9869 32.643 47.1851 31.1516C47.5541 28.3799 47.8888 25.6015 48.2447 22.8256C48.3485 22.0085 48.4175 21.1649 48.5922 20.3644C48.5922 20.3644 49.2233 17.9949 51.5753 18.4497C53.9276 18.9018 53.5969 22.1853 53.5969 22.1853C53.1337 25.7329 52.5645 30.1452 52.0529 33.6674C51.8571 35.0069 51.6297 36.3398 51.4496 37.6839C51.2968 38.8421 51.0391 40.2083 51.158 41.392C51.2063 41.8853 51.3092 42.5512 51.7435 42.6938C52.3336 42.891 52.6331 42.7532 52.9849 41.7502C53.6717 39.7761 54.9178 33.3294 55.4291 31.3099C55.902 29.427 56.233 26.2449 58.5879 26.6973C60.6818 27.1001 60.1423 30.2442 59.9547 31.8665C59.5636 35.2644 58.416 40.0138 57.9674 42.2068C57.2306 45.7992 54.6597 60.9223 51.5972 65.1004C48.5346 69.2785 46.1502 70.4806 42.993 70.2664C40.167 70.076 37.3311 69.6701 34.5527 68.9438C32.9396 68.5226 31.2715 68.0867 29.8334 67.0681C28.3632 66.0232 28.0171 64.7995 26.8994 63.3128C25.8341 61.8912 24.8403 60.4553 24.2041 58.7361C22.5407 54.2463 21.5655 48.3126 21.0569 42.8834C20.9378 41.6236 20.7395 40.3237 20.7098 39.0572C20.7098 39.0572 20.3815 34.7144 22.8223 34.5224C24.9351 34.355 25.4687 36.931 25.8016 38.3083C26.0501 39.332 26.0435 40.3265 26.3143 41.3442C26.8474 43.3562 27.3808 46.84 29.1155 48.135C30.2112 48.9538 31.2138 47.6671 31.2552 46.4933C31.4951 39.4805 31.1997 24.6051 31.1497 21.2329C31.1497 21.2329 31.5679 18.1173 33.9262 18.1753C36.2845 18.2333 36.3227 21.1248 36.3227 21.1248L36.3201 21.1245L36.3198 21.1273Z" fill="#F3B761"/>
<path d="M29.0869 64.6712C29.0869 64.6712 15.2035 107.973 13.0189 114.302C2.22128 145.621 35.5366 138.504 35.5366 138.504C35.5366 138.504 47.5214 67.7516 48.583 63.2754L29.0842 64.6684L29.0869 64.6712Z" fill="#F3B761"/>
<path d="M12.2618 33.0008C13.7408 26.0833 16.6912 19.9398 21.9851 15.8026C18.0269 14.0994 9.48691 26.5329 12.2618 33.0008Z" fill="#F5D8AF"/>
<path d="M18.3992 33.0159C18.542 29.7114 20.6424 24.6222 23.1089 22.9517C19.3451 23.2187 16.4069 29.788 18.3992 33.0159Z" fill="#F5D8AF"/>
<path d="M67.3746 38.1934C70.778 41.8795 70.1653 51.2441 62.25 57.5895C65.7627 51.78 68.2684 45.7088 67.3746 38.1934Z" fill="#F5D8AF"/>
</g>
<defs>
<linearGradient id="paint0_linear_1465_80438" x1="106.056" y1="126.012" x2="105.332" y2="-168.476" gradientUnits="userSpaceOnUse">
<stop stop-color="#335267"/>
<stop offset="1" stop-color="#3EA39A"/>
</linearGradient>
<linearGradient id="paint1_linear_1465_80438" x1="80.035" y1="32.452" x2="80.035" y2="258.238" gradientUnits="userSpaceOnUse">
<stop stop-color="#65C3BC"/>
<stop offset="1" stop-color="#2B7670"/>
</linearGradient>
<linearGradient id="paint2_linear_1465_80438" x1="44.7768" y1="50.75" x2="44.7956" y2="203.345" gradientUnits="userSpaceOnUse">
<stop stop-color="#F8C06D"/>
<stop offset="1" stop-color="#E07A15"/>
</linearGradient>
<linearGradient id="paint3_linear_1465_80438" x1="130.885" y1="-9.35847" x2="-70.8546" y2="87.5166" gradientUnits="userSpaceOnUse">
<stop stop-color="#F4D7AE"/>
<stop offset="0.06" stop-color="#E8D0AA"/>
<stop offset="0.17" stop-color="#C9BDA1"/>
<stop offset="0.32" stop-color="#989F92"/>
<stop offset="0.49" stop-color="#54777E"/>
<stop offset="0.61" stop-color="#1F576F"/>
</linearGradient>
<clipPath id="clip0_1465_80438">
<rect width="83" height="87" fill="white"/>
</clipPath>
<clipPath id="clip1_1465_80438">
<rect width="147.556" height="87" fill="white"/>
</clipPath>
</defs>
</svg>
