<svg width="83" height="87" viewBox="0 0 83 87" fill="none" xmlns="http://www.w3.org/2000/svg">
<g clip-path="url(#clip0_1465_80511)">
<rect width="80" height="80" fill="#B4B4B4"/>
<path d="M86.1117 -11.9629H-3.11328V96.7871H86.1117V-11.9629Z" fill="url(#paint0_linear_1465_80511)"/>
<path d="M-29.0508 107.663C9.47979 107.625 -46.6075 107.663 -17.788 107.663C-9.1753 57.2962 79.8456 144.609 98.5617 71.232C97.0711 40.2959 89.7308 -36.6355 90.5333 -46.7617C85.8957 84.1416 -3.87518 29.6838 -29.0508 107.663Z" fill="url(#paint1_linear_1465_80511)"/>
<path d="M66.9294 23.2257L19.6035 19.7266L16.8495 60.6517L64.1753 64.1508L66.9294 23.2257Z" fill="#85C3D8"/>
<path d="M66.8838 23.9887C66.6143 23.6787 66.3085 23.4008 65.9738 23.1561L58.4136 22.5971C56.2538 23.6143 54.4986 25.7104 54.1645 29.0489C52.9287 27.9318 51.4882 29.1596 51.6271 30.2695C49.3962 28.3662 45.4188 30.8181 46.2455 33.8411L66.4073 31.0683L66.8838 23.9887Z" fill="#F5F5F5"/>
<path d="M17.0536 57.7032L33.7394 55.4084C33.7873 54.0539 32.4115 52.7595 31.0154 54.3415C30.8219 50.4077 24.7729 46.6576 18.7408 51.3999C18.4384 50.8566 18.041 50.3826 17.5732 49.982L17.0536 57.7032Z" fill="#F5F5F5"/>
<path fill-rule="evenodd" clip-rule="evenodd" d="M36.1273 51.1607C35.3795 47.5554 34.8038 43.8646 34.502 41.5645L35.399 41.4468C35.6985 43.7289 36.2708 47.3973 37.0132 50.9769C37.7593 54.5741 38.6659 58.0228 39.6199 59.9043L38.8129 60.3134C37.7971 58.31 36.8714 54.7482 36.1273 51.1607Z" fill="#FAEDDA"/>
<path fill-rule="evenodd" clip-rule="evenodd" d="M48.0155 47.2088C47.9666 46.8523 47.9203 46.5139 47.8786 46.1965L48.7757 46.0788C48.8163 46.3886 48.862 46.7215 48.9103 47.0743C49.1323 48.6938 49.4117 50.7324 49.5313 52.8859C49.6769 55.5076 49.5891 58.3405 48.8593 60.8514L47.9905 60.5989C48.6788 58.2307 48.7712 55.5155 48.6279 52.9361C48.5106 50.8229 48.2373 48.8281 48.0155 47.2088Z" fill="#FAEDDA"/>
<path d="M18.3623 14.7321L14.5276 64.7117L65.4694 69.0063L69.3032 19.0263L18.3613 14.7318L18.3623 14.7321ZM61.6514 62.4502L19.582 58.9041L22.4661 21.3134L64.5355 24.8595L61.6514 62.4502Z" fill="white"/>
<path d="M38.776 47.2431C38.8952 47.5119 39.3467 48.1803 39.531 48.3853C39.7038 48.5774 39.882 48.7701 39.9054 49.0474C39.9397 49.4638 39.5515 49.7317 39.0754 49.6118C38.7452 49.528 38.4226 49.4268 38.0813 49.5615C37.8916 49.6361 37.7388 49.767 37.6263 49.9248C37.2233 50.4894 36.7707 50.5201 36.2988 50.0104C35.7984 49.4706 35.7087 49.5138 34.86 49.8142C34.7198 49.8636 34.5927 49.9555 34.4514 49.997C34.0197 50.1233 33.813 49.9085 33.9218 49.4396C33.9531 49.3031 34.0369 49.1782 34.1045 49.0527C34.1045 49.0527 34.4894 47.9204 35.0989 47.0919C35.0989 47.0919 37.2322 46.8932 38.1825 46.6679C38.3189 46.6344 38.7619 47.2695 38.776 47.2431Z" fill="#A33029"/>
<path d="M52.0178 52.0391C52.1027 52.2306 52.4245 52.7071 52.5559 52.8532C52.6791 52.9901 52.8061 53.1275 52.8228 53.3251C52.8472 53.622 52.5705 53.8129 52.2312 53.7274C51.9958 53.6677 51.7658 53.5956 51.5226 53.6916C51.3874 53.7447 51.2785 53.8381 51.1982 53.9505C50.911 54.353 50.5884 54.3749 50.252 54.0116C49.8954 53.6268 49.8314 53.6576 49.2265 53.8717C49.1265 53.9069 49.0359 53.9724 48.9352 54.002C48.6275 54.092 48.4801 53.9389 48.5577 53.6047C48.58 53.5074 48.6398 53.4184 48.6879 53.3289C48.6879 53.3289 48.9623 52.5218 49.3968 51.9313C49.3968 51.9313 50.9174 51.7897 51.5947 51.629C51.692 51.6051 52.0077 52.0578 52.0178 52.0391Z" fill="#651E19"/>
<path d="M37.5605 47.5991C38.3633 47.3818 39.0978 47.0114 39.7853 46.5153C40.8466 45.7498 41.5652 44.7045 42.1841 43.5464C42.6266 42.7189 42.907 41.8322 43.1193 40.93C43.4024 39.7238 43.4657 38.4874 43.404 37.2385C43.3011 35.1801 42.7642 33.2594 41.7872 31.4844C40.9251 29.9185 39.7907 28.6195 38.2375 27.7515C36.0092 26.5066 33.8432 26.5516 31.6853 27.9494C30.6489 28.6206 29.8776 29.553 29.2651 30.6099C28.6932 31.5955 28.322 32.6845 28.0806 33.8323C27.7433 35.4363 27.7132 37.0354 27.9369 38.6431C28.0975 39.7991 28.4217 40.9097 28.8763 41.9845C29.4758 43.3999 30.2815 44.6539 31.3815 45.6863C32.3597 46.6053 33.4485 47.3056 34.7672 47.5955C35.3865 47.7318 36.0018 47.7432 36.6213 47.7885L37.5605 47.5991Z" fill="#C93C33"/>
<path d="M51.219 52.3999C51.8291 52.2347 52.3874 51.9532 52.9098 51.5762C53.7164 50.9944 54.2626 50.2 54.7329 49.3198C55.0693 48.6909 55.2824 48.017 55.4437 47.3314C55.6589 46.4146 55.707 45.475 55.6601 44.5258C55.5819 42.9614 55.1738 41.5017 54.4313 40.1527C53.7761 38.9626 52.914 37.9754 51.7335 37.3157C50.0401 36.3695 48.3939 36.4038 46.7539 37.4661C45.9662 37.9762 45.38 38.6848 44.9145 39.488C44.4799 40.2371 44.1978 41.0647 44.0143 41.9371C43.7579 43.1561 43.7351 44.3715 43.9051 45.5933C44.0271 46.4718 44.2735 47.3159 44.619 48.1328C45.0746 49.2084 45.687 50.1615 46.5229 50.9461C47.2664 51.6445 48.0939 52.1768 49.0961 52.3971C49.5668 52.5007 50.0344 52.5094 50.5053 52.5438L51.219 52.3999Z" fill="#A33029"/>
<path d="M13.2929 27.0511L10.6229 26.0432L9.6256 22.7122C9.58706 22.584 9.47047 22.4961 9.33846 22.4961C9.20646 22.4961 9.08987 22.584 9.05133 22.7122L8.05405 26.0432L5.3831 27.0511C5.26555 27.0956 5.1875 27.2097 5.1875 27.338C5.1875 27.4662 5.26555 27.5804 5.3831 27.6248L8.05213 28.6317L9.0494 32.0647C9.08698 32.194 9.20453 32.2838 9.3375 32.2838C9.47047 32.2838 9.58706 32.195 9.6256 32.0647L10.6229 28.6317L13.2919 27.6248C13.4095 27.5804 13.4875 27.4662 13.4875 27.338C13.4875 27.2097 13.4095 27.0956 13.2919 27.0511H13.2929Z" fill="#F3B761"/>
<path d="M80.9254 47.5105C83.2174 47.5105 85.0754 45.563 85.0754 43.1605C85.0754 40.7581 83.2174 38.8105 80.9254 38.8105C78.6334 38.8105 76.7754 40.7581 76.7754 43.1605C76.7754 45.563 78.6334 47.5105 80.9254 47.5105Z" fill="#85C3D8"/>
<path d="M72.5117 57.3979C73.5946 57.3979 74.4725 56.4776 74.4725 55.3425C74.4725 54.2073 73.5946 53.2871 72.5117 53.2871C71.4287 53.2871 70.5508 54.2073 70.5508 55.3425C70.5508 56.4776 71.4287 57.3979 72.5117 57.3979Z" fill="#E99690"/>
</g>
<defs>
<linearGradient id="paint0_linear_1465_80511" x1="28.7528" y1="-66.9421" x2="28.7528" y2="131.225" gradientUnits="userSpaceOnUse">
<stop stop-color="#EE6A63"/>
<stop offset="1" stop-color="#3F7494"/>
</linearGradient>
<linearGradient id="paint1_linear_1465_80511" x1="-45.448" y1="-37.0462" x2="254.672" y2="-37.0462" gradientUnits="userSpaceOnUse">
<stop stop-color="#163B4B"/>
<stop offset="1" stop-color="#651E19" stop-opacity="0"/>
</linearGradient>
<clipPath id="clip0_1465_80511">
<rect width="83" height="87" fill="white"/>
</clipPath>
</defs>
</svg>
