<svg width="250" height="250" viewBox="0 0 250 250" fill="none" xmlns="http://www.w3.org/2000/svg">
<rect width="250" height="250" fill="white"/>
<path d="M225.048 81.0569C225.048 83.1194 224.952 85.1594 224.763 87.1728C240.185 99.9839 250 119.275 250 140.852C250 179.424 218.634 210.692 179.942 210.692C174.875 210.692 169.933 210.156 165.17 209.137C154.153 219.586 139.248 226 122.841 226C107.385 226 93.2635 220.309 82.4682 210.915C75.1275 220.108 63.8058 226 51.1036 226C28.9752 226 11.0365 208.117 11.0365 186.057C11.0365 171.296 19.0686 158.405 31.0135 151.49C12.4878 140.947 0 121.066 0 98.2779C0 64.4615 27.4988 37.0478 61.4203 37.0478C76.7181 37.0478 90.7095 42.6231 101.462 51.8467C112.196 30.5859 134.284 16 159.789 16C195.83 16 225.048 45.127 225.048 81.0569Z" fill="#D9D9D9"/>
<path d="M225.048 81.0569C225.048 83.1194 224.952 85.1594 224.763 87.1728C240.185 99.9839 250 119.275 250 140.852C250 179.424 218.634 210.692 179.942 210.692C174.875 210.692 169.933 210.156 165.17 209.137C154.153 219.586 139.248 226 122.841 226C107.385 226 93.2635 220.309 82.4682 210.915C75.1275 220.108 63.8058 226 51.1036 226C28.9752 226 11.0365 208.117 11.0365 186.057C11.0365 171.296 19.0686 158.405 31.0135 151.49C12.4878 140.947 0 121.066 0 98.2779C0 64.4615 27.4988 37.0478 61.4203 37.0478C76.7181 37.0478 90.7095 42.6231 101.462 51.8467C112.196 30.5859 134.284 16 159.789 16C195.83 16 225.048 45.127 225.048 81.0569Z" fill="url(#paint0_linear_1119_10653)"/>
<mask id="mask0_1119_10653" style="mask-type:alpha" maskUnits="userSpaceOnUse" x="0" y="16" width="250" height="210">
<path d="M225.048 81.0569C225.048 83.1194 224.952 85.1594 224.763 87.1728C240.185 99.9839 250 119.275 250 140.852C250 179.424 218.634 210.692 179.942 210.692C174.875 210.692 169.933 210.156 165.17 209.137C154.153 219.586 139.248 226 122.841 226C107.385 226 93.2635 220.309 82.4682 210.915C75.1275 220.108 63.8058 226 51.1036 226C28.9752 226 11.0365 208.117 11.0365 186.057C11.0365 171.296 19.0686 158.405 31.0135 151.49C12.4878 140.947 0 121.066 0 98.2779C0 64.4615 27.4988 37.0478 61.4203 37.0478C76.7181 37.0478 90.7095 42.6231 101.462 51.8467C112.196 30.5859 134.284 16 159.789 16C195.83 16 225.048 45.127 225.048 81.0569Z" fill="#D9D9D9"/>
<path d="M225.048 81.0569C225.048 83.1194 224.952 85.1594 224.763 87.1728C240.185 99.9839 250 119.275 250 140.852C250 179.424 218.634 210.692 179.942 210.692C174.875 210.692 169.933 210.156 165.17 209.137C154.153 219.586 139.248 226 122.841 226C107.385 226 93.2635 220.309 82.4682 210.915C75.1275 220.108 63.8058 226 51.1036 226C28.9752 226 11.0365 208.117 11.0365 186.057C11.0365 171.296 19.0686 158.405 31.0135 151.49C12.4878 140.947 0 121.066 0 98.2779C0 64.4615 27.4988 37.0478 61.4203 37.0478C76.7181 37.0478 90.7095 42.6231 101.462 51.8467C112.196 30.5859 134.284 16 159.789 16C195.83 16 225.048 45.127 225.048 81.0569Z" fill="url(#paint1_linear_1119_10653)"/>
</mask>
<g mask="url(#mask0_1119_10653)">
<rect x="20.0747" y="27.2473" width="210" height="215.299" rx="7.76437" fill="white"/>
<mask id="path-4-inside-1_1119_10653" fill="white">
<path d="M20.5747 33.1956H229.575V87.5174H20.5747V33.1956Z"/>
</mask>
<path d="M20.5747 33.1956H229.575V87.5174H20.5747V33.1956Z" fill="white"/>
<path d="M85.2699 59.738L87.0878 63.0306L88.9947 59.738H90.7618L87.8252 64.5815V67.9885H86.3251V64.5815L83.4902 59.738H85.2699ZM93.539 61.6449C93.9543 61.6449 94.3441 61.7127 94.7086 61.8483C95.073 61.9754 95.3866 62.1746 95.6493 62.4458C96.2341 63.0391 96.5265 63.8612 96.5265 64.9121C96.5265 65.946 96.2341 66.7596 95.6493 67.3529C95.1239 67.8953 94.4204 68.1665 93.539 68.1665C92.6576 68.1665 91.9457 67.8953 91.4033 67.3529C90.8185 66.7681 90.5261 65.9545 90.5261 64.9121C90.5261 63.8527 90.8185 63.0306 91.4033 62.4458C91.9372 61.9119 92.6491 61.6449 93.539 61.6449ZM95.0264 64.8994C95.0264 64.2468 94.8993 63.7595 94.645 63.4374C94.3908 63.1069 94.0348 62.9416 93.5771 62.9416C93.128 62.9416 92.7593 63.1069 92.4711 63.4374C92.183 63.7595 92.0389 64.2468 92.0389 64.8994C92.0389 65.5519 92.166 66.0435 92.4203 66.374C92.683 66.6961 93.039 66.8571 93.4882 66.8571C93.9373 66.8571 94.306 66.6961 94.5942 66.374C94.8823 66.0435 95.0264 65.5519 95.0264 64.8994ZM102.418 66.8698C102.028 67.6919 101.401 68.1029 100.536 68.1029C99.4428 68.1029 98.7225 67.6749 98.375 66.819C98.2479 66.5223 98.1843 66.1621 98.1843 65.7384V61.7975H99.6844V65.5858C99.6844 65.9926 99.7818 66.2977 99.9768 66.5011C100.172 66.6961 100.409 66.7935 100.689 66.7935C100.977 66.7935 101.218 66.7554 101.413 66.6791C101.608 66.5944 101.778 66.4715 101.922 66.3105C102.235 65.946 102.401 65.4587 102.418 64.8485V61.7975H103.918V67.9885H102.418V66.8698ZM107.782 63.0306C108.155 62.1407 108.714 61.6958 109.46 61.6958C109.604 61.6958 109.786 61.7254 110.006 61.7848L109.981 63.2848C109.744 63.234 109.511 63.2086 109.282 63.2086C108.282 63.2086 107.782 63.8993 107.782 65.2807V67.9885H106.282V61.7975H107.782V63.0306ZM119.121 62.0136C118.985 61.2932 118.477 60.933 117.595 60.933C117.163 60.933 116.824 61.022 116.578 61.2C116.341 61.3695 116.222 61.5771 116.222 61.8229C116.222 62.0687 116.299 62.2636 116.451 62.4077C116.612 62.5433 116.858 62.6704 117.188 62.7891L118.981 63.4882C119.591 63.7256 120.061 64.0264 120.392 64.3908C120.723 64.7468 120.888 65.196 120.888 65.7384C120.888 66.4842 120.608 67.0775 120.049 67.5182C119.489 67.9504 118.693 68.1665 117.659 68.1665C116.743 68.1665 116.002 67.9419 115.434 67.4927C114.798 67.0012 114.464 66.3062 114.43 65.4079H115.917C115.917 66.0859 116.269 66.5139 116.972 66.6918C117.184 66.7512 117.464 66.7808 117.811 66.7808C118.159 66.7808 118.481 66.6961 118.777 66.5266C119.074 66.3486 119.222 66.1155 119.222 65.8274C119.222 65.5307 119.142 65.3062 118.981 65.1536C118.82 64.9926 118.557 64.8443 118.193 64.7087L116.553 64.0603C115.917 63.8145 115.43 63.5264 115.091 63.1959C114.752 62.8653 114.582 62.4077 114.582 61.8229C114.582 61.1364 114.849 60.594 115.383 60.1957C115.926 59.7804 116.659 59.5728 117.582 59.5728C118.515 59.5728 119.231 59.7889 119.731 60.2211C120.239 60.6449 120.532 61.2423 120.608 62.0136H119.121ZM124.393 62.8145C124.816 62.0348 125.435 61.6449 126.249 61.6449C127.062 61.6449 127.66 61.8949 128.041 62.395C128.431 62.895 128.626 63.5561 128.626 64.3781V67.9885H127.126V64.3781C127.126 63.9205 127.016 63.5772 126.795 63.3484C126.575 63.1111 126.266 62.9925 125.867 62.9925C125.469 62.9925 125.126 63.1704 124.838 63.5264C124.558 63.8823 124.41 64.4163 124.393 65.1282V67.9885H122.893V59.2677H124.393V62.8145ZM133.241 61.6449C133.656 61.6449 134.046 61.7127 134.411 61.8483C134.775 61.9754 135.089 62.1746 135.351 62.4458C135.936 63.0391 136.229 63.8612 136.229 64.9121C136.229 65.946 135.936 66.7596 135.351 67.3529C134.826 67.8953 134.123 68.1665 133.241 68.1665C132.36 68.1665 131.648 67.8953 131.105 67.3529C130.521 66.7681 130.228 65.9545 130.228 64.9121C130.228 63.8527 130.521 63.0306 131.105 62.4458C131.639 61.9119 132.351 61.6449 133.241 61.6449ZM134.729 64.8994C134.729 64.2468 134.601 63.7595 134.347 63.4374C134.093 63.1069 133.737 62.9416 133.279 62.9416C132.83 62.9416 132.461 63.1069 132.173 63.4374C131.885 63.7595 131.741 64.2468 131.741 64.8994C131.741 65.5519 131.868 66.0435 132.122 66.374C132.385 66.6961 132.741 66.8571 133.19 66.8571C133.64 66.8571 134.008 66.6961 134.296 66.374C134.584 66.0435 134.729 65.5519 134.729 64.8994ZM139.514 63.0306C139.887 62.1407 140.446 61.6958 141.192 61.6958C141.336 61.6958 141.518 61.7254 141.738 61.7848L141.713 63.2848C141.476 63.234 141.243 63.2086 141.014 63.2086C140.014 63.2086 139.514 63.8993 139.514 65.2807V67.9885H138.014V61.7975H139.514V63.0306ZM146.786 67.836C146.226 68.0563 145.785 68.1665 145.463 68.1665C145.141 68.1665 144.857 68.1284 144.612 68.0521C144.374 67.9758 144.162 67.8614 143.976 67.7088C143.586 67.3614 143.391 66.8825 143.391 66.2723V62.8145H142.527V61.8102H143.391V60.183H144.891V61.8102H146.569V62.8145H144.891V66.2215C144.891 66.73 145.133 66.9842 145.616 66.9842C145.862 66.9842 146.18 66.9164 146.569 66.7808L146.786 67.836ZM150.67 61.6449C151.059 61.6449 151.407 61.7127 151.712 61.8483C152.026 61.9754 152.288 62.1449 152.5 62.3568C152.924 62.7636 153.174 63.2764 153.25 63.8951L151.737 63.9332C151.67 63.662 151.543 63.4374 151.356 63.2594C151.178 63.0814 150.97 62.9925 150.733 62.9925C150.496 62.9925 150.292 63.0306 150.123 63.1069C149.953 63.1747 149.805 63.2848 149.678 63.4374C149.39 63.7934 149.246 64.2849 149.246 64.9121C149.246 65.5392 149.381 66.0138 149.653 66.3359C149.924 66.6495 150.25 66.8062 150.631 66.8062C151.021 66.8062 151.301 66.7173 151.471 66.5393C151.649 66.3528 151.737 66.1028 151.737 65.7892H153.25C153.25 66.4672 153.026 67.0308 152.577 67.48C152.119 67.9377 151.479 68.1665 150.657 68.1665C149.843 68.1665 149.161 67.8699 148.61 67.2766C148.025 66.641 147.733 65.8486 147.733 64.8994C147.733 63.8993 148.025 63.0984 148.61 62.4967C149.161 61.9288 149.848 61.6449 150.67 61.6449ZM159.165 66.8698C158.775 67.6919 158.148 68.1029 157.284 68.1029C156.19 68.1029 155.47 67.6749 155.123 66.819C154.995 66.5223 154.932 66.1621 154.932 65.7384V61.7975H156.432V65.5858C156.432 65.9926 156.529 66.2977 156.724 66.5011C156.919 66.6961 157.157 66.7935 157.436 66.7935C157.724 66.7935 157.966 66.7554 158.161 66.6791C158.356 66.5944 158.525 66.4715 158.669 66.3105C158.983 65.946 159.148 65.4587 159.165 64.8485V61.7975H160.665V67.9885H159.165V66.8698ZM166.512 67.836C165.953 68.0563 165.512 68.1665 165.19 68.1665C164.868 68.1665 164.584 68.1284 164.339 68.0521C164.101 67.9758 163.889 67.8614 163.703 67.7088C163.313 67.3614 163.118 66.8825 163.118 66.2723V62.8145H162.254V61.8102H163.118V60.183H164.618V61.8102H166.296V62.8145H164.618V66.2215C164.618 66.73 164.86 66.9842 165.343 66.9842C165.589 66.9842 165.906 66.9164 166.296 66.7808L166.512 67.836Z" fill="#161616"/>
<path d="M229.575 87.5174V88.4254H230.483V87.5174H229.575ZM20.5747 87.5174H19.6667V88.4254H20.5747V87.5174ZM228.667 33.1956V87.5174H230.483V33.1956H228.667ZM229.575 86.6093H20.5747V88.4254H229.575V86.6093ZM21.4828 87.5174V33.1956H19.6667V87.5174H21.4828Z" fill="#E6E6E6" mask="url(#path-4-inside-1_1119_10653)"/>
<path d="M104.673 123.987C105.399 122.65 106.46 121.982 107.855 121.982C109.25 121.982 110.274 122.41 110.928 123.267C111.596 124.125 111.93 125.258 111.93 126.667V132.856H109.359V126.667C109.359 125.883 109.17 125.294 108.792 124.902C108.414 124.495 107.884 124.292 107.201 124.292C106.518 124.292 105.93 124.597 105.436 125.207C104.956 125.817 104.702 126.733 104.673 127.953V132.856H102.101V117.906H104.673V123.987ZM119.388 121.982C120.1 121.982 120.768 122.098 121.393 122.33C122.018 122.548 122.555 122.89 123.006 123.355C124.008 124.372 124.509 125.781 124.509 127.583C124.509 129.355 124.008 130.75 123.006 131.767C122.105 132.697 120.899 133.162 119.388 133.162C117.877 133.162 116.657 132.697 115.727 131.767C114.724 130.764 114.223 129.37 114.223 127.583C114.223 125.766 114.724 124.357 115.727 123.355C116.642 122.439 117.863 121.982 119.388 121.982ZM121.938 127.561C121.938 126.442 121.72 125.607 121.284 125.055C120.848 124.488 120.238 124.205 119.453 124.205C118.683 124.205 118.051 124.488 117.557 125.055C117.063 125.607 116.816 126.442 116.816 127.561C116.816 128.679 117.034 129.522 117.47 130.089C117.921 130.641 118.531 130.917 119.301 130.917C120.071 130.917 120.703 130.641 121.197 130.089C121.691 129.522 121.938 128.679 121.938 127.561ZM127.115 117.906H129.687V132.856H127.115V117.906ZM136.767 126.667C137.61 126.667 138.583 126.805 139.687 127.081V126.035C139.687 125.294 139.535 124.749 139.23 124.401C138.939 124.038 138.452 123.856 137.769 123.856C137.101 123.856 136.585 123.994 136.222 124.27C135.859 124.531 135.677 124.909 135.677 125.403H132.866C132.866 124.197 133.287 123.326 134.13 122.788C134.987 122.25 136.179 121.982 137.704 121.982C139.883 121.982 141.293 122.744 141.932 124.27C142.15 124.793 142.259 125.41 142.259 126.122V132.856H140.014L139.818 131.44C139.135 132.588 138.089 133.162 136.68 133.162C135.314 133.162 134.253 132.827 133.498 132.159C132.801 131.52 132.452 130.713 132.452 129.74C132.452 128.752 132.837 127.997 133.607 127.474C134.377 126.936 135.43 126.667 136.767 126.667ZM139.687 128.716C138.83 128.483 138.031 128.367 137.29 128.367C135.895 128.367 135.198 128.832 135.198 129.762C135.198 130.154 135.358 130.496 135.677 130.786C135.997 131.062 136.505 131.2 137.203 131.2C137.915 131.2 138.496 130.968 138.946 130.503C139.411 130.023 139.658 129.428 139.687 128.716ZM145.4 118.386H148.19L147.885 128.084H145.684L145.4 118.386ZM146.795 133.053C146.272 133.053 145.843 132.893 145.509 132.573C145.175 132.254 145.008 131.847 145.008 131.353C145.008 130.859 145.175 130.445 145.509 130.111C145.843 129.776 146.272 129.609 146.795 129.609C147.318 129.609 147.754 129.776 148.103 130.111C148.451 130.445 148.626 130.859 148.626 131.353C148.626 131.847 148.451 132.254 148.103 132.573C147.754 132.893 147.318 133.053 146.795 133.053Z" fill="#161616"/>
<path d="M102.537 148.224C101.409 148.224 100.494 149.159 100.494 150.263C100.494 150.603 100.622 151.092 100.813 151.368L103.921 148.777C103.58 148.479 102.963 148.246 102.537 148.224ZM109.348 148.224C108.901 148.246 108.283 148.479 107.943 148.777L111.05 151.368C111.242 151.092 111.369 150.603 111.391 150.263C111.391 149.159 110.454 148.224 109.348 148.224ZM105.942 149.584C103.303 149.584 101.175 151.729 101.175 154.342V154.363C101.175 155.234 101.601 156.508 102.112 157.188L101.26 158.059C101.218 158.101 101.175 158.208 101.175 158.293C101.175 158.377 101.218 158.484 101.26 158.526L101.75 159.015C101.792 159.057 101.899 159.121 101.984 159.121C102.069 159.121 102.175 159.057 102.218 159.015L103.091 158.165C103.772 158.675 105.049 159.121 105.942 159.121C106.815 159.121 108.092 158.675 108.794 158.165L109.646 159.015C109.688 159.057 109.795 159.1 109.88 159.1C109.965 159.1 110.071 159.057 110.114 159.015L110.603 158.526C110.646 158.484 110.71 158.377 110.71 158.293C110.71 158.208 110.646 158.101 110.603 158.059L109.752 157.188C110.263 156.508 110.71 155.234 110.71 154.363V154.342C110.71 151.729 108.56 149.584 105.942 149.584ZM107.858 155.786L107.432 156.317C107.368 156.381 107.241 156.445 107.156 156.445C107.092 156.445 106.985 156.402 106.943 156.381L105.581 155.276C105.389 155.128 105.261 154.83 105.261 154.618V151.963C105.261 151.793 105.41 151.623 105.602 151.623H106.283C106.453 151.623 106.623 151.793 106.623 151.963V154.363L107.794 155.319C107.858 155.361 107.922 155.489 107.922 155.574C107.922 155.637 107.879 155.744 107.858 155.786Z" fill="#B4B4B4"/>
<path d="M120.595 157.944H124.637V159.121H119.309V157.911C119.309 157.061 119.61 156.444 120.213 156.059C120.417 155.928 120.653 155.812 120.922 155.71L122.371 155.155C122.69 155.031 122.923 154.878 123.068 154.697C123.221 154.508 123.297 154.276 123.297 153.999C123.297 153.723 123.199 153.495 123.003 153.313C122.807 153.124 122.527 153.03 122.164 153.03C121.801 153.03 121.499 153.117 121.259 153.291C121.027 153.466 120.892 153.723 120.856 154.065H119.429C119.443 153.375 119.708 152.834 120.224 152.441C120.696 152.085 121.332 151.907 122.131 151.907C122.865 151.907 123.471 152.103 123.951 152.496C124.437 152.903 124.681 153.4 124.681 153.989C124.681 154.577 124.532 155.049 124.234 155.405C123.943 155.754 123.489 156.048 122.872 156.288L121.401 156.854C121.118 156.963 120.911 157.087 120.78 157.225C120.656 157.356 120.595 157.526 120.595 157.737V157.944ZM133.729 154.828C134.071 154.065 134.67 153.683 135.527 153.683C136.159 153.683 136.65 153.898 136.998 154.326C137.332 154.733 137.5 155.3 137.5 156.026V159.121H136.203V156.026C136.203 155.634 136.108 155.34 135.92 155.144C135.731 154.94 135.465 154.839 135.124 154.839C134.783 154.839 134.503 154.987 134.285 155.285C134.067 155.583 133.951 156.033 133.936 156.636V159.121H132.651V156.026C132.651 155.634 132.556 155.34 132.367 155.144C132.178 154.94 131.913 154.839 131.572 154.839C131.23 154.839 130.936 154.991 130.689 155.296C130.449 155.601 130.322 156.059 130.308 156.669V159.121H129.022V153.825H130.144L130.286 154.74C130.635 154.036 131.194 153.683 131.964 153.683C132.407 153.683 132.774 153.785 133.065 153.989C133.362 154.192 133.584 154.472 133.729 154.828ZM139.474 153.814H140.76V159.121H139.474V153.814ZM139.322 152.114C139.322 151.882 139.391 151.7 139.529 151.57C139.667 151.432 139.863 151.363 140.117 151.363C140.364 151.363 140.557 151.432 140.695 151.57C140.84 151.7 140.913 151.882 140.913 152.114C140.913 152.347 140.84 152.532 140.695 152.67C140.557 152.801 140.364 152.866 140.117 152.866C139.863 152.866 139.667 152.801 139.529 152.67C139.391 152.532 139.322 152.347 139.322 152.114ZM144.205 154.74C144.553 154.036 145.113 153.683 145.883 153.683C146.536 153.683 147.027 153.898 147.354 154.326C147.688 154.755 147.855 155.322 147.855 156.026V159.121H146.569V156.026C146.569 155.634 146.475 155.34 146.286 155.144C146.097 154.94 145.832 154.839 145.49 154.839C145.149 154.839 144.855 154.991 144.608 155.296C144.368 155.601 144.241 156.059 144.226 156.669V159.121H142.941V153.825H144.063L144.205 154.74Z" fill="#707070"/>
<rect x="35.1035" y="199.989" width="179.943" height="27.5287" rx="3.63218" fill="#276A87"/>
<path d="M97.459 210.181C98.2581 210.181 98.8792 210.377 99.3223 210.769C99.7727 211.154 99.9979 211.71 99.9979 212.437C99.9979 213.156 99.7727 213.712 99.3223 214.104C98.8792 214.489 98.2581 214.681 97.459 214.681H96.2604V217.253H94.9637V210.181H97.459ZM97.459 213.559C97.8585 213.559 98.16 213.454 98.3634 213.243C98.5668 213.032 98.6685 212.764 98.6685 212.437C98.6685 212.102 98.5668 211.83 98.3634 211.619C98.16 211.401 97.8585 211.293 97.459 211.293H96.2604V213.559H97.459ZM108.396 212.349C108.396 212.851 108.254 213.279 107.971 213.635C107.688 213.991 107.281 214.238 106.751 214.376L108.647 217.253H106.969L105.41 214.496H104.43V217.253H103.144V210.181H105.759C106.595 210.181 107.245 210.381 107.71 210.78C108.167 211.165 108.396 211.688 108.396 212.349ZM105.639 213.635C106.111 213.635 106.467 213.53 106.707 213.319C106.947 213.101 107.067 212.818 107.067 212.469C107.067 212.113 106.958 211.83 106.74 211.619C106.522 211.401 106.195 211.293 105.759 211.293H104.43V213.635H105.639ZM113.607 210.181H115.22L117.541 217.253H116.179L115.688 215.727H113.062L112.561 217.253H111.199L113.607 210.181ZM113.389 214.758H115.372L114.392 211.717L113.389 214.758ZM123.149 210.039C123.584 210.039 123.962 210.094 124.282 210.203C124.601 210.305 124.877 210.45 125.11 210.639C125.568 211.009 125.865 211.529 126.003 212.197L124.63 212.448C124.514 212.077 124.333 211.779 124.086 211.554C123.846 211.322 123.544 211.205 123.181 211.205C122.687 211.205 122.288 211.412 121.983 211.826C121.656 212.277 121.492 212.902 121.492 213.701C121.492 214.492 121.638 215.114 121.928 215.564C122.219 216.007 122.615 216.229 123.116 216.229C123.617 216.229 123.995 216.109 124.249 215.869C124.503 215.622 124.63 215.306 124.63 214.921H126.014C126.014 215.713 125.76 216.327 125.252 216.763C124.75 217.191 124.06 217.405 123.181 217.405C122.244 217.405 121.5 217.079 120.947 216.425C120.388 215.756 120.108 214.848 120.108 213.701C120.108 212.538 120.395 211.63 120.969 210.977C121.521 210.352 122.248 210.039 123.149 210.039ZM128.384 210.181H134.05V211.293H131.86V217.253H130.574V211.293H128.384V210.181ZM136.947 210.181H138.233V217.253H136.947V210.181ZM144.612 210.039C145.048 210.039 145.425 210.094 145.745 210.203C146.065 210.305 146.341 210.45 146.573 210.639C147.031 211.009 147.329 211.529 147.467 212.197L146.094 212.448C145.977 212.077 145.796 211.779 145.549 211.554C145.309 211.322 145.008 211.205 144.644 211.205C144.15 211.205 143.751 211.412 143.446 211.826C143.119 212.277 142.956 212.902 142.956 213.701C142.956 214.492 143.101 215.114 143.391 215.564C143.682 216.007 144.078 216.229 144.579 216.229C145.08 216.229 145.458 216.109 145.712 215.869C145.967 215.622 146.094 215.306 146.094 214.921H147.478C147.478 215.713 147.223 216.327 146.715 216.763C146.214 217.191 145.523 217.405 144.644 217.405C143.707 217.405 142.963 217.079 142.411 216.425C141.851 215.756 141.572 214.848 141.572 213.701C141.572 212.538 141.859 211.63 142.432 210.977C142.985 210.352 143.711 210.039 144.612 210.039ZM150.784 210.181H155.339V211.293H152.07V213.156H155.132V214.267H152.07V216.131H155.339V217.253H150.784V210.181Z" fill="white"/>
<g clip-path="url(#clip0_1119_10653)">
<path d="M126.271 45.1818C136.401 45.1818 144.614 36.9696 144.614 26.8393C144.614 16.709 136.401 8.49674 126.271 8.49674C116.141 8.49674 107.929 16.709 107.929 26.8393C107.929 36.9696 116.141 45.1818 126.271 45.1818Z" fill="#E6E6E6" stroke="white" stroke-width="1.81609"/>
<mask id="mask1_1119_10653" style="mask-type:alpha" maskUnits="userSpaceOnUse" x="108" y="9" width="36" height="36">
<ellipse cx="126.271" cy="26.8393" rx="17.4345" ry="17.4345" fill="#48A8A1"/>
</mask>
<g mask="url(#mask1_1119_10653)">
<path d="M142.464 34.1435C140.712 36.8571 140.058 39.4999 141.511 40.4401C142.965 41.3804 145.151 39.6262 146.903 36.9126C148.656 34.199 150.05 31.1483 148.596 30.2081C147.145 29.2678 144.216 31.4318 142.464 34.1435Z" fill="#163B4B"/>
<path d="M144.159 36.5181C142.407 39.2317 141.753 41.8745 143.206 42.8148C144.66 43.7551 146.846 42.0009 148.598 39.2873C150.35 36.5736 151.745 33.523 150.291 32.5827C148.837 31.6424 145.909 33.8045 144.159 36.5181Z" fill="#1F576F"/>
<path d="M124.082 36.2022C123.189 37.5408 120.463 40.8615 119.937 43.6689C119.549 45.7391 120.345 47.6905 121.085 47.6905C121.578 47.6905 121.085 46.1585 122.382 45.042C122.317 46.4955 122.366 50.2433 124.337 52.6696C126.823 55.7337 128.545 56.1167 129.119 55.9252C129.692 55.7337 130.457 54.2017 130.457 54.2017L130.444 54.1059C131.479 54.4161 132.575 54.5847 133.709 54.5847C134.916 54.5847 136.079 54.3951 137.171 54.0465C137.298 54.284 138.097 55.749 138.625 55.9252C139.199 56.1167 140.92 55.7337 143.407 52.6696C144.442 51.3942 146.525 47.6905 146.525 47.6905C146.196 47.252 145.805 46.0014 145.532 45.0095C146.368 46.1815 147.263 47.2635 148.437 47.499C149.394 47.6905 150.293 47.5162 150.159 45.7755C149.975 43.397 145.916 38.2187 143.082 35.8173C140.595 33.7107 143.082 33.9022 142.89 27.3911C142.747 22.5288 138.105 17.4683 133.245 17.4683C128.385 17.4683 119.494 25.6216 123.38 28.5401C124.145 29.1146 124.893 29.6929 125.102 30.8381C125.484 32.9447 124.975 34.8655 124.082 36.2022Z" fill="#276A87"/>
<path d="M138.109 31.6041C137.594 34.9573 138.682 46.1584 129.31 45.7754C126.249 45.6509 123.763 43.2897 123.763 40.2218C123.763 37.1539 126.856 35.4568 125.484 31.4126C124.907 29.3864 122.059 28.0919 122.806 27.774C124.807 26.9237 129.23 16.1789 133.077 16.8798C135.181 17.2628 140.461 19.4876 141.169 23.5609C141.934 27.9655 138.491 29.1145 138.109 31.6041Z" fill="white"/>
<path d="M141.552 24.6141C141.552 28.0516 139.438 30.455 136.005 30.455C130.303 30.455 130.219 24.6141 127.697 24.2769C127.697 20.8394 129.386 15.9926 132.753 16.6667C136.578 17.4327 141.552 20.4968 141.552 24.6141Z" fill="#CAE4ED"/>
<path d="M127.206 25.8589C127.206 26.5464 125.704 28.3485 123.38 28.3485C113.434 24.5184 106.739 26.4334 106.548 26.0504C105.86 24.6724 114.529 23.6481 116.685 23.6045C119.025 23.6045 121.647 23.5436 123.572 24.1354C124.262 24.3479 126.661 23.2181 127.397 23.5609C128.134 23.9036 127.206 25.7153 127.206 25.8589Z" fill="#D6801C"/>
<path d="M112.711 15.3492C108.162 16.9138 103.839 20.5638 104.413 23.4364C104.744 25.091 114.417 21.7091 122.738 24.1354C123.828 24.4533 125.676 24.71 127.588 24.3269C125.091 26.4625 119.627 24.3761 115.538 24.1354C111.449 23.8947 105.773 24.4993 106.548 26.0505C106.739 26.4335 113.434 24.5184 123.38 28.3485C124.702 28.3485 126.25 28.157 127.206 26.242C128.105 24.4399 128.545 22.4119 132.753 16.6668C125.293 13.9857 118.698 13.2906 112.711 15.3492Z" fill="#F3B761"/>
<path d="M112.65 23.3271C108.825 23.7101 103.87 24.8497 103.87 23.3694C103.87 21.889 105.018 17.7956 113.434 15.1145C110.947 17.6041 109.016 20.263 112.65 23.3271Z" fill="#854400"/>
<path d="M133.679 25.6369C134.841 25.6369 135.783 24.6938 135.783 23.5304C135.783 22.367 134.841 21.4238 133.679 21.4238C132.517 21.4238 131.575 22.367 131.575 23.5304C131.575 24.6938 132.517 25.6369 133.679 25.6369Z" fill="#161616"/>
<path d="M132.818 23.9134C133.24 23.9134 133.583 23.5704 133.583 23.1474C133.583 22.7243 133.24 22.3813 132.818 22.3813C132.395 22.3813 132.053 22.7243 132.053 23.1474C132.053 23.5704 132.395 23.9134 132.818 23.9134Z" fill="white"/>
</g>
<mask id="mask2_1119_10653" style="mask-type:alpha" maskUnits="userSpaceOnUse" x="103" y="9" width="41" height="22">
<rect x="103.17" y="9.40479" width="40.5352" height="20.9214" fill="#C4C4C4"/>
</mask>
<g mask="url(#mask2_1119_10653)">
<path d="M142.464 34.1435C140.712 36.8571 140.058 39.4999 141.511 40.4401C142.965 41.3804 145.151 39.6262 146.903 36.9126C148.656 34.199 150.05 31.1483 148.596 30.2081C147.145 29.2678 144.216 31.4318 142.464 34.1435Z" fill="#163B4B"/>
<path d="M124.082 36.2022C123.189 37.5408 120.463 40.8615 119.937 43.6689C119.549 45.7391 120.345 47.6905 121.085 47.6905C121.578 47.6905 121.085 46.1585 122.382 45.042C122.317 46.4955 122.366 50.2433 124.337 52.6696C126.823 55.7337 128.545 56.1167 129.119 55.9252C129.692 55.7337 130.457 54.2017 130.457 54.2017L130.444 54.1059C131.479 54.4161 132.575 54.5847 133.709 54.5847C134.916 54.5847 136.079 54.3951 137.171 54.0465C137.298 54.284 138.097 55.749 138.625 55.9252C139.199 56.1167 140.92 55.7337 143.407 52.6696C144.442 51.3942 146.525 47.6905 146.525 47.6905C146.196 47.252 145.805 46.0014 145.532 45.0095C146.368 46.1815 147.263 47.2635 148.437 47.499C149.394 47.6905 150.293 47.5162 150.159 45.7755C149.975 43.397 145.916 38.2187 143.082 35.8173C140.595 33.7107 143.082 33.9022 142.89 27.3911C142.747 22.5288 138.105 17.4683 133.245 17.4683C128.385 17.4683 119.494 25.6216 123.38 28.5401C124.145 29.1146 124.893 29.6929 125.102 30.8381C125.484 32.9447 124.975 34.8655 124.082 36.2022Z" fill="#276A87"/>
<path d="M138.109 31.6041C137.594 34.9573 138.682 46.1584 129.31 45.7754C126.249 45.6509 123.763 43.2897 123.763 40.2218C123.763 37.1539 126.856 35.4568 125.484 31.4126C124.907 29.3864 122.059 28.0919 122.806 27.774C124.807 26.9237 129.23 16.1789 133.077 16.8798C135.181 17.2628 140.461 19.4876 141.169 23.5609C141.934 27.9655 138.491 29.1145 138.109 31.6041Z" fill="white"/>
<path d="M141.552 24.6141C141.552 28.0516 139.438 30.455 136.005 30.455C130.303 30.455 130.219 24.6141 127.697 24.2769C127.697 20.8394 129.386 15.9926 132.753 16.6667C136.578 17.4327 141.552 20.4968 141.552 24.6141Z" fill="#CAE4ED"/>
<path d="M127.206 25.8589C127.206 26.5464 125.704 28.3485 123.38 28.3485C113.434 24.5184 106.739 26.4334 106.548 26.0504C105.86 24.6724 114.529 23.6481 116.685 23.6045C119.025 23.6045 121.647 23.5436 123.572 24.1354C124.262 24.3479 126.661 23.2181 127.397 23.5609C128.134 23.9036 127.206 25.7153 127.206 25.8589Z" fill="#D6801C"/>
<path d="M112.711 15.3492C108.162 16.9138 103.839 20.5638 104.413 23.4364C104.744 25.091 114.417 21.7091 122.738 24.1354C123.828 24.4533 125.676 24.71 127.588 24.3269C125.091 26.4625 119.627 24.3761 115.538 24.1354C111.449 23.8947 105.773 24.4993 106.548 26.0505C106.739 26.4335 113.434 24.5184 123.38 28.3485C124.702 28.3485 126.25 28.157 127.206 26.242C128.105 24.4399 128.545 22.4119 132.753 16.6668C125.293 13.9857 118.698 13.2906 112.711 15.3492Z" fill="#F3B761"/>
<path d="M112.65 23.3271C108.825 23.7101 103.87 24.8497 103.87 23.3694C103.87 21.889 105.018 17.7956 113.434 15.1145C110.947 17.6041 109.016 20.263 112.65 23.3271Z" fill="#854400"/>
<path d="M133.679 25.6369C134.841 25.6369 135.783 24.6938 135.783 23.5304C135.783 22.367 134.841 21.4238 133.679 21.4238C132.517 21.4238 131.575 22.367 131.575 23.5304C131.575 24.6938 132.517 25.6369 133.679 25.6369Z" fill="#161616"/>
<path d="M132.818 23.9134C133.24 23.9134 133.583 23.5704 133.583 23.1474C133.583 22.7243 133.24 22.3813 132.818 22.3813C132.395 22.3813 132.053 22.7243 132.053 23.1474C132.053 23.5704 132.395 23.9134 132.818 23.9134Z" fill="white"/>
</g>
</g>
<circle cx="140.437" cy="42.2761" r="7.26437" fill="white"/>
<circle cx="140.528" cy="42.276" r="6.35632" fill="#9ACBAE"/>
<path fill-rule="evenodd" clip-rule="evenodd" d="M142.783 46.1747C142.912 46.078 143.041 45.9491 143.17 45.8203C143.395 45.5947 143.621 45.1114 143.621 44.757C143.621 44.5314 143.492 44.2092 143.331 44.0803L142.88 43.6292C142.686 43.4359 142.429 43.307 142.139 43.307H140.012C139.865 43.2481 139.704 43.0277 139.542 42.8057C139.35 42.542 139.156 42.2759 138.981 42.2759C138.627 42.2759 138.304 42.2115 137.982 42.0504L137.628 41.8893C137.499 41.8249 137.434 41.696 137.434 41.5349C137.434 41.3738 137.531 41.2127 137.692 41.1804L138.691 40.826H138.852C138.949 40.826 139.11 40.8582 139.174 40.9227L139.497 41.2127C139.529 41.2449 139.593 41.2449 139.658 41.2449H139.851C140.044 41.2449 140.141 41.0516 140.077 40.8904L139.561 39.8916C139.561 39.8755 139.553 39.8513 139.545 39.8272C139.537 39.803 139.529 39.7788 139.529 39.7627C139.529 39.6983 139.561 39.6338 139.625 39.5694L139.948 39.2794C139.98 39.215 140.044 39.1827 140.109 39.1827H140.399C140.463 39.1827 140.56 39.1505 140.592 39.1183L140.85 38.8605C140.947 38.7639 140.947 38.6028 140.85 38.5061L140.689 38.345C140.592 38.2483 140.592 38.0872 140.689 37.9906L141.043 37.6361L141.172 37.5072C141.365 37.3139 141.365 36.9595 141.172 36.7662L140.329 35.9227C140.395 35.9207 140.461 35.9197 140.528 35.9197C143.017 35.9197 145.172 37.3503 146.215 39.4342L145.844 39.6338C145.715 39.6983 145.619 39.7627 145.554 39.8916L144.91 40.826C144.845 40.9549 144.781 41.116 144.781 41.2449C144.781 41.406 144.845 41.5671 144.91 41.696L145.49 42.5659C145.619 42.727 145.78 42.8237 145.973 42.8881L146.832 43.0954C146.489 45.7554 144.503 47.9004 141.924 48.4784L142.461 47.0769C142.525 46.8835 142.558 46.7224 142.59 46.5291C142.622 46.4002 142.686 46.2713 142.783 46.1747ZM140.528 48.6323V47.8502C140.56 47.4313 140.27 46.6902 139.787 46.2069C139.593 46.0136 139.497 45.7558 139.497 45.4658V44.4348C139.497 44.0803 139.271 43.7259 138.949 43.5326C138.498 43.2748 137.821 42.9204 137.37 42.6948C137.016 42.5015 136.661 42.2759 136.371 41.986H136.339C136.146 41.8249 135.888 41.5026 135.759 41.3093C135.456 40.8853 135.011 40.2334 134.691 39.7553C134.357 40.5281 134.171 41.3804 134.171 42.276C134.171 45.7865 137.017 48.6323 140.528 48.6323ZM138.04 36.4247L138.723 36.7662C139.078 36.9273 139.497 36.7017 139.497 36.3151V36.0029C138.988 36.0858 138.501 36.2289 138.04 36.4247Z" fill="#276A87"/>
<rect x="20.0747" y="27.2473" width="210" height="215.299" rx="7.76437" stroke="#E6E6E6"/>
</g>
<path d="M20.5747 33.1956C20.5747 30.1866 23.014 27.7473 26.023 27.7473H224.126C227.135 27.7473 229.575 30.1866 229.575 33.1956V33.1956H20.5747V33.1956Z" fill="#276A87"/>
<mask id="mask3_1119_10653" style="mask-type:alpha" maskUnits="userSpaceOnUse" x="4" y="6" width="242" height="164">
<rect x="4.08154" y="6" width="241.837" height="163.482" fill="#D9D9D9"/>
</mask>
<g mask="url(#mask3_1119_10653)">
<g clip-path="url(#clip1_1119_10653)" filter="url(#filter0_d_1119_10653)">
<rect x="20.0747" y="27.2473" width="210" height="215.299" rx="7.76437" fill="white"/>
<mask id="path-41-outside-2_1119_10653" maskUnits="userSpaceOnUse" x="19.5747" y="33.1956" width="211" height="56" fill="black">
<rect fill="white" x="19.5747" y="33.1956" width="211" height="56"/>
<path d="M20.5747 33.1956H229.575V87.5174H20.5747V33.1956Z"/>
</mask>
<path d="M20.5747 33.1956H229.575V87.5174H20.5747V33.1956Z" fill="white"/>
<path d="M85.2699 59.738L87.0878 63.0306L88.9947 59.738H90.7618L87.8252 64.5815V67.9885H86.3251V64.5815L83.4902 59.738H85.2699ZM93.539 61.6449C93.9543 61.6449 94.3441 61.7127 94.7086 61.8483C95.073 61.9754 95.3866 62.1746 95.6493 62.4458C96.2341 63.0391 96.5265 63.8612 96.5265 64.9121C96.5265 65.946 96.2341 66.7596 95.6493 67.3529C95.1239 67.8953 94.4204 68.1665 93.539 68.1665C92.6576 68.1665 91.9457 67.8953 91.4033 67.3529C90.8185 66.7681 90.5261 65.9545 90.5261 64.9121C90.5261 63.8527 90.8185 63.0306 91.4033 62.4458C91.9372 61.9119 92.6491 61.6449 93.539 61.6449ZM95.0264 64.8994C95.0264 64.2468 94.8993 63.7595 94.645 63.4374C94.3908 63.1069 94.0348 62.9416 93.5771 62.9416C93.128 62.9416 92.7593 63.1069 92.4711 63.4374C92.183 63.7595 92.0389 64.2468 92.0389 64.8994C92.0389 65.5519 92.166 66.0435 92.4203 66.374C92.683 66.6961 93.039 66.8571 93.4882 66.8571C93.9373 66.8571 94.306 66.6961 94.5942 66.374C94.8823 66.0435 95.0264 65.5519 95.0264 64.8994ZM102.418 66.8698C102.028 67.6919 101.401 68.1029 100.536 68.1029C99.4428 68.1029 98.7225 67.6749 98.375 66.819C98.2479 66.5223 98.1843 66.1621 98.1843 65.7384V61.7975H99.6844V65.5858C99.6844 65.9926 99.7818 66.2977 99.9768 66.5011C100.172 66.6961 100.409 66.7935 100.689 66.7935C100.977 66.7935 101.218 66.7554 101.413 66.6791C101.608 66.5944 101.778 66.4715 101.922 66.3105C102.235 65.946 102.401 65.4587 102.418 64.8485V61.7975H103.918V67.9885H102.418V66.8698ZM107.782 63.0306C108.155 62.1407 108.714 61.6958 109.46 61.6958C109.604 61.6958 109.786 61.7254 110.006 61.7848L109.981 63.2848C109.744 63.234 109.511 63.2086 109.282 63.2086C108.282 63.2086 107.782 63.8993 107.782 65.2807V67.9885H106.282V61.7975H107.782V63.0306ZM119.121 62.0136C118.985 61.2932 118.477 60.933 117.595 60.933C117.163 60.933 116.824 61.022 116.578 61.2C116.341 61.3695 116.222 61.5771 116.222 61.8229C116.222 62.0687 116.299 62.2636 116.451 62.4077C116.612 62.5433 116.858 62.6704 117.188 62.7891L118.981 63.4882C119.591 63.7256 120.061 64.0264 120.392 64.3908C120.723 64.7468 120.888 65.196 120.888 65.7384C120.888 66.4842 120.608 67.0775 120.049 67.5182C119.489 67.9504 118.693 68.1665 117.659 68.1665C116.743 68.1665 116.002 67.9419 115.434 67.4927C114.798 67.0012 114.464 66.3062 114.43 65.4079H115.917C115.917 66.0859 116.269 66.5139 116.972 66.6918C117.184 66.7512 117.464 66.7808 117.811 66.7808C118.159 66.7808 118.481 66.6961 118.777 66.5266C119.074 66.3486 119.222 66.1155 119.222 65.8274C119.222 65.5307 119.142 65.3062 118.981 65.1536C118.82 64.9926 118.557 64.8443 118.193 64.7087L116.553 64.0603C115.917 63.8145 115.43 63.5264 115.091 63.1959C114.752 62.8653 114.582 62.4077 114.582 61.8229C114.582 61.1364 114.849 60.594 115.383 60.1957C115.926 59.7804 116.659 59.5728 117.582 59.5728C118.515 59.5728 119.231 59.7889 119.731 60.2211C120.239 60.6449 120.532 61.2423 120.608 62.0136H119.121ZM124.393 62.8145C124.816 62.0348 125.435 61.6449 126.249 61.6449C127.062 61.6449 127.66 61.8949 128.041 62.395C128.431 62.895 128.626 63.5561 128.626 64.3781V67.9885H127.126V64.3781C127.126 63.9205 127.016 63.5772 126.795 63.3484C126.575 63.1111 126.266 62.9925 125.867 62.9925C125.469 62.9925 125.126 63.1704 124.838 63.5264C124.558 63.8823 124.41 64.4163 124.393 65.1282V67.9885H122.893V59.2677H124.393V62.8145ZM133.241 61.6449C133.656 61.6449 134.046 61.7127 134.411 61.8483C134.775 61.9754 135.089 62.1746 135.351 62.4458C135.936 63.0391 136.229 63.8612 136.229 64.9121C136.229 65.946 135.936 66.7596 135.351 67.3529C134.826 67.8953 134.123 68.1665 133.241 68.1665C132.36 68.1665 131.648 67.8953 131.105 67.3529C130.521 66.7681 130.228 65.9545 130.228 64.9121C130.228 63.8527 130.521 63.0306 131.105 62.4458C131.639 61.9119 132.351 61.6449 133.241 61.6449ZM134.729 64.8994C134.729 64.2468 134.601 63.7595 134.347 63.4374C134.093 63.1069 133.737 62.9416 133.279 62.9416C132.83 62.9416 132.461 63.1069 132.173 63.4374C131.885 63.7595 131.741 64.2468 131.741 64.8994C131.741 65.5519 131.868 66.0435 132.122 66.374C132.385 66.6961 132.741 66.8571 133.19 66.8571C133.64 66.8571 134.008 66.6961 134.296 66.374C134.584 66.0435 134.729 65.5519 134.729 64.8994ZM139.514 63.0306C139.887 62.1407 140.446 61.6958 141.192 61.6958C141.336 61.6958 141.518 61.7254 141.738 61.7848L141.713 63.2848C141.476 63.234 141.243 63.2086 141.014 63.2086C140.014 63.2086 139.514 63.8993 139.514 65.2807V67.9885H138.014V61.7975H139.514V63.0306ZM146.786 67.836C146.226 68.0563 145.785 68.1665 145.463 68.1665C145.141 68.1665 144.857 68.1284 144.612 68.0521C144.374 67.9758 144.162 67.8614 143.976 67.7088C143.586 67.3614 143.391 66.8825 143.391 66.2723V62.8145H142.527V61.8102H143.391V60.183H144.891V61.8102H146.569V62.8145H144.891V66.2215C144.891 66.73 145.133 66.9842 145.616 66.9842C145.862 66.9842 146.18 66.9164 146.569 66.7808L146.786 67.836ZM150.67 61.6449C151.059 61.6449 151.407 61.7127 151.712 61.8483C152.026 61.9754 152.288 62.1449 152.5 62.3568C152.924 62.7636 153.174 63.2764 153.25 63.8951L151.737 63.9332C151.67 63.662 151.543 63.4374 151.356 63.2594C151.178 63.0814 150.97 62.9925 150.733 62.9925C150.496 62.9925 150.292 63.0306 150.123 63.1069C149.953 63.1747 149.805 63.2848 149.678 63.4374C149.39 63.7934 149.246 64.2849 149.246 64.9121C149.246 65.5392 149.381 66.0138 149.653 66.3359C149.924 66.6495 150.25 66.8062 150.631 66.8062C151.021 66.8062 151.301 66.7173 151.471 66.5393C151.649 66.3528 151.737 66.1028 151.737 65.7892H153.25C153.25 66.4672 153.026 67.0308 152.577 67.48C152.119 67.9377 151.479 68.1665 150.657 68.1665C149.843 68.1665 149.161 67.8699 148.61 67.2766C148.025 66.641 147.733 65.8486 147.733 64.8994C147.733 63.8993 148.025 63.0984 148.61 62.4967C149.161 61.9288 149.848 61.6449 150.67 61.6449ZM159.165 66.8698C158.775 67.6919 158.148 68.1029 157.284 68.1029C156.19 68.1029 155.47 67.6749 155.123 66.819C154.995 66.5223 154.932 66.1621 154.932 65.7384V61.7975H156.432V65.5858C156.432 65.9926 156.529 66.2977 156.724 66.5011C156.919 66.6961 157.157 66.7935 157.436 66.7935C157.724 66.7935 157.966 66.7554 158.161 66.6791C158.356 66.5944 158.525 66.4715 158.669 66.3105C158.983 65.946 159.148 65.4587 159.165 64.8485V61.7975H160.665V67.9885H159.165V66.8698ZM166.512 67.836C165.953 68.0563 165.512 68.1665 165.19 68.1665C164.868 68.1665 164.584 68.1284 164.339 68.0521C164.101 67.9758 163.889 67.8614 163.703 67.7088C163.313 67.3614 163.118 66.8825 163.118 66.2723V62.8145H162.254V61.8102H163.118V60.183H164.618V61.8102H166.296V62.8145H164.618V66.2215C164.618 66.73 164.86 66.9842 165.343 66.9842C165.589 66.9842 165.906 66.9164 166.296 66.7808L166.512 67.836Z" fill="#161616"/>
<path d="M229.575 87.5174V88.5174H230.575V87.5174H229.575ZM20.5747 87.5174H19.5747V88.5174H20.5747V87.5174ZM228.575 33.1956V87.5174H230.575V33.1956H228.575ZM229.575 86.5174H20.5747V88.5174H229.575V86.5174ZM21.5747 87.5174V33.1956H19.5747V87.5174H21.5747Z" fill="#E6E6E6" mask="url(#path-41-outside-2_1119_10653)"/>
<path d="M102.537 148.224C101.409 148.224 100.494 149.159 100.494 150.263C100.494 150.603 100.622 151.092 100.813 151.368L103.921 148.777C103.58 148.479 102.963 148.246 102.537 148.224ZM109.348 148.224C108.901 148.246 108.283 148.479 107.943 148.777L111.05 151.368C111.242 151.092 111.369 150.603 111.391 150.263C111.391 149.159 110.454 148.224 109.348 148.224ZM105.942 149.584C103.303 149.584 101.175 151.729 101.175 154.342V154.363C101.175 155.234 101.601 156.508 102.112 157.188L101.26 158.059C101.218 158.101 101.175 158.208 101.175 158.293C101.175 158.377 101.218 158.484 101.26 158.526L101.75 159.015C101.792 159.057 101.899 159.121 101.984 159.121C102.069 159.121 102.175 159.057 102.218 159.015L103.091 158.165C103.772 158.675 105.049 159.121 105.942 159.121C106.815 159.121 108.092 158.675 108.794 158.165L109.646 159.015C109.688 159.057 109.795 159.1 109.88 159.1C109.965 159.1 110.071 159.057 110.114 159.015L110.603 158.526C110.646 158.484 110.71 158.377 110.71 158.293C110.71 158.208 110.646 158.101 110.603 158.059L109.752 157.188C110.263 156.508 110.71 155.234 110.71 154.363V154.342C110.71 151.729 108.56 149.584 105.942 149.584ZM107.858 155.786L107.432 156.317C107.368 156.381 107.241 156.445 107.156 156.445C107.092 156.445 106.985 156.402 106.943 156.381L105.581 155.276C105.389 155.128 105.261 154.83 105.261 154.618V151.963C105.261 151.793 105.41 151.623 105.602 151.623H106.283C106.453 151.623 106.623 151.793 106.623 151.963V154.363L107.794 155.319C107.858 155.361 107.922 155.489 107.922 155.574C107.922 155.637 107.879 155.744 107.858 155.786Z" fill="#B4B4B4"/>
<path d="M120.595 157.944H124.637V159.121H119.309V157.911C119.309 157.061 119.61 156.444 120.213 156.059C120.417 155.928 120.653 155.812 120.922 155.71L122.371 155.155C122.69 155.031 122.923 154.878 123.068 154.697C123.221 154.508 123.297 154.276 123.297 153.999C123.297 153.723 123.199 153.495 123.003 153.313C122.807 153.124 122.527 153.03 122.164 153.03C121.801 153.03 121.499 153.117 121.259 153.291C121.027 153.466 120.892 153.723 120.856 154.065H119.429C119.443 153.375 119.708 152.834 120.224 152.441C120.696 152.085 121.332 151.907 122.131 151.907C122.865 151.907 123.471 152.103 123.951 152.496C124.437 152.903 124.681 153.4 124.681 153.989C124.681 154.577 124.532 155.049 124.234 155.405C123.943 155.754 123.489 156.048 122.872 156.288L121.401 156.854C121.118 156.963 120.911 157.087 120.78 157.225C120.656 157.356 120.595 157.526 120.595 157.737V157.944ZM133.729 154.828C134.071 154.065 134.67 153.683 135.527 153.683C136.159 153.683 136.65 153.898 136.998 154.326C137.332 154.733 137.5 155.3 137.5 156.026V159.121H136.203V156.026C136.203 155.634 136.108 155.34 135.92 155.144C135.731 154.94 135.465 154.839 135.124 154.839C134.783 154.839 134.503 154.987 134.285 155.285C134.067 155.583 133.951 156.033 133.936 156.636V159.121H132.651V156.026C132.651 155.634 132.556 155.34 132.367 155.144C132.178 154.94 131.913 154.839 131.572 154.839C131.23 154.839 130.936 154.991 130.689 155.296C130.449 155.601 130.322 156.059 130.308 156.669V159.121H129.022V153.825H130.144L130.286 154.74C130.635 154.036 131.194 153.683 131.964 153.683C132.407 153.683 132.774 153.785 133.065 153.989C133.362 154.192 133.584 154.472 133.729 154.828ZM139.474 153.814H140.76V159.121H139.474V153.814ZM139.322 152.114C139.322 151.882 139.391 151.7 139.529 151.57C139.667 151.432 139.863 151.363 140.117 151.363C140.364 151.363 140.557 151.432 140.695 151.57C140.84 151.7 140.913 151.882 140.913 152.114C140.913 152.347 140.84 152.532 140.695 152.67C140.557 152.801 140.364 152.866 140.117 152.866C139.863 152.866 139.667 152.801 139.529 152.67C139.391 152.532 139.322 152.347 139.322 152.114ZM144.205 154.74C144.553 154.036 145.113 153.683 145.883 153.683C146.536 153.683 147.027 153.898 147.354 154.326C147.688 154.755 147.855 155.322 147.855 156.026V159.121H146.569V156.026C146.569 155.634 146.475 155.34 146.286 155.144C146.097 154.94 145.832 154.839 145.49 154.839C145.149 154.839 144.855 154.991 144.608 155.296C144.368 155.601 144.241 156.059 144.226 156.669V159.121H142.941V153.825H144.063L144.205 154.74Z" fill="#707070"/>
<rect x="20.0747" y="27.2473" width="210" height="215.299" rx="7.76437" stroke="#E6E6E6"/>
</g>
</g>
<path d="M20.5747 33.1956C20.5747 30.1866 23.014 27.7473 26.023 27.7473H224.126C227.135 27.7473 229.575 30.1866 229.575 33.1956V33.1956H20.5747V33.1956Z" fill="#276A87"/>
<mask id="mask4_1119_10653" style="mask-type:alpha" maskUnits="userSpaceOnUse" x="26" y="68" width="41" height="41">
<rect x="26.1018" y="77.2197" width="32.7721" height="32.7721" transform="rotate(-15 26.1018 77.2197)" fill="#C4C4C4"/>
</mask>
<g mask="url(#mask4_1119_10653)">
<path d="M50.6253 104.577C47.4873 105.418 42.9836 105.11 40.7016 103.298C44.8161 101.892 32.9369 101.137 36.2048 88.7503C41.5546 93.0725 34.4816 86.7886 39.5956 79.0567C43.525 82.5478 41.5038 76.122 40.1878 73.4453C52.2706 73.8429 51.867 89.0976 54.8455 83.4526C58.6235 86.3783 63.6033 100.493 50.6253 104.577Z" fill="#D6801C"/>
<path d="M50.2704 101.845C43.9753 103.531 38.2415 96.1218 42.383 91.4337C45.18 95.1572 44.8055 87.7261 43.261 84.6381C51.3811 84.8266 50.887 96.3118 53.6296 91.9986C56.7441 93.5496 56.5655 100.158 50.2704 101.845Z" fill="#F3B761"/>
<path d="M53.071 77.0162C52.3941 77.4336 51.4799 76.9658 51.244 76.0853C50.8061 74.451 52.4328 74.6346 51.8454 72.4423C52.5814 72.2451 55.1019 75.7642 53.071 77.0162Z" fill="#D6801C"/>
</g>
<path d="M200.057 163.469C187.618 151.182 181.222 169.271 198.991 179.851C216.049 173.367 216.759 152.889 200.057 163.469Z" fill="#E99690"/>
<path d="M209.572 152.824C205.113 150.814 205.406 156.272 211.038 157.288C214.681 153.838 212.691 148.321 209.572 152.824Z" fill="#E99690"/>
<path d="M187.758 177.83C186.079 175.574 184.701 178.398 187.246 180.482C190.041 179.767 190.583 176.439 187.758 177.83Z" fill="#E99690"/>
<circle cx="53" cy="11" r="5" fill="#9ACECA"/>
<circle cx="182" cy="230" r="5" fill="#F3B761"/>
<circle cx="222.5" cy="209.5" r="3.5" fill="#F3B761"/>
<circle cx="203" cy="234" r="9" fill="#85C3D8"/>
<circle cx="75.5" cy="231.5" r="3.5" fill="#9ACECA"/>
<circle cx="244.5" cy="59.5" r="5.5" fill="#9ACECA"/>
<g clip-path="url(#clip2_1119_10653)">
<path d="M126.271 45.1818C136.401 45.1818 144.614 36.9696 144.614 26.8393C144.614 16.709 136.401 8.49674 126.271 8.49674C116.141 8.49674 107.929 16.709 107.929 26.8393C107.929 36.9696 116.141 45.1818 126.271 45.1818Z" fill="#E6E6E6" stroke="white" stroke-width="1.81609"/>
<mask id="mask5_1119_10653" style="mask-type:alpha" maskUnits="userSpaceOnUse" x="108" y="9" width="36" height="36">
<ellipse cx="126.271" cy="26.8393" rx="17.4345" ry="17.4345" fill="#48A8A1"/>
</mask>
<g mask="url(#mask5_1119_10653)">
<path d="M142.464 34.1435C140.712 36.8571 140.058 39.4999 141.512 40.4401C142.965 41.3804 145.152 39.6262 146.904 36.9126C148.656 34.199 150.05 31.1483 148.597 30.2081C147.145 29.2678 144.216 31.4318 142.464 34.1435Z" fill="#163B4B"/>
<path d="M144.159 36.5181C142.407 39.2317 141.753 41.8745 143.206 42.8148C144.66 43.7551 146.846 42.0009 148.599 39.2873C150.351 36.5736 151.745 33.523 150.291 32.5827C148.838 31.6424 145.909 33.8045 144.159 36.5181Z" fill="#1F576F"/>
<path d="M124.082 36.2019C123.189 37.5405 120.464 40.8612 119.938 43.6687C119.549 45.7388 120.345 47.6903 121.085 47.6903C121.579 47.6903 121.085 46.1582 122.382 45.0418C122.317 46.4953 122.367 50.243 124.337 52.6694C126.823 55.7335 128.545 56.1165 129.119 55.925C129.693 55.7335 130.458 54.2014 130.458 54.2014L130.444 54.1057C131.479 54.4159 132.575 54.5844 133.709 54.5844C134.916 54.5844 136.079 54.3948 137.172 54.0463C137.298 54.2838 138.097 55.7488 138.625 55.925C139.199 56.1165 140.921 55.7335 143.407 52.6694C144.442 51.394 146.525 47.6903 146.525 47.6903C146.196 47.2517 145.806 46.0012 145.532 45.0092C146.368 46.1812 147.263 47.2632 148.438 47.4988C149.394 47.6903 150.293 47.516 150.159 45.7752C149.976 43.3967 145.917 38.2185 143.082 35.817C140.595 33.7105 143.082 33.902 142.891 27.3908C142.747 22.5285 138.105 17.468 133.245 17.468C128.385 17.468 119.494 25.6213 123.38 28.5398C124.146 29.1144 124.893 29.6927 125.102 30.8379C125.485 32.9444 124.976 34.8652 124.082 36.2019Z" fill="#276A87"/>
<path d="M138.109 31.6041C137.594 34.9573 138.683 46.1584 129.31 45.7754C126.25 45.6509 123.763 43.2897 123.763 40.2218C123.763 37.1539 126.857 35.4568 125.485 31.4126C124.907 29.3864 122.059 28.0919 122.807 27.774C124.807 26.9237 129.23 16.1789 133.077 16.8798C135.181 17.2628 140.461 19.4876 141.169 23.5609C141.934 27.9655 138.491 29.1145 138.109 31.6041Z" fill="white"/>
<path d="M141.552 24.6141C141.552 28.0516 139.438 30.455 136.005 30.455C130.303 30.455 130.219 24.6141 127.697 24.2769C127.697 20.8394 129.387 15.9926 132.753 16.6667C136.579 17.4327 141.552 20.4968 141.552 24.6141Z" fill="#CAE4ED"/>
<path d="M127.206 25.8589C127.206 26.5464 125.705 28.3485 123.381 28.3485C113.434 24.5184 106.74 26.4334 106.548 26.0504C105.86 24.6724 114.529 23.6481 116.686 23.6045C119.025 23.6045 121.648 23.5436 123.572 24.1354C124.262 24.3479 126.661 23.2181 127.397 23.5609C128.134 23.9036 127.206 25.7153 127.206 25.8589Z" fill="#D6801C"/>
<path d="M112.711 15.3492C108.163 16.9138 103.839 20.5638 104.413 23.4364C104.744 25.091 114.417 21.7091 122.738 24.1354C123.828 24.4533 125.676 24.71 127.589 24.3269C125.092 26.4625 119.628 24.3761 115.538 24.1354C111.449 23.8947 105.774 24.4993 106.548 26.0505C106.74 26.4335 113.434 24.5184 123.381 28.3485C124.702 28.3485 126.25 28.157 127.206 26.242C128.105 24.4399 128.545 22.4119 132.753 16.6668C125.293 13.9857 118.698 13.2906 112.711 15.3492Z" fill="#F3B761"/>
<path d="M112.651 23.3271C108.825 23.7101 103.87 24.8497 103.87 23.3694C103.87 21.889 105.018 17.7956 113.434 15.1145C110.948 17.6041 109.016 20.263 112.651 23.3271Z" fill="#854400"/>
<path d="M133.679 25.6367C134.841 25.6367 135.783 24.6935 135.783 23.5301C135.783 22.3667 134.841 21.4236 133.679 21.4236C132.517 21.4236 131.575 22.3667 131.575 23.5301C131.575 24.6935 132.517 25.6367 133.679 25.6367Z" fill="#161616"/>
<path d="M132.818 23.9131C133.241 23.9131 133.583 23.5702 133.583 23.1471C133.583 22.7241 133.241 22.3811 132.818 22.3811C132.396 22.3811 132.053 22.7241 132.053 23.1471C132.053 23.5702 132.396 23.9131 132.818 23.9131Z" fill="white"/>
</g>
</g>
<path d="M127.206 25.8589C127.206 26.5464 125.704 28.3485 123.38 28.3485C113.434 24.5184 106.739 26.4334 106.548 26.0504C105.86 24.6724 114.529 23.6481 116.685 23.6045C119.025 23.6045 121.647 23.5436 123.572 24.1354C124.262 24.3479 126.661 23.2181 127.397 23.5609C128.134 23.9036 127.206 25.7153 127.206 25.8589Z" fill="#D6801C"/>
<path d="M112.711 15.3492C108.162 16.9138 103.839 20.5638 104.413 23.4364C104.744 25.091 114.417 21.7091 122.738 24.1354C123.828 24.4533 125.676 24.71 127.588 24.3269C125.091 26.4625 119.627 24.3761 115.538 24.1354C111.449 23.8947 105.773 24.4993 106.548 26.0505C106.739 26.4335 113.434 24.5184 123.38 28.3485C124.702 28.3485 126.25 28.157 127.206 26.242C128.105 24.4399 128.545 22.4119 132.753 16.6668C125.293 13.9857 118.698 13.2906 112.711 15.3492Z" fill="#F3B761"/>
<path d="M112.65 23.3271C108.825 23.7101 103.87 24.8497 103.87 23.3694C103.87 21.889 105.018 17.7956 113.434 15.1145C110.947 17.6041 109.016 20.263 112.65 23.3271Z" fill="#854400"/>
<circle cx="140.437" cy="42.2761" r="7.26437" fill="white"/>
<circle cx="140.528" cy="42.276" r="6.35632" fill="#9ACBAE"/>
<path fill-rule="evenodd" clip-rule="evenodd" d="M142.783 46.1747C142.912 46.078 143.041 45.9491 143.17 45.8203C143.395 45.5947 143.621 45.1114 143.621 44.757C143.621 44.5314 143.492 44.2092 143.331 44.0803L142.88 43.6292C142.686 43.4359 142.429 43.307 142.139 43.307H140.012C139.865 43.2481 139.704 43.0277 139.542 42.8057C139.35 42.542 139.156 42.2759 138.981 42.2759C138.627 42.2759 138.304 42.2115 137.982 42.0504L137.628 41.8893C137.499 41.8249 137.434 41.696 137.434 41.5349C137.434 41.3738 137.531 41.2127 137.692 41.1804L138.691 40.826H138.852C138.949 40.826 139.11 40.8582 139.174 40.9227L139.497 41.2127C139.529 41.2449 139.593 41.2449 139.658 41.2449H139.851C140.044 41.2449 140.141 41.0516 140.077 40.8904L139.561 39.8916C139.561 39.8755 139.553 39.8513 139.545 39.8272C139.537 39.803 139.529 39.7788 139.529 39.7627C139.529 39.6983 139.561 39.6338 139.625 39.5694L139.948 39.2794C139.98 39.215 140.044 39.1827 140.109 39.1827H140.399C140.463 39.1827 140.56 39.1505 140.592 39.1183L140.85 38.8605C140.947 38.7639 140.947 38.6028 140.85 38.5061L140.689 38.345C140.592 38.2483 140.592 38.0872 140.689 37.9906L141.043 37.6361L141.172 37.5072C141.365 37.3139 141.365 36.9595 141.172 36.7662L140.329 35.9227C140.395 35.9207 140.461 35.9197 140.528 35.9197C143.017 35.9197 145.172 37.3503 146.215 39.4342L145.844 39.6338C145.715 39.6983 145.619 39.7627 145.554 39.8916L144.91 40.826C144.845 40.9549 144.781 41.116 144.781 41.2449C144.781 41.406 144.845 41.5671 144.91 41.696L145.49 42.5659C145.619 42.727 145.78 42.8237 145.973 42.8881L146.832 43.0954C146.489 45.7554 144.503 47.9004 141.924 48.4784L142.461 47.0769C142.525 46.8835 142.558 46.7224 142.59 46.5291C142.622 46.4002 142.686 46.2713 142.783 46.1747ZM140.528 48.6323V47.8502C140.56 47.4313 140.27 46.6902 139.787 46.2069C139.593 46.0136 139.497 45.7558 139.497 45.4658V44.4348C139.497 44.0803 139.271 43.7259 138.949 43.5326C138.498 43.2748 137.821 42.9204 137.37 42.6948C137.016 42.5015 136.661 42.2759 136.371 41.986H136.339C136.146 41.8249 135.888 41.5026 135.759 41.3093C135.456 40.8853 135.011 40.2334 134.691 39.7553C134.357 40.5281 134.171 41.3804 134.171 42.276C134.171 45.7865 137.017 48.6323 140.528 48.6323ZM138.04 36.4247L138.723 36.7662C139.078 36.9273 139.497 36.7017 139.497 36.3151V36.0029C138.988 36.0858 138.501 36.2289 138.04 36.4247Z" fill="#276A87"/>
<defs>
<filter id="filter0_d_1119_10653" x="9.67816" y="-1.26437" width="230.644" height="258.793" filterUnits="userSpaceOnUse" color-interpolation-filters="sRGB">
<feFlood flood-opacity="0" result="BackgroundImageFix"/>
<feColorMatrix in="SourceAlpha" type="matrix" values="0 0 0 0 0 0 0 0 0 0 0 0 0 0 0 0 0 0 127 0" result="hardAlpha"/>
<feOffset dy="3.63218"/>
<feGaussianBlur stdDeviation="5.44828"/>
<feColorMatrix type="matrix" values="0 0 0 0 0.0862745 0 0 0 0 0.0862745 0 0 0 0 0.0862745 0 0 0 0.04 0"/>
<feBlend mode="normal" in2="BackgroundImageFix" result="effect1_dropShadow_1119_10653"/>
<feBlend mode="normal" in="SourceGraphic" in2="effect1_dropShadow_1119_10653" result="shape"/>
</filter>
<linearGradient id="paint0_linear_1119_10653" x1="128.233" y1="19.0231" x2="128.233" y2="206.887" gradientUnits="userSpaceOnUse">
<stop offset="0.0001" stop-color="#F5D8AF"/>
<stop offset="1" stop-color="#85C3D8"/>
</linearGradient>
<linearGradient id="paint1_linear_1119_10653" x1="128.233" y1="19.0231" x2="128.233" y2="206.887" gradientUnits="userSpaceOnUse">
<stop offset="0.0001" stop-color="#F5D8AF"/>
<stop offset="1" stop-color="#85C3D8"/>
</linearGradient>
<clipPath id="clip0_1119_10653">
<rect width="43.5862" height="43.5862" fill="white" transform="translate(102.299 5.04614)"/>
</clipPath>
<clipPath id="clip1_1119_10653">
<rect width="208.851" height="237" fill="white" transform="translate(20.5747 6)"/>
</clipPath>
<clipPath id="clip2_1119_10653">
<rect width="43.5862" height="43.5862" fill="white" transform="translate(102.299 5.04614)"/>
</clipPath>
</defs>
</svg>
