<svg width="540" height="540" viewBox="0 0 540 540" fill="none" xmlns="http://www.w3.org/2000/svg">
<path d="M264.448 193.745C262.562 193.654 260.658 193.502 258.789 193.294L258.912 192.173C260.759 192.378 262.638 192.527 264.502 192.618L264.448 193.745ZM268.989 193.853L268.989 192.725C270.854 192.724 272.739 192.663 274.593 192.547L274.665 193.672C272.788 193.791 270.879 193.852 268.989 193.853ZM254.286 192.681C252.422 192.379 250.547 192.015 248.71 191.598L248.96 190.498C250.775 190.91 252.625 191.27 254.464 191.568L254.286 192.681ZM279.189 193.273L279.061 192.153C280.915 191.941 282.783 191.669 284.609 191.343L284.807 192.455C282.958 192.783 281.068 193.059 279.189 193.273ZM244.306 190.481C242.49 189.971 240.669 189.396 238.89 188.773L239.264 187.709C241.02 188.324 242.819 188.891 244.612 189.395L244.306 190.481ZM289.259 191.544L289.002 190.445C290.817 190.026 292.64 189.544 294.422 189.012L294.748 190.093C292.943 190.631 291.097 191.12 289.259 191.544ZM234.629 187.157C232.884 186.445 231.136 185.666 229.433 184.841L229.926 183.825C231.608 184.64 233.334 185.41 235.056 186.113L234.629 187.157ZM299.067 188.684L298.687 187.62C300.437 187 302.19 186.315 303.899 185.585L304.345 186.622C302.613 187.362 300.839 188.056 299.067 188.684ZM225.389 182.754C223.732 181.846 222.085 180.873 220.491 179.865L221.095 178.912C222.669 179.909 224.295 180.868 225.931 181.765L225.389 182.754ZM308.468 184.736L307.969 183.723C309.637 182.908 311.304 182.029 312.921 181.108L313.483 182.088C311.842 183.021 310.156 183.911 308.468 184.736ZM216.711 177.335C215.167 176.245 213.641 175.094 212.173 173.914L212.881 173.035C214.33 174.201 215.836 175.338 217.361 176.415L216.711 177.335ZM317.369 179.747L316.761 178.796C318.324 177.8 319.88 176.738 321.387 175.639L322.053 176.55C320.528 177.663 318.951 178.739 317.369 179.747ZM208.703 170.978C207.292 169.722 205.905 168.408 204.58 167.069L205.382 166.276C206.691 167.598 208.061 168.896 209.453 170.135L208.703 170.978ZM325.651 173.786L324.942 172.91C326.387 171.74 327.816 170.51 329.187 169.252L329.95 170.084C328.562 171.357 327.115 172.603 325.651 173.786ZM201.462 163.763C200.203 162.359 198.972 160.898 197.805 159.42L198.69 158.723C199.844 160.182 201.059 161.624 202.303 163.012L201.462 163.763ZM333.217 166.933L332.412 166.14C333.72 164.814 335.002 163.431 336.22 162.028L337.074 162.768C335.839 164.188 334.541 165.59 333.217 166.933ZM195.08 155.789C193.988 154.254 192.929 152.665 191.935 151.065L192.895 150.47C193.877 152.05 194.921 153.62 196.001 155.135L195.08 155.789ZM339.965 159.267L339.076 158.57C340.224 157.109 341.342 155.59 342.399 154.055L343.329 154.695C342.26 156.249 341.127 157.787 339.965 159.267ZM189.636 147.152C188.722 145.503 187.85 143.805 187.045 142.107L188.065 141.625C188.86 143.302 189.722 144.978 190.624 146.606L189.636 147.152ZM345.812 150.888L344.85 150.296C345.828 148.708 346.767 147.072 347.639 145.433L348.636 145.963C347.751 147.623 346.802 149.281 345.812 150.888ZM185.204 137.965C184.482 136.222 183.809 134.437 183.202 132.663L184.271 132.299C184.87 134.051 185.535 135.814 186.248 137.534L185.204 137.965ZM350.671 141.897L349.648 141.418C350.44 139.729 351.187 137.996 351.867 136.265L352.918 136.68C352.228 138.432 351.473 140.186 350.671 141.897ZM181.84 128.33C181.323 126.522 180.856 124.672 180.452 122.828L181.555 122.588C181.953 124.408 182.414 126.236 182.926 128.019L181.84 128.33ZM354.472 132.417L353.402 132.057C353.995 130.295 354.539 128.491 355.019 126.693L356.11 126.985C355.624 128.806 355.073 130.633 354.472 132.417ZM179.592 118.369C179.283 116.516 179.029 114.625 178.837 112.745L179.96 112.631C180.15 114.488 180.401 116.356 180.706 118.184L179.592 118.369ZM357.169 122.571L356.065 122.336C356.453 120.523 356.788 118.668 357.062 116.824L358.179 116.989C357.901 118.859 357.561 120.736 357.169 122.571ZM178.488 108.219C178.392 106.345 178.351 104.437 178.37 102.548L179.5 102.56C179.481 104.427 179.52 106.312 179.616 108.162L178.488 108.219ZM358.733 112.486L357.609 112.376C357.788 110.531 357.914 108.651 357.98 106.786L359.109 106.827C359.042 108.716 358.915 110.619 358.733 112.486ZM357.982 106.716C358.047 104.852 358.054 102.967 358.004 101.111L359.132 101.082C359.182 102.96 359.177 104.87 359.111 106.756L357.982 106.716ZM179.658 98.0804L178.531 98.0114C178.644 96.1282 178.818 94.2283 179.046 92.3633L180.167 92.5012C179.941 94.3442 179.77 96.2212 179.658 98.0804ZM357.77 96.6358C357.627 94.7823 357.424 92.9086 357.164 91.0669L358.28 90.9096C358.544 92.7754 358.753 94.6723 358.898 96.5498L357.77 96.6358ZM180.823 88.0684L179.711 87.8749C180.034 86.0194 180.42 84.1502 180.859 82.319L181.957 82.583C181.523 84.3904 181.142 86.2368 180.823 88.0684ZM356.425 86.6434C356.072 84.8183 355.657 82.9799 355.189 81.1777L356.282 80.8954C356.756 82.7199 357.175 84.5825 357.533 86.4317L356.425 86.6434ZM183.112 78.2534L182.029 77.9339C182.56 76.127 183.156 74.3135 183.801 72.5457L184.862 72.9324C184.226 74.6785 183.637 76.4683 183.112 78.2534ZM353.952 76.8681C353.396 75.0975 352.774 73.3207 352.107 71.5871L353.159 71.1824C353.835 72.9382 354.465 74.7374 355.03 76.5312L353.952 76.8681ZM186.506 68.7527L185.466 68.3127C186.2 66.5752 187 64.8401 187.843 63.1526L188.853 63.6584C188.021 65.3234 187.231 67.0378 186.506 68.7527ZM350.39 67.4521C349.635 65.7523 348.815 64.0563 347.955 62.4097L348.957 61.8891C349.828 63.5561 350.656 65.2734 351.422 66.9956L350.39 67.4521ZM190.963 59.6957L189.98 59.1408C190.908 57.4954 191.9 55.8633 192.927 54.2875L193.873 54.904C192.859 56.4593 191.88 58.0719 190.963 59.6957ZM345.781 58.492C344.84 56.8905 343.835 55.2958 342.791 53.7526L343.728 53.1216C344.785 54.6842 345.803 56.2995 346.755 57.9204L345.781 58.492ZM196.415 51.207L195.501 50.5437C196.606 49.0217 197.775 47.5111 198.976 46.0566L199.848 46.7754C198.661 48.2124 197.506 49.7036 196.415 51.207ZM340.191 50.1004C339.075 48.6135 337.895 47.1404 336.685 45.7251L337.544 44.9933C338.769 46.4271 339.962 47.9177 341.094 49.4252L340.191 50.1004ZM202.789 43.391L201.956 42.6296C203.224 41.2416 204.556 39.8729 205.913 38.5631L206.698 39.3738C205.357 40.6682 204.043 42.0205 202.789 43.391ZM333.688 42.3856C332.411 41.0309 331.072 39.6999 329.712 38.4273L330.483 37.6052C331.86 38.8925 333.216 40.2411 334.51 41.6114L333.688 42.3856ZM210 36.3426L209.256 35.4924C210.675 34.2549 212.151 33.0445 213.644 31.8967L214.333 32.7919C212.859 33.9253 211.401 35.1194 210 36.3426ZM326.359 35.4438C324.936 34.2408 323.456 33.0678 321.962 31.9562L322.637 31.0517C324.15 32.1769 325.647 33.3656 327.088 34.5832L326.359 35.4438ZM217.954 30.1513L217.31 29.2238C218.863 28.1491 220.463 27.1133 222.073 26.1447L222.656 27.1111C221.068 28.0674 219.486 29.091 217.954 30.1513ZM318.292 29.3673C316.742 28.3317 315.142 27.3313 313.53 26.3955L314.095 25.4209C315.727 26.3685 317.351 27.3807 318.92 28.43L318.292 29.3673ZM226.549 24.8945L226.014 23.9009C227.679 23.0084 229.389 22.1595 231.094 21.3795L231.565 22.4048C229.88 23.1756 228.193 24.0132 226.549 24.8945ZM309.587 24.2366C307.934 23.3843 306.226 22.572 304.515 21.8226L304.969 20.789C306.701 21.5482 308.428 22.3702 310.103 23.2353L309.587 24.2366ZM235.679 20.6434L235.261 19.596C237.009 18.8995 238.801 18.2507 240.59 17.6667L240.941 18.7386C239.175 19.3155 237.405 19.9561 235.679 20.6434ZM300.351 20.1238C298.609 19.4643 296.825 18.8523 295.047 18.3044L295.378 17.2264C297.179 17.781 298.987 18.3999 300.751 19.0682L300.351 20.1238ZM245.238 17.4549L244.942 16.366C246.766 15.8713 248.624 15.4289 250.466 15.0519L250.693 16.1573C248.874 16.5292 247.038 16.9654 245.238 17.4549ZM290.726 17.093C288.921 16.6352 287.078 16.229 285.25 15.8864L285.455 14.7777C287.307 15.1252 289.174 15.5363 291.003 15.9989L290.726 17.093ZM255.107 15.3689L254.937 14.2536C256.795 13.9702 258.689 13.7421 260.572 13.5747L260.675 14.6986C258.815 14.8639 256.942 15.0887 255.107 15.3689ZM280.821 15.1711C278.983 14.9211 277.106 14.7248 275.243 14.5889L275.322 13.4647C277.21 13.6024 279.11 13.7996 280.971 14.0534L280.821 15.1711ZM265.152 14.4145L265.108 13.2877C266.984 13.2151 268.893 13.2005 270.785 13.2455L270.759 14.3737C268.891 14.3286 267.005 14.343 265.152 14.4145Z" fill="#854FE8"/>
<path d="M237.978 154.093L236.851 154.046C236.891 153.09 236.988 151.522 237.217 149.492L238.339 149.619C238.113 151.616 238.018 153.155 237.978 154.093ZM238.969 145.171L237.857 144.983C238.108 143.5 238.405 141.998 238.74 140.518L239.84 140.767C239.509 142.227 239.217 143.709 238.969 145.171ZM410.394 145.076C409.488 143.848 408.559 142.657 407.637 141.535L408.51 140.818C409.445 141.956 410.382 143.162 411.301 144.406L410.394 145.076ZM404.692 138.158C403.655 137.042 402.591 135.975 401.533 134.986L402.304 134.162C403.381 135.168 404.461 136.254 405.517 137.39L404.692 138.158ZM240.952 136.418L239.865 136.109C240.284 134.643 240.747 133.183 241.24 131.77L242.306 132.143C241.819 133.535 241.364 134.974 240.952 136.418ZM398.149 132.074C396.952 131.131 395.733 130.259 394.521 129.483L395.129 128.533C396.371 129.329 397.623 130.223 398.847 131.188L398.149 132.074ZM353.15 129.849C352.693 129.849 352.221 129.835 351.745 129.808L351.81 128.682C353.352 128.769 354.77 128.709 356.196 128.5L356.36 129.617C355.299 129.773 354.248 129.849 353.15 129.849ZM347.194 129.133C345.705 128.77 344.241 128.264 342.844 127.623L343.314 126.596C344.647 127.207 346.041 127.692 347.46 128.037L347.194 129.133ZM360.83 128.494L360.459 127.428C361.795 126.962 363.099 126.402 364.36 125.861L364.606 125.755L365.051 126.792L364.805 126.899C363.527 127.448 362.203 128.015 360.83 128.494ZM243.917 127.96L242.878 127.521C243.471 126.113 244.112 124.722 244.784 123.386L245.793 123.893C245.132 125.206 244.501 126.575 243.917 127.96ZM390.652 127.291C389.303 126.627 387.924 126.053 386.555 125.584L386.922 124.516C388.335 125 389.758 125.593 391.15 126.278L390.652 127.291ZM338.852 125.343C337.653 124.519 336.48 123.586 335.266 122.49L336.023 121.652C337.2 122.714 338.334 123.617 339.49 124.413L338.852 125.343ZM369.204 125.155L368.847 124.085C370.386 123.571 371.851 123.219 373.325 123.008L373.485 124.126C372.078 124.327 370.678 124.664 369.204 125.155ZM382.275 124.439C381.485 124.287 380.678 124.163 379.875 124.072C379.199 123.996 378.529 123.944 377.881 123.917L377.926 122.79C378.601 122.817 379.3 122.872 380.003 122.951C380.834 123.045 381.671 123.173 382.489 123.332L382.275 124.439ZM247.946 119.97L246.977 119.391C247.76 118.078 248.595 116.792 249.461 115.57L250.383 116.222C249.535 117.421 248.715 118.682 247.946 119.97ZM332.027 119.281C331.136 118.329 330.176 117.251 329.008 115.891L329.865 115.155C331.023 116.503 331.971 117.569 332.851 118.511L332.027 119.281ZM253.11 112.684L252.245 111.958C253.226 110.79 254.262 109.658 255.325 108.594L256.123 109.393C255.084 110.433 254.07 111.54 253.11 112.684ZM326.085 112.443C325.219 111.42 324.191 110.216 323.142 109.042L323.986 108.29C325.042 109.474 326.075 110.686 326.947 111.714L326.085 112.443ZM259.412 106.382L258.688 105.516C259.851 104.544 261.072 103.615 262.317 102.753L262.959 103.681C261.741 104.523 260.549 105.433 259.412 106.382ZM320.072 105.779C318.951 104.66 317.879 103.668 316.791 102.751L317.517 101.888C318.63 102.826 319.727 103.838 320.869 104.979L320.072 105.779ZM266.735 101.313L266.18 100.33L266.671 100.055C267.324 99.6925 268.543 99.0165 270.218 98.2185L270.702 99.2365C269.06 100.019 267.863 100.685 267.219 101.042L266.735 101.313ZM313.243 100.065C312.001 99.2295 310.714 98.4735 309.417 97.8185L309.928 96.8115C311.265 97.4865 312.593 98.2665 313.874 99.1285L313.243 100.065ZM274.812 97.4665L274.405 96.4145C275.835 95.8625 277.288 95.3665 278.722 94.9405L279.043 96.0225C277.637 96.4405 276.214 96.9255 274.812 97.4665ZM305.343 96.0815C304.822 95.8975 304.282 95.7225 303.74 95.5605C302.863 95.2985 301.963 95.0665 301.068 94.8695L301.31 93.7665C302.233 93.9695 303.158 94.2085 304.063 94.4785C304.622 94.6465 305.179 94.8275 305.718 95.0165L305.343 96.0815ZM283.374 94.9315L283.146 93.8265C284.654 93.5165 286.173 93.2735 287.657 93.1095L287.78 94.2315C286.33 94.3925 284.848 94.6265 283.374 94.9315ZM296.676 94.1665C295.342 94.0305 293.975 93.9625 292.611 93.9625H292.594L292.23 93.9645L292.219 92.8355L292.594 92.8335H292.61C294.012 92.8335 295.417 92.9045 296.788 93.0435L296.676 94.1665Z" fill="#854FE8"/>
<path d="M224.946 144.737C220.604 144.737 216.071 143.451 212.381 141.071C208.945 138.856 206.72 136.026 206.116 133.102C205.277 129.04 207.726 125.719 210.094 122.507C212.342 119.46 214.465 116.581 213.467 113.404C212.41 110.038 208.469 108.403 204.992 106.961C201.59 105.55 198.377 104.218 198.205 101.419C198.061 99.0795 200.183 97.5385 202.43 95.9075C204.97 94.0635 207.849 91.9735 208.367 88.3245C208.638 86.4225 208.156 85.0365 207.647 83.5684C207.041 81.8245 206.414 80.0215 207.263 77.5015C208.366 74.2275 211.186 71.6455 214.448 70.9225C219.683 69.7655 224.959 73.2925 225.841 76.9855C226.367 79.1865 225.259 80.8385 224.28 82.2965C223.419 83.5805 222.675 84.6895 223.017 86.0045C223.619 88.3154 227.135 89.2515 230.536 90.1565C234.209 91.1335 238.007 92.1445 238.816 95.0245C239.385 97.0485 238.138 98.6055 236.818 100.253C235.524 101.869 234.186 103.539 234.321 105.866C234.487 108.698 236.716 110.228 239.297 111.999C241.671 113.628 244.361 115.474 245.573 118.679C247.013 122.489 246.245 127.941 243.57 132.909C240.396 138.805 235.219 142.943 229.367 144.261C227.946 144.581 226.458 144.737 224.946 144.737ZM214.692 72.0244C211.808 72.6634 209.312 74.9545 208.333 77.8615C207.607 80.0155 208.12 81.4905 208.713 83.1985C209.219 84.6575 209.794 86.3105 209.485 88.4835C208.899 92.6065 205.68 94.9425 203.092 96.8205C201.018 98.3275 199.225 99.6285 199.331 101.349C199.46 103.445 202.224 104.591 205.424 105.919C209.129 107.455 213.329 109.197 214.544 113.066C215.713 116.79 213.319 120.037 211.003 123.177C208.781 126.19 206.484 129.305 207.222 132.874C207.756 135.461 209.859 138.103 212.993 140.123C217.721 143.172 223.901 144.337 229.119 143.16C234.652 141.914 239.557 137.982 242.577 132.374C245.101 127.686 245.845 122.591 244.517 119.078C243.431 116.204 241.005 114.539 238.658 112.929C235.95 111.071 233.392 109.316 233.194 105.932C233.033 103.172 234.576 101.246 235.938 99.5475C237.12 98.0715 238.142 96.7955 237.73 95.3295C237.094 93.0695 233.613 92.1435 230.246 91.2475C226.532 90.2585 222.692 89.2365 221.925 86.2895C221.455 84.4825 222.415 83.0505 223.343 81.6675C224.275 80.2785 225.155 78.9675 224.744 77.2485C223.983 74.0635 219.193 71.0265 214.692 72.0244Z" fill="#4FE6E8"/>
<path d="M229.235 157.914L228.122 157.726C233.113 128.335 217.048 95.1925 216.885 94.8615L217.898 94.3635C218.063 94.6985 234.287 128.168 229.235 157.914Z" fill="#4FE6E8"/>
<path d="M264.934 79.3585C264.934 79.3585 291.735 130.055 274.45 157.55C257.165 185.046 236.363 192.222 236.363 192.222C236.363 192.222 219.017 163.871 228.087 132.808C237.157 101.745 246.662 95.5565 246.662 95.5565L251.953 102.46L254.049 86.6065C254.049 86.6065 257.133 82.0495 264.934 79.3585Z" fill="#854FE8"/>
<path d="M236.362 192.787C236.257 192.787 236.15 192.758 236.055 192.698C235.793 192.528 235.718 192.178 235.887 191.916C249.702 170.544 264.231 80.1815 264.375 79.2705C264.425 78.9635 264.713 78.7515 265.022 78.8025C265.329 78.8515 265.54 79.1405 265.491 79.4485C265.455 79.6765 261.794 102.541 256.465 127.764C249.3 161.673 242.696 183.463 236.836 192.529C236.728 192.696 236.547 192.787 236.362 192.787Z" fill="#E1D7F4"/>
<path d="M251.244 148.885C251.193 148.885 251.141 148.878 251.09 148.864C247.489 147.848 244.67 139.881 242.472 124.509C240.88 113.372 240.258 102.37 240.252 102.26C240.235 101.949 240.473 101.683 240.785 101.665C241.095 101.647 241.362 101.886 241.379 102.198C242.049 114.278 245.156 146.016 251.397 147.778C251.697 147.862 251.871 148.174 251.787 148.474C251.716 148.722 251.49 148.885 251.244 148.885Z" fill="#E1D7F4"/>
<path d="M249.161 162.208C249.119 162.208 249.09 162.208 249.074 162.207C248.762 162.197 248.517 161.937 248.527 161.625C248.537 161.314 248.804 161.067 249.107 161.079C249.229 161.076 261.478 161.133 280.098 139.374C280.301 139.137 280.658 139.11 280.894 139.312C281.13 139.515 281.159 139.871 280.955 140.108C262.539 161.629 250.398 162.208 249.161 162.208Z" fill="#E1D7F4"/>
<path d="M256.13 127.174C255.879 127.174 255.648 127.005 255.583 126.749C255.506 126.447 255.689 126.14 255.991 126.063C268.348 122.912 275.594 106.838 275.665 106.676C275.791 106.391 276.126 106.262 276.41 106.388C276.695 106.515 276.824 106.848 276.698 107.133C276.623 107.303 274.81 111.357 271.393 115.877C268.22 120.072 263.022 125.435 256.269 127.156C256.222 127.169 256.176 127.174 256.13 127.174Z" fill="#E1D7F4"/>
<path d="M256.592 132.946C255.988 132.946 255.396 132.885 254.818 132.763C254.513 132.699 254.318 132.399 254.383 132.094C254.447 131.79 254.747 131.595 255.051 131.659C264.899 133.739 277.053 114.44 277.175 114.245C277.34 113.98 277.688 113.9 277.952 114.064C278.217 114.229 278.298 114.578 278.133 114.843C278.102 114.893 274.961 119.906 270.588 124.582C265.389 130.141 260.691 132.946 256.592 132.946Z" fill="#E1D7F4"/>
<path d="M244.305 170.26C244.26 170.26 244.215 170.255 244.169 170.243C239.511 169.093 235.075 164.088 230.984 155.368C227.973 148.949 226.269 142.775 226.253 142.713C226.17 142.412 226.347 142.102 226.648 142.02C226.949 141.936 227.259 142.114 227.341 142.415C227.407 142.656 234.07 166.587 244.44 169.148C244.742 169.222 244.927 169.529 244.852 169.831C244.789 170.088 244.558 170.26 244.305 170.26Z" fill="#E1D7F4"/>
<path d="M243.477 176.519C243.409 176.519 243.341 176.507 243.274 176.481C227.81 170.522 225.459 159.167 225.366 158.687C225.307 158.381 225.507 158.086 225.813 158.027C226.12 157.967 226.415 158.167 226.474 158.473C226.497 158.584 228.831 169.706 243.68 175.428C243.971 175.54 244.116 175.867 244.003 176.158C243.917 176.382 243.704 176.519 243.477 176.519Z" fill="#E1D7F4"/>
<path d="M156.784 76.0715L150.22 71.6735L154.618 65.1095L161.182 69.5075L156.784 76.0715Z" fill="#4FE6E8"/>
<path d="M474.564 448.962L468 444.564L472.398 438L478.962 442.398L474.564 448.962Z" fill="#4FE6E8"/>
<path d="M518.701 282.666C517.498 282.666 516.46 281.934 516.056 280.8L515.554 279.388C515.432 279.045 515.18 278.78 514.845 278.642C514.509 278.502 514.143 278.512 513.816 278.668L512.462 279.312C511.374 279.828 510.122 279.61 509.271 278.76C508.422 277.909 508.206 276.658 508.722 275.571L509.366 274.217C509.522 273.889 509.531 273.523 509.391 273.188C509.253 272.852 508.988 272.601 508.645 272.48L507.233 271.976C506.099 271.573 505.368 270.535 505.368 269.333C505.367 268.129 506.099 267.091 507.233 266.688L508.645 266.187C508.988 266.065 509.253 265.813 509.391 265.478C509.531 265.142 509.522 264.775 509.366 264.446L508.722 263.093C508.206 262.006 508.422 260.756 509.271 259.905C510.123 259.055 511.374 258.839 512.462 259.355L513.816 259.997C514.144 260.153 514.509 260.162 514.845 260.023C515.18 259.885 515.432 259.619 515.554 259.277L516.056 257.864C516.46 256.731 517.498 256 518.701 256C519.905 256 520.942 256.731 521.345 257.864L521.847 259.277C521.97 259.619 522.221 259.885 522.556 260.023C522.891 260.163 523.258 260.154 523.586 259.997L524.939 259.355C526.029 258.839 527.28 259.055 528.131 259.905C528.981 260.756 529.195 262.006 528.679 263.093L528.035 264.448C527.88 264.776 527.871 265.142 528.011 265.478C528.149 265.813 528.414 266.065 528.756 266.187L530.168 266.688C531.302 267.091 532.035 268.129 532.034 269.333C532.034 270.535 531.302 271.573 530.168 271.976L528.756 272.48C528.414 272.601 528.149 272.852 528.011 273.188C527.871 273.523 527.88 273.889 528.035 274.217L528.679 275.573C529.195 276.659 528.981 277.909 528.131 278.76C527.28 279.61 526.027 279.827 524.939 279.312L523.586 278.668C523.258 278.512 522.892 278.502 522.556 278.642C522.221 278.78 521.97 279.045 521.847 279.388L521.345 280.8C520.942 281.934 519.905 282.666 518.701 282.666ZM514.36 277.416C514.672 277.416 514.983 277.477 515.277 277.599C515.902 277.858 516.39 278.372 516.618 279.01L517.12 280.423C517.412 281.245 518.13 281.537 518.701 281.537C519.274 281.537 519.99 281.245 520.282 280.423L520.784 279.01C521.011 278.372 521.499 277.858 522.125 277.599C522.75 277.339 523.46 277.357 524.071 277.648L525.425 278.291C526.213 278.666 526.927 278.368 527.331 277.963C527.735 277.559 528.034 276.846 527.66 276.057L527.015 274.701C526.725 274.09 526.708 273.381 526.967 272.756C527.225 272.13 527.74 271.642 528.378 271.415L529.79 270.912C530.612 270.62 530.907 269.905 530.907 269.333C530.907 268.761 530.613 268.044 529.79 267.752L528.378 267.251C527.74 267.024 527.225 266.535 526.967 265.909C526.708 265.284 526.725 264.575 527.015 263.963L527.66 262.609C528.034 261.821 527.735 261.107 527.331 260.703C526.927 260.298 526.213 259.998 525.425 260.373L524.071 261.018C523.46 261.308 522.75 261.326 522.125 261.066C521.5 260.807 521.011 260.294 520.784 259.656L520.282 258.243C519.99 257.421 519.274 257.127 518.701 257.127C518.13 257.127 517.412 257.421 517.12 258.243L516.618 259.656C516.39 260.294 515.903 260.807 515.277 261.066C514.653 261.326 513.942 261.308 513.331 261.018L511.976 260.373C511.188 259.998 510.475 260.298 510.071 260.703C509.667 261.107 509.368 261.821 509.743 262.609L510.386 263.963C510.676 264.575 510.693 265.284 510.434 265.909C510.176 266.535 509.662 267.024 509.024 267.251L507.611 267.752C506.788 268.044 506.496 268.761 506.496 269.333C506.496 269.905 506.789 270.62 507.611 270.912L509.024 271.415C509.662 271.642 510.176 272.13 510.434 272.756C510.693 273.381 510.676 274.09 510.386 274.701L509.743 276.057C509.368 276.846 509.667 277.559 510.071 277.963C510.475 278.368 511.188 278.666 511.976 278.291L513.331 277.648C513.655 277.493 514.008 277.416 514.36 277.416ZM518.701 275.375C515.37 275.375 512.659 272.664 512.659 269.333C512.659 266.002 515.37 263.29 518.701 263.29C522.033 263.29 524.743 266.002 524.743 269.333C524.743 272.664 522.033 275.375 518.701 275.375ZM518.701 264.419C515.993 264.419 513.788 266.624 513.788 269.333C513.788 272.042 515.993 274.246 518.701 274.246C521.411 274.246 523.614 272.042 523.614 269.333C523.614 266.624 521.411 264.419 518.701 264.419Z" fill="#4FE6E8"/>
<path d="M305.717 65.1705C304.514 65.1705 303.476 64.4395 303.072 63.3055L302.57 61.8925C302.448 61.5495 302.197 61.2845 301.862 61.1465C301.526 61.0065 301.159 61.0165 300.832 61.1725L299.479 61.8165C298.391 62.3325 297.138 62.1145 296.287 61.2645C295.437 60.4135 295.222 59.1635 295.738 58.0765L296.382 56.7225C296.537 56.3945 296.547 56.0285 296.407 55.6935C296.269 55.3575 296.004 55.1055 295.661 54.9845L294.25 54.4805C293.116 54.0775 292.384 53.0395 292.384 51.8375C292.383 50.6335 293.116 49.5965 294.25 49.1935L295.661 48.6915C296.004 48.5695 296.269 48.3175 296.407 47.9825C296.547 47.6465 296.537 47.2805 296.382 46.9515L295.738 45.5975C295.222 44.5105 295.437 43.2605 296.287 42.4095C297.139 41.5595 298.391 41.3435 299.479 41.8595L300.832 42.5015C301.16 42.6575 301.526 42.6665 301.862 42.5275C302.197 42.3895 302.448 42.1245 302.57 41.7825L303.072 40.3685C303.476 39.2355 304.514 38.5045 305.717 38.5045C306.921 38.5045 307.958 39.2355 308.362 40.3685L308.863 41.7825C308.985 42.1245 309.237 42.3895 309.572 42.5275C309.907 42.6675 310.274 42.6575 310.602 42.5015L311.955 41.8595C313.044 41.3435 314.295 41.5595 315.147 42.4095C315.997 43.2605 316.211 44.5105 315.695 45.5975L315.052 46.9525C314.897 47.2805 314.887 47.6465 315.027 47.9825C315.165 48.3175 315.43 48.5695 315.773 48.6915L317.184 49.1935C318.318 49.5965 319.051 50.6335 319.05 51.8375C319.05 53.0395 318.318 54.0775 317.184 54.4805L315.773 54.9845C315.43 55.1055 315.165 55.3575 315.027 55.6935C314.887 56.0285 314.897 56.3945 315.052 56.7225L315.695 58.0775C316.211 59.1635 315.997 60.4135 315.147 61.2645C314.295 62.1145 313.043 62.3315 311.955 61.8165L310.602 61.1725C310.274 61.0165 309.908 61.0065 309.572 61.1465C309.237 61.2845 308.985 61.5495 308.863 61.8925L308.362 63.3055C307.958 64.4395 306.921 65.1705 305.717 65.1705ZM301.376 59.9205C301.688 59.9205 302 59.9815 302.293 60.1035C302.919 60.3625 303.407 60.8765 303.634 61.5145L304.136 62.9275C304.428 63.7495 305.145 64.0425 305.717 64.0425C306.29 64.0425 307.006 63.7495 307.298 62.9275L307.799 61.5145C308.027 60.8765 308.515 60.3625 309.141 60.1035C309.766 59.8435 310.476 59.8615 311.087 60.1525L312.441 60.7955C313.229 61.1705 313.943 60.8725 314.347 60.4675C314.751 60.0635 315.05 59.3495 314.675 58.5615L314.031 57.2065C313.741 56.5955 313.725 55.8865 313.984 55.2605C314.242 54.6355 314.756 54.1475 315.394 53.9205L316.807 53.4175C317.629 53.1255 317.921 52.4095 317.921 51.8375C317.921 51.2655 317.63 50.5485 316.807 50.2565L315.394 49.7555C314.756 49.5285 314.242 49.0395 313.984 48.4135C313.725 47.7885 313.741 47.0795 314.031 46.4675L314.675 45.1135C315.05 44.3255 314.751 43.6115 314.347 43.2075C313.943 42.8025 313.229 42.5035 312.441 42.8785L311.087 43.5225C310.476 43.8125 309.766 43.8315 309.141 43.5715C308.516 43.3125 308.027 42.7985 307.799 42.1605L307.298 40.7475C307.006 39.9255 306.29 39.6315 305.717 39.6315C305.145 39.6315 304.428 39.9255 304.136 40.7475L303.634 42.1605C303.407 42.7985 302.918 43.3125 302.293 43.5715C301.668 43.8315 300.958 43.8125 300.347 43.5225L298.992 42.8785C298.204 42.5035 297.491 42.8025 297.087 43.2075C296.683 43.6115 296.384 44.3255 296.759 45.1135L297.402 46.4675C297.692 47.0795 297.709 47.7885 297.45 48.4135C297.192 49.0395 296.678 49.5285 296.04 49.7555L294.627 50.2565C293.804 50.5485 293.513 51.2655 293.513 51.8375C293.513 52.4095 293.805 53.1255 294.627 53.4175L296.04 53.9205C296.678 54.1475 297.192 54.6355 297.45 55.2605C297.709 55.8865 297.692 56.5955 297.402 57.2065L296.759 58.5615C296.384 59.3495 296.683 60.0635 297.087 60.4675C297.491 60.8725 298.204 61.1705 298.992 60.7955L300.347 60.1525C300.671 59.9975 301.024 59.9205 301.376 59.9205ZM305.717 57.8795C302.386 57.8795 299.675 55.1685 299.675 51.8375C299.675 48.5065 302.386 45.7955 305.717 45.7955C309.049 45.7955 311.759 48.5065 311.759 51.8375C311.759 55.1685 309.049 57.8795 305.717 57.8795ZM305.717 46.9235C303.008 46.9235 300.804 49.1285 300.804 51.8375C300.804 54.5465 303.008 56.7505 305.717 56.7505C308.427 56.7505 310.63 54.5465 310.63 51.8375C310.63 49.1285 308.427 46.9235 305.717 46.9235Z" fill="#4FE6E8"/>
<path d="M477.339 79.3725C477.205 79.3725 477.071 79.3265 476.964 79.2305C476.732 79.0235 476.71 78.6675 476.917 78.4345C478.184 77.0075 480.004 76.1885 481.911 76.1885C483.693 76.1885 485.37 76.8835 486.632 78.1445C486.852 78.3645 486.852 78.7225 486.632 78.9425C486.411 79.1625 486.054 79.1625 485.833 78.9425C484.785 77.8945 483.393 77.3175 481.911 77.3175C480.326 77.3175 478.814 77.9975 477.761 79.1835C477.65 79.3095 477.494 79.3725 477.339 79.3725Z" fill="#4FE6E8"/>
<path d="M471.282 74.5125C471.141 74.5125 471.001 74.4605 470.891 74.3555C470.667 74.1405 470.659 73.7845 470.874 73.5585C473.814 70.4855 477.775 68.7925 482.027 68.7925C486.149 68.7925 490.024 70.3965 492.938 73.3115C493.159 73.5325 493.159 73.8895 492.938 74.1105C492.718 74.3305 492.361 74.3305 492.14 74.1105C489.439 71.4095 485.847 69.9205 482.027 69.9205C478.086 69.9205 474.415 71.4905 471.69 74.3395C471.579 74.4545 471.43 74.5125 471.282 74.5125Z" fill="#4FE6E8"/>
<path d="M465.853 69.1815C465.711 69.1815 465.57 69.1285 465.46 69.0235C465.236 68.8065 465.23 68.4505 465.447 68.2255C469.835 63.6685 475.735 61.1595 482.06 61.1595C488.22 61.1595 494.011 63.5575 498.368 67.9145C498.588 68.1355 498.588 68.4925 498.368 68.7125C498.147 68.9335 497.79 68.9335 497.57 68.7125C493.426 64.5695 487.918 62.2875 482.06 62.2875C476.044 62.2875 470.432 64.6745 466.258 69.0085C466.148 69.1235 466 69.1815 465.853 69.1815Z" fill="#4FE6E8"/>
<path d="M481.863 90.0444C480.245 90.0444 478.926 88.7274 478.926 87.1084C478.926 85.4884 480.245 84.1704 481.863 84.1704C483.482 84.1704 484.799 85.4884 484.799 87.1084C484.799 88.7274 483.482 90.0444 481.863 90.0444ZM481.863 85.2994C480.867 85.2994 480.056 86.1114 480.056 87.1084C480.056 88.1054 480.867 88.9154 481.863 88.9154C482.86 88.9154 483.671 88.1054 483.671 87.1084C483.671 86.1114 482.86 85.2994 481.863 85.2994Z" fill="#4FE6E8"/>
<path d="M145.176 112.149C145.176 112.149 142.33 122.865 151.437 127.91C152.144 128.302 157.015 124.688 157.015 124.688C157.015 124.688 157.546 127.036 158.204 128.79C158.45 129.447 156.843 129.447 157.115 130.048C160.094 136.633 172.886 129.673 168.232 127.484C164.238 125.606 162.812 120.517 162.812 120.517C162.812 120.517 152.499 106.251 145.176 112.149Z" fill="#D19474"/>
<path d="M144.806 114.637C144.806 114.637 145.472 113.226 147.202 112.383C150.608 110.723 156.146 114 156.146 114C157.41 116.199 159.555 118.877 162.813 120.517C165.139 118.712 165.704 117.152 165.77 116.034C165.843 114.792 165.266 114.51 165.017 112.271C164.74 109.769 165.359 109.241 164.735 108.226C163.949 106.949 162.854 107.609 161.443 106.064C160.36 104.878 160.455 103.887 159.28 103.336C158.896 103.155 158.423 103.119 157.493 103.054C155.531 102.915 155.452 103.179 154.295 103.054C152.474 102.857 152.166 102.152 150.25 102.113C149.837 102.104 149.347 102.097 148.728 102.239C147.284 102.567 146.914 103.498 145.747 103.933C143.154 104.899 141.894 104.057 141.129 105.074C140.32 106.149 141.599 107.258 140.793 109.241C140.201 110.698 139.19 110.887 139.259 111.876C139.344 113.094 140.952 113.888 141.455 114.137C142.861 114.832 144.203 114.724 144.806 114.637Z" fill="black"/>
<path d="M155.307 114.165C155.21 113.992 155.211 113.784 155.31 113.612C155.654 113.02 156.57 111.797 157.87 112.709C159.298 113.711 158.675 115.962 157.633 116.925C157.371 117.167 156.948 117.089 156.773 116.778L155.307 114.165Z" fill="#D19474"/>
<path d="M144.001 140.077C144.001 140.077 148.139 126.776 157.514 129.504C157.514 129.504 158.393 131.517 163.189 131.517C167.986 131.517 168.232 127.484 168.232 127.484C168.232 127.484 176.499 127.026 178.568 130.883C180.637 134.739 181.437 142.052 181.437 142.052L144.001 140.077Z" fill="#50D8E8"/>
<path d="M467.214 468.293C467.214 474.867 379.69 480.196 271.723 480.196C163.757 480.196 76.233 474.867 76.233 468.293C76.233 461.719 163.757 456.389 271.723 456.389C379.69 456.389 467.214 461.719 467.214 468.293Z" fill="black" fill-opacity="0.12"/>
<path d="M333.296 453.015H210.647C210.647 453.015 234.766 429.358 231.356 412.083H312.586C309.525 440.322 333.296 453.015 333.296 453.015Z" fill="#6C647B"/>
<path d="M443.26 412.082H100.684C87.4539 412.082 76.731 401.357 76.731 388.128V164.313C76.731 151.083 87.4539 140.359 100.684 140.359H443.26C456.489 140.359 467.213 151.083 467.213 164.313V388.128C467.213 401.357 456.489 412.082 443.26 412.082Z" fill="#6C647B"/>
<path d="M331.209 468.306H212.734C210.089 468.306 207.944 466.161 207.944 463.516V457.807C207.944 455.161 210.089 453.016 212.734 453.016H331.209C333.855 453.016 336 455.161 336 457.807V463.516C336 466.161 333.855 468.306 331.209 468.306Z" fill="#854FE8"/>
<path d="M448.697 392.481H95.246C93.923 392.481 92.851 391.408 92.851 390.085V162.357C92.851 161.034 93.923 159.961 95.246 159.961H448.697C450.02 159.961 451.093 161.034 451.093 162.357V390.085C451.093 391.408 450.02 392.481 448.697 392.481Z" fill="#CBD9F7"/>
<path d="M437.511 192.709H105.059C102.423 192.709 100.286 190.572 100.286 187.937V172.103C100.286 169.467 102.423 167.331 105.059 167.331H437.511C440.147 167.331 442.283 169.467 442.283 172.103V187.937C442.283 190.572 440.147 192.709 437.511 192.709Z" fill="#EAEFFA"/>
<path d="M254.008 183.596H216.434C214.951 183.596 213.75 182.394 213.75 180.912V180.637C213.75 179.154 214.951 177.952 216.434 177.952H254.008C255.49 177.952 256.692 179.154 256.692 180.637V180.912C256.692 182.394 255.49 183.596 254.008 183.596Z" fill="#CBD9F7"/>
<path d="M313.313 183.708H276.014C274.457 183.708 273.193 182.445 273.193 180.886C273.193 179.328 274.457 178.064 276.014 178.064H313.313C314.872 178.064 316.135 179.328 316.135 180.886C316.135 182.445 314.872 183.708 313.313 183.708Z" fill="#CBD9F7"/>
<path d="M194.428 183.708H157.128C155.57 183.708 154.307 182.445 154.307 180.886C154.307 179.328 155.57 178.064 157.128 178.064H194.428C195.986 178.064 197.249 179.328 197.249 180.886C197.249 182.445 195.986 183.708 194.428 183.708Z" fill="#CBD9F7"/>
<path d="M372.757 183.708H335.458C333.9 183.708 332.637 182.445 332.637 180.886C332.637 179.328 333.9 178.064 335.458 178.064H372.757C374.316 178.064 375.579 179.328 375.579 180.886C375.579 182.445 374.316 183.708 372.757 183.708Z" fill="#CBD9F7"/>
<path d="M432.2 183.167H394.901C393.343 183.167 392.079 181.903 392.079 180.345C392.079 178.787 393.343 177.523 394.901 177.523H432.2C433.759 177.523 435.021 178.787 435.021 180.345C435.021 181.903 433.759 183.167 432.2 183.167Z" fill="#CBD9F7"/>
<path d="M115.167 187.785C110.878 187.785 107.4 184.308 107.4 180.019C107.4 175.731 110.878 172.255 115.167 172.255C119.456 172.255 122.932 175.731 122.932 180.019C122.932 184.308 119.456 187.785 115.167 187.785Z" fill="#4FE6E8"/>
<path d="M202.201 385.194H105.845C102.531 385.194 99.845 382.507 99.845 379.194V290.695C99.845 287.381 102.531 284.695 105.845 284.695H202.201C205.514 284.695 208.201 287.381 208.201 290.695V379.194C208.201 382.507 205.514 385.194 202.201 385.194Z" fill="#EAEFFA"/>
<path d="M199.681 356.669H109.256C107.988 356.669 106.952 355.632 106.952 354.364V354.128C106.952 352.86 107.988 351.823 109.256 351.823H199.681C200.948 351.823 201.984 352.86 201.984 354.128V354.364C201.984 355.632 200.948 356.669 199.681 356.669Z" fill="#CBD9F7"/>
<path d="M199.681 366.19H109.256C107.988 366.19 106.952 365.153 106.952 363.885V363.649C106.952 362.381 107.988 361.344 109.256 361.344H199.681C200.948 361.344 201.984 362.381 201.984 363.649V363.885C201.984 365.153 200.948 366.19 199.681 366.19Z" fill="#CBD9F7"/>
<path d="M148.048 375.711H109.256C107.988 375.711 106.951 374.674 106.951 373.406V373.17C106.951 371.902 107.988 370.865 109.256 370.865H148.048C149.316 370.865 150.353 371.902 150.353 373.17V373.406C150.353 374.674 149.316 375.711 148.048 375.711Z" fill="#CBD9F7"/>
<path d="M195.975 342.939H112.951C109.651 342.939 106.951 340.24 106.951 336.939V299.64C106.951 296.34 109.651 293.641 112.951 293.641H195.975C199.275 293.641 201.975 296.34 201.975 299.64V336.939C201.975 340.24 199.275 342.939 195.975 342.939Z" fill="#5181E8"/>
<path d="M317.693 385.194H223.071C219.279 385.194 216.204 382.12 216.204 378.328V291.563C216.204 287.77 219.279 284.695 223.071 284.695H317.693C321.486 284.695 324.56 287.77 324.56 291.563V378.328C324.56 382.12 321.486 385.194 317.693 385.194Z" fill="#EAEFFA"/>
<path d="M316.04 356.669H225.615C224.348 356.669 223.311 355.632 223.311 354.364V354.128C223.311 352.86 224.348 351.823 225.615 351.823H316.04C317.307 351.823 318.344 352.86 318.344 354.128V354.364C318.344 355.632 317.307 356.669 316.04 356.669Z" fill="#CBD9F7"/>
<path d="M316.04 366.19H225.615C224.348 366.19 223.311 365.153 223.311 363.885V363.649C223.311 362.381 224.348 361.344 225.615 361.344H316.04C317.307 361.344 318.344 362.381 318.344 363.649V363.885C318.344 365.153 317.307 366.19 316.04 366.19Z" fill="#CBD9F7"/>
<path d="M298.778 375.711H225.734C224.402 375.711 223.311 374.62 223.311 373.288C223.311 371.955 224.402 370.865 225.734 370.865H298.778C300.11 370.865 301.2 371.955 301.2 373.288C301.2 374.62 300.11 375.711 298.778 375.711Z" fill="#CBD9F7"/>
<path d="M312.335 342.939H229.311C226.011 342.939 223.311 340.24 223.311 336.939V299.64C223.311 296.34 226.011 293.641 229.311 293.641H312.335C315.635 293.641 318.335 296.34 318.335 299.64V336.939C318.335 340.24 315.635 342.939 312.335 342.939Z" fill="#854FE8"/>
<path d="M434.992 385.194H340.371C336.578 385.194 333.503 382.12 333.503 378.328V291.563C333.503 287.77 336.578 284.695 340.371 284.695H434.992C438.784 284.695 441.859 287.77 441.859 291.563V378.328C441.859 382.12 438.784 385.194 434.992 385.194Z" fill="#EAEFFA"/>
<path d="M433.339 356.669H342.914C341.647 356.669 340.61 355.632 340.61 354.364V354.128C340.61 352.86 341.647 351.823 342.914 351.823H433.339C434.606 351.823 435.643 352.86 435.643 354.128V354.364C435.643 355.632 434.606 356.669 433.339 356.669Z" fill="#CBD9F7"/>
<path d="M433.339 366.19H342.914C341.647 366.19 340.61 365.153 340.61 363.885V363.649C340.61 362.381 341.647 361.344 342.914 361.344H433.339C434.606 361.344 435.643 362.381 435.643 363.649V363.885C435.643 365.153 434.606 366.19 433.339 366.19Z" fill="#CBD9F7"/>
<path d="M381.707 375.711H342.915C341.647 375.711 340.61 374.674 340.61 373.406V373.17C340.61 371.902 341.647 370.865 342.915 370.865H381.707C382.975 370.865 384.012 371.902 384.012 373.17V373.406C384.012 374.674 382.975 375.711 381.707 375.711Z" fill="#CBD9F7"/>
<path d="M429.634 342.939H346.61C343.31 342.939 340.61 340.24 340.61 336.939V299.64C340.61 296.34 343.31 293.641 346.61 293.641H429.634C432.934 293.641 435.634 296.34 435.634 299.64V336.939C435.634 340.24 432.934 342.939 429.634 342.939Z" fill="#4FE6E8"/>
<path d="M436.156 276.22H105.99C102.841 276.22 100.287 273.668 100.287 270.518V206.072C100.287 202.922 102.841 200.368 105.99 200.368H436.156C439.305 200.368 441.859 202.922 441.859 206.072V270.518C441.859 273.668 439.305 276.22 436.156 276.22Z" fill="#EAEFFA"/>
<path d="M332.179 231.848H211.765C210.792 231.848 210.003 231.06 210.003 230.087C210.003 229.113 210.792 228.324 211.765 228.324H332.179C333.153 228.324 333.941 229.113 333.941 230.087C333.941 231.06 333.153 231.848 332.179 231.848Z" fill="#CBD9F7"/>
<path d="M314.533 240.455H211.766C210.792 240.455 210.003 239.667 210.003 238.694C210.003 237.72 210.792 236.931 211.766 236.931H314.533C315.507 236.931 316.295 237.72 316.295 238.694C316.295 239.667 315.507 240.455 314.533 240.455Z" fill="#CBD9F7"/>
<path d="M310.348 219.421H233.596C231.726 219.421 230.21 217.905 230.21 216.035C230.21 214.165 231.726 212.649 233.596 212.649H310.348C312.218 212.649 313.735 214.165 313.735 216.035C313.735 217.905 312.218 219.421 310.348 219.421Z" fill="#5181E8"/>
<path d="M286.357 261.343H257.588C254.636 261.343 252.219 258.928 252.219 255.976V255.425C252.219 252.472 254.636 250.057 257.588 250.057H286.357C289.309 250.057 291.725 252.472 291.725 255.425V255.976C291.725 258.928 289.309 261.343 286.357 261.343Z" fill="#4FE6E8"/>
<path d="M312.378 419.379H231.409C231.409 419.379 231.683 416.76 231.683 415.883C231.683 413.823 231.357 412.083 231.357 412.083H312.587C312.587 412.083 312.33 415.009 312.33 415.883C312.33 416.757 312.378 419.379 312.378 419.379Z" fill="#CBD9F7"/>
<path d="M169.692 138.355C168.83 138.833 168.332 141.931 168.332 141.931C168.266 142.151 168.477 142.364 168.795 142.397C169.971 142.517 172.73 142.856 173.071 142.485C174.402 141.039 175.452 138.626 175.094 138.355C174.096 137.603 170.38 137.975 169.692 138.355Z" fill="#D19474"/>
<path d="M136.678 138.682C135.816 139.159 135.317 142.258 135.317 142.258C135.252 142.477 135.463 142.691 135.781 142.723C136.957 142.844 139.716 143.183 140.057 142.812C141.388 141.367 142.438 138.952 142.08 138.682C141.082 137.929 137.365 138.301 136.678 138.682Z" fill="#D19474"/>
<path d="M373.084 520.955C373.084 522.885 355.737 524.448 334.339 524.448C312.94 524.448 295.594 522.885 295.594 520.955C295.594 519.025 312.94 517.462 334.339 517.462C355.737 517.462 373.084 519.025 373.084 520.955Z" fill="#5181E8" fill-opacity="0.2"/>
<path d="M358.558 405.177C358.558 405.177 367.329 419.508 366.085 421.885C364.843 424.261 341.131 425.846 341.131 425.846L341.635 421.93C341.635 421.93 358.781 419.8 359.185 419.134C359.59 418.468 350.993 405.068 350.993 405.068L358.558 405.177Z" fill="#D19474"/>
<path d="M365.308 416.175L358.465 418.362L353.667 407.125L360.376 405.524L365.308 416.175Z" fill="#50D8E8"/>
<path d="M300.21 380.461L300.915 379.509L296.164 375.991L295.459 376.942L300.21 380.461Z" fill="#6C647B"/>
<path d="M367.505 433.824L371.607 428.284C372.332 427.304 372.126 425.923 371.147 425.197L314.697 383.396L307.969 392.484L364.418 434.284C365.398 435.01 366.779 434.803 367.505 433.824Z" fill="#5181E8"/>
<path d="M314.688 383.41L300.137 377.67L298.258 380.207L307.959 392.498L314.688 383.41Z" fill="#5181E8"/>
<path d="M330.998 409.537L337.717 400.464L314.687 383.411L307.969 392.485L330.998 409.537Z" fill="#6C647B"/>
<path d="M367.505 433.824L371.597 428.299C372.322 427.319 372.116 425.936 371.137 425.211L365.233 420.839L358.514 429.912L364.418 434.284C365.398 435.01 366.779 434.803 367.505 433.824Z" fill="#6C647B"/>
<path d="M352.85 394.807C355.39 394.807 358.776 398.68 358.023 404.982C357.271 411.284 354.731 425.675 354.731 425.675H337.142C337.142 425.675 334.414 400.561 336.484 398.585C338.553 396.611 341.092 394.807 341.092 394.807H352.85Z" fill="#50D8E8"/>
<path d="M335.841 409.568C335.841 409.568 324.099 421.117 321.678 419.963C319.257 418.808 311.223 399.456 311.223 399.456L314.24 398.839C314.24 398.839 322.851 412.846 323.531 413.226C324.212 413.606 335.672 402.004 335.672 402.004L335.841 409.568Z" fill="#D19474"/>
<path d="M344.29 394.466C338.086 391.436 331.826 404.345 323.922 412.319L326.734 418.595L345.221 401.137C345.221 401.137 345.602 395.107 344.29 394.466Z" fill="#50D8E8"/>
<path d="M334.414 376.858C334.414 376.858 332.509 382.42 335.708 388.337C335.902 388.698 338.382 388.287 339.218 389.227C340.054 390.168 341.28 394.259 341.28 394.259L345.701 384.759L339.218 374.413L334.414 376.858Z" fill="#D19474"/>
<path d="M337.422 370.641C339.722 369.745 341.797 369.057 343.04 369.24C344.565 369.463 346.907 370.801 348.764 372.55C349.91 373.63 351.803 373.237 352.963 374.083C353.901 374.768 354.102 376.668 355.064 377.65C357.153 379.783 359.548 379.397 360.387 381.091C361.444 383.226 359.172 384.821 359.865 388.24C360.259 390.184 360.957 389.441 362.122 392.466C363.443 395.897 360.05 397.27 361.616 398.585C362.837 399.611 365.066 399.733 365.68 400.769C366.418 402.014 366.128 404.497 364.365 405.31C363.064 405.91 361.419 405.812 360.253 406.298C358.547 407.01 359.215 408.293 357.29 409.45C355.984 410.234 352.523 410.525 351.505 409.12C350.439 407.648 351.386 406.214 350.376 405.358C349.065 404.245 346.818 406.119 345.579 405.076C344.275 403.976 345.903 401.161 344.545 399.996C343.337 398.962 341.122 400.396 340.595 399.62C339.981 398.719 339.385 396.716 339.776 393.695C339.997 391.986 341.509 392.679 340.077 388.427C339.083 385.478 340.351 384.312 339.371 382.596C338.481 381.033 337.62 379.651 336.361 378.927C333.412 377.233 333.428 378.265 332.735 375.353C332.129 372.814 335.341 371.453 337.422 370.641Z" fill="black"/>
<path d="M337.993 381.923C337.971 381.76 338.034 381.599 338.164 381.496C338.61 381.143 339.689 380.474 340.42 381.575C341.221 382.785 340.054 384.339 338.954 384.768C338.678 384.876 338.373 384.687 338.333 384.393L337.993 381.923Z" fill="#D19474"/>
<path d="M345.419 425.676H354.166C354.166 425.676 360.377 432.918 359.527 439.455C358.625 446.402 357.356 517 357.356 517L351.744 516.89L347.201 461.074L345.419 425.676Z" fill="#D19474"/>
<path d="M352.02 440.672C349.024 449.174 337.152 516.913 337.152 516.913H331.425L339.1 426.021L352.02 440.672Z" fill="#D19474"/>
<path d="M354.73 425.675C354.73 425.675 360.376 430.473 360.376 438.374C360.376 446.352 358.988 467.051 359.339 472.092C359.363 472.425 359.101 472.704 358.766 472.704H334.137C333.713 472.704 333.38 472.344 333.415 471.922L337.141 425.675H354.73Z" fill="#696AE8"/>
<path d="M347.576 519.273C349.104 518.646 350.692 517.839 351.744 516.889C351.958 516.696 352.167 516.528 352.371 516.381L354.232 517C354.232 517 350.559 519.707 347.576 519.273Z" fill="#D19474"/>
<path d="M343.766 520.578C344.579 520.349 346.048 519.901 347.577 519.274C349.695 519.582 351.663 518.307 352.626 517.541C353.064 517.193 353.6 517 354.158 517H357.356V521.038C357.356 521.544 357.018 521.954 356.6 521.954H355.454C355.053 521.954 354.727 521.628 354.727 521.226V520.159C354.727 520.159 353.925 521.149 352.208 521.818C351.962 521.914 351.697 521.954 351.433 521.954H343.112V521.446C343.112 521.042 343.377 520.687 343.766 520.578Z" fill="black"/>
<path d="M327.289 519.273C328.817 518.646 330.405 517.839 331.457 516.889C331.671 516.696 331.879 516.528 332.082 516.381L337.067 517C337.067 517 330.272 519.707 327.289 519.273Z" fill="#D19474"/>
<path d="M323.477 520.578C324.29 520.349 325.759 519.901 327.288 519.274C329.637 519.615 332.703 518.009 333.9 517.31C334.246 517.108 334.638 517 335.04 517H337.067V521.038C337.067 521.544 336.728 521.954 336.31 521.954H335.165C334.763 521.954 334.438 521.628 334.438 521.226V520.159C334.438 520.159 333.636 521.149 331.919 521.818C331.673 521.914 331.408 521.954 331.144 521.954H322.823V521.446C322.823 521.042 323.088 520.687 323.477 520.578Z" fill="black"/>
<path d="M312.06 395.657C312.841 396.261 312.858 393.922 313.343 393.776C313.83 393.631 314.289 398.602 314.241 398.84C313.231 398.972 312.305 399.381 311.223 399.456C311.248 399.242 310.645 398.687 310.213 398.32C309.942 398.091 309.766 397.771 309.72 397.42C309.56 396.201 309.138 393.364 308.646 392.986C308.017 392.503 310.73 394.63 312.06 395.657Z" fill="#D19474"/>
<path d="M392.627 125.116C392.627 125.116 394.022 123.792 395.039 122.276C396.056 120.76 415.035 122.276 415.035 122.276C415.035 122.276 415.506 123.956 416.667 125.255C418.121 126.882 406.136 134.478 406.136 134.478L392.627 125.116Z" fill="#696AE8"/>
<path d="M406.136 66.7004C406.136 66.7004 402.659 65.8664 400.435 67.5344C398.21 69.2024 399.438 68.9244 398.094 69.6894C396.75 70.4544 393.135 71.9834 392.857 74.5554C392.579 77.1274 393.761 78.6574 393.552 80.6034C393.344 82.5504 389.37 83.7834 389.659 87.7634C389.845 90.3124 392.441 90.7764 392.441 90.7764L403.192 90.8804L406.136 66.7004Z" fill="black"/>
<path d="M405.476 72.5045C405.476 72.5045 402.266 65.4255 409.125 65.5175C415.984 65.6105 414.687 73.9525 414.872 75.9915C415.057 78.0305 424.001 84.0785 418.963 89.8255C418.523 90.3275 418.151 90.8795 417.482 90.8795H408.187L405.476 72.5045Z" fill="black"/>
<path d="M388.37 103.818C388.37 103.818 381.884 116.107 381.146 116.32C380.444 116.523 368.58 113.704 367.417 113.426C367.207 113.255 366.943 113.088 366.614 112.93C366.614 112.93 365.584 112.469 363.546 110.329C361.536 108.219 362.882 111.263 362.851 111.348C362.516 112.282 360.513 108.143 360.513 108.143C360.421 107.997 360.226 107.958 360.086 108.058C359.568 108.432 358.321 109.275 358.387 109.608C359.379 114.649 363.654 115.319 364.772 115.819C365.04 115.939 365.312 116.011 365.581 116.046C367.724 116.946 381.157 122.52 383.444 121.695C385.93 120.799 393.182 107.446 393.182 107.446L388.37 103.818Z" fill="#D19474"/>
<path d="M400.634 91.8645C400.634 91.8645 395.592 92.1205 393.09 94.3445C390.587 96.5695 386.323 106.891 386.323 106.891L391.916 110.367L394.491 105.49L400.634 91.8645Z" fill="#50D8E8"/>
<path d="M450.096 108.058C449.956 107.957 449.761 107.997 449.669 108.144C449.669 108.144 447.666 112.282 447.331 111.348C447.301 111.263 448.647 108.22 446.637 110.33C444.599 112.47 443.569 112.93 443.569 112.93C443.24 113.087 442.976 113.255 442.766 113.426C441.602 113.704 429.738 116.524 429.035 116.321C428.298 116.107 421.813 103.818 421.813 103.818L417 107.446C417 107.446 424.253 120.8 426.739 121.696C429.025 122.52 442.458 116.947 444.602 116.046C444.87 116.012 445.143 115.939 445.41 115.819C446.529 115.319 450.804 114.649 451.795 109.608C451.861 109.275 450.615 108.432 450.096 108.058Z" fill="#D19474"/>
<path d="M409.549 91.8645C409.549 91.8645 414.589 92.1205 417.092 94.3445C419.595 96.5695 423.859 106.891 423.859 106.891L418.266 110.367L415.691 105.49L409.549 91.8645Z" fill="#50D8E8"/>
<path d="M409.445 91.8584L405.062 91.7334H405.037H405.011L400.629 91.8584C398.125 91.8584 393.705 98.8864 394.446 105.096C395.188 111.306 395.039 122.277 395.039 122.277H405.011H405.062H415.035C415.035 122.277 414.885 111.306 415.627 105.096C416.369 98.8864 411.949 91.8584 409.445 91.8584Z" fill="#50D8E8"/>
<path d="M402.232 87.7635C402.232 87.7635 402.163 91.8665 400.633 91.8665C400.633 91.8665 401.815 95.3415 404.804 95.1335C407.794 94.9245 409.531 91.6565 409.531 91.6565C409.531 91.6565 408.075 91.0305 407.517 87.2075L402.232 87.7635Z" fill="#B98567"/>
<path d="M410.098 77.8225C409.369 74.9725 404.885 70.4885 404.885 70.4885C404.885 70.4885 401.164 77.6855 398.613 79.1115C398.613 79.1115 398.614 79.1225 398.616 79.1385C398.032 79.0495 397.28 79.1405 397.051 80.0935C396.729 81.4325 398.202 82.4475 399.35 82.5455C400.202 85.6105 401.884 89.6165 404.862 89.6165C409.681 89.6165 410.965 81.2085 410.098 77.8225Z" fill="#D19474"/>
<path d="M420.993 134.062C420.993 134.062 432.69 134.488 433.084 135.565C433.477 136.642 433.708 139.514 432.805 139.606C431.901 139.699 421.155 140.742 419.209 139.93C417.262 139.119 420.993 134.062 420.993 134.062Z" fill="black"/>
<path d="M373.365 124.72C373.891 123.028 375.749 120.025 379.29 120.855C382.83 121.685 420.513 132.729 421.188 134.246C421.862 135.763 421.441 140.401 419.502 140.233C417.563 140.064 375.443 131.914 373.842 129.722C372.467 127.84 373.013 125.847 373.365 124.72Z" fill="#696AE8"/>
<path d="M390.264 134.062C390.264 134.062 378.566 134.488 378.173 135.565C377.78 136.642 377.549 139.514 378.452 139.606C379.355 139.699 390.101 140.742 392.048 139.93C393.994 139.119 390.264 134.062 390.264 134.062Z" fill="black"/>
<path d="M437.893 124.72C437.366 123.028 435.508 120.025 431.968 120.855C428.427 121.685 390.745 132.729 390.07 134.246C389.395 135.763 389.817 140.401 391.756 140.233C393.695 140.064 435.814 131.914 437.415 129.722C438.791 127.84 438.244 125.847 437.893 124.72Z" fill="#696AE8"/>
<path d="M38.564 203.962L32 199.564L36.398 193L42.962 197.398L38.564 203.962Z" fill="#4FE6E8"/>
<path d="M20.051 322.213C19.917 322.213 19.783 322.167 19.676 322.071C19.444 321.864 19.422 321.508 19.629 321.275C20.896 319.848 22.716 319.029 24.623 319.029C26.405 319.029 28.082 319.724 29.344 320.985C29.564 321.205 29.564 321.563 29.344 321.783C29.123 322.003 28.766 322.003 28.545 321.783C27.497 320.735 26.105 320.158 24.623 320.158C23.038 320.158 21.526 320.838 20.473 322.024C20.362 322.15 20.206 322.213 20.051 322.213Z" fill="#4FE6E8"/>
<path d="M13.9939 317.353C13.8529 317.353 13.7129 317.301 13.6029 317.196C13.3789 316.981 13.3709 316.625 13.5859 316.399C16.5259 313.326 20.4869 311.633 24.7389 311.633C28.8609 311.633 32.7359 313.237 35.6499 316.152C35.8709 316.373 35.8709 316.73 35.6499 316.951C35.4299 317.171 35.0729 317.171 34.8519 316.951C32.1509 314.25 28.5589 312.761 24.7389 312.761C20.7979 312.761 17.1269 314.331 14.4019 317.18C14.2909 317.295 14.1419 317.353 13.9939 317.353Z" fill="#4FE6E8"/>
<path d="M8.56495 312.022C8.42295 312.022 8.28195 311.969 8.17195 311.864C7.94795 311.647 7.94195 311.291 8.15895 311.066C12.547 306.509 18.447 304 24.772 304C30.932 304 36.723 306.398 41.08 310.755C41.3 310.976 41.3 311.333 41.08 311.553C40.859 311.774 40.502 311.774 40.282 311.553C36.138 307.41 30.63 305.128 24.772 305.128C18.756 305.128 13.144 307.515 8.96995 311.849C8.85995 311.964 8.71195 312.022 8.56495 312.022Z" fill="#4FE6E8"/>
<path d="M24.5749 332.885C22.9569 332.885 21.6379 331.568 21.6379 329.949C21.6379 328.329 22.9569 327.011 24.5749 327.011C26.1939 327.011 27.5109 328.329 27.5109 329.949C27.5109 331.568 26.1939 332.885 24.5749 332.885ZM24.5749 328.14C23.5789 328.14 22.7679 328.952 22.7679 329.949C22.7679 330.946 23.5789 331.756 24.5749 331.756C25.5719 331.756 26.3829 330.946 26.3829 329.949C26.3829 328.952 25.5719 328.14 24.5749 328.14Z" fill="#4FE6E8"/>
</svg>
