<svg width="368" height="232" viewBox="0 0 368 232" fill="none" xmlns="http://www.w3.org/2000/svg">
<g clip-path="url(#clip0_1078_104887)">
<rect x="-1" width="568" height="232" fill="url(#paint0_linear_1078_104887)"/>
<path opacity="0.6" d="M313.087 178.994C319.995 160.065 330.442 146.346 358.202 146.346C356.053 120.557 385.498 96.603 425.516 113.441C437.311 99.2442 456.477 90 478.129 90C513.892 90 542.916 115.201 543 146.346V235.67L238.443 236C226.311 198.216 260.642 165.238 313.087 178.994Z" fill="#282828"/>
<path opacity="0.6" d="M164.42 180.224C157.646 152.739 147.404 132.817 120.187 132.817C122.293 95.3708 93.4237 60.5879 54.1879 85.0372C42.6237 64.4231 23.8319 51 2.60324 51C-32.4611 51 -60.9174 87.594 -61 132.817V262.521L237.605 263C249.499 208.136 215.839 160.249 164.42 180.224Z" fill="#282828"/>
<path d="M169.961 251.567C164.043 224.859 155.094 205.501 131.313 205.501C133.153 169.115 107.928 135.317 73.6459 159.074C63.5417 139.043 47.1222 126 28.5736 126C-2.06406 126 -26.9278 161.558 -27 205.501V331.534L233.907 332C244.3 278.688 214.889 232.157 169.961 251.567Z" fill="#282828"/>
<path d="M141.239 264.455C141.437 231.4 163.088 204.727 189.755 204.727C204.739 204.727 218.073 213.155 226.984 226.327C234.707 205.873 251.473 191.636 270.945 191.636C275.5 191.636 279.923 192.455 284.081 193.927C293.982 160.136 320.122 136 350.816 136C389.892 136 421.576 175.191 421.774 223.545V325H141.239V264.455Z" fill="#282828"/>
<path d="M56.1107 32.9811L51.2852 31.437L49.4832 26.3319C49.4138 26.135 49.2029 26 48.9648 26C48.7268 26 48.5159 26.135 48.4464 26.3319L46.6451 31.437L41.8189 32.9811C41.6058 33.0495 41.4648 33.2244 41.4648 33.4208C41.4648 33.6167 41.6058 33.7925 41.8189 33.8605L46.6423 35.4041L48.4448 40.6648C48.5131 40.8636 48.7246 41 48.9648 41C49.2045 41 49.4165 40.8636 49.4849 40.6644L51.2873 35.4036L56.1113 33.86C56.3233 33.7925 56.4648 33.6172 56.4648 33.4208C56.4648 33.2248 56.3233 33.0495 56.1107 32.9811Z" fill="white"/>
<path d="M298.646 139.981L293.82 138.437L292.018 133.332C291.949 133.135 291.738 133 291.5 133C291.262 133 291.051 133.135 290.982 133.332L289.18 138.437L284.354 139.981C284.141 140.05 284 140.224 284 140.421C284 140.617 284.141 140.792 284.354 140.86L289.178 142.404L290.98 147.665C291.048 147.864 291.26 148 291.5 148C291.74 148 291.952 147.864 292.02 147.664L293.823 142.404L298.646 140.86C298.858 140.792 299 140.617 299 140.421C299 140.225 298.858 140.05 298.646 139.981Z" fill="white"/>
<path opacity="0.11" d="M333.406 22.9811L328.581 21.437L326.779 16.3319C326.709 16.135 326.499 16 326.26 16C326.022 16 325.812 16.135 325.742 16.3319L323.941 21.437L319.115 22.9811C318.901 23.0495 318.76 23.2244 318.76 23.4208C318.76 23.6167 318.901 23.7925 319.115 23.8605L323.938 25.4041L325.74 30.6648C325.809 30.8636 326.02 31 326.26 31C326.5 31 326.712 30.8636 326.781 30.6644L328.583 25.4036L333.407 23.86C333.619 23.7925 333.76 23.6172 333.76 23.4208C333.76 23.2248 333.619 23.0495 333.406 22.9811Z" fill="white"/>
<path opacity="0.11" d="M68.7125 53.7233L66.1389 52.8997L65.1778 50.177C65.1408 50.072 65.0283 50 64.9014 50C64.7744 50 64.6619 50.072 64.6249 50.177L63.6641 52.8997L61.0902 53.7233C60.9766 53.7598 60.9014 53.853 60.9014 53.9577C60.9014 54.0622 60.9766 54.156 61.0902 54.1922L63.6627 55.0155L64.624 57.8213C64.6605 57.9273 64.7732 58 64.9014 58C65.0292 58 65.1423 57.9273 65.1787 57.821L66.14 55.0153L68.7128 54.192C68.8259 54.156 68.9014 54.0625 68.9014 53.9577C68.9014 53.8532 68.8259 53.7598 68.7125 53.7233Z" fill="white"/>
</g>
<defs>
<linearGradient id="paint0_linear_1078_104887" x1="283" y1="0" x2="283" y2="744.333" gradientUnits="userSpaceOnUse">
<stop stop-color="#163B4B"/>
<stop offset="1" stop-color="#F3B761"/>
</linearGradient>
<clipPath id="clip0_1078_104887">
<rect width="368" height="232" rx="8" fill="white"/>
</clipPath>
</defs>
</svg>
