<svg width="568" height="232" viewBox="0 0 568 232" fill="none" xmlns="http://www.w3.org/2000/svg">
<g clip-path="url(#clip0_1850_147855)">
<rect x="-1" width="568" height="232" fill="url(#paint0_linear_1850_147855)"/>
<path opacity="0.6" d="M299.117 240.159C311.763 202.691 330.887 175.534 381.705 175.534C377.772 124.487 431.674 77.0703 504.931 110.4C526.523 82.2985 561.61 64 601.246 64C666.715 64 719.846 113.885 720 175.534V352.346L162.472 353C140.263 278.209 203.111 212.929 299.117 240.159Z" fill="#282828"/>
<path opacity="0.6" d="M220.539 180.224C211.088 152.739 196.796 132.817 158.819 132.817C161.758 95.3708 121.475 60.5879 66.7274 85.0372C50.5912 64.4231 24.37 51 -5.25129 51C-54.1783 51 -93.8847 87.594 -94 132.817V262.521L322.658 263C339.255 208.136 292.287 160.249 220.539 180.224Z" fill="#282828"/>
<path d="M241.085 251.567C232.579 224.859 219.716 205.501 185.537 205.501C188.182 169.115 151.927 135.317 102.655 159.074C88.1321 139.043 64.533 126 37.8738 126C-6.16051 126 -41.8963 161.558 -42 205.501V331.534L332.992 332C347.93 278.688 305.659 232.157 241.085 251.567Z" fill="#282828"/>
<path d="M218 264.455C218.306 231.4 251.723 204.727 292.884 204.727C316.011 204.727 336.591 213.155 350.345 226.327C362.265 205.873 388.144 191.636 418.199 191.636C425.229 191.636 432.055 192.455 438.473 193.927C453.756 160.136 494.101 136 541.476 136C601.791 136 650.694 175.191 651 223.545V325H218V264.455Z" fill="#282828"/>
<path d="M78.6459 32.9811L73.8203 31.437L72.0184 26.3319C71.949 26.135 71.7381 26 71.5 26C71.2619 26 71.051 26.135 70.9816 26.3319L69.1802 31.437L64.3541 32.9811C64.141 33.0495 64 33.2244 64 33.4208C64 33.6167 64.141 33.7925 64.3541 33.8605L69.1775 35.4041L70.98 40.6648C71.0483 40.8636 71.2598 41 71.5 41C71.7397 41 71.9517 40.8636 72.02 40.6644L73.8225 35.4036L78.6464 33.86C78.8585 33.7925 79 33.6172 79 33.4208C79 33.2248 78.8585 33.0495 78.6459 32.9811Z" fill="white"/>
<path d="M450.826 125.637L445.282 123.727L443.212 117.411C443.132 117.167 442.89 117 442.616 117C442.343 117 442.1 117.167 442.021 117.411L439.951 123.727L434.407 125.637C434.162 125.722 434 125.938 434 126.181C434 126.423 434.162 126.641 434.407 126.725L439.948 128.635L442.019 135.143C442.097 135.389 442.34 135.558 442.616 135.558C442.892 135.558 443.135 135.389 443.214 135.143L445.284 128.634L450.826 126.724C451.07 126.641 451.233 126.424 451.233 126.181C451.233 125.939 451.07 125.722 450.826 125.637Z" fill="white"/>
<path opacity="0.11" d="M504.943 23.4032L500.678 21.7658L499.086 16.3519C499.025 16.1432 498.838 16 498.628 16C498.418 16 498.231 16.1432 498.17 16.3519L496.578 21.7658L492.313 23.4032C492.125 23.4758 492 23.6612 492 23.8695C492 24.0773 492.125 24.2637 492.313 24.3358L496.575 25.9727L498.168 31.5516C498.229 31.7623 498.416 31.907 498.628 31.907C498.84 31.907 499.027 31.7623 499.087 31.5511L500.68 25.9722L504.943 24.3353C505.131 24.2637 505.256 24.0778 505.256 23.8695C505.256 23.6617 505.131 23.4758 504.943 23.4032Z" fill="white"/>
<path opacity="0.11" d="M101.811 53.7233L99.2375 52.8997L98.2765 50.177C98.2395 50.072 98.127 50 98 50C97.873 50 97.7605 50.072 97.7235 50.177L96.7628 52.8997L94.1889 53.7233C94.0752 53.7598 94 53.853 94 53.9577C94 54.0622 94.0752 54.156 94.1889 54.1922L96.7613 55.0155L97.7227 57.8213C97.7591 57.9273 97.8719 58 98 58C98.1278 58 98.2409 57.9273 98.2773 57.821L99.2387 55.0153L101.811 54.192C101.925 54.156 102 54.0625 102 53.9577C102 53.8532 101.925 53.7598 101.811 53.7233Z" fill="white"/>
<mask id="mask0_1850_147855" style="mask-type:alpha" maskUnits="userSpaceOnUse" x="379" y="148" width="167" height="84">
<rect x="379" y="148" width="166.046" height="84" fill="#C4C4C4"/>
</mask>
<g mask="url(#mask0_1850_147855)">
<path d="M515.486 219.746C509.379 229.204 507.1 238.417 512.163 241.693C517.232 244.969 524.851 238.857 530.958 229.398C537.064 219.939 541.928 209.302 536.859 206.026C531.802 202.75 521.593 210.293 515.486 219.746Z" fill="#163B4B"/>
<path d="M521.393 228.02C515.287 237.479 513.007 246.692 518.07 249.968C523.14 253.244 530.758 247.131 536.865 237.673C542.971 228.214 547.836 217.577 542.766 214.301C537.703 211.025 527.494 218.562 521.393 228.02Z" fill="#1F576F"/>
<path fill-rule="evenodd" clip-rule="evenodd" d="M453.433 285.679C453.432 285.684 453.431 285.689 453.43 285.694C444.61 276.452 441.697 261.338 442.781 249.974C434.307 249.845 423.559 219.74 430.966 216.23C432.336 215.579 433.275 217.093 434.639 219.289C436.409 222.141 438.893 226.143 443.959 228.05C448.935 229.923 452.722 225.767 454.209 220.672C455.565 216.6 455.235 213.046 454.928 209.749C454.848 208.887 454.77 208.043 454.723 207.211C453.771 203.877 451.389 202.04 448.958 200.213C435.408 190.039 466.404 161.616 483.347 161.616C500.29 161.616 516.47 179.256 516.969 196.205C517.27 206.433 515.675 211.917 514.625 215.526C513.345 219.927 512.875 221.543 517.637 225.577C527.523 233.946 541.67 251.996 542.309 260.289C542.778 266.354 539.643 266.964 536.308 266.296C532.217 265.475 529.094 261.701 526.181 257.616C527.131 261.074 528.49 265.434 529.639 266.964C529.639 266.964 522.384 279.875 518.774 284.323C510.106 295 504.105 296.337 502.106 295.668C500.266 295.059 497.477 289.949 497.037 289.122C493.234 290.335 489.178 290.998 484.97 290.998C481.015 290.998 477.199 290.412 473.589 289.327L473.636 289.661C473.636 289.661 470.97 295 468.971 295.668C467.061 296.307 461.492 295.114 453.433 285.679Z" fill="#276A87"/>
<path d="M500.307 210.89C498.514 222.581 502.306 261.624 469.633 260.288C458.967 259.854 450.3 251.62 450.3 240.93C450.3 230.235 461.083 224.322 456.301 210.222C454.285 203.16 444.357 198.647 446.965 197.54C453.939 194.574 469.358 157.12 482.767 159.564C490.098 160.9 508.506 168.653 510.973 182.853C513.64 198.208 501.637 202.21 500.307 210.89Z" fill="white"/>
<path d="M512.468 186.098C512.468 198.081 505.1 206.459 493.131 206.459C473.256 206.459 472.963 186.098 464.172 184.923C464.172 172.94 470.061 156.044 481.796 158.394C495.132 161.064 512.468 171.745 512.468 186.098Z" fill="#CAE4ED"/>
<path d="M462.459 190.437C462.459 192.834 457.225 199.116 449.124 199.116C414.452 185.765 391.114 192.44 390.448 191.105C388.049 186.301 418.267 182.731 425.785 182.579C433.94 182.579 443.083 182.367 449.791 184.429C452.198 185.17 460.559 181.232 463.126 182.427C465.693 183.622 462.459 189.937 462.459 190.437Z" fill="#D6801C"/>
<path d="M411.931 153.801C396.076 159.255 381.004 171.978 383.004 181.992C384.158 187.76 417.879 175.971 446.883 184.429C450.684 185.537 457.125 186.431 463.793 185.096C455.088 192.541 436.042 185.268 421.786 184.429C407.531 183.59 387.748 185.697 390.448 191.104C391.115 192.439 414.452 185.764 449.124 199.115C453.732 199.115 459.126 198.448 462.46 191.772C465.593 185.49 467.127 178.421 481.796 158.393C455.792 149.048 432.802 146.624 411.931 153.801Z" fill="#F3B761"/>
<path d="M411.721 181.611C398.385 182.946 381.113 186.918 381.113 181.758C381.113 176.598 385.114 162.399 414.452 153.053C405.784 161.731 399.052 170.93 411.721 181.611Z" fill="#854400"/>
<path d="M484.865 190.092C488.915 190.092 492.197 186.804 492.197 182.748C492.197 178.693 488.915 175.405 484.865 175.405C480.816 175.405 477.534 178.693 477.534 182.748C477.528 186.804 480.81 190.092 484.865 190.092Z" fill="#161616"/>
<path d="M481.865 184.084C483.336 184.084 484.531 182.888 484.531 181.412C484.531 179.935 483.336 178.739 481.865 178.739C480.394 178.739 479.198 179.935 479.198 181.412C479.198 182.888 480.388 184.084 481.865 184.084Z" fill="white"/>
</g>
</g>
<defs>
<linearGradient id="paint0_linear_1850_147855" x1="283" y1="0" x2="283" y2="744.333" gradientUnits="userSpaceOnUse">
<stop stop-color="#163B4B"/>
<stop offset="1" stop-color="#F3B761"/>
</linearGradient>
<clipPath id="clip0_1850_147855">
<rect width="568" height="232" rx="8" fill="white"/>
</clipPath>
</defs>
</svg>
