<svg width="288" height="232" viewBox="0 0 288 232" fill="none" xmlns="http://www.w3.org/2000/svg">
<g clip-path="url(#clip0_1850_148186)">
<rect width="568" height="232" fill="url(#paint0_linear_1850_148186)"/>
<path opacity="0.6" d="M146.213 189.595C140.317 165.221 131.401 147.555 107.711 147.555C109.544 114.348 84.4153 83.5025 50.2633 105.184C40.1974 86.9035 23.8403 75 5.36229 75C-25.1589 75 -49.9281 107.451 -50 147.555V262.575L209.915 263C220.269 214.347 190.97 171.881 146.213 189.595Z" fill="#282828"/>
<path d="M115.195 251.567C108.939 224.859 99.4793 205.501 74.3418 205.501C76.2872 169.115 49.6239 135.317 13.3862 159.074C2.70562 139.043 -14.6503 126 -34.2568 126C-66.6419 126 -92.9237 161.558 -93 205.501V331.534L182.788 332C193.774 278.688 162.685 232.157 115.195 251.567Z" fill="#282828"/>
<path d="M111 264.455C111.2 231.4 133.119 204.727 160.115 204.727C175.284 204.727 188.783 213.155 197.804 226.327C205.622 205.873 222.595 191.636 242.308 191.636C246.919 191.636 251.396 192.455 255.606 193.927C265.63 160.136 292.092 136 323.165 136C362.724 136 394.8 175.191 395 223.545V325H111V264.455Z" fill="#282828"/>
<path d="M47.0966 32.9811L42.271 31.437L40.4691 26.3319C40.3997 26.135 40.1887 26 39.9507 26C39.7126 26 39.5017 26.135 39.4323 26.3319L37.6309 31.437L32.8048 32.9811C32.5917 33.0495 32.4507 33.2244 32.4507 33.4208C32.4507 33.6167 32.5917 33.7925 32.8048 33.8605L37.6282 35.4041L39.4307 40.6648C39.499 40.8636 39.7105 41 39.9507 41C40.1904 41 40.4024 40.8636 40.4707 40.6644L42.2732 35.4036L47.0971 33.86C47.3092 33.7925 47.4507 33.6172 47.4507 33.4208C47.4507 33.2248 47.3092 33.0495 47.0966 32.9811Z" fill="white"/>
<path d="M257.646 141.981L252.82 140.437L251.018 135.332C250.949 135.135 250.738 135 250.5 135C250.262 135 250.051 135.135 249.982 135.332L248.18 140.437L243.354 141.981C243.141 142.05 243 142.224 243 142.421C243 142.617 243.141 142.793 243.354 142.86L248.178 144.404L249.98 149.665C250.048 149.864 250.26 150 250.5 150C250.74 150 250.952 149.864 251.02 149.664L252.823 144.404L257.646 142.86C257.858 142.793 258 142.617 258 142.421C258 142.225 257.858 142.05 257.646 141.981Z" fill="white"/>
<path opacity="0.11" d="M264.111 23.4032L259.285 21.7658L257.483 16.3519C257.414 16.1432 257.203 16 256.965 16C256.727 16 256.516 16.1432 256.446 16.3519L254.645 21.7658L249.819 23.4032C249.606 23.4758 249.465 23.6612 249.465 23.8695C249.465 24.0773 249.606 24.2637 249.819 24.3358L254.642 25.9727L256.445 31.5516C256.513 31.7623 256.725 31.907 256.965 31.907C257.205 31.907 257.417 31.7623 257.485 31.5511L259.287 25.9722L264.111 24.3353C264.323 24.2637 264.465 24.0778 264.465 23.8695C264.465 23.6617 264.323 23.4758 264.111 23.4032Z" fill="white"/>
<path opacity="0.11" d="M55.473 53.7233L52.8994 52.8997L51.9383 50.177C51.9013 50.072 51.7888 50 51.6619 50C51.5349 50 51.4224 50.072 51.3854 50.177L50.4246 52.8997L47.8507 53.7233C47.7371 53.7598 47.6619 53.853 47.6619 53.9577C47.6619 54.0622 47.7371 54.156 47.8507 54.1922L50.4232 55.0155L51.3845 57.8213C51.421 57.9273 51.5337 58 51.6619 58C51.7897 58 51.9028 57.9273 51.9392 57.821L52.9005 55.0153L55.4733 54.192C55.5864 54.156 55.6619 54.0625 55.6619 53.9577C55.6619 53.8532 55.5864 53.7598 55.473 53.7233Z" fill="white"/>
</g>
<defs>
<linearGradient id="paint0_linear_1850_148186" x1="284" y1="0" x2="284" y2="744.333" gradientUnits="userSpaceOnUse">
<stop stop-color="#163B4B"/>
<stop offset="1" stop-color="#F3B761"/>
</linearGradient>
<clipPath id="clip0_1850_148186">
<rect width="288" height="232" rx="8" fill="white"/>
</clipPath>
</defs>
</svg>
