<svg width="568" height="232" viewBox="0 0 568 232" fill="none" xmlns="http://www.w3.org/2000/svg" preserveAspectRatio="none">
<g clip-path="url(#clip0_1078_104689)">
<rect width="568" height="232" fill="url(#paint0_linear_1078_104689)"/>
<path opacity="0.2" d="M261.288 229.799C277.445 180.922 301.877 145.495 366.801 145.495C361.776 78.9048 430.641 17.0502 524.233 60.5284C551.818 23.8703 596.644 0 647.282 0C730.924 0 798.803 65.0751 799 145.495V376.147L86.7135 377C58.3403 279.435 138.633 194.278 261.288 229.799Z" fill="white"/>
<path opacity="0.2" d="M266.94 212.216C255.464 179.415 238.109 155.64 191.994 155.64C195.563 110.952 146.648 69.4422 80.1689 98.6198C60.5751 74.0191 28.735 58 -7.23372 58C-66.6451 58 -114.86 101.671 -115 155.64V310.428L390.942 311C411.095 245.525 354.063 188.378 266.94 212.216Z" fill="white"/>
<path d="M272.028 249.3C262.352 223.5 247.72 204.8 208.838 204.8C211.847 169.65 170.605 137 114.554 159.95C98.0339 140.6 71.1884 128 40.8618 128C-9.23021 128 -49.882 162.35 -50 204.8V326.55L376.578 327C393.571 275.5 345.485 230.55 272.028 249.3Z" fill="white" fill-opacity="0.5"/>
<path d="M256 248.532C256.306 214.429 289.801 186.909 331.057 186.909C354.237 186.909 374.865 195.604 388.651 209.195C400.599 188.091 426.536 173.403 456.661 173.403C463.707 173.403 470.549 174.247 476.983 175.766C492.3 140.903 532.739 116 580.224 116C640.677 116 689.694 156.435 690 206.325V311H256V248.532Z" fill="white" fill-opacity="0.5"/>
<path d="M68.5987 25.8427L63.1297 23.8869L61.0875 17.4204C61.0089 17.171 60.7698 17 60.5 17C60.2302 17 59.9911 17.171 59.9125 17.4204L57.8709 23.8869L52.4013 25.8427C52.1598 25.9294 52 26.1509 52 26.3997C52 26.6478 52.1598 26.8705 52.4013 26.9566L57.8678 28.9118L59.9106 35.5755C59.9881 35.8272 60.2277 36 60.5 36C60.7716 36 61.0119 35.8272 61.0894 35.5749L63.1322 28.9112L68.5993 26.956C68.8396 26.8705 69 26.6484 69 26.3997C69 26.1515 68.8396 25.9294 68.5987 25.8427Z" fill="white"/>
<path opacity="0.5" d="M406.74 100.05L403.202 98.7121L401.88 94.2876C401.829 94.117 401.675 94 401.5 94C401.325 94 401.171 94.117 401.12 94.2876L399.799 98.7121L396.26 100.05C396.103 100.11 396 100.261 396 100.431C396 100.601 396.103 100.753 396.26 100.812L399.797 102.15L401.119 106.71C401.169 106.882 401.324 107 401.5 107C401.676 107 401.831 106.882 401.881 106.709L403.203 102.15L406.741 100.812C406.896 100.753 407 100.602 407 100.431C407 100.262 406.896 100.11 406.74 100.05Z" fill="white"/>
<path opacity="0.6" d="M111.693 68.9811L107.511 67.437L105.949 62.3319C105.889 62.135 105.706 62 105.5 62C105.294 62 105.111 62.135 105.051 62.3319L103.49 67.437L99.3069 68.9811C99.1222 69.0495 99 69.2244 99 69.4208C99 69.6167 99.1222 69.7925 99.3069 69.8605L103.487 71.4041L105.049 76.6648C105.109 76.8636 105.292 77 105.5 77C105.708 77 105.891 76.8636 105.951 76.6644L107.513 71.4036L111.694 69.86C111.877 69.7925 112 69.6172 112 69.4208C112 69.2248 111.877 69.0495 111.693 68.9811Z" fill="white"/>
<path d="M445.693 127.981L441.511 126.437L439.949 121.332C439.889 121.135 439.706 121 439.5 121C439.294 121 439.111 121.135 439.051 121.332L437.49 126.437L433.307 127.981C433.122 128.05 433 128.224 433 128.421C433 128.617 433.122 128.792 433.307 128.86L437.487 130.404L439.049 135.665C439.109 135.864 439.292 136 439.5 136C439.708 136 439.891 135.864 439.951 135.664L441.513 130.404L445.694 128.86C445.877 128.793 446 128.617 446 128.421C446 128.225 445.877 128.05 445.693 127.981Z" fill="white"/>
<mask id="mask0_1078_104689" style="mask-type:alpha" maskUnits="userSpaceOnUse" x="372" y="148" width="167" height="84">
<rect x="372" y="148" width="166.046" height="84" fill="#C4C4C4"/>
</mask>
<g mask="url(#mask0_1078_104689)">
<path d="M508.486 219.746C502.379 229.204 500.099 238.417 505.163 241.693C510.232 244.969 517.851 238.857 523.957 229.398C530.064 219.939 534.928 209.302 529.859 206.026C524.801 202.75 514.592 210.293 508.486 219.746Z" fill="#163B4B"/>
<path d="M514.393 228.02C508.287 237.479 506.007 246.692 511.07 249.968C516.14 253.244 523.758 247.131 529.865 237.673C535.971 228.214 540.836 217.577 535.766 214.301C530.703 211.025 520.494 218.562 514.393 228.02Z" fill="#1F576F"/>
<path fill-rule="evenodd" clip-rule="evenodd" d="M446.433 285.679C446.432 285.684 446.431 285.689 446.429 285.694C437.609 276.452 434.697 261.338 435.781 249.974C427.307 249.845 416.559 219.74 423.966 216.23C425.335 215.579 426.275 217.093 427.639 219.289C429.409 222.141 431.893 226.143 436.959 228.05C441.934 229.923 445.722 225.767 447.209 220.672C448.565 216.6 448.234 213.046 447.928 209.749C447.848 208.887 447.77 208.042 447.723 207.211C446.771 203.877 444.389 202.04 441.958 200.213C428.408 190.039 459.404 161.616 476.347 161.616C493.29 161.616 509.47 179.256 509.969 196.205C510.27 206.433 508.675 211.917 507.625 215.526C506.345 219.927 505.875 221.543 510.637 225.577C520.523 233.946 534.67 251.996 535.309 260.289C535.778 266.354 532.643 266.964 529.308 266.296C525.217 265.475 522.094 261.701 519.181 257.616C520.131 261.074 521.49 265.434 522.639 266.964C522.639 266.964 515.384 279.875 511.774 284.323C503.106 295 497.105 296.337 495.106 295.668C493.266 295.059 490.477 289.949 490.037 289.122C486.234 290.335 482.178 290.998 477.97 290.998C474.015 290.998 470.199 290.412 466.589 289.327L466.636 289.661C466.636 289.661 463.97 295 461.971 295.668C460.061 296.307 454.492 295.114 446.433 285.679Z" fill="#276A87"/>
<path d="M493.307 210.89C491.514 222.581 495.306 261.624 462.634 260.288C451.968 259.854 443.3 251.62 443.3 240.93C443.3 230.235 454.083 224.322 449.301 210.222C447.285 203.16 437.357 198.647 439.965 197.54C446.939 194.574 462.358 157.12 475.767 159.564C483.098 160.9 501.506 168.653 503.973 182.853C506.64 198.208 494.638 202.21 493.307 210.89Z" fill="white"/>
<path d="M505.467 186.098C505.467 198.081 498.1 206.459 486.131 206.459C466.255 206.459 465.962 186.098 457.172 184.923C457.172 172.94 463.061 156.044 474.796 158.394C488.131 161.064 505.467 171.745 505.467 186.098Z" fill="#CAE4ED"/>
<path d="M455.459 190.437C455.459 192.834 450.225 199.116 442.124 199.116C407.452 185.765 384.115 192.44 383.448 191.105C381.049 186.301 411.267 182.731 418.786 182.579C426.94 182.579 436.083 182.367 442.791 184.429C445.198 185.17 453.559 181.232 456.126 182.427C458.693 183.622 455.459 189.937 455.459 190.437Z" fill="#D6801C"/>
<path d="M404.931 153.801C389.075 159.255 374.004 171.978 376.004 181.992C377.158 187.76 410.879 175.971 439.883 184.429C443.684 185.537 450.125 186.431 456.793 185.096C448.088 192.541 429.041 185.268 414.786 184.429C400.531 183.59 380.747 185.697 383.448 191.104C384.115 192.439 407.452 185.764 442.124 199.115C446.731 199.115 452.126 198.448 455.459 191.772C458.593 185.49 460.127 178.421 474.796 158.393C448.792 149.048 425.801 146.624 404.931 153.801Z" fill="#F3B761"/>
<path d="M404.72 181.611C391.385 182.946 374.113 186.918 374.113 181.758C374.113 176.598 378.114 162.399 407.452 153.053C398.784 161.731 392.052 170.93 404.72 181.611Z" fill="#854400"/>
<path d="M477.865 190.092C481.914 190.092 485.196 186.804 485.196 182.748C485.196 178.693 481.914 175.405 477.865 175.405C473.815 175.405 470.533 178.693 470.533 182.748C470.528 186.804 473.809 190.092 477.865 190.092Z" fill="#161616"/>
<path d="M474.864 184.084C476.335 184.084 477.531 182.888 477.531 181.412C477.531 179.935 476.335 178.739 474.864 178.739C473.393 178.739 472.198 179.935 472.198 181.412C472.198 182.888 473.388 184.084 474.864 184.084Z" fill="white"/>
</g>
</g>
<defs>
<linearGradient id="paint0_linear_1078_104689" x1="284" y1="0" x2="284" y2="232" gradientUnits="userSpaceOnUse">
<stop stop-color="#CAE4ED"/>
<stop offset="1" stop-color="#FAEDDA"/>
</linearGradient>
<clipPath id="clip0_1078_104689">
<rect width="568" height="232" rx="8" fill="white"/>
</clipPath>
</defs>
</svg>
