<svg width="288" height="232" viewBox="0 0 288 232" fill="none" xmlns="http://www.w3.org/2000/svg" preserveAspectRatio="none">
<g clip-path="url(#clip0_1078_104762)">
<rect width="568" height="232" fill="url(#paint0_linear_1078_104762)"/>
<path opacity="0.2" d="M210.702 214.799C225.104 165.922 246.882 130.495 304.753 130.495C300.274 63.9048 361.657 2.05024 445.082 45.5284C469.671 8.87034 509.627 -15 554.764 -15C629.319 -15 689.824 50.0751 690 130.495V361.147L55.0928 362C29.8019 264.435 101.372 179.278 210.702 214.799Z" fill="white"/>
<path opacity="0.2" d="M153.222 197.216C142.398 164.415 126.031 140.64 82.5374 140.64C85.9034 95.952 39.7701 54.4422 -22.9289 83.6198C-41.4086 59.0191 -71.4381 43 -105.362 43C-161.395 43 -206.868 86.6711 -207 140.64V295.428L270.172 296C289.18 230.525 235.391 173.378 153.222 197.216Z" fill="white"/>
<path d="M144.79 232.3C135.362 206.5 121.104 187.8 83.2166 187.8C86.1487 152.65 45.9619 120 -8.65533 142.95C-24.753 123.6 -50.9118 111 -80.4626 111C-129.273 111 -168.885 145.35 -169 187.8V309.55L246.666 310C263.223 258.5 216.368 213.55 144.79 232.3Z" fill="white" fill-opacity="0.5"/>
<path d="M144 253.532C144.273 219.429 174.14 191.909 210.928 191.909C231.599 191.909 249.992 200.604 262.285 214.195C272.939 193.091 296.068 178.403 322.931 178.403C329.214 178.403 335.315 179.247 341.051 180.766C354.71 145.903 390.769 121 433.112 121C487.019 121 530.727 161.435 531 211.325V316H144V253.532Z" fill="white" fill-opacity="0.5"/>
<path d="M41.0121 25.8427L36.1865 23.8869L34.3846 17.4204C34.3152 17.171 34.1043 17 33.8662 17C33.6282 17 33.4172 17.171 33.3478 17.4204L31.5464 23.8869L26.7203 25.8427C26.5072 25.9294 26.3662 26.1509 26.3662 26.3997C26.3662 26.6478 26.5072 26.8705 26.7203 26.9566L31.5437 28.9118L33.3462 35.5755C33.4145 35.8272 33.626 36 33.8662 36C34.1059 36 34.3179 35.8272 34.3862 35.5749L36.1887 28.9112L41.0127 26.956C41.2247 26.8705 41.3662 26.6484 41.3662 26.3997C41.3662 26.1515 41.2247 25.9294 41.0121 25.8427Z" fill="white"/>
<path opacity="0.5" d="M213.482 100.05L209.3 98.7121L207.738 94.2876C207.678 94.117 207.495 94 207.289 94C207.082 94 206.9 94.117 206.839 94.2876L205.278 98.7121L201.096 100.05C200.911 100.11 200.789 100.261 200.789 100.431C200.789 100.601 200.911 100.753 201.096 100.812L205.276 102.15L206.838 106.71C206.897 106.882 207.081 107 207.289 107C207.496 107 207.68 106.882 207.739 106.709L209.302 102.15L213.482 100.812C213.666 100.753 213.789 100.602 213.789 100.431C213.789 100.262 213.666 100.11 213.482 100.05Z" fill="white"/>
<path opacity="0.6" d="M62.8903 68.9811L58.7082 67.437L57.1465 62.3319C57.0863 62.135 56.9035 62 56.6972 62C56.4909 62 56.3081 62.135 56.2479 62.3319L54.6867 67.437L50.5041 68.9811C50.3194 69.0495 50.1972 69.2244 50.1972 69.4208C50.1972 69.6167 50.3194 69.7925 50.5041 69.8605L54.6844 71.4041L56.2465 76.6648C56.3057 76.8636 56.489 77 56.6972 77C56.9049 77 57.0887 76.8636 57.1479 76.6644L58.71 71.4036L62.8908 69.86C63.0745 69.7925 63.1972 69.6172 63.1972 69.4208C63.1972 69.2248 63.0745 69.0495 62.8903 68.9811Z" fill="white"/>
<path d="M232.242 127.981L228.06 126.437L226.499 121.332C226.438 121.135 226.256 121 226.049 121C225.843 121 225.66 121.135 225.6 121.332L224.039 126.437L219.856 127.981C219.671 128.05 219.549 128.224 219.549 128.421C219.549 128.617 219.671 128.792 219.856 128.86L224.036 130.404L225.599 135.665C225.658 135.864 225.841 136 226.049 136C226.257 136 226.441 135.864 226.5 135.664L228.062 130.404L232.243 128.86C232.427 128.793 232.549 128.617 232.549 128.421C232.549 128.225 232.427 128.05 232.242 127.981Z" fill="white"/>
</g>
<defs>
<linearGradient id="paint0_linear_1078_104762" x1="284" y1="0" x2="284" y2="232" gradientUnits="userSpaceOnUse">
<stop stop-color="#CAE4ED"/>
<stop offset="1" stop-color="#FAEDDA"/>
</linearGradient>
<clipPath id="clip0_1078_104762">
<rect width="288" height="232" rx="8" fill="white"/>
</clipPath>
</defs>
</svg>
