<svg width="368" height="232" viewBox="0 0 368 232" fill="none" xmlns="http://www.w3.org/2000/svg" preserveAspectRatio="none">
<g clip-path="url(#clip0_1078_104737)">
<rect width="568" height="232" fill="url(#paint0_linear_1078_104737)"/>
<path opacity="0.2" d="M207.178 229.799C221.085 180.922 242.114 145.495 297.996 145.495C293.671 78.9048 352.944 17.0502 433.501 60.5284C457.244 23.8703 495.827 0 539.413 0C611.405 0 669.83 65.0751 670 145.495V376.147L56.9177 377C32.4962 279.435 101.606 194.278 207.178 229.799Z" fill="white"/>
<path opacity="0.2" d="M144.513 212.216C134.522 179.415 119.413 155.64 79.2653 155.64C82.3723 110.952 39.7878 69.4422 -18.0882 98.6198C-35.1464 74.0191 -62.866 58 -94.1799 58C-145.903 58 -187.878 101.671 -188 155.64V310.428L252.467 311C270.012 245.525 220.361 188.378 144.513 212.216Z" fill="white"/>
<path d="M142.799 249.3C133.55 223.5 119.565 204.8 82.401 204.8C85.2771 169.65 45.8576 137 -7.71681 159.95C-23.5072 140.6 -49.1665 128 -78.1531 128C-126.032 128 -164.887 162.35 -165 204.8V326.55L242.729 327C258.971 275.5 213.01 230.55 142.799 249.3Z" fill="white" fill-opacity="0.5"/>
<path d="M166 248.532C166.257 214.429 194.349 186.909 228.951 186.909C248.392 186.909 265.693 195.604 277.256 209.195C287.276 188.091 309.031 173.403 334.296 173.403C340.206 173.403 345.944 174.247 351.34 175.766C364.187 140.903 398.104 116 437.929 116C488.632 116 529.743 156.435 530 206.325V311H166V248.532Z" fill="white" fill-opacity="0.5"/>
<path d="M50.2888 25.8427L44.8198 23.8869L42.7776 17.4204C42.699 17.171 42.4599 17 42.1901 17C41.9203 17 41.6813 17.171 41.6026 17.4204L39.561 23.8869L34.0914 25.8427C33.8499 25.9294 33.6901 26.1509 33.6901 26.3997C33.6901 26.6478 33.8499 26.8705 34.0914 26.9566L39.558 28.9118L41.6008 35.5755C41.6782 35.8272 41.9179 36 42.1901 36C42.4618 36 42.7021 35.8272 42.7795 35.5749L44.8223 28.9112L50.2894 26.956C50.5297 26.8705 50.6901 26.6484 50.6901 26.3997C50.6901 26.1515 50.5297 25.9294 50.2888 25.8427Z" fill="white"/>
<path opacity="0.5" d="M269.256 100.05L265.074 98.7121L263.513 94.2876C263.452 94.117 263.27 94 263.063 94C262.857 94 262.674 94.117 262.614 94.2876L261.053 98.7121L256.87 100.05C256.686 100.11 256.563 100.261 256.563 100.431C256.563 100.601 256.686 100.753 256.87 100.812L261.051 102.15L262.613 106.71C262.672 106.882 262.855 107 263.063 107C263.271 107 263.455 106.882 263.514 106.709L265.076 102.15L269.257 100.812C269.441 100.753 269.563 100.602 269.563 100.431C269.563 100.262 269.441 100.11 269.256 100.05Z" fill="white"/>
<path opacity="0.6" d="M76.834 68.9811L72.6518 67.437L71.0901 62.3319C71.03 62.135 70.8472 62 70.6409 62C70.4346 62 70.2517 62.135 70.1916 62.3319L68.6304 67.437L64.4478 68.9811C64.2631 69.0495 64.1409 69.2244 64.1409 69.4208C64.1409 69.6167 64.2631 69.7925 64.4478 69.8605L68.628 71.4041L70.1902 76.6648C70.2494 76.8636 70.4327 77 70.6409 77C70.8486 77 71.0323 76.8636 71.0916 76.6644L72.6537 71.4036L76.8345 69.86C77.0182 69.7925 77.1409 69.6172 77.1409 69.4208C77.1409 69.2248 77.0182 69.0495 76.834 68.9811Z" fill="white"/>
<path d="M293.228 127.981L289.046 126.437L287.484 121.332C287.424 121.135 287.241 121 287.035 121C286.829 121 286.646 121.135 286.586 121.332L285.025 126.437L280.842 127.981C280.657 128.05 280.535 128.224 280.535 128.421C280.535 128.617 280.657 128.792 280.842 128.86L285.022 130.404L286.584 135.665C286.644 135.864 286.827 136 287.035 136C287.243 136 287.427 135.864 287.486 135.664L289.048 130.404L293.229 128.86C293.412 128.793 293.535 128.617 293.535 128.421C293.535 128.225 293.412 128.05 293.228 127.981Z" fill="white"/>
</g>
<defs>
<linearGradient id="paint0_linear_1078_104737" x1="284" y1="0" x2="284" y2="232" gradientUnits="userSpaceOnUse">
<stop stop-color="#CAE4ED"/>
<stop offset="1" stop-color="#FAEDDA"/>
</linearGradient>
<clipPath id="clip0_1078_104737">
<rect width="368" height="232" rx="8" fill="white"/>
</clipPath>
</defs>
</svg>
