<svg width="40" height="40" viewBox="0 0 40 40" fill="none" xmlns="http://www.w3.org/2000/svg">
<mask id="mask0" mask-type="alpha" maskUnits="userSpaceOnUse" x="2" y="2" width="36" height="36">
<circle cx="20" cy="20" r="17.5" fill="white"/>
</mask>
<g mask="url(#mask0)">
<path d="M-1.875 2.5H41.875V37.5H-1.875V2.5Z" fill="#52A078"/>
</g>
<path fill-rule="evenodd" clip-rule="evenodd" d="M24.5795 7.75C24.7707 8.21426 24.5743 9.10242 23.4432 9.56818C23.2379 9.65269 23.041 9.73425 22.8523 9.81244L22.8497 9.8135L22.8489 9.81384L22.8472 9.81455C22.2065 10.08 21.6598 10.3064 21.2 10.4772C22.118 10.4733 23.3918 10.2903 24.6207 10.0082C26.6348 10.9428 28.3158 12.4738 29.437 14.3745L29.4365 14.375C29.6865 15.0903 29.5434 15.5714 29.2934 15.6964C28.9366 15.8153 28.2115 15.6433 27.6036 14.8727C25.9741 12.4285 23.1921 10.8182 20.0341 10.8182C16.9076 10.8182 14.1497 12.3965 12.5137 14.7998C11.8951 15.6324 11.1359 15.819 10.7681 15.6964C10.5209 15.5728 10.3783 15.1012 10.6166 14.3993C12.1567 11.7726 14.7643 9.84762 17.8438 9.21996C17.4899 9.19797 17.0994 9.19757 16.6687 9.22727C15.3051 9.34091 14.8429 8.21426 15.0341 7.75C15.9013 8.14026 17.0035 8.31541 18.0232 8.47746L18.0232 8.47747H18.0232C18.7882 8.59905 19.5068 8.71325 20.045 8.90538C20.688 8.65658 21.3003 8.63039 21.9008 8.60471C22.7989 8.56631 23.6707 8.52903 24.5795 7.75ZM18.6336 29.8323C18.6336 30.0876 18.7019 30.327 18.8213 30.5332C18.8643 30.6166 18.9157 30.6951 18.9744 30.7674L18.9931 30.7692C19.0672 30.8515 19.1509 30.9249 19.2425 30.9878C18.9045 31.1615 18.5069 31.2703 17.9333 31.3127C16.9672 31.3841 16.0957 31.1035 15.5901 30.9407C15.3017 30.8478 15.1324 30.7933 15.1324 30.8643C15.1324 30.9348 15.2911 31.0874 15.4784 31.2673L15.4784 31.2674L15.4784 31.2674L15.4784 31.2674L15.4785 31.2674C15.721 31.5005 16.0112 31.7794 16.066 31.9854C16.1232 32.2002 16.0133 32.3142 15.9209 32.41C15.8443 32.4894 15.7797 32.5564 15.8326 32.658C15.9493 32.8823 17.7541 32.6826 18.6336 32.2096C19.1401 31.9372 19.5697 31.5407 19.8442 31.22C19.9063 31.2284 19.9697 31.2328 20.0341 31.2328C20.0985 31.2328 20.1619 31.2285 20.224 31.22C20.4985 31.5407 20.9281 31.9372 21.4346 32.2096C22.3141 32.6826 24.1189 32.8823 24.2356 32.658C24.2885 32.5564 24.2239 32.4894 24.1473 32.41L24.1473 32.41C24.0549 32.3142 23.9449 32.2002 24.0021 31.9854C24.057 31.7794 24.3472 31.5005 24.5897 31.2674L24.5898 31.2674L24.5898 31.2674L24.5898 31.2674C24.777 31.0874 24.9358 30.9348 24.9358 30.8643C24.9358 30.7933 24.7665 30.8478 24.4781 30.9407C23.9725 31.1035 23.101 31.3841 22.1348 31.3127C21.5613 31.2703 21.1637 31.1615 20.8257 30.9878C20.9173 30.9249 21.001 30.8515 21.0751 30.7692L21.0938 30.7674C21.1526 30.6949 21.2041 30.6164 21.2471 30.5327C21.3664 30.3267 21.4346 30.0875 21.4346 29.8323C21.4346 29.0588 20.8076 28.4318 20.0341 28.4318C19.2606 28.4318 18.6336 29.0588 18.6336 29.8323ZM12.2262 24.5682C13.489 26.6799 15.5842 28.2365 18.0585 28.7848C17.8694 29.1163 17.7614 29.5001 17.7614 29.9091C17.7614 30.1513 17.7992 30.3846 17.8694 30.6034C14.8059 29.9867 12.2069 28.0866 10.6575 25.488C11.1915 25.6022 11.509 25.7694 11.9666 26.0103C12.1051 26.0833 12.2564 26.163 12.4305 26.25C12.2496 25.7073 12.1342 25.1605 12.2262 24.5682ZM11.6148 23.3448C11.1818 22.2849 10.9432 21.1249 10.9432 19.9091C10.9432 18.6784 11.1877 17.5048 11.6309 16.4343C10.9917 16.7692 10.6812 17.1319 10.4456 17.4071C10.3761 17.4884 10.313 17.562 10.25 17.625C10.2267 17.5319 10.2127 17.4282 10.1973 17.3138C10.1544 16.9959 10.1005 16.5957 9.80452 16.1106C9.36511 17.2935 9.125 18.5732 9.125 19.9091C9.125 21.3675 9.4112 22.7591 9.93049 24.0308C10.5121 24.7415 11.0709 24.7337 11.2861 24.6156C11.4501 24.5256 11.7379 23.9947 11.6148 23.3448ZM29.8642 17.3138C29.9072 16.9944 29.9615 16.5919 30.2611 16.1038C30.7021 17.2886 30.9432 18.5707 30.9432 19.9091C30.9432 21.3052 30.6809 22.6401 30.203 23.8671C29.578 24.7421 28.953 24.7421 28.7224 24.6156C28.5758 24.5352 28.3303 24.1024 28.3677 23.5474C28.8548 22.4333 29.125 21.2028 29.125 19.9091C29.125 18.6801 28.8811 17.5081 28.4391 16.4388C29.0725 16.7724 29.3813 17.1331 29.6159 17.4071L29.6159 17.4071C29.6854 17.4884 29.7484 17.562 29.8115 17.625C29.8348 17.5318 29.8487 17.4282 29.8642 17.3138ZM22.0097 28.7847C24.4526 28.2434 26.5259 26.7192 27.7935 24.6483C27.8637 25.21 27.7507 25.7319 27.578 26.25C27.752 26.163 27.9034 26.0833 28.0419 26.0103C28.5186 25.7593 28.8433 25.5883 29.4191 25.474C27.8706 28.0797 25.2679 29.9856 22.1988 30.6034C22.269 30.3846 22.3068 30.1513 22.3068 29.9091C22.3068 29.5001 22.1988 29.1163 22.0097 28.7847ZM12.9802 19.7585C12.9802 18.3513 13.3796 17.0389 14.0697 15.9319C13.9342 16.4494 13.8619 16.9931 13.8619 17.5541C13.8619 21.0238 16.6253 23.8365 20.0341 23.8365C23.4429 23.8365 26.2063 21.0238 26.2063 17.5541C26.2063 16.9931 26.134 16.4493 25.9985 15.9318C26.6886 17.0389 27.088 18.3513 27.088 19.7585C27.088 23.7151 23.9299 26.9226 20.0341 26.9226C16.1383 26.9226 12.9802 23.7151 12.9802 19.7585Z" fill="#EBEBEB"/>
</svg>
