<svg width="16" height="16" viewBox="0 0 16 16" fill="none" xmlns="http://www.w3.org/2000/svg">
<mask id="mask0" mask-type="alpha" maskUnits="userSpaceOnUse" x="1" y="1" width="14" height="14">
<circle cx="8" cy="8" r="7" fill="white"/>
</mask>
<g mask="url(#mask0)">
<path d="M-0.75 1H16.75V15H-0.75V1Z" fill="#52A078"/>
<path d="M8 4L2 8.02308L8 12L14 8.02308L8 4Z" fill="#F8C06D"/>
<circle cx="7.99998" cy="8.00001" r="2.4" fill="#3F7494"/>
<mask id="mask1" mask-type="alpha" maskUnits="userSpaceOnUse" x="5" y="5" width="6" height="6">
<circle cx="7.99998" cy="8.00001" r="2.4" fill="#3F7494"/>
</mask>
<g mask="url(#mask1)">
<path fill-rule="evenodd" clip-rule="evenodd" d="M8.02447 7.27306C7.07078 6.99115 6.03666 7.05525 5.28936 7.4289L5.11047 7.07113C5.96317 6.64478 7.10406 6.58388 8.13786 6.88947C9.17471 7.19596 10.1312 7.87983 10.5847 8.97341L10.2152 9.12662C9.81861 8.1702 8.97512 7.55407 8.02447 7.27306Z" fill="white"/>
</g>
<ellipse cx="6.69998" cy="8.8" rx="0.1" ry="0.0999999" fill="white"/>
<ellipse cx="8.39995" cy="9.5" rx="0.2" ry="0.2" fill="white"/>
<circle cx="7.40005" cy="9.3" r="0.0999999" fill="white"/>
<ellipse cx="9.24998" cy="9.04999" rx="0.15" ry="0.15" fill="white"/>
<ellipse cx="7.90005" cy="8.49999" rx="0.0999999" ry="0.1" fill="white"/>
</g>
</svg>
