<svg width="40" height="40" viewBox="0 0 40 40" fill="none" xmlns="http://www.w3.org/2000/svg">
<mask id="mask0" mask-type="alpha" maskUnits="userSpaceOnUse" x="2" y="2" width="36" height="36">
<circle cx="20" cy="20" r="17.5" fill="white"/>
</mask>
<g mask="url(#mask0)">
<path d="M-1.875 2.5H41.875V37.5H-1.875V2.5Z" fill="#D7323E"/>
<path d="M10.8236 11.015L9.8511 13.0144L7.65175 13.3301C7.26275 13.3903 7.11314 13.8713 7.39741 14.1569L8.96837 15.7054L8.59433 17.8852C8.53448 18.2761 8.95341 18.5767 9.29752 18.3963L11.2575 17.359L13.2025 18.3963C13.5466 18.5767 13.9655 18.2761 13.9057 17.8852L13.5316 15.7054L15.1026 14.1569C15.3869 13.8713 15.2372 13.3903 14.8482 13.3301L12.6639 13.0144L11.6764 11.015C11.5118 10.6692 11.0031 10.6542 10.8236 11.015Z" fill="#F8C06D"/>
<path d="M16.5901 8.09937L16.2254 8.84916L15.4007 8.96754C15.2548 8.99009 15.1987 9.17049 15.3053 9.27761L15.8944 9.85827L15.7541 10.6757C15.7317 10.8223 15.8888 10.935 16.0178 10.8674L16.7528 10.4784L17.4822 10.8674C17.6112 10.935 17.7683 10.8223 17.7459 10.6757L17.6056 9.85827L18.1947 9.27761C18.3013 9.17049 18.2452 8.99009 18.0993 8.96754L17.2802 8.84916L16.9099 8.09937C16.8482 7.96971 16.6574 7.96407 16.5901 8.09937Z" fill="#F8C06D"/>
<path d="M19.3401 11.3494L18.9754 12.0992L18.1507 12.2175C18.0048 12.2401 17.9487 12.4205 18.0553 12.5276L18.6444 13.1083L18.5041 13.9257C18.4817 14.0723 18.6388 14.185 18.7678 14.1174L19.5028 13.7284L20.2322 14.1174C20.3612 14.185 20.5183 14.0723 20.4959 13.9257L20.3556 13.1083L20.9447 12.5276C21.0513 12.4205 20.9952 12.2401 20.8493 12.2175L20.0302 12.0992L19.6599 11.3494C19.5982 11.2197 19.4074 11.2141 19.3401 11.3494Z" fill="#F8C06D"/>
<path d="M19.3401 15.8494L18.9754 16.5992L18.1507 16.7175C18.0048 16.7401 17.9487 16.9205 18.0553 17.0276L18.6444 17.6083L18.5041 18.4257C18.4817 18.5723 18.6388 18.685 18.7678 18.6174L19.5028 18.2284L20.2322 18.6174C20.3612 18.685 20.5183 18.5723 20.4959 18.4257L20.3556 17.6083L20.9447 17.0276C21.0513 16.9205 20.9952 16.7401 20.8493 16.7175L20.0302 16.5992L19.6599 15.8494C19.5982 15.7197 19.4074 15.7141 19.3401 15.8494Z" fill="#F8C06D"/>
<path d="M16.5901 19.0994L16.2254 19.8492L15.4007 19.9675C15.2548 19.9901 15.1987 20.1705 15.3053 20.2776L15.8944 20.8583L15.7541 21.6757C15.7317 21.8223 15.8888 21.935 16.0178 21.8674L16.7528 21.4784L17.4822 21.8674C17.6112 21.935 17.7683 21.8223 17.7459 21.6757L17.6056 20.8583L18.1947 20.2776C18.3013 20.1705 18.2452 19.9901 18.0993 19.9675L17.2802 19.8492L16.9099 19.0994C16.8482 18.9697 16.6574 18.9641 16.5901 19.0994Z" fill="#F8C06D"/>
</g>
</svg>
