<svg width="40" height="40" viewBox="0 0 40 40" fill="none" xmlns="http://www.w3.org/2000/svg">
<mask id="mask0" mask-type="alpha" maskUnits="userSpaceOnUse" x="2" y="2" width="36" height="36">
<circle cx="20" cy="20" r="17.5" fill="white"/>
</mask>
<g mask="url(#mask0)">
<path d="M-1.875 2.5H41.875V37.5H-1.875V2.5Z" fill="#EBEBEB"/>
<path d="M-1.75 2.5H42V7.5H-1.75V2.5Z" fill="#D7323E"/>
<path d="M-1.75 12.5H42V17.5H-1.75V12.5Z" fill="#D7323E"/>
<path d="M-1.75 22.5H42V27.5H-1.75V22.5Z" fill="#D7323E"/>
<path d="M-1.75 32.5H42V37.5H-1.75V32.5Z" fill="#D7323E"/>
<path d="M2.5 2.5H20V27.5H2.5V2.5Z" fill="#3F7494"/>
<path d="M15.3401 21.5994L14.9754 22.3492L14.1507 22.4675C14.0048 22.4901 13.9487 22.6705 14.0553 22.7776L14.6444 23.3583L14.5041 24.1757C14.4817 24.3223 14.6388 24.435 14.7678 24.3674L15.5028 23.9784L16.2322 24.3674C16.3612 24.435 16.5183 24.3223 16.4959 24.1757L16.3556 23.3583L16.9447 22.7776C17.0513 22.6705 16.9952 22.4901 16.8493 22.4675L16.0302 22.3492L15.6599 21.5994C15.5982 21.4697 15.4074 21.4641 15.3401 21.5994Z" fill="#EBEBEB"/>
<path d="M15.3401 13.0994L14.9754 13.8492L14.1507 13.9675C14.0048 13.9901 13.9487 14.1705 14.0553 14.2776L14.6444 14.8583L14.5041 15.6757C14.4817 15.8223 14.6388 15.935 14.7678 15.8674L15.5028 15.4784L16.2322 15.8674C16.3612 15.935 16.5183 15.8223 16.4959 15.6757L16.3556 14.8583L16.9447 14.2776C17.0513 14.1705 16.9952 13.9901 16.8493 13.9675L16.0302 13.8492L15.6599 13.0994C15.5982 12.9697 15.4074 12.9641 15.3401 13.0994Z" fill="#EBEBEB"/>
<path d="M15.3401 4.59937L14.9754 5.34916L14.1507 5.46754C14.0048 5.49009 13.9487 5.67049 14.0553 5.77761L14.6444 6.35827L14.5041 7.1757C14.4817 7.32228 14.6388 7.43503 14.7678 7.36738L15.5028 6.97839L16.2322 7.36738C16.3612 7.43503 16.5183 7.32228 16.4959 7.1757L16.3556 6.35827L16.9447 5.77761C17.0513 5.67049 16.9952 5.49009 16.8493 5.46754L16.0302 5.34916L15.6599 4.59937C15.5982 4.46971 15.4074 4.46407 15.3401 4.59937Z" fill="#EBEBEB"/>
<path d="M12.3401 17.3494L11.9754 18.0992L11.1507 18.2175C11.0048 18.2401 10.9487 18.4205 11.0553 18.5276L11.6444 19.1083L11.5041 19.9257C11.4817 20.0723 11.6388 20.185 11.7678 20.1174L12.5028 19.7284L13.2322 20.1174C13.3612 20.185 13.5183 20.0723 13.4959 19.9257L13.3556 19.1083L13.9447 18.5276C14.0513 18.4205 13.9952 18.2401 13.8493 18.2175L13.0302 18.0992L12.6599 17.3494C12.5982 17.2197 12.4074 17.2141 12.3401 17.3494Z" fill="#EBEBEB"/>
<path d="M12.3401 8.84937L11.9754 9.59916L11.1507 9.71754C11.0048 9.74009 10.9487 9.92049 11.0553 10.0276L11.6444 10.6083L11.5041 11.4257C11.4817 11.5723 11.6388 11.685 11.7678 11.6174L12.5028 11.2284L13.2322 11.6174C13.3612 11.685 13.5183 11.5723 13.4959 11.4257L13.3556 10.6083L13.9447 10.0276C14.0513 9.92049 13.9952 9.74009 13.8493 9.71754L13.0302 9.59916L12.6599 8.84937C12.5982 8.71971 12.4074 8.71407 12.3401 8.84937Z" fill="#EBEBEB"/>
<path d="M6.0901 17.3494L5.72541 18.0992L4.90066 18.2175C4.75478 18.2401 4.69868 18.4205 4.80528 18.5276L5.39439 19.1083L5.25412 19.9257C5.23168 20.0723 5.38878 20.185 5.51782 20.1174L6.25281 19.7284L6.98218 20.1174C7.11122 20.185 7.26832 20.0723 7.24588 19.9257L7.10561 19.1083L7.69472 18.5276C7.80132 18.4205 7.74522 18.2401 7.59934 18.2175L6.7802 18.0992L6.4099 17.3494C6.34819 17.2197 6.15743 17.2141 6.0901 17.3494Z" fill="#EBEBEB"/>
<path d="M6.0901 8.84937L5.72541 9.59916L4.90066 9.71754C4.75478 9.74009 4.69868 9.92049 4.80528 10.0276L5.39439 10.6083L5.25412 11.4257C5.23168 11.5723 5.38878 11.685 5.51782 11.6174L6.25281 11.2284L6.98218 11.6174C7.11122 11.685 7.26832 11.5723 7.24588 11.4257L7.10561 10.6083L7.69472 10.0276C7.80132 9.92049 7.74522 9.74009 7.59934 9.71754L6.7802 9.59916L6.4099 8.84937C6.34819 8.71971 6.15743 8.71407 6.0901 8.84937Z" fill="#EBEBEB"/>
<path d="M9.3401 21.5994L8.97541 22.3492L8.15066 22.4675C8.00478 22.4901 7.94868 22.6705 8.05528 22.7776L8.64439 23.3583L8.50412 24.1757C8.48168 24.3223 8.63878 24.435 8.76782 24.3674L9.50281 23.9784L10.2322 24.3674C10.3612 24.435 10.5183 24.3223 10.4959 24.1757L10.3556 23.3583L10.9447 22.7776C11.0513 22.6705 10.9952 22.4901 10.8493 22.4675L10.0302 22.3492L9.6599 21.5994C9.59819 21.4697 9.40743 21.4641 9.3401 21.5994Z" fill="#EBEBEB"/>
<path d="M9.3401 13.0994L8.97541 13.8492L8.15066 13.9675C8.00478 13.9901 7.94868 14.1705 8.05528 14.2776L8.64439 14.8583L8.50412 15.6757C8.48168 15.8223 8.63878 15.935 8.76782 15.8674L9.50281 15.4784L10.2322 15.8674C10.3612 15.935 10.5183 15.8223 10.4959 15.6757L10.3556 14.8583L10.9447 14.2776C11.0513 14.1705 10.9952 13.9901 10.8493 13.9675L10.0302 13.8492L9.6599 13.0994C9.59819 12.9697 9.40743 12.9641 9.3401 13.0994Z" fill="#EBEBEB"/>
<path d="M9.3401 4.59937L8.97541 5.34916L8.15066 5.46754C8.00478 5.49009 7.94868 5.67049 8.05528 5.77761L8.64439 6.35827L8.50412 7.1757C8.48168 7.32228 8.63878 7.43503 8.76782 7.36738L9.50281 6.97839L10.2322 7.36738C10.3612 7.43503 10.5183 7.32228 10.4959 7.1757L10.3556 6.35827L10.9447 5.77761C11.0513 5.67049 10.9952 5.49009 10.8493 5.46754L10.0302 5.34916L9.6599 4.59937C9.59819 4.46971 9.40743 4.46407 9.3401 4.59937Z" fill="#EBEBEB"/>
<path d="M3.3401 21.5994L2.97541 22.3492L2.15066 22.4675C2.00478 22.4901 1.94868 22.6705 2.05528 22.7776L2.64439 23.3583L2.50412 24.1757C2.48168 24.3223 2.63878 24.435 2.76782 24.3674L3.50281 23.9784L4.23218 24.3674C4.36122 24.435 4.51832 24.3223 4.49588 24.1757L4.35561 23.3583L4.94472 22.7776C5.05132 22.6705 4.99522 22.4901 4.84934 22.4675L4.0302 22.3492L3.6599 21.5994C3.59819 21.4697 3.40743 21.4641 3.3401 21.5994Z" fill="#EBEBEB"/>
<path d="M3.3401 13.0994L2.97541 13.8492L2.15066 13.9675C2.00478 13.9901 1.94868 14.1705 2.05528 14.2776L2.64439 14.8583L2.50412 15.6757C2.48168 15.8223 2.63878 15.935 2.76782 15.8674L3.50281 15.4784L4.23218 15.8674C4.36122 15.935 4.51832 15.8223 4.49588 15.6757L4.35561 14.8583L4.94472 14.2776C5.05132 14.1705 4.99522 13.9901 4.84934 13.9675L4.0302 13.8492L3.6599 13.0994C3.59819 12.9697 3.40743 12.9641 3.3401 13.0994Z" fill="#EBEBEB"/>
</g>
</svg>
