<svg width="40" height="40" viewBox="0 0 40 40" fill="none" xmlns="http://www.w3.org/2000/svg">
<mask id="mask0" mask-type="alpha" maskUnits="userSpaceOnUse" x="2" y="2" width="36" height="36">
<circle cx="20" cy="20" r="17.5" fill="white"/>
</mask>
<g mask="url(#mask0)">
<path d="M20 37.5C10.3344 37.5 2.5 29.6656 2.5 20C2.5 10.3344 10.3344 2.5 20 2.5C29.6656 2.5 37.5 10.3344 37.5 20C37.5 29.6642 29.6656 37.5 20 37.5Z" fill="#EBEBEB"/>
<path d="M41.875 -1.875H-1.875V41.875H41.875V-1.875Z" fill="#EBEBEB"/>
<path fill-rule="evenodd" clip-rule="evenodd" d="M16.7607 17.6568C16.9139 17.5028 16.7917 17.2365 16.5935 17.3253C15.4292 17.8473 14.6182 19.0164 14.6182 20.3749C14.6182 21.7334 15.4291 22.9024 16.5933 23.4244C16.7914 23.5132 16.9137 23.2469 16.7605 23.093C16.0674 22.3961 15.639 21.4355 15.639 20.375C15.639 19.3143 16.0674 18.3537 16.7607 17.6568Z" fill="#D7323E"/>
<path fill-rule="evenodd" clip-rule="evenodd" d="M23.4067 23.4244C23.2086 23.5132 23.0863 23.2469 23.2395 23.093C23.9326 22.3961 24.361 21.4355 24.361 20.375C24.361 19.3143 23.9326 18.3537 23.2393 17.6568C23.0861 17.5028 23.2083 17.2365 23.4065 17.3253C24.5708 17.8473 25.3818 19.0164 25.3818 20.3749C25.3818 21.7334 24.5709 22.9024 23.4067 23.4244Z" fill="#D7323E"/>
<path fill-rule="evenodd" clip-rule="evenodd" d="M19.9999 23.4585C21.419 23.4585 22.5694 21.7905 22.5694 19.7328C22.5694 19.2246 22.4992 18.7402 22.3722 18.2988C22.3126 18.092 22.55 17.9219 22.6826 18.0914C23.1928 18.7429 23.5 19.5831 23.5 20.5001C23.5 22.5711 21.933 24.2501 20 24.2501C18.067 24.2501 16.5 22.5711 16.5 20.5001C16.5 19.5832 16.8071 18.7431 17.3172 18.0916C17.4498 17.9222 17.6872 18.0922 17.6277 18.299C17.5006 18.7404 17.4305 19.2247 17.4305 19.7328C17.4305 21.7905 18.5809 23.4585 19.9999 23.4585Z" fill="#D7323E"/>
<path fill-rule="evenodd" clip-rule="evenodd" d="M20.009 16.7578C20.0083 16.7533 20.0044 16.75 19.9999 16.75C19.9954 16.75 19.9915 16.7533 19.9907 16.7578C19.9392 17.0609 19.6753 17.2916 19.3575 17.2916C19.2083 17.2916 19.0336 17.4001 19.0413 17.5491L19.3955 24.3988C19.3983 24.4535 19.4234 24.5045 19.4649 24.5402L19.8696 24.888C19.9445 24.9524 20.0553 24.9524 20.1303 24.888L20.535 24.5402C20.5765 24.5045 20.6015 24.4535 20.6044 24.3988L20.9586 17.5491C20.9663 17.4001 20.7915 17.2916 20.6422 17.2916C20.3245 17.2916 20.0606 17.0609 20.009 16.7578Z" fill="#D7323E"/>
<path fill-rule="evenodd" clip-rule="evenodd" d="M19.4583 16.0808C19.6075 16.0808 19.7476 16.0416 19.8687 15.9729C19.9574 15.9226 20.0702 15.9226 20.1589 15.9729C20.28 16.0416 20.4201 16.0808 20.5693 16.0808C20.8312 16.0808 21.0648 15.96 21.2176 15.7711C21.2769 15.6978 21.4026 15.7086 21.4026 15.803C21.4026 16.2632 21.0295 16.6363 20.5693 16.6363C20.4201 16.6363 20.2801 16.5971 20.1589 16.5284C20.0703 16.4781 19.9574 16.4781 19.8688 16.5284C19.7476 16.5971 19.6075 16.6364 19.4583 16.6364C18.9981 16.6364 18.625 16.2633 18.625 15.8031C18.625 15.7087 18.7507 15.6978 18.8101 15.7712C18.9628 15.9601 19.1965 16.0808 19.4583 16.0808Z" fill="#D7323E"/>
<path fill-rule="evenodd" clip-rule="evenodd" d="M20.5054 23.6087C20.4804 23.4701 20.3015 23.4685 20.1972 23.5632C19.7601 23.9602 18.9153 24.2292 17.9449 24.2292C17.7442 24.2292 17.549 24.2177 17.3615 24.1959C17.1738 24.1741 17.0768 24.3586 17.2446 24.4456C17.5916 24.6254 18.0652 24.7361 18.5873 24.7361C19.6516 24.7361 20.5144 24.276 20.5144 23.7083C20.5144 23.6747 20.5113 23.6415 20.5054 23.6087Z" fill="#D7323E"/>
<path fill-rule="evenodd" clip-rule="evenodd" d="M19.4955 23.6087C19.5206 23.4701 19.6995 23.4685 19.8037 23.5632C20.2409 23.9602 21.0857 24.2292 22.0561 24.2292C22.2567 24.2292 22.452 24.2177 22.6394 24.1959C22.8272 24.1741 22.9242 24.3586 22.7564 24.4456C22.4093 24.6254 21.9358 24.7361 21.4137 24.7361C20.3494 24.7361 19.4866 24.276 19.4866 23.7083C19.4866 23.6747 19.4896 23.6415 19.4955 23.6087Z" fill="#D7323E"/>
<rect x="-1.875" y="26.5625" width="43.75" height="15.3125" fill="#D7323E"/>
<rect x="-1.875" y="-1.875" width="43.75" height="16.4062" fill="#52A078"/>
</g>
</svg>
