<svg width="40" height="40" viewBox="0 0 40 40" fill="none" xmlns="http://www.w3.org/2000/svg">
<mask id="mask0" mask-type="alpha" maskUnits="userSpaceOnUse" x="2" y="2" width="36" height="36">
<circle cx="20" cy="20" r="17.5" fill="white"/>
</mask>
<g mask="url(#mask0)">
<path d="M-1.875 2.5H41.875V37.5H-1.875V2.5Z" fill="#EBEBEB"/>
<path d="M-1.75 2.5H42V7.5H-1.75V2.5Z" fill="#3F7494"/>
<path d="M-1.75 12.5H42V17.5H-1.75V12.5Z" fill="#3F7494"/>
<path d="M-1.75 22.5H42V27.5H-1.75V22.5Z" fill="#3F7494"/>
<path d="M-1.75 32.5H42V37.5H-1.75V32.5Z" fill="#3F7494"/>
<path d="M2.5 2.5H20V27.5H2.5V2.5Z" fill="#3F7494"/>
<path d="M-1.5 12.5H20V17.5H-1.5V12.5Z" fill="#EBEBEB"/>
<path d="M11.75 2.5L11.75 27.5L6.75 27.5L6.75 2.5L11.75 2.5Z" fill="#EBEBEB"/>
</g>
</svg>
