<svg width="40" height="40" viewBox="0 0 40 40" fill="none" xmlns="http://www.w3.org/2000/svg">
<mask id="mask0" mask-type="alpha" maskUnits="userSpaceOnUse" x="2" y="2" width="36" height="36">
<circle cx="20" cy="20" r="17.5" fill="white"/>
</mask>
<g mask="url(#mask0)">
<path d="M-1.875 2.5H41.875V37.5H-1.875V2.5Z" fill="#EBEBEB"/>
<path d="M-1.75 5H42V10H-1.75V5Z" fill="#3F7494"/>
<path d="M-1.75 30H42V35H-1.75V30Z" fill="#3F7494"/>
</g>
<path fill-rule="evenodd" clip-rule="evenodd" d="M20.8589 13.0023C20.4791 12.3378 19.5209 12.3378 19.1411 13.0023L17.591 15.7151H14.4907C13.7311 15.7151 13.255 16.5356 13.6318 17.1951L15.1885 19.9194L13.6318 22.6436C13.255 23.3031 13.7312 24.1237 14.4907 24.1237H17.591L19.1411 26.8364C19.5209 27.501 20.4791 27.501 20.8589 26.8364L22.409 24.1237H25.5093C26.2689 24.1237 26.7451 23.3031 26.3682 22.6436L24.8115 19.9193L26.3682 17.1951C26.745 16.5356 26.2689 15.7151 25.5093 15.7151H22.409L20.8589 13.0023ZM20.7 15.7151L20 14.4901L19.3 15.7151L20.7 15.7151ZM18.4521 17.1989L21.5479 17.1989L23.1024 19.9193L21.5479 22.6398H18.4521L16.8976 19.9194L18.4521 17.1989ZM16.7431 17.1989H15.343L16.043 18.424L16.7431 17.1989ZM16.043 21.4148L15.343 22.6398H16.7431L16.043 21.4148ZM19.3 24.1237L20 25.3486L20.7 24.1237H19.3ZM23.2569 22.6398H24.657L23.957 21.4148L23.2569 22.6398ZM23.957 18.4239L23.257 17.1989H24.657L23.957 18.4239Z" fill="#3F7494"/>
</svg>
