<svg width="40" height="40" viewBox="0 0 40 40" fill="none" xmlns="http://www.w3.org/2000/svg">
<mask id="mask0" mask-type="alpha" maskUnits="userSpaceOnUse" x="2" y="2" width="36" height="36">
<circle cx="20" cy="20" r="17.5" fill="white"/>
</mask>
<g mask="url(#mask0)">
<path d="M20 37.5C10.3344 37.5 2.5 29.6656 2.5 20C2.5 10.3344 10.3344 2.5 20 2.5C29.6656 2.5 37.5 10.3344 37.5 20C37.5 29.6642 29.6656 37.5 20 37.5Z" fill="white"/>
<path d="M41.875 -1.875H-1.875V41.875H41.875V-1.875Z" fill="#EBEBEB"/>
<rect x="-1.875" y="26.5625" width="43.75" height="15.3125" fill="#52A078"/>
<rect x="-1.875" y="-1.875" width="43.75" height="16.4062" fill="#E07A15"/>
</g>
<path fill-rule="evenodd" clip-rule="evenodd" d="M20 23.5C21.7949 23.5 23.25 22.0449 23.25 20.25C23.25 18.4551 21.7949 17 20 17C18.2051 17 16.75 18.4551 16.75 20.25C16.75 22.0449 18.2051 23.5 20 23.5ZM20 25C22.6234 25 24.75 22.8734 24.75 20.25C24.75 17.6266 22.6234 15.5 20 15.5C17.3766 15.5 15.25 17.6266 15.25 20.25C15.25 22.8734 17.3766 25 20 25Z" fill="#83C2D6"/>
<path d="M22.1644 20.1139L21.3302 19.7012L21.6288 18.8144C21.6639 18.7002 21.5498 18.5861 21.4356 18.6212L20.5488 18.9198L20.1361 18.0856C20.0834 17.9715 19.9166 17.9715 19.8639 18.0856L19.4512 18.9198L18.5644 18.6212C18.4502 18.5861 18.3361 18.7002 18.3712 18.8144L18.6698 19.7012L17.8356 20.1139C17.7215 20.1666 17.7215 20.3334 17.8356 20.3861L18.6698 20.7988L18.3712 21.6856C18.3361 21.7998 18.4502 21.9139 18.5644 21.8788L19.4512 21.5802L19.8639 22.4144C19.9166 22.5285 20.0834 22.5285 20.1361 22.4144L20.5488 21.5802L21.4356 21.8788C21.5498 21.9139 21.6639 21.7998 21.6288 21.6856L21.3302 20.7988L22.1644 20.3861C22.2785 20.3334 22.2785 20.1666 22.1644 20.1139Z" fill="#83C2D6"/>
</svg>
