<svg width="40" height="40" viewBox="0 0 40 40" fill="none" xmlns="http://www.w3.org/2000/svg">
<mask id="mask0" mask-type="alpha" maskUnits="userSpaceOnUse" x="2" y="2" width="36" height="36">
<circle cx="20" cy="20" r="17.5" fill="white"/>
</mask>
<g mask="url(#mask0)">
<path d="M-1.87493 2.5H41.8751V37.5H-1.87493V2.5Z" fill="#EBEBEB"/>
<circle cx="20" cy="20" r="6.75" fill="#D7323E"/>
<mask id="mask1" mask-type="alpha" maskUnits="userSpaceOnUse" x="13" y="13" width="14" height="14">
<circle cx="20" cy="20" r="6.75" fill="#D7323E"/>
</mask>
<g mask="url(#mask1)">
<path d="M26.75 20C26.75 23.7279 23.7279 26.75 20 26.75C16.2721 26.75 13.25 23.7279 13.25 20C18.6289 25.5898 21.8984 15.1484 26.75 20Z" fill="#3F7494"/>
</g>
<path fill-rule="evenodd" clip-rule="evenodd" d="M31.4413 12.817L30.1913 10.6519L31.0574 10.1519L32.3074 12.317L31.4413 12.817Z" fill="#323232"/>
<path fill-rule="evenodd" clip-rule="evenodd" d="M28.4103 14.567L27.1603 12.4019L28.0263 11.9019L29.2763 14.067L28.4103 14.567Z" fill="#323232"/>
<path fill-rule="evenodd" clip-rule="evenodd" d="M33.1913 15.8481L31.9413 13.683L32.8074 13.183L34.0574 15.3481L33.1913 15.8481Z" fill="#323232"/>
<path fill-rule="evenodd" clip-rule="evenodd" d="M30.1603 17.5981L28.9103 15.433L29.7763 14.933L31.0263 17.0981L30.1603 17.5981Z" fill="#323232"/>
<path fill-rule="evenodd" clip-rule="evenodd" d="M31.6758 16.7231L28.6758 11.5269L29.5418 11.0269L32.5418 16.2231L31.6758 16.7231Z" fill="#323232"/>
<path fill-rule="evenodd" clip-rule="evenodd" d="M11.9737 28.0981L8.97372 22.9019L9.83975 22.4019L12.8397 27.5981L11.9737 28.0981Z" fill="#323232"/>
<path fill-rule="evenodd" clip-rule="evenodd" d="M8.94263 29.8481L5.94263 24.6519L6.80866 24.1519L9.80866 29.3481L8.94263 29.8481Z" fill="#323232"/>
<path fill-rule="evenodd" clip-rule="evenodd" d="M8.70818 25.942L7.45818 23.7769L8.32421 23.2769L9.57421 25.442L8.70818 25.942Z" fill="#323232"/>
<path fill-rule="evenodd" clip-rule="evenodd" d="M10.4582 28.9731L9.20818 26.808L10.0742 26.308L11.3242 28.4731L10.4582 28.9731Z" fill="#323232"/>
<path fill-rule="evenodd" clip-rule="evenodd" d="M29.2763 25.933L28.0263 28.0981L27.1603 27.5981L28.4103 25.433L29.2763 25.933Z" fill="#323232"/>
<path fill-rule="evenodd" clip-rule="evenodd" d="M32.3074 27.683L31.0574 29.8481L30.1913 29.3481L31.4413 27.183L32.3074 27.683Z" fill="#323232"/>
<path fill-rule="evenodd" clip-rule="evenodd" d="M31.0263 22.9019L29.7763 25.067L28.9103 24.567L30.1603 22.4019L31.0263 22.9019Z" fill="#323232"/>
<path fill-rule="evenodd" clip-rule="evenodd" d="M34.0574 24.6519L32.8074 26.817L31.9413 26.317L33.1913 24.1519L34.0574 24.6519Z" fill="#323232"/>
<path fill-rule="evenodd" clip-rule="evenodd" d="M30.7918 26.808L29.5418 28.9731L28.6758 28.4731L29.9258 26.308L30.7918 26.808Z" fill="#323232"/>
<path fill-rule="evenodd" clip-rule="evenodd" d="M32.5418 23.7769L31.2918 25.942L30.4258 25.442L31.6758 23.2769L32.5418 23.7769Z" fill="#323232"/>
<path fill-rule="evenodd" clip-rule="evenodd" d="M9.80866 10.6519L6.80866 15.8481L5.94263 15.3481L8.94263 10.1519L9.80866 10.6519Z" fill="#323232"/>
<path fill-rule="evenodd" clip-rule="evenodd" d="M11.3242 11.5269L8.3242 16.7231L7.45818 16.2231L10.4582 11.0269L11.3242 11.5269Z" fill="#323232"/>
<path fill-rule="evenodd" clip-rule="evenodd" d="M12.8397 12.4019L9.83975 17.5981L8.97372 17.0981L11.9737 11.9019L12.8397 12.4019Z" fill="#323232"/>
</g>
</svg>
