<svg width="40" height="40" viewBox="0 0 40 40" fill="none" xmlns="http://www.w3.org/2000/svg">
<circle cx="20.25" cy="20" r="17.5" fill="#7EC49C"/>
<path fill-rule="evenodd" clip-rule="evenodd" d="M26.4597 30.7338C26.8145 30.4677 27.1694 30.1129 27.5242 29.758C28.1452 29.1371 28.7661 27.8064 28.7661 26.8306C28.7661 26.2097 28.4113 25.3226 27.9677 24.9677L26.7258 23.7258C26.1935 23.1935 25.4839 22.8387 24.6855 22.8387H18.8306C18.4252 22.6765 17.9828 22.0697 17.5371 21.4585C17.0076 20.7323 16.4736 20 15.9919 20C15.0161 20 14.129 19.8226 13.2419 19.379L12.2661 18.9355C11.9113 18.758 11.7339 18.4032 11.7339 17.9597C11.7339 17.5161 12 17.0726 12.4435 16.9839L15.1935 16.0081H15.6371C15.9032 16.0081 16.3468 16.0968 16.5242 16.2742L17.4113 17.0726C17.5 17.1613 17.6774 17.1613 17.8548 17.1613H18.3871C18.9194 17.1613 19.1855 16.629 19.0081 16.1855L17.5887 13.4355C17.5887 13.3911 17.5665 13.3246 17.5444 13.2581C17.5222 13.1915 17.5 13.125 17.5 13.0806C17.5 12.9032 17.5887 12.7258 17.7661 12.5484L18.6532 11.75C18.7419 11.5726 18.9194 11.4839 19.0968 11.4839H19.8952C20.0726 11.4839 20.3387 11.3952 20.4274 11.3064L21.1371 10.5968C21.4032 10.3306 21.4032 9.88709 21.1371 9.62096L20.6935 9.17741C20.4274 8.91128 20.4274 8.46773 20.6935 8.2016L21.6694 7.2258L22.0242 6.87096C22.5565 6.3387 22.5565 5.3629 22.0242 4.83064L19.702 2.50842C19.884 2.50282 20.0667 2.5 20.25 2.5C27.1028 2.5 33.0356 6.43887 35.9079 12.1761L34.8871 12.7258C34.5323 12.9032 34.2661 13.0806 34.0887 13.4355L32.3145 16.0081C32.1371 16.3629 31.9597 16.8064 31.9597 17.1613C31.9597 17.6048 32.1371 18.0484 32.3145 18.4032L33.9113 20.7984C34.2661 21.2419 34.7097 21.508 35.2419 21.6855L37.6059 22.2561C36.6634 29.5792 31.1942 35.4847 24.0948 37.0763L25.5726 33.2177C25.75 32.6855 25.8387 32.2419 25.9274 31.7097C26.0161 31.3548 26.1935 31 26.4597 30.7338ZM20.25 37.5V35.3467C20.3387 34.1935 19.5403 32.1532 18.2097 30.8226C17.6774 30.2903 17.4113 29.5806 17.4113 28.7822V25.9435C17.4113 24.9677 16.7903 23.9919 15.9032 23.4597C14.6613 22.75 12.7984 21.7742 11.5565 21.1532C10.5806 20.621 9.60484 20 8.80645 19.2016H8.71774C8.18548 18.758 7.47581 17.871 7.12097 17.3387C6.287 16.1711 5.06101 14.3764 4.18009 13.06C3.25993 15.1877 2.75 17.5343 2.75 20C2.75 29.665 10.585 37.5 20.25 37.5ZM13.4021 3.89056L15.2823 4.83064C16.2581 5.27419 17.4113 4.65322 17.4113 3.58871V2.72906C16.0122 2.95728 14.6689 3.35139 13.4021 3.89056Z" fill="#3F7494"/>
</svg>
