<svg width="17" height="16" viewBox="0 0 17 16" fill="none" xmlns="http://www.w3.org/2000/svg">
<mask id="mask0" mask-type="alpha" maskUnits="userSpaceOnUse" x="1" y="1" width="15" height="14">
<circle cx="8.5" cy="8" r="7" fill="white"/>
</mask>
<g mask="url(#mask0)">
<path d="M8.5 15C4.63376 15 1.5 11.8662 1.5 8C1.5 4.13376 4.63376 1 8.5 1C12.3662 1 15.5 4.13376 15.5 8C15.5 11.8657 12.3662 15 8.5 15Z" fill="white"/>
<path d="M0.640503 7.78086C0.640503 12.0093 4.06788 15.4367 8.29636 15.4367C12.5248 15.4367 15.9522 12.0093 15.9522 7.78086H0.640503Z" fill="#D7323E"/>
<path d="M15.9521 7.78087C15.9521 3.55238 12.5241 0.125 8.29625 0.125C4.06838 0.125 0.640381 3.553 0.640381 7.78087H15.9521Z" fill="#D7323E"/>
<path d="M17.25 4.5H-0.25V11.5H17.25V4.5Z" fill="#F8C06D"/>
<path d="M6.19032 8.98184H4.35071V7.31396C4.35071 6.99326 4.61026 6.73371 4.93095 6.73371H6.19032V8.98184Z" fill="#D7323E"/>
<path d="M6.19031 8.98184H8.02992V7.31396C8.02992 6.99326 7.77037 6.73371 7.44967 6.73371H6.19031V8.98184Z" fill="white"/>
<path d="M6.19031 8.98184V9.33832C6.19031 9.95694 6.60207 10.4578 7.11011 10.4578C7.61815 10.4578 8.02992 9.95629 8.02992 9.33832V8.98184H6.19031Z" fill="#D7323E"/>
<path d="M4.35071 8.98184V9.33832C4.35071 9.95694 4.76247 10.4578 5.27052 10.4578C5.77856 10.4578 6.19032 9.95629 6.19032 9.33832V8.98184H4.35071Z" fill="#FFE1A8"/>
<mask id="mask1" mask-type="alpha" maskUnits="userSpaceOnUse" x="4" y="8" width="3" height="3">
<path d="M4.35071 8.98183V9.33831C4.35071 9.95693 4.76247 10.4578 5.27051 10.4578C5.77855 10.4578 6.19032 9.95628 6.19032 9.33831V8.98183H4.35071Z" fill="#E6A32D"/>
</mask>
<g mask="url(#mask1)">
<path d="M5.06111 8.98183H4.76514V10.4285H5.06111V8.98183Z" fill="#D7323E"/>
<path d="M5.7734 8.98183H5.47742V10.4285H5.7734V8.98183Z" fill="#D7323E"/>
</g>
<path d="M9.1304 8.72815C9.1304 8.90638 8.98599 9.05079 8.80775 9.05079C8.62952 9.05079 8.48511 8.90638 8.48511 8.72815C8.48511 8.54991 8.62952 8.4055 8.80775 8.4055C8.98599 8.4055 9.1304 8.54991 9.1304 8.72815Z" fill="white"/>
<path d="M3.8953 8.72815C3.8953 8.90638 3.75089 9.05079 3.57265 9.05079C3.39441 9.05079 3.25 8.90638 3.25 8.72815C3.25 8.54991 3.39441 8.4055 3.57265 8.4055C3.75089 8.4055 3.8953 8.54991 3.8953 8.72815Z" fill="white"/>
<path d="M3.67862 8.72814H3.46655V10.0252H3.67862V8.72814Z" fill="white"/>
<path d="M8.91384 8.72814H8.70178V10.0252H8.91384V8.72814Z" fill="white"/>
<path d="M3.8335 10.3414H3.31115C3.27732 10.3414 3.25 10.3141 3.25 10.2802V10.087C3.25 10.0532 3.27732 10.0259 3.31115 10.0259H3.8335C3.86733 10.0259 3.89465 10.0532 3.89465 10.087V10.2802C3.8953 10.3141 3.86733 10.3414 3.8335 10.3414Z" fill="#323232"/>
<path d="M9.06865 10.3414H8.54629C8.51247 10.3414 8.4845 10.3141 8.4845 10.2802V10.087C8.4845 10.0532 8.51182 10.0259 8.54629 10.0259H9.06865C9.10248 10.0259 9.1298 10.0532 9.1298 10.087V10.2802C9.13045 10.3141 9.10248 10.3414 9.06865 10.3414Z" fill="#323232"/>
<path d="M6.62152 8.97272C6.62152 8.73464 6.42832 8.54144 6.19023 8.54144C5.95215 8.54144 5.7583 8.73464 5.7583 8.97272C5.7583 9.21081 5.9515 9.404 6.19023 9.404C6.42832 9.404 6.62152 9.21081 6.62152 8.97272Z" fill="#323232"/>
<path d="M7.84568 6.46635H4.53398C4.50275 6.46635 4.47543 6.44228 4.46828 6.40781L4.37005 5.9375C4.3603 5.89001 4.39217 5.84383 4.43575 5.84383H7.94455C7.98813 5.84383 8.02001 5.88936 8.01025 5.9375L7.91203 6.40781C7.90422 6.44228 7.8769 6.46635 7.84568 6.46635Z" fill="#FFE1A8"/>
<path d="M5.92749 5.51793C5.92749 5.22586 6.04458 4.98907 6.18964 4.98907C6.33471 4.98907 6.4518 5.22586 6.4518 5.51793C6.4518 5.81001 6.33471 6.04679 6.18964 6.04679C6.04523 6.04679 5.92749 5.81001 5.92749 5.51793Z" fill="#FFE1A8"/>
<path d="M5.4376 5.84383H4.9751V6.46635H5.4376V5.84383Z" fill="#D7323E"/>
<path d="M6.4219 5.84383H5.95874V6.46635H6.4219V5.84383Z" fill="#D7323E"/>
<path d="M7.40416 5.84383H6.94165V6.46635H7.40416V5.84383Z" fill="#D7323E"/>
</g>
</svg>
