<svg width="40" height="40" viewBox="0 0 40 40" fill="none" xmlns="http://www.w3.org/2000/svg">
<mask id="mask0" mask-type="alpha" maskUnits="userSpaceOnUse" x="2" y="2" width="36" height="36">
<circle cx="20" cy="20" r="17.5" fill="white"/>
</mask>
<g mask="url(#mask0)">
<path d="M-1.875 2.5H41.875V37.5H-1.875V2.5Z" fill="#D7323E"/>
</g>
<path fill-rule="evenodd" clip-rule="evenodd" d="M20.3363 13.3292C19.7704 13.1741 19.1746 13.0913 18.5595 13.0913C14.8557 13.0913 11.8532 16.0938 11.8532 19.7976C11.8532 23.5014 14.8557 26.5039 18.5595 26.5039C19.1746 26.5039 19.7704 26.4211 20.3363 26.266C18.9982 27.2583 17.3414 27.8452 15.5476 27.8452C11.103 27.8452 7.5 24.2421 7.5 19.7976C7.5 15.353 11.103 11.75 15.5476 11.75C17.3414 11.75 18.9981 12.3369 20.3363 13.3292Z" fill="#EBEBEB"/>
<path d="M22.0874 16.7241L21.7702 18.3658L20.234 19.0232C19.9631 19.1426 19.9481 19.5212 20.2102 19.6733L21.6527 20.4924L21.8053 22.1486C21.8379 22.4442 22.2007 22.5811 22.4156 22.383L23.6374 21.248L25.2522 21.623C25.5373 21.687 25.7831 21.3871 25.6635 21.1148L24.9675 19.6042L25.8073 18.1736C25.9582 17.9108 25.7559 17.5904 25.4616 17.6225L23.8134 17.8183L22.7069 16.5581C22.5201 16.339 22.1476 16.4271 22.0874 16.7241Z" fill="#EBEBEB"/>
</svg>
