<svg width="40" height="40" viewBox="0 0 40 40" fill="none" xmlns="http://www.w3.org/2000/svg">
<mask id="mask0" mask-type="alpha" maskUnits="userSpaceOnUse" x="2" y="2" width="36" height="36">
<circle cx="20" cy="20" r="17.5" fill="white"/>
</mask>
<g mask="url(#mask0)">
<path d="M-1.875 2.5H41.875V37.5H-1.875V2.5Z" fill="#D7323E"/>
<path d="M19.2538 13.2137L17.5519 16.7127L13.7031 17.2652C13.0223 17.3704 12.7605 18.2123 13.258 18.7122L16.0071 21.4219L15.3526 25.2366C15.2478 25.9206 15.981 26.4468 16.5832 26.1311L20.0131 24.3158L23.4168 26.1311C24.019 26.4468 24.7522 25.9206 24.6474 25.2366L23.9929 21.4219L26.742 18.7122C27.2395 18.2123 26.9777 17.3704 26.2969 17.2652L22.4743 16.7127L20.7462 13.2137C20.4582 12.6086 19.568 12.5823 19.2538 13.2137Z" fill="#F8C06D"/>
</g>
</svg>
