<svg width="40" height="40" viewBox="0 0 40 40" fill="none" xmlns="http://www.w3.org/2000/svg">
<mask id="mask0" mask-type="alpha" maskUnits="userSpaceOnUse" x="2" y="2" width="36" height="36">
<circle cx="20" cy="20" r="17.5" fill="white"/>
</mask>
<g mask="url(#mask0)">
<path d="M-1.875 2.5H41.875V37.5H-1.875V2.5Z" fill="#EBEBEB"/>
<rect x="-3.5" y="12" width="16" height="16" fill="#323232"/>
<rect x="8" y="2.5" width="29.5" height="13.75" fill="#EE6A63"/>
<rect x="10.25" y="21.25" width="27.25" height="16.25" fill="#3F7494"/>
<path fill-rule="evenodd" clip-rule="evenodd" d="M-16 -5H-6.5L19.9 17H46V23H19.9L-6.5 45H-16L14 20L-16 -5Z" fill="#52A078"/>
<path fill-rule="evenodd" clip-rule="evenodd" d="M-5.59502 -7.5L20.805 14.5H48.4999V25.5H20.805L-5.59502 47.5H-22.9053L10.0947 20L-22.9053 -7.5H-5.59502ZM13.9999 20L-16.0001 45H-6.50014L19.8999 23H45.9999V17H19.8999L-6.50014 -5H-16.0001L13.9999 20Z" fill="#EBEBEB"/>
<path fill-rule="evenodd" clip-rule="evenodd" d="M-20 -5H-16L14 20L-16 45H-20L10 20L-20 -5Z" fill="#F8C06D"/>
</g>
</svg>
