<svg width="316" height="178" fill="none" xmlns="http://www.w3.org/2000/svg">
  <path fill="#fff" d="M0 0h316v178H0z"/>
  <path d="M241.888 114.837c-.549 34.896-29.509 63.087-64.459 62.757-14.728-.11-28.301-5.276-39.017-13.738-3.902-3.133-9.287-3.737-13.848-1.704a43.358 43.358 0 01-17.53 3.682c-23.905-.055-43.413-19.893-43.028-43.798.165-11.21 4.67-21.376 11.87-28.96 2.472-2.583 3.846-5.99 3.791-9.562v-.22C79.667 50.542 106.21 24 138.961 24c19.014 0 35.885 8.958 46.765 22.806 1.869 2.418 4.452 4.121 7.419 4.836 28.356 6.869 49.293 32.642 48.743 63.195z" fill="#6C0000"/>
  <mask id="a" mask-type="alpha" maskUnits="userSpaceOnUse" x="74" y="0" width="178" height="154">
    <path d="M251.888 62.76C251.339 27.863 222.379-.328 187.429.002c-14.728.11-28.301 5.275-39.017 13.738-3.902 3.132-9.287 3.737-13.848 1.704a43.358 43.358 0 00-17.53-3.682c-23.905.055-43.413 19.893-43.028 43.797.165 11.21 4.67 21.377 11.87 28.96 2.472 2.583 3.846 5.99 3.791 9.563v.22c0 32.751 26.542 59.294 59.294 59.294 19.014 0 35.885-8.958 46.765-22.806 1.869-2.418 4.452-4.121 7.419-4.836 28.356-6.869 49.293-32.642 48.743-63.196z" fill="#9ACECA"/>
  </mask>
  <g mask="url(#a)">
    <path d="M251.888 62.76C251.339 27.863 222.379-.328 187.429.002c-14.728.11-28.301 5.275-39.017 13.738-3.902 3.132-9.287 3.737-13.848 1.704a43.358 43.358 0 00-17.53-3.682c-23.905.055-43.413 19.893-43.028 43.797.165 11.21 4.67 21.377 11.87 28.96 2.472 2.583 3.846 5.99 3.791 9.563v.22c0 32.751 26.542 59.294 59.294 59.294 19.014 0 35.885-8.958 46.765-22.806 1.869-2.418 4.452-4.121 7.419-4.836 28.356-6.869 49.293-32.642 48.743-63.196z" fill="url(#paint0_linear)"/>
    <path d="M294.783 27.403c-8.733.087-15.331 7.347-21.623 7.237-6.291-.11-15.792-18.56-36.929-18.56-26.236 0-38.629 23.698-45.673 23.698-7.958 0-12.367-3.97-20.164-3.97-20.45 0-16.765 6.301-32.071 8.522h195.576c-23.082-4.552-22.574-17.091-39.116-16.927z" fill="url(#paint1_linear)"/>
    <path d="M106.505 81.675c-8.733.088-15.331 7.348-21.623 7.237-6.291-.11-15.792-18.559-36.929-18.559-26.236 0-38.629 23.698-45.673 23.698-7.958 0-12.367-3.971-20.165-3.971-20.45 0-16.764 6.302-32.07 8.523H145.62c-23.081-4.552-22.573-17.091-39.115-16.928z" fill="url(#paint2_linear)"/>
    <path d="M179.997 306.203c129.66 0 234.77-44.298 234.77-98.943 0-54.644-105.11-98.942-234.77-98.942-129.66 0-234.77 44.298-234.77 98.942 0 54.645 105.11 98.943 234.77 98.943z" fill="url(#paint3_linear)"/>
  </g>
  <g clip-path="url(#clip0)">
    <path d="M205.369 77.368h-53.685v11.58h53.685v-11.58z" fill="#E99690"/>
    <path d="M156.947 75.79h-5.263v13.684h5.263V75.79zM173.789 77.894h-6.315v11.58h6.315v-11.58zM189.053 77.894h-6.316v11.58h6.316v-11.58zM205.368 75.79h-5.263v13.684h5.263V75.79z" fill="#651E19"/>
    <path d="M153.79 77.368h-2.106v12.105h2.106V77.368zM205.368 77.368h-2.105v12.105h2.105V77.368zM187.474 77.368h-2.106v12.105h2.106V77.368zM171.158 77.368h-2.105v12.105h2.105V77.368zM228 95.263H128v20.526h100V95.263z" fill="#6C0000"/>
    <path d="M200.632 91.053v1.842h-2.106v-1.842c0-.158-.105-.263-.263-.263h-3.421c-.158 0-.263.105-.263.263v1.842h-2.105v-1.842c0-.158-.106-.263-.263-.263h-3.422c-.157 0-.263.105-.263.263v1.842h-2.105v-1.842c0-.158-.105-.263-.263-.263h-3.421c-.158 0-.263.105-.263.263v1.842h-2.106v-1.842c0-.158-.105-.263-.263-.263h-3.421c-.158 0-.263.105-.263.263v1.842h-2.105v-1.842c0-.158-.105-.263-.263-.263h-3.421c-.158 0-.264.105-.264.263v1.842h-2.105v-1.842c0-.158-.105-.263-.263-.263h-3.421c-.158 0-.263.105-.263.263v1.842h-2.105v-1.842c0-.158-.106-.263-.264-.263h-3.421c-.158 0-.263.105-.263.263v1.842h-2.105v-1.842c0-.158-.105-.263-.263-.263h-3.421c-.158 0-.263.105-.263.263v1.842h-2.106v-1.842c0-.158-.105-.263-.263-.263h-3.421c-.158 0-.263.105-.263.263v1.842h-2.105v-1.842c0-.158-.106-.263-.264-.263h-3.157c-.158 0-.264.105-.264.263v1.842h-1.579v-1.842c0-.158-.105-.263-.263-.263h-3.947c-.158 0-.263.105-.263.263v1.842h-2.105v-1.842c0-.158-.106-.263-.264-.263h-3.684c-.158 0-.263.105-.263.263v4.473h77.895v-4.473c0-.158-.106-.263-.263-.263h-4.737c-.158 0-.263.105-.263.263z" fill="#6C0000"/>
    <path d="M155.105 91.053v1.842h2.105v-1.842c0-.158.106-.263.264-.263h3.421c.158 0 .263.105.263.263v1.842h2.105v-1.842c0-.158.105-.263.263-.263h3.421c.158 0 .263.105.263.263v1.842h2.106v-1.842c0-.158.105-.263.263-.263H173c.158 0 .263.105.263.263v1.842h2.105v-1.842c0-.158.106-.263.264-.263h3.421c.157 0 .263.105.263.263v1.842h2.105v-1.842c0-.158.105-.263.263-.263h3.421c.158 0 .263.105.263.263v1.842h2.106v-1.842c0-.158.105-.263.263-.263h3.421c.158 0 .263.105.263.263v1.842h2.105v-1.842c0-.158.106-.263.263-.263h3.421c.158 0 .264.105.264.263v1.842h2.105v-1.842c0-.158.105-.263.263-.263h3.421c.158 0 .263.105.263.263v1.842h2.106v-1.842c0-.158.105-.263.263-.263h3.421c.158 0 .263.105.263.263v1.842h2.105v-1.842c0-.158.105-.263.263-.263h3.421c.158 0 .264.105.264.263v1.842h1.578v-1.842c0-.158.106-.263.264-.263h3.947c.158 0 .263.105.263.263v1.842h2.105v-1.842c0-.158.106-.263.264-.263h3.684c.158 0 .263.105.263.263v4.473h-78.158v-4.473c0-.158.105-.263.263-.263h4.737c.158 0 .263.105.263.263z" fill="#6C0000"/>
    <path d="M223.263 120.263h-90.526L138 92.368h80l5.263 27.895z" fill="#A33029"/>
    <path d="M178 106.579a6.828 6.828 0 00-6.842 6.842v7.368h13.684v-7.368a6.828 6.828 0 00-6.842-6.842z" fill="#6C0000"/>
    <path d="M218 91.579h-80v1.052h80V91.58z" fill="#651E19"/>
    <path d="M214.316 87.105v1.842h-2.632v-1.842c0-.158-.105-.263-.263-.263h-3.158c-.158 0-.263.105-.263.263v1.842h-2.632v-1.842c0-.158-.105-.263-.263-.263h-3.158c-.158 0-.263.105-.263.263v1.842h-2.631v-1.842c0-.158-.106-.263-.264-.263h-3.157c-.158 0-.264.105-.264.263v1.842h-2.631v-1.842c0-.158-.105-.263-.263-.263h-3.158c-.158 0-.263.105-.263.263v1.842h-2.632v-1.842c0-.158-.105-.263-.263-.263H183c-.158 0-.263.105-.263.263v1.842h-2.632v-1.842c0-.158-.105-.263-.263-.263h-3.158c-.158 0-.263.105-.263.263v1.842h-2.632v-1.842c0-.158-.105-.263-.263-.263h-3.158c-.157 0-.263.105-.263.263v1.842h-2.631v-1.842c0-.158-.106-.263-.263-.263h-3.158c-.158 0-.264.105-.264.263v1.842h-2.631v-1.842c0-.158-.105-.263-.263-.263h-3.158c-.158 0-.263.105-.263.263v1.842h-2.106v-1.842c0-.158-.105-.263-.263-.263h-3.158c-.158 0-.263.105-.263.263v1.842h-2.631v-1.842c0-.158-.106-.263-.264-.263h-3.157c-.158 0-.264.105-.264.263v1.842h-2.631v-1.842c0-.158-.105-.263-.263-.263h-4.211c-.158 0-.263.105-.263.263v4.474h80v-4.474c0-.158-.105-.263-.263-.263h-3.158c-.158 0-.263.105-.263.263z" fill="#A33029"/>
    <path d="M178.339 76.432c-21.948 0-34.549-2.748-34.549-2.748s6.842 5.905 10 5.905h49.473c3.158 0 8.948-5.905 8.948-5.905s-11.924 2.748-33.872 2.748z" fill="#6C0000"/>
    <path d="M212.211 73.684l-.527-.526c-7.368 1.579-12.631 1.052-12.631 1.052h-42.106s-5.789.527-12.631-1.052l-.526.526s12.601 3.205 34.618 3.205c22.017 0 33.803-3.205 33.803-3.205z" fill="#651E19"/>
    <path d="M199.053 62.105h-42.106V74.21h42.106V62.105z" fill="#E99690"/>
    <path d="M164.842 65.263h-5.263v8.947h5.263v-8.947zM196.421 65.263h-5.263v8.947h5.263v-8.947zM171.158 65.263h-5.263v8.947h5.263v-8.947z" fill="#A33029"/>
    <path d="M178.104 61.38c-19.802 0-31.157-2.978-31.157-2.978s7.345 5.282 9.977 5.282h42.105c2.632 0 10.024-5.263 10.024-5.263s-11.147 2.959-30.949 2.959z" fill="#6C0000"/>
    <path d="M209.053 58.42l-.527-.525c-9.208 1.454-12.128 1.052-12.128 1.052h-36.842s-2.292.356-11.916-1.098l-.623.554s11.216 3.046 31.018 3.046c19.801 0 31.018-3.028 31.018-3.028z" fill="#651E19"/>
    <path d="M177.474 65.263h-5.264v8.947h5.264v-8.947zM183.79 65.263h-5.264v8.947h5.264v-8.947zM190.105 65.263h-5.263v8.947h5.263v-8.947z" fill="#A33029"/>
    <path d="M196.421 51.579h-36.842v7.368h36.842v-7.368z" fill="#E99690"/>
    <path d="M166.947 53.158h-4.21v5.79h4.21v-5.79zM172.211 53.158H168v5.79h4.211v-5.79zM177.474 53.158h-4.211v5.79h4.211v-5.79zM182.737 53.158h-4.211v5.79h4.211v-5.79z" fill="#A33029"/>
    <path d="M178 46.037c-.316 0-.526-.139-.526-.346v-6.924c0-.208.21-.346.526-.346.316 0 .526.138.526.346v6.924c0 .207-.21.346-.526.346z" fill="#D6801C"/>
    <path d="M179.053 43.158h-2.106a.527.527 0 000 1.052h2.106a.526.526 0 000-1.052zM178.526 41.579h-1.052a.527.527 0 100 1.052h1.052a.527.527 0 100-1.052zM178.526 40h-1.052a.527.527 0 100 1.053h1.052a.527.527 0 100-1.053z" fill="#D6801C"/>
    <path d="M188 53.158h-4.21v5.79H188v-5.79zM193.263 53.158h-4.21v5.79h4.21v-5.79z" fill="#A33029"/>
    <path d="M204.316 47.895l-1.053-1.053c-4.985 1.592-8.947.526-8.947.526l.403-3.626a1 1 0 00-.994-1.11h-.186c-.469 0-.833.332-.814.8l.012.252c-10.04 1.87-18.562 1.87-28.948 0v-.058a.994.994 0 10-1.982.11l.403 3.632s-3.616.72-8.947-.526l-1.053 1.053s9.555 2.504 25.826 2.504c16.27 0 26.28-2.505 26.28-2.505z" fill="#651E19"/>
    <path d="M178.105 49.942c-16.271 0-25.895-2.047-25.895-2.047l7.895 4.21h36.842l7.369-4.21c0-.07-9.94 2.047-26.211 2.047z" fill="#6C0000"/>
    <path d="M179.632 51.052h-3.264a1 1 0 00-1 1v.632a1 1 0 001 1h3.264a1 1 0 001-1v-.632a1 1 0 00-1-1z" fill="#F3B761"/>
  </g>
  <mask id="b" mask-type="alpha" maskUnits="userSpaceOnUse" x="78" y="87" width="47" height="48">
    <circle cx="101.471" cy="111.225" r="23.451" fill="#fff"/>
  </mask>
  <g mask="url(#b)">
    <path d="M72.157 87.774h58.628v46.902H72.158V87.774z" fill="#C93C33"/>
    <path d="M89.174 99.185l-1.303 2.679-2.947.423c-.522.081-.722.725-.341 1.108l2.105 2.075-.501 2.921c-.08.524.48.927.942.685l2.626-1.39 2.607 1.39c.461.242 1.022-.161.942-.685l-.501-2.921 2.105-2.075c.381-.383.18-1.027-.34-1.108l-2.928-.423-1.323-2.68a.637.637 0 00-1.143 0zM96.901 95.277l-.488 1.005-1.105.159c-.196.03-.271.272-.128.415l.79.778-.189 1.096c-.03.196.18.347.354.257l.985-.522.977.522c.173.09.383-.06.353-.257l-.188-1.096.79-.778c.143-.143.067-.385-.128-.415l-1.098-.159-.496-1.005a.239.239 0 00-.428 0zM100.587 99.633l-.489 1.004-1.105.159c-.196.03-.27.272-.128.416l.79.778-.188 1.095c-.03.197.18.348.353.257l.985-.521.977.521c.173.091.384-.06.354-.257l-.188-1.095.789-.778c.143-.144.068-.386-.128-.416l-1.097-.159-.497-1.004a.239.239 0 00-.428 0zM100.587 105.663l-.489 1.005-1.105.158c-.196.031-.27.272-.128.416l.79.778-.188 1.095c-.03.197.18.348.353.257l.985-.521.977.521c.173.091.384-.06.354-.257l-.188-1.095.789-.778c.143-.144.068-.385-.128-.416l-1.097-.158-.497-1.005a.239.239 0 00-.428 0zM96.901 110.018l-.488 1.005-1.105.158c-.196.031-.271.272-.128.416l.79.778-.189 1.095c-.03.197.18.348.354.257l.985-.521.977.521c.173.091.383-.06.353-.257l-.188-1.095.79-.778c.143-.144.067-.385-.128-.416l-1.098-.158-.496-1.005a.239.239 0 00-.428 0z" fill="#F3B761"/>
  </g>
  <path d="M12.007 52.5c15.973 0 16.009-24 0-24-16.01 0-16.01 24 0 24z" fill="#FFE1A8"/>
  <path d="M23.003 100.5c6.655 0 6.67-10 0-10s-6.67 10 0 10z" fill="#C93C33"/>
  <path d="M310.003 147.5c6.655 0 6.67-10 0-10-6.671 0-6.671 10 0 10z" fill="#FFE1A8"/>
  <path d="M258.367 134.003c8.472 0 8.49-12.728 0-12.728-8.489 0-8.489 12.728 0 12.728zM119.564 89.114c6.244 0 6.257-9.38 0-9.38s-6.257 9.38 0 9.38zM87.352 50.922c4.46 0 4.47-6.7 0-6.7s-4.47 6.7 0 6.7z" fill="#C93C33"/>
  <path d="M52.003 85c7.987 0 8.005-12 0-12-8.004 0-8.004 12 0 12zM118.893 28.811c2.675 0 2.681-4.02 0-4.02-2.682 0-2.682 4.02 0 4.02z" fill="#F3B761"/>
  <path d="M244.682 14.36c3.567 0 3.575-5.36 0-5.36-3.576 0-3.576 5.36 0 5.36zM39.682 140.36c3.567 0 3.575-5.36 0-5.36-3.576 0-3.576 5.36 0 5.36z" fill="#C93C33"/>
  <path d="M48.001 113.5c2.662 0 2.668-4 0-4s-2.668 4 0 4z" fill="#FFE1A8"/>
  <path d="M225.352 27.7c4.459 0 4.469-6.7 0-6.7s-4.469 6.7 0 6.7z" fill="#F3B761"/>
  <path d="M283.352 47.7c4.459 0 4.469-6.7 0-6.7s-4.469 6.7 0 6.7z" fill="#FFE1A8"/>
  <path d="M261.728 93.134c0-4.98 3.642-7.77 3.642-7.77-3.067 0-3.642-8.98-3.642-8.98h-.086s-.575 8.98-3.642 8.98c0 0 3.728 2.142 3.728 7.122v.648zM302.515 88.25c0-12.71 9.295-19.832 9.295-19.832-7.828 0-9.295-22.918-9.295-22.918h-.22S300.828 68.418 293 68.418c0 0 9.515 5.47 9.515 18.18v1.652zM224.85 127.306c0-10.956 7.946-17.096 7.946-17.096-6.691 0-7.946-19.756-7.946-19.756h-.188s-1.254 19.756-7.946 19.756c0 0 8.134 4.715 8.134 15.671v1.425zM60.047 40c0-5.649 3.953-8.814 3.953-8.814-3.33 0-3.953-10.186-3.953-10.186h-.094S59.33 31.186 56 31.186c0 0 4.047 2.43 4.047 8.08V40z" fill="#F3B761"/>
  <defs>
    <linearGradient id="paint0_linear" x1="162.95" y1="0" x2="162.95" y2="153.597" gradientUnits="userSpaceOnUse">
      <stop stop-color="#D6801C"/>
      <stop offset="1" stop-color="#F8C066"/>
    </linearGradient>
    <linearGradient id="paint1_linear" x1="236.147" y1="55.612" x2="236.147" y2="16.081" gradientUnits="userSpaceOnUse">
      <stop stop-color="#fff" stop-opacity="0"/>
      <stop offset="1" stop-color="#fff"/>
    </linearGradient>
    <linearGradient id="paint2_linear" x1="47.869" y1="98.494" x2="47.869" y2="79.063" gradientUnits="userSpaceOnUse">
      <stop stop-color="#fff" stop-opacity="0"/>
      <stop offset="1" stop-color="#fff"/>
    </linearGradient>
    <linearGradient id="paint3_linear" x1="76.818" y1="256.358" x2="23.222" y2="100.873" gradientUnits="userSpaceOnUse">
      <stop stop-color="#6C0000"/>
      <stop offset=".604" stop-color="#951513"/>
      <stop offset="1" stop-color="#BE2A26"/>
    </linearGradient>
    <clipPath id="clip0">
      <path fill="#fff" transform="translate(128 20)" d="M0 0h100v100H0z"/>
    </clipPath>
  </defs>
</svg>
