<svg width="316" height="179" fill="none" xmlns="http://www.w3.org/2000/svg">
  <path fill="#fff" d="M0 .5h316v178H0z"/>
  <path d="M241.888 115.337c-.549 34.896-29.509 63.086-64.459 62.757-14.728-.11-28.301-5.276-39.017-13.739-3.902-3.132-9.287-3.736-13.848-1.703a43.358 43.358 0 01-17.53 3.682c-23.905-.055-43.413-19.893-43.028-43.798.165-11.21 4.67-21.377 11.87-28.96 2.472-2.583 3.846-5.99 3.791-9.562v-.22c0-32.752 26.542-59.294 59.294-59.294 19.014 0 35.885 8.957 46.765 22.806 1.869 2.417 4.452 4.121 7.419 4.835 28.356 6.87 49.293 32.643 48.743 63.196z" fill="#EBEBEB"/>
  <mask id="a" maskUnits="userSpaceOnUse" x="74" y="0" width="178" height="155">
    <path d="M251.888 63.26C251.339 28.363 222.379.172 187.429.502c-14.728.11-28.301 5.275-39.017 13.738-3.902 3.132-9.287 3.737-13.848 1.704a43.358 43.358 0 00-17.53-3.682c-23.905.055-43.413 19.893-43.028 43.797.165 11.21 4.67 21.377 11.87 28.96 2.472 2.583 3.846 5.99 3.791 9.563v.22c0 32.751 26.542 59.294 59.294 59.294 19.014 0 35.885-8.958 46.765-22.806 1.869-2.418 4.452-4.121 7.419-4.836 28.356-6.869 49.293-32.642 48.743-63.196z" fill="#65C3BC"/>
  </mask>
  <g mask="url(#a)">
    <path d="M251.888 63.26C251.339 28.363 222.379.172 187.429.502c-14.728.11-28.301 5.275-39.017 13.738-3.902 3.132-9.287 3.737-13.848 1.704a43.358 43.358 0 00-17.53-3.682c-23.905.055-43.413 19.893-43.028 43.797.165 11.21 4.67 21.377 11.87 28.96 2.472 2.583 3.846 5.99 3.791 9.563v.22c0 32.751 26.542 59.294 59.294 59.294 19.014 0 35.885-8.958 46.765-22.806 1.869-2.418 4.452-4.121 7.419-4.836 28.356-6.869 49.293-32.642 48.743-63.196z" fill="url(#paint0_linear)"/>
    <path d="M294.783 27.903c-8.733.087-15.331 7.347-21.623 7.237-6.291-.11-15.792-18.56-36.929-18.56-26.236 0-38.629 23.698-45.673 23.698-7.958 0-12.367-3.97-20.164-3.97-20.45 0-16.765 6.301-32.071 8.523h195.576c-23.082-4.553-22.574-17.092-39.116-16.928z" fill="url(#paint1_linear)"/>
    <path d="M106.505 82.175c-8.733.087-15.331 7.348-21.623 7.237-6.291-.11-15.792-18.559-36.929-18.559-26.236 0-38.629 23.697-45.673 23.697-7.958 0-12.367-3.97-20.165-3.97-20.45 0-16.764 6.302-32.07 8.523H145.62c-23.081-4.553-22.573-17.092-39.115-16.928z" fill="url(#paint2_linear)"/>
    <path d="M179.997 306.703c129.66 0 234.77-44.298 234.77-98.943 0-54.644-105.11-98.942-234.77-98.942-129.66 0-234.77 44.298-234.77 98.942 0 54.645 105.11 98.943 234.77 98.943z" fill="url(#paint3_linear)"/>
    <path d="M219.425 49.801H140.57v5.583h78.855V49.8zM219.425 65.502H140.57v5.583h78.855v-5.583z" fill="#882834"/>
    <path d="M222.914 49.801H137.08l-3.489-5.582h92.812l-3.489 5.582z" fill="#882834"/>
    <path d="M230.241 44.219s-22.68 3.14-50.244 3.14-50.244-3.14-50.244-3.14l-2.093-4.187s24.424 3.14 52.337 3.14c26.866 0 52.337-3.14 52.337-3.14l-2.093 4.187zM184.882 53.64h-9.77v13.956h9.77V53.639z" fill="#161616"/>
    <path d="M159.76 120.282h-9.072l.698-62.805h7.676l.698 62.805z" fill="#D7323E"/>
    <path d="M160.109 55.384h-9.77v2.093h9.77v-2.093zM160.807 86.786h-11.166v3.49h11.166v-3.49z" fill="#161616"/>
    <path d="M161.505 120.282h-12.91l.698-14.654h11.514l.698 14.654z" fill="#882834"/>
    <path d="M209.306 120.282h-9.072l.698-62.804h7.676l.698 62.804z" fill="#D7323E"/>
    <path d="M210.353 86.786h-11.165v3.49h11.165v-3.49zM209.655 55.384h-9.77v2.093h9.77v-2.093z" fill="#161616"/>
    <path d="M211.4 120.282h-12.91l.698-14.654h11.514l.698 14.654z" fill="#882834"/>
  </g>
  <mask id="b" maskUnits="userSpaceOnUse" x="78" y="88" width="47" height="48">
    <circle cx="101.471" cy="111.725" r="23.451" fill="#fff"/>
  </mask>
  <g mask="url(#b)">
    <path d="M72.157 88.274h58.628v46.902H72.158V88.274z" fill="#fff"/>
    <circle cx="101.471" cy="111.725" r="10.72" fill="#D7323E"/>
  </g>
  <path d="M12.007 53c15.973 0 16.009-24 0-24-16.01 0-16.01 24 0 24z" fill="#EBEBEB"/>
  <path d="M23.003 101c6.655 0 6.67-10 0-10s-6.67 10 0 10z" fill="#EE6A63"/>
  <path d="M310.003 148c6.655 0 6.67-10 0-10-6.671 0-6.671 10 0 10z" fill="#EBEBEB"/>
  <path d="M258.367 134.503c8.472 0 8.49-12.728 0-12.728-8.489 0-8.489 12.728 0 12.728zM119.564 89.614c6.244 0 6.257-9.38 0-9.38s-6.257 9.38 0 9.38zM87.352 51.422c4.46 0 4.47-6.7 0-6.7s-4.47 6.7 0 6.7z" fill="#EE6A63"/>
  <path d="M52.003 85.5c7.987 0 8.005-12 0-12-8.004 0-8.004 12 0 12zM118.893 29.311c2.675 0 2.681-4.02 0-4.02-2.682 0-2.682 4.02 0 4.02z" fill="#F8C06D"/>
  <path d="M244.682 14.86c3.567 0 3.575-5.36 0-5.36-3.576 0-3.576 5.36 0 5.36zM39.682 140.86c3.567 0 3.575-5.36 0-5.36-3.576 0-3.576 5.36 0 5.36z" fill="#EE6A63"/>
  <path d="M48.001 114c2.662 0 2.668-4 0-4s-2.668 4 0 4z" fill="#EBEBEB"/>
  <path d="M225.352 28.2c4.459 0 4.469-6.7 0-6.7s-4.469 6.7 0 6.7z" fill="#F8C06D"/>
  <path d="M283.352 48.2c4.459 0 4.469-6.7 0-6.7s-4.469 6.7 0 6.7z" fill="#EBEBEB"/>
  <path d="M261.728 93.634c0-4.98 3.642-7.771 3.642-7.771-3.067 0-3.642-8.98-3.642-8.98h-.086s-.575 8.98-3.642 8.98c0 0 3.728 2.143 3.728 7.123v.648zM302.515 88.75c0-12.71 9.295-19.832 9.295-19.832-7.828 0-9.295-22.918-9.295-22.918h-.22S300.828 68.918 293 68.918c0 0 9.515 5.47 9.515 18.18v1.652zM224.85 127.805c0-10.955 7.946-17.096 7.946-17.096-6.691 0-7.946-19.755-7.946-19.755h-.188s-1.254 19.755-7.946 19.755c0 0 8.134 4.716 8.134 15.672v1.424zM60.047 40.5c0-5.649 3.953-8.814 3.953-8.814-3.33 0-3.953-10.186-3.953-10.186h-.094S59.33 31.686 56 31.686c0 0 4.047 2.43 4.047 8.08v.734z" fill="#F8C06D"/>
  <defs>
    <linearGradient id="paint0_linear" x1="162.95" y1=".5" x2="162.95" y2="154.097" gradientUnits="userSpaceOnUse">
      <stop stop-color="#EBEBEB"/>
      <stop offset="1" stop-color="#fff"/>
    </linearGradient>
    <linearGradient id="paint1_linear" x1="236.147" y1="56.112" x2="236.147" y2="16.581" gradientUnits="userSpaceOnUse">
      <stop stop-color="#fff" stop-opacity="0"/>
      <stop offset="1" stop-color="#fff"/>
    </linearGradient>
    <linearGradient id="paint2_linear" x1="47.869" y1="98.994" x2="47.869" y2="79.563" gradientUnits="userSpaceOnUse">
      <stop stop-color="#fff" stop-opacity="0"/>
      <stop offset="1" stop-color="#fff"/>
    </linearGradient>
    <linearGradient id="paint3_linear" x1="76.818" y1="256.858" x2="23.222" y2="101.373" gradientUnits="userSpaceOnUse">
      <stop stop-color="#882834"/>
      <stop offset=".651" stop-color="#B01434"/>
      <stop offset="1" stop-color="#D7323E"/>
    </linearGradient>
  </defs>
</svg>
