<svg width="316" height="178" fill="none" xmlns="http://www.w3.org/2000/svg">
  <path fill="#fff" d="M0 0h316v178H0z"/>
  <path d="M241.888 114.837c-.549 34.896-29.509 63.087-64.459 62.757-14.728-.11-28.301-5.276-39.017-13.738-3.902-3.133-9.287-3.737-13.848-1.704a43.358 43.358 0 01-17.53 3.682c-23.905-.055-43.413-19.893-43.028-43.798.165-11.21 4.67-21.376 11.87-28.96 2.472-2.583 3.846-5.99 3.791-9.562v-.22C79.667 50.542 106.21 24 138.961 24c19.014 0 35.885 8.958 46.765 22.806 1.869 2.418 4.452 4.121 7.419 4.836 28.356 6.869 49.293 32.642 48.743 63.195z" fill="#203D2C"/>
  <mask id="a" mask-type="alpha" maskUnits="userSpaceOnUse" x="74" y="0" width="178" height="154">
    <path d="M251.888 62.76C251.339 27.863 222.379-.328 187.429.002c-14.728.11-28.301 5.275-39.017 13.738-3.902 3.132-9.287 3.737-13.848 1.704a43.358 43.358 0 00-17.53-3.682c-23.905.055-43.413 19.893-43.028 43.797.165 11.21 4.67 21.377 11.87 28.96 2.472 2.583 3.846 5.99 3.791 9.563v.22c0 32.751 26.542 59.294 59.294 59.294 19.014 0 35.885-8.958 46.765-22.806 1.869-2.418 4.452-4.121 7.419-4.836 28.356-6.869 49.293-32.642 48.743-63.196z" fill="#9ACECA"/>
  </mask>
  <g mask="url(#a)">
    <path d="M251.888 62.76C251.339 27.863 222.379-.328 187.429.002c-14.728.11-28.301 5.275-39.017 13.738-3.902 3.132-9.287 3.737-13.848 1.704a43.358 43.358 0 00-17.53-3.682c-23.905.055-43.413 19.893-43.028 43.797.165 11.21 4.67 21.377 11.87 28.96 2.472 2.583 3.846 5.99 3.791 9.563v.22c0 32.751 26.542 59.294 59.294 59.294 19.014 0 35.885-8.958 46.765-22.806 1.869-2.418 4.452-4.121 7.419-4.836 28.356-6.869 49.293-32.642 48.743-63.196z" fill="url(#paint0_linear)"/>
    <path d="M294.783 27.403c-8.733.087-15.331 7.348-21.623 7.237-6.291-.11-15.792-18.56-36.929-18.56-26.236 0-38.629 23.698-45.673 23.698-7.958 0-12.367-3.97-20.164-3.97-20.45 0-16.765 6.302-32.071 8.523h195.576c-23.082-4.553-22.574-17.092-39.116-16.928z" fill="url(#paint1_linear)"/>
    <path d="M106.505 81.675c-8.733.088-15.331 7.348-21.623 7.237-6.291-.11-15.792-18.559-36.929-18.559-26.236 0-38.629 23.698-45.673 23.698-7.958 0-12.367-3.971-20.165-3.971-20.45 0-16.764 6.302-32.07 8.523H145.62c-23.081-4.552-22.573-17.091-39.115-16.928z" fill="url(#paint2_linear)"/>
    <path d="M179.997 306.203c129.66 0 234.77-44.298 234.77-98.943 0-54.644-105.11-98.942-234.77-98.942-129.66 0-234.77 44.298-234.77 98.942 0 54.645 105.11 98.943 234.77 98.943z" fill="url(#paint3_linear)"/>
  </g>
  <path d="M211.684 93.158h-67.368V120h67.368V93.158z" fill="#854400"/>
  <path d="M211.684 100h-67.368v3.158h67.368V100z" fill="#D6801C"/>
  <path d="M163.263 74.21h-10.526V120h10.526V74.21zM203.789 74.21h-10.526V120h10.526V74.21zM162.211 38.947h-8.421v23.158h8.421V38.947zM202.737 38.947h-8.421v23.158h8.421V38.947zM161.684 27.369L158 23.684l-3.684 3.684v3.158h7.368V27.37zM202.21 27.369l-3.684-3.685-3.684 3.684v3.158h7.368V27.37zM164.316 65.263h-12.632v6.316h12.632v-6.316zM204.842 65.263H192.21v6.316h12.632v-6.316z" fill="#F3B761"/>
  <path d="M164.316 72.105h-12.632l1.053 2.105h10.526l1.053-2.105zM204.842 72.105H192.21l1.053 2.105h10.526l1.053-2.105z" fill="#F3B761"/>
  <path d="M195.368 78.947h-34.736V120h34.736V78.947z" fill="#F5D8AF"/>
  <path d="M195.368 78.947h-34.736v5.263h34.736v-5.263zM188.526 91.053h-21.052V120h21.052V91.053z" fill="#F3B761"/>
  <path d="M188.526 91.053h-21.052v2.105h21.052v-2.105z" fill="#D6801C"/>
  <path d="M158.263 20h-.526v6.316h.526V20zM198.789 20h-.526v6.316h.526V20z" fill="#F3B761"/>
  <path d="M173.789 95.263h-4.21v4.21h4.21v-4.21zM180.105 95.263h-4.21v4.21h4.21v-4.21zM186.421 95.263h-4.211v4.21h4.211v-4.21z" fill="#F5D8AF"/>
  <path d="M173.789 120h-4.21v-11.632s0-6.263 2.105-6.263 2.105 6.263 2.105 6.263V120zM159.053 89.474h-2.632v-6.158s0-3.316 1.282-3.316 1.282 3.316 1.282 3.316v6.158h.068zM199.579 89.474h-2.632v-6.158s0-3.316 1.282-3.316 1.282 3.316 1.282 3.316v6.158h.068zM159.053 106.316h-2.632v-6.158s0-3.316 1.282-3.316 1.282 3.316 1.282 3.316v6.158h.068zM199.579 106.316h-2.632v-6.158s0-3.316 1.282-3.316 1.282 3.316 1.282 3.316v6.158h.068zM158.491 43.158h-1.017V41.79s0-.737.526-.737.526.737.526.737v1.368h-.035zM199.018 43.158H198V41.79s0-.737.526-.737c.527 0 .527.737.527.737v1.368h-.035zM160.596 43.158h-1.017V41.79s0-.737.526-.737.526.737.526.737v1.368h-.035zM201.123 43.158h-1.018V41.79s0-.737.527-.737c.526 0 .526.737.526.737v1.368h-.035zM156.386 43.158h-1.018V41.79s0-.737.527-.737c.526 0 .526.737.526.737v1.368h-.035zM196.912 43.158h-1.017V41.79s0-.737.526-.737.526.737.526.737v1.368h-.035zM180.105 120h-4.21v-11.632s0-6.263 2.105-6.263 2.105 6.263 2.105 6.263V120zM186.421 120h-4.211v-11.632s0-6.263 2.106-6.263c2.105 0 2.105 6.263 2.105 6.263V120zM161.684 78.947h-1.052v5.263h1.052v-5.263zM195.369 78.947h-1.053v5.263h1.053v-5.263zM178.526 78.947h-1.052v5.263h1.052v-5.263zM170.105 78.947h-1.052v5.263h1.052v-5.263zM165.895 78.947h-1.053v5.263h1.053v-5.263zM174.316 78.947h-1.053v5.263h1.053v-5.263zM182.737 78.947h-1.053v5.263h1.053v-5.263zM191.158 78.947h-1.053v5.263h1.053v-5.263zM186.947 78.947h-1.052v5.263h1.052v-5.263z" fill="#D6801C"/>
  <path d="M195.368 78.947h-34.736V80h34.736v-1.053zM195.368 83.158h-34.736v1.053h34.736v-1.053z" fill="#D6801C"/>
  <path d="M162.737 31.579h-9.474v5.263h9.474v-5.263zM203.263 31.579h-9.473v5.263h9.473v-5.263zM162.737 36.842h-9.474l.526 2.105h8.422l.526-2.105zM203.263 36.842h-9.473l.526 2.105h8.421l.526-2.105z" fill="#F3B761"/>
  <path d="M165.368 65.263h-14.736l2.105-3.158h10.526l2.105 3.158zM205.895 65.263h-14.737l2.105-3.158h10.527l2.105 3.158zM164.316 71.052h-12.632v1.053h12.632v-1.053zM204.842 71.052H192.21v1.053h12.632v-1.053z" fill="#D6801C"/>
  <path d="M152.737 65.263h-1.053v5.79h1.053v-5.79zM193.263 65.263h-1.053v5.79h1.053v-5.79zM164.316 65.263h-1.053v5.79h1.053v-5.79zM204.842 65.263h-1.052v5.79h1.052v-5.79zM155.895 65.263h-1.053v5.79h1.053v-5.79zM196.421 65.263h-1.053v5.79h1.053v-5.79zM161.158 65.263h-1.053v5.79h1.053v-5.79zM201.684 65.263h-1.052v5.79h1.052v-5.79zM163.789 31.579H152.21l2.106-2.105h7.368l2.105 2.105zM204.316 31.579h-11.579l2.105-2.105h7.368l2.106 2.105zM194.842 31.579h-1.052v4.21h1.052v-4.21zM203.263 31.579h-1.053v4.21h1.053v-4.21zM197.474 31.579h-1.053v4.21h1.053v-4.21zM200.631 31.579h-1.052v4.21h1.052v-4.21zM162.737 35.79h-9.474v1.052h9.474v-1.053zM203.263 35.79h-9.473v1.052h9.473v-1.053zM154.316 31.579h-1.053v4.21h1.053v-4.21zM162.737 31.579h-1.053v4.21h1.053v-4.21zM156.947 31.579h-1.052v4.21h1.052v-4.21zM160.105 31.579h-1.052v4.21h1.052v-4.21z" fill="#D6801C"/>
  <path d="M144.316 120h-13.684v-12.657l13.684-4.185V120zM211.684 120h13.684v-12.657l-13.684-4.185V120z" fill="#472600"/>
  <mask id="b" mask-type="alpha" maskUnits="userSpaceOnUse" x="78" y="87" width="47" height="48">
    <circle cx="101.471" cy="111.225" r="23.451" fill="#fff"/>
  </mask>
  <g mask="url(#b)">
    <path d="M72.157 87.774h58.628v46.902H72.158V87.774z" fill="#45835F"/>
  </g>
  <path fill-rule="evenodd" clip-rule="evenodd" d="M107.608 94.809c.256.622-.007 1.812-1.523 2.436l-.798.33h-.001c-.858.356-1.591.66-2.207.888 1.23-.005 2.937-.25 4.584-.628a14.678 14.678 0 016.454 5.851l-.001.001c.335.958.144 1.603-.191 1.77-.478.16-1.451-.071-2.265-1.104a12.172 12.172 0 00-10.143-5.432 12.17 12.17 0 00-10.078 5.336c-.83 1.115-1.846 1.365-2.34 1.201-.33-.166-.522-.798-.202-1.739a14.637 14.637 0 019.685-6.94 12.03 12.03 0 00-1.575.01c-1.827.152-2.447-1.358-2.19-1.98 1.162.523 2.639.758 4.005.975 1.025.163 1.988.316 2.709.573.862-.333 1.682-.368 2.487-.403 1.204-.051 2.372-.101 3.59-1.145zM99.64 124.4c0 .342.092.663.252.939a1.8 1.8 0 00.205.314l.025.002c.099.11.211.209.334.293-.453.233-.986.378-1.754.435-1.295.096-2.463-.28-3.14-.498-.387-.125-.614-.198-.614-.103 0 .095.213.299.464.541.325.312.714.686.787.962.077.288-.07.44-.194.569-.103.106-.19.196-.118.332.156.301 2.575.033 3.753-.601a5.936 5.936 0 001.622-1.326 1.939 1.939 0 00.509 0c.368.43.944.961 1.622 1.326 1.179.634 3.598.902 3.754.601.071-.136-.016-.226-.118-.332-.124-.129-.272-.281-.195-.569.074-.276.463-.65.788-.962.25-.242.463-.446.463-.541 0-.095-.227-.022-.613.103-.678.218-1.846.594-3.14.498-.769-.056-1.302-.202-1.754-.435.122-.084.235-.183.334-.293l.025-.002a1.81 1.81 0 00.205-.315 1.877 1.877 0 10-3.502-.938zm-8.586-7.055a12.201 12.201 0 007.816 5.651 3.043 3.043 0 00-.254 2.437 14.639 14.639 0 01-9.664-6.855c.715.153 1.14.377 1.754.7.186.098.388.205.621.321-.242-.727-.397-1.46-.273-2.254zm-.82-1.639a12.15 12.15 0 01-.9-4.604c0-1.649.328-3.222.922-4.656-.856.448-1.273.934-1.588 1.303-.094.109-.178.208-.263.292-.03-.125-.05-.264-.07-.417-.058-.426-.13-.962-.526-1.612-.59 1.585-.911 3.3-.911 5.09 0 1.954.383 3.819 1.08 5.523.779.953 1.528.942 1.816.784.22-.121.605-.832.44-1.703zm24.456-8.082c.057-.428.13-.967.532-1.622.591 1.588.914 3.306.914 5.1 0 1.871-.352 3.66-.992 5.304-.838 1.172-1.675 1.172-1.984 1.003-.197-.108-.526-.688-.476-1.432a12.136 12.136 0 001.015-4.875c0-1.647-.327-3.218-.919-4.651.849.447 1.263.931 1.577 1.298.093.109.178.207.262.292.031-.125.05-.264.071-.417zm-10.526 15.372a12.202 12.202 0 007.751-5.543c.094.752-.058 1.452-.289 2.146.233-.117.436-.223.622-.321.638-.336 1.073-.566 1.845-.719a14.637 14.637 0 01-9.675 6.874c.094-.293.144-.606.144-.931 0-.548-.144-1.062-.398-1.506zm-12.1-12.096c0-1.886.535-3.644 1.46-5.128a8.574 8.574 0 00-.278 2.174c0 4.65 3.703 8.419 8.271 8.419 4.568 0 8.271-3.769 8.271-8.419 0-.752-.097-1.48-.279-2.174a9.663 9.663 0 011.46 5.128c0 5.302-4.232 9.6-9.452 9.6s-9.453-4.298-9.453-9.6z" fill="#F5F5F5"/>
  <path d="M12.007 52.5c15.973 0 16.009-24 0-24-16.01 0-16.01 24 0 24z" fill="#FFE1A8"/>
  <path d="M23.003 100.5c6.655 0 6.67-10 0-10s-6.67 10 0 10z" fill="#45835F"/>
  <path d="M310.003 147.5c6.655 0 6.67-10 0-10-6.671 0-6.671 10 0 10z" fill="#FFE1A8"/>
  <path d="M258.367 134.003c8.472 0 8.49-12.728 0-12.728-8.489 0-8.489 12.728 0 12.728zM119.564 89.114c6.244 0 6.257-9.38 0-9.38s-6.257 9.38 0 9.38zM87.352 50.922c4.46 0 4.47-6.7 0-6.7s-4.47 6.7 0 6.7z" fill="#45835F"/>
  <path d="M52.003 85c7.987 0 8.005-12 0-12-8.004 0-8.004 12 0 12zM118.893 28.811c2.675 0 2.681-4.02 0-4.02-2.682 0-2.682 4.02 0 4.02z" fill="#F3B761"/>
  <path d="M244.682 14.36c3.567 0 3.575-5.36 0-5.36-3.576 0-3.576 5.36 0 5.36zM39.682 140.36c3.567 0 3.575-5.36 0-5.36-3.576 0-3.576 5.36 0 5.36z" fill="#45835F"/>
  <path d="M48.001 113.5c2.662 0 2.668-4 0-4s-2.668 4 0 4z" fill="#FFE1A8"/>
  <path d="M225.352 27.7c4.459 0 4.469-6.7 0-6.7s-4.469 6.7 0 6.7z" fill="#F3B761"/>
  <path d="M283.352 47.7c4.459 0 4.469-6.7 0-6.7s-4.469 6.7 0 6.7z" fill="#FFE1A8"/>
  <path d="M261.728 93.134c0-4.98 3.642-7.77 3.642-7.77-3.067 0-3.642-8.98-3.642-8.98h-.086s-.575 8.98-3.642 8.98c0 0 3.728 2.142 3.728 7.122v.648zM302.515 88.25c0-12.71 9.295-19.832 9.295-19.832-7.828 0-9.295-22.918-9.295-22.918h-.22S300.828 68.418 293 68.418c0 0 9.515 5.47 9.515 18.18v1.652zM224.85 127.305c0-10.955 7.946-17.096 7.946-17.096-6.691 0-7.946-19.755-7.946-19.755h-.188s-1.254 19.755-7.946 19.755c0 0 8.134 4.716 8.134 15.672v1.424zM60.047 40c0-5.649 3.953-8.814 3.953-8.814-3.33 0-3.953-10.186-3.953-10.186h-.094S59.33 31.186 56 31.186c0 0 4.047 2.43 4.047 8.08V40z" fill="#F3B761"/>
  <defs>
    <linearGradient id="paint0_linear" x1="162.95" y1="0" x2="162.95" y2="153.597" gradientUnits="userSpaceOnUse">
      <stop stop-color="#D6801C"/>
      <stop offset="1" stop-color="#F8C066"/>
    </linearGradient>
    <linearGradient id="paint1_linear" x1="236.147" y1="55.612" x2="236.147" y2="16.081" gradientUnits="userSpaceOnUse">
      <stop stop-color="#fff" stop-opacity="0"/>
      <stop offset="1" stop-color="#fff"/>
    </linearGradient>
    <linearGradient id="paint2_linear" x1="47.869" y1="98.494" x2="47.869" y2="79.063" gradientUnits="userSpaceOnUse">
      <stop stop-color="#fff" stop-opacity="0"/>
      <stop offset="1" stop-color="#fff"/>
    </linearGradient>
    <linearGradient id="paint3_linear" x1="76.818" y1="256.358" x2="23.222" y2="100.873" gradientUnits="userSpaceOnUse">
      <stop stop-color="#203D2C"/>
      <stop offset=".604" stop-color="#346247"/>
      <stop offset="1" stop-color="#45835F"/>
    </linearGradient>
  </defs>
</svg>
