<svg width="316" height="178" fill="none" xmlns="http://www.w3.org/2000/svg">
  <path fill="#fff" d="M0 0h316v178H0z"/>
  <path d="M241.888 114.837c-.549 34.896-29.509 63.086-64.459 62.757-14.728-.11-28.301-5.276-39.017-13.739-3.902-3.132-9.287-3.736-13.848-1.703a43.358 43.358 0 01-17.53 3.682c-23.905-.055-43.413-19.893-43.028-43.798.165-11.21 4.67-21.377 11.87-28.96 2.472-2.583 3.846-5.99 3.791-9.562v-.22C79.667 50.542 106.21 24 138.961 24c19.014 0 35.885 8.957 46.765 22.806 1.869 2.417 4.452 4.121 7.419 4.835 28.356 6.87 49.293 32.643 48.743 63.196z" fill="#163B4B"/>
  <mask id="a" mask-type="alpha" maskUnits="userSpaceOnUse" x="74" y="0" width="178" height="154">
    <path d="M251.888 62.76C251.339 27.863 222.379-.328 187.429.002c-14.728.11-28.301 5.275-39.017 13.738-3.902 3.132-9.287 3.737-13.848 1.704a43.358 43.358 0 00-17.53-3.682c-23.905.055-43.413 19.893-43.028 43.797.165 11.21 4.67 21.377 11.87 28.96 2.472 2.583 3.846 5.99 3.791 9.563v.22c0 32.751 26.542 59.294 59.294 59.294 19.014 0 35.885-8.958 46.765-22.806 1.869-2.418 4.452-4.121 7.419-4.836 28.356-6.869 49.293-32.642 48.743-63.196z" fill="#9ACECA"/>
  </mask>
  <g mask="url(#a)">
    <path d="M251.888 62.76C251.339 27.863 222.379-.328 187.429.002c-14.728.11-28.301 5.275-39.017 13.738-3.902 3.132-9.287 3.737-13.848 1.704a43.358 43.358 0 00-17.53-3.682c-23.905.055-43.413 19.893-43.028 43.797.165 11.21 4.67 21.377 11.87 28.96 2.472 2.583 3.846 5.99 3.791 9.563v.22c0 32.751 26.542 59.294 59.294 59.294 19.014 0 35.885-8.958 46.765-22.806 1.869-2.418 4.452-4.121 7.419-4.836 28.356-6.869 49.293-32.642 48.743-63.196z" fill="url(#paint0_linear)"/>
    <path d="M294.783 27.403c-8.733.087-15.331 7.348-21.623 7.237-6.291-.11-15.792-18.56-36.929-18.56-26.236 0-38.629 23.698-45.673 23.698-7.958 0-12.367-3.97-20.164-3.97-20.45 0-16.765 6.302-32.071 8.523h195.576c-23.082-4.553-22.574-17.092-39.116-16.928z" fill="url(#paint1_linear)"/>
    <path d="M106.505 81.675c-8.733.088-15.331 7.348-21.623 7.237-6.291-.11-15.792-18.559-36.929-18.559-26.236 0-38.629 23.698-45.673 23.698-7.958 0-12.367-3.971-20.165-3.971-20.45 0-16.764 6.302-32.07 8.523H145.62c-23.081-4.552-22.573-17.091-39.115-16.928z" fill="url(#paint2_linear)"/>
    <path d="M179.997 306.203c129.66 0 234.77-44.298 234.77-98.943 0-54.644-105.11-98.942-234.77-98.942-129.66 0-234.77 44.298-234.77 98.942 0 54.645 105.11 98.943 234.77 98.943z" fill="url(#paint3_linear)"/>
  </g>
  <g clip-path="url(#clip0)">
    <path d="M190.632 36.316h-12.106V120h12.106V36.316z" fill="#B4B4B4"/>
    <path d="M207.421 77.895a1 1 0 00-1 1v1.726h-4.21v-1.726a1 1 0 00-1-1h-5.877a1 1 0 00-1 1v1.726h-18.439V120h38.947V78.895a1 1 0 00-1-1h-6.421z" fill="#B4B4B4"/>
    <path d="M214.842 88.947h-38.947v1.58h38.947v-1.58z" fill="#707070"/>
    <path fill-rule="evenodd" clip-rule="evenodd" d="M153.316 68.947h-5.895a1 1 0 00-1 1V120h45.263V69.947a1 1 0 00-1-1h-5.894a1 1 0 00-1 1v3.737h-4.211v-3.737a1 1 0 00-1-1h-5.895a1 1 0 00-1 1v3.737h-4.737v-3.737a1 1 0 00-1-1h-5.894a1 1 0 00-1 1v3.737h-4.737v-3.737a1 1 0 00-1-1z" fill="#296F8E"/>
    <path d="M189.579 28.947h-10v7.369h10v-7.369zM189.579 28.947h-10l4.97-4.736 5.03 4.736z" fill="#B4B4B4"/>
    <path d="M191.684 76.316h-45.263v1.579h45.263v-1.58z" fill="#1F576F"/>
    <path d="M184.579 24.737a.79.79 0 100-1.58.79.79 0 000 1.58z" fill="#707070"/>
    <path d="M184.579 23.158a.79.79 0 100-1.58.79.79 0 000 1.58z" fill="#707070"/>
    <path d="M184.579 21.14c-.374 0-.665-.263-.748-.614 0 .088-.041.132-.041.22 0 .482.374.833.789.833.457 0 .79-.395.79-.833v-.22a.819.819 0 01-.79.614zM211.684 82.105h-1.579v3.685h1.579v-3.685zM199.053 82.105h-1.579v3.685h1.579v-3.685zM188.275 61.693h-1.374v4.058h1.374v-4.058zM188.275 50.971h-1.374v4.058h1.374V50.97zM202.737 102.105c-3.23 0-5.789 3.983-5.789 8.948V120h11.578v-8.947c0-4.907-2.559-8.948-5.789-8.948z" fill="#707070"/>
    <path d="M179.052 85.263c-3.229 0-5.789 3.983-5.789 8.948v8.947h11.578v-8.947c.061-4.965-2.559-8.948-5.789-8.948z" fill="#1F576F"/>
    <path d="M188.275 40.24h-1.374v4.058h1.374V40.24zM191.158 36.316H178v1.579h13.158v-1.58zM191.158 46.316H178v1.052h13.158v-1.052zM191.158 47.895H178v1.052h13.158v-1.052zM191.158 56.316H178v1.052h13.158v-1.052zM191.158 57.895H178v1.052h13.158v-1.052z" fill="#707070"/>
    <path fill-rule="evenodd" clip-rule="evenodd" d="M186.947 33.684h-8.421v2.632h.527V34.21h3.158v2.105h.526V34.21h4.21v2.105h.527V34.21h2.631v2.105h.527v-2.632h-3.685z" fill="#707070"/>
    <path fill-rule="evenodd" clip-rule="evenodd" d="M148.053 96.842h-5.895a1 1 0 00-1 1v4.316c0 .171.043.333.119.474h-.119V120h50.526v-17.368h-30.119a.998.998 0 00.119-.474v-4.316a1 1 0 00-1-1h-5.894a1 1 0 00-1 1v4.316c0 .171.043.333.119.474h-4.975a.998.998 0 00.119-.474v-4.316a1 1 0 00-1-1z" fill="#163B4B"/>
  </g>
  <mask id="b" mask-type="alpha" maskUnits="userSpaceOnUse" x="78" y="87" width="47" height="48">
    <circle cx="101.471" cy="111.225" r="23.451" fill="#fff"/>
  </mask>
  <g mask="url(#b)">
    <path d="M72.157 87.774h58.628v46.902H72.158V87.774z" fill="#F5F5F5"/>
    <path d="M72.325 91.124h58.627v6.7H72.325v-6.7zM72.325 124.625h58.627v6.701H72.325v-6.701z" fill="#296F8E"/>
  </g>
  <path fill-rule="evenodd" clip-rule="evenodd" d="M102.622 101.848a1.325 1.325 0 00-2.302 0l-2.077 3.635h-4.155a1.325 1.325 0 00-1.15 1.983l2.085 3.651-2.086 3.65a1.326 1.326 0 001.151 1.984h4.155l2.077 3.635a1.325 1.325 0 002.302 0l2.077-3.635h4.155c1.018 0 1.656-1.1 1.151-1.984l-2.086-3.65 2.086-3.651a1.325 1.325 0 00-1.151-1.983h-4.155l-2.077-3.635zm-.213 3.635l-.938-1.642-.938 1.642h1.876zm-3.012 1.988h4.148l2.084 3.646-2.084 3.645h-4.148l-2.083-3.645 2.083-3.646zm-2.29 0H95.23l.938 1.642.938-1.642zm-.939 5.65l-.938 1.641h1.876l-.938-1.641zm4.365 3.63l.938 1.641.938-1.641h-1.876zm5.303-1.989h1.876l-.938-1.641-.938 1.641zm.938-5.649l-.938-1.642h1.876l-.938 1.642z" fill="#296F8E"/>
  <path d="M12.007 52.5c15.973 0 16.009-24 0-24-16.01 0-16.01 24 0 24z" fill="#FFE1A8"/>
  <path d="M23.003 100.5c6.655 0 6.67-10 0-10s-6.67 10 0 10z" fill="#296F8E"/>
  <path d="M310.003 147.5c6.655 0 6.67-10 0-10-6.671 0-6.671 10 0 10z" fill="#FFE1A8"/>
  <path d="M258.367 134.003c8.472 0 8.49-12.728 0-12.728-8.489 0-8.489 12.728 0 12.728zM119.564 89.114c6.244 0 6.257-9.38 0-9.38s-6.257 9.38 0 9.38zM87.352 50.922c4.46 0 4.47-6.7 0-6.7s-4.47 6.7 0 6.7z" fill="#296F8E"/>
  <path d="M52.003 85c7.987 0 8.005-12 0-12-8.004 0-8.004 12 0 12zM118.893 28.811c2.675 0 2.681-4.02 0-4.02-2.682 0-2.682 4.02 0 4.02z" fill="#F3B761"/>
  <path d="M244.682 14.36c3.567 0 3.575-5.36 0-5.36-3.576 0-3.576 5.36 0 5.36zM39.682 140.36c3.567 0 3.575-5.36 0-5.36-3.576 0-3.576 5.36 0 5.36z" fill="#296F8E"/>
  <path d="M48.001 113.5c2.662 0 2.668-4 0-4s-2.668 4 0 4z" fill="#FFE1A8"/>
  <path d="M225.352 27.7c4.459 0 4.469-6.7 0-6.7s-4.469 6.7 0 6.7z" fill="#F3B761"/>
  <path d="M283.352 47.7c4.459 0 4.469-6.7 0-6.7s-4.469 6.7 0 6.7z" fill="#FFE1A8"/>
  <path d="M261.728 93.134c0-4.98 3.642-7.771 3.642-7.771-3.067 0-3.642-8.98-3.642-8.98h-.086s-.575 8.98-3.642 8.98c0 0 3.728 2.143 3.728 7.123v.648zM302.515 88.25c0-12.71 9.295-19.832 9.295-19.832-7.828 0-9.295-22.918-9.295-22.918h-.22S300.828 68.418 293 68.418c0 0 9.515 5.47 9.515 18.18v1.652zM224.85 127.305c0-10.955 7.946-17.096 7.946-17.096-6.691 0-7.946-19.755-7.946-19.755h-.188s-1.254 19.755-7.946 19.755c0 0 8.134 4.716 8.134 15.672v1.424zM60.047 40c0-5.649 3.953-8.814 3.953-8.814-3.33 0-3.953-10.186-3.953-10.186h-.094S59.33 31.186 56 31.186c0 0 4.047 2.43 4.047 8.08V40z" fill="#F3B761"/>
  <defs>
    <linearGradient id="paint0_linear" x1="162.95" y1="0" x2="162.95" y2="153.597" gradientUnits="userSpaceOnUse">
      <stop stop-color="#B4B4B4"/>
      <stop offset="1" stop-color="#F5F5F5"/>
    </linearGradient>
    <linearGradient id="paint1_linear" x1="236.147" y1="55.612" x2="236.147" y2="16.081" gradientUnits="userSpaceOnUse">
      <stop stop-color="#fff" stop-opacity="0"/>
      <stop offset="1" stop-color="#fff"/>
    </linearGradient>
    <linearGradient id="paint2_linear" x1="47.869" y1="98.494" x2="47.869" y2="79.063" gradientUnits="userSpaceOnUse">
      <stop stop-color="#fff" stop-opacity="0"/>
      <stop offset="1" stop-color="#fff"/>
    </linearGradient>
    <linearGradient id="paint3_linear" x1="76.818" y1="256.358" x2="23.222" y2="100.873" gradientUnits="userSpaceOnUse">
      <stop stop-color="#163B4B"/>
      <stop offset=".604" stop-color="#1F576F"/>
      <stop offset="1" stop-color="#296F8E"/>
    </linearGradient>
    <clipPath id="clip0">
      <path fill="#fff" transform="translate(128 20)" d="M0 0h100v100H0z"/>
    </clipPath>
  </defs>
</svg>
