<svg width="352" height="274" viewBox="0 0 352 274" fill="none" xmlns="http://www.w3.org/2000/svg">
<g clip-path="url(#clip0_816_3276)">
<g clip-path="url(#clip1_816_3276)">
<path d="M21.6002 52.1244L27.1633 47.9985L27.1542 47.9945C27.705 47.5795 28.1644 47.0486 28.4551 46.379C28.933 45.2782 28.8637 44.0817 28.3839 43.0776L32.7777 44.985C32.756 45.9894 32.5464 46.9995 32.1243 47.9718C31.2794 49.9181 29.6959 51.449 27.7223 52.2277C25.7486 53.0065 23.5465 52.9693 21.6002 52.1244M17.4476 41.6004C18.029 40.2611 18.9283 39.1689 20.022 38.3573L20.8157 45.2428L20.8249 45.2468C20.9839 46.6132 21.8171 47.8579 23.1931 48.4553C23.6059 48.6345 24.0361 48.7231 24.468 48.758L20.6179 51.5998C17.2646 49.5554 15.8388 45.3062 17.4476 41.6004ZM27.5378 45.9808C27.221 46.7106 26.6272 47.2847 25.8871 47.5767C25.147 47.8687 24.3211 47.8548 23.5913 47.538C22.8615 47.2211 22.2874 46.6273 21.9953 45.8872C21.7033 45.1471 21.7172 44.3213 22.0341 43.5914C22.3509 42.8616 22.9447 42.2875 23.6848 41.9955C24.4249 41.7034 25.2508 41.7174 25.9806 42.0342C26.7104 42.3511 27.2845 42.9449 27.5766 43.685C27.8686 44.4251 27.8547 45.2509 27.5378 45.9808ZM27.9717 37.4478C30.6869 38.6265 32.4124 41.1307 32.7265 43.8726L26.3788 41.1169C24.5993 40.3444 22.5729 40.9691 21.5048 42.5004L20.9662 37.7643C23.0502 36.6303 25.6234 36.4283 27.9717 37.4478ZM28.7681 35.6132C27.5635 35.0902 26.2677 34.8097 24.9547 34.7875C23.6416 34.7654 22.3371 35.002 21.1155 35.484C18.6485 36.4575 16.6692 38.3711 15.613 40.8039C14.5569 43.2367 14.5104 45.9894 15.4839 48.4565C15.9659 49.6781 16.6838 50.7927 17.5966 51.7368C18.5094 52.681 19.5992 53.4361 20.8038 53.959C23.2366 55.0151 25.9893 55.0616 28.4564 54.0881C30.9234 53.1147 32.9027 51.2011 33.9589 48.7683C34.4818 47.5637 34.7624 46.2679 34.7845 44.9548C34.8067 43.6418 34.57 42.3373 34.088 41.1157C33.606 39.8941 32.8881 38.7795 31.9753 37.8353C31.0625 36.8912 29.9727 36.1361 28.7681 35.6132V35.6132Z" fill="white" fill-opacity="0.07"/>
</g>
<g clip-path="url(#clip2_816_3276)">
<path d="M225.553 15.6394L218.826 13.9894L218.829 13.999C218.158 13.8398 217.456 13.8249 216.755 14.0285C215.602 14.3631 214.725 15.18 214.258 16.1902L212.923 11.5901C213.71 10.9659 214.621 10.4826 215.639 10.1871C217.677 9.59553 219.866 9.83763 221.725 10.8601C223.584 11.8826 224.961 13.6018 225.553 15.6394M220.1 25.5526C218.698 25.9597 217.283 25.9643 215.961 25.6403L220.755 20.635L220.752 20.6254C221.703 19.631 222.129 18.1951 221.711 16.7546C221.586 16.3225 221.379 15.9346 221.131 15.5799L225.776 16.7304C226.342 20.6167 223.98 24.4262 220.1 25.5526ZM217.033 14.9888C217.797 14.767 218.618 14.8578 219.316 15.2412C220.013 15.6247 220.529 16.2693 220.751 17.0334C220.973 17.7975 220.882 18.6185 220.498 19.3156C220.115 20.0128 219.47 20.5291 218.706 20.7509C217.942 20.9727 217.121 20.882 216.424 20.4985C215.727 20.1151 215.211 19.4704 214.989 18.7063C214.767 17.9422 214.858 17.1213 215.241 16.4241C215.625 15.727 216.269 15.2107 217.033 14.9888ZM210.187 20.1004C209.362 17.2577 210.189 14.3312 212.099 12.3395L214.028 18.9851C214.569 20.8482 216.343 22.0096 218.204 21.8547L214.901 25.2918C212.698 24.4111 210.901 22.5588 210.187 20.1004ZM208.266 20.658C208.632 21.9191 209.243 23.0958 210.064 24.1208C210.885 25.1459 211.9 25.9992 213.051 26.632C215.374 27.9102 218.111 28.2128 220.658 27.4733C223.205 26.7339 225.354 25.0129 226.632 22.689C227.265 21.5384 227.665 20.2743 227.809 18.9691C227.954 17.6638 227.839 16.3429 227.473 15.0817C226.734 12.5347 225.013 10.3858 222.689 9.10769C220.365 7.82957 217.629 7.52695 215.082 8.26641C213.821 8.63255 212.644 9.24351 211.619 10.0644C210.594 10.8853 209.74 11.9 209.108 13.0507C208.475 14.2014 208.075 15.4654 207.93 16.7707C207.786 18.0759 207.9 19.3968 208.266 20.658V20.658Z" fill="white" fill-opacity="0.07"/>
</g>
<path d="M330 243L333.46 237H333.45C333.79 236.4 334 235.73 334 235C334 233.8 333.46 232.73 332.62 232H337.41C337.79 232.93 338 233.94 338 235C338 237.122 337.157 239.157 335.657 240.657C334.157 242.157 332.122 243 330 243M322 235C322 233.54 322.39 232.18 323.07 231L326.54 237H326.55C327.24 238.19 328.5 239 330 239C330.45 239 330.88 238.91 331.29 238.77L328.89 242.91C325 242.37 322 239.04 322 235ZM333 235C333 235.796 332.684 236.559 332.121 237.121C331.559 237.684 330.796 238 330 238C329.204 238 328.441 237.684 327.879 237.121C327.316 236.559 327 235.796 327 235C327 234.204 327.316 233.441 327.879 232.879C328.441 232.316 329.204 232 330 232C330.796 232 331.559 232.316 332.121 232.879C332.684 233.441 333 234.204 333 235ZM330 227C332.96 227 335.54 228.61 336.92 231H330C328.06 231 326.45 232.38 326.08 234.21L323.7 230.08C325.16 228.21 327.44 227 330 227ZM330 225C328.687 225 327.386 225.259 326.173 225.761C324.96 226.264 323.858 227 322.929 227.929C321.054 229.804 320 232.348 320 235C320 237.652 321.054 240.196 322.929 242.071C323.858 243 324.96 243.736 326.173 244.239C327.386 244.741 328.687 245 330 245C332.652 245 335.196 243.946 337.071 242.071C338.946 240.196 340 237.652 340 235C340 233.687 339.741 232.386 339.239 231.173C338.736 229.96 338 228.858 337.071 227.929C336.142 227 335.04 226.264 333.827 225.761C332.614 225.259 331.313 225 330 225V225Z" fill="white" fill-opacity="0.07"/>
<path d="M170.47 140.864L172.769 134.33L172.759 134.332C172.983 133.68 173.066 132.983 172.932 132.265C172.712 131.086 171.984 130.133 171.025 129.57L175.733 128.69C176.277 129.534 176.669 130.488 176.864 131.53C177.254 133.616 176.799 135.771 175.6 137.521C174.401 139.272 172.556 140.474 170.47 140.864M161.136 134.47C160.868 133.034 161.002 131.626 161.453 130.341L165.967 135.602L165.976 135.6C166.873 136.643 168.261 137.207 169.735 136.932C170.177 136.849 170.584 136.682 170.961 136.469L169.362 140.979C165.439 141.163 161.879 138.441 161.136 134.47ZM171.949 132.449C172.095 133.231 171.925 134.039 171.475 134.696C171.025 135.352 170.333 135.803 169.551 135.949C168.769 136.095 167.961 135.925 167.305 135.475C166.648 135.025 166.197 134.333 166.051 133.551C165.905 132.769 166.076 131.961 166.525 131.304C166.975 130.648 167.667 130.197 168.449 130.051C169.231 129.905 170.039 130.075 170.696 130.525C171.352 130.975 171.803 131.667 171.949 132.449ZM167.531 125.136C170.44 124.592 173.272 125.701 175.068 127.797L168.265 129.068C166.358 129.424 165.029 131.077 165.002 132.944L161.904 129.321C162.995 127.215 165.014 125.606 167.531 125.136ZM167.163 123.17C165.872 123.411 164.642 123.905 163.541 124.621C162.441 125.338 161.493 126.265 160.751 127.348C159.252 129.536 158.683 132.23 159.17 134.837C159.658 137.444 161.161 139.751 163.349 141.25C164.432 141.992 165.651 142.513 166.936 142.785C168.221 143.056 169.546 143.071 170.837 142.83C173.444 142.343 175.751 140.84 177.25 138.652C178.749 136.464 179.317 133.77 178.83 131.163C178.589 129.872 178.096 128.641 177.379 127.541C176.662 126.441 175.735 125.492 174.652 124.75C173.569 124.008 172.35 123.487 171.065 123.215C169.78 122.944 168.454 122.929 167.163 123.17V123.17Z" fill="white" fill-opacity="0.07"/>
<path d="M135.027 24.9265C135.037 24.9284 135.037 24.9284 135.027 24.9265ZM148.834 29.514C148.613 28.4011 147.956 27.1216 147.348 26.6362C147.685 27.8329 147.796 28.9855 147.767 29.8152L147.763 29.8349C147.194 26.8507 145.527 25.3643 144.461 22.6297C144.406 22.4966 144.342 22.3517 144.298 22.2107C144.272 22.1344 144.256 22.0599 144.231 21.9836C144.197 21.8445 144.163 21.7054 144.16 21.5623C144.162 21.5524 144.154 21.5407 144.144 21.5388L144.124 21.535L144.115 21.5331C141.687 22.3841 140.336 24.4538 139.832 25.833C139.148 25.7402 138.448 25.7769 137.782 25.9526C137.654 25.9788 137.578 26.1066 137.595 26.232C137.617 26.379 137.761 26.4783 137.9 26.4443C138.479 26.2925 139.097 26.2601 139.694 26.3357L139.743 26.3453C139.823 26.3508 139.912 26.368 139.99 26.3833C140.483 26.4692 140.931 26.6278 141.365 26.8552L141.42 26.8863C141.515 26.9251 141.576 26.9778 141.654 26.9931C141.696 27.0419 141.751 27.073 141.796 27.1022L141.922 27.1879C141.985 27.2307 142.048 27.2736 142.101 27.3145C142.126 27.3399 142.154 27.3554 142.18 27.3808C142.241 27.4335 142.323 27.4801 142.355 27.5271C142.39 27.5543 142.424 27.5914 142.459 27.6187C143.09 28.2001 143.57 28.9254 143.83 29.7302C143.381 29.2656 142.51 28.7187 141.576 28.6997C144.763 31.1652 142.626 37.0551 137.774 35.8645C137.344 35.7705 136.93 35.5979 136.546 35.3703C136.454 35.3217 136.363 35.2633 136.285 35.197C136.239 35.1678 136.176 35.125 136.133 35.086C135.046 34.2322 134.283 32.8709 134.423 31.4209C134.423 31.4209 135.245 29.8186 138.022 30.3602C138.327 30.4196 139.335 29.7401 139.411 29.5102C139.428 29.4219 137.852 28.4116 137.313 27.6239C137.019 27.1997 136.885 27.0003 136.762 26.844C136.697 26.76 136.62 26.6839 136.543 26.6078C136.471 25.7785 136.624 24.9423 136.983 24.1973C135.882 24.4615 134.955 25.0347 134.263 25.5518C133.966 24.9845 134.312 23.3708 134.398 23.0311C134.388 23.0291 134.073 23.1307 134.04 23.1446C133.649 23.323 133.271 23.5346 132.921 23.7618C132.507 24.058 132.132 24.3618 131.78 24.7009C130.998 25.4754 130.308 26.4004 129.883 27.4282C129.881 27.438 129.707 27.8115 129.54 28.2986L129.467 28.5186C129.415 28.6817 129.366 28.8251 129.277 29.0726L129.272 29.102L129.208 29.4259L129.199 29.475C128.14 34.9028 131.7 40.1613 137.098 41.2139C141.976 42.1652 146.697 39.4282 148.39 34.929C148.43 34.8248 148.465 34.6991 148.51 34.5754C149.035 32.9255 149.164 31.1166 148.834 29.514Z" fill="white" fill-opacity="0.07"/>
<path d="M76.85 -1.25999C76.86 -1.25999 76.86 -1.25999 76.85 -1.25999ZM91.28 0.600014C90.85 -0.449986 89.96 -1.57999 89.27 -1.93999C89.83 -0.829987 90.16 0.280014 90.29 1.10001V1.12001C89.16 -1.69999 87.24 -2.83999 85.67 -5.31999C85.59 -5.43999 85.5 -5.56999 85.43 -5.69999C85.39 -5.76999 85.36 -5.83999 85.32 -5.90999C85.26 -6.03999 85.2 -6.16999 85.17 -6.30999C85.17 -6.31999 85.16 -6.32999 85.15 -6.32999H85.13H85.12C82.9 -5.02999 81.97 -2.73999 81.74 -1.28999C81.05 -1.24999 80.37 -1.07999 79.75 -0.779987C79.63 -0.729987 79.58 -0.589986 79.62 -0.469986C79.67 -0.329986 79.83 -0.259987 79.96 -0.319987C80.5 -0.579987 81.1 -0.729987 81.7 -0.769987H81.75C81.83 -0.779987 81.92 -0.779987 82 -0.779987C82.5 -0.789987 82.97 -0.719987 83.44 -0.579987L83.5 -0.559987C83.6 -0.539987 83.67 -0.499987 83.75 -0.499987C83.8 -0.459987 83.86 -0.439987 83.91 -0.419987L84.05 -0.359987C84.12 -0.329987 84.19 -0.299987 84.25 -0.269987C84.28 -0.249987 84.31 -0.239986 84.34 -0.219986C84.41 -0.179986 84.5 -0.149987 84.54 -0.109987C84.58 -0.0899868 84.62 -0.0599866 84.66 -0.0399866C85.39 0.410013 86 1.03001 86.41 1.77001C85.88 1.40001 84.92 1.03001 84 1.19001C87.6 3.00001 86.63 9.19001 81.64 8.95001C81.2 8.94001 80.76 8.85001 80.34 8.70001C80.24 8.67001 80.14 8.63001 80.05 8.58001C80 8.56001 79.93 8.53001 79.88 8.50001C78.65 7.87001 77.64 6.68001 77.5 5.23001C77.5 5.23001 78 3.50001 80.83 3.50001C81.14 3.50001 82 2.64001 82.03 2.40001C82.03 2.31001 80.29 1.62001 79.61 0.950013C79.24 0.590013 79.07 0.420013 78.92 0.290013C78.84 0.220013 78.75 0.160014 78.66 0.100014C78.43 -0.699986 78.42 -1.54999 78.63 -2.34999C77.6 -1.87999 76.8 -1.13999 76.22 -0.499987C75.82 -0.999987 75.85 -2.64999 75.87 -2.99999C75.86 -2.99999 75.57 -2.83999 75.54 -2.81999C75.19 -2.56999 74.86 -2.28999 74.56 -1.99999C74.21 -1.62999 73.9 -1.25999 73.62 -0.859987C73 0.0500132 72.5 1.09001 72.28 2.18001C72.28 2.19001 72.18 2.59001 72.11 3.10001L72.08 3.33001C72.06 3.50001 72.04 3.65001 72 3.91001V3.94001V4.27001V4.32001C72 9.85001 76.5 14.33 82 14.33C86.97 14.33 91.08 10.74 91.88 6.00001C91.9 5.89001 91.91 5.76001 91.93 5.63001C92.13 3.91001 91.91 2.11001 91.28 0.600014Z" fill="white" fill-opacity="0.07"/>
<g clip-path="url(#clip3_816_3276)">
<path d="M90.4709 154.297C90.4805 154.294 90.4805 154.294 90.4709 154.297ZM104.841 152.018C104.132 151.132 102.96 150.298 102.197 150.147C103.047 151.054 103.676 152.026 104.032 152.776L104.037 152.796C102.159 150.408 99.9954 149.855 97.7906 147.917C97.68 147.825 97.557 147.725 97.4533 147.62C97.3952 147.564 97.3467 147.506 97.2886 147.45C97.1944 147.342 97.1002 147.234 97.032 147.108C97.0292 147.099 97.0168 147.092 97.0072 147.095L96.988 147.1L96.9784 147.103C95.2143 148.976 94.9669 151.435 95.1545 152.891C94.5037 153.124 93.8991 153.478 93.3887 153.941C93.2877 154.023 93.2791 154.171 93.3513 154.275C93.4387 154.395 93.6119 154.417 93.7198 154.323C94.1647 153.922 94.6982 153.609 95.2626 153.401L95.3106 153.387C95.3845 153.355 95.4709 153.33 95.5476 153.307C96.0246 153.157 96.4953 153.092 96.9857 153.094L97.0489 153.096C97.1505 153.087 97.2289 153.106 97.3057 153.083C97.3649 153.107 97.4281 153.11 97.4817 153.115L97.633 153.133C97.7086 153.142 97.7842 153.151 97.8502 153.163C97.8846 153.174 97.9162 153.175 97.9506 153.186C98.0291 153.204 98.1239 153.208 98.1735 153.235C98.2175 153.243 98.2644 153.26 98.3084 153.268C99.1356 153.494 99.8955 153.917 100.497 154.512C99.8845 154.306 98.8592 154.222 98.0215 154.634C101.986 155.357 102.798 161.57 97.9424 162.745C97.5173 162.859 97.0698 162.897 96.6246 162.871C96.5202 162.87 96.4129 162.86 96.3125 162.838C96.2589 162.832 96.1833 162.823 96.1269 162.809C94.7692 162.551 93.465 161.693 92.9223 160.341C92.9223 160.341 92.9149 158.54 95.6303 157.743C95.9278 157.656 96.5108 156.589 96.472 156.35C96.4466 156.264 94.5827 156.092 93.7416 155.64C93.2852 155.399 93.0742 155.284 92.8936 155.201C92.7972 155.157 92.6939 155.124 92.5907 155.092C92.1447 154.389 91.8957 153.577 91.8719 152.75C91.016 153.491 90.4567 154.426 90.0804 155.204C89.5558 154.836 89.1199 153.245 89.0406 152.903C89.031 152.906 88.7978 153.141 88.7746 153.169C88.5092 153.507 88.2714 153.869 88.0652 154.232C87.8336 154.685 87.6403 155.128 87.4843 155.59C87.1456 156.638 86.9588 157.777 87.0546 158.885C87.0575 158.894 87.0741 159.306 87.1506 159.815L87.1866 160.044C87.2153 160.213 87.2383 160.363 87.2732 160.624L87.2816 160.652L87.3745 160.969L87.3886 161.017C88.946 166.323 94.5255 169.355 99.8029 167.806C104.572 166.406 107.504 161.804 106.937 157.03C106.925 156.919 106.898 156.792 106.881 156.661C106.588 154.955 105.87 153.289 104.841 152.018Z" fill="white" fill-opacity="0.07"/>
</g>
<g clip-path="url(#clip4_816_3276)">
<path d="M326.297 8.41196C326.305 8.41752 326.305 8.41752 326.297 8.41196ZM337.251 17.9878C337.478 16.8761 337.367 15.4419 336.994 14.7589C336.842 15.9927 336.498 17.0986 336.15 17.8522L336.139 17.8689C336.769 14.897 335.809 12.8814 335.884 9.94717C335.885 9.80295 335.882 9.64486 335.896 9.49789C335.902 9.41747 335.916 9.34262 335.922 9.2622C335.944 9.1208 335.967 8.9794 336.02 8.84639C336.025 8.83808 336.023 8.8242 336.014 8.81864L335.998 8.80751L335.989 8.80194C333.421 8.64658 331.374 10.0316 330.376 11.1084C329.781 10.7576 329.121 10.5204 328.439 10.4246C328.312 10.3994 328.192 10.4879 328.159 10.6099C328.122 10.754 328.216 10.9012 328.358 10.9237C328.951 11.0082 329.533 11.2175 330.054 11.5181L330.095 11.546C330.167 11.5822 330.242 11.6323 330.309 11.6768C330.729 11.9467 331.081 12.2665 331.394 12.6443L331.432 12.6943C331.504 12.7666 331.54 12.8388 331.607 12.8833C331.626 12.9444 331.665 12.9944 331.695 13.0388L331.778 13.1666C331.819 13.2305 331.861 13.2944 331.894 13.3527C331.908 13.386 331.927 13.411 331.941 13.4443C331.977 13.5165 332.035 13.5915 332.046 13.647C332.068 13.6859 332.085 13.7331 332.107 13.7719C332.463 14.5521 332.625 15.4067 332.553 16.2496C332.319 15.6473 331.727 14.8056 330.874 14.4266C332.858 17.9338 328.607 22.5369 324.595 19.5605C324.235 19.3074 323.919 18.9877 323.654 18.6293C323.587 18.5488 323.526 18.4599 323.479 18.3683C323.449 18.3238 323.408 18.2599 323.383 18.2072C322.711 16.9992 322.534 15.4485 323.225 14.1658C323.225 14.1658 324.603 13.0067 326.955 14.5817C327.212 14.7542 328.405 14.5183 328.564 14.3356C328.614 14.2608 327.552 12.7192 327.36 11.7841C327.253 11.2791 327.206 11.0432 327.154 10.8517C327.127 10.7491 327.085 10.6491 327.044 10.5492C327.298 9.75652 327.763 9.04474 328.382 8.49693C327.265 8.31422 326.188 8.48383 325.35 8.69279C325.296 8.05477 326.24 6.70058 326.451 6.42091C326.443 6.41535 326.113 6.3869 326.077 6.38682C325.647 6.39975 325.217 6.44873 324.806 6.52273C324.309 6.63536 323.846 6.77025 323.391 6.94676C322.369 7.35779 321.375 7.94361 320.585 8.72679C320.58 8.7351 320.274 9.01179 319.932 9.39656L319.779 9.57096C319.668 9.70107 319.568 9.81456 319.39 10.0083L319.373 10.0332L319.19 10.3074L319.162 10.349C316.084 14.9435 317.33 21.17 321.9 24.2308C326.029 26.9966 331.442 26.3012 334.744 22.8082C334.822 22.728 334.903 22.6255 334.992 22.5286C336.115 21.2109 336.934 19.5929 337.251 17.9878Z" fill="white" fill-opacity="0.07"/>
</g>
<path d="M266.85 127.74C266.86 127.74 266.86 127.74 266.85 127.74ZM281.28 129.6C280.85 128.55 279.96 127.42 279.27 127.06C279.83 128.17 280.16 129.28 280.29 130.1V130.12C279.16 127.3 277.24 126.16 275.67 123.68C275.59 123.56 275.5 123.43 275.43 123.3C275.39 123.23 275.36 123.16 275.32 123.09C275.26 122.96 275.2 122.83 275.17 122.69C275.17 122.68 275.16 122.67 275.15 122.67H275.13H275.12C272.9 123.97 271.97 126.26 271.74 127.71C271.05 127.75 270.37 127.92 269.75 128.22C269.63 128.27 269.58 128.41 269.62 128.53C269.67 128.67 269.83 128.74 269.96 128.68C270.5 128.42 271.1 128.27 271.7 128.23H271.75C271.83 128.22 271.92 128.22 272 128.22C272.5 128.21 272.97 128.28 273.44 128.42L273.5 128.44C273.6 128.46 273.67 128.5 273.75 128.5C273.8 128.54 273.86 128.56 273.91 128.58L274.05 128.64C274.12 128.67 274.19 128.7 274.25 128.73C274.28 128.75 274.31 128.76 274.34 128.78C274.41 128.82 274.5 128.85 274.54 128.89C274.58 128.91 274.62 128.94 274.66 128.96C275.39 129.41 276 130.03 276.41 130.77C275.88 130.4 274.92 130.03 274 130.19C277.6 132 276.63 138.19 271.64 137.95C271.2 137.94 270.76 137.85 270.34 137.7C270.24 137.67 270.14 137.63 270.05 137.58C270 137.56 269.93 137.53 269.88 137.5C268.65 136.87 267.64 135.68 267.5 134.23C267.5 134.23 268 132.5 270.83 132.5C271.14 132.5 272 131.64 272.03 131.4C272.03 131.31 270.29 130.62 269.61 129.95C269.24 129.59 269.07 129.42 268.92 129.29C268.84 129.22 268.75 129.16 268.66 129.1C268.43 128.3 268.42 127.45 268.63 126.65C267.6 127.12 266.8 127.86 266.22 128.5C265.82 128 265.85 126.35 265.87 126C265.86 126 265.57 126.16 265.54 126.18C265.19 126.43 264.86 126.71 264.56 127C264.21 127.37 263.9 127.74 263.62 128.14C263 129.05 262.5 130.09 262.28 131.18C262.28 131.19 262.18 131.59 262.11 132.1L262.08 132.33C262.06 132.5 262.04 132.65 262 132.91V132.94V133.27V133.32C262 138.85 266.5 143.33 272 143.33C276.97 143.33 281.08 139.74 281.88 135C281.9 134.89 281.91 134.76 281.93 134.63C282.13 132.91 281.91 131.11 281.28 129.6Z" fill="white" fill-opacity="0.07"/>
<path d="M205.91 81.8421C205.458 81.7609 205.149 81.3297 205.23 80.8769C205.311 80.4241 205.749 80.1368 206.201 80.2179C206.654 80.2991 206.965 80.7204 206.884 81.1732C206.803 81.626 206.363 81.9232 205.91 81.8421ZM196.855 80.2194C196.402 80.1383 196.093 79.7071 196.174 79.2543C196.255 78.8015 196.693 78.5142 197.146 78.5953C197.598 78.6764 197.899 79.096 197.818 79.5488C197.737 80.0016 197.307 80.3006 196.855 80.2194ZM207.089 76.9635L209.241 74.4232C209.36 74.2718 209.338 74.0545 209.196 73.9377C209.046 73.8092 208.829 73.8313 208.73 73.9863L206.534 76.549C205.322 75.7123 203.952 75.1415 202.473 74.8868C200.967 74.617 199.462 74.6825 198.11 75.0294L196.959 71.867C196.901 71.6838 196.705 71.5877 196.52 71.6561C196.337 71.7147 196.25 71.9126 196.309 72.0958L197.435 75.2235C194.354 76.2563 191.915 78.7553 191.027 82.0706L210.713 85.598C211.039 82.1921 209.629 79.0035 207.089 76.9635Z" fill="white" fill-opacity="0.07"/>
<path d="M229.429 261.367C228.979 261.464 228.53 261.182 228.433 260.733C228.336 260.283 228.632 259.851 229.082 259.754C229.531 259.657 229.979 259.929 230.075 260.379C230.172 260.828 229.879 261.27 229.429 261.367ZM220.436 263.305C219.986 263.402 219.537 263.121 219.44 262.671C219.343 262.221 219.638 261.789 220.088 261.692C220.538 261.595 220.975 261.869 221.072 262.319C221.169 262.769 220.885 263.208 220.436 263.305ZM228.667 256.406L229.693 253.239C229.745 253.054 229.642 252.861 229.466 252.807C229.279 252.745 229.087 252.848 229.054 253.029L227.995 256.234C226.557 255.92 225.072 255.913 223.608 256.238C222.112 256.561 220.745 257.193 219.626 258.028L217.36 255.539C217.237 255.392 217.019 255.377 216.874 255.511C216.726 255.635 216.722 255.851 216.845 255.998L219.075 258.463C216.618 260.589 215.311 263.827 215.748 267.231L235.299 263.017C234.306 259.743 231.791 257.329 228.667 256.406Z" fill="white" fill-opacity="0.07"/>
<path d="M354.511 148.945C354.054 148.892 353.718 148.481 353.771 148.024C353.823 147.567 354.242 147.253 354.699 147.306C355.156 147.358 355.492 147.759 355.44 148.216C355.387 148.673 354.968 148.997 354.511 148.945ZM345.371 147.896C344.914 147.844 344.578 147.433 344.631 146.976C344.683 146.519 345.102 146.204 345.559 146.257C346.016 146.309 346.342 146.709 346.29 147.166C346.238 147.623 345.828 147.948 345.371 147.896ZM355.38 144.002L357.367 141.331C357.476 141.172 357.441 140.957 357.292 140.849C357.134 140.73 356.919 140.766 356.83 140.927L354.799 143.623C353.538 142.864 352.134 142.381 350.642 142.22C349.122 142.046 347.624 142.206 346.296 142.637L344.949 139.554C344.879 139.374 344.677 139.291 344.497 139.371C344.318 139.441 344.244 139.644 344.314 139.823L345.635 142.873C342.626 144.098 340.349 146.746 339.671 150.111L359.541 152.391C359.651 148.971 358.044 145.878 355.38 144.002Z" fill="white" fill-opacity="0.07"/>
<path d="M58.9407 112.377C57.6822 113.178 56.39 113.932 55.155 113.412C53.916 112.901 53.8519 111.977 52.4602 111.366C51.0592 110.751 50.3193 111.267 49.1364 110.802C47.9168 110.321 47.5611 108.669 47.2784 107.223C46.7056 104.274 47.3353 99.5816 50.177 97.4873C51.5847 96.4453 53.399 96.1934 54.9585 96.8453C56.1385 97.3416 56.8978 98.647 57.6212 98.9646C58.3354 99.2781 60.1206 98.8934 61.4756 99.663C62.0587 99.9518 63.6326 100.894 64.0125 102.939C63.9059 102.958 61.511 103.239 60.5122 105.564C59.3256 108.341 61.3185 110.319 61.3419 110.34C61.2863 110.392 60.3785 111.49 58.9407 112.377ZM60.1446 95.4309C61.1467 94.9644 62.5079 94.874 63.4396 95.2394C63.0883 96.363 62.1836 97.2545 61.2049 97.7422C60.2314 98.2431 58.9223 98.3891 57.933 97.8564C58.2579 96.7431 59.2531 95.8695 60.1446 95.4309Z" fill="white" fill-opacity="0.07"/>
<path d="M204.23 209.834C203.096 210.803 201.921 211.73 200.626 211.387C199.327 211.053 199.135 210.147 197.672 209.736C196.199 209.322 195.538 209.937 194.302 209.641C193.027 209.335 192.445 207.748 191.963 206.356C190.985 203.516 190.954 198.781 193.476 196.311C194.725 195.083 196.487 194.581 198.122 195.009C199.359 195.336 200.293 196.523 201.054 196.736C201.805 196.947 203.519 196.318 204.968 196.891C205.586 197.095 207.276 197.809 207.937 199.781C207.834 199.815 205.501 200.427 204.836 202.868C204.049 205.784 206.298 207.464 206.324 207.482C206.276 207.541 205.53 208.755 204.23 209.834ZM203.06 192.885C203.987 192.284 205.323 192.005 206.296 192.237C206.105 193.398 205.333 194.407 204.432 195.026C203.538 195.658 202.262 195.985 201.208 195.596C201.375 194.448 202.238 193.444 203.06 192.885Z" fill="white" fill-opacity="0.07"/>
<path d="M266.229 54.853C265.093 55.8206 263.917 56.7457 262.622 56.4006C261.324 56.065 261.133 55.159 259.671 54.7457C258.198 54.3296 257.537 54.9428 256.301 54.6455C255.027 54.3374 254.447 52.7498 253.967 51.357C252.993 48.5151 252.97 43.7803 255.496 41.3142C256.746 40.0881 258.509 39.5885 260.143 40.0192C261.38 40.348 262.312 41.5362 263.073 41.7511C263.823 41.9632 265.538 41.336 266.986 41.9114C267.604 42.117 269.293 42.8333 269.951 44.8066C269.848 44.8399 267.515 45.4483 266.846 47.8884C266.053 50.8028 268.3 52.4872 268.326 52.5049C268.278 52.5642 267.53 53.7765 266.229 54.853ZM265.085 37.9032C266.013 37.303 267.349 37.0258 268.322 37.2592C268.129 38.4205 267.356 39.4282 266.454 40.0462C265.558 40.6766 264.282 41.0017 263.229 40.6105C263.397 39.4631 264.262 38.4606 265.085 37.9032Z" fill="white" fill-opacity="0.07"/>
<g clip-path="url(#clip5_816_3276)">
<path d="M306.251 79.2501L288.787 83.6113L285.88 71.9689L303.343 67.6076M302.859 65.6672L285.395 70.0285C284.318 70.2974 283.67 71.3765 283.939 72.4535L286.847 84.0959C286.975 84.6105 287.303 85.053 287.758 85.3261C288.213 85.5991 288.757 85.6803 289.272 85.5517L296.063 83.8557L296.548 85.7961L294.608 86.2807L295.092 88.2211L302.854 86.2828L302.369 84.3423L300.429 84.8269L299.944 82.8865L306.736 81.1905C307.25 81.062 307.693 80.7343 307.966 80.2795C308.239 79.8247 308.32 79.2801 308.191 78.7655L305.284 67.123C305.015 66.0461 303.926 65.4007 302.859 65.6672Z" fill="white" fill-opacity="0.07"/>
</g>
<g clip-path="url(#clip6_816_3276)">
<path d="M280.122 199.088L263.144 205.067L259.158 193.748L276.136 187.769M275.472 185.883L258.494 191.861C257.447 192.23 256.903 193.365 257.272 194.412L261.257 205.731C261.434 206.231 261.801 206.641 262.28 206.87C262.758 207.099 263.308 207.129 263.808 206.953L270.411 204.628L271.075 206.515L269.188 207.179L269.853 209.065L277.399 206.408L276.734 204.522L274.848 205.186L274.184 203.3L280.786 200.975C281.287 200.799 281.696 200.431 281.926 199.952C282.155 199.474 282.185 198.924 282.008 198.424L278.023 187.105C277.654 186.058 276.51 185.518 275.472 185.883Z" fill="white" fill-opacity="0.07"/>
</g>
<g clip-path="url(#clip7_816_3276)">
<path d="M141.278 243.407L123.762 239.261L126.526 227.583L144.042 231.73M144.503 229.783L126.987 225.637C125.907 225.382 124.836 226.043 124.58 227.123L121.816 238.8C121.694 239.316 121.782 239.86 122.06 240.311C122.339 240.763 122.785 241.085 123.302 241.207L130.113 242.819L129.653 244.766L127.706 244.305L127.246 246.251L135.031 248.094L135.491 246.148L133.545 245.687L134.006 243.741L140.818 245.353C141.334 245.475 141.877 245.387 142.329 245.109C142.78 244.83 143.102 244.384 143.224 243.868L145.989 232.19C146.244 231.11 145.573 230.037 144.503 229.783Z" fill="white" fill-opacity="0.07"/>
</g>
<g clip-path="url(#clip8_816_3276)">
<path d="M117.19 74.0666L100.263 80.1891L96.1816 68.9047L113.108 62.7821M112.428 60.9013L95.5014 67.0239C94.4575 67.4015 93.9233 68.5411 94.3009 69.5849L98.3826 80.8694C98.563 81.3682 98.9342 81.7749 99.4145 82.0001C99.8948 82.2252 100.445 82.2503 100.944 82.0699L107.526 79.6889L108.207 81.5696L106.326 82.2499L107.006 84.1307L114.529 81.4095L113.849 79.5288L111.968 80.2091L111.288 78.3283L117.87 75.9473C118.369 75.7669 118.776 75.3957 119.001 74.9154C119.226 74.4352 119.251 73.8851 119.071 73.3863L114.989 62.1018C114.612 61.058 113.462 60.5272 112.428 60.9013Z" fill="white" fill-opacity="0.07"/>
</g>
<g clip-path="url(#clip9_816_3276)">
<path d="M11.941 165.915C11.4886 165.831 11.1822 165.398 11.2657 164.946C11.3493 164.494 11.7883 164.209 12.2407 164.292C12.693 164.376 13.0013 164.799 12.9178 165.251C12.8342 165.704 12.3933 165.998 11.941 165.915ZM2.89401 164.244C2.44166 164.16 2.13519 163.727 2.21874 163.275C2.30228 162.823 2.74135 162.538 3.1937 162.621C3.64605 162.705 3.94451 163.126 3.86096 163.578C3.77741 164.031 3.34636 164.327 2.89401 164.244ZM13.146 161.043L15.3113 158.514C15.4306 158.363 15.4098 158.146 15.2688 158.028C15.1198 157.899 14.9024 157.92 14.8027 158.074L12.5926 160.625C11.3857 159.782 10.0179 159.204 8.54102 158.941C7.03647 158.663 5.53098 158.721 4.17676 159.061L3.04341 155.892C2.98578 155.709 2.79017 155.611 2.60484 155.679C2.42132 155.737 2.33401 155.934 2.39163 156.117L3.50094 159.251C0.415002 160.267 -2.0373 162.753 -2.94364 166.064L16.7237 169.696C17.0677 166.292 15.675 163.096 13.146 161.043Z" fill="white" fill-opacity="0.07"/>
</g>
<g clip-path="url(#clip10_816_3276)">
<path d="M63.3796 224.202C62.9256 225.624 62.4152 227.03 61.1332 227.421C59.854 227.821 59.2136 227.152 57.7531 227.573C56.283 227.997 56.0447 228.867 54.8383 229.267C53.5934 229.678 52.2626 228.635 51.1203 227.705C48.793 225.806 46.2738 221.797 47.1173 218.369C47.5321 216.667 48.7652 215.313 50.3807 214.816C51.6051 214.442 53.0239 214.959 53.783 214.74C54.5324 214.524 55.6581 213.086 57.1918 212.811C57.8246 212.659 59.6371 212.376 61.2378 213.705C61.168 213.787 59.5073 215.536 60.2274 217.961C61.0928 220.855 63.8901 221.099 63.9217 221.101C63.9122 221.176 63.917 222.601 63.3796 224.202ZM53.4608 210.41C53.9323 209.411 54.9204 208.47 55.8702 208.155C56.3192 209.243 56.1945 210.507 55.7546 211.508C55.3271 212.516 54.4145 213.466 53.3134 213.689C52.8507 212.626 53.0564 211.318 53.4608 210.41Z" fill="white" fill-opacity="0.07"/>
</g>
</g>
<defs>
<clipPath id="clip0_816_3276">
<rect width="352" height="274" fill="white"/>
</clipPath>
<clipPath id="clip1_816_3276">
<rect width="24" height="24" fill="white" transform="translate(18.5571 29) rotate(23.4668)"/>
</clipPath>
<clipPath id="clip2_816_3276">
<rect width="24" height="24" fill="white" transform="translate(209.691 32.7397) rotate(-106.189)"/>
</clipPath>
<clipPath id="clip3_816_3276">
<rect width="24" height="24" fill="white" transform="translate(82 149.759) rotate(-16.3567)"/>
</clipPath>
<clipPath id="clip4_816_3276">
<rect width="24" height="24" fill="white" transform="translate(324.356 -1) rotate(33.8149)"/>
</clipPath>
<clipPath id="clip5_816_3276">
<rect width="24" height="24" fill="white" transform="translate(282 68.8149) rotate(-14.0219)"/>
</clipPath>
<clipPath id="clip6_816_3276">
<rect width="24" height="24" fill="white" transform="translate(255 190.971) rotate(-19.398)"/>
</clipPath>
<clipPath id="clip7_816_3276">
<rect width="24" height="24" fill="white" transform="translate(124.528 223) rotate(13.3169)"/>
</clipPath>
<clipPath id="clip8_816_3276">
<rect width="24" height="24" fill="white" transform="translate(92 66.1636) rotate(-19.8855)"/>
</clipPath>
<clipPath id="clip9_816_3276">
<rect width="24" height="24" fill="white" transform="translate(-1.64111 148) rotate(10.4645)"/>
</clipPath>
<clipPath id="clip10_816_3276">
<rect width="24" height="24" fill="white" transform="translate(40 210.648) rotate(-16.0823)"/>
</clipPath>
</defs>
</svg>
