<svg width="405" height="163" viewBox="0 0 405 163" fill="none" xmlns="http://www.w3.org/2000/svg">
<g opacity="0.992702">
<path opacity="0.992702" d="M3.39772 21.8496C5.0416 21.8496 6.37447 23.1825 6.37447 24.8264C6.37447 26.4702 5.0416 27.8031 3.39772 27.8031C1.75384 27.8031 0.420959 26.4702 0.420959 24.8264C0.420959 23.1825 1.75384 21.8496 3.39772 21.8496Z" fill="#B7AEBB"/>
</g>
<g opacity="0.980539">
<path opacity="0.980539" d="M319.681 15.896C321.327 15.896 322.656 17.2289 322.656 18.8728C322.656 20.5166 321.327 21.8495 319.681 21.8495C318.038 21.8495 316.707 20.5166 316.707 18.8728C316.707 17.2289 318.038 15.896 319.681 15.896Z" fill="#B7AEBB"/>
</g>
<g opacity="0.990756">
<path opacity="0.990756" d="M346.648 116.09C348.294 116.09 349.623 117.421 349.623 119.066C349.623 120.71 348.294 122.043 346.648 122.043C345.004 122.043 343.673 120.71 343.673 119.066C343.673 117.421 345.004 116.09 346.648 116.09Z" fill="#B7AEBB"/>
</g>
<g opacity="0.49027">
<path opacity="0.49027" d="M385.201 38.6184C386.312 38.6184 387.212 39.5186 387.212 40.6293C387.212 41.74 386.312 42.6402 385.201 42.6402C384.092 42.6402 383.19 41.74 383.19 40.6293C383.19 39.5186 384.092 38.6184 385.201 38.6184Z" fill="#B7AEBB"/>
</g>
<g opacity="0.982972">
<path opacity="0.982972" d="M79.7541 96.8149C80.8649 96.8149 81.765 97.7151 81.765 98.8258C81.765 99.9366 80.8649 100.837 79.7541 100.837C78.6434 100.837 77.7432 99.9366 77.7432 98.8258C77.7432 97.7151 78.6434 96.8149 79.7541 96.8149Z" fill="#B7AEBB"/>
</g>
<g opacity="0.524326">
<path opacity="0.524326" d="M6.37445 131.105C7.90629 131.105 9.14838 132.347 9.14838 133.879C9.14838 135.411 7.90629 136.653 6.37445 136.653C4.84261 136.653 3.60052 135.411 3.60052 133.879C3.60052 132.347 4.84261 131.105 6.37445 131.105Z" fill="#B7AEBB"/>
</g>
<g opacity="0.61">
<path opacity="0.61" d="M48.0549 131.48C49.3795 131.48 50.4536 132.554 50.4536 133.879C50.4536 135.203 49.3795 136.277 48.0549 136.277C46.7303 136.277 45.6562 135.203 45.6562 133.879C45.6562 132.554 46.7303 131.48 48.0549 131.48Z" fill="#B7AEBB"/>
</g>
<path d="M98.059 55.9614C83.5133 63.1532 67.4338 73.1671 57.9066 81.9854" stroke="#B7AEBB" stroke-width="1.9317" stroke-miterlimit="10" stroke-linecap="round" stroke-dasharray="48.29 48.29"/>
<path d="M166.847 61.5241C171.267 61.9359 211.498 70.3286 211.498 70.3286L212.803 78.1697C212.803 78.1697 167.952 84.9893 163.052 85.307C155.422 85.8048 148.875 78.1193 150.768 70.7954C153.058 61.9331 162.427 61.1123 166.847 61.5241Z" fill="#8E8496"/>
<path d="M221.234 79.3089C221.353 81.5713 222.066 83.3798 220.996 83.2524C220.189 83.1586 218.986 80.4564 218.642 79.8457C218.251 79.15 218.884 78.1312 219.797 78.1057C220.416 78.09 221.193 78.5185 221.234 79.3089Z" fill="#635867"/>
<path d="M219.207 71.2545C221.57 70.5319 226.788 68.9304 227.416 69.7724C228.023 70.586 224.081 74.304 222.209 76.2137C221.389 77.0537 219.551 77.1389 218.234 76.0122C216.85 74.8287 216.842 71.9768 219.207 71.2545Z" fill="#635867"/>
<path d="M210.803 70.921C210.895 70.3457 211.429 69.9511 212.005 70.0358C214.366 70.7466 217.835 71.2638 219.481 71.1106C223.136 70.7703 224.027 74.1882 222.461 75.9358C221.094 77.4653 220.724 77.943 221.162 78.8471C221.682 79.9296 220.179 81.3591 218.796 80.1225C218.096 79.4927 217.392 78.8916 216.547 78.6888C215.703 78.4841 213.588 78.5489 211.86 78.8205C211.271 78.8704 210.757 78.4326 210.709 77.8442C210.702 77.7562 210.702 77.6689 210.716 77.5829L210.803 70.921Z" fill="#635867"/>
<path d="M206.178 132.98C214.093 134.727 232.098 140.383 239.292 147.166L248.551 145.002C246.406 137.11 238.226 122.073 234.87 117.642C231.517 113.21 222.225 102.245 204.467 110.225C186.709 118.207 198.263 131.233 206.178 132.98Z" fill="#8E8496"/>
<path d="M249.856 148.462L249.148 145.617C249.005 145.053 248.432 144.708 247.866 144.85L239.923 146.828C239.358 146.97 239.014 147.542 239.153 148.105L241.412 157.167C241.783 158.652 243.288 159.558 244.774 159.189L250.737 157.702L252.068 157.371L256.61 156.237C257.852 155.933 258.613 154.68 258.308 153.436C258.308 153.433 258.305 153.427 258.305 153.421C258.085 152.535 257.366 151.859 256.47 151.696L252.5 150.96C251.203 150.716 250.171 149.74 249.856 148.462Z" fill="#635867"/>
<path d="M186.393 136.631C187.841 140.53 185.942 144.878 182.097 146.467L174.355 149.661C165.653 153.266 155.674 149.137 152.068 140.434C152.066 140.434 152.066 140.432 152.065 140.43L128.359 83.2166C124.753 74.5152 128.882 64.5335 137.586 60.9276C137.588 60.9275 137.587 60.9256 137.589 60.9255L155.548 53.6102L186.393 136.631Z" fill="#7E6C86"/>
<path d="M175.917 32.5116L175.97 32.6974C176.118 33.2177 176.241 33.7228 176.334 34.2589C176.436 34.6915 176.508 35.1551 176.561 35.6222C176.676 36.4529 176.731 37.2808 176.73 38.1246C176.745 38.6022 176.723 39.0885 176.696 39.5582L176.659 39.5687L173.169 40.6436L162.562 43.8811L162.543 43.8864C162.33 44.2682 162.069 44.6216 161.775 44.9264C161.639 45.0854 161.485 45.2497 161.339 45.3716C161.243 45.4591 161.167 45.5431 161.084 45.6067L161.066 45.6119C160.983 45.6755 160.919 45.732 160.855 45.7903C158.704 47.4062 155.717 47.6353 153.275 46.1809C151.941 45.3753 150.979 44.1827 150.453 42.8262C149.736 40.9414 149.858 38.7559 150.993 36.8867C151.118 36.6905 151.243 36.4961 151.387 36.2946C151.504 36.1409 151.621 35.9871 151.748 35.8705C151.812 35.8122 151.857 35.7592 151.902 35.7062L151.897 35.6858C151.966 35.6461 152.011 35.5949 152.057 35.5419C152.32 35.2663 152.63 35.0172 152.952 34.8053L155.424 24.0788L156.897 17.6771C157.385 17.699 157.873 17.7189 158.353 17.7832L158.396 17.7931C166.124 18.6277 172.711 23.7815 175.438 31.0392C175.613 31.5117 175.774 32.01 175.917 32.5116Z" fill="#5B545E"/>
<path d="M175.915 32.5105L175.967 32.6963C176.115 33.2165 176.239 33.7235 176.332 34.2596C176.435 34.6922 176.506 35.154 176.558 35.6211C176.655 36.457 176.715 37.3035 176.709 38.1287C176.706 38.6116 176.703 39.0945 176.657 39.5694C176.614 40.124 176.571 40.6785 176.466 41.2302C175.308 48.9502 169.749 55.6725 161.741 57.9499C150.816 61.057 139.414 54.72 136.301 43.7763C133.194 32.8511 139.555 21.4625 150.48 18.3554C152.32 17.8323 154.172 17.5665 156 17.5688L157.624 17.6291L157.643 17.6238C165.517 18.196 172.62 23.3257 175.436 31.0399C175.611 31.5124 175.772 32.0088 175.915 32.5105Z" fill="#B6ACBE"/>
<path d="M175.915 32.5104L175.967 32.6962C176.115 33.2165 176.239 33.7234 176.332 34.2595C176.435 34.6921 176.506 35.1539 176.558 35.621C176.674 36.4516 176.729 37.2796 176.728 38.1234C176.743 38.601 176.721 39.0892 176.694 39.5588L176.657 39.5694L173.166 40.6424L162.559 43.8799L162.541 43.8852L162.392 43.9274C158.437 45.1325 154.232 42.9145 153.026 38.9594C152.625 37.688 152.586 36.3533 152.883 35.0641L152.949 34.8041L155.403 24.0847L156.894 17.6759C157.383 17.6977 157.871 17.7196 158.351 17.7838L158.394 17.7918C166.122 18.6265 172.709 23.7821 175.436 31.0398C175.611 31.5124 175.772 32.0087 175.915 32.5104Z" fill="#635867"/>
<path d="M176.728 38.1234C176.743 38.601 176.721 39.0892 176.694 39.5588L176.657 39.5694C176.614 40.1239 176.571 40.6784 176.466 41.2302L163.386 45.2315L163.2 45.2843C162.494 45.4851 161.798 45.5824 161.101 45.6002L161.063 45.6107C157.126 45.7466 153.422 43.2452 152.217 39.2901C151.871 38.1435 151.766 36.9281 151.887 35.7289C151.887 35.7289 151.881 35.7103 151.9 35.705L151.895 35.6864C151.916 35.3389 151.981 34.9993 152.063 34.6545L152.13 34.3945L156 17.5687L157.624 17.6291L157.643 17.6238L158.351 17.7838L158.394 17.7919L158.89 17.9119L155.238 33.8119L154.883 35.3186C154.653 36.3478 154.679 37.4252 154.988 38.4418C155.976 41.635 159.437 43.4223 162.556 42.455L162.742 42.4022L163.257 42.2356L176.709 38.1287L176.728 38.1234Z" fill="#CFC7D5"/>
<path d="M163.267 38.5513C164.281 42.145 162.204 45.8848 158.617 46.9248C155.02 47.952 151.272 45.8669 150.244 42.269C149.443 39.4583 150.534 36.451 152.95 34.8077C153.552 34.4036 154.215 34.0945 154.911 33.8926C158.503 32.8712 162.244 34.9541 163.266 38.5457L163.267 38.5513Z" fill="#CFC7D5"/>
<path d="M164.05 22.6763C165.224 23.1519 166.329 23.7834 167.334 24.5541C168.33 25.297 169.235 26.1562 170.029 27.1113C170.826 28.0574 171.506 29.0931 172.056 30.2C172.605 31.297 173.04 32.4465 173.356 33.6321C173.401 33.7779 173.322 33.9309 173.177 33.9782C173.033 34.0231 172.878 33.9447 172.833 33.7989L172.828 33.7822C172.468 32.6575 171.993 31.5736 171.413 30.5436C170.258 28.5023 168.645 26.7559 166.701 25.4431C165.759 24.7932 164.737 24.2724 163.658 23.8884L163.613 23.873C163.28 23.767 163.095 23.4077 163.203 23.0738C163.311 22.7399 163.668 22.5559 164.002 22.6638C164.007 22.6664 164.013 22.6667 164.02 22.6688L164.05 22.6763Z" fill="white"/>
<path d="M204.317 91.645C197.149 86.5302 189.482 78.0117 186.873 68.7293C186.703 68.1426 174.525 81.7002 174.525 81.7002C174.525 81.7002 176.041 67.4085 171.47 62.1613C165.183 54.9418 155.645 55.0497 148.076 60.3886C140.644 65.6272 141.847 82.1441 151.532 108.453C161.213 134.763 176.456 145.771 190.539 139.796C204.626 133.823 229.882 109.882 204.317 91.645Z" fill="#AFA1B4"/>
<path d="M241.189 95.3012C236.437 92.9505 224.645 91.2958 219.626 101.418C214.813 111.12 221.092 120.331 228.869 121.796C243.806 124.605 251.202 134.278 251.202 134.278L267.999 123.177C267.999 123.177 251.1 100.201 241.189 95.3012Z" fill="#AFA1B4"/>
<path d="M272.89 128.915L268.627 122.834C268.294 122.358 267.637 122.24 267.16 122.574L267.157 122.577L250.928 133.949C250.452 134.283 250.336 134.939 250.67 135.418L262.762 152.667C264.634 155.334 268.314 155.981 270.985 154.111L281.699 146.604L284.107 144.919L292.267 139.197C294.51 137.627 295.054 134.539 293.484 132.3C293.485 132.299 293.483 132.298 293.483 132.298C292.372 130.707 290.431 129.915 288.522 130.27L280.068 131.844C277.308 132.355 274.505 131.212 272.89 128.915Z" fill="#635867"/>
<path d="M236.719 93.124C225.747 91.7498 213.108 92.6004 207.249 93.2363C201.39 93.8761 183.289 97.3267 173.805 102.265C157.95 110.514 162.286 126.455 164.151 129.581C170.882 140.866 180.655 143.279 189.826 140.192C204.327 135.314 221.08 123.926 236.109 121.672C243.622 120.548 249.813 115.59 249.884 107.205C249.951 99.314 242.203 93.8101 236.719 93.124Z" fill="#AFA1B4"/>
<path d="M175.171 80.376C175.171 80.376 189.41 57.3275 189.333 56.7353L203.421 32.2598L197.143 25.4565C197.143 25.4565 154.071 55.4465 146.989 61.416C144.484 63.5254 143.221 66.9979 143.186 71.7595C143.165 74.6169 144.814 83.5388 152.744 86.4534C167.205 91.7687 175.171 80.376 175.171 80.376Z" fill="#AFA1B4"/>
<path d="M205.418 14.2376C207.635 11.1345 212.521 4.2849 214.079 4.72662C215.583 5.1541 214.241 13.399 213.742 17.4909C213.522 19.2856 211.358 21.1166 208.688 20.9726C205.886 20.8204 203.201 17.3407 205.418 14.2376Z" fill="#635867"/>
<path d="M215.553 20.2635C219.009 20.7653 221.958 20.2317 221.444 21.8109C221.059 23.0031 216.613 24.0058 215.586 24.3401C214.417 24.7229 213.064 23.4649 213.304 22.0744C213.464 21.1348 214.343 20.0865 215.553 20.2635Z" fill="#635867"/>
<path d="M197.432 26.0899C196.841 25.4136 196.9 24.3878 197.572 23.7889C200.394 21.3976 202.809 18.5653 204.717 15.3972C207.166 11.154 213.163 12.3417 213.691 15.9211C214.152 19.0497 214.357 19.9561 215.86 20.3326C217.654 20.7831 217.863 23.9762 215.036 24.3918C213.599 24.6033 212.191 24.8415 211.115 25.6401C210.041 26.4383 207.046 29.8025 205.452 32.2376C204.931 32.9832 203.903 33.1605 203.157 32.639C203.047 32.5603 202.945 32.4706 202.857 32.367L197.432 26.0899Z" fill="#635867"/>
</svg>
