<svg width="32" height="32" fill="none"
  xmlns="http://www.w3.org/2000/svg">
  <path d="M15.7082 25.3333c4.9935 0 9.0416-4.0481 9.0416-9.0416 0-4.9936-4.0481-9.0417-9.0416-9.0417-4.9936 0-9.0417 4.0481-9.0417 9.0417 0 4.9935 4.0481 9.0416 9.0417 9.0416z" fill="#AB5930"/>
  <path d="M15.7085 24.1665c4.3492 0 7.875-3.5258 7.875-7.875s-3.5258-7.875-7.875-7.875-7.875 3.5258-7.875 7.875 3.5258 7.875 7.875 7.875z" fill="#F8C06D"/>
  <path d="M15.7085 23.2915c3.866 0 7-3.134 7-7s-3.134-7-7-7-7 3.134-7 7 3.134 7 7 7z" fill="#F8C06D"/>
  <path d="M5.52791 14.2233c.54915-2.5482 2.00558-4.80799 4.10667-6.34655-.90729-.86544-2.22047-1.25008-3.50977-.93756-2.05333.52888-3.31876 2.59633-2.81736 4.66381.28651 1.226 1.14604 2.1636 2.22046 2.6203zM23.8887 9.72785c.7401-.91353 1.0505-2.13957.764-3.34157-.5014-2.09149-2.5786-3.34157-4.608-2.83673-1.2893.31252-2.2683 1.27412-2.698 2.45209 2.5547.38464 4.8946 1.70684 6.542 3.72621zM24.724 22.469c-.3581.5289-.764 1.0337-1.2177 1.5145l1.9579 1.202c.4536.2645 1.0266.1202 1.3132-.3125.2626-.4568.1193-1.0337-.3104-1.3222l-1.743-1.0818zM10.6375 25.9548l-1.02668 1.7069c-.26263.4567-.11938 1.0337.31039 1.3222.45369.2644 1.02669.1202 1.31319-.3125l1.1699-1.9473c-.5969-.1923-1.1938-.4567-1.7668-.7693z" fill="#AB5930"/>
  <path d="M7.53331 24.6568c-.07163 0-.16713-.0241-.23876-.0481-1.1938-.6731-2.17271-1.7549-2.76961-3.1012-.57302-1.3222-.71628-2.8127-.38202-4.1349.07163-.2644.33427-.4086.57303-.3365.26263.0721.40589.3365.33426.5769-.28651 1.1299-.16713 2.38.33426 3.5099.5014 1.1539 1.33706 2.0915 2.33985 2.6444.23876.1202.31039.4087.19101.6491-.04775.1442-.21489.2404-.38202.2404z" fill="#F8C06D"/>
  <path d="M7.10373 26.8684c-.07162 0-.16713-.024-.23876-.048-1.76682-.9857-3.19938-2.6204-4.05891-4.5917-.83566-1.9472-1.02667-4.1108-.54915-6.0821.07163-.2645.33427-.4087.57303-.3366.26263.0721.40589.3366.33426.577-.42977 1.7549-.26264 3.7021.50139 5.4811.76404 1.779 2.05334 3.2454 3.65303 4.1109.23876.1202.31039.4086.19101.649-.07163.1443-.23876.2404-.4059.2404zM26.6343 19.969c-.0955 0-.191-.0241-.2626-.0722-.2149-.1442-.2865-.4567-.1194-.6731.6446-.9616.955-2.1876.8595-3.4377-.0955-1.2501-.5491-2.404-1.3131-3.2695-.1672-.1923-.1672-.5048.0477-.6731.191-.1683.5014-.1683.6685.0481.9073 1.0337 1.4565 2.404 1.552 3.8464.0955 1.4665-.2627 2.8848-1.0267 4.0387-.0955.1202-.2626.1924-.4059.1924z" fill="#F8C06D"/>
  <path d="M28.043 21.7479c-.0955 0-.191-.024-.2626-.0721-.2149-.1443-.2866-.4568-.1194-.6731 1.0028-1.5146 1.4803-3.4137 1.3609-5.3369-.1194-1.9232-.8595-3.7262-2.0533-5.0965-.1672-.1923-.1672-.5049.0477-.67314.191-.16828.5014-.16828.6686.04808 1.337 1.51456 2.1488 3.53386 2.292 5.67346.1433 2.1396-.382 4.2551-1.528 5.9379-.0955.0961-.2627.1923-.4059.1923z" fill="#F8C06D"/>
  <path d="M15.7944 17.1803c-.1671 0-.3342-.0481-.4536-.1683l-4.3454-3.7022c-.3104-.2644-.3343-.7212-.0955-1.0097.2387-.2884.7163-.3365 1.0028-.0961l4.0589 3.4617 3.2232-.7933c.382-.0961.7641.1443.8596.5289.0955.3846-.1433.7693-.5253.8654l-3.5814.8655c-.0239.0481-.0955.0481-.1433.0481zM13.6665 5.5c.4833 0 .875-.39175.875-.875s-.3917-.875-.875-.875c-.4832 0-.875.39175-.875.875s.3918.875.875.875z" fill="#E07A15"/>
  <path d="M8.7173 2.67995L8.04199 2l-.67531.67995.67531.67995.67531-.67995zM23.293 27.0508l-.6753-.68-.6753.68.6753.6799.6753-.6799z" fill="#EE6A63"/>
  <path d="M28.104 5.62038l-.6753-.67995-.6753.67995.6753.67995.6753-.67995z" fill="#E07A15"/>
  <path d="M15.4168 28.5417c.3222 0 .5834-.2612.5834-.5834 0-.3221-.2612-.5833-.5834-.5833-.3221 0-.5833.2612-.5833.5833 0 .3222.2612.5834.5833.5834z" fill="#EBEBEB"/>
  <path d="M25.0418 4.04167c.3222 0 .5834-.26117.5834-.58334 0-.32216-.2612-.58333-.5834-.58333-.3221 0-.5833.26117-.5833.58333 0 .32217.2612.58334.5833.58334zM3.4585 27.6667c.48325 0 .875-.3917.875-.875 0-.4832-.39175-.875-.875-.875s-.875.3918-.875.875c0 .4833.39175.875.875.875z" fill="#E07A15"/>
  <path d="M4.04183 6.37492c.32217 0 .58333-.26117.58333-.58333 0-.32217-.26116-.58334-.58333-.58334s-.58333.26117-.58333.58334c0 .32216.26116.58333.58333.58333z" fill="#EBEBEB"/>
  <path d="M28.5928 27.7334l-.6753-.6799-.6753.6799.6753.68.6753-.68z" fill="#E07A15"/>
  <path d="M15.7082 17.4583c.6443 0 1.1666-.5223 1.1666-1.1666 0-.6444-.5223-1.1667-1.1666-1.1667-.6444 0-1.1667.5223-1.1667 1.1667 0 .6443.5223 1.1666 1.1667 1.1666z" fill="#AB5930"/>
</svg>