<svg width="15" height="18" viewBox="0 0 15 18" fill="none" xmlns="http://www.w3.org/2000/svg">
<path d="M7.6455 4.34978C8.42513 4.34978 9.40242 3.82271 9.9844 3.11994C10.5115 2.48305 10.8958 1.59361 10.8958 0.704173C10.8958 0.583385 10.8848 0.462596 10.8629 0.36377C9.99538 0.396712 8.95221 0.94575 8.32631 1.68146C7.83217 2.24148 7.38196 3.11994 7.38196 4.02036C7.38196 4.15213 7.40392 4.2839 7.4149 4.32782C7.46981 4.3388 7.55765 4.34978 7.6455 4.34978ZM4.90031 17.6365C5.96544 17.6365 6.43761 16.9227 7.76629 16.9227C9.11692 16.9227 9.4134 17.6145 10.5993 17.6145C11.7633 17.6145 12.5429 16.5384 13.2786 15.4843C14.1022 14.2764 14.4426 13.0905 14.4645 13.0356C14.3877 13.0136 12.1586 12.1022 12.1586 9.54368C12.1586 7.32557 13.9155 6.32632 14.0143 6.24945C12.8504 4.58038 11.0825 4.53646 10.5993 4.53646C9.29261 4.53646 8.22748 5.32707 7.55765 5.32707C6.83292 5.32707 5.8776 4.58038 4.74658 4.58038C2.59435 4.58038 0.40918 6.35926 0.40918 9.71937C0.40918 11.8057 1.22176 14.0128 2.221 15.4403C3.0775 16.6482 3.82419 17.6365 4.90031 17.6365Z" fill="white"/>
</svg>
