<?xml version="1.0" encoding="UTF-8"?>
<svg width="380px" height="151px" viewBox="0 0 380 151" version="1.1" xmlns="http://www.w3.org/2000/svg" xmlns:xlink="http://www.w3.org/1999/xlink">
    <!-- Generator: Sketch 55.1 (78136) - https://sketchapp.com -->
    <title>Group 4</title>
    <desc>Created with Sketch.</desc>
    <g id="Page-1" stroke="none" stroke-width="1" fill="none" fill-rule="evenodd">
        <g id="Widgets" transform="translate(-48.000000, -62.000000)">
            <g id="Oval-Copy" transform="translate(48.000000, 62.000000)">
                <g id="Group-4" transform="translate(209.000000, 7.000000) rotate(3.000000) translate(-209.000000, -7.000000) translate(-137.000000, -248.000000)">
                    <path d="M274.308606,426.05953 C401.026073,374.734565 443.007065,358.236081 552.661739,379.201042 C692.075443,405.855655 692.541983,211.751684 533.172603,169.048787 C417.203099,137.974852 331.104179,178.94635 207.068648,107.388218 C83.0331163,35.8300862 -8.66522163,88.0104251 60.4533967,207.943251 C77.6319815,237.751084 60.4533967,273.932492 136.379152,303.261043 C154.967421,310.441308 147.591139,477.384495 274.308606,426.05953 Z" id="Oval-Copy" fill="#00A9A1" transform="translate(345.886450, 255.344735) rotate(-195.000000) translate(-345.886450, -255.344735) "></path>
                    <path d="M480.789801,330.670534 C482.510522,335.411989 484.077989,339.785844 485.701679,344.13802 C485.907078,344.688269 486.307446,345.335376 486.789429,345.565531 C487.536663,345.922524 488.696053,346.365305 489.19708,346.028145 C489.820983,345.608886 490.417681,344.282386 490.207749,343.613139 C489.643243,341.815722 488.716457,340.11793 487.796471,338.458882 C486.834318,336.724653 485.561573,335.158773 484.694184,333.383034 C483.12309,330.168253 483.753342,327.956189 486.609876,325.81746 C487.445979,325.192031 488.335132,324.639476 488.907799,324.25158 C490.167395,327.780921 491.313182,331.211096 492.647592,334.563785 C492.945488,335.312825 493.903107,335.79066 494.556936,336.393028 C494.801781,335.432283 495.315504,334.442943 495.221647,333.517252 C495.110106,332.41491 494.493457,331.360535 494.06407,330.297859 C493.806529,329.659976 493.447875,329.062682 493.204843,328.419726 C491.608811,324.199 492.001471,323.211043 495.900867,321.214835 C497.649701,320.319585 499.3541,319.333934 501.019958,318.422081 C502.816401,319.653106 504.645943,320.746224 506.291397,322.07457 C508.365785,323.7493 508.413394,324.744175 506.8423,326.865377 C505.707848,328.396203 504.410619,329.820023 503.427608,331.442634 C502.86673,332.368325 502.789649,333.597506 502.88668,334.889414 C506.77202,333.128434 508.019374,329.351413 509.877481,326.074366 C514.440682,328.819152 514.781652,332.577263 510.724013,335.914731 C509.611778,336.828891 508.219785,337.428953 507.228613,338.447812 C505.934557,339.778003 504.86449,341.347572 503.811653,342.89408 C503.601721,343.203105 503.737746,344.146784 504.003903,344.310521 C504.4147,344.562814 505.228585,344.627848 505.606736,344.370481 C510.115526,341.298682 514.93128,338.500854 516.769437,332.123412 C518.95718,334.973359 521.188904,337.3118 521.717589,340.685706 C522.118411,343.245999 520.633013,345.086312 518.67198,346.159135 C514.96574,348.185785 511.070424,349.853596 507.261259,351.68699 C505.974005,352.306884 503.732759,352.408816 504.277314,354.37689 C504.559793,355.398055 506.490448,356.369869 507.802187,356.590799 C510.976114,357.124904 513.993158,356.042395 516.589884,354.259276 C519.363442,352.35393 521.888075,350.073142 524.570496,347.916887 C526.26356,351.549543 526.821264,355.525355 526.669822,359.628006 C526.591834,361.732142 525.047039,362.709491 523.421535,363.370435 C519.449138,364.986127 515.332555,365.804812 511.015107,365.295613 C509.44492,365.110198 507.806721,364.85975 506.288677,365.138795 C505.426729,365.297458 504.384321,366.355522 504.120885,367.226788 C503.968536,367.729991 505.077597,369.116452 505.836165,369.338765 C512.352238,371.246878 518.527339,370.110866 524.375526,366.779394 C525.296419,366.254974 526.189652,365.68028 527.099663,365.136027 C527.154526,365.10328 527.245663,365.131876 527.767094,365.131876 C527.223446,367.759971 526.966811,370.412511 526.098062,372.838125 C525.057014,375.742959 521.810087,377.305149 518.42532,376.920482 C516.403982,376.690789 514.414383,376.186202 512.397126,375.904851 C510.46103,375.635031 508.522215,375.565385 506.515386,377.138183 C510.957977,382.15361 516.756741,380.490411 522.100728,381.11584 C521.388408,383.336206 520.212241,385.217107 518.089337,386.312069 C511.769595,389.572973 501.610762,389.943803 496.413683,380.908286 C495.260187,378.901931 494.411388,378.914845 492.717418,380.525925 C491.072417,382.091344 489.459609,383.733326 487.624626,385.039533 C485.228764,386.744704 482.457019,387.202707 479.619528,386.301922 C473.466191,384.347225 469.622112,379.900496 466.654037,373.839458 C469.802119,374.954254 472.472752,375.909463 475.151546,376.841611 C475.863866,377.089292 476.626062,377.492408 477.317978,377.411232 C478.018962,377.328671 478.661456,376.734144 479.329341,376.363776 C478.850531,375.81814 478.466486,374.967168 477.877496,374.778063 C474.938439,373.835307 471.796705,373.410974 469.002743,372.163344 C463.589837,369.746032 462.027358,360.902848 465.960307,356.638306 C468.125378,359.353112 470.11407,362.257945 472.526708,364.735679 C474.294132,366.551084 476.525403,367.978595 478.745338,369.216078 C479.498466,369.636259 480.848745,368.94718 481.926066,368.764994 C481.694823,367.656655 481.742432,366.352755 481.157976,365.492559 C480.510495,364.539194 479.297148,363.97557 478.310964,363.269886 C475.350597,361.151452 472.19798,359.265017 469.456161,356.886909 C464.96188,352.989968 464.739252,349.441717 468.25959,344.639379 C469.102948,343.489068 470.053312,342.419012 470.689458,341.637687 C473.468911,345.743105 476.146345,349.781644 478.928066,353.743619 C479.570559,354.658702 480.479663,355.477848 481.439549,356.028097 C482.039421,356.372175 482.963487,356.131413 483.74246,356.15309 C483.699385,355.309038 483.892994,354.342758 483.549303,353.654602 C483.164351,352.884807 482.302857,352.355314 481.630891,351.741876 C478.29328,348.696367 475.93868,345.014359 474.631475,340.64235 C474.003945,338.543287 474.355344,336.645321 475.898326,335.118185 C477.454457,333.577673 479.133464,332.166306 480.789801,330.670534" id="Fill-1-Copy-2" fill="#FFFFFF" transform="translate(495.767094, 353.422081) rotate(-36.000000) translate(-495.767094, -353.422081) "></path>
                    <path d="M107.039883,307.098102 C107.360819,307.947057 107.986394,308.945451 108.739493,309.300546 C109.907045,309.851335 111.718592,310.534485 112.501447,310.014295 C113.476296,309.367438 114.408637,307.320837 114.080617,306.288286 C113.198577,303.515127 111.750473,300.895677 110.312996,298.336003 C108.809631,295.660335 106.820968,293.244407 105.465672,290.504694 C103.010838,285.544747 103.995606,282.131847 108.458941,278.832095 C109.765352,277.867146 111.154653,277.014633 112.049446,276.416166 C114.017564,281.861434 115.807857,287.153705 117.892872,292.326425 C118.358334,293.482086 119.854614,294.219317 120.876222,295.148685 C121.258793,293.666394 122.061485,292.139982 121.914832,290.711774 C121.74055,289.011017 120.777036,287.384268 120.106119,285.74471 C119.703711,284.760548 119.143314,283.839008 118.763576,282.847019 C116.269777,276.335042 116.883308,274.810766 122.976114,271.730902 C125.708667,270.349659 128.37179,268.828941 130.974694,267.422081 C133.781635,269.321378 136.640295,271.007902 139.211318,273.057349 C142.452549,275.641219 142.526938,277.176169 140.072104,280.448881 C138.299522,282.810727 136.272601,285.007478 134.736647,287.510935 C133.860275,288.939144 133.739836,290.835594 133.891448,292.828824 C139.962292,290.111883 141.911281,284.284479 144.814574,279.228463 C151.944574,283.463276 152.477341,289.261505 146.13728,294.410741 C144.399413,295.82116 142.224423,296.746969 140.675717,298.318924 C138.653755,300.371218 136.981776,302.792839 135.336718,305.17888 C135.008698,305.655661 135.221238,307.111623 135.637107,307.364246 C136.278978,307.753498 137.550674,307.853836 138.141534,307.456755 C145.186519,302.717408 152.711134,298.400759 155.583255,288.561277 C159.001603,292.958338 162.488672,296.566219 163.314743,301.771674 C163.941027,305.721841 161.620093,308.56118 158.555978,310.216393 C152.764978,313.343224 146.678548,315.916419 140.726726,318.745083 C138.715392,319.701492 135.213445,319.858759 136.064312,322.895214 C136.505687,324.470727 139.522334,325.970097 141.571926,326.31096 C146.531187,327.135009 151.245319,325.464851 155.302703,322.713753 C159.636388,319.774077 163.581126,316.255147 167.77241,312.928353 C170.417821,318.533022 171.289234,324.667132 171.052607,330.996936 C170.930751,334.243318 168.517008,335.751227 165.977158,336.77097 C159.770288,339.263753 153.338127,340.526867 146.592115,339.741245 C144.138698,339.455177 141.579011,339.06877 139.207067,339.499297 C137.860273,339.744092 136.23151,341.376534 135.819892,342.720772 C135.581847,343.497142 137.314755,345.636253 138.500018,345.979251 C148.681381,348.923197 158.329977,347.170492 167.46777,342.030507 C168.906664,341.221402 170.302342,340.334731 171.724232,339.495027 C171.809957,339.444502 171.952358,339.488622 172.767094,339.488622 C171.917644,343.543397 171.516652,347.635888 170.159231,351.378264 C168.532594,355.860007 163.45927,358.270243 158.170572,357.676757 C155.012232,357.322373 151.903483,356.543868 148.751519,356.109783 C145.72637,355.693489 142.69697,355.586036 139.5613,358.012638 C146.502848,365.750726 155.563418,363.184647 163.913396,364.149595 C162.800397,367.575303 160.962636,370.477264 157.645599,372.166635 C147.771002,377.197744 131.897825,377.769881 123.777389,363.829369 C121.975052,360.733849 120.648804,360.753774 118.001976,363.239441 C115.431661,365.654658 112.911648,368.188003 110.044487,370.203293 C106.300954,372.834128 101.970102,373.540761 97.5365226,372.150979 C87.9219325,369.13516 81.9155591,362.274493 77.2779416,352.923177 C82.19682,354.643148 86.3696839,356.1169 90.5553001,357.555071 C91.6682999,357.937207 92.859231,358.559158 93.9403499,358.433914 C95.0356381,358.306535 96.0395342,357.389265 97.0831044,356.817839 C96.3349645,355.976 95.7348939,354.663073 94.8145968,354.371311 C90.2223211,352.916773 85.3133613,352.262088 80.9477947,350.337173 C72.4901294,346.607606 70.0487561,332.963837 76.1939889,326.384256 C79.5769133,330.572814 82.6842445,335.054558 86.4539913,338.877346 C89.2155912,341.678258 92.7019516,343.880702 96.1706004,345.789962 C97.3473622,346.438242 99.4571735,345.375091 101.140488,345.094003 C100.779171,343.383996 100.85356,341.372264 99.9403472,340.045104 C98.928658,338.574199 97.0328034,337.704607 95.4918901,336.615838 C90.8663166,333.347396 85.9403536,330.436896 81.6562606,326.767816 C74.6339471,320.755392 74.2860903,315.280948 79.7866192,307.871626 C81.1043657,306.096862 82.5893101,304.445918 83.5832877,303.240444 C87.9261833,309.574518 92.1096742,315.805407 96.4561122,321.918169 C97.4600083,323.33001 98.8804823,324.593836 100.380304,325.442791 C101.317605,325.973655 102.761458,325.602193 103.978603,325.635639 C103.911298,324.333386 104.213813,322.842555 103.676796,321.780827 C103.075309,320.593144 101.729223,319.776212 100.679277,318.829765 C95.46426,314.13098 91.7851968,308.450168 89.7426898,301.704782 C88.762173,298.466228 89.3112341,295.537938 91.7221434,293.181785 C94.1535981,290.804995 96.7770472,288.627457 99.3650729,286.319694 C102.053701,293.635083 104.502867,300.383315 107.039883,307.098102 Z" id="Fill-1-Copy-3" fill="#4CC2BC" transform="translate(122.767094, 321.422081) rotate(73.000000) translate(-122.767094, -321.422081) "></path>
                </g>
            </g>
        </g>
    </g>
</svg>