<svg width="384" height="240" viewBox="0 0 384 240" fill="none" xmlns="http://www.w3.org/2000/svg">
<g clip-path="url(#clip0_2663_346318)">
<rect width="384" height="240" rx="4" fill="white"/>
<path d="M201.066 12.5333C196.648 12.5333 193.066 8.95159 193.066 4.53331L193.066 -22.4L449.866 -22.4L449.866 96L306.4 96C301.981 96 298.4 92.4183 298.4 88L298.4 37.6C298.4 33.1817 294.818 29.6 290.4 29.6L262.666 29.6C258.248 29.6 254.666 26.0183 254.666 21.6L254.666 20.5333C254.666 16.115 251.085 12.5333 246.666 12.5333L201.066 12.5333Z" fill="#CEE9E6"/>
<path d="M-148.533 26.9333H22.4001C34.1822 26.9333 43.7335 36.4846 43.7335 48.2667V202.31C43.7335 214.092 34.1822 223.643 22.4001 223.643H-33.2882C-43.8433 223.643 -52.3999 232.2 -52.3999 242.755C-52.3999 253.31 -60.9564 261.867 -71.5115 261.867H-148.533V26.9333Z" fill="#F5F5F5"/>
<g filter="url(#filter0_d_2663_346318)">
<rect x="84" y="27.4666" width="231.858" height="253.867" rx="7.07965" fill="white" shape-rendering="crispEdges"/>
<ellipse cx="121.522" cy="62.8649" rx="16.9911" ry="16.9911" fill="#48A8A1"/>
<mask id="mask0_2663_346318" style="mask-type:alpha" maskUnits="userSpaceOnUse" x="104" y="45" width="35" height="35">
<ellipse cx="121.522" cy="62.8649" rx="16.9911" ry="16.9911" fill="#48A8A1"/>
</mask>
<g mask="url(#mask0_2663_346318)">
<path d="M137.303 69.9833C135.596 72.6279 134.958 75.2034 136.375 76.1198C137.792 77.0362 139.922 75.3266 141.63 72.682C143.337 70.0374 144.696 67.0643 143.28 66.1479C141.865 65.2316 139.011 67.3405 137.303 69.9833Z" fill="#163B4B"/>
<path d="M138.955 72.2976C137.247 74.9422 136.61 77.5178 138.026 78.4342C139.443 79.3505 141.574 77.641 143.281 74.9963C144.989 72.3517 146.348 69.3786 144.931 68.4623C143.514 67.5459 140.66 69.653 138.955 72.2976Z" fill="#1F576F"/>
<path d="M119.389 71.9897C118.519 73.2943 115.862 76.5305 115.35 79.2666C114.971 81.2841 115.747 83.1859 116.468 83.1859C116.949 83.1859 116.468 81.6928 117.732 80.6048C117.669 82.0213 117.717 85.6738 119.637 88.0384C122.061 91.0246 123.738 91.3978 124.298 91.2112C124.857 91.0246 125.602 89.5315 125.602 89.5315L125.589 89.4382C126.598 89.7405 127.666 89.9048 128.771 89.9048C129.948 89.9048 131.081 89.72 132.145 89.3803C132.269 89.6118 133.048 91.0395 133.562 91.2112C134.121 91.3978 135.799 91.0246 138.223 88.0384C139.231 86.7954 141.261 83.1859 141.261 83.1859C140.94 82.7585 140.56 81.5398 140.294 80.573C141.108 81.7152 141.981 82.7697 143.125 82.9993C144.057 83.1859 144.933 83.0161 144.803 81.3196C144.624 79.0016 140.668 73.955 137.906 71.6146C135.482 69.5616 137.906 69.7482 137.719 63.4027C137.579 58.664 133.056 53.7322 128.319 53.7322C123.582 53.7322 114.917 61.6782 118.705 64.5225C119.451 65.0824 120.18 65.646 120.383 66.7621C120.756 68.8151 120.26 70.687 119.389 71.9897Z" fill="#276A87"/>
<path d="M133.059 67.5086C132.557 70.7766 133.618 81.6928 124.484 81.3196C121.501 81.1982 119.078 78.897 119.078 75.9072C119.078 72.9173 122.092 71.2634 120.755 67.322C120.192 65.3474 117.417 64.0857 118.146 63.7759C120.095 62.9472 124.406 52.4756 128.155 53.1587C130.205 53.532 135.351 55.7002 136.041 59.6699C136.787 63.9625 133.431 65.0823 133.059 67.5086Z" fill="white"/>
<path d="M136.414 60.6965C136.414 64.0466 134.355 66.3889 131.008 66.3889C125.452 66.3889 125.37 60.6965 122.912 60.3679C122.912 57.0178 124.559 52.2942 127.839 52.9512C131.568 53.6977 136.414 56.6839 136.414 60.6965Z" fill="#CAE4ED"/>
<path d="M122.433 61.9096C122.433 62.5797 120.97 64.3359 118.705 64.3359C109.011 60.6032 102.487 62.4696 102.301 62.0963C101.63 60.7533 110.078 59.755 112.18 59.7125C114.46 59.7125 117.016 59.6532 118.891 60.2299C119.564 60.4371 121.902 59.336 122.619 59.67C123.337 60.0041 122.433 61.7697 122.433 61.9096Z" fill="#D6801C"/>
<path d="M108.307 51.6672C103.874 53.192 99.6603 56.7492 100.22 59.5487C100.542 61.1612 109.969 57.8653 118.078 60.2299C119.141 60.5398 120.942 60.7899 122.806 60.4166C120.372 62.4979 115.047 60.4645 111.062 60.2299C107.077 59.9954 101.546 60.5846 102.301 62.0963C102.487 62.4696 109.011 60.6032 118.705 64.3359C119.993 64.3359 121.501 64.1493 122.433 62.2829C123.309 60.5267 123.738 58.5502 127.839 52.9512C120.569 50.3383 114.142 49.6608 108.307 51.6672Z" fill="#F3B761"/>
<path d="M108.248 59.442C104.52 59.8152 99.6909 60.9259 99.6909 59.4832C99.6909 58.0405 100.809 54.0511 109.012 51.4382C106.588 53.8645 104.706 56.4558 108.248 59.442Z" fill="#854400"/>
<path d="M128.741 61.6931C129.874 61.6931 130.792 60.774 130.792 59.6401C130.792 58.5063 129.874 57.5872 128.741 57.5872C127.609 57.5872 126.691 58.5063 126.691 59.6401C126.691 60.774 127.609 61.6931 128.741 61.6931Z" fill="#161616"/>
<path d="M127.902 60.0133C128.314 60.0133 128.648 59.6791 128.648 59.2668C128.648 58.8545 128.314 58.5203 127.902 58.5203C127.491 58.5203 127.157 58.8545 127.157 59.2668C127.157 59.6791 127.491 60.0133 127.902 60.0133Z" fill="white"/>
</g>
<mask id="mask1_2663_346318" style="mask-type:alpha" maskUnits="userSpaceOnUse" x="99" y="45" width="40" height="22">
<rect x="99.0088" y="45.8738" width="39.5044" height="20.3894" fill="#C4C4C4"/>
</mask>
<g mask="url(#mask1_2663_346318)">
<path d="M137.303 69.9833C135.596 72.6279 134.958 75.2034 136.375 76.1198C137.792 77.0362 139.922 75.3266 141.63 72.682C143.337 70.0374 144.696 67.0643 143.28 66.1479C141.865 65.2316 139.011 67.3405 137.303 69.9833Z" fill="#163B4B"/>
<path d="M119.389 71.9897C118.519 73.2943 115.862 76.5305 115.35 79.2666C114.971 81.2841 115.747 83.1859 116.468 83.1859C116.949 83.1859 116.468 81.6928 117.732 80.6048C117.669 82.0213 117.717 85.6738 119.637 88.0384C122.061 91.0246 123.738 91.3978 124.298 91.2112C124.857 91.0246 125.602 89.5315 125.602 89.5315L125.589 89.4382C126.598 89.7405 127.666 89.9048 128.771 89.9048C129.948 89.9048 131.081 89.72 132.145 89.3803C132.269 89.6118 133.048 91.0395 133.562 91.2112C134.121 91.3978 135.799 91.0246 138.223 88.0384C139.231 86.7954 141.261 83.1859 141.261 83.1859C140.94 82.7585 140.56 81.5398 140.294 80.573C141.108 81.7152 141.981 82.7697 143.125 82.9993C144.057 83.1859 144.933 83.0161 144.803 81.3196C144.624 79.0016 140.668 73.955 137.906 71.6146C135.482 69.5616 137.906 69.7482 137.719 63.4027C137.579 58.664 133.056 53.7322 128.319 53.7322C123.582 53.7322 114.917 61.6782 118.705 64.5225C119.451 65.0824 120.18 65.646 120.383 66.7621C120.756 68.8151 120.26 70.687 119.389 71.9897Z" fill="#276A87"/>
<path d="M133.059 67.5086C132.557 70.7766 133.618 81.6928 124.484 81.3196C121.501 81.1982 119.078 78.897 119.078 75.9072C119.078 72.9173 122.092 71.2634 120.755 67.322C120.192 65.3474 117.417 64.0857 118.146 63.7759C120.095 62.9472 124.406 52.4756 128.155 53.1587C130.205 53.532 135.351 55.7002 136.041 59.6699C136.787 63.9625 133.431 65.0823 133.059 67.5086Z" fill="white"/>
<path d="M136.414 60.6965C136.414 64.0466 134.355 66.3889 131.008 66.3889C125.452 66.3889 125.37 60.6965 122.912 60.3679C122.912 57.0178 124.559 52.2942 127.839 52.9512C131.568 53.6977 136.414 56.6839 136.414 60.6965Z" fill="#CAE4ED"/>
<path d="M122.433 61.9096C122.433 62.5797 120.97 64.3359 118.705 64.3359C109.011 60.6032 102.487 62.4696 102.301 62.0963C101.63 60.7533 110.078 59.755 112.18 59.7125C114.46 59.7125 117.016 59.6532 118.891 60.2299C119.564 60.4371 121.902 59.336 122.619 59.67C123.337 60.0041 122.433 61.7697 122.433 61.9096Z" fill="#D6801C"/>
<path d="M108.307 51.6672C103.874 53.192 99.6603 56.7492 100.22 59.5487C100.542 61.1612 109.969 57.8653 118.078 60.2299C119.141 60.5398 120.942 60.7899 122.806 60.4166C120.372 62.4979 115.047 60.4645 111.062 60.2299C107.077 59.9954 101.546 60.5846 102.301 62.0963C102.487 62.4696 109.011 60.6032 118.705 64.3359C119.993 64.3359 121.501 64.1493 122.433 62.2829C123.309 60.5267 123.738 58.5502 127.839 52.9512C120.569 50.3383 114.142 49.6608 108.307 51.6672Z" fill="#F3B761"/>
<path d="M108.248 59.442C104.52 59.8152 99.6909 60.9259 99.6909 59.4832C99.6909 58.0405 100.809 54.0511 109.012 51.4382C106.588 53.8645 104.706 56.4558 108.248 59.442Z" fill="#854400"/>
<path d="M128.741 61.6931C129.874 61.6931 130.792 60.774 130.792 59.6401C130.792 58.5063 129.874 57.5872 128.741 57.5872C127.609 57.5872 126.691 58.5063 126.691 59.6401C126.691 60.774 127.609 61.6931 128.741 61.6931Z" fill="#161616"/>
<path d="M127.902 60.0133C128.314 60.0133 128.648 59.6791 128.648 59.2668C128.648 58.8545 128.314 58.5203 127.902 58.5203C127.491 58.5203 127.157 58.8545 127.157 59.2668C127.157 59.6791 127.491 60.0133 127.902 60.0133Z" fill="white"/>
</g>
<path d="M147.717 48.7056C147.717 44.7956 150.886 41.626 154.796 41.626H294.619C298.529 41.626 301.699 44.7956 301.699 48.7056V77.0242C301.699 80.9342 298.529 84.1039 294.619 84.1039H147.717V48.7056Z" fill="#CAE4ED"/>
<path d="M298.159 98.2629H101.699C99.744 98.2629 98.1592 99.8478 98.1592 101.803C98.1592 103.758 99.744 105.343 101.699 105.343H298.159C300.114 105.343 301.699 103.758 301.699 101.803C301.699 99.8478 300.114 98.2629 298.159 98.2629Z" fill="#E6E6E6"/>
<rect x="98.1592" y="119.502" width="203.54" height="40.708" rx="3.53982" fill="#45835F"/>
<path d="M154.796 136.316H115.858C113.903 136.316 112.318 137.901 112.318 139.856C112.318 141.811 113.903 143.396 115.858 143.396H154.796C156.751 143.396 158.336 141.811 158.336 139.856C158.336 137.901 156.751 136.316 154.796 136.316Z" fill="white"/>
<path d="M279.337 144.272C279.579 144.514 279.99 144.514 280.232 144.272L287.346 137.158C287.588 136.916 287.588 136.504 287.346 136.262L286.475 135.391C286.233 135.149 285.846 135.149 285.604 135.391L279.796 141.199L277.062 138.489C276.82 138.247 276.433 138.247 276.191 138.489L275.32 139.36C275.078 139.602 275.078 140.013 275.32 140.255L279.337 144.272Z" fill="white"/>
<rect x="99.0441" y="168.175" width="201.77" height="38.938" rx="2.65487" fill="white"/>
<path d="M154.796 184.104H115.858C113.903 184.104 112.318 185.689 112.318 187.644C112.318 189.599 113.903 191.183 115.858 191.183H154.796C156.751 191.183 158.336 189.599 158.336 187.644C158.336 185.689 156.751 184.104 154.796 184.104Z" fill="#E6E6E6"/>
<path d="M279.337 192.059C279.579 192.301 279.99 192.301 280.232 192.059L287.346 184.945C287.588 184.703 287.588 184.292 287.346 184.05L286.475 183.179C286.233 182.937 285.846 182.937 285.604 183.179L279.796 188.986L277.062 186.276C276.82 186.034 276.433 186.034 276.191 186.276L275.32 187.147C275.078 187.389 275.078 187.801 275.32 188.043L279.337 192.059Z" fill="white"/>
<rect x="99.0441" y="168.175" width="201.77" height="38.938" rx="2.65487" stroke="#F5F5F5" stroke-width="1.76991"/>
<rect x="99.0441" y="215.962" width="201.77" height="38.938" rx="2.65487" fill="white"/>
<path d="M154.796 231.891H115.858C113.903 231.891 112.318 233.476 112.318 235.431C112.318 237.386 113.903 238.971 115.858 238.971H154.796C156.751 238.971 158.336 237.386 158.336 235.431C158.336 233.476 156.751 231.891 154.796 231.891Z" fill="#E6E6E6"/>
<path d="M279.337 239.847C279.579 240.089 279.99 240.089 280.232 239.847L287.346 232.733C287.588 232.491 287.588 232.08 287.346 231.838L286.475 230.966C286.233 230.724 285.846 230.724 285.604 230.966L279.796 236.774L277.062 234.064C276.82 233.822 276.433 233.822 276.191 234.064L275.32 234.935C275.078 235.177 275.078 235.588 275.32 235.83L279.337 239.847Z" fill="white"/>
<rect x="99.0441" y="215.962" width="201.77" height="38.938" rx="2.65487" stroke="#F5F5F5" stroke-width="1.76991"/>
<rect x="84.1333" y="27.5999" width="231.592" height="253.6" rx="6.94631" stroke="#E6E6E6" stroke-width="0.266667" shape-rendering="crispEdges"/>
</g>
<path d="M384 240H310.133V199.467C310.133 187.685 319.685 178.133 331.467 178.133H384V240Z" fill="#065C56"/>
<path d="M384 271.467H214.4V230.933C214.4 219.151 223.951 209.6 235.733 209.6H384V271.467Z" fill="#003936"/>
<path d="M266.133 -34.2933C261.715 -34.2933 258.133 -37.875 258.133 -42.2933L258.133 -81.8L416 -81.8L416 53.9333L378.592 53.9333C374.174 53.9333 370.592 50.3516 370.592 45.9333L370.592 23.1524C370.592 18.7341 367.01 15.1524 362.592 15.1524L305.672 15.1524C301.253 15.1524 297.672 11.5707 297.672 7.1524L297.672 -26.2933C297.672 -30.7116 294.09 -34.2933 289.672 -34.2933L266.133 -34.2933Z" fill="#9ACECA"/>
</g>
<defs>
<filter id="filter0_d_2663_346318" x="74.4" y="27.4666" width="241.458" height="263.467" filterUnits="userSpaceOnUse" color-interpolation-filters="sRGB">
<feFlood flood-opacity="0" result="BackgroundImageFix"/>
<feColorMatrix in="SourceAlpha" type="matrix" values="0 0 0 0 0 0 0 0 0 0 0 0 0 0 0 0 0 0 127 0" result="hardAlpha"/>
<feOffset dx="-8.53333" dy="8.53333"/>
<feGaussianBlur stdDeviation="0.533333"/>
<feComposite in2="hardAlpha" operator="out"/>
<feColorMatrix type="matrix" values="0 0 0 0 0.960784 0 0 0 0 0.960784 0 0 0 0 0.960784 0 0 0 1 0"/>
<feBlend mode="normal" in2="BackgroundImageFix" result="effect1_dropShadow_2663_346318"/>
<feBlend mode="normal" in="SourceGraphic" in2="effect1_dropShadow_2663_346318" result="shape"/>
</filter>
<clipPath id="clip0_2663_346318">
<rect width="384" height="240" rx="4" fill="white"/>
</clipPath>
</defs>
</svg>
