<svg width="40" height="40" viewBox="0 0 40 40" fill="none" xmlns="http://www.w3.org/2000/svg">
<path d="M33.405 20.3151C33.405 19.3934 33.3233 18.5184 33.1833 17.6667H20V22.9284H27.5483C27.21 24.6551 26.2183 26.1134 24.7483 27.1051V30.6051H29.2517C31.8883 28.1667 33.405 24.5734 33.405 20.3151Z" fill="#4285F4"/>
<path d="M19.9989 34C23.7789 34 26.9406 32.74 29.2506 30.605L24.7472 27.105C23.4872 27.945 21.8889 28.4583 19.9989 28.4583C16.3472 28.4583 13.2556 25.9966 12.1472 22.6716H7.50391V26.2766C9.80224 30.85 14.5272 34 19.9989 34Z" fill="#34A853"/>
<path d="M12.1483 22.6717C11.8567 21.8317 11.705 20.9334 11.705 20.0001C11.705 19.0667 11.8683 18.1684 12.1483 17.3284V13.7234H7.505C6.54833 15.6134 6 17.7367 6 20.0001C6 22.2634 6.54833 24.3867 7.505 26.2767L12.1483 22.6717Z" fill="#FBBC05"/>
<path d="M19.9989 11.5417C22.0639 11.5417 23.9072 12.2533 25.3656 13.6417L29.3556 9.65167C26.9406 7.38833 23.7789 6 19.9989 6C14.5272 6 9.80224 9.15 7.50391 13.7233L12.1472 17.3283C13.2556 14.0033 16.3472 11.5417 19.9989 11.5417Z" fill="#EA4335"/>
</svg>
