<svg width="280" height="144" viewBox="0 0 280 144" fill="none" xmlns="http://www.w3.org/2000/svg">
<mask id="mask0" mask-type="alpha" maskUnits="userSpaceOnUse" x="0" y="0" width="280" height="144">
<rect width="280" height="144" rx="4" fill="#EBEBEB"/>
</mask>
<g mask="url(#mask0)">
<rect x="0.5" y="0.5" width="279" height="143" rx="3.5" fill="white" stroke="#EBEBEB"/>
<rect x="21" y="50" width="139" height="18" fill="#CFECF5"/>
<rect x="119" y="76" width="139" height="18" fill="#CFECF5"/>
<rect x="20" y="102" width="139" height="18" fill="#CFECF5"/>
<rect x="114" y="24" width="139" height="18" fill="#CFECF5"/>
<rect x="21" y="30" width="85" height="6" rx="3" fill="#CDCDCD"/>
<rect x="29" y="56" width="122" height="6" rx="3" fill="#83C2D6"/>
<rect x="128" y="82" width="122" height="6" rx="3" fill="#83C2D6"/>
<rect x="27" y="108" width="122" height="6" rx="3" fill="#83C2D6"/>
<rect x="123" y="30" width="122" height="6" rx="3" fill="#83C2D6"/>
<rect x="168" y="55" width="85" height="6" rx="3" fill="#CDCDCD"/>
<rect x="21" y="82" width="85" height="6" rx="3" fill="#CDCDCD"/>
<rect x="168" y="107" width="85" height="6" rx="3" fill="#CDCDCD"/>
<rect opacity="0.4" x="0.5" y="0.5" width="279" height="143" rx="3.5" fill="#EBEBEB" stroke="#EBEBEB"/>
<path d="M264.306 114.514C263.43 118.019 252.915 130.286 248.534 131.455C236.266 135.252 237.726 119.771 250.286 115.974C262.846 112.177 265.183 110.717 264.306 114.514Z" fill="#E07A15"/>
<path d="M263.722 102.538C264.89 106.627 265.183 110.717 264.014 114.806C263.138 118.311 256.42 116.851 254.083 119.771C251.162 123.276 252.623 130.579 248.242 131.747C235.974 135.544 222.83 128.534 219.033 116.266C215.236 103.999 222.246 90.8548 234.513 87.0577C246.781 83.2606 260.217 89.9786 263.722 102.538Z" fill="#F8C06D"/>
<path d="M219.325 116.266C220.201 119.187 221.662 121.816 223.414 124.153L264.89 111.301C265.183 108.38 264.89 105.459 264.014 102.538C263.138 99.6174 261.385 96.6965 259.633 94.6519L218.157 107.212C217.865 110.133 218.157 113.053 219.325 116.266Z" fill="#FFE1A8"/>
<path d="M224.583 109.84L227.795 108.964C228.672 108.672 229.548 108.672 230.132 108.964C230.716 109.256 231.008 109.548 231.301 110.133C231.301 110.717 231.301 111.009 231.301 111.301C231.301 111.593 230.716 112.177 230.424 112.469C231.008 112.469 231.301 112.469 231.593 112.761C231.885 113.053 232.177 113.345 232.469 113.93C232.761 114.806 232.469 115.682 231.593 116.266C231.301 116.558 230.716 116.851 230.132 116.851L226.919 117.727L224.583 109.84ZM227.211 112.761L228.964 112.177C229.256 112.177 229.548 111.885 229.84 111.593C229.84 111.301 229.84 111.009 229.84 110.717C229.84 110.425 229.548 110.133 229.256 110.133C228.964 110.133 228.672 110.133 228.088 110.133L226.627 110.717L227.211 112.761ZM229.84 115.39C230.424 115.39 230.716 115.098 230.716 114.806C231.008 114.514 231.008 114.222 230.716 113.93C230.716 113.638 230.424 113.345 230.132 113.345C229.84 113.345 229.548 113.345 228.964 113.345L227.503 113.93L228.088 115.974L229.84 115.39Z" fill="#E07A15"/>
<path d="M233.929 106.92L239.187 105.459L239.479 106.627L235.682 107.796L236.266 109.84L239.771 108.672L240.063 109.84L236.85 111.009L237.434 113.053L240.939 112.177L241.524 113.345L236.266 114.806L233.929 106.92Z" fill="#E07A15"/>
<path d="M241.231 104.583L247.657 102.538L247.949 103.707L245.613 104.875L247.657 111.593L246.197 111.885L244.152 105.167L241.524 106.043L241.231 104.583Z" fill="#E07A15"/>
<path d="M251.454 101.662L253.207 101.078L258.172 108.38L256.712 108.964L255.544 107.504L252.623 108.38V110.133L251.162 110.717L251.454 101.662ZM252.623 106.92L254.96 106.335L252.915 103.122L252.623 106.92Z" fill="#E07A15"/>
</g>
</svg>
