<svg width="56" height="56" viewBox="0 0 56 56" fill="none" xmlns="http://www.w3.org/2000/svg">
<mask id="mask0" mask-type="alpha" maskUnits="userSpaceOnUse" x="0" y="0" width="56" height="56">
<rect width="56" height="56" fill="#C4C4C4"/>
</mask>
<g mask="url(#mask0)">
<path d="M21.5833 16.3334H37.0416L53.9583 54.8334H4.08325L21.5833 16.3334Z" fill="#FFEFD8"/>
<path d="M52.5 28.5834H55.4167L48.4167 56H45.5L52.5 28.5834Z" fill="#65C3BC"/>
<path d="M27.4167 5.25H31.5001L56.0001 28H51.9167L27.4167 5.25Z" fill="#65C3BC"/>
<path d="M5.25 46.9583C3.98611 44.625 3.5 45.2083 0.875 40.25C0.875 40.25 6.70833 31.2083 2.33333 16.0416C2.33333 16.0416 10.2083 22.75 9.625 30.0416C9.04167 37.3333 8.16667 35.5833 6.70833 39.0833C5.53822 41.8916 6.61111 44.5277 5.25 46.9583Z" fill="#52A078"/>
<path d="M13.5088 16.8949C14.875 15.4583 16.8189 14.8995 17.1382 14.8133C17.2143 15.3067 16.4946 17.8019 15.5924 18.902C14.9992 19.6254 12.9297 20.2489 12.3687 20.2862C12.3416 19.5512 12.9322 17.5013 13.5088 16.8949Z" fill="#52A078"/>
<path d="M8.20461 14.875C8.52715 12.5417 10.5 9.62504 11.0833 9.33337C11.5694 9.81949 12.1713 14.1167 11.7046 15.75C11.2379 17.3834 9.66294 19.3473 9.07961 19.5417C8.39905 18.5695 8.04486 16.0307 8.20461 14.875Z" fill="#52A078"/>
<path d="M13.2694 25.4825C11.363 25.2316 10.162 23.598 9.92077 23.1234C10.315 22.724 12.6293 22.2486 13.9651 22.6209C15.3008 22.9931 16.9122 24.2683 17.0741 24.7435C16.2841 25.3042 14.2136 25.6068 13.2694 25.4825Z" fill="#52A078"/>
<path d="M0.555282 45.6099C0.270844 44.3583 1.22211 43.1666 2.50555 43.1666H15.2088C16.4207 43.1666 17.3542 44.236 17.1904 45.4369L15.75 56H2.91667L0.555282 45.6099Z" fill="#214D2E"/>
<path d="M0.65085 29.3366C0.321486 28.0699 1.27759 26.8334 2.58649 26.8334H34.6202C35.5309 26.8334 36.3266 27.4487 36.5558 28.3301L43.75 56H9.12983C8.21909 56 7.42336 55.3847 7.19418 54.5033L0.65085 29.3366Z" fill="#3F7494"/>
<path d="M32.6667 26.8334H34.6203C35.531 26.8334 36.3267 27.4487 36.5559 28.3301L43.7501 56H40.2501L32.6667 26.8334Z" fill="#335267"/>
<path d="M6.6499 52.5H55.9999V56H9.11979C8.21369 56 7.42078 55.3908 7.18732 54.5153L6.6499 52.5Z" fill="#335267"/>
<path d="M22.7501 40.25C22.7501 41.8609 21.4442 43.1667 19.8334 43.1667C18.2226 43.1667 16.9167 41.8609 16.9167 40.25C16.9167 38.6392 18.2226 37.3334 19.8334 37.3334C21.4442 37.3334 22.7501 38.6392 22.7501 40.25Z" fill="#83C2D6"/>
<ellipse cx="53.6666" cy="28" rx="2.33333" ry="2.33333" fill="#3EA39A"/>
<circle cx="29.1666" cy="16.3333" r="4.08333" fill="#F8C06D"/>
<path d="M24.7227 1.54554C24.9339 0.640362 25.7409 0 26.6704 0H31.6629C32.5924 0 33.3994 0.640363 33.6106 1.54554L36.7606 15.0455C37.0533 16.3 36.1011 17.5 34.8129 17.5H23.5204C22.2322 17.5 21.28 16.3 21.5727 15.0455L24.7227 1.54554Z" fill="#3EA39A"/>
</g>
</svg>
