<svg width="16" height="16" viewBox="0 0 16 16" fill="none" xmlns="http://www.w3.org/2000/svg">
<circle cx="8" cy="8" r="8" fill="#F3B761"/>
<path fill-rule="evenodd" clip-rule="evenodd" d="M10.4 7H10.8C11.15 7 11.5 7.35 11.5 7.75V11.25C11.5 11.65 11.15 12 10.75 12H5.25C4.85 12 4.5 11.65 4.5 11.25V7.75C4.5 7.35 4.85 7 5.25 7H5.65V6.4C5.6 5.1 6.7 4 8 4C9.3 4 10.4 5.1 10.4 6.4V7ZM6.9 6.4V7H9.15V6.4C9.15 5.8 8.65 5.3 8.05 5.3C7.4 5.25 6.9 5.75 6.9 6.4ZM9 9C9 9.4 8.8 9.7 8.5 9.9C8.5 9.95 8.5 10 8.5 10V10.5C8.5 10.8 8.3 11 8 11C7.7 11 7.5 10.8 7.5 10.5V10C7.5 9.95 7.5 9.9 7.5 9.9C7.2 9.75 7 9.4 7 9C7 8.45 7.45 8 8 8C8.55 8 9 8.45 9 9Z" fill="#854400"/>
</svg>
