<svg width="76" height="22" fill="none"
  xmlns="http://www.w3.org/2000/svg">
  <path d="M23.3149 13.0861c0 .2692.0828.4607.2484.5746.176.1139.4193.1708.7299.1708.1553 0 .3158-.0103.4814-.031.1657-.0311.3106-.0673.4349-.1087.0931.1138.1708.2433.2329.3882.0725.1346.1087.3002.1087.4969 0 .3934-.1501.7144-.4503.9629-.2899.2484-.8076.3727-1.553.3727-.911 0-1.615-.2071-2.112-.6212-.4866-.4141-.7299-1.0871-.7299-2.0188V6.62588c.1139-.03106.2744-.06212.4814-.09318.2175-.04141.4452-.06212.6833-.06212.4556 0 .8076.08282 1.056.24847.2589.1553.3883.49177.3883 1.00941v.99389h2.0343c.0621.11388.1191.25882.1709.43482.0621.16565.0931.352.0931.55906 0 .36237-.0828.62637-.2484.79197-.1553.1553-.3676.233-.6367.233h-1.4132v2.3449zM34.613 11.9059c0 .6419-.0983 1.2164-.2951 1.7237-.1967.497-.4762.9163-.8385 1.2579-.352.3417-.7765.6005-1.2735.7765-.4969.176-1.0508.264-1.6616.264s-1.1647-.0932-1.6616-.2795c-.497-.1864-.9266-.4504-1.289-.792-.352-.352-.6263-.7765-.823-1.2734-.1968-.497-.2951-1.056-.2951-1.6772 0-.6108.0983-1.1647.2951-1.6617.1967-.49691.471-.91621.823-1.25785.3624-.352.792-.62118 1.289-.80753.4969-.18636 1.0508-.27953 1.6616-.27953s1.1647.09835 1.6616.29506c.497.18635.9215.45553 1.2735.80753.3623.34164.6418.76094.8385 1.25792.1968.4969.2951 1.0456.2951 1.6461zm-5.4353 0c0 .6315.1191 1.1181.3572 1.4597.2485.3313.5901.497 1.0249.497.4349 0 .7661-.1708.9939-.5125.2381-.3416.3572-.823.3572-1.4442s-.1191-1.0974-.3572-1.4287c-.2381-.3417-.5746-.5125-1.0094-.5125-.4348 0-.7713.1708-1.0094.5125-.2381.3313-.3572.8075-.3572 1.4287zM35.901 8.24093c.1035-.03105.264-.06211.4814-.09317.2278-.03106.4607-.04659.6988-.04659.2278 0 .4297.01553.6057.04659.1863.03106.3416.09317.4658.18635.1243.09318.2175.22259.2796.38824.0724.15529.1087.36235.1087.62117v3.33878c0 .4245.1035.7299.3106.9163.207.176.5073.264.9007.264.2381 0 .4296-.0207.5746-.0621.1553-.0414.2743-.0829.3571-.1243V8.24093c.1036-.03105.264-.06211.4814-.09317.2278-.03106.4608-.04659.6989-.04659.2277 0 .4296.01553.6056.04659.1864.03106.3417.09317.4659.18635.1242.09318.2174.22259.2795.38824.0725.15529.1087.36235.1087.62117v4.72098c0 .5176-.2174.9058-.6522 1.1647-.3624.2277-.7972.3986-1.3045.5124-.4969.1243-1.0404.1864-1.6306.1864-.559 0-1.0767-.0621-1.5529-.1864-.4659-.1242-.8696-.3157-1.2113-.5745-.3416-.2589-.6056-.5902-.792-.9939-.1863-.4141-.2795-.9111-.2795-1.4909V8.24093zM49.1946 9.98023c-.2588 0-.5073.04137-.7454.12427-.2277.0828-.4296.207-.6056.3727-.1657.1553-.3003.352-.4038.5901-.1035.2381-.1553.5176-.1553.8386 0 .6419.1812 1.1233.5436 1.4442.3727.321.823.4814 1.351.4814.3106 0 .5798-.0362.8075-.1087.2278-.0725.4297-.1501.6057-.2329.207.1449.3623.3054.4659.4814.1035.1656.1553.3675.1553.6056 0 .4245-.2019.7558-.6057.9939-.4037.2278-.9628.3417-1.6772.3417-.6522 0-1.2423-.0932-1.7703-.2796-.528-.1967-.9835-.4658-1.3666-.8075-.3727-.352-.6626-.7713-.8696-1.2579-.2071-.4866-.3106-1.0249-.3106-1.615 0-.6833.1087-1.2786.3261-1.7859.2277-.51767.5332-.94214.9162-1.27343.3831-.33129.8231-.57976 1.32-.74541.5073-.16565 1.0405-.24847 1.5995-.24847.7455 0 1.3201.13459 1.7238.40376.4038.26918.6057.616.6057 1.04047 0 .19671-.0466.38306-.1398.55906-.0932.16562-.2019.31062-.3261.43482-.176-.0828-.3883-.1605-.6367-.2329-.2485-.0829-.5177-.12427-.8076-.12427zM55.7676 14.0023c.176 0 .3675-.0155.5746-.0465.2174-.0415.3779-.0932.4814-.1553v-1.2424l-1.1181.0932c-.2899.0207-.528.0828-.7144.1863-.1863.1036-.2795.2589-.2795.4659 0 .2071.0776.3779.2329.5125.1657.1242.44.1863.8231.1863zm-.1243-6.10301c.5591 0 1.0664.05694 1.5219.17082.4659.11388.8593.28988 1.1803.528.3313.22777.5849.52282.7609.88518.176.352.264.77131.264 1.25791v3.4786c0 .2691-.0776.4917-.2329.6677-.145.1657-.321.3106-.528.4348-.673.4038-1.6203.6057-2.8419.6057-.5487 0-1.0457-.0518-1.4908-.1553-.4349-.1035-.8127-.2588-1.1337-.4659-.3106-.207-.5539-.471-.7299-.792-.1656-.3209-.2484-.6936-.2484-1.1181 0-.7144.2122-1.2631.6367-1.6461.4244-.3831 1.0819-.6212 1.9722-.7144l2.0344-.2174v-.1087c0-.3002-.1346-.5125-.4038-.6367-.2588-.13458-.6367-.20188-1.1337-.20188-.3934 0-.7764.04141-1.1491.12424-.3727.08284-.7092.18634-1.0094.31054-.1346-.0931-.2485-.2329-.3417-.41925-.0932-.1967-.1398-.39859-.1398-.60564 0-.26918.0622-.48142.1864-.63671.1346-.16565.3365-.30541.6056-.41929.3003-.11389.6523-.19671 1.056-.24848.4142-.05176.8024-.07764 1.1647-.07764zM65.7677 10.8965c0-.321-.0932-.5539-.2796-.6989-.176-.1553-.4192-.2329-.7298-.2329-.2071 0-.4141.02588-.6212.0776-.1967.0518-.3675.1295-.5125.233v5.3887c-.1035.0311-.2692.0621-.4969.0932-.2174.031-.4452.0466-.6833.0466-.2278 0-.4348-.0156-.6212-.0466-.176-.0311-.3261-.0932-.4503-.1864-.1243-.0932-.2226-.2174-.2951-.3727-.0621-.1656-.0932-.3779-.0932-.6367V9.90258c0-.27953.057-.50729.1708-.68329.1243-.176.2899-.33647.497-.48141.352-.24847.792-.45036 1.32-.60565.5383-.1553 1.1336-.23294 1.7859-.23294 1.1699 0 2.0706.25882 2.7021.77647.6315.50729.9473 1.21647.9473 2.12754v4.8607c-.1036.0311-.2692.0621-.497.0932-.2174.031-.4451.0466-.6833.0466-.2277 0-.4348-.0156-.6211-.0466-.176-.0311-.3262-.0932-.4504-.1864-.1242-.0932-.2226-.2174-.295-.3727-.0622-.1656-.0932-.3779-.0932-.6367v-3.6649z" fill="#3EA39A"/>
  <path d="M14.0435 11.3233c-.5776.8971-.7932 1.7708-.314 2.0816.4792.3109 1.1998-.269 1.7773-1.1661.5776-.8972 1.0372-1.9057.558-2.2165-.4785-.31026-1.4438.4045-2.0213 1.301z" fill="#323C46"/>
  <path d="M14.6021 12.1084c-.5776.8971-.7932 1.7707-.314 2.0816.4792.3109 1.1998-.2691 1.7773-1.1662.5776-.8971 1.0372-1.9056.558-2.2165-.4791-.3108-1.4444.404-2.0213 1.3011z" fill="#335267"/>
  <path d="M7.98432 12.0046c-.29444.4425-1.1929 1.5403-1.36628 2.4684-.12799.6844.13429 1.3295.37829 1.3295.16267 0 0-.5064.42748-.8755-.02144.4805-.00504 1.7195.64437 2.5216.81964 1.013 1.38709 1.1396 1.57623 1.0763.18915-.0633.44139-.5698.44139-.5698l-.0045-.0317c.3411.1026.7024.1583 1.0763.1583.3978 0 .7812-.0627 1.1412-.1779.0416.0785.3052.5628.4792.6211.1891.0633.7566-.0633 1.5762-1.0763.3411-.4216 1.0277-1.6461 1.0277-1.6461-.1084-.1449-.237-.5584-.3272-.8863.2755.3875.5706.7452.9577.823.3153.0633.6116.0057.5675-.5698-.0606-.7863-1.3985-2.4982-2.3329-3.2921-.8196-.6964 0-.6331-.063-2.78564-.0473-1.60744-1.4874-3.29213-3.0894-3.29213-1.60214 0-4.62284 2.70715-3.34167 3.67199.2522.18993.49872.38113.56744.75968.1261.6958-.04161 1.3308-.33605 1.7734z" fill="#3F7494"/>
  <path d="M12.6079 10.4838c-.1696 1.1086.1891 4.8116-2.9003 4.685-1.0088-.0412-1.82844-.8218-1.82844-1.836 0-1.0143.81964-2.026.56745-2.9123-.19041-.66982-1.12922-1.09779-.8827-1.20289.6595-.2811 2.02941-3.76445 3.29729-3.53274.6936.12662 2.5222.79331 2.7555 2.13992.2522 1.45613-.8827 1.83599-1.0088 2.65901z" fill="#fff"/>
  <path d="M13.7426 8.17298c0 1.13642-.6967 1.93092-1.8284 1.93092S10.338 9.02767 9.01392 8.5845c0-1.13642.71876-3.26174 1.82848-3.03889 1.4055.27792 2.9002 1.2662 2.9002 2.62737z" fill="#CFECF5"/>
  <path d="M11.1579 8.52114c.383 0 .6935-.3118.6935-.69642 0-.38461-.3105-.69641-.6935-.69641s-.6935.3118-.6935.69641c0 .38462.3105.69642.6935.69642z" fill="#181818"/>
  <ellipse cx="10.8998" cy="7.56894" rx=".322631" ry=".322632" fill="#fff"/>
  <path d="M9.01395 8.58447c0 .22729-.49494.82304-1.26099.82304-3.27857-1.26621-5.4853-.6331-5.54835-.75972-.25535-.51282 2.95387-.82304 3.71992-.82304 1.32403 0 3.08942.53244 3.08942.75972z" fill="#DF9542"/>
  <path d="M4.23607 5.11001c-1.49931.51724-3.06555 1.89598-2.91413 2.65469.12357.61917 5.00485-.75475 7.69202.81977-.61788-.21082-2.74454-.56979-3.84602-.56979-.76605 0-3.21867.12029-2.96332.6331.06305.12662 2.26978-.50648 5.54835.75972.43567 0 .94574-.06331 1.26099-.69641.29633-.59575.44135-1.2662 1.82844-3.16551-2.45893-.88634-4.63288-1.11552-6.60633-.43557z" fill="#F4C460"/>
  <path d="M4.09594 7.82476c-1.26099.12662-2.80187.42934-2.80187-.06005 0-.61528.40598-1.83926 3.18016-2.7256-.81964.82303-1.57623 1.77268-.37829 2.78565z" fill="#B06636"/>
</svg>