<svg width="64" height="16" fill="none"
  xmlns="http://www.w3.org/2000/svg">
  <path d="M22.1493 9.112c0 .208.064.356.192.444.136.088.324.132.564.132.12 0 .244-.008.372-.024.128-.024.24-.052.336-.084.072.088.132.188.18.3.056.104.084.232.084.384 0 .304-.116.552-.348.744-.224.192-.624.288-1.2.288-.704 0-1.248-.16-1.632-.48-.376-.32-.564-.84-.564-1.56V4.12c.088-.024.212-.048.372-.072.168-.032.344-.048.528-.048.352 0 .624.064.816.192.2.12.3.38.3.78v.768h1.572c.048.088.092.2.132.336.048.128.072.272.072.432 0 .28-.064.484-.192.612-.12.12-.284.18-.492.18h-1.092v1.812zM30.8797 8.2c0 .496-.076.94-.228 1.332-.152.384-.368.708-.648.972-.272.264-.6.464-.984.6-.384.136-.812.204-1.284.204s-.9-.072-1.284-.216c-.384-.144-.716-.348-.996-.612-.272-.272-.484-.6-.636-.984-.152-.384-.228-.816-.228-1.296 0-.472.076-.9.228-1.284.152-.384.364-.708.636-.972.28-.272.612-.48.996-.624.384-.144.812-.216 1.284-.216s.9.076 1.284.228c.384.144.712.352.984.624.28.264.496.588.648.972.152.384.228.808.228 1.272zm-4.2 0c0 .488.092.864.276 1.128.192.256.456.384.792.384s.592-.132.768-.396c.184-.264.276-.636.276-1.116 0-.48-.092-.848-.276-1.104-.184-.264-.444-.396-.78-.396s-.596.132-.78.396c-.184.256-.276.624-.276 1.104zM31.875 5.368c.08-.024.204-.048.372-.072.176-.024.356-.036.54-.036.176 0 .332.012.468.036.144.024.264.072.36.144.096.072.168.172.216.3.056.12.084.28.084.48V8.8c0 .328.08.564.24.708.16.136.392.204.696.204.184 0 .332-.016.444-.048.12-.032.212-.064.276-.096v-4.2c.08-.024.204-.048.372-.072.176-.024.356-.036.54-.036.176 0 .332.012.468.036.144.024.264.072.36.144.096.072.168.172.216.3.056.12.084.28.084.48v3.648c0 .4-.168.7-.504.9-.28.176-.616.308-1.008.396-.384.096-.804.144-1.26.144-.432 0-.832-.048-1.2-.144-.36-.096-.672-.244-.936-.444s-.468-.456-.612-.768c-.144-.32-.216-.704-.216-1.152V5.368zM42.1473 6.712c-.2 0-.392.032-.576.096-.176.064-.332.16-.468.288-.128.12-.232.272-.312.456-.08.184-.12.4-.12.648 0 .496.14.868.42 1.116.288.248.636.372 1.044.372.24 0 .448-.028.624-.084.176-.056.332-.116.468-.18.16.112.28.236.36.372.08.128.12.284.12.468 0 .328-.156.584-.468.768-.312.176-.744.264-1.296.264-.504 0-.96-.072-1.368-.216-.408-.152-.76-.36-1.056-.624-.288-.272-.512-.596-.672-.972-.16-.376-.24-.792-.24-1.248 0-.528.084-.988.252-1.38.176-.4.412-.728.708-.984s.636-.448 1.02-.576c.392-.128.804-.192 1.236-.192.576 0 1.02.104 1.332.312.312.208.468.476.468.804 0 .152-.036.296-.108.432-.072.128-.156.24-.252.336-.136-.064-.3-.124-.492-.18-.192-.064-.4-.096-.624-.096zM47.2264 9.82c.136 0 .284-.012.444-.036.168-.032.292-.072.372-.12v-.96l-.864.072c-.224.016-.408.064-.552.144-.144.08-.216.2-.216.36 0 .16.06.292.18.396.128.096.34.144.636.144zm-.096-4.716c.432 0 .824.044 1.176.132.36.088.664.224.912.408.256.176.452.404.588.684.136.272.204.596.204.972v2.688c0 .208-.06.38-.18.516-.112.128-.248.24-.408.336-.52.312-1.252.468-2.196.468-.424 0-.808-.04-1.152-.12-.336-.08-.628-.2-.876-.36-.24-.16-.428-.364-.564-.612-.128-.248-.192-.536-.192-.864 0-.552.164-.976.492-1.272.328-.296.836-.48 1.524-.552l1.572-.168v-.084c0-.232-.104-.396-.312-.492-.2-.104-.492-.156-.876-.156-.304 0-.6.032-.888.096-.288.064-.548.144-.78.24-.104-.072-.192-.18-.264-.324-.072-.152-.108-.308-.108-.468 0-.208.048-.372.144-.492.104-.128.26-.236.468-.324.232-.088.504-.152.816-.192.32-.04.62-.06.9-.06zM54.9538 7.42c0-.248-.072-.428-.216-.54-.136-.12-.324-.18-.564-.18-.16 0-.32.02-.48.06-.152.04-.284.1-.396.18v4.164c-.08.024-.208.048-.384.072-.168.024-.344.036-.528.036-.176 0-.336-.012-.48-.036-.136-.024-.252-.072-.348-.144-.096-.072-.172-.168-.228-.288-.048-.128-.072-.292-.072-.492v-3.6c0-.216.044-.392.132-.528.096-.136.224-.26.384-.372.272-.192.612-.348 1.02-.468.416-.12.876-.18 1.38-.18.904 0 1.6.2 2.088.6.488.392.732.94.732 1.644v3.756c-.08.024-.208.048-.384.072-.168.024-.344.036-.528.036-.176 0-.336-.012-.48-.036-.136-.024-.252-.072-.348-.144-.096-.072-.172-.168-.228-.288-.048-.128-.072-.292-.072-.492V7.42z" fill="#3EA39A"/>
  <path d="M11.8221 7.69975c-.5355.83186-.7354 1.642-.2911 1.93025.4443.28824 1.1126-.2495 1.6481-1.08136.5355-.83187.9617-1.76705.5174-2.0553-.4437-.28765-1.3388.37514-1.8744 1.20641z" fill="#323C46"/>
  <path d="M12.3401 8.42777c-.5355.83186-.7355 1.64203-.2911 1.93023.4443.2883 1.1125-.2495 1.6481-1.08134.5355-.83186.9617-1.76705.5174-2.05529-.4444-.28825-1.3394.37454-1.8744 1.2064z" fill="#335267"/>
  <path d="M6.20366 8.33164c-.27302.41035-1.10614 1.42831-1.26691 2.28896-.11868.6346.12453 1.2328.35078 1.2328.15084 0 0-.4697.39639-.8119-.01988.4456-.00468 1.5944.5975 2.3382.76003.9393 1.28621 1.0568 1.4616.998.1754-.0587.40925-.5283.40925-.5283l-.00409-.0294c.31629.0951.65129.1468.99798.1468.36891 0 .72437-.0581 1.05824-.165.0385.0728.2829.5219.4443.5759.1754.0588.7016-.0587 1.4616-.998.3163-.3909.953-1.5263.953-1.5263-.1006-.1344-.2199-.5178-.3035-.8219.2555.3593.5291.691.8881.7632.2923.0587.5671.0053.5262-.5284-.0562-.7291-1.2968-2.31649-2.1632-3.05266-.76-.64577 0-.58706-.0585-2.58306-.0438-1.49054-1.3791-3.0527-2.8647-3.0527-1.48557 0-4.28659 2.51026-3.0986 3.40494.23386.17611.46245.35341.52618.70447.11693.64517-.03859 1.23399-.31162 1.64435z" fill="#3F7494"/>
  <path d="M10.491 6.92137c-.1572 1.02794.1754 4.46163-2.68933 4.34423-.93542-.0382-1.69546-.762-1.69546-1.70247 0-.94047.92259-1.30598.52618-2.70047-.17656-.62111-1.04709-1.01796-.8185-1.11541.61154-.26065 1.88181-3.49068 3.05753-3.27581.6431.11741 2.33868.73561 2.55498 1.98428.2339 1.35024-.8185 1.70247-.9354 2.46565z" fill="#fff"/>
  <path d="M11.5432 4.77874c0 1.05377-.646 1.79053-1.69545 1.79053-1.04943 0-1.4616-.998-2.68935-1.40894 0-1.05377.66649-3.02452 1.69546-2.81788 1.30334.25771 2.68934 1.17412 2.68934 2.43629z" fill="#CFECF5"/>
  <path d="M9.14634 5.10134c.35518 0 .6431-.28912.6431-.64576 0-.35665-.28792-.64577-.6431-.64577s-.64311.28912-.64311.64577c0 .35664.28793.64576.64311.64576z" fill="#161616"/>
  <path d="M8.86937 4.57169c.12926 0 .23405-.10492.23405-.23433 0-.12942-.10479-.23433-.23405-.23433-.12927 0-.23406.10491-.23406.23433 0 .12941.10479.23433.23406.23433z" fill="#fff"/>
  <path d="M7.15837 5.16028c0 .21075-.45894.76318-1.16928.76318C2.94896 4.74934.902712 5.3364.844248 5.21899c-.236779-.47552 2.739042-.76318 3.449382-.76318 1.22775 0 2.86474.49372 2.86474.70447z" fill="#E07A15"/>
  <path d="M2.72808 1.93848C1.3378 2.41811-.114527 3.69657.0258786 4.40011c.1145894.57414 4.6408714-.69987 7.1326114.76015-.57295-.19549-2.54494-.52835-3.56631-.52835-.71034 0-2.984592.11154-2.747813.58705.058464.11742 2.104703-.46964 5.144843.70447.40399 0 .87696-.0587 1.16928-.64576.27478-.55242.40925-1.17412 1.69546-2.93529-2.2801-.82188-4.29594-1.0344-6.12587-.4039z" fill="#F8C06D"/>
  <path d="M2.5981 4.45561C1.42881 4.57302 0 4.85373 0 4.39993c0-.57053.376461-1.70549 2.94888-2.52737-.76003.76317-1.4616 1.64376-.35078 2.58305z" fill="#AB5930"/>
</svg>