<?xml version="1.0" encoding="UTF-8"?>
<svg width="64px" height="64px" viewBox="0 0 64 64" version="1.1" xmlns="http://www.w3.org/2000/svg" xmlns:xlink="http://www.w3.org/1999/xlink">
    <!-- Generator: Sketch 55.1 (78136) - https://sketchapp.com -->
    <title>Group 14</title>
    <desc>Created with Sketch.</desc>
    <defs>
        <circle id="path-1" cx="28" cy="28" r="28"></circle>
        <filter x="-12.5%" y="-8.9%" width="125.0%" height="125.0%" filterUnits="objectBoundingBox" id="filter-2">
            <feOffset dx="0" dy="2" in="SourceAlpha" result="shadowOffsetOuter1"></feOffset>
            <feGaussianBlur stdDeviation="2" in="shadowOffsetOuter1" result="shadowBlurOuter1"></feGaussianBlur>
            <feColorMatrix values="0 0 0 0 0   0 0 0 0 0   0 0 0 0 0  0 0 0 0.195776879 0" type="matrix" in="shadowBlurOuter1"></feColorMatrix>
        </filter>
    </defs>
    <g id="Page-1" stroke="none" stroke-width="1" fill="none" fill-rule="evenodd">
        <g id="Widgets" transform="translate(-60.000000, -228.000000)">
            <g id="Group-15-Copy-2" transform="translate(64.000000, 230.000000)">
                <g id="Group-14">
                    <g id="Oval">
                        <use fill="black" fill-opacity="1" filter="url(#filter-2)" xlink:href="#path-1"></use>
                        <use fill="#FFFFFF" fill-rule="evenodd" xlink:href="#path-1"></use>
                    </g>
                    <g id="flaticon1559686097-svg" transform="translate(21.000000, 27.000000)" fill="#717171" fill-rule="nonzero">
                        <path d="M13.7217344,0.291703152 C13.536073,0.0972343841 13.3105699,0 13.0455036,0 L0.954461553,0 C0.689395258,0 0.46396179,0.0972343841 0.278335282,0.291703152 C0.0927087738,0.486135435 0,0.722161413 0,1 L0,3.00014594 C0,3.2780575 0.0927087738,3.51408348 0.278335282,3.70833333 C0.46396179,3.90287507 0.689395258,4 0.954461553,4 L13.0454688,4 C13.3105351,4 13.5360382,3.90287507 13.7216995,3.70833333 C13.9071519,3.51408348 14,3.2780575 14,3.00014594 L14,1 C14,0.722161413 13.9074305,0.486025978 13.7217344,0.291703152 Z" id="Path"></path>
                    </g>
                </g>
            </g>
        </g>
    </g>
</svg>