<svg width="216" height="50" viewBox="0 0 216 50" fill="none" xmlns="http://www.w3.org/2000/svg">
<g clip-path="url(#clip0)">
<rect width="216" height="50" fill="white"/>
<g clip-path="url(#clip1)">
<rect width="240.12" height="134.935" transform="matrix(1 0 0 -1 -0.390625 61.9349)" fill="#2B7670"/>
<path d="M41.9895 42.4551C42.2855 42.4551 42.5255 42.2154 42.5255 41.9196C42.5255 41.6239 42.2855 41.3842 41.9895 41.3842C41.6935 41.3842 41.4535 41.6239 41.4535 41.9196C41.4535 42.2154 41.6935 42.4551 41.9895 42.4551Z" fill="#3EA39A"/>
<path d="M94.3926 18.6112C94.4873 18.6112 94.5641 18.5345 94.5641 18.4398C94.5641 18.3452 94.4873 18.2685 94.3926 18.2685C94.2978 18.2685 94.221 18.3452 94.221 18.4398C94.221 18.5345 94.2978 18.6112 94.3926 18.6112Z" fill="#3EA39A"/>
<path d="M211.344 13.3155C211.77 13.3155 212.116 12.9703 212.116 12.5445C212.116 12.1186 211.77 11.7734 211.344 11.7734C210.918 11.7734 210.572 12.1186 210.572 12.5445C210.572 12.9703 210.918 13.3155 211.344 13.3155Z" fill="#3EA39A"/>
<path d="M200.796 2.73495C201.574 2.73495 202.206 2.10445 202.206 1.32669C202.206 0.548939 201.574 -0.0815582 200.796 -0.0815582C200.017 -0.0815582 199.386 0.548939 199.386 1.32669C199.386 2.10445 200.017 2.73495 200.796 2.73495Z" fill="#3EA39A"/>
<path d="M99.345 1.15535C99.5227 1.15535 99.6666 1.01152 99.6666 0.834086C99.6666 0.656652 99.5227 0.51281 99.345 0.51281C99.1674 0.51281 99.0234 0.656652 99.0234 0.834086C99.0234 1.01152 99.1674 1.15535 99.345 1.15535Z" fill="#3EA39A"/>
<path d="M117.745 1.26248C117.899 1.26248 118.024 1.1378 118.024 0.984028C118.024 0.830251 117.899 0.705612 117.745 0.705612C117.591 0.705612 117.467 0.830251 117.467 0.984028C117.467 1.1378 117.591 1.26248 117.745 1.26248Z" fill="#3EA39A"/>
<path d="M302.976 80.1565C227.788 80.1565 -43.8053 80.1565 -43.8053 80.1565C-16.4701 60.3447 13.5449 41.6037 49.4558 47.4937C60.7114 -4.44554 120.206 -13.5483 153.437 -3.91008C160.94 -15.6901 177.438 -30.1903 206.499 -30.6829C238.122 -31.2183 253.129 -18.3674 267.601 4.65722C267.601 4.65722 285.262 -7.24062 302.976 -4.98099C302.976 23.3982 302.976 80.1565 302.976 80.1565Z" fill="#3EA39A" fill-opacity="0.3"/>
<path d="M119.365 71.0825C119.912 73.1487 137.165 71.6262 139.124 71.4917C146.445 70.9882 153.733 69.7935 160.784 67.7469C171.989 64.4968 187.205 58.3188 194.082 48.2886C195.172 46.6955 194.976 46.0993 193.115 45.3959C179.998 40.4194 165.849 40.0446 152.38 44.2391C140.292 48.0001 126.146 56.1637 120.039 67.7147C119.532 68.6742 119.148 69.6168 119.27 70.7102L119.365 71.0825Z" fill="#274F4C"/>
<path d="M156.061 77.6413C155.86 77.2405 155.692 76.821 155.454 76.4417C154.13 74.3363 152.418 72.5195 150.955 70.529C147.561 65.9122 144.322 69.5194 138.965 68.0927C134.905 67.0133 131.03 65.5251 127.465 63.2755C122.895 60.3927 117.702 50.5122 114.019 46.6328C109.652 42.0293 104.327 39.1118 98.366 37.14C94.7609 35.9484 91.0783 35.0827 87.3876 34.2438C85.3177 33.7736 83.2102 33.4476 81.1055 33.1724C78.8429 32.8759 76.5644 32.6194 74.2858 32.5098C71.3493 32.3709 68.3941 32.2266 65.463 32.4003C62.3607 32.5846 59.3118 32.6568 56.2283 32.1144C51.7005 31.3182 47.4616 29.7472 43.4019 27.6659C39.0533 25.435 35.13 22.5228 31.097 19.7922C26.358 16.5781 21.6591 13.2918 16.3798 10.9914C11.7371 8.96892 6.84024 7.91625 1.80702 7.51816C-2.21259 7.20022 -6.19473 6.77273 -10.1127 5.71204H-11.1103L-10.5353 147.104H156.061V77.6413Z" fill="#274F4C"/>
<path d="M105.734 22.0594C106.622 22.0594 107.342 21.3402 107.342 20.453C107.342 19.5659 106.622 18.8466 105.734 18.8466C104.846 18.8466 104.126 19.5659 104.126 20.453C104.126 21.3402 104.846 22.0594 105.734 22.0594Z" fill="#3EA39A"/>
<path d="M135.749 44.0131C137.525 44.0131 138.965 42.5747 138.965 40.8003C138.965 39.026 137.525 37.5876 135.749 37.5876C133.973 37.5876 132.533 39.026 132.533 40.8003C132.533 42.5747 133.973 44.0131 135.749 44.0131Z" fill="#3EA39A"/>
<path d="M159.064 23.1303C159.804 23.1303 160.404 22.531 160.404 21.7916C160.404 21.0523 159.804 20.453 159.064 20.453C158.324 20.453 157.724 21.0523 157.724 21.7916C157.724 22.531 158.324 23.1303 159.064 23.1303Z" fill="#3EA39A"/>
<path d="M207.495 -4.90936C210.597 -16.4345 215.806 -21.1496 215.806 -21.1496C215.806 -21.1496 206.451 -22.6737 184.908 -0.090752C173.84 0.447746 152.457 8.27453 136.884 18.5279C141.033 -3.68219 198.321 -90.1603 284.199 -26.1735C270.5 -32.7389 225.406 -19.0768 207.495 -4.90936Z" fill="#274F4C"/>
</g>
</g>
<defs>
<clipPath id="clip0">
<rect width="216" height="50" fill="white"/>
</clipPath>
<clipPath id="clip1">
<rect width="240.12" height="134.935" fill="white" transform="translate(-0.390625 -73)"/>
</clipPath>
</defs>
</svg>
