<svg width="216" height="50" viewBox="0 0 216 50" fill="none" xmlns="http://www.w3.org/2000/svg">
<g clip-path="url(#clip0)">
<rect width="216" height="50" fill="white"/>
<g clip-path="url(#clip1)">
<rect width="216" height="121.5" transform="matrix(1 0 0 -1 0 85.5)" fill="#161616"/>
<path d="M85.2621 46.4898C85.3473 46.4898 85.4164 46.4207 85.4164 46.3355C85.4164 46.2503 85.3473 46.1812 85.2621 46.1812C85.1769 46.1812 85.1078 46.2503 85.1078 46.3355C85.1078 46.4207 85.1769 46.4898 85.2621 46.4898Z" fill="#161616"/>
<path d="M190.466 41.7215C190.849 41.7215 191.16 41.4106 191.16 41.0272C191.16 40.6437 190.849 40.3329 190.466 40.3329C190.082 40.3329 189.771 40.6437 189.771 41.0272C189.771 41.4106 190.082 41.7215 190.466 41.7215Z" fill="#161616"/>
<path d="M208.112 29.2243C208.549 29.2243 208.903 28.8703 208.903 28.4336C208.903 27.9969 208.549 27.6429 208.112 27.6429C207.675 27.6429 207.321 27.9969 207.321 28.4336C207.321 28.8703 207.675 29.2243 208.112 29.2243Z" fill="#161616"/>
<path d="M180.977 32.1943C181.677 32.1943 182.245 31.6266 182.245 30.9263C182.245 30.226 181.677 29.6583 180.977 29.6583C180.277 29.6583 179.709 30.226 179.709 30.9263C179.709 31.6266 180.277 32.1943 180.977 32.1943Z" fill="#161616"/>
<path d="M89.717 30.772C89.8768 30.772 90.0063 30.6425 90.0063 30.4827C90.0063 30.3229 89.8768 30.1934 89.717 30.1934C89.5573 30.1934 89.4277 30.3229 89.4277 30.4827C89.4277 30.6425 89.5573 30.772 89.717 30.772Z" fill="#161616"/>
<path d="M129.272 14.2586C130.369 14.2586 131.259 13.3692 131.259 12.2721C131.259 11.1751 130.369 10.2857 129.272 10.2857C128.175 10.2857 127.286 11.1751 127.286 12.2721C127.286 13.3692 128.175 14.2586 129.272 14.2586Z" fill="#161616"/>
<path d="M106.269 30.8685C106.407 30.8685 106.52 30.7562 106.52 30.6178C106.52 30.4793 106.407 30.3671 106.269 30.3671C106.131 30.3671 106.018 30.4793 106.018 30.6178C106.018 30.7562 106.131 30.8685 106.269 30.8685Z" fill="#161616"/>
<path d="M168.031 27.9997C168.106 27.9997 168.166 27.9393 168.166 27.8648C168.166 27.7902 168.106 27.7297 168.031 27.7297C167.957 27.7297 167.896 27.7902 167.896 27.8648C167.896 27.9393 167.957 27.9997 168.031 27.9997Z" fill="#161616"/>
<circle cx="40.5" cy="3.53572" r="1.44643" fill="#323232" fill-opacity="0.5"/>
<path d="M272.893 101.907C205.258 101.907 -39.0536 101.907 -39.0536 101.907C-14.4643 84.0681 12.5357 67.1931 44.8392 72.4966C54.9642 25.7288 108.482 17.5324 138.375 26.2109C145.125 15.6038 159.965 2.54735 186.107 2.10378C214.554 1.62164 228.054 13.1931 241.071 33.9252C241.071 33.9252 256.958 23.212 272.893 25.2466C272.893 50.8002 272.893 101.907 272.893 101.907Z" fill="#161616" fill-opacity="0.5"/>
<path d="M200.262 56.5796C201.268 58.2063 202.659 59.5041 204.03 60.791C205.801 62.4503 207.706 63.9662 209.922 65.0314C212.259 66.1556 214.78 66.4249 217.309 66.6989C219.636 66.9517 221.97 66.8739 224.297 66.8391C225.541 66.8208 226.782 66.5224 228.021 66.316C228.453 66.2435 228.926 66.1672 229.03 65.4682C228.5 64.5013 227.493 63.7098 226.61 62.8488C222.289 58.6371 217.235 55.8359 211.142 55.1406C207.856 54.766 204.596 54.8524 201.363 55.5976C200.839 55.7176 200.4 55.9127 200.233 56.4732" fill="#323232" fill-opacity="0.5"/>
<path d="M195.482 31.7227C195.482 31.7106 195.481 31.6956 195.48 31.6835C195.448 30.8916 189.195 34.4666 188.644 34.8304C186.448 36.2709 184.382 37.9082 182.475 39.7098C176.701 45.1625 170.129 53.3095 172.896 61.7609C173.191 62.6589 174.01 62.5431 174.698 62.3283C181.081 60.3501 186.154 55.8372 189.477 50.0948C192.513 44.8523 195.493 37.7862 195.482 31.7227Z" fill="#323232" fill-opacity="0.5"/>
<path d="M140.736 99.6425C140.555 99.2817 140.404 98.904 140.189 98.5623C138.999 96.6666 137.459 95.0307 136.143 93.2384C133.09 89.0813 130.176 92.3293 125.357 91.0446C121.705 90.0727 118.219 88.7327 115.012 86.7071C110.901 84.1113 106.23 75.2146 102.917 71.7214C98.9887 67.5763 94.1988 64.9492 88.8364 63.1738C85.5934 62.1008 82.2807 61.3214 78.9608 60.566C77.0988 60.1426 75.203 59.8491 73.3097 59.6013C71.2744 59.3342 69.2247 59.1033 67.1751 59.0046C64.5335 58.8795 61.8752 58.7496 59.2385 58.906C56.4478 59.072 53.7053 59.137 50.9314 58.6486C46.8585 57.9317 43.0454 56.5171 39.3935 54.643C35.4817 52.6342 31.9525 50.012 28.3246 47.5533C24.0616 44.6592 19.8347 41.7001 15.0858 39.6288C10.9094 37.8076 6.50449 36.8597 1.97688 36.5013C-1.63896 36.215 -5.2211 35.8301 -8.74552 34.875H-9.64289L-9.12565 162.19H140.736V99.6425Z" fill="#161616" fill-opacity="0.5"/>
<path fill-rule="evenodd" clip-rule="evenodd" d="M11.9343 23.635C11.9345 23.6346 11.9346 23.6343 10.7645 23.2524C9.59449 22.8704 9.59455 22.8702 9.59459 22.8701L9.59412 22.8716L9.59166 22.879L9.58042 22.9128C9.57013 22.9436 9.55419 22.9909 9.53255 23.054C9.48927 23.1803 9.42318 23.3701 9.33372 23.6185C9.15478 24.1154 8.8824 24.8468 8.51211 25.7741C7.77138 27.6291 6.63965 30.2661 5.08127 33.3775C1.96193 39.6056 -2.85343 47.7078 -9.64291 55.243L-7.81417 56.8908C-0.833625 49.1435 4.09755 40.8384 7.28223 34.4799C8.87586 31.298 10.0355 28.5969 10.7982 26.687C11.1796 25.7319 11.4619 24.9741 11.6497 24.4526C11.7436 24.1918 11.8139 23.9899 11.8612 23.852C11.8849 23.783 11.9027 23.7299 11.9149 23.6935L11.929 23.6512L11.9328 23.6396L11.9343 23.635Z" fill="#323232" fill-opacity="0.5"/>
<path d="M10.4152 27.2981C13.2824 20.9394 15.8339 14.6055 17.7071 7.85236C18.7191 4.2053 19.5035 0.479347 19.7898 -3.30972C19.9949 -6.02811 19.8214 -8.82539 18.8093 -11.3544C17.6642 -14.2148 14.8084 -17.7447 11.3213 -17.1677C10.0546 -16.958 8.93879 -16.1488 8.15438 -15.1322C7.36997 -14.1157 6.88309 -12.8985 6.51794 -11.6655C5.37062 -7.81332 5.30977 -3.75151 5.42472 0.235909C5.6028 6.37595 6.27903 12.5295 7.74867 18.5028C8.14764 20.1279 8.60294 21.7396 9.11461 23.3332L10.4152 27.2981Z" fill="#323232" fill-opacity="0.5"/>
<path d="M45.6753 24.6565C45.9571 24.9045 46.1329 25.2313 46.4575 25.4657C48.8423 27.1856 51.475 28.8941 54.3151 29.7281C57.2972 30.6027 60.4597 30.8642 63.5455 30.4787C65.6936 30.2105 67.8439 29.6154 69.6246 28.3847C70.8215 27.5575 71.8246 26.4507 72.5346 25.1817C72.9043 24.5213 73.1973 23.7955 73.1928 23.0381C73.1861 22.0734 72.6811 21.1627 72.0004 20.4775C69.2257 17.6937 64.7762 17.3737 61.1088 17.9192C58.1019 18.3655 55.1694 19.2648 52.4014 20.5136C51.0152 21.1379 49.6718 21.8525 48.3757 22.6459C48.1661 22.7766 45.6573 24.6407 45.6753 24.6565Z" fill="#323232" fill-opacity="0.5"/>
<path d="M25.9973 31.7074C26.0131 31.7435 26.0312 31.7818 26.0537 31.8179C26.4324 32.4467 28.2086 33.0869 28.842 33.2875C31.1997 34.0359 32.915 34.2522 35.3494 34.703C37.1369 35.0344 38.9987 35.1989 40.7591 34.7459C42.0778 34.4055 43.4415 33.5354 43.6331 32.1853C43.7525 31.3423 43.3671 30.4857 42.7743 29.8771C42.1792 29.2685 41.3971 28.8786 40.6014 28.581C36.4269 27.0257 31.6595 27.8192 27.6518 29.7689C27.0184 30.0777 25.6187 30.8351 25.9973 31.7074Z" fill="#323232" fill-opacity="0.5"/>
<path d="M83.1062 -2.08544C80.0677 -2.18011 77.0067 -1.82172 74.0449 -1.1162C71.074 -0.406172 68.1934 0.648724 65.4209 1.92452C64.9565 2.13865 58.1606 5.74514 58.7759 6.18468C64.3592 10.1676 70.9974 12.1174 77.7505 13.0595C82.7433 13.7561 88.0493 13.862 92.5867 11.6598C94.3472 10.8055 96.0354 9.49815 96.6395 7.6363C97.318 5.54453 96.4254 3.17101 94.8588 1.62699C93.2923 0.0829575 91.1599 -0.75555 89.0253 -1.28525C87.0868 -1.76762 85.101 -2.02458 83.1062 -2.08544Z" fill="#323232" fill-opacity="0.5"/>
<path d="M48.8829 -5.59297C47.42 -5.75751 45.903 -5.50506 44.5032 -5.01368C39.3167 -3.19466 34.9956 0.758959 31.7137 5.05519C28.3033 9.52047 25.4948 14.6146 23.2701 19.7651C22.7539 20.962 22.0686 22.1026 21.7959 23.3919C21.1625 26.3853 28.5558 23.8179 29.8293 23.4122C36.7876 21.201 43.117 16.8259 48.0038 11.4387C50.3953 8.80368 52.5119 5.8396 53.6344 2.46302C54.7141 -0.789577 53.9072 -4.06697 50.3863 -5.26162C49.8949 -5.42842 49.3923 -5.53662 48.8829 -5.59297Z" fill="#323232" fill-opacity="0.5"/>
<path d="M187.003 28.9128C189.794 18.5352 194.479 14.2896 194.479 14.2896C194.479 14.2896 186.064 12.9172 166.686 33.2517C156.729 33.7366 137.494 40.7841 123.485 50.0166C127.218 30.0178 178.751 -47.85 256.003 9.76585C243.679 3.85413 203.115 16.156 187.003 28.9128Z" fill="#323232" fill-opacity="0.5"/>
</g>
</g>
<defs>
<clipPath id="clip0">
<rect width="216" height="50" fill="white"/>
</clipPath>
<clipPath id="clip1">
<rect width="216" height="121.5" fill="white" transform="translate(0 -36)"/>
</clipPath>
</defs>
</svg>
