<svg width="216" height="50" viewBox="0 0 216 50" fill="none" xmlns="http://www.w3.org/2000/svg">
<g clip-path="url(#clip0)">
<rect width="216" height="50" fill="white"/>
<g clip-path="url(#clip1)">
<rect width="216" height="121.5" transform="matrix(1 0 0 -1 0 85.75)" fill="white"/>
<path d="M85.2621 46.7398C85.3473 46.7398 85.4164 46.6707 85.4164 46.5855C85.4164 46.5003 85.3473 46.4312 85.2621 46.4312C85.1769 46.4312 85.1078 46.5003 85.1078 46.5855C85.1078 46.6707 85.1769 46.7398 85.2621 46.7398Z" fill="white"/>
<path d="M190.466 41.9715C190.849 41.9715 191.16 41.6606 191.16 41.2772C191.16 40.8937 190.849 40.5829 190.466 40.5829C190.082 40.5829 189.771 40.8937 189.771 41.2772C189.771 41.6606 190.082 41.9715 190.466 41.9715Z" fill="white"/>
<path d="M208.112 29.4743C208.549 29.4743 208.903 29.1203 208.903 28.6836C208.903 28.2469 208.549 27.8929 208.112 27.8929C207.675 27.8929 207.321 28.2469 207.321 28.6836C207.321 29.1203 207.675 29.4743 208.112 29.4743Z" fill="white"/>
<path d="M180.977 32.4443C181.677 32.4443 182.245 31.8766 182.245 31.1763C182.245 30.476 181.677 29.9083 180.977 29.9083C180.277 29.9083 179.709 30.476 179.709 31.1763C179.709 31.8766 180.277 32.4443 180.977 32.4443Z" fill="white"/>
<path d="M89.717 31.022C89.8768 31.022 90.0063 30.8925 90.0063 30.7327C90.0063 30.5729 89.8768 30.4434 89.717 30.4434C89.5573 30.4434 89.4277 30.5729 89.4277 30.7327C89.4277 30.8925 89.5573 31.022 89.717 31.022Z" fill="white"/>
<path d="M129.272 14.5086C130.369 14.5086 131.259 13.6192 131.259 12.5221C131.259 11.4251 130.369 10.5357 129.272 10.5357C128.175 10.5357 127.286 11.4251 127.286 12.5221C127.286 13.6192 128.175 14.5086 129.272 14.5086Z" fill="white"/>
<path d="M106.269 31.1185C106.407 31.1185 106.52 31.0062 106.52 30.8678C106.52 30.7293 106.407 30.6171 106.269 30.6171C106.131 30.6171 106.018 30.7293 106.018 30.8678C106.018 31.0062 106.131 31.1185 106.269 31.1185Z" fill="white"/>
<path d="M168.031 28.2497C168.106 28.2497 168.166 28.1893 168.166 28.1148C168.166 28.0402 168.106 27.9797 168.031 27.9797C167.957 27.9797 167.896 28.0402 167.896 28.1148C167.896 28.1893 167.957 28.2497 168.031 28.2497Z" fill="white"/>
<circle cx="40.5" cy="3.78572" r="1.44643" fill="#F5F5F5"/>
<path d="M272.893 102.157C205.258 102.157 -39.0536 102.157 -39.0536 102.157C-14.4643 84.3181 12.5357 67.4431 44.8392 72.7466C54.9642 25.9788 108.482 17.7824 138.375 26.4609C145.125 15.8538 159.965 2.79735 186.107 2.35378C214.554 1.87164 228.054 13.4431 241.071 34.1752C241.071 34.1752 256.958 23.462 272.893 25.4966C272.893 51.0502 272.893 102.157 272.893 102.157Z" fill="#F5F5F5" fill-opacity="0.5"/>
<path d="M200.262 56.8296C201.268 58.4563 202.659 59.7541 204.03 61.041C205.801 62.7003 207.706 64.2162 209.922 65.2814C212.259 66.4056 214.78 66.6749 217.309 66.9489C219.636 67.2017 221.97 67.1239 224.297 67.0891C225.541 67.0708 226.782 66.7724 228.021 66.566C228.453 66.4935 228.926 66.4172 229.03 65.7182C228.5 64.7513 227.493 63.9598 226.61 63.0988C222.289 58.8871 217.235 56.0859 211.142 55.3906C207.856 55.016 204.596 55.1024 201.363 55.8476C200.839 55.9676 200.4 56.1627 200.233 56.7232" fill="#F5F5F5"/>
<path d="M195.482 31.9727C195.482 31.9606 195.481 31.9456 195.48 31.9335C195.448 31.1416 189.195 34.7166 188.644 35.0804C186.448 36.5209 184.382 38.1582 182.475 39.9598C176.701 45.4125 170.129 53.5595 172.896 62.0109C173.191 62.9089 174.01 62.7931 174.698 62.5783C181.081 60.6001 186.154 56.0872 189.477 50.3448C192.513 45.1023 195.493 38.0362 195.482 31.9727Z" fill="#F5F5F5"/>
<path d="M140.736 99.8925C140.555 99.5317 140.404 99.154 140.189 98.8123C138.999 96.9166 137.459 95.2807 136.143 93.4884C133.09 89.3313 130.176 92.5793 125.357 91.2946C121.705 90.3227 118.219 88.9827 115.012 86.9571C110.901 84.3613 106.23 75.4646 102.917 71.9714C98.9887 67.8263 94.1988 65.1992 88.8364 63.4238C85.5934 62.3508 82.2807 61.5714 78.9608 60.816C77.0988 60.3926 75.203 60.0991 73.3097 59.8513C71.2744 59.5842 69.2247 59.3533 67.1751 59.2546C64.5335 59.1295 61.8752 58.9996 59.2385 59.156C56.4478 59.322 53.7053 59.387 50.9314 58.8986C46.8585 58.1817 43.0454 56.7671 39.3935 54.893C35.4817 52.8842 31.9525 50.262 28.3246 47.8033C24.0616 44.9092 19.8347 41.9501 15.0858 39.8788C10.9094 38.0576 6.50449 37.1097 1.97688 36.7513C-1.63896 36.465 -5.2211 36.0801 -8.74552 35.125H-9.64289L-9.12565 162.44H140.736V99.8925Z" fill="#F5F5F5" fill-opacity="0.5"/>
<path fill-rule="evenodd" clip-rule="evenodd" d="M11.9343 23.885C11.9345 23.8846 11.9346 23.8843 10.7645 23.5024C9.59449 23.1204 9.59455 23.1202 9.59459 23.1201L9.59412 23.1216L9.59166 23.129L9.58042 23.1628C9.57013 23.1936 9.55419 23.2409 9.53255 23.304C9.48927 23.4303 9.42318 23.6201 9.33372 23.8685C9.15478 24.3654 8.8824 25.0968 8.51211 26.0241C7.77138 27.8791 6.63965 30.5161 5.08127 33.6275C1.96193 39.8556 -2.85343 47.9578 -9.64291 55.493L-7.81417 57.1408C-0.833625 49.3935 4.09755 41.0884 7.28223 34.7299C8.87586 31.548 10.0355 28.8469 10.7982 26.937C11.1796 25.9819 11.4619 25.2241 11.6497 24.7026C11.7436 24.4418 11.8139 24.2399 11.8612 24.102C11.8849 24.033 11.9027 23.9799 11.9149 23.9435L11.929 23.9012L11.9328 23.8896L11.9343 23.885Z" fill="#F5F5F5"/>
<path d="M10.4152 27.5481C13.2824 21.1894 15.8339 14.8555 17.7071 8.10236C18.7191 4.4553 19.5035 0.729347 19.7898 -3.05972C19.9949 -5.77811 19.8214 -8.57539 18.8093 -11.1044C17.6642 -13.9648 14.8084 -17.4947 11.3213 -16.9177C10.0546 -16.708 8.93879 -15.8988 8.15438 -14.8822C7.36997 -13.8657 6.88309 -12.6485 6.51794 -11.4155C5.37062 -7.56332 5.30977 -3.50151 5.42472 0.485909C5.6028 6.62595 6.27903 12.7795 7.74867 18.7528C8.14764 20.3779 8.60294 21.9896 9.11461 23.5832L10.4152 27.5481Z" fill="#F5F5F5"/>
<path d="M45.6753 24.9065C45.9571 25.1545 46.1329 25.4813 46.4575 25.7157C48.8423 27.4356 51.475 29.1441 54.3151 29.9781C57.2972 30.8527 60.4597 31.1142 63.5455 30.7287C65.6936 30.4605 67.8439 29.8654 69.6246 28.6347C70.8215 27.8075 71.8246 26.7007 72.5346 25.4317C72.9043 24.7713 73.1973 24.0455 73.1928 23.2881C73.1861 22.3234 72.6811 21.4127 72.0004 20.7275C69.2257 17.9437 64.7762 17.6237 61.1088 18.1692C58.1019 18.6155 55.1694 19.5148 52.4014 20.7636C51.0152 21.3879 49.6718 22.1025 48.3757 22.8959C48.1661 23.0266 45.6573 24.8907 45.6753 24.9065Z" fill="#F5F5F5"/>
<path d="M25.9973 31.9574C26.0131 31.9935 26.0312 32.0318 26.0537 32.0679C26.4324 32.6967 28.2086 33.3369 28.842 33.5375C31.1997 34.2859 32.915 34.5022 35.3494 34.953C37.1369 35.2844 38.9987 35.4489 40.7591 34.9959C42.0778 34.6555 43.4415 33.7854 43.6331 32.4353C43.7525 31.5923 43.3671 30.7357 42.7743 30.1271C42.1792 29.5185 41.3971 29.1286 40.6014 28.831C36.4269 27.2757 31.6595 28.0692 27.6518 30.0189C27.0184 30.3277 25.6187 31.0851 25.9973 31.9574Z" fill="#F5F5F5"/>
<path d="M83.1062 -1.83544C80.0677 -1.93011 77.0067 -1.57172 74.0449 -0.866199C71.074 -0.156172 68.1934 0.898724 65.4209 2.17452C64.9565 2.38865 58.1606 5.99514 58.7759 6.43468C64.3592 10.4176 70.9974 12.3674 77.7505 13.3095C82.7433 14.0061 88.0493 14.112 92.5867 11.9098C94.3472 11.0555 96.0354 9.74815 96.6395 7.8863C97.318 5.79453 96.4254 3.42101 94.8588 1.87699C93.2923 0.332958 91.1599 -0.50555 89.0253 -1.03525C87.0868 -1.51762 85.101 -1.77458 83.1062 -1.83544Z" fill="#F5F5F5"/>
<path d="M48.8829 -5.34297C47.42 -5.50751 45.903 -5.25506 44.5032 -4.76368C39.3167 -2.94466 34.9956 1.00896 31.7137 5.30519C28.3033 9.77047 25.4948 14.8646 23.2701 20.0151C22.7539 21.212 22.0686 22.3526 21.7959 23.6419C21.1625 26.6353 28.5558 24.0679 29.8293 23.6622C36.7876 21.451 43.117 17.0759 48.0038 11.6887C50.3953 9.05368 52.5119 6.0896 53.6344 2.71302C54.7141 -0.539577 53.9072 -3.81697 50.3863 -5.01162C49.8949 -5.17842 49.3923 -5.28662 48.8829 -5.34297Z" fill="#F5F5F5"/>
<path d="M187.003 29.1628C189.794 18.7852 194.479 14.5396 194.479 14.5396C194.479 14.5396 186.064 13.1672 166.686 33.5017C156.729 33.9866 137.494 41.0341 123.485 50.2666C127.218 30.2678 178.751 -47.6 256.003 10.0158C243.679 4.10413 203.115 16.406 187.003 29.1628Z" fill="#F5F5F5"/>
</g>
</g>
<defs>
<clipPath id="clip0">
<rect width="216" height="50" fill="white"/>
</clipPath>
<clipPath id="clip1">
<rect width="216" height="121.5" fill="white" transform="translate(0 -35.75)"/>
</clipPath>
</defs>
</svg>
