<svg width="32" height="32" viewBox="0 0 32 32" fill="none" xmlns="http://www.w3.org/2000/svg">
<mask id="mask0_1079_84015" style="mask-type:alpha" maskUnits="userSpaceOnUse" x="0" y="0" width="32" height="32">
<rect width="32" height="32" fill="#C4C4C4"/>
</mask>
<g mask="url(#mask0_1079_84015)">
<rect x="4" width="24" height="32" rx="4" fill="#F5F5F5"/>
<rect x="7.66663" y="6.66602" width="16.6667" height="1.33333" rx="0.666667" fill="#E6E6E6"/>
<rect x="7.66663" y="10.666" width="16.6667" height="1.33333" rx="0.666667" fill="#E6E6E6"/>
<rect x="7.66663" y="14.666" width="16.6667" height="1.33333" rx="0.666667" fill="#E6E6E6"/>
<rect x="7.66663" y="18.666" width="16.6667" height="1.33333" rx="0.666667" fill="#E6E6E6"/>
<rect x="7.66663" y="22.666" width="16.6667" height="1.33333" rx="0.666667" fill="#E6E6E6"/>
<path d="M15.3334 26.6004L25.5652 16.3685C26.0566 15.8772 26.8532 15.8772 27.3446 16.3685L31.6315 20.6554C32.1229 21.1468 32.1229 21.9434 31.6315 22.4348L21.3997 32.6667L15.3334 26.6004Z" fill="#D6801C"/>
<path d="M15.3334 26.5898L15.3334 31.4059C15.3334 32.102 15.8976 32.6662 16.5937 32.6662H21.4098L15.3334 26.5898Z" fill="#F5D8AF"/>
<path d="M18.1112 32.6665L15.3334 29.8887V31.4061C15.3334 32.1022 15.8976 32.6665 16.5937 32.6665H18.1112Z" fill="#D6801C"/>
<path d="M29.4776 24.5878L28.4359 25.6294L22.3696 19.5632L23.4113 18.5215L29.4776 24.5878Z" fill="#F5D8AF"/>
<path d="M15.3334 26.5774L22.4381 19.4727L28.5278 25.5624L21.4231 32.6671L15.3334 26.5774Z" fill="#F3B761"/>
<path d="M1.66667 6.33333C2.58714 6.33333 3.33333 5.58714 3.33333 4.66667C3.33333 3.74619 2.58714 3 1.66667 3C0.746193 3 0 3.74619 0 4.66667C0 5.58714 0.746193 6.33333 1.66667 6.33333Z" fill="#F3B761"/>
<path d="M31 27C31.5523 27 32 26.5523 32 26C32 25.4477 31.5523 25 31 25C30.4477 25 30 25.4477 30 26C30 26.5523 30.4477 27 31 27Z" fill="#E99690"/>
<path d="M4 11C4.55227 11 5 10.5523 5 10C5 9.4477 4.55227 9 4 9C3.4477 9 3 9.4477 3 10C3 10.5523 3.4477 11 4 11Z" fill="#E99690"/>
<path d="M29.6667 30.1673L27.8333 28.334L26 30.1673L27.8333 32.0007L29.6667 30.1673Z" fill="#85C3D8"/>
<path d="M9.33337 1.5L7.83336 0L6.33337 1.5L7.83336 3L9.33337 1.5Z" fill="#85C3D8"/>
</g>
</svg>
