<svg width="32" height="32" viewBox="0 0 32 32" fill="none" xmlns="http://www.w3.org/2000/svg">
<mask id="mask0_1102_39773" style="mask-type:alpha" maskUnits="userSpaceOnUse" x="0" y="0" width="32" height="32">
<rect width="32" height="32" fill="#C4C4C4"/>
</mask>
<g mask="url(#mask0_1102_39773)">
<path d="M24.9997 19.6995L19.1149 21.6667L9 11.5073L11.7188 6.36023C15.9579 5.79432 25.0623 14.3009 24.9997 19.6995Z" fill="#707070"/>
<path d="M25.0007 19.8288C19.0698 23.412 10.0253 28.1955 7.20793 29.9334C4.39052 31.6712 -0.436755 27.3714 1.50133 24.2361C3.43942 21.1008 8.67047 11.5069 11.6853 6.53522C11.2008 12.2593 18.9441 20.2409 25.0007 19.8288Z" fill="#B4B4B4"/>
<path d="M8.98093 11L8.66797 11.5731C9.62475 20.5545 16.9481 24.3333 16.9481 24.3333L20.668 22.229C20.668 22.229 12.969 19.5516 8.98093 11Z" fill="#E6E6E6"/>
<path d="M5.66797 16.8912C5.66797 23.7686 11.7125 27.3333 11.7125 27.3333L14.668 25.614C14.668 25.614 7.67984 20.969 6.16648 16L5.66797 16.8912Z" fill="#E6E6E6"/>
<path d="M3 21.5585C3.25193 26.7004 7.96658 29.3333 7.96658 29.3333L10 28.2074C10 28.2074 4.84447 25.8848 3.32391 21L3 21.5585Z" fill="#E6E6E6"/>
<path d="M15.5162 10.9342C15.3096 11.2878 14.8559 11.4076 14.5018 11.202C14.147 10.9961 14.0263 10.5415 14.2322 10.1867L15.4184 8.14224C15.677 7.69658 15.7536 7.16831 15.6323 6.66755L15.0465 4.24974C14.8451 3.41853 15.1946 2.55125 15.916 2.09184L18.5748 0.398644C18.9206 0.178428 19.3794 0.280039 19.5999 0.625665C19.8204 0.971253 19.7192 1.43011 19.3738 1.65091L17.615 2.77531C16.8946 3.23579 16.5467 4.10321 16.749 4.93383L17.2266 6.89395C17.3493 7.39737 17.2718 7.92874 17.0104 8.37615L15.5162 10.9342Z" fill="#E6E6E6"/>
<path d="M24.273 4.33024L17.8979 11.806C17.5854 12.1725 17.6295 12.7224 17.9964 13.0344C18.3634 13.3463 18.9142 13.3021 19.2267 12.9357L25.6018 5.45991C25.9143 5.09344 25.8702 4.54348 25.5033 4.23153C25.1363 3.91958 24.5855 3.96378 24.273 4.33024Z" fill="#F5F5F5"/>
<path d="M21.8683 16.6169C21.4782 16.7528 21.0518 16.5471 20.9154 16.1572C20.7788 15.7667 20.9849 15.3394 21.3755 15.2032L23.7062 14.3907C24.3636 14.1616 24.8545 13.6071 25.0023 12.9268L25.2024 12.0058C25.4212 10.9988 26.4604 10.3998 27.4414 10.7154C28.3923 11.0212 29.4054 10.4677 29.6617 9.50217L29.9568 8.39058C30.063 7.99046 30.4729 7.75173 30.8734 7.85682C31.2753 7.96232 31.5152 8.37421 31.4086 8.7759L30.7011 11.4422C30.4497 12.3895 29.4558 12.9328 28.5227 12.6328C27.5602 12.3235 26.5406 12.9112 26.326 13.8992L26.2797 14.1125C26.1385 14.7622 25.6697 15.2917 25.042 15.5106L21.8683 16.6169Z" fill="#B4B4B4"/>
<path d="M7.83203 5.33337C8.66046 5.33337 9.33203 4.6618 9.33203 3.83337C9.33203 3.00495 8.66046 2.33337 7.83203 2.33337C7.0036 2.33337 6.33203 3.00495 6.33203 3.83337C6.33203 4.6618 7.0036 5.33337 7.83203 5.33337Z" fill="#F5F5F5"/>
<path d="M28.668 22.3334C29.2203 22.3334 29.668 21.8857 29.668 21.3334C29.668 20.7811 29.2203 20.3334 28.668 20.3334C28.1157 20.3334 27.668 20.7811 27.668 21.3334C27.668 21.8857 28.1157 22.3334 28.668 22.3334Z" fill="#E6E6E6"/>
<path d="M1 19.6667C1.55228 19.6667 2 19.219 2 18.6667C2 18.1144 1.55228 17.6667 1 17.6667C0.447715 17.6667 0 18.1144 0 18.6667C0 19.219 0.447715 19.6667 1 19.6667Z" fill="#E6E6E6"/>
<path d="M27.343 28.9718L24.6836 26.3168L22.0242 28.9718L24.6836 31.6269L27.343 28.9718Z" fill="#F5F5F5"/>
<path d="M5.08385 10.5429L3.64453 9.10583L2.20521 10.5429L3.64453 11.98L5.08385 10.5429Z" fill="#F5F5F5"/>
<path d="M15.9471 30.6124L14.5898 29.2574L13.2326 30.6124L14.5898 31.9674L15.9471 30.6124Z" fill="#E6E6E6"/>
<path d="M32.0019 4.57326L30.5625 3.13629L29.1231 4.57326L30.5625 6.01023L32.0019 4.57326Z" fill="#E6E6E6"/>
<path d="M26.5908 0.718362L25.8711 -0.00012207L25.1514 0.718362L25.8711 1.43685L26.5908 0.718362Z" fill="#F5F5F5"/>
</g>
</svg>
