<svg width="16" height="16" viewBox="0 0 16 16" fill="none" xmlns="http://www.w3.org/2000/svg">
<mask id="mask0_1144_80355" style="mask-type:alpha" maskUnits="userSpaceOnUse" x="0" y="0" width="16" height="16">
<rect width="16" height="16" fill="#C4C4C4"/>
</mask>
<g mask="url(#mask0_1144_80355)">
<path d="M12.4998 9.84973L9.55747 10.8333L4.5 5.75363L5.85939 3.18009C7.97897 2.89714 12.5311 7.15043 12.4998 9.84973Z" fill="#D6801C"/>
<path d="M12.4998 9.91439C9.53434 11.706 5.01213 14.0977 3.60342 14.9667C2.19472 15.8356 -0.218919 13.6857 0.750125 12.118C1.71917 10.5504 4.33469 5.75342 5.8421 3.26759C5.59984 6.12965 9.47153 10.1204 12.4998 9.91439Z" fill="#F3B761"/>
<path d="M4.48982 5.5L4.33334 5.78655C4.81173 10.2773 8.47342 12.1667 8.47342 12.1667L10.3333 11.1145C10.3333 11.1145 6.48386 9.7758 4.48982 5.5Z" fill="#85C3D8"/>
<path d="M2.83334 8.44559C2.83334 11.8843 5.85559 13.6667 5.85559 13.6667L7.33334 12.807C7.33334 12.807 3.83927 10.4845 3.08259 8L2.83334 8.44559Z" fill="#85C3D8"/>
<path d="M1.5 10.7793C1.62596 13.3502 3.98329 14.6667 3.98329 14.6667L5 14.1037C5 14.1037 2.42224 12.9424 1.66195 10.5L1.5 10.7793Z" fill="#85C3D8"/>
<path d="M7.7586 5.46711C7.65533 5.6439 7.42847 5.70379 7.2514 5.601C7.074 5.49803 7.01364 5.27076 7.11659 5.09334L7.63017 4.20823C7.81052 3.89741 7.86396 3.52896 7.77934 3.17971L7.61688 2.50914C7.4605 1.8637 7.73184 1.19026 8.29201 0.833536L9.2879 0.199322C9.4608 0.0892138 9.69022 0.14002 9.80046 0.312833C9.9107 0.485627 9.8601 0.715057 9.68741 0.825454L8.95406 1.29427C8.50653 1.58037 8.29034 2.11929 8.41607 2.63536L8.55552 3.20769C8.65424 3.6129 8.59186 4.04061 8.3815 4.40073L7.7586 5.46711Z" fill="#85C3D8"/>
<path d="M12.1372 2.1651L8.94959 5.90299C8.79333 6.08622 8.81539 6.3612 8.99886 6.51717C9.18233 6.67315 9.45773 6.65105 9.61399 6.46782L12.8016 2.72994C12.9578 2.54671 12.9357 2.27173 12.7523 2.11575C12.5688 1.95978 12.2934 1.98187 12.1372 2.1651Z" fill="#C0E2DF"/>
<path d="M10.9335 8.30841C10.7385 8.3764 10.5252 8.27353 10.457 8.07857C10.3887 7.88332 10.4918 7.66969 10.6871 7.6016L11.7473 7.23201C12.1413 7.09465 12.4356 6.7623 12.5241 6.35455L12.6005 6.00286C12.7099 5.49938 13.2296 5.1999 13.72 5.35766C14.1955 5.5106 14.7021 5.23382 14.8302 4.75107L14.9777 4.19527C15.0308 3.99521 15.2358 3.87585 15.436 3.92839C15.637 3.98114 15.757 4.18709 15.7037 4.38793L15.3499 5.72107C15.2242 6.19474 14.7273 6.46637 14.2607 6.31641C13.7794 6.16171 13.2697 6.45559 13.1624 6.94958L13.1392 7.05624C13.0686 7.38107 12.8342 7.64585 12.5203 7.75526L10.9335 8.30841Z" fill="#F3B761"/>
<path d="M3.91666 2.66667C4.33088 2.66667 4.66666 2.33088 4.66666 1.91666C4.66666 1.50245 4.33088 1.16666 3.91666 1.16666C3.50245 1.16666 3.16666 1.50245 3.16666 1.91666C3.16666 2.33088 3.50245 2.66667 3.91666 2.66667Z" fill="#C0E2DF"/>
<path d="M14.3333 11.1667C14.6095 11.1667 14.8333 10.9428 14.8333 10.6667C14.8333 10.3905 14.6095 10.1667 14.3333 10.1667C14.0572 10.1667 13.8333 10.3905 13.8333 10.6667C13.8333 10.9428 14.0572 11.1667 14.3333 11.1667Z" fill="#85C3D8"/>
<path d="M0.5 9.83333C0.776142 9.83333 1 9.60947 1 9.33333C1 9.05719 0.776142 8.83333 0.5 8.83333C0.223858 8.83333 0 9.05719 0 9.33333C0 9.60947 0.223858 9.83333 0.5 9.83333Z" fill="#85C3D8"/>
<path d="M13.6713 14.4859L12.3416 13.1584L11.0119 14.4859L12.3416 15.8134L13.6713 14.4859Z" fill="#C0E2DF"/>
<path d="M2.54281 5.27148L1.82315 4.55293L1.10349 5.27148L1.82315 5.99003L2.54281 5.27148Z" fill="#C0E2DF"/>
<path d="M7.97363 15.3062L7.29501 14.6287L6.61639 15.3062L7.29501 15.9837L7.97363 15.3062Z" fill="#85C3D8"/>
<path d="M16 2.28663L15.2803 1.56815L14.5606 2.28663L15.2803 3.00511L16 2.28663Z" fill="#85C3D8"/>
<path d="M13.2954 0.359173L12.9355 -6.86646e-05L12.5756 0.359173L12.9355 0.718415L13.2954 0.359173Z" fill="#C0E2DF"/>
</g>
</svg>
