<svg width="14" height="15" viewBox="0 0 14 15" fill="none" xmlns="http://www.w3.org/2000/svg">
<mask id="mask0" mask-type="alpha" maskUnits="userSpaceOnUse" x="0" y="0" width="14" height="15">
<rect y="0.5" width="14" height="14" fill="#C4C4C4"/>
</mask>
<g mask="url(#mask0)">
<path d="M0 9.40431L8.59475 0.809561C9.0075 0.396813 9.67669 0.396813 10.0894 0.809561L13.6904 4.41056C14.1032 4.82331 14.1032 5.4925 13.6904 5.90525L5.09569 14.5L0 9.40431Z" fill="#D6801C"/>
<path d="M1.51122e-07 9.39587L0 13.4414C1.49141e-07 14.0261 0.47398 14.5 1.05866 14.5H5.10417L1.51122e-07 9.39587Z" fill="#F5D8AF"/>
<path d="M2.33333 14.5L0 12.1666V13.4413C0 14.026 0.47398 14.5 1.05866 14.5H2.33333Z" fill="#D6801C"/>
<path d="M11.8812 7.71447L11.0062 8.58946L5.91052 3.49378L6.78552 2.61877L11.8812 7.71447Z" fill="#F5D8AF"/>
<path d="M0 9.38458L5.96794 3.41663L11.0833 8.53202L5.11538 14.5L0 9.38458Z" fill="#F3B761"/>
<path d="M1.16665 3.41667C1.73044 3.41667 2.18748 2.95962 2.18748 2.39583C2.18748 1.83204 1.73044 1.375 1.16665 1.375C0.602856 1.375 0.145813 1.83204 0.145813 2.39583C0.145813 2.95962 0.602856 3.41667 1.16665 3.41667Z" fill="#85C3D8"/>
<path d="M12.8333 12.4583C13.3971 12.4583 13.8542 12.0013 13.8542 11.4375C13.8542 10.8737 13.3971 10.4166 12.8333 10.4166C12.2695 10.4166 11.8125 10.8737 11.8125 11.4375C11.8125 12.0013 12.2695 12.4583 12.8333 12.4583Z" fill="#E99690"/>
<path d="M2.04169 5.16663C2.2833 5.16663 2.47919 4.97074 2.47919 4.72913C2.47919 4.4875 2.2833 4.29163 2.04169 4.29163C1.80006 4.29163 1.60419 4.4875 1.60419 4.72913C1.60419 4.97074 1.80006 5.16663 2.04169 5.16663Z" fill="#E99690"/>
<path d="M10.7917 13.2604L10.1354 12.6041L9.47919 13.2604L10.1354 13.9166L10.7917 13.2604Z" fill="#85C3D8"/>
<path d="M5.25 1.59375L4.59374 0.9375L3.9375 1.59375L4.59374 2.25L5.25 1.59375Z" fill="#F3B761"/>
</g>
</svg>
