<svg width="12" height="13" viewBox="0 0 12 13" fill="none" xmlns="http://www.w3.org/2000/svg">
<mask id="mask0" mask-type="alpha" maskUnits="userSpaceOnUse" x="0" y="0" width="12" height="13">
<rect y="0.5" width="12" height="12" fill="#C4C4C4"/>
</mask>
<g mask="url(#mask0)">
<path d="M11.7757 6.11947L8.71954 4.98716L7.57832 1.24337C7.53436 1.099 7.40077 1 7.25 1C7.09923 1 6.96564 1.099 6.92168 1.24337L5.7808 4.98716L2.72426 6.11947C2.58929 6.16966 2.5 6.29787 2.5 6.44191C2.5 6.58559 2.58929 6.7145 2.72426 6.76434L5.77908 7.89631L6.92065 11.7542C6.96392 11.9 7.09786 12 7.25 12C7.4018 12 7.53608 11.9 7.57935 11.7539L8.72092 7.89597L11.7761 6.764C11.9104 6.7145 12 6.58594 12 6.44191C12 6.29822 11.9104 6.16966 11.7757 6.11947Z" fill="#F3B761"/>
<path d="M4.449 9.79799L3.67767 9.51266L3.37767 8.41266C3.33833 8.26733 3.20667 8.16666 3.05633 8.16666C2.906 8.16666 2.77433 8.26733 2.73467 8.41233L2.43467 9.51233L1.66367 9.79766C1.53267 9.84599 1.446 9.97099 1.446 10.1103C1.446 10.2497 1.53267 10.3747 1.66367 10.423L2.43067 10.7073L2.733 11.9147C2.77033 12.0627 2.90333 12.1667 3.05633 12.1667C3.20933 12.1667 3.34233 12.0627 3.37967 11.9143L3.682 10.707L4.449 10.4227C4.58 10.3747 4.66667 10.2497 4.66667 10.1103C4.66667 9.97099 4.58 9.84599 4.449 9.79799ZM3.003 2.57699L2.215 2.28533L1.923 1.49699C1.87467 1.36599 1.75 1.27933 1.61033 1.27933C1.471 1.27933 1.34633 1.36599 1.29767 1.49699L1.006 2.28533L0.217667 2.57699C0.0866667 2.62566 0 2.75033 0 2.88966C0 3.02899 0.0866667 3.15399 0.217667 3.20233L1.006 3.49399L1.29767 4.28233C1.34633 4.41333 1.471 4.49999 1.61033 4.49999C1.74967 4.49999 1.87433 4.41333 1.923 4.28233L2.21467 3.49399L3.003 3.20233C3.134 3.15366 3.22067 3.02899 3.22067 2.88966C3.22067 2.75033 3.134 2.62566 3.003 2.57699Z" fill="#F5D8AF"/>
</g>
</svg>
