<svg width="140" height="140" viewBox="0 0 140 140" fill="none" xmlns="http://www.w3.org/2000/svg">
<g clip-path="url(#clip0)">
<rect x="35.2942" y="31.5" width="70" height="70" rx="35" fill="#B1D6BF"/>
<path d="M65.7551 76.4805C66.302 77.0273 67.2317 77.0273 67.7786 76.4805L83.8567 60.4023C84.4036 59.8555 84.4036 58.9258 83.8567 58.3789L81.8879 56.4102C81.3411 55.8633 80.4661 55.8633 79.9192 56.4102L66.7942 69.5352L60.6145 63.4102C60.0676 62.8633 59.1926 62.8633 58.6458 63.4102L56.677 65.3789C56.1301 65.9258 56.1301 66.8555 56.677 67.4023L65.7551 76.4805Z" fill="#45835F"/>
<path d="M88.916 125.097L81.5168 117.647L74.1177 125.097L81.5168 132.547L88.916 125.097Z" fill="#E99690"/>
<path d="M133.792 48.4552L126.223 40.8339L118.653 48.4552L126.223 56.0766L133.792 48.4552Z" fill="#E99690"/>
<path d="M80.9514 15.4252L73.5522 7.97522L66.1531 15.4252L73.5522 22.8752L80.9514 15.4252Z" fill="#F3B761"/>
<path d="M119.004 140C128.322 140 128.342 126 119.004 126C109.665 126 109.665 140 119.004 140Z" fill="#F5D8AF"/>
<path d="M119.004 14C128.322 14 128.342 0 119.004 0C109.665 0 109.665 14 119.004 14Z" fill="#85C3D8"/>
<path d="M32.3559 115.294C39.403 115.294 39.4186 104.706 32.3559 104.706C25.2932 104.706 25.2932 115.294 32.3559 115.294Z" fill="#F3B761"/>
<path d="M11.7373 129.353C16.3962 129.353 16.4065 122.353 11.7373 122.353C7.06804 122.353 7.06804 129.353 11.7373 129.353Z" fill="#85C3D8"/>
<path d="M12.2519 19.25C16.9108 19.25 16.9212 12.25 12.2519 12.25C7.58269 12.25 7.58269 19.25 12.2519 19.25Z" fill="#F5D8AF"/>
<path d="M136.502 108.5C141.161 108.5 141.171 101.5 136.502 101.5C131.833 101.5 131.833 108.5 136.502 108.5Z" fill="#F3B761"/>
<path d="M7.03288 79.9412C15.6068 79.9412 15.6259 67.0588 7.03288 67.0588C-1.56011 67.0588 -1.56011 79.9412 7.03288 79.9412Z" fill="#85C3D8"/>
<path d="M22.4105 37.9352C22.6579 38.3636 23.2324 38.5176 23.6609 38.2702L36.258 30.9972C36.6865 30.7498 36.8405 30.1753 36.5931 29.7469L35.7025 28.2043C35.4551 27.7759 34.9144 27.631 34.486 27.8784L24.2025 33.8155L21.3981 29.0075C21.1507 28.579 20.61 28.4342 20.1815 28.6815L18.639 29.5721C18.2106 29.8195 18.0566 30.394 18.304 30.8225L22.4105 37.9352Z" fill="#E6E6E6"/>
<path d="M116.722 107.294C117.166 107.413 117.646 107.136 117.765 106.692L121.268 93.6163C121.387 93.1716 121.111 92.6922 120.666 92.5731L119.065 92.1441C118.62 92.0249 118.169 92.2854 118.05 92.7301L115.19 103.404L110.181 102.085C109.736 101.966 109.285 102.227 109.166 102.671L108.737 104.272C108.617 104.717 108.894 105.197 109.339 105.316L116.722 107.294Z" fill="#E6E6E6"/>
</g>
<defs>
<clipPath id="clip0">
<rect width="140" height="140" fill="white"/>
</clipPath>
</defs>
</svg>
