<svg width="56" height="56" viewBox="0 0 56 56" fill="none" xmlns="http://www.w3.org/2000/svg">
<mask id="mask0_2850_94397" style="mask-type:alpha" maskUnits="userSpaceOnUse" x="0" y="0" width="56" height="56">
<rect width="56" height="56" fill="#C4C4C4"/>
</mask>
<g mask="url(#mask0_2850_94397)">
<path d="M54.9535 26.2242L40.6912 20.9401L35.3655 3.46908C35.1604 2.79533 34.5369 2.33333 33.8333 2.33333C33.1298 2.33333 32.5063 2.79533 32.3012 3.46908L26.9771 20.9401L12.7132 26.2242C12.0834 26.4584 11.6667 27.0567 11.6667 27.7289C11.6667 28.3994 12.0834 29.001 12.7132 29.2336L26.9691 34.5161L32.2964 52.5197C32.4983 53.1999 33.1234 53.6667 33.8333 53.6667C34.5417 53.6667 35.1684 53.1999 35.3703 52.5181L40.6976 34.5145L54.9551 29.232C55.5817 29.001 56 28.401 56 27.7289C56 27.0584 55.5817 26.4584 54.9535 26.2242Z" fill="#F3B761"/>
<path d="M20.762 43.3906L17.1624 42.0591L15.7624 36.9258C15.5789 36.2475 14.9644 35.7778 14.2629 35.7778C13.5613 35.7778 12.9469 36.2475 12.7618 36.9242L11.3618 42.0575L7.76378 43.3891C7.15244 43.6146 6.748 44.198 6.748 44.8482C6.748 45.4984 7.15244 46.0817 7.76378 46.3073L11.3431 47.6342L12.754 53.2684C12.9282 53.9591 13.5489 54.4444 14.2629 54.4444C14.9769 54.4444 15.5976 53.9591 15.7718 53.2669L17.1827 47.6326L20.762 46.3057C21.3733 46.0817 21.7778 45.4984 21.7778 44.8482C21.7778 44.198 21.3733 43.6146 20.762 43.3906ZM14.014 9.69264L10.3367 8.33153L8.974 4.65264C8.74844 4.04131 8.16667 3.63686 7.51489 3.63686C6.86467 3.63686 6.28289 4.04131 6.05578 4.65264L4.69467 8.33153L1.01578 9.69264C0.404444 9.91975 0 10.5015 0 11.1518C0 11.802 0.404444 12.3853 1.01578 12.6109L4.69467 13.972L6.05578 17.6509C6.28289 18.2622 6.86467 18.6666 7.51489 18.6666C8.16511 18.6666 8.74689 18.2622 8.974 17.6509L10.3351 13.972L14.014 12.6109C14.6253 12.3837 15.0298 11.802 15.0298 11.1518C15.0298 10.5015 14.6253 9.91975 14.014 9.69264Z" fill="#F5D8AF"/>
</g>
</svg>
