<svg width="40" height="40" fill="none" xmlns="http://www.w3.org/2000/svg">
  <mask id="a" style="mask-type:alpha" maskUnits="userSpaceOnUse" x="0" y="0" width="40" height="40">
    <path fill="#C4C4C4" d="M0 0h40v40H0z"/>
  </mask>
  <g mask="url(#a)">
    <path d="m39.253 18.732-10.187-3.774-3.804-12.48a1.146 1.146 0 0 0-2.19 0l-3.802 12.48-10.188 3.774a1.145 1.145 0 0 0 0 2.15l10.182 3.773 3.806 12.86a1.145 1.145 0 0 0 2.195-.002l3.805-12.86 10.184-3.773c.448-.165.747-.593.747-1.073s-.3-.908-.748-1.075Z" fill="#F3B761"/>
    <path d="m14.83 30.993-2.571-.95-1-3.668a1.11 1.11 0 0 0-2.143 0l-1 3.666-2.57.951a1.11 1.11 0 0 0 0 2.085l2.556.947L9.11 38.05a1.111 1.111 0 0 0 2.156-.001l1.007-4.025 2.557-.948a1.108 1.108 0 0 0 0-2.082Zm-4.82-24.07-2.627-.972-.973-2.628a1.11 1.11 0 0 0-2.084 0l-.973 2.628-2.627.972a1.112 1.112 0 0 0 0 2.085l2.627.972.973 2.628a1.112 1.112 0 0 0 2.084 0l.972-2.628 2.628-.972a1.112 1.112 0 0 0 0-2.085Z" fill="#F5D8AF"/>
  </g>
</svg>
