<svg width="12" height="12" fill="none" xmlns="http://www.w3.org/2000/svg">
  <mask id="a" mask-type="alpha" maskUnits="userSpaceOnUse" x="0" y="0" width="12" height="12">
    <path fill="#C4C4C4" d="M0 0h12v12H0z"/>
  </mask>
  <g mask="url(#a)">
    <path d="M11.776 5.62L8.72 4.486 7.578.743a.344.344 0 00-.656 0L5.78 4.487 2.724 5.62a.344.344 0 000 .645L5.78 7.396l1.142 3.858a.344.344 0 00.658 0l1.142-3.858 3.055-1.132a.343.343 0 000-.645z" fill="#F3B761"/>
    <path d="M4.449 9.298l-.771-.285-.3-1.1a.333.333 0 00-.643 0l-.3 1.1-.771.285a.333.333 0 000 .625l.767.284.302 1.208a.333.333 0 00.647 0l.302-1.208.767-.284a.332.332 0 000-.625zM3.003 2.077l-.788-.292-.292-.788a.333.333 0 00-.625 0l-.292.788-.788.292a.334.334 0 000 .625l.788.292.292.788a.334.334 0 00.625 0l.292-.788.788-.292a.334.334 0 000-.625z" fill="#F5D8AF"/>
  </g>
</svg>
