<svg width="24" height="25" viewBox="0 0 24 25" fill="none" xmlns="http://www.w3.org/2000/svg">
<path d="M19.7031 11.9996C18.8105 13.3861 18.4773 14.7363 19.2178 15.2167C19.9584 15.6971 21.0721 14.8009 21.9647 13.4144C22.8572 12.028 23.5676 10.4694 22.827 9.98895C22.0874 9.50952 20.5956 10.6142 19.7031 11.9996Z" fill="#7D7D7D"/>
<path d="M20.5664 13.2129C19.6738 14.5994 19.3406 15.9496 20.0811 16.43C20.8217 16.9104 21.9354 16.0142 22.828 14.6278C23.7205 13.2413 24.4308 11.6827 23.6903 11.2023C22.9498 10.7219 21.4579 11.8265 20.5664 13.2129Z" fill="#7D7D7D"/>
<path d="M10.3392 13.0525C9.88414 13.7364 8.49561 15.433 8.22765 16.8674C8.02985 17.9251 8.4352 18.9221 8.81229 18.9221C9.06369 18.9221 8.81229 18.1394 9.47294 17.5689C9.43981 18.3116 9.46514 20.2264 10.4688 21.466C11.7355 23.0315 12.6125 23.2272 12.9048 23.1294C13.1971 23.0315 13.5869 22.2488 13.5869 22.2488L13.58 22.1998C14.1072 22.3584 14.6655 22.4445 15.2433 22.4445C15.8582 22.4445 16.4506 22.3476 17.007 22.1695C17.0713 22.2908 17.4786 23.0393 17.7476 23.1294C18.0399 23.2272 18.9168 23.0315 20.1836 21.466C20.7107 20.8144 21.7718 18.9221 21.7718 18.9221C21.6042 18.698 21.4055 18.0591 21.2661 17.5523C21.6919 18.1511 22.148 18.7039 22.7462 18.8243C23.2334 18.9221 23.6914 18.8331 23.6232 17.9437C23.5297 16.7285 21.462 14.0828 20.0179 12.8558C18.7512 11.7796 20.0179 11.8774 19.9205 8.55074C19.8474 6.06651 17.6219 3.46291 15.1459 3.46291C12.6699 3.46291 8.00159 7.64667 9.98158 9.1378C10.3713 9.43133 10.7523 9.72682 10.8585 10.3119C11.0534 11.3872 10.7942 12.3686 10.3392 13.0525Z" fill="#CDCDCD"/>
<path d="M17.4855 10.7023C17.2234 12.4155 17.7778 18.1383 13.0032 17.9426C11.4442 17.8791 10.1775 16.6726 10.1775 15.1052C10.1775 13.5378 11.7151 12.9286 11.0544 10.6044C10.7602 9.56925 9.30927 8.90783 9.69026 8.74541C10.7095 8.31099 12.8266 2.92762 14.7861 3.28572C15.858 3.48141 18.684 4.51175 19.0445 6.59287C19.4343 8.84326 17.6804 9.43031 17.4855 10.7023Z" fill="white"/>
<path d="M19.2387 7.13097C19.2387 8.88725 18.162 10.1152 16.4129 10.1152C14.6639 10.1152 13.9769 8.45185 11.9307 7.76695C11.9307 6.01067 13.0415 2.72608 14.7564 3.07049C16.9286 3.5 19.2387 5.02735 19.2387 7.13097Z" fill="#EBEBEB"/>
<path d="M15.2437 7.66903C15.8357 7.66903 16.3156 7.18716 16.3156 6.59275C16.3156 5.99834 15.8357 5.51648 15.2437 5.51648C14.6518 5.51648 14.1719 5.99834 14.1719 6.59275C14.1719 7.18716 14.6518 7.66903 15.2437 7.66903Z" fill="#7D7D7D"/>
<path d="M14.7827 6.786C14.9981 6.786 15.1727 6.61114 15.1727 6.39545C15.1727 6.17975 14.9981 6.0049 14.7827 6.0049C14.5672 6.0049 14.3926 6.17975 14.3926 6.39545C14.3926 6.61114 14.5672 6.786 14.7827 6.786Z" fill="white"/>
<path d="M11.9306 7.7669C11.9306 8.11816 11.1657 9.03886 9.98179 9.03886C4.9149 7.082 1.5045 8.06043 1.40706 7.86475C1.01243 7.07222 5.97213 6.59279 7.15602 6.59279C9.20226 6.59279 11.9306 7.41565 11.9306 7.7669Z" fill="#7D7D7D"/>
<path d="M4.54673 2.3973C2.2296 3.19668 -0.19095 5.32745 0.0430598 6.5C0.234042 7.45691 7.77784 5.33357 11.9307 7.76692C10.9758 7.44111 7.68917 6.88634 5.98689 6.88634C4.803 6.88634 1.01257 7.07224 1.40721 7.86477C1.50465 8.06045 4.91505 7.08202 9.98194 9.03888C10.6552 9.03888 11.4435 8.94104 11.9307 7.96261C12.3887 7.04191 12.6128 6.00575 14.7565 3.07046C10.9563 1.70066 7.5966 1.34647 4.54673 2.3973Z" fill="#CDCDCD"/>
<path d="M4.33016 6.5928C2.38136 6.78848 0 7.25632 0 6.5C0 5.5491 0.627435 3.65751 4.9148 2.2877C3.64808 3.55966 2.4788 5.02731 4.33016 6.5928Z" fill="#7D7D7D"/>
</svg>
