<svg width="120" height="120" viewBox="0 0 120 120" fill="none" xmlns="http://www.w3.org/2000/svg">
<path d="M30.0416 61.9298C31.4559 69.7298 30.4701 76.3298 26.2701 77.1012C22.0701 77.8727 18.7702 71.8298 17.3559 64.0298C15.9416 56.2298 15.6416 46.8013 19.8416 46.0727C24.0416 45.2584 28.6273 54.1298 30.0416 61.9298Z" fill="#163B4B"/>
<path d="M25.2852 66.3005C29.2709 72.4719 30.7709 78.5148 27.4709 80.6576C24.1709 82.8005 19.1567 78.8148 15.171 72.6005C11.1852 66.4291 8.01381 59.4434 11.3138 57.3005C14.6138 55.2005 21.2995 60.1291 25.2852 66.3005Z" fill="#1F576F"/>
<path d="M67.3698 61.1581C70.0269 63.8581 72.4698 68.9152 73.8841 67.3295C79.6269 60.8152 86.7412 62.5295 86.7412 64.8866C86.7412 65.9581 85.9269 67.8866 82.5412 69.3009C78.4269 70.9724 80.7412 83.7866 72.5126 86.8295C65.0983 89.4866 62.4841 72.4724 62.0984 69.5581C61.5412 65.4009 63.2555 57.0009 67.3698 61.1581Z" fill="#296F8E"/>
<path fill-rule="evenodd" clip-rule="evenodd" d="M73.4141 80.915C73.4141 96.6552 60.6542 109.415 44.9141 109.415C31.8257 109.415 20.798 100.592 17.4538 88.5699C19.0715 88.3923 20.8654 87.8076 21.8569 86.2293C19.9182 86.7414 18.2137 86.5511 16.8965 86.1645C16.5797 84.463 16.4141 82.7084 16.4141 80.915C16.4141 65.1749 29.1739 52.415 44.9141 52.415C60.6542 52.415 73.4141 65.1749 73.4141 80.915Z" fill="#296F8E"/>
<path d="M21.8555 59.3156C18.7698 62.4441 18.5983 72.0441 17.0126 70.1584C10.9698 62.8299 0.855469 64.1584 0.855469 67.9299C0.855469 69.1299 3.04118 70.8013 6.98404 72.4299C11.7412 74.4013 7.41261 82.7156 16.9269 86.2299C25.5412 89.2727 30.2555 72.387 30.7269 68.9584C31.3698 64.2013 30.7698 60.9441 29.5269 60.2584C28.284 59.6156 26.6126 54.4727 21.8555 59.3156Z" fill="#296F8E"/>
<path d="M72.5124 86.7869C72.5124 86.7869 72.7695 96.9012 68.9124 102.816C65.0552 108.73 60.1695 113.016 55.7981 112.801C53.6553 112.03 51.1695 106.587 50.2695 105.216C53.3981 102.644 66.341 90.5584 66.341 87.3012C66.341 84.0441 67.9695 83.1869 69.4267 83.0584C70.8838 82.9298 72.5553 85.0298 72.5124 86.7869Z" fill="#296F8E"/>
<path d="M17.572 88.9723C18.7932 94.283 21.7701 105.057 27.0863 109.415C32.3577 113.744 34.0292 113.229 34.972 112.458C36.9434 110.872 40.4149 104.015 40.4149 104.015C40.4149 104.015 33.2577 102.215 26.7006 96.558C23.929 94.1032 20.8648 90.7543 18.9198 88.5438C18.9198 88.5438 17.4301 88.355 17.572 88.9723Z" fill="#296F8E"/>
<path d="M47.0162 64.2013C59.3242 64.2013 69.3019 54.2237 69.3019 41.9156C69.3019 29.6075 59.3242 19.6299 47.0162 19.6299C34.7081 19.6299 24.7305 29.6075 24.7305 41.9156C24.7305 54.2237 34.7081 64.2013 47.0162 64.2013Z" fill="#296F8E"/>
<path d="M68.4003 48.1293C66.686 53.3579 64.7575 60.2579 70.3718 68.0579C65.6575 64.9722 56.4432 61.1579 45.3432 60.9436C34.6289 60.7722 26.1432 62.4436 21.1289 63.9007C24.9432 59.5722 27.6432 54.1722 25.0718 46.0293C31.8861 49.8436 38.5289 52.9722 45.9432 52.8007C54.9861 52.5436 65.3146 50.8293 68.4003 48.1293Z" fill="#296F8E"/>
<path d="M33.7291 53.2296C35.7434 60.1725 32.1005 68.9582 34.5862 77.5725C42.0005 102.772 69.3005 94.2011 68.9148 74.4011C68.7862 66.8582 62.2291 64.0725 65.5719 54.1296C66.9862 49.1582 69.3005 48.1725 71.2291 43.8439C75.5577 35.4439 68.1434 19.5868 46.9291 20.8725C41.7434 21.8154 29.7862 24.2582 28.0291 34.2439C26.2291 45.0439 31.7148 46.2868 33.7291 53.2296Z" fill="white"/>
<path d="M26.7422 37.0293C26.7422 45.4721 30.6422 50.5721 39.085 50.5721C47.5279 50.5721 50.2707 41.7436 60.1279 38.4436C72.1707 34.5864 64.885 18.2579 45.9422 19.5864C35.785 20.1436 26.7422 26.915 26.7422 37.0293Z" fill="#CAE4ED"/>
<path d="M39.3859 38.4438C42.0431 38.4438 44.1859 36.3009 44.1859 33.6438C44.1859 30.9866 42.0431 28.8438 39.3859 28.8438C36.7288 28.8438 34.5859 30.9866 34.5859 33.6438C34.5859 36.3009 36.7288 38.4438 39.3859 38.4438Z" fill="#161616"/>
<path d="M40.5423 34.5006C41.4851 34.5006 42.2994 33.7292 42.2994 32.7435C42.2994 31.7578 41.528 30.9863 40.5423 30.9863C39.5994 30.9863 38.7852 31.7578 38.7852 32.7435C38.7852 33.7292 39.5566 34.5006 40.5423 34.5006Z" fill="white"/>
<path d="M46.6723 37.5007C47.2723 39.1721 44.4866 41.5721 41.5723 42.3864C38.4866 43.2435 36.0009 44.1435 35.4437 42.4292C34.8866 40.7149 36.1295 37.5435 39.7295 36.3864C44.2295 34.9292 46.0295 35.7435 46.6723 37.5007Z" fill="#CAE4ED"/>
<path d="M100.071 25.0723C92.3571 25.9294 75.3429 34.5009 66.6 36.5152C59.9572 38.058 56.8286 37.9723 56.8286 37.9723L51 37.2437C51 37.2437 57.2572 50.358 61.8857 50.1009C68.1857 49.758 74.6143 44.1437 88.0714 35.0152C97.2429 28.8437 105.043 27.8152 105.857 24.8152C103.071 24.6437 101.443 25.0294 100.071 25.0723Z" fill="#F3B761"/>
<path d="M47.9984 19.5014C47.9984 19.5014 69.5127 7.15856 92.0984 7.28713C109.756 7.4157 121.241 19.33 117.556 22.4586C116.056 24.6443 107.013 23.6157 99.127 25.2871C75.9841 30.1728 54.6413 43.63 54.6413 43.63C54.6413 43.63 47.3127 34.8014 47.9984 19.5014Z" fill="#F3B761"/>
<path d="M118.115 22.8011C122.058 18.8582 110.315 8.44395 96.2578 7.54395C102.301 13.8011 102.944 20.8297 100.072 25.1154C108.901 24.4297 114.729 25.5011 118.115 22.8011Z" fill="#854400"/>
<path d="M103.073 24.9014C91.2873 26.3585 61.1158 41.7014 54.6016 38.4442C63.5587 38.4442 90.8158 24.3014 103.073 24.9014Z" fill="#D6801C"/>
</svg>
