<svg width="60" height="13" viewBox="0 0 60 13" fill="rgb(72, 168, 161)"
  xmlns="http://www.w3.org/2000/svg">
  <path d="M3.43127 8.807C3.43127 9.145 3.53393 9.3855 3.73927 9.5285C3.95743 9.6715 4.25902 9.743 4.64402 9.743C4.83652 9.743 5.03543 9.73 5.24077 9.704C5.4461 9.665 5.62577 9.6195 5.77977 9.5675C5.89527 9.7105 5.99152 9.873 6.06852 10.055C6.15835 10.224 6.20327 10.432 6.20327 10.679C6.20327 11.173 6.01718 11.576 5.64502 11.888C5.28568 12.2 4.64402 12.356 3.72002 12.356C2.59068 12.356 1.71802 12.096 1.10202 11.576C0.498849 11.056 0.197266 10.211 0.197266 9.041V0.695001C0.338432 0.656 0.53735 0.617 0.794017 0.578C1.06352 0.526 1.34585 0.5 1.64102 0.5C2.20568 0.5 2.64202 0.604 2.95002 0.812001C3.27085 1.007 3.43127 1.4295 3.43127 2.0795V3.3275H5.95302C6.03002 3.4705 6.1006 3.6525 6.16477 3.8735C6.24177 4.0815 6.28027 4.3155 6.28027 4.5755C6.28027 5.0305 6.1776 5.362 5.97227 5.57C5.77977 5.765 5.51668 5.8625 5.18302 5.8625H3.43127V8.807Z"/>
  <path d="M17.4362 7.325C17.4362 8.131 17.3143 8.8525 17.0705 9.4895C16.8267 10.1135 16.4802 10.64 16.031 11.069C15.5947 11.498 15.0685 11.823 14.4525 12.044C13.8365 12.265 13.1499 12.3755 12.3927 12.3755C11.6356 12.3755 10.949 12.2585 10.333 12.0245C9.71699 11.7905 9.18441 11.459 8.73524 11.03C8.29891 10.588 7.95883 10.055 7.71499 9.431C7.47116 8.807 7.34924 8.105 7.34924 7.325C7.34924 6.558 7.47116 5.8625 7.71499 5.2385C7.95883 4.6145 8.29891 4.088 8.73524 3.659C9.18441 3.217 9.71699 2.879 10.333 2.645C10.949 2.411 11.6356 2.294 12.3927 2.294C13.1499 2.294 13.8365 2.4175 14.4525 2.6645C15.0685 2.8985 15.5947 3.2365 16.031 3.6785C16.4802 4.1075 16.8267 4.634 17.0705 5.258C17.3143 5.882 17.4362 6.571 17.4362 7.325ZM10.6987 7.325C10.6987 8.118 10.8463 8.729 11.1415 9.158C11.4495 9.574 11.873 9.782 12.412 9.782C12.951 9.782 13.3617 9.5675 13.644 9.1385C13.9392 8.7095 14.0867 8.105 14.0867 7.325C14.0867 6.545 13.9392 5.947 13.644 5.531C13.3488 5.102 12.9317 4.8875 12.3927 4.8875C11.8537 4.8875 11.4367 5.102 11.1415 5.531C10.8463 5.947 10.6987 6.545 10.6987 7.325Z"/>
  <path d="M19.0328 2.723C19.1611 2.684 19.36 2.645 19.6295 2.606C19.9119 2.567 20.2006 2.5475 20.4958 2.5475C20.7781 2.5475 21.0284 2.567 21.2465 2.606C21.4775 2.645 21.67 2.723 21.824 2.84C21.978 2.957 22.0935 3.1195 22.1705 3.3275C22.2604 3.5225 22.3053 3.7825 22.3053 4.1075V8.3C22.3053 8.833 22.4336 9.2165 22.6903 9.4505C22.947 9.6715 23.3191 9.782 23.8068 9.782C24.102 9.782 24.3394 9.756 24.519 9.704C24.7115 9.652 24.8591 9.6 24.9618 9.548V2.723C25.0901 2.684 25.289 2.645 25.5585 2.606C25.8409 2.567 26.1296 2.5475 26.4248 2.5475C26.7071 2.5475 26.9574 2.567 27.1755 2.606C27.4065 2.645 27.599 2.723 27.753 2.84C27.907 2.957 28.0225 3.1195 28.0995 3.3275C28.1894 3.5225 28.2343 3.7825 28.2343 4.1075V10.0355C28.2343 10.6855 27.9648 11.173 27.4258 11.498C26.9766 11.784 26.4376 11.9985 25.8088 12.1415C25.1928 12.2975 24.519 12.3755 23.7875 12.3755C23.0945 12.3755 22.4529 12.2975 21.8625 12.1415C21.285 11.9855 20.7845 11.745 20.361 11.42C19.9375 11.095 19.6103 10.679 19.3793 10.172C19.1483 9.652 19.0328 9.028 19.0328 8.3V2.723Z"/>
  <path d="M35.5114 4.907C35.1906 4.907 34.8826 4.959 34.5874 5.063C34.3051 5.167 34.0548 5.323 33.8366 5.531C33.6313 5.726 33.4645 5.973 33.3361 6.272C33.2078 6.571 33.1436 6.922 33.1436 7.325C33.1436 8.131 33.3682 8.7355 33.8174 9.1385C34.2794 9.5415 34.8376 9.743 35.4921 9.743C35.8771 9.743 36.2108 9.6975 36.4931 9.6065C36.7755 9.5155 37.0257 9.418 37.2439 9.314C37.5006 9.496 37.6931 9.6975 37.8214 9.9185C37.9497 10.1265 38.0139 10.38 38.0139 10.679C38.0139 11.212 37.7636 11.628 37.2631 11.927C36.7626 12.213 36.0696 12.356 35.1841 12.356C34.3756 12.356 33.6441 12.239 32.9896 12.005C32.3351 11.758 31.7705 11.42 31.2956 10.991C30.8336 10.549 30.4743 10.0225 30.2176 9.4115C29.961 8.8005 29.8326 8.1245 29.8326 7.3835C29.8326 6.5255 29.9674 5.778 30.2369 5.141C30.5192 4.491 30.8978 3.958 31.3726 3.542C31.8475 3.126 32.3929 2.814 33.0089 2.606C33.6377 2.398 34.2986 2.294 34.9916 2.294C35.9156 2.294 36.6279 2.463 37.1284 2.801C37.6289 3.139 37.8791 3.5745 37.8791 4.1075C37.8791 4.3545 37.8214 4.5885 37.7059 4.8095C37.5904 5.0175 37.4556 5.1995 37.3016 5.3555C37.0835 5.2515 36.8204 5.154 36.5124 5.063C36.2044 4.959 35.8707 4.907 35.5114 4.907Z"/>
  <path d="M43.6591 9.9575C43.8773 9.9575 44.1147 9.938 44.3713 9.899C44.6409 9.847 44.8398 9.782 44.9681 9.704V8.144L43.5821 8.261C43.2228 8.287 42.9276 8.365 42.6966 8.495C42.4656 8.625 42.3501 8.82 42.3501 9.08C42.3501 9.34 42.4464 9.5545 42.6389 9.7235C42.8442 9.8795 43.1843 9.9575 43.6591 9.9575ZM43.5051 2.294C44.1981 2.294 44.8269 2.3655 45.3916 2.5085C45.9691 2.6515 46.4568 2.8725 46.8546 3.1715C47.2653 3.4575 47.5797 3.828 47.7979 4.283C48.016 4.725 48.1251 5.2515 48.1251 5.8625V10.2305C48.1251 10.5685 48.0289 10.848 47.8363 11.069C47.6567 11.277 47.4385 11.459 47.1819 11.615C46.3477 12.122 45.1734 12.3755 43.6591 12.3755C42.9789 12.3755 42.3629 12.3105 41.8111 12.1805C41.2721 12.0505 40.8037 11.8555 40.4058 11.5955C40.0209 11.3355 39.7193 11.004 39.5011 10.601C39.2958 10.198 39.1931 9.73 39.1931 9.197C39.1931 8.3 39.4562 7.611 39.9823 7.13C40.5085 6.649 41.3234 6.35 42.4271 6.233L44.9489 5.96V5.8235C44.9489 5.4465 44.782 5.18 44.4483 5.024C44.1275 4.855 43.6591 4.7705 43.0431 4.7705C42.5554 4.7705 42.0806 4.8225 41.6186 4.9265C41.1566 5.0305 40.7395 5.1605 40.3674 5.3165C40.2005 5.1995 40.0594 5.024 39.9439 4.79C39.8284 4.543 39.7706 4.2895 39.7706 4.0295C39.7706 3.6915 39.8476 3.425 40.0016 3.23C40.1684 3.022 40.4187 2.8465 40.7523 2.7035C41.1245 2.5605 41.5609 2.4565 42.0614 2.3915C42.5747 2.3265 43.0559 2.294 43.5051 2.294Z"/>
  <path d="M56.055 6.0575C56.055 5.6545 55.9395 5.362 55.7085 5.18C55.4904 4.985 55.1888 4.8875 54.8038 4.8875C54.5471 4.8875 54.2905 4.92 54.0338 4.985C53.79 5.05 53.5782 5.1475 53.3985 5.2775V12.044C53.2702 12.083 53.0649 12.122 52.7825 12.161C52.513 12.2 52.2307 12.2195 51.9355 12.2195C51.6532 12.2195 51.3965 12.2 51.1655 12.161C50.9474 12.122 50.7613 12.044 50.6073 11.927C50.4533 11.81 50.3314 11.654 50.2415 11.459C50.1645 11.251 50.126 10.9845 50.126 10.6595V4.8095C50.126 4.4585 50.1966 4.1725 50.3378 3.9515C50.4918 3.7305 50.6971 3.529 50.9538 3.347C51.3901 3.035 51.9355 2.7815 52.59 2.5865C53.2574 2.3915 53.9953 2.294 54.8038 2.294C56.254 2.294 57.3705 2.619 58.1533 3.269C58.9361 3.906 59.3275 4.7965 59.3275 5.9405V12.044C59.1992 12.083 58.9939 12.122 58.7115 12.161C58.4421 12.2 58.1597 12.2195 57.8646 12.2195C57.5822 12.2195 57.3256 12.2 57.0946 12.161C56.8764 12.122 56.6903 12.044 56.5363 11.927C56.3823 11.81 56.2604 11.654 56.1706 11.459C56.0936 11.251 56.055 10.9845 56.055 10.6595V6.0575Z"/>
</svg>
