<svg xmlns="http://www.w3.org/2000/svg" viewBox="0 0 64 64"><defs><style>.cls-1{fill:#8ec9dc;}.cls-2{fill:#3f7494;}.cls-3{fill:#fff;}.cls-10,.cls-4{fill:#cfecf5;}.cls-5{fill:#e07a15;}.cls-6{fill:#f8c06d;}.cls-7{fill:#ab5930;}.cls-8{fill:#161616;}.cls-9{fill:#323232;}.cls-10{opacity:0.5;}.cls-11{fill:#f5f5f5;}.cls-12{fill:#b4b4b4;}.cls-13{fill:#293c4c;}</style></defs><g id="circle"><path class="cls-1" d="M35.2,6.45A25.54,25.54,0,0,0,23.88,54.9c2.76-4.25,5.32-5.31,8.22-9.69-.1-.88.33-1.55.92-1.47.86,2.64,2.5,7.55,3.69,11.79a25.69,25.69,0,0,1,5.16-2.42c3.21-1.06,8.3-.81,10.33-2a25.55,25.55,0,0,0-17-44.62Z"/></g><g id="toucan"><path class="cls-2" d="M59.6,32.81c-.21-7.14-7-14.57-14.16-14.57S25.25,30.21,31,34.5a5.3,5.3,0,0,1,2.52,3.37,10.78,10.78,0,0,1-1.39,7.7c-.06,3-.34,8-1.53,9A18.61,18.61,0,0,1,34,57.51l.34,0h0c1-.4,6.3-3.52,8.89-4.47,2.25-.84,5.13.55,7.15-.47a29,29,0,0,0,2.33-2l.17-.16c.31-.3.62-.6.91-.92l.15-.15q1-1.11,1.92-2.31l.12-.18c.24-.34.48-.68.71-1l.17-.27c.23-.36.45-.73.65-1.1l.11-.17c.24-.45.48-.9.7-1.36h0C58.05,41.4,59.8,39.55,59.6,32.81Z"/><path class="cls-3" d="M57.08,27.19c-1-6-8.8-9.25-11.89-9.81-5.65-1-12.14,14.74-15.08,16-1.1.47,3.09,2.37,3.93,5.35,2,5.93-2.52,8.43-2.52,12.93a7.9,7.9,0,0,0,2.64,5.92c.34,0,.69,0,1,0a25.51,25.51,0,0,0,15.49-5.22c1.75-4.86,1.49-10.76,1.89-13.38C53.14,35.34,58.2,33.65,57.08,27.19Z"/><path class="cls-4" d="M58.22,28.88c0,5.05-3.43,8.38-8.47,8.38-8.38,0-8.5-8.58-12.2-9.07C37.55,23.14,40,16,45,17,50.59,18.14,58.22,22.83,58.22,28.88Z"/><path class="cls-5" d="M36.57,30.56c0,1-2.13,3.42-5.54,3.42C16.42,28.36,7.23,31.1,7,30.54c-1-2,11-3.23,14.17-3.29,3.44,0,7.29-.09,10.12.78,1,.31,4.53-1.35,5.61-.84S36.57,30.35,36.57,30.56Z"/><path class="cls-6" d="M15.29,15.13C8.61,17.43,2.26,22.78,3.1,27c.49,2.43,14.69-2.53,26.91,1a15.7,15.7,0,0,0,7.12.28c-3.66,3.14-11.69.07-17.69-.28s-14.34.53-13.2,2.81c.27.55,9.69-2.13,23.78,3a5.34,5.34,0,0,0,6.55-2.75,60.2,60.2,0,0,1,8.15-14.06C33.76,13.13,24.08,12.11,15.29,15.13Z"/><path class="cls-7" d="M15.2,26.84c-5.62.57-12.89,2.24-12.89.07s1.68-8.16,14-12.1C12.7,18.47,9.86,22.34,15.2,26.84Z"/><path class="cls-8" d="M46.08,30.23A3.09,3.09,0,1,0,43,27.14,3.09,3.09,0,0,0,46.08,30.23Z"/><path class="cls-3" d="M44.81,27.7a1.13,1.13,0,1,0-1.12-1.12A1.13,1.13,0,0,0,44.81,27.7Z"/><path class="cls-9" d="M58.49,26.75c-.91-.69-4.23-3.08-5.7-4.14-.34-3-2-5.42-4.31-5.87a4.67,4.67,0,0,0-1.29-.08c-.3-.47-1.61-1.27-4-1.17a5.36,5.36,0,0,0-1.92.45c1.1.34,2.21.71,3.33,1.12h0l.65.14c-1.9,1-3.47,3.2-4.13,6.58-1.06,5.45,1,8.66,4.16,9.27s6.45-2.54,7.33-7a12.94,12.94,0,0,0,.21-1.93,37.09,37.09,0,0,1,5.24,3.37c.9.86.91,2.75,1.36,2.75S59.41,27.45,58.49,26.75Zm-7.21-1.19c-.75,4.07-2.74,6.74-5.76,6.4-3.3-.37-4.32-3.79-3.5-8s3.29-6.33,6.18-5.77C50.61,18.65,52.05,21.33,51.28,25.56Z"/><path class="cls-10" d="M51.28,25.56c-.75,4.07-2.74,6.74-5.76,6.4-3.3-.37-4.32-3.79-3.5-8s3.29-6.33,6.18-5.77C50.61,18.65,52.05,21.33,51.28,25.56Z"/><path class="cls-11" d="M23.87,54.91A23.85,23.85,0,0,0,34,57.54a18.62,18.62,0,0,0-3.43-2.94c1.24-1.13,1.5-6.38,1.54-9.39C29.2,49.59,26.64,50.65,23.87,54.91Z"/><path class="cls-12" d="M42.49,56.49A25.42,25.42,0,0,0,58.05,43.44C56.11,46.09,48.07,50.64,42.49,56.49Z"/><path class="cls-13" d="M47.3,52.12c-3,1-6.22,1.56-8.76,1.07a14.61,14.61,0,0,1-3.34-.93c.55,1.8,1.62,3.58,2,5.21a26.11,26.11,0,0,0,5.27-1A50.87,50.87,0,0,1,47.3,52.12Z"/><path class="cls-12" d="M33,43.74c-.59-.08-1,.59-.92,1.47,0,3-.46,8.46-1.7,9.58a18.42,18.42,0,0,1,3.44,2.74c.42,0,.93,0,1.36,0,.64,0,1.4,0,2-.08C36.06,52.9,34,46.79,33,43.74Z"/></g></svg>