<svg width="314" height="164" viewBox="0 0 314 164" fill="none" xmlns="http://www.w3.org/2000/svg">
<path fill-rule="evenodd" clip-rule="evenodd" d="M237.434 3.89113C240.698 3.33598 244.131 3.45871 247.538 4.37169C260.193 7.76254 267.703 20.7701 264.312 33.425C260.921 46.0798 247.913 53.5897 235.258 50.1989C231.851 49.2859 228.817 47.6757 226.268 45.5629C235.126 44.0562 242.739 37.556 245.217 28.3085C247.695 19.061 244.352 9.62513 237.434 3.89113Z" fill="#F3B761"/>
<circle cx="240" cy="131.5" r="16" fill="#F5D8AF"/>
<ellipse cx="76.5" cy="86.5" rx="11.5" ry="11" fill="#F5D8AF"/>
<circle cx="253" cy="86.5" r="6" fill="#F5D8AF"/>
<ellipse cx="68.5" cy="127.5" rx="5.5" ry="6" fill="#F5D8AF"/>
<ellipse cx="25" cy="63" rx="5" ry="4.5" fill="#F5D8AF"/>
<circle cx="287.5" cy="114" r="3.5" fill="#F5D8AF"/>
<circle cx="280" cy="30.5" r="4" fill="#F5D8AF"/>
<path d="M122.093 111.191C125.253 114.464 124.971 116.946 121.472 116.946C117.974 116.946 116.902 118.47 114.137 114.915C110.243 109.949 108.663 106.564 111.936 105.379C114.701 104.363 117.692 106.564 122.093 111.191Z" fill="#296F8E"/>
<path d="M120.061 113.504C123.221 116.777 124.971 116.946 121.472 116.946C117.974 116.946 117.353 117.454 114.136 114.294C109.791 110.119 109.34 106.902 111.597 106.902C114.136 106.902 115.66 108.934 120.061 113.504Z" fill="#1F576F"/>
<path d="M183.262 99.115C193.982 99.115 202.673 90.4242 202.673 79.7036C202.673 68.983 193.982 60.2922 183.262 60.2922C177.585 60.2922 172.478 62.7285 168.929 66.6125C168.701 66.8617 169.425 67.5928 169.211 67.8536C169.007 68.1013 167.863 67.8781 167.672 68.1358C165.271 71.3664 163.85 75.3691 163.85 79.7036C163.85 90.4242 172.541 99.115 183.262 99.115Z" fill="#296F8E"/>
<path d="M150.984 137.712C166.411 137.712 178.917 125.207 178.917 109.78C178.917 94.3535 166.411 81.8479 150.984 81.8479C135.558 81.8479 123.052 94.3535 123.052 109.78C123.052 125.207 135.558 137.712 150.984 137.712Z" fill="#296F8E"/>
<path d="M178.352 123.887C186.86 123.887 193.757 116.99 193.757 108.482C193.757 99.9742 186.86 93.0771 178.352 93.0771C169.844 93.0771 162.947 99.9742 162.947 108.482C162.947 116.99 169.844 123.887 178.352 123.887Z" fill="#296F8E"/>
<path d="M126.438 114.915C130.049 118.696 127.341 122.815 123.278 122.815C119.215 122.815 118.82 123.379 115.603 119.26C111.089 113.504 110.694 107.692 114.757 107.692C118.03 107.749 121.303 109.611 126.438 114.915Z" fill="#296F8E"/>
<path d="M206.679 80.0422C206.679 80.0422 218.699 66.4429 221.52 55.5522C221.859 57.1322 224.003 60.2922 222.649 63.7907C221.576 68.1357 213.676 78.4057 209.67 83.7664C208.654 82.9764 206.679 80.0422 206.679 80.0422Z" fill="#203D2C"/>
<path d="M164.809 73.5529C164.809 73.5529 164.414 77.1079 160.521 80.4371C156.684 83.7664 151.774 81.7914 151.774 81.7914L154.822 97.1964L174.628 88.45L164.809 73.5529Z" fill="#296F8E"/>
<path d="M150.984 114.915C150.984 114.915 150.984 112.714 153.242 109.78C155.555 106.902 157.643 106.902 154.144 106.902C150.646 106.902 146.696 115.931 146.696 115.931L148.05 118.583L150.984 114.915Z" fill="#1F576F"/>
<path d="M122.319 118.188C125.93 121.969 127.341 122.871 123.278 122.871C119.215 122.871 118.82 123.436 115.604 119.316C111.089 113.561 111.372 110.457 113.967 110.457C117.014 110.457 117.184 112.884 122.319 118.188Z" fill="#1F576F"/>
<path d="M189.356 73.5529C189.356 75.1329 194.829 85.8543 191.161 89.0143C186.873 92.6822 171.242 90.82 167.179 92.1743C159.674 94.6572 156.684 105.379 143.366 106.902C136.539 107.692 130.219 104.589 128.187 96.745C126.156 88.9579 135.41 83.4279 145.229 81.1707C150.42 79.9293 153.749 79.7036 158.151 77.2772C155.188 69.0056 159.938 67.7867 164.696 67.0764C165.459 66.9625 168.479 68.2504 169.211 68.1357C170.173 67.9848 168.824 66.4212 169.606 66.1607C179.763 62.775 189.356 70.6186 189.356 73.5529Z" fill="white"/>
<path d="M135.692 84.6129C141.222 80.945 147.711 79.3086 154.934 79.0264C154.934 79.0264 155.894 79.76 157.586 75.5279C159.956 78.7443 160.803 79.7036 165.656 81.2836C157.53 78.7443 143.197 81.4529 135.692 84.6129Z" fill="#E6E6E6"/>
<path d="M213.338 71.5215C193.362 99.9615 160.351 118.526 122.996 118.526C108.55 118.526 94.9508 114.915 82.3108 109.836C79.2072 108.595 73.79 104.984 73 106.564C72.605 107.354 75.9908 111.642 77.6836 113.674C85.245 122.702 94.6686 129.361 105.164 134.891C106.236 135.455 108.889 131.956 110.017 132.464C110.017 132.464 108.832 137.374 109.735 137.825C121.077 142.734 135.071 145.499 148.219 145.443C153.467 145.443 161.141 144.427 166.164 143.524C166.446 141.154 166.841 134.609 166.841 134.609C169.154 136.527 171.806 142.283 173.725 141.719C176.264 140.985 178.804 140.082 181.23 139.123C181.738 138.954 181.174 135.963 181.681 135.737C182.189 135.511 183.769 138.051 184.277 137.825C197.481 132.069 209.106 123.21 218.247 112.263C219.037 111.36 219.884 110.288 220.73 109.103C221.238 108.426 215.821 98.0429 216.385 97.3093C216.893 96.6322 223.326 105.604 223.777 104.927C226.881 100.526 229.759 95.955 230.549 93.585C226.26 89.9736 217.119 83.5972 213.338 71.5215Z" fill="#346247"/>
<path d="M199.061 72.7629C199.061 81.2272 194.096 90.7636 185.631 90.7636C177.167 90.7636 171.863 81.2272 171.863 72.7629C171.863 64.2986 174.346 60.2922 182.81 60.2922C192.685 60.2922 199.061 64.2986 199.061 72.7629Z" fill="#CAE4ED"/>
<path d="M172.935 106.507C172.935 106.507 168.928 107.241 164.809 112.827C159.223 120.276 157.361 124.846 153.862 123.774C150.363 122.702 150.42 113.899 152.282 109.949C155.611 102.783 162.101 103.291 164.753 103.46C167.348 103.573 172.935 106.507 172.935 106.507Z" fill="#296F8E"/>
<path d="M150.928 79.4214C149.517 80.0422 147.655 81.34 145.793 82.7507C143.423 84.5564 139.812 89.635 138.062 89.635C134.451 89.635 134.282 84.6129 135.184 82.525C138.57 74.625 148.784 77.4464 150.928 79.4214Z" fill="#296F8E"/>
<path opacity="0.4" d="M181.625 77.1079C183.838 77.1079 185.632 75.3141 185.632 73.1014C185.632 70.8887 183.838 69.095 181.625 69.095C179.412 69.095 177.619 70.8887 177.619 73.1014C177.619 75.3141 179.412 77.1079 181.625 77.1079Z" fill="#85C3D8"/>
<path d="M182.189 77.0514C182.133 76.7693 180.045 76.8257 179.029 73.9479C178.07 71.1829 178.973 70.5622 178.804 70.3929C178.578 70.2236 176.772 72.255 178.07 74.6814C179.537 77.6721 182.246 77.3336 182.189 77.0514Z" fill="#161616"/>
<mask id="mask0" mask-type="alpha" maskUnits="userSpaceOnUse" x="122" y="29" width="72" height="46">
<path d="M193.08 62.38C193.08 62.38 185.462 43.3636 156.289 32.3036C140.432 26.2657 123.504 30.8928 122.996 36.0843C122.421 41.6975 150.004 49.0512 162.674 62.775C163.185 63.3288 164.132 64.4679 164.132 64.4679C161.311 63.3393 158.771 61.7362 158.489 61.6464C151.718 57.1322 146.075 51.2072 128.582 44.6614C127.059 44.1536 125.366 45.1693 126.381 45.7336C139.924 53.1257 152.621 66.33 156.966 72.5936C157.981 74.0607 161.367 76.0357 168.026 73.5528C171.806 72.1421 174.684 64.2986 181.681 64.1293C188.735 63.96 194.321 64.2421 193.08 62.38Z" fill="#F8C06D"/>
</mask>
<g mask="url(#mask0)">
<path d="M193.08 62.38C193.08 62.38 185.462 43.3636 156.288 32.3036C140.432 26.2657 123.503 30.8928 122.996 36.0843C122.291 42.9697 148.05 49.2322 158.771 59.9536C166.389 67.2893 167.8 67.3737 168.646 67.5714C164.414 67.2893 145.849 50.6428 128.582 44.6614C127.058 44.1536 125.366 45.1693 126.381 45.7336C139.924 53.1257 152.621 66.33 156.966 72.5936C157.981 74.0607 161.367 76.0357 168.026 73.5528C171.806 72.1421 174.684 64.2986 181.681 64.1293C188.735 63.96 194.321 64.2421 193.08 62.38Z" fill="#F3B761"/>
<path d="M159.11 31.6265C159.11 31.6265 147.429 29.8772 142.52 36.9872C137.611 44.0972 142.576 49.6836 142.576 49.6836C142.576 49.6836 118.764 40.2036 118.256 32.3036C117.748 24.4601 120.344 24.4601 128.921 25.8143C137.498 27.1686 159.11 31.6265 159.11 31.6265Z" fill="#854400"/>
<path d="M150.081 53.5771C150.081 53.5771 157.022 58.2607 158.997 60.9693C159.736 61.7498 163.436 63.8532 164.132 64.4679C166.107 67.0071 169.775 67.8536 169.775 67.8536C169.775 67.8536 164.188 68.2486 158.094 63.2264C152.564 58.7121 144.89 52.4486 129.823 45.1129C132.814 43.8714 150.081 53.5771 150.081 53.5771Z" fill="#D6801C"/>
</g>
<path d="M123.052 111.247C123.052 111.247 126.212 113.674 127.623 116.326C129.033 118.978 127.623 112.319 125.309 110.401C122.996 108.482 122.996 109.159 122.996 109.159V111.247H123.052Z" fill="#1F576F"/>
<path d="M197.086 54.3107C196.861 54.3107 196.691 54.2543 196.522 54.085C196.296 53.8593 196.24 53.5207 196.353 53.2386L197.876 49.4579L196.183 50.0786C195.788 50.2479 195.337 50.0222 195.168 49.5707C194.998 49.1757 195.224 48.7243 195.676 48.555L199.061 47.37C199.343 47.2572 199.682 47.3136 199.908 47.5393C200.133 47.765 200.19 48.1036 200.077 48.3857L198.553 52.11L201.488 50.9815C201.883 50.8122 202.334 51.0379 202.503 51.4329C202.673 51.8279 202.447 52.2793 202.052 52.4486L197.425 54.1979C197.256 54.3107 197.143 54.3107 197.086 54.3107Z" fill="#B4B4B4"/>
<path d="M208.767 60.1793C208.711 60.1793 208.654 60.1793 208.598 60.1793L206.284 59.5586C206.058 59.5022 205.889 59.3329 205.833 59.0507C205.776 58.825 205.889 58.5993 206.115 58.43L207.356 57.64L207.187 57.5836C206.848 57.4707 206.679 57.1886 206.792 56.85C206.905 56.5114 207.187 56.3422 207.526 56.455L208.993 56.85C209.218 56.9064 209.388 57.1322 209.444 57.3579C209.501 57.5836 209.388 57.8093 209.162 57.9222L207.921 58.7122L208.936 58.9943C209.275 59.1072 209.444 59.3893 209.331 59.7279C209.218 60.01 208.993 60.1793 208.767 60.1793Z" fill="#B4B4B4"/>
<path d="M209.331 43.4764C209.275 43.4764 209.218 43.4764 209.106 43.4764L205.043 42.4043C204.761 42.3479 204.535 42.0657 204.478 41.7836C204.422 41.445 204.591 41.1629 204.817 40.9936L207.526 39.3007L206.453 39.0186C206.058 38.9057 205.776 38.4543 205.889 38.0593C206.002 37.6079 206.453 37.3822 206.848 37.495L209.613 38.285C209.896 38.3979 210.121 38.6236 210.178 38.9622C210.234 39.3007 210.065 39.5829 209.839 39.7522L207.187 41.445L209.501 42.0657C209.952 42.1786 210.178 42.63 210.065 43.025C210.008 43.2507 209.67 43.4764 209.331 43.4764Z" fill="#B4B4B4"/>
</svg>
