<svg width="32" height="32" viewBox="0 0 32 32" fill="none" xmlns="http://www.w3.org/2000/svg">
<path opacity="0.4" d="M23.0689 24.8773C21.5717 24.3866 20.469 24.7015 20.0493 24.8677C20.3216 24.5124 20.6052 24.1218 20.8945 23.7044C21.2982 23.6659 22.3507 24.8166 23.9824 23.3029C22.4466 22.7997 21.2676 23.4379 20.9273 23.657C21.2286 23.2208 21.5355 22.756 21.8428 22.2719C22.6429 22.7045 24.3418 22.6867 25.0507 21.5864C22.5716 21.0025 22.3367 22.2363 21.8601 22.2448C22.1703 21.7548 22.4807 21.2451 22.7848 20.7255C23.8818 20.8425 24.9962 20.5298 25.5097 19.6085C24.4299 19.2005 23.323 20.1185 22.8981 20.5306C23.2686 19.8911 23.6287 19.2384 23.9674 18.59C25.0662 18.6162 26.4399 18.6687 27.1146 17.5659C25.9117 17.1767 24.6008 18.0009 24.0691 18.3936C24.3415 17.8658 24.5988 17.3422 24.835 16.8318C25.8106 16.938 26.7003 16.6688 27.2628 15.5391C25.8869 15.7642 25.2671 16.1877 24.9921 16.4872C25.3453 15.7007 25.6435 14.9526 25.8642 14.2789C26.9946 14.4021 28.1172 13.8615 28.4855 12.8392C27.1021 13.0967 26.1347 13.9669 25.8863 14.2105C26.094 13.565 26.2283 12.9899 26.2685 12.5179C26.404 12.0273 26.5372 11.0845 25.9951 10.0938C25.3084 10.8562 25.5135 11.9866 26.1341 12.8523C26.0561 13.3402 25.895 13.9296 25.6516 14.6161C25.6055 14.5101 25.535 14.3332 25.48 14.128C25.4474 14.0069 25.3902 13.6072 25.3331 13.4632C25.131 12.9553 24.8893 12.6372 24.1831 12.1616C23.9137 13.2001 24.6371 14.1572 25.6275 14.6838C25.5663 14.8542 25.5001 15.0305 25.429 15.2126C25.2345 15.7097 25.0048 16.2445 24.7448 16.8062C24.707 16.4311 24.5286 15.4502 23.696 14.8896C23.5041 15.6289 23.989 16.5322 24.6902 16.9236C24.4492 17.4392 24.1832 17.9765 23.8962 18.5272C23.865 18.5523 23.8436 18.5704 23.8331 18.5796C23.7452 18.3755 23.6061 17.9696 23.711 17.6299C23.8591 17.1652 22.8719 15.795 21.994 15.3435C21.6729 16.5822 22.6333 18.0346 23.8207 18.6715C23.7073 18.8875 23.5906 19.1052 23.4712 19.3244C23.2743 19.6857 23.0726 20.0448 22.8681 20.399C22.8777 19.9674 22.7759 18.6836 21.3544 17.7265C21.0319 18.9704 21.618 19.9018 22.7996 20.5172C22.4703 21.0844 22.1345 21.6382 21.7994 22.1674C21.7526 21.813 21.5244 20.5976 20.555 20.0576C20.3227 20.9533 21.0995 21.9238 21.7532 22.24C21.4735 22.6802 21.1947 23.1026 20.9214 23.5011C20.8931 23.0839 20.7061 21.9356 19.5324 21.1454C19.2643 22.179 19.8646 23.0918 20.8418 23.6168C20.5467 24.0434 20.2586 24.4407 19.983 24.8004C19.9125 24.6344 19.8595 24.4145 19.9271 24.1954C20.0644 23.764 19.123 22.3608 18.308 21.9415C18.0273 23.0238 18.8605 24.2937 19.8807 24.9328C19.8768 24.9378 19.8728 24.943 19.8689 24.948C19.8652 24.9501 19.8631 24.9511 19.8631 24.9511C19.864 24.9509 19.8654 24.9511 19.8665 24.9511C19.4702 25.4603 19.102 25.887 18.7804 26.2054L18.8458 26.2702C19.1801 25.9391 19.5577 25.5004 19.961 24.9813C20.0215 25.017 20.0826 25.0503 20.1441 25.0812C20.1441 25.0812 20.1431 25.0799 20.1415 25.078C20.701 25.4161 21.9005 26.2177 23.0689 24.8773ZM23.8361 18.5867C23.8456 18.5869 23.8551 18.5871 23.8646 18.5873C23.8593 18.5971 23.8545 18.6069 23.8492 18.6167C23.8452 18.6073 23.8407 18.5975 23.8361 18.5867Z" fill="#45835F"/>
<g clip-path="url(#clip0_1079_91320)">
<path d="M13.9761 18.5585C14.3139 19.9203 14.2038 21.0927 13.4693 21.2675C12.7347 21.4422 12.081 20.4155 11.7505 19.061C11.4126 17.6993 11.2804 16.2574 12.0149 16.0754C12.7421 15.9006 13.6382 17.2041 13.9761 18.5585Z" fill="#163B4B"/>
<path d="M13.2342 19.2061C13.9981 20.3785 14.2846 21.5291 13.6529 21.9369C13.0212 22.3447 12.059 21.5874 11.2951 20.4077C10.5238 19.228 9.9142 17.9099 10.5532 17.5021C11.1849 17.0943 12.4703 18.0337 13.2342 19.2061Z" fill="#1F576F"/>
<path d="M22.7682 20.816C23.7598 22.4181 23.4146 24.0784 22.8857 24.042C22.3569 24.0056 23.0326 23.4958 22.2394 22.7749C21.4461 22.054 21.7179 20.816 21.7179 20.816L21.5195 19.0684C21.5195 19.0684 21.9162 19.4397 22.7682 20.816Z" fill="#296F8E"/>
<path d="M17.3769 27.013C20.18 27.013 22.4524 24.7601 22.4524 21.9811C22.4524 19.2021 20.18 16.9492 17.3769 16.9492C14.5738 16.9492 12.3014 19.2021 12.3014 21.9811C12.3014 24.7601 14.5738 27.013 17.3769 27.013Z" fill="#296F8E"/>
<path d="M22.2834 23.0225C22.2834 23.0225 22.3274 24.8066 21.6444 25.8552C20.9613 26.9039 20.0872 27.6539 19.3086 27.6102C18.9266 27.4719 18.4859 26.5106 18.3243 26.2703C18.8826 25.8115 21.189 23.6852 21.189 23.1099C21.189 22.5346 21.4754 22.389 21.7325 22.3671C21.9896 22.3453 22.2907 22.7094 22.2834 23.0225Z" fill="#296F8E"/>
<path d="M12.5364 22.3008C12.5364 22.3008 12.2941 23.4004 12.1839 23.6625C12.0664 23.9247 12.0002 24.0412 12.0002 24.0412C12.0002 24.0412 12.8964 25.9418 14.2038 27.0123C15.144 27.7769 15.4378 27.6822 15.6141 27.5438C15.9666 27.2671 16.5836 26.051 16.5836 26.051C16.5836 26.051 15.0044 25.4612 13.9541 24.347C12.9037 23.2329 12.5364 22.3008 12.5364 22.3008Z" fill="#296F8E"/>
<path d="M17.7441 19.0384C19.9347 19.0384 21.7105 17.2779 21.7105 15.1061C21.7105 12.9344 19.9347 11.1738 17.7441 11.1738C15.5535 11.1738 13.7777 12.9344 13.7777 15.1061C13.7777 17.2779 15.5535 19.0384 17.7441 19.0384Z" fill="#296F8E"/>
<path d="M21.6811 15.3828C21.3946 16.9557 20.9098 18.1573 21.9088 19.5336C21.0641 18.9874 19.4261 18.4922 17.4503 18.4631C15.5405 18.434 14.0348 18.7325 13.1387 18.9874C13.8218 18.2228 14.2992 17.2761 13.8438 15.8343C15.0558 16.5115 16.2383 17.0577 17.5605 17.0286C19.1617 16.9776 21.1302 15.8561 21.6811 15.3828Z" fill="#296F8E"/>
<path d="M15.379 17.1013C15.7315 18.3247 15.0852 19.8758 15.5332 21.3904C16.848 25.8325 21.7105 24.3251 21.6444 20.8297C21.6224 19.5044 20.2929 18.7689 20.8952 17.0139C21.1449 16.1328 21.7252 16.2056 22.0631 15.441C22.8343 13.9628 21.5122 11.1592 17.7368 11.3849C16.8186 11.5524 14.6812 11.982 14.3727 13.7443C14.0495 15.6522 15.0264 15.8779 15.379 17.1013Z" fill="white"/>
<path d="M14.1376 14.247C14.1376 15.7325 14.8354 16.6355 16.3338 16.6355C17.8322 16.6355 18.3243 15.0771 20.0798 14.4946C22.2246 13.8173 20.9318 10.9337 17.5531 11.1667C15.7535 11.2613 14.1376 12.4629 14.1376 14.247Z" fill="#CAE4ED"/>
<path d="M16.3926 14.4951C16.8627 14.4951 17.2446 14.1164 17.2446 13.6504C17.2446 13.1843 16.8627 12.8057 16.3926 12.8057C15.9225 12.8057 15.5405 13.1843 15.5405 13.6504C15.5405 14.1164 15.9225 14.4951 16.3926 14.4951Z" fill="#161616"/>
<path d="M16.5982 13.8031C16.7671 13.8031 16.9067 13.6647 16.9067 13.4973C16.9067 13.3298 16.7671 13.1914 16.5982 13.1914C16.4293 13.1914 16.2897 13.3298 16.2897 13.4973C16.2824 13.6647 16.4219 13.8031 16.5982 13.8031Z" fill="white"/>
<path d="M17.634 14.4219C17.7368 14.7132 17.2961 15.0482 16.7746 15.1938C16.2311 15.3468 15.7463 15.4341 15.6508 15.1356C15.548 14.8297 15.8271 14.3637 16.4808 14.1962C17.1492 14.0214 17.5238 14.1088 17.634 14.4219Z" fill="#CAE4ED"/>
<path d="M27.6821 12.7039C26.3159 12.8568 22.8858 14.2768 21.3286 14.6409C20.146 14.9176 19.6539 14.6409 19.6539 14.6409L18.4272 14.437C18.4272 14.437 19.6098 16.9275 20.4251 16.8838C21.8721 16.811 25.1995 13.8326 29.1585 12.9296C29.063 12.5437 27.9245 12.6966 27.6821 12.7039Z" fill="#F3B761"/>
<path d="M18.4125 11.2111C18.4125 11.2111 21.3873 8.74975 25.4051 8.47303C28.5415 8.25457 30.7377 10.2062 30.1207 10.8033C29.8857 11.2111 28.2624 11.1455 26.8888 11.546C22.8417 12.7185 19.125 15.2963 19.125 15.2963C19.125 15.2963 17.3328 14.0001 18.4125 11.2111Z" fill="#F3B761"/>
<path d="M30.2236 10.8608C30.8699 10.1181 28.6517 8.44321 26.1396 8.46506C27.2928 9.48454 27.4985 10.7152 27.0504 11.5017C28.615 11.2614 29.658 11.3779 30.2236 10.8608Z" fill="#854400"/>
<path d="M25.6842 11.8809C24.3106 12.8202 23.5834 14.0145 23.5834 14.0145C23.5834 14.0145 21.4313 14.8082 20.6895 14.8519C20.1973 14.8811 19.7787 14.7354 19.1029 14.4951C21.1816 14.131 24.1637 12.0483 25.6842 11.8809Z" fill="#D6801C"/>
</g>
<path d="M8.95892 5.7609C8.63383 6.95227 10.6582 7.80409 9.89406 8.24149C9.5204 7.18871 7.74729 7.18829 7.75568 5.44435C6.68964 5.81829 7.20599 7.11611 6.66938 7.62934C7.47906 9.99073 10.008 10.1868 9.97706 11.1746C9.02433 10.2472 6.75834 9.85539 6.34131 8.26448C5.19506 8.92058 6.22777 9.69665 5.69112 10.6472C4.60185 12.276 10.5546 13.3824 10.6181 13.8588C9.32408 13.3076 7.44741 13.663 5.36602 11.8386C6.09849 13.455 4.74297 15.0552 6.03304 16.4832C7.21676 17.5448 10.8226 15.9684 11.6102 17.312C9.89734 16.689 8.11443 18.3077 6.47212 17.2371C6.58609 19.1825 8.22841 20.253 7.90331 21.4443C9.50214 20.5594 10.7489 22.8314 12.6023 20.7653C13.4369 23.0119 19.3995 28.938 21.31 27.8445C21.692 27.6258 21.9726 27.4602 21.9726 27.4602C19.3771 26.2812 14.6863 20.7932 14.4701 20.0867C14.254 19.3801 15.1703 19.9857 15.3339 20.207C16.9762 21.2775 17.6264 18.8948 20.0329 19.5279C21.5612 18.6531 20.0815 16.9869 20.5691 15.1999C18.7157 17.266 16.5105 15.3164 15.1059 16.3164C16.1119 14.8157 18.6892 17.0708 20.13 15.0397C19.6294 13.9088 20.7802 13.9403 19.9021 12.4324C18.4877 15.2525 15.6534 13.6321 14.5529 14.9004C15.1059 10.8003 17.9667 13.1106 19.463 9.80129C18.2598 9.48474 18.7189 6.7389 16.5035 6.46889C16.8756 8.70878 14.0421 9.6169 13.2833 11.3933C13.092 9.57763 15.8533 8.85162 15.7393 6.90629C15.4628 5.55665 14.9369 5.546 14.6416 5.02139C14.6687 6.52887 13.1409 8.05182 12.6826 8.6559C13.3513 7.12716 14.097 5.83577 13.4384 4.70483C12.7798 3.57389 11.1944 3.47603 9.8769 2.21962C9.82866 3.75516 9.28402 4.56954 8.95892 5.7609Z" fill="#45835F"/>
<path d="M11.3014 18.5319C11.3014 18.5319 10.1776 19.7488 10.4868 21.5007C10.796 23.2525 11.712 24.0764 12.1159 24.0232C12.5301 23.9707 13.6012 23.9278 13.3812 21.7377C13.1612 19.5475 13.0308 19.127 12.9214 18.5324C12.8121 17.9377 12.4657 17.561 12.2283 17.6138C11.9854 17.6714 11.8105 17.8667 11.3014 18.5319Z" fill="#276A87"/>
<defs>
<clipPath id="clip0_1079_91320">
<rect width="20.5664" height="20.3897" fill="white" transform="translate(9.97778 7.87305)"/>
</clipPath>
</defs>
</svg>
