<svg width="154" height="115" viewBox="0 0 154 115" fill="none"
  xmlns="http://www.w3.org/2000/svg">
  <path d="M92.5853 114.155C124.108 114.155 149.663 88.6004 149.663 57.0774C149.663 25.5544 124.108 0 92.5853 0C61.0623 0 35.5078 25.5544 35.5078 57.0774C35.5078 88.6004 61.0623 114.155 92.5853 114.155Z" fill="#85C3D8"/>
  <path d="M91.6189 57.7358C71.1589 57.7358 54.5625 74.3322 54.5625 94.7923C54.5625 96.5485 54.6942 98.3047 54.9137 100.017C64.9682 108.842 78.1399 114.199 92.5409 114.199C105.888 114.199 118.182 109.589 127.885 101.905C128.324 99.6219 128.588 97.2071 128.588 94.7923C128.675 74.2883 112.079 57.7358 91.6189 57.7358Z" fill="#296F8E"/>
  <path d="M90.1262 69.3716C106.13 69.3716 119.104 56.3978 119.104 40.3938C119.104 24.3898 106.13 11.416 90.1262 11.416C74.1222 11.416 61.1484 24.3898 61.1484 40.3938C61.1484 56.3978 74.1222 69.3716 90.1262 69.3716Z" fill="#296F8E"/>
  <path d="M58.7788 46.1445C62.862 58.3503 70.7651 66.6924 57.1543 74.9467C63.3011 70.9513 75.2874 69.0633 89.6884 68.7999C103.607 68.5804 114.583 69.5902 121.081 71.4342C116.12 65.7704 109.666 64.3654 116.559 52.2474C107.69 57.2088 98.5135 58.3942 88.8981 58.1747C77.1314 57.9113 62.8181 49.657 58.7788 46.1445Z" fill="#296F8E"/>
  <path fill-rule="evenodd" clip-rule="evenodd" d="M66.638 107.93C67.3854 108.042 67.9886 108.115 68.3059 108.14C67.4716 107.262 65.452 103.047 65.452 101.51C65.452 99.3785 63.9818 99.4763 61.1878 99.6622C60.2418 99.7251 59.144 99.7981 57.9002 99.7981C54.8803 99.7981 54.0627 99.0364 53.9933 99.0994C53.9881 99.1041 53.9871 99.1132 53.9895 99.1275C57.7713 102.6 62.0229 105.57 66.638 107.93Z" fill="#1F576F"/>
  <path d="M140.136 53.7839C136.361 54.8815 136.756 59.6233 130.038 64.892C121.564 71.5657 115.593 67.9215 113.925 63.1358C112.344 58.6135 110.632 62.4333 108.788 65.6823C107.866 67.2629 109.754 72.6633 112.037 76.4392C114.276 80.1273 117.832 77.0539 128.853 101.202C132.146 98.5238 135.087 95.4504 137.722 92.0697C145.361 75.6489 148.918 51.1934 140.136 53.7839Z" fill="#296F8E"/>
  <path d="M107.601 59.2719C114.143 46.3197 115.109 37.9337 111.289 27.2207C107.425 16.5077 94.2972 12.9075 87.5796 11.6781C60.9727 6.71677 49.1621 35.5189 54.8259 46.4075C57.3286 52.0275 62.5094 53.7398 67.822 60.5452C75.9446 70.9508 63.4315 82.1468 63.4315 91.9378C63.4315 98.2602 65.1877 104.734 69.0514 109.432C76.2519 112.681 84.2428 114.4 92.6288 114.4C100.137 114.4 107.293 112.738 113.835 110.103C118.182 105.01 120.158 97.426 117.962 87.635C114.362 71.9168 102.069 70.2483 107.601 59.2719Z" fill="white"/>
  <path d="M82.5761 104.188C82.5761 102.783 78.0538 102.476 74.0583 102.476C70.019 102.476 66.1992 102.696 66.1992 104.101C66.1992 105.33 67.4725 107.35 68.3067 108.14C74.3218 109.194 82.5761 105.593 82.5761 104.188Z" fill="#B4B4B4"/>
  <path d="M49.689 90.8409C49.8646 108.798 81.345 106.954 83.2769 103.574C86.5698 97.8219 73.3981 93.8265 68.5685 87.6357C65.056 83.0695 65.6268 76.5276 65.3633 72.8834C65.0121 67.7904 64.7926 64.8926 64.7926 64.8926C64.7926 64.8926 49.5134 76.6593 49.689 90.8409Z" fill="#296F8E"/>
  <path d="M108.743 20.8106C114.187 30.3382 112.124 40.3487 102.596 45.7491C93.0687 51.1934 83.4534 40.4804 70.1939 43.1147C54.1244 46.5394 50.3046 20.8106 71.8184 12.6881C83.629 8.78044 102.245 9.39512 108.743 20.8106Z" fill="#CAE4ED"/>
  <path d="M88.5462 36.0903C91.7513 34.2462 92.8928 30.163 91.0488 26.914C89.2047 23.7089 85.1215 22.5673 81.8725 24.4114C78.6674 26.2554 77.5258 30.3386 79.3699 33.5877C81.2578 36.7928 85.341 37.9343 88.5462 36.0903Z" fill="#161616"/>
  <path d="M87.6678 31.041C88.8532 30.3824 89.2484 28.8896 88.5898 27.7041C87.9312 26.5187 86.4384 26.1235 85.253 26.7821C84.0675 27.4407 83.6723 28.9335 84.3309 30.1189C84.9895 31.3044 86.4823 31.6995 87.6678 31.041Z" fill="white"/>
  <path d="M60.5339 46.584C50.9625 50.4477 42.796 56.0676 35.3759 60.1508C28.8779 63.7511 8.68127 76.2642 13.2475 79.3815C14.389 80.1718 32.7855 63.6633 66.4612 58.9654C70.1493 56.9457 72.608 49.3061 71.0713 44.2131C68.9199 43.9935 62.9048 45.6619 60.5339 46.584Z" fill="#F3B761"/>
  <path d="M14.2133 40.7008C4.11495 52.2041 -2.11966 69.1517 4.02714 76.2206C7.53959 80.3038 31.3365 54.3116 58.2068 47.9014C61.7193 47.0671 71.5102 46.8476 71.5102 46.8476C70.237 39.208 69.9296 29.417 71.8176 12.689C46.923 17.0356 27.5606 25.5533 14.2133 40.7008Z" fill="#F3B761"/>
  <path d="M26.771 63.0052C16.7604 70.1179 4.73028 81.0065 2.40328 76.9233C0.0762755 72.8401 -3.17275 59.7123 15.8823 38.9888C12.9407 49.7896 11.8869 60.2391 26.771 63.0052Z" fill="#854400"/>
  <path d="M69.3592 41.9731C65.1882 44.1684 61.2805 45.6173 56.89 47.2857C45.7818 51.5007 34.1029 58.8329 16.1016 73.234C43.1036 53.7399 60.8415 48.7346 69.3592 41.9731Z" fill="#D6801C"/>
  <path d="M142.901 47.1099C142.901 47.9002 144.964 47.8563 147.203 51.9395C149.53 56.1984 148.916 59.2718 149.574 59.2718C151.331 59.2718 149.882 53.6957 148.696 50.9297C146.984 47.1977 142.857 46.1 142.901 47.1099Z" fill="#163B4B"/>
  <path d="M143.121 42.984C143.121 43.9939 146.238 43.7304 149.048 47.6381C151.858 51.5896 151.595 55.9362 152.649 55.9362C154.493 55.9362 152.473 49.7016 151.024 47.0673C149.048 43.3353 143.121 40.7009 143.121 42.984Z" fill="#163B4B"/>
  <path d="M122.223 103.047C122.223 103.925 121.476 105.33 120.291 106.954C123.672 105.066 126.833 102.871 129.731 100.368C128.984 98.7438 127.535 97.4266 126.174 97.5144C124.33 97.7339 122.223 98.8316 122.223 103.047Z" fill="#296F8E"/>
  <path d="M127.842 86.0981C129.466 90.84 130.037 95.5818 130.037 100.192C130.74 99.5772 131.398 98.9625 132.101 98.3039C132.145 96.9868 132.013 95.4062 131.574 93.5182C130.871 90.6643 129.422 86.9763 127.842 86.0981Z" fill="#1F576F"/>
  <mask id="mask0_869:155545" style="mask-type:alpha" maskUnits="userSpaceOnUse" x="78" y="23" width="14" height="14">
    <path d="M88.5462 36.0898C91.7513 34.2458 92.8928 30.1625 91.0488 26.9135C89.2047 23.7084 85.1215 22.5668 81.8725 24.4109C78.6674 26.2549 77.5258 30.3381 79.3699 33.5872C81.2578 36.7923 85.341 37.9338 88.5462 36.0898Z" fill="#161616"/>
  </mask>
  <g mask="url(#mask0_869:155545)">
    <path opacity="0.3" d="M91.4536 23.2068C93.3919 24.5884 94.5218 26.9219 94.0771 29.5755C90.839 30.0208 84.6553 26.0193 81.8198 24.0621C82.2224 21.6598 88.3049 20.9624 91.4536 23.2068Z" fill="#323232"/>
  </g>
  <path d="M91.6196 22.2205C93.5579 23.6021 94.6878 25.9355 94.2431 28.5892C91.005 29.0345 84.8213 25.0329 81.9858 23.0758C82.3884 20.6735 88.4709 19.9761 91.6196 22.2205Z" fill="#CAE4ED"/>
</svg>
