<svg width="64" height="64" viewBox="0 0 64 64" fill="none" xmlns="http://www.w3.org/2000/svg">
<circle cx="35.2" cy="32" r="25.6" fill="#3EA39A"/>
<mask id="mask0" mask-type="alpha" maskUnits="userSpaceOnUse" x="9" y="6" width="52" height="52">
<circle cx="35.2" cy="32" r="25.6" fill="#3EA39A"/>
</mask>
<g mask="url(#mask0)">
<path d="M58.9768 42.7252C56.4041 46.7097 55.4436 50.5902 57.5781 51.9709C59.7127 53.3516 62.9229 50.7758 65.4956 46.7913C68.0683 42.8067 70.1158 38.3272 67.9812 36.9466C65.8495 35.5659 61.5495 38.7434 58.9768 42.7252Z" fill="#323C46"/>
<path d="M61.4652 46.212C58.8925 50.1965 57.932 54.077 60.0665 55.4577C62.2011 56.8384 65.4113 54.2626 67.984 50.2781C70.5567 46.2935 72.6042 41.8141 70.4696 40.4334C68.3351 39.0527 64.0351 42.2274 61.4652 46.212Z" fill="#335267"/>
<path d="M31.986 45.748C30.6744 47.7136 26.6721 52.5895 25.8998 56.7119C25.3296 59.7516 26.498 62.617 27.5849 62.617C28.3095 62.617 27.5849 60.3674 29.4892 58.728C29.3937 60.8623 29.4667 66.3653 32.3596 69.9281C36.0108 74.4272 38.5385 74.9896 39.3811 74.7084C40.2237 74.4272 41.3471 72.1777 41.3471 72.1777L41.3275 72.0371C42.8469 72.4926 44.4563 72.74 46.1218 72.74C47.894 72.74 49.6016 72.4617 51.2054 71.9499C51.3907 72.2986 52.5647 74.4497 53.3399 74.7084C54.1825 74.9896 56.7102 74.4272 60.3614 69.9281C61.8809 68.0553 64.9395 62.617 64.9395 62.617C64.4564 61.973 63.8834 60.1368 63.4818 58.6802C64.7092 60.4012 66.0236 61.9899 67.7481 62.3358C69.1524 62.617 70.4725 62.3611 70.2759 59.805C70.0062 56.3126 64.0463 48.709 59.884 45.1828C56.2328 42.0897 59.884 42.3709 59.6031 32.8102C59.3925 25.6706 52.5767 18.24 45.44 18.24C38.3033 18.24 25.2482 30.2119 30.9553 34.4974C32.0787 35.3409 33.1769 36.1902 33.483 37.8717C34.0447 40.9649 33.2976 43.7853 31.986 45.748Z" fill="#3F7494"/>
<path d="M52.5816 38.9965C51.8261 43.9202 53.4242 60.3674 39.662 59.805C35.1682 59.6222 31.517 56.1551 31.517 51.6503C31.517 47.1456 36.0595 44.6537 34.0448 38.7153C33.1966 35.7402 29.0145 33.8394 30.1127 33.3726C33.0505 32.1241 39.545 16.3468 45.1932 17.376C48.2826 17.9384 56.0362 21.2052 57.0754 27.1863C58.1989 33.6538 53.1434 35.341 52.5816 38.9965Z" fill="white"/>
<path d="M57.6371 28.7328C57.6371 33.7803 54.5336 37.3093 49.4921 37.3093C41.12 37.3093 40.9966 28.7328 37.2937 28.2377C37.2937 23.1902 39.7743 16.0734 44.7175 17.0632C50.3347 18.188 57.6371 22.6871 57.6371 28.7328Z" fill="#CFECF5"/>
<path d="M36.5725 30.5606C36.5725 31.5701 34.3677 34.2162 30.9553 34.2162C16.3505 28.5922 6.52032 31.4042 6.23945 30.8418C5.22893 28.8184 17.9577 27.3143 21.1246 27.2503C24.5595 27.2503 28.4107 27.161 31.2361 28.0299C32.25 28.342 35.772 26.6829 36.8534 27.1863C37.9347 27.6896 36.5725 30.3497 36.5725 30.5606Z" fill="#E07A15"/>
<path d="M15.2889 15.1286C8.60997 17.426 2.26147 22.7855 3.10405 27.0034C3.58994 29.433 17.794 24.4671 30.0115 28.0299C31.6124 28.4967 34.3256 28.8735 37.1343 28.3111C33.4675 31.4468 25.4446 28.3833 19.44 28.0299C13.4354 27.6765 5.10201 28.5641 6.2395 30.8418C6.52036 31.4042 16.3505 28.5923 30.9553 34.2162C32.8961 34.2162 35.1682 33.935 36.5725 31.123C37.8926 28.477 38.5386 25.4991 44.7175 17.0632C33.7639 13.1265 24.0798 12.1057 15.2889 15.1286Z" fill="#F8C06D"/>
<path d="M15.2 26.843C9.58274 27.4054 2.30737 29.0787 2.30737 26.9051C2.30737 24.7314 3.99254 18.7504 16.3504 14.8136C12.6992 18.4692 9.8636 22.3438 15.2 26.843Z" fill="#AB5930"/>
<path d="M46.0769 30.2344C47.7832 30.2344 49.1664 28.8496 49.1664 27.1413C49.1664 25.433 47.7832 24.0481 46.0769 24.0481C44.3706 24.0481 42.9874 25.433 42.9874 27.1413C42.9874 28.8496 44.3706 30.2344 46.0769 30.2344Z" fill="#161616"/>
<path d="M44.813 27.7037C45.4334 27.7037 45.9364 27.2001 45.9364 26.5789C45.9364 25.9577 45.4334 25.4541 44.813 25.4541C44.1925 25.4541 43.6895 25.9577 43.6895 26.5789C43.6895 27.2001 44.1925 27.7037 44.813 27.7037Z" fill="white"/>
</g>
<mask id="mask1" mask-type="alpha" maskUnits="userSpaceOnUse" x="1" y="6" width="60" height="32">
<rect x="1.28003" y="6.39999" width="59.52" height="30.72" fill="#C4C4C4"/>
</mask>
<g mask="url(#mask1)">
<path d="M58.9768 42.7252C56.4041 46.7097 55.4436 50.5902 57.5781 51.9709C59.7127 53.3516 62.9229 50.7758 65.4956 46.7913C68.0683 42.8067 70.1158 38.3272 67.9812 36.9466C65.8495 35.5659 61.5495 38.7434 58.9768 42.7252Z" fill="#323C46"/>
<path d="M31.986 45.748C30.6744 47.7136 26.6721 52.5895 25.8998 56.7119C25.3296 59.7516 26.498 62.617 27.5849 62.617C28.3095 62.617 27.5849 60.3674 29.4892 58.728C29.3937 60.8623 29.4667 66.3653 32.3596 69.9281C36.0108 74.4272 38.5385 74.9896 39.3811 74.7084C40.2237 74.4272 41.3471 72.1777 41.3471 72.1777L41.3275 72.0371C42.8469 72.4926 44.4563 72.74 46.1218 72.74C47.894 72.74 49.6016 72.4617 51.2054 71.9499C51.3907 72.2986 52.5647 74.4497 53.3399 74.7084C54.1825 74.9896 56.7102 74.4272 60.3614 69.9281C61.8809 68.0553 64.9395 62.617 64.9395 62.617C64.4564 61.973 63.8834 60.1368 63.4818 58.6802C64.7092 60.4012 66.0236 61.9899 67.7481 62.3358C69.1524 62.617 70.4725 62.3611 70.2759 59.805C70.0062 56.3126 64.0463 48.709 59.884 45.1828C56.2328 42.0897 59.884 42.3709 59.6031 32.8102C59.3925 25.6706 52.5767 18.24 45.44 18.24C38.3033 18.24 25.2482 30.2119 30.9553 34.4974C32.0787 35.3409 33.1769 36.1902 33.483 37.8717C34.0447 40.9649 33.2976 43.7853 31.986 45.748Z" fill="#3F7494"/>
<path d="M52.5816 38.9965C51.8261 43.9202 53.4242 60.3674 39.662 59.805C35.1682 59.6222 31.517 56.1551 31.517 51.6503C31.517 47.1456 36.0595 44.6537 34.0448 38.7153C33.1966 35.7402 29.0145 33.8394 30.1127 33.3726C33.0505 32.1241 39.545 16.3468 45.1932 17.376C48.2826 17.9384 56.0362 21.2052 57.0754 27.1863C58.1989 33.6538 53.1434 35.341 52.5816 38.9965Z" fill="white"/>
<path d="M57.6371 28.7328C57.6371 33.7803 54.5336 37.3093 49.4921 37.3093C41.12 37.3093 40.9966 28.7328 37.2937 28.2377C37.2937 23.1902 39.7743 16.0734 44.7175 17.0632C50.3347 18.188 57.6371 22.6871 57.6371 28.7328Z" fill="#CFECF5"/>
<path d="M36.5725 30.5606C36.5725 31.5701 34.3677 34.2162 30.9553 34.2162C16.3505 28.5922 6.52032 31.4042 6.23945 30.8418C5.22893 28.8184 17.9577 27.3143 21.1246 27.2503C24.5595 27.2503 28.4107 27.161 31.2361 28.0299C32.25 28.342 35.772 26.6829 36.8534 27.1863C37.9347 27.6896 36.5725 30.3497 36.5725 30.5606Z" fill="#E07A15"/>
<path d="M15.2889 15.1286C8.60997 17.426 2.26147 22.7855 3.10405 27.0034C3.58994 29.433 17.794 24.4671 30.0115 28.0299C31.6124 28.4967 34.3256 28.8735 37.1343 28.3111C33.4675 31.4468 25.4446 28.3833 19.44 28.0299C13.4354 27.6765 5.10201 28.5641 6.2395 30.8418C6.52036 31.4042 16.3505 28.5923 30.9553 34.2162C32.8961 34.2162 35.1682 33.935 36.5725 31.123C37.8926 28.477 38.5386 25.4991 44.7175 17.0632C33.7639 13.1265 24.0798 12.1057 15.2889 15.1286Z" fill="#F8C06D"/>
<path d="M15.2 26.843C9.58274 27.4054 2.30737 29.0787 2.30737 26.9051C2.30737 24.7314 3.99254 18.7504 16.3504 14.8136C12.6992 18.4692 9.8636 22.3438 15.2 26.843Z" fill="#AB5930"/>
<path d="M46.0769 30.2344C47.7832 30.2344 49.1664 28.8496 49.1664 27.1413C49.1664 25.433 47.7832 24.0481 46.0769 24.0481C44.3706 24.0481 42.9874 25.433 42.9874 27.1413C42.9874 28.8496 44.3706 30.2344 46.0769 30.2344Z" fill="#161616"/>
<path d="M44.813 27.7037C45.4334 27.7037 45.9364 27.2001 45.9364 26.5789C45.9364 25.9577 45.4334 25.4541 44.813 25.4541C44.1925 25.4541 43.6895 25.9577 43.6895 26.5789C43.6895 27.2001 44.1925 27.7037 44.813 27.7037Z" fill="white"/>
</g>
</svg>
