<svg width="16" height="16" viewBox="0 0 16 16" fill="none" xmlns="http://www.w3.org/2000/svg">
<path d="M13.1336 7.66798C12.5381 8.59033 12.3157 9.48859 12.8098 9.80819C13.3039 10.1278 14.0471 9.53155 14.6426 8.6092C15.2381 7.68685 15.7121 6.64994 15.218 6.33034C14.7245 6.01074 13.7291 6.74628 13.1336 7.66798Z" fill="#163B4B"/>
<path d="M13.7098 8.47515C13.1142 9.3975 12.8919 10.2958 13.386 10.6154C13.8801 10.935 14.6232 10.3387 15.2188 9.41637C15.8143 8.49402 16.2882 7.45711 15.7941 7.13751C15.3 6.81791 14.3047 7.5528 13.7098 8.47515Z" fill="#1F576F"/>
<path d="M6.88585 8.3676C6.58223 8.82259 5.65578 9.95128 5.47699 10.9055C5.34501 11.6092 5.61547 12.2725 5.86708 12.2725C6.03481 12.2725 5.86708 11.7517 6.30787 11.3722C6.28577 11.8663 6.30267 13.1401 6.97232 13.9648C7.8175 15.0063 8.40263 15.1365 8.59767 15.0714C8.79272 15.0063 9.05277 14.4856 9.05277 14.4856L9.04822 14.453C9.39995 14.5585 9.77248 14.6158 10.158 14.6158C10.5683 14.6158 10.9635 14.5513 11.3348 14.4328C11.3777 14.5136 11.6494 15.0115 11.8289 15.0714C12.0239 15.1365 12.6091 15.0063 13.4542 13.9648C13.806 13.5313 14.514 12.2725 14.514 12.2725C14.4021 12.1234 14.2695 11.6983 14.1765 11.3612C14.4607 11.7595 14.7649 12.1273 15.1641 12.2074C15.4892 12.2725 15.7947 12.2132 15.7492 11.6215C15.6868 10.8131 14.3072 9.05302 13.3437 8.23677C12.4985 7.52076 13.3437 7.58585 13.2787 5.37273C13.2299 3.72005 11.6522 2 10.0002 2C8.34818 2 5.32616 4.77128 6.64725 5.76328C6.90731 5.95856 7.16151 6.15513 7.23238 6.54438C7.3624 7.26039 7.18947 7.91326 6.88585 8.3676Z" fill="#296F8E"/>
<path d="M11.6531 6.80498C11.4782 7.94473 11.8481 11.752 8.66239 11.6218C7.62217 11.5795 6.77698 10.7769 6.77698 9.73411C6.77698 8.69134 7.82848 8.11451 7.36211 6.73988C7.16577 6.05121 6.1977 5.61119 6.45191 5.50314C7.13196 5.21413 8.63532 1.56199 9.94276 1.80022C10.6579 1.93041 12.4527 2.68662 12.6933 4.07112C12.9533 5.56823 11.7831 5.95878 11.6531 6.80498Z" fill="white"/>
<path d="M12.8234 4.42891C12.8234 5.5973 12.105 6.4142 10.938 6.4142C8.99997 6.4142 8.9714 4.42891 8.11426 4.3143C8.11426 3.1459 8.68847 1.49848 9.83272 1.72761C11.133 1.98797 12.8234 3.02944 12.8234 4.42891Z" fill="#CAE4ED"/>
<path d="M7.94733 4.85211C7.94733 5.08578 7.43696 5.6983 6.64704 5.6983C3.2663 4.39646 0.990797 5.04738 0.925783 4.9172C0.691865 4.4488 3.63834 4.10065 4.37141 4.08583C5.16654 4.08583 6.05801 4.06515 6.71205 4.26628C6.94676 4.33853 7.76204 3.95449 8.01234 4.07101C8.26265 4.18752 7.94733 4.80329 7.94733 4.85211Z" fill="#D6801C"/>
<path d="M3.02065 1.27971C1.47461 1.81151 0.00504802 3.05214 0.200091 4.02851C0.312565 4.5909 3.60054 3.4414 6.42866 4.26611C6.79924 4.37417 7.42731 4.46139 8.07745 4.33121C7.22866 5.05708 5.37151 4.34792 3.98156 4.26611C2.5916 4.1843 0.662581 4.38979 0.925889 4.91703C0.990903 5.04721 3.2664 4.3963 6.64714 5.69813C7.09639 5.69813 7.62235 5.63304 7.94742 4.98212C8.25299 4.36961 8.40252 3.68029 9.83284 1.72754C7.29728 0.816253 5.05559 0.57997 3.02065 1.27971Z" fill="#F3B761"/>
<path d="M3.00002 3.9916C1.69974 4.12178 0.015625 4.50913 0.015625 4.00597C0.015625 3.50281 0.40571 2.11831 3.26633 1.20703C2.42115 2.05322 1.76475 2.95013 3.00002 3.9916Z" fill="#854400"/>
<path d="M10.1473 4.77626C10.5422 4.77626 10.8624 4.45569 10.8624 4.06025C10.8624 3.66481 10.5422 3.34424 10.1473 3.34424C9.75231 3.34424 9.43213 3.66481 9.43213 4.06025C9.43213 4.45569 9.75231 4.77626 10.1473 4.77626Z" fill="#161616"/>
<path d="M9.85478 4.19066C9.99841 4.19066 10.1148 4.07409 10.1148 3.93029C10.1148 3.78649 9.99841 3.66992 9.85478 3.66992C9.71116 3.66992 9.59473 3.78649 9.59473 3.93029C9.59473 4.07409 9.71116 4.19066 9.85478 4.19066Z" fill="white"/>
</svg>
