<svg width="160" height="160" viewBox="0 0 160 160" fill="none" xmlns="http://www.w3.org/2000/svg">
<mask id="mask0" mask-type="alpha" maskUnits="userSpaceOnUse" x="0" y="0" width="160" height="160">
<circle cx="80" cy="80" r="80" fill="#3EA39A"/>
</mask>
<g mask="url(#mask0)">
<circle cx="80" cy="80" r="80" fill="#3EA39A"/>
<path d="M105.199 115.331C98.5507 127.67 96.6328 139.369 103.217 142.949C109.866 146.529 118.688 138.154 125.401 125.816C132.049 113.478 137.036 99.7968 130.451 96.2168C123.802 92.5729 111.848 102.993 105.199 115.331Z" fill="#323C46"/>
<path d="M113.382 124.985C106.734 137.323 104.816 149.022 111.4 152.602C118.049 156.182 126.871 147.807 133.584 135.469C140.232 123.131 145.219 109.45 138.634 105.87C131.985 102.29 120.031 112.646 113.382 124.985Z" fill="#335267"/>
<path d="M47.0882 112.646C41.1429 119.039 39.225 125.432 37.3711 142.118C37.1154 147.36 39.4168 167.369 46.5768 176.128C55.5907 187.187 61.8557 188.594 63.9014 187.89C66.0111 187.187 68.76 181.625 68.76 181.625L68.6961 181.306C72.4679 182.456 76.4314 183.032 80.5229 183.032C84.87 183.032 89.0893 182.329 93.0529 181.05C93.5004 181.881 96.4411 187.187 98.295 187.826C100.405 188.53 109.419 185.014 118.433 173.89C134.67 148.766 129.3 112.519 114.916 99.605C119.711 91.2304 122.652 90.9746 123.994 75.6957C125.337 60.4168 118.688 27.8771 81.6096 29.795C47.2161 31.5211 40.4396 71.2207 54.7596 86.2439C59.4904 91.55 52.3943 107.916 47.0882 112.646Z" fill="#3F7494"/>
<path d="M104.368 95.7054C102.514 107.852 118.624 154.52 77.0068 154.456C65.8832 154.008 26.8868 145.634 56.3578 92.8925C63.5818 89.8239 45.5539 49.7407 77.5182 49.8686C85.1257 51.275 117.857 45.9689 116.834 61.3757C116.515 78.2529 105.775 86.6914 104.368 95.7054Z" fill="white"/>
<path d="M67.3536 174.657C56.4857 172.1 46.8964 180.411 39.225 175.296C42.4214 160.593 34.1107 145.825 34.1107 137.579C34.1107 115.523 34.4943 107.532 45.6179 107.532C51.8189 107.532 59.4264 115.651 62.8786 126.071C66.7143 137.579 67.9929 163.789 67.3536 174.657Z" fill="#323232"/>
<path d="M116.962 59.1382C116.962 71.6043 109.291 82.8557 96.8246 82.8557C84.3585 82.8557 78.9885 64.1246 66.3307 62.0789C61.2803 61.3118 56.0382 87.3307 53.545 82.8557C41.9739 65.7229 46.6407 49.4211 57.3807 40.7268C62.2392 38.2975 67.4814 45.5214 73.7464 46.8C80.9703 48.2704 88.8974 38.4254 102.003 39.7679C110.122 40.5989 116.962 51.9782 116.962 59.1382Z" fill="#CFECF5"/>
<path d="M55.7185 69.6864C59.4903 69.6864 62.6228 66.6179 62.6228 62.7821C62.6228 59.0104 59.5542 55.8779 55.7185 55.8779C51.8828 55.9418 48.8142 59.0104 48.8142 62.7821C48.8142 66.6179 51.8828 69.6864 55.7185 69.6864Z" fill="#161616"/>
<path d="M64.1572 89.5043C64.1572 96.025 46.8325 123.45 45.554 133.935C51.6911 127.606 88.1943 89.8239 88.1943 83.3032C88.1943 76.7825 82.5686 78.5086 76.0479 78.5086C69.5272 78.5086 64.1572 82.9836 64.1572 89.5043Z" fill="#E07A15"/>
<path d="M54.44 66.8096C55.9743 66.8096 57.125 65.595 57.125 64.1246C57.125 62.6543 55.9104 61.4396 54.44 61.4396C52.9057 61.4396 51.755 62.6543 51.755 64.1246C51.755 65.595 52.9057 66.8096 54.44 66.8096Z" fill="white"/>
<path d="M32.3846 106.126C27.59 122.875 31.8732 136.684 37.3071 142.181C44.6589 144.93 53.0975 106.318 77.5821 86.6914C81.5457 83.3671 83.5914 81.9607 86.5321 81.7689C77.9018 88.6732 64.9882 101.779 58.02 111.688C53.1614 118.592 40.0561 139.496 46.2571 140.455C47.7914 140.711 55.335 117.185 87.4271 95.6414C90.1761 91.7418 92.7971 86.7554 89.1532 79.915C86.9796 75.8875 86.66 75.7596 82.7604 67.385C80.5229 62.5264 80.5868 47.4393 73.3629 45.7132C67.8011 44.3707 56.0382 58.6268 49.965 66.6179C40.7593 78.7004 36.2204 92.9564 32.3846 106.126Z" fill="#F8C06D"/>
<path d="M52.6499 119.103C45.8096 131.25 41.7181 147.679 37.3071 144.611C32.896 141.542 23.946 132.912 33.4714 102.418C35.7089 114.948 35.9646 123.514 52.6499 119.103Z" fill="#AB5930"/>
<path d="M94.0757 70.07C97.8475 70.07 100.98 67.0014 100.98 63.1657C100.98 59.3939 97.9114 56.2614 94.0757 56.2614C90.3039 56.2614 87.1714 59.33 87.1714 63.1657C87.1714 66.9375 90.3039 70.07 94.0757 70.07Z" fill="#161616"/>
<path d="M92.4775 67.5129C94.0118 67.5129 95.1625 66.2982 95.1625 64.8279C95.1625 63.3575 93.9478 62.1429 92.4775 62.1429C90.9432 62.1429 89.7925 63.3575 89.7925 64.8279C89.7925 66.2982 90.9432 67.5129 92.4775 67.5129Z" fill="white"/>
<path d="M83.3357 140.136C83.3357 162.191 87.1714 162.511 85.8928 175.296C94.8428 179.132 106.094 172.547 115.939 173.379C123.227 173.954 128.15 174.465 131.921 175.296C136.588 168.776 127.446 149.086 129.364 138.857C133.456 117.185 121.693 99.8607 115.3 99.2214C109.099 99.2214 100.788 109.578 94.2035 118.4C88.9614 125.432 83.3357 130.355 83.3357 140.136Z" fill="#323232"/>
<path opacity="0.6" d="M86.8517 83.8786C94.7957 83.8786 101.236 77.4387 101.236 69.4946C101.236 61.5506 94.7957 55.1107 86.8517 55.1107C78.9077 55.1107 72.4678 61.5506 72.4678 69.4946C72.4678 77.4387 78.9077 83.8786 86.8517 83.8786Z" fill="#CFECF5"/>
<path d="M88.0663 88.0979C85.1256 88.0979 82.2488 87.3946 79.5638 86.1161C74.961 83.8146 71.5728 79.915 69.9106 75.0564C68.2485 70.1979 68.6321 65.0196 70.8696 60.4168C73.171 55.8139 77.0706 52.4257 81.9292 50.7636C86.7878 49.1014 91.966 49.485 96.5688 51.7864C101.172 54.0879 104.56 57.9875 106.222 62.8461C107.884 67.7046 107.501 72.8829 105.263 77.4857C103.026 82.0886 99.0621 85.4768 94.2035 87.1389C92.2217 87.7782 90.1121 88.0979 88.0663 88.0979ZM87.0435 56.1336C85.5731 56.1336 84.0388 56.3893 82.6324 56.8368C79.1163 57.9875 76.3035 60.4807 74.6413 63.805C72.9792 67.1293 72.7235 70.9011 73.9381 74.3532C75.0888 77.8693 77.5821 80.6821 80.9063 82.3443C84.2306 84.0064 88.0024 84.2621 91.4546 83.0475C94.9706 81.8968 97.7835 79.4036 99.4456 76.0793C101.108 72.755 101.363 68.9832 100.149 65.5311C98.9981 62.015 96.5049 59.2021 93.1806 57.54C91.1988 56.645 89.1531 56.1336 87.0435 56.1336Z" fill="#161616"/>
<path d="M83.3357 140.136C83.3357 145.058 83.4636 148.958 83.6553 152.154C87.8107 136.939 99.9571 136.3 101.875 133.104C103.793 129.907 98.1032 123.962 99.3178 122.236C101.619 118.911 107.181 121.724 108.907 116.482C110.186 112.646 111.464 101.779 114.661 99.2214C108.46 99.2214 100.788 109.578 94.2036 118.4C88.9614 125.432 83.3357 130.355 83.3357 140.136Z" fill="#7D7D7D"/>
<path d="M78.8607 90.7829C64.7964 96.9839 38.33 100.372 17.4893 100.372C22.0921 115.012 34.3664 147.104 25.9278 167.945C31.5535 172.42 85.5732 169.735 87.8107 166.346C95.0985 155.351 84.4864 100.884 78.8607 90.7829Z" fill="#EBEBEB"/>
<path d="M44.3392 127.606C44.3392 136.236 29.5717 150.172 24.905 141.798C23.2428 138.857 21.0692 126.519 22.2839 123.259C23.1789 120.829 25.5442 119.231 25.736 120.574C32.4485 125.368 44.3392 121.149 44.3392 127.606Z" fill="#3F7494"/>
<path d="M97.0505 82.9032L89.4781 85.4548L97.9289 110.534L105.501 107.983L97.0505 82.9032Z" fill="#161616"/>
<path d="M131.73 129.907C130.899 135.021 124.122 139.113 115.492 134.958C106.734 130.738 90.3039 109.386 90.6875 101.267C90.7514 99.9886 92.925 98.71 94.0118 98.8379C94.5871 100.116 95.1625 101.459 95.1625 101.459C102.195 101.587 116.131 106.381 121.629 110.92C129.045 116.994 133.072 122.108 131.73 129.907Z" fill="#3F7494"/>
<path opacity="0.1" d="M122.907 44.8182C121.501 53.7682 112.104 60.3529 81.6096 61.6954C51.6271 63.0379 36.6039 48.1425 39.6724 42.9643" fill="#323C46"/>
<path d="M122.907 44.8182C121.501 53.7682 92.2217 59.8414 72.4678 58.3711C49.5814 56.645 36.6039 48.1425 39.6724 42.9643C44.7867 34.3979 60.0656 32.6718 83.016 32.6718C105.966 32.7357 124.314 35.8043 122.907 44.8182Z" fill="#323232"/>
<path d="M113.382 36.4436C116.642 44.8182 96.3131 46.6082 83.0799 46.6082C69.8467 46.6082 50.796 44.8821 52.9056 36.1239C59.8099 24.9364 66.0749 12.9179 70.5499 12.9179C75.0249 12.9179 78.9246 19.5025 82.3128 19.5025C85.701 17.4568 89.7285 12.9179 94.2035 12.9179C97.3999 12.9179 110.25 28.3246 113.382 36.4436Z" fill="#323232"/>
<path d="M113.382 35.7404C102.067 50.8914 54.6318 45.2657 52.8418 36.1239C54.3761 33.1193 55.7186 31.7768 55.7186 31.7768C62.1754 36.1239 71.1893 37.9139 82.185 38.3614C92.7332 38.8089 103.218 37.2746 112.295 33.8225C112.359 34.7175 113.382 35.7404 113.382 35.7404Z" fill="#161616"/>
</g>
</svg>
