<svg width="48" height="48" viewBox="0 0 48 48" fill="none" xmlns="http://www.w3.org/2000/svg">
<g clip-path="url(#clip0_671_24743)">
<path d="M26.1751 4.5C36.7501 4.5 45.3751 13.125 45.3751 23.7C45.3751 29.25 42.9751 34.275 39.2251 37.8C37.9501 39 33.7501 38.7 31.2001 39.525C27.6751 40.725 25.2751 42.9 24.7501 42.9C14.8501 42.15 6.9751 33.9 6.9751 23.7C6.9751 13.125 15.6001 4.5 26.1751 4.5Z" fill="#6C0000"/>
<path d="M30.375 9.75C30.7892 9.75 31.125 9.41421 31.125 9C31.125 8.58579 30.7892 8.25 30.375 8.25C29.9608 8.25 29.625 8.58579 29.625 9C29.625 9.41421 29.9608 9.75 30.375 9.75Z" fill="#F3B761"/>
<path d="M12 31.5C12.8284 31.5 13.5 30.8284 13.5 30C13.5 29.1716 12.8284 28.5 12 28.5C11.1716 28.5 10.5 29.1716 10.5 30C10.5 30.8284 11.1716 31.5 12 31.5Z" fill="#F3B761"/>
<path d="M17.7 7.42578C18.3213 7.42578 18.825 6.9221 18.825 6.30078C18.825 5.67946 18.3213 5.17578 17.7 5.17578C17.0786 5.17578 16.575 5.67946 16.575 6.30078C16.575 6.9221 17.0786 7.42578 17.7 7.42578Z" fill="#C93C33"/>
<path d="M19.725 28.2756C20.0149 28.2756 20.25 28.0405 20.25 27.7506C20.25 27.4606 20.0149 27.2256 19.725 27.2256C19.435 27.2256 19.2 27.4606 19.2 27.7506C19.2 28.0405 19.435 28.2756 19.725 28.2756Z" fill="#C93C33"/>
<path d="M34.35 6.82539C34.6399 6.82539 34.875 6.59034 34.875 6.30039C34.875 6.01044 34.6399 5.77539 34.35 5.77539C34.06 5.77539 33.825 6.01044 33.825 6.30039C33.825 6.59034 34.06 6.82539 34.35 6.82539Z" fill="#F7D8D7"/>
<path d="M24.825 11.25C25.4463 11.25 25.9499 10.7463 25.9499 10.125C25.9499 9.50368 25.4463 9 24.825 9C24.2036 9 23.7 9.50368 23.7 10.125C23.7 10.7463 24.2036 11.25 24.825 11.25Z" fill="#F7D8D7"/>
<path d="M13.5 26.5508C13.9142 26.5508 14.25 26.215 14.25 25.8008C14.25 25.3866 13.9142 25.0508 13.5 25.0508C13.0858 25.0508 12.75 25.3866 12.75 25.8008C12.75 26.215 13.0858 26.5508 13.5 26.5508Z" fill="#F7D8D7"/>
<path d="M19.3501 41.7008C21.2251 42.4508 23.2501 42.8258 25.4251 42.9758C25.6501 42.9758 30.1501 40.3508 32.1751 39.6008C33.9751 38.9258 36.3751 40.2008 37.8751 39.0008C40.2751 37.2008 42.1501 34.8008 43.5001 32.1008C43.2751 30.9008 44.6251 29.5508 44.4751 24.3758C44.3251 19.0508 39.2251 13.4258 33.8251 13.4258C28.5001 13.4258 18.6751 22.4258 22.9501 25.6508C23.7751 26.2508 24.6001 26.9258 24.8251 28.2008C25.2751 30.5258 24.6751 32.6258 23.7001 34.1258C22.8001 35.4008 20.1751 38.7008 19.3501 41.7008Z" fill="#296F8E"/>
<path d="M42.6 20.1002C41.85 15.6002 36 13.2002 33.675 12.7502C29.475 12.0002 24.6 23.7752 22.35 24.7502C21.525 25.1252 24.675 26.5502 25.275 28.7252C26.775 33.1502 23.4 35.0252 23.4 38.4002C23.4 40.2002 24.15 41.7752 25.35 42.8252C25.575 42.8252 25.875 42.8252 26.1 42.8252C30.45 42.8252 34.5 41.4002 37.725 38.9252C39 35.2502 38.85 30.8252 39.15 28.8752C39.6 26.2502 43.425 24.9752 42.6 20.1002Z" fill="white"/>
<path d="M42.975 21.3006C42.975 25.0506 40.65 27.7506 36.9 27.7506C30.6 27.7506 30.525 21.3006 27.75 20.9256C27.75 17.1756 29.625 11.7756 33.3 12.5256C37.5 13.3506 42.975 16.7256 42.975 21.3006Z" fill="#CAE4ED"/>
<path d="M27.2249 22.6507C27.2249 23.4007 25.5749 25.4257 23.0249 25.4257C11.9999 21.1507 5.09987 24.0007 4.87487 23.6257C4.12487 22.1257 12.75 20.9257 15.7499 20.7757C18.7499 20.6257 21.0749 20.1007 23.1749 20.7757C23.9249 21.0007 26.5499 19.8007 27.3749 20.1757C28.1999 20.4757 27.2249 22.5007 27.2249 22.6507Z" fill="#D6801C"/>
<path d="M11.25 11.1003C6.22498 12.8253 1.49998 16.8003 2.09998 19.9503C2.47498 21.7503 13.125 18.0753 22.275 20.7003C23.475 21.0753 25.5 21.3003 27.6 20.9253C24.825 23.2503 18.8999 22.2003 14.3999 21.9003C9.89994 21.6003 3.67494 22.2753 4.49994 24.0003C4.72494 24.4503 12 21.1503 22.95 25.4253C24.375 25.4253 26.1 25.2003 27.15 23.1003C28.125 21.1503 28.65 18.9003 33.225 12.5253C25.125 9.60028 17.85 8.77528 11.25 11.1003Z" fill="#F3B761"/>
<path d="M11.175 19.8758C6.975 20.2508 1.5 21.5258 1.5 19.8758C1.5 18.2258 2.775 13.7258 12 10.8008C9.3 13.5758 7.2 16.5008 11.175 19.8758Z" fill="#854400"/>
<path d="M34.3499 22.4254C35.6249 22.4254 36.6749 21.3754 36.6749 20.1004C36.6749 18.8254 35.6249 17.7754 34.3499 17.7754C33.0749 17.7754 32.0249 18.8254 32.0249 20.1004C32.0249 21.3754 33.0749 22.4254 34.3499 22.4254Z" fill="#161616"/>
<path d="M33.375 20.4752C33.825 20.4752 34.2 20.1002 34.2 19.6502C34.2 19.2002 33.825 18.8252 33.375 18.8252C32.925 18.8252 32.55 19.2002 32.55 19.6502C32.55 20.1002 32.925 20.4752 33.375 20.4752Z" fill="white"/>
<path d="M24.8249 27.6758C24.9749 31.3508 23.3999 36.8258 20.4749 35.7758C16.9499 34.4258 16.6499 30.5258 15.3749 31.1258C13.6499 31.9508 14.0999 36.2258 15.5249 39.6758C17.6249 41.1008 20.0249 42.0758 22.5749 42.6008C22.4999 41.0258 22.5749 39.6758 22.8749 38.9258C24.0749 36.2258 23.5499 36.0008 23.5499 36.0008C23.5499 36.0008 27.2999 32.2508 24.8249 27.6758Z" fill="#296F8E"/>
<path d="M35.0249 25.0508C36.6818 25.0508 38.0249 24.2113 38.0249 23.1758C38.0249 22.1402 36.6818 21.3008 35.0249 21.3008C33.368 21.3008 32.0249 22.1402 32.0249 23.1758C32.0249 24.2113 33.368 25.0508 35.0249 25.0508Z" fill="#CAE4ED"/>
<path d="M33.675 12.5252C36.225 10.1252 46.05 3.8252 46.05 3.8252C46.05 3.8252 44.625 15.9752 43.5 20.3252C38.625 18.8252 34.5 15.9752 33.675 12.5252Z" fill="#E99690"/>
<path d="M44.325 16.3502C42.15 14.9252 39.075 12.1502 38.25 9.0752C37.275 9.7502 36.75 10.1252 35.925 10.7252C36.45 11.9252 37.5 13.5002 39.45 15.0002C41.325 16.4252 42.825 17.4002 43.95 17.9252C44.1 17.4002 44.175 16.8752 44.325 16.3502Z" fill="#F7D8D7"/>
<path d="M45 12.15C45.15 11.325 45.225 10.575 45.3 9.75C44.925 9.675 44.4 9.6 43.875 9.525C42.15 9.15 40.8 8.4 39.9 7.875C39.6 8.1 39.3 8.25 39 8.475C40.35 10.275 43.125 11.475 45 12.15Z" fill="#F7D8D7"/>
<path d="M46.05 5.10039C46.5884 5.10039 47.025 4.66387 47.025 4.12539C47.025 3.58691 46.5884 3.15039 46.05 3.15039C45.5115 3.15039 45.075 3.58691 45.075 4.12539C45.075 4.66387 45.5115 5.10039 46.05 5.10039Z" fill="#F7D8D7"/>
</g>
<defs>
<clipPath id="clip0_671_24743">
<rect width="48" height="48" fill="white"/>
</clipPath>
</defs>
</svg>
