<svg width="31" height="24" viewBox="0 0 31 24" fill="none" xmlns="http://www.w3.org/2000/svg">
<path d="M27.1614 6.09625C27.1796 6.34889 27.1796 6.60152 27.1796 6.85648C27.1796 14.6253 21.0344 23.5851 9.79771 23.5851V23.5804C6.47835 23.5851 3.22795 22.67 0.433594 20.9447C0.916255 21.0005 1.40134 21.0285 1.88763 21.0296C4.63843 21.032 7.31061 20.1437 9.47472 18.508C6.86061 18.4602 4.56827 16.8198 3.76746 14.4251C4.68319 14.595 5.62674 14.5601 6.52553 14.3238C3.67553 13.7696 1.62513 11.3597 1.62513 8.5609C1.62513 8.53528 1.62513 8.51083 1.62513 8.48639C2.47432 8.9416 3.42513 9.19423 4.39771 9.22217C1.71343 7.49564 0.886013 4.05887 2.50698 1.37186C5.60859 5.04496 10.1848 7.27793 15.0973 7.51427C14.605 5.47223 15.2775 3.3324 16.8646 1.89693C19.3251 -0.329055 23.1949 -0.214961 25.5078 2.15189C26.8759 1.89227 28.1872 1.40912 29.3872 0.724561C28.9312 2.08553 27.9767 3.2416 26.7017 3.97622C27.9126 3.83884 29.0957 3.52683 30.2098 3.05066C29.3896 4.23351 28.3566 5.26384 27.1614 6.09625Z" fill="#1D9BF0"/>
</svg>
