<svg width="40" height="40" viewBox="0 0 40 40" fill="none" xmlns="http://www.w3.org/2000/svg">
<path d="M35.6174 12.2636C35.246 10.8799 34.1556 9.79245 32.768 9.42204C30.2557 8.75 20.1768 8.75 20.1768 8.75C20.1768 8.75 10.0981 8.75 7.58569 9.42204C6.19818 9.79245 5.10779 10.8799 4.73637 12.2636C4.0625 14.7692 4.0625 20 4.0625 20C4.0625 20 4.0625 25.2308 4.73637 27.7364C5.10779 29.1202 6.19818 30.2076 7.58569 30.5779C10.0981 31.25 20.1768 31.25 20.1768 31.25C20.1768 31.25 30.2557 31.25 32.768 30.5779C34.1556 30.2076 35.246 29.1202 35.6174 27.7364C36.2913 25.2308 36.2913 20 36.2913 20C36.2913 20 36.2886 14.7692 35.6174 12.2636Z" fill="#FF0000"/>
<path d="M16.9507 24.8213L25.3236 20.0006L16.9507 15.1799V24.8213Z" fill="white"/>
</svg>
