<svg width="1920" height="1080" viewBox="0 0 1920 1080" fill="none" xmlns="http://www.w3.org/2000/svg">
<g clip-path="url(#clip0)">
<rect width="1920" height="1080" fill="white"/>
<mask id="mask0" mask-type="alpha" maskUnits="userSpaceOnUse" x="0" y="-208" width="1920" height="1366">
<rect y="-208" width="1920" height="1365.33" fill="url(#paint0_linear)"/>
</mask>
<g mask="url(#mask0)">
<rect y="-208" width="1920" height="1365.33" fill="url(#paint1_linear)"/>
<path d="M-128.12 692.384C-112.245 724.113 -8.76477 725.808 -11.005 768.252C-48.9598 748.604 -93.7863 791.737 -140.695 740.359C-158.04 783.352 -119.626 811.062 -119.503 842.192C-35.0275 887.088 32.0183 809.326 61.0713 846.438C21.5973 838.735 -29.959 908.515 -105.145 872.282C-122.224 910.273 -65.0885 919.178 -53.2383 963.152C8.17084 1008.49 154.572 904.999 169.001 917.023C120.819 939.849 117.109 1009.87 -1.38412 1004.83C61.0852 1030.16 41.2321 1087.03 112.868 1089.9C171.893 1085.24 229.138 941.552 285.639 957.079C224.774 990.447 219.104 1092.1 143.705 1110.06C185.74 1153.08 249.781 1120.65 280.017 1168.88C297.238 1094.76 370.483 1095.36 362.008 1004.44C444.046 1045.15 714.676 1077.97 821.725 997.905C840.182 984.101 840.608 970.718 840.608 970.718C512.341 1116.41 228.22 925.426 57.8394 762.251C184.09 854.883 344.109 944.991 421.898 966.705C488.962 927.403 459.53 848.1 504.154 797.254C519.327 745.078 435.079 734.692 418.619 677.353C413.195 746.255 348.994 787.066 339.879 858.728C325.203 784.445 405.955 715.645 388.084 612.673C344.725 594.666 339.108 555.493 282.043 528.523C323.722 661.866 246.928 722.903 250.406 774.34C205.882 677.948 300.727 644.24 249.758 502.234C208.5 511.476 149.759 443.874 85.4869 502.751C155.566 557.069 123.437 678.366 151.978 753.231C98.0565 705.754 129.197 586.397 72.1695 519.916C43.5381 530.377 9.82323 525.716 -11.989 519.213C29.4257 562.547 43.7651 659.898 48.3035 691.328C24.2671 626.447 -9.13022 570.969 -55.3674 568.468C-95.1064 565.766 -112.645 595.695 -151.66 596.054C-116.744 639.588 -147.353 653.931 -128.12 692.384Z" fill="url(#paint2_linear)"/>
<path d="M-436.804 13.4965C-347.933 11.1146 -235.75 25.3726 -135.739 46.1157C-109.028 9.27923 -24.5674 -99.8419 38.6031 -98.7308C97.9508 -97.6892 213.609 -38.1558 244.036 -17.913C203.456 15.6913 143.189 81.8754 127.436 126.118C186.339 69.88 244.179 31.4775 280.365 19.8236C312.26 9.54591 448.55 130.131 451.723 167.517C421.137 188.776 387.22 214.15 369.047 240.728C350.875 267.305 432.036 200.097 467.46 214.167C526.65 256.71 537.232 351.035 576.742 380.712C574.013 400.604 553.572 413.462 553.572 413.462C553.572 413.462 560.838 421.01 579.764 414.154C584.301 441.594 572.792 459.941 596.406 484.47C488.308 485.819 214.023 200.908 88.0618 191.277C83.3737 159.893 46.7431 114.267 46.7431 114.267C46.7431 114.267 58.2448 141.366 48.7027 165.545C-19.569 113.567 -94.5187 160.712 -139.389 84.3308C-222.583 50.4137 -369.889 29.9743 -432.568 33.0478C-432.568 33.0478 -444.982 27.7288 -436.804 13.4965Z" fill="url(#paint3_linear)"/>
<path d="M2143.79 -780.683C2119.44 -685.267 2074.36 -569.935 2027.5 -469.497C2050.18 -430.117 2115.8 -307.779 2096.16 -240.786C2077.71 -177.847 1994 -72.2262 1968.17 -45.7962C1952.28 -98.9986 1915.17 -182.834 1883.09 -212.729C1912.35 -133.294 1927.11 -60.276 1926.07 -18.2595C1925.15 18.7765 1784.62 128.298 1752.63 120.603C1744.03 81.7095 1733.01 38.0461 1716.32 10.8059C1699.63 -16.4343 1731.4 89.9706 1709.22 123.555C1656.35 174.03 1574.87 157.363 1538.52 190.677C1522.8 181.876 1518.18 156.283 1518.18 156.283C1518.18 156.283 1509.76 161.79 1509.85 183.991C1485.71 180.697 1473.88 162.996 1446.51 180.895C1477.42 65.2934 1795.32 -142.609 1840.63 -273.995C1868.09 -269.693 1916.84 -295.214 1916.84 -295.214C1916.84 -295.214 1890.92 -290.985 1873.67 -308.317C1937.06 -365.676 1920.11 -459.518 1996.84 -484.709C2049.66 -563.321 2110.28 -714.253 2126.29 -781.961C2126.29 -781.961 2134.39 -793.615 2143.79 -780.683Z" fill="url(#paint4_linear)"/>
<path d="M1898.51 353.028C1852.72 403.008 1838.56 422.862 1819.24 432.178C1791 427.043 1755.84 411.988 1714.36 397.905C1554.53 343.667 1451.77 483.086 1415.25 583.671C1382.16 674.769 1346.3 753.496 1233.33 924.089C1326.98 880.137 1398.58 950.288 1476.81 972.783C1772.62 1057.82 1922.68 855.533 1940.37 643.793C1867.19 581.835 1881.27 535.676 1877.01 476.175C1751.73 661.708 1539.6 754.7 1539.6 754.7C1539.6 754.7 1679.35 672.527 1757.53 575.088C1817.87 499.889 1874.42 437.596 1874.42 437.596C1874.42 437.596 2106.74 130.122 2058.26 100.576C2058.26 100.576 1944.29 303.048 1898.51 353.028Z" fill="url(#paint5_linear)"/>
<path d="M811.422 1014.42C879 1010.83 913.425 1033.34 913.425 1033.34C913.425 1033.34 905.537 973.37 746.505 886.231C724.517 819.847 645.421 704.872 563.232 630.039C690.303 611.946 1255.94 792.127 1058.38 1440.16C1070.23 1343.9 918.771 1095.87 811.422 1014.42Z" fill="url(#paint6_linear)"/>
<path d="M1044.63 -88.0626C1042.73 -96.0855 1013.64 -217.863 984.348 -281.275C1015.49 -248.163 1028.77 -199.502 1033.43 -177.308C1075.85 -246.674 1086.27 -376.751 936.461 -464.755C889.745 -419.512 956.475 -313.946 909.759 -253.65C942.831 -172.703 968.507 -158.615 997.601 -156.161C1006.63 -135.594 1013.61 -107.582 1016.39 -78.799C803.734 -261.976 562.346 -43.8399 556 221.359C654.849 129.522 710.791 248.46 784.208 195.691C792.799 34.184 937.12 54.0622 964.822 -65.7031C945.955 -73.9742 874.539 -101.682 801.293 -82.7691C881.837 -126.882 989.229 -82.7691 1016.08 -49.6848C967.263 71.6244 987.984 186.62 1056.62 236.44C1069.97 364.614 1153 421.932 1250.19 500.342C1419.97 194.919 1352.75 -36.8646 1082.12 -56.3844C1130.65 12.3759 1197.03 112.125 1206.48 245.317C1162.55 63.3533 1054.03 -57.1563 1054.03 -57.1563C1054.03 -57.1563 1054.23 -57.3493 1054.62 -57.6526C1054.57 -57.6526 1054.49 -57.6526 1054.45 -57.6526C1121.03 -198.564 1257.71 -267.49 1396.83 -267.49C1284.14 -248.963 1192.1 -183.842 1165.45 -163.412C1229.27 -145.712 1298.05 -89.4135 1403.69 -110.395C1450.4 -223.488 1570.56 -148.083 1650.67 -261.204C1459.63 -470.021 1130.79 -394.313 1044.63 -88.0626Z" fill="url(#paint7_linear)"/>
</g>
<g opacity="0.32" filter="url(#filter0_f)">
<ellipse cx="1478.5" cy="867.5" rx="101.5" ry="30.5" fill="#A5BCBB"/>
</g>
<g clip-path="url(#clip1)">
<path d="M1543.41 690.245C1528.75 712.969 1523.27 735.099 1535.44 742.974C1547.61 750.848 1565.91 736.158 1580.57 713.434C1595.24 690.71 1606.91 665.163 1594.74 657.289C1582.59 649.415 1558.08 667.536 1543.41 690.245Z" fill="#1A3748"/>
<path d="M1557.6 710.13C1542.93 732.854 1537.46 754.985 1549.62 762.859C1561.79 770.733 1580.09 756.043 1594.76 733.319C1609.42 710.595 1621.09 685.049 1608.92 677.174C1596.76 669.3 1572.25 687.406 1557.6 710.13Z" fill="#23526D"/>
<path d="M1389.56 707.484C1382.08 718.694 1359.27 746.502 1354.87 770.012C1351.62 787.347 1358.28 803.689 1364.47 803.689C1368.6 803.689 1364.47 790.859 1375.33 781.51C1374.78 793.682 1375.2 825.066 1391.69 845.385C1412.5 871.043 1426.91 874.251 1431.71 872.647C1436.52 871.043 1442.92 858.214 1442.92 858.214L1442.81 857.412C1451.47 860.01 1460.64 861.421 1470.14 861.421C1480.24 861.421 1489.97 859.834 1499.11 856.915C1500.17 858.904 1506.86 871.172 1511.28 872.647C1516.08 874.251 1530.49 871.043 1551.31 845.385C1559.97 834.704 1577.4 803.689 1577.4 803.689C1574.65 800.016 1571.38 789.544 1569.09 781.237C1576.09 791.052 1583.58 800.113 1593.41 802.085C1601.42 803.689 1608.94 802.229 1607.82 787.652C1606.28 767.734 1572.31 724.371 1548.58 704.261C1527.77 686.62 1548.58 688.224 1546.98 633.699C1545.78 592.981 1509.22 550.307 1468.54 550.307C1427.85 550.307 1351.15 618.881 1383.68 643.321C1390.09 648.132 1396.35 652.975 1398.09 662.565C1401.29 680.205 1397.04 696.29 1389.56 707.484Z" fill="#2E6788"/>
<path d="M1506.96 668.98C1502.65 697.06 1511.76 790.859 1433.31 787.652C1407.7 786.61 1386.89 766.836 1386.89 741.145C1386.89 715.454 1407.7 689.828 1401.29 667.376C1396.46 650.409 1372.62 639.568 1378.88 636.906C1395.63 629.786 1434.74 538.023 1466.93 543.893C1484.55 547.1 1526.65 567.515 1532.57 601.625C1538.98 638.51 1510.16 648.132 1506.96 668.98Z" fill="#F7F7F7"/>
<path d="M1535.78 610.445C1535.78 639.231 1518.09 659.358 1489.35 659.358C1460.61 659.358 1452.53 622.473 1418.91 611.247C1418.91 582.461 1433.95 538.248 1462.13 543.893C1494.15 550.307 1535.78 575.966 1535.78 610.445Z" fill="#DFF6FD"/>
<path d="M1415.7 620.869C1415.7 626.627 1403.14 641.717 1383.68 641.717C1300.43 609.644 1244.4 625.68 1242.8 622.473C1236.31 609.483 1317.8 601.625 1337.26 601.625C1356.84 601.625 1369.18 601.481 1385.28 606.436C1391.06 608.216 1411.14 598.755 1417.3 601.625C1423.47 604.496 1415.7 619.667 1415.7 620.869Z" fill="#E79541"/>
<path d="M1294.38 532.859C1256.31 545.961 1215.58 575.966 1220.38 600.022C1223.15 613.877 1315.64 586.118 1385.28 606.436C1394.41 609.098 1402.9 611.247 1418.91 608.04C1396.49 622.473 1346.01 606.436 1318.04 606.436C1298.59 606.436 1236.31 609.483 1242.8 622.473C1244.4 625.68 1300.43 609.644 1383.68 641.717C1394.75 641.717 1407.7 640.114 1415.7 624.077C1423.23 608.986 1426.91 592.003 1462.13 543.893C1399.69 521.441 1344.49 515.62 1294.38 532.859Z" fill="#F6C351"/>
<path d="M1294.03 600.021C1262.01 603.229 1220.38 612.418 1220.38 600.021C1220.38 587.625 1229.99 553.515 1300.43 531.063C1279.62 551.911 1263.61 574.362 1294.03 600.021Z" fill="#C16E31"/>
<path d="M1469.88 619.009C1479.61 619.009 1487.49 611.111 1487.49 601.369C1487.49 591.626 1479.61 583.728 1469.88 583.728C1460.15 583.728 1452.27 591.626 1452.27 601.369C1452.27 611.111 1460.15 619.009 1469.88 619.009Z" fill="#1A3748"/>
<path d="M1462.68 604.576C1466.21 604.576 1469.08 601.704 1469.08 598.161C1469.08 594.618 1466.21 591.746 1462.68 591.746C1459.14 591.746 1456.27 594.618 1456.27 598.161C1456.27 601.704 1459.14 604.576 1462.68 604.576Z" fill="#F7F7F7"/>
</g>
</g>
<defs>
<filter id="filter0_f" x="1347" y="807" width="263" height="121" filterUnits="userSpaceOnUse" color-interpolation-filters="sRGB">
<feFlood flood-opacity="0" result="BackgroundImageFix"/>
<feBlend mode="normal" in="SourceGraphic" in2="BackgroundImageFix" result="shape"/>
<feGaussianBlur stdDeviation="15" result="effect1_foregroundBlur"/>
</filter>
<linearGradient id="paint0_linear" x1="960" y1="-1330.17" x2="960" y2="1213.22" gradientUnits="userSpaceOnUse">
<stop stop-color="#5EC1BC"/>
<stop offset="1" stop-color="white"/>
</linearGradient>
<linearGradient id="paint1_linear" x1="960" y1="-1330.17" x2="960" y2="1213.22" gradientUnits="userSpaceOnUse">
<stop stop-color="#5EC1BC"/>
<stop offset="1" stop-color="white"/>
</linearGradient>
<linearGradient id="paint2_linear" x1="354.784" y1="71.2037" x2="362.604" y2="1117.23" gradientUnits="userSpaceOnUse">
<stop stop-color="white"/>
<stop offset="1" stop-color="white" stop-opacity="0"/>
</linearGradient>
<linearGradient id="paint3_linear" x1="719.926" y1="401.119" x2="-354.24" y2="170.175" gradientUnits="userSpaceOnUse">
<stop stop-color="white" stop-opacity="0.72"/>
<stop offset="1" stop-color="white" stop-opacity="0"/>
</linearGradient>
<linearGradient id="paint4_linear" x1="1479.15" y1="337.226" x2="2143.92" y2="-633.109" gradientUnits="userSpaceOnUse">
<stop stop-color="white" stop-opacity="0.6"/>
<stop offset="1" stop-color="white" stop-opacity="0"/>
</linearGradient>
<linearGradient id="paint5_linear" x1="1386.67" y1="149.947" x2="2016.31" y2="520.93" gradientUnits="userSpaceOnUse">
<stop stop-color="#F9FDFD"/>
<stop offset="1" stop-color="#FBFEFE" stop-opacity="0"/>
</linearGradient>
<linearGradient id="paint6_linear" x1="488.709" y1="776.25" x2="1209.52" y2="1143.64" gradientUnits="userSpaceOnUse">
<stop stop-color="#EFF9F8"/>
<stop offset="1" stop-color="#F0F9F9" stop-opacity="0"/>
</linearGradient>
<linearGradient id="paint7_linear" x1="1103.33" y1="-869.933" x2="1103.33" y2="500.342" gradientUnits="userSpaceOnUse">
<stop stop-color="white"/>
<stop offset="1" stop-color="white" stop-opacity="0"/>
</linearGradient>
<clipPath id="clip0">
<rect width="1920" height="1080" fill="white"/>
</clipPath>
<clipPath id="clip1">
<rect x="1220" y="514" width="394" height="359" fill="white"/>
</clipPath>
</defs>
</svg>
