<svg width="1920" height="1080" viewBox="0 0 1920 1080" fill="none" xmlns="http://www.w3.org/2000/svg">
<g clip-path="url(#clip0)">
<rect width="1920" height="1080" fill="white"/>
<g clip-path="url(#clip1)">
<rect y="-254" width="1920" height="1365" fill="white"/>
<rect x="-11" y="-2" width="1931" height="1024" fill="url(#paint0_linear)"/>
<g opacity="0.6" filter="url(#filter0_f)">
<path d="M1650.67 1378.93C1966.57 1378.93 2222.67 1122.9 2222.67 807.074C2222.67 491.244 1966.57 235.214 1650.67 235.214C1334.76 235.214 1078.67 491.244 1078.67 807.074C1078.67 1122.9 1334.76 1378.93 1650.67 1378.93Z" fill="#FEF1F1"/>
</g>
<path d="M862.85 443.269C743.549 444.717 711.695 485.436 625.775 483.603C539.855 481.769 406.202 352.519 220.042 352.519C3.65076 352.519 -128.411 551.436 -257.291 676.103C-405.233 819.205 39.1325 977.688 328.237 977.688C399.694 977.688 467.794 969.429 529.847 954.496C601.67 981.337 737.455 1021.69 829.437 1021.69C1082.95 1021.69 1491.94 854.002 1351.32 732.479C1206.53 607.353 1088.79 440.519 862.85 443.269Z" fill="url(#paint1_linear)"/>
<path d="M1920 321.859C1587.28 321.859 1392.18 552.857 1258.57 556.925C1124.97 560.993 1103.06 466.987 866.831 464.943C647.476 463.042 486.903 705.119 266.426 894.193C91.3243 1044.36 34.6107 1193.65 372.727 1193.65C578.577 1193.65 1290.07 1193.65 1920 1193.65C1920 967.871 1920 535.463 1920 321.859Z" fill="url(#paint2_linear)"/>
<rect x="-11" y="666" width="1920" height="356" fill="#DFF5F7"/>
<path d="M1400.53 75.8368C1383.38 76.0294 1370.43 91.7897 1358.08 91.5465C1345.73 91.3032 1327.07 51.2588 1285.57 51.2588C1234.05 51.2588 1209.73 102.695 1195.89 102.695C1180.27 102.695 1171.61 94.0803 1156.3 94.0803C1116.15 94.0803 1123.39 107.763 1093.33 112.577C1157.73 112.577 1374.3 112.577 1477.33 112.577C1432.02 102.695 1433.01 75.4745 1400.53 75.8368Z" fill="url(#paint3_linear)"/>
<path d="M666.133 187.275C633.86 187.464 609.478 202.881 586.236 202.643C562.994 202.405 527.884 163.231 449.782 163.231C352.828 163.231 307.044 213.55 281.01 213.55C251.601 213.55 235.316 205.122 206.499 205.122C130.938 205.122 144.557 218.507 88 223.217C209.193 223.217 616.759 223.217 810.667 223.217C725.383 213.55 727.25 186.921 666.133 187.275Z" fill="url(#paint4_linear)"/>
<path d="M2095.84 1116.26H-102.667V645.816C-102.667 645.816 38.8819 616.551 220.963 616.551C299.701 614.222 416 704.432 522.667 704.432C629.333 704.432 744 768.417 845.333 784.413C876.496 871.329 1024.58 853.067 1072.78 868.019C1144.14 890.144 1133.76 878.711 1227.27 920.632C1303.19 954.669 1332.19 1006.49 1518.54 1024.27C1651.43 1036.95 1887.14 1056.25 1915.44 1087.69C1943.74 1119.13 2120 1116.26 2120 1116.26H2095.84Z" fill="url(#paint5_linear)"/>
<path d="M-0.234741 1141.35H1920V707.431C1920 707.431 1796.37 680.438 1637.33 680.438C1568.56 678.29 1365.33 715.097 1266.67 763.085C1168 811.073 1089.75 793.582 1069.33 853.729C1042.11 933.897 935.434 898.591 893.333 912.382C831.009 932.789 840.069 922.244 758.403 960.91C692.092 992.305 666.763 1040.1 504 1056.5C387.926 1068.2 182.048 1086 157.333 1115C132.618 1144 -21.3334 1141.35 -21.3334 1141.35H-0.234741Z" fill="#91B9D6"/>
<path d="M-0.234741 1141.35H1920V707.431C1920 707.431 1796.37 680.438 1637.33 680.438C1568.56 678.29 1365.33 715.097 1266.67 763.085C1168 811.073 1089.75 793.582 1069.33 853.729C1042.11 933.897 935.434 898.591 893.333 912.382C831.009 932.789 840.069 922.244 758.403 960.91C692.092 992.305 666.763 1040.1 504 1056.5C387.926 1068.2 182.048 1086 157.333 1115C132.618 1144 -21.3334 1141.35 -21.3334 1141.35H-0.234741Z" fill="url(#paint6_linear)"/>
<path d="M1298.67 824.403C1568 659.11 1981.33 720.429 1981.33 720.429L1941.33 1144.33C1941.33 1144.33 1013.33 1144.33 810.667 1144.33C608 1144.33 1029.33 989.696 1298.67 824.403Z" fill="url(#paint7_linear)"/>
<path d="M1298.67 824.403C1568 659.11 1981.33 720.429 1981.33 720.429L1941.33 1144.33C1941.33 1144.33 1013.33 1144.33 810.667 1144.33C608 1144.33 1029.33 989.696 1298.67 824.403Z" fill="url(#paint8_linear)"/>
<g style="mix-blend-mode:multiply" opacity="0.26" filter="url(#filter1_f)">
<path d="M1573.5 880C1573.5 896.845 1528.06 910.5 1472 910.5C1415.94 910.5 1370.5 896.845 1370.5 880C1370.5 863.155 1415.94 849.5 1472 849.5C1528.06 849.5 1573.5 863.155 1573.5 880Z" fill="#80A0B9"/>
</g>
<g clip-path="url(#clip2)">
<path d="M1543.41 699.245C1528.75 721.969 1523.27 744.099 1535.44 751.974C1547.61 759.848 1565.91 745.158 1580.57 722.434C1595.24 699.71 1606.91 674.163 1594.74 666.289C1582.59 658.415 1558.08 676.536 1543.41 699.245Z" fill="#1A3748"/>
<path d="M1557.6 719.13C1542.93 741.854 1537.46 763.985 1549.62 771.859C1561.79 779.733 1580.09 765.043 1594.76 742.319C1609.42 719.595 1621.09 694.049 1608.92 686.174C1596.76 678.3 1572.25 696.406 1557.6 719.13Z" fill="#23526D"/>
<path d="M1389.56 716.484C1382.08 727.694 1359.27 755.502 1354.87 779.012C1351.62 796.347 1358.28 812.689 1364.47 812.689C1368.6 812.689 1364.47 799.859 1375.33 790.51C1374.78 802.682 1375.2 834.066 1391.69 854.385C1412.5 880.043 1426.91 883.251 1431.71 881.647C1436.52 880.043 1442.92 867.214 1442.92 867.214L1442.81 866.412C1451.47 869.01 1460.64 870.421 1470.14 870.421C1480.24 870.421 1489.97 868.834 1499.11 865.915C1500.17 867.904 1506.86 880.172 1511.28 881.647C1516.08 883.251 1530.49 880.043 1551.31 854.385C1559.97 843.704 1577.4 812.689 1577.4 812.689C1574.65 809.016 1571.38 798.544 1569.09 790.237C1576.09 800.052 1583.58 809.113 1593.41 811.085C1601.42 812.689 1608.94 811.229 1607.82 796.652C1606.28 776.734 1572.31 733.371 1548.58 713.261C1527.77 695.62 1548.58 697.224 1546.98 642.699C1545.78 601.981 1509.22 559.307 1468.54 559.307C1427.85 559.307 1351.15 627.881 1383.68 652.321C1390.09 657.132 1396.35 661.975 1398.09 671.565C1401.29 689.205 1397.04 705.29 1389.56 716.484Z" fill="#2E6788"/>
<path d="M1506.96 677.98C1502.65 706.06 1511.76 799.859 1433.31 796.652C1407.7 795.61 1386.89 775.836 1386.89 750.145C1386.89 724.454 1407.7 698.828 1401.29 676.376C1396.46 659.409 1372.62 648.568 1378.88 645.906C1395.63 638.786 1434.74 547.023 1466.93 552.893C1484.55 556.1 1526.65 576.515 1532.57 610.625C1538.98 647.51 1510.16 657.132 1506.96 677.98Z" fill="#F7F7F7"/>
<path d="M1535.78 619.445C1535.78 648.231 1518.09 668.358 1489.35 668.358C1460.61 668.358 1452.53 631.473 1418.91 620.247C1418.91 591.461 1433.95 547.248 1462.13 552.893C1494.15 559.307 1535.78 584.966 1535.78 619.445Z" fill="#DFF6FD"/>
<path d="M1415.7 629.869C1415.7 635.627 1403.14 650.717 1383.68 650.717C1300.43 618.644 1244.4 634.68 1242.8 631.473C1236.31 618.483 1317.8 610.625 1337.26 610.625C1356.84 610.625 1369.18 610.481 1385.28 615.436C1391.06 617.216 1411.14 607.755 1417.3 610.625C1423.47 613.496 1415.7 628.667 1415.7 629.869Z" fill="#E79541"/>
<path d="M1294.38 541.859C1256.31 554.961 1215.58 584.966 1220.38 609.022C1223.15 622.877 1315.64 595.118 1385.28 615.436C1394.41 618.098 1402.9 620.247 1418.91 617.04C1396.49 631.473 1346.01 615.436 1318.04 615.436C1298.59 615.436 1236.31 618.483 1242.8 631.473C1244.4 634.68 1300.43 618.644 1383.68 650.717C1394.75 650.717 1407.7 649.114 1415.7 633.077C1423.23 617.986 1426.91 601.003 1462.13 552.893C1399.69 530.441 1344.49 524.62 1294.38 541.859Z" fill="#F6C351"/>
<path d="M1294.03 609.021C1262.01 612.229 1220.38 621.418 1220.38 609.021C1220.38 596.625 1229.99 562.515 1300.43 540.063C1279.62 560.911 1263.61 583.362 1294.03 609.021Z" fill="#C16E31"/>
<path d="M1469.88 628.009C1479.61 628.009 1487.49 620.111 1487.49 610.369C1487.49 600.626 1479.61 592.728 1469.88 592.728C1460.15 592.728 1452.27 600.626 1452.27 610.369C1452.27 620.111 1460.15 628.009 1469.88 628.009Z" fill="#1A3748"/>
<path d="M1462.68 613.576C1466.21 613.576 1469.08 610.704 1469.08 607.161C1469.08 603.618 1466.21 600.746 1462.68 600.746C1459.14 600.746 1456.27 603.618 1456.27 607.161C1456.27 610.704 1459.14 613.576 1462.68 613.576Z" fill="#F7F7F7"/>
<path d="M1527.77 788.634C1525.42 793.333 1518.81 787.848 1511.76 788.634C1501.08 789.82 1497.35 799.86 1478.14 793.445C1472.67 791.617 1498.95 726.09 1478.14 705.242C1473.08 700.175 1526.43 696.374 1529.37 705.242C1532.57 714.864 1530.97 782.219 1527.77 788.634Z" fill="#CAA7A7"/>
<path d="M1486.15 722.883C1484.55 713.261 1482.94 710.053 1482.94 710.053C1482.94 710.053 1513.36 710.053 1529.37 705.242C1529.37 718.072 1498.95 719.675 1486.15 722.883Z" fill="#9B6969"/>
<path d="M1542.18 706.846C1536.27 718.681 1398.09 713.261 1393.29 710.053C1390.52 708.209 1388.49 698.828 1394.89 689.205C1399.42 682.406 1393.29 673.169 1396.49 666.754C1399.69 660.339 1540.84 669.111 1543.78 677.98C1546.98 687.602 1545.38 700.431 1542.18 706.846Z" fill="#CAA7A7"/>
<path d="M1545.38 535.252C1516.56 516.008 1473.93 521.974 1473.93 535.701C1473.93 549.429 1534.77 585.415 1552.38 625.507C1557.47 620.231 1560.19 615.741 1563.59 609.47C1579 570.533 1554.97 541.667 1545.38 535.252Z" fill="#81A8C5"/>
<path d="M1547.58 638.337C1536.37 614.281 1539.57 606.263 1512.35 580.604C1490.92 560.398 1457.92 561.536 1457.92 546.927C1457.92 539.614 1462.32 531.275 1475.53 532.494C1488.74 533.713 1510.77 544.505 1525.16 558.153C1555.58 587.019 1557.18 625.507 1547.58 638.337Z" fill="#1A3748"/>
</g>
</g>
</g>
<defs>
<filter id="filter0_f" x="878.667" y="35.2139" width="1544" height="1543.72" filterUnits="userSpaceOnUse" color-interpolation-filters="sRGB">
<feFlood flood-opacity="0" result="BackgroundImageFix"/>
<feBlend mode="normal" in="SourceGraphic" in2="BackgroundImageFix" result="shape"/>
<feGaussianBlur stdDeviation="100" result="effect1_foregroundBlur"/>
</filter>
<filter id="filter1_f" x="1340.5" y="819.5" width="263" height="121" filterUnits="userSpaceOnUse" color-interpolation-filters="sRGB">
<feFlood flood-opacity="0" result="BackgroundImageFix"/>
<feBlend mode="normal" in="SourceGraphic" in2="BackgroundImageFix" result="shape"/>
<feGaussianBlur stdDeviation="15" result="effect1_foregroundBlur"/>
</filter>
<linearGradient id="paint0_linear" x1="954.5" y1="-2" x2="954.5" y2="1022" gradientUnits="userSpaceOnUse">
<stop stop-color="#CDE4F4"/>
<stop offset="1" stop-color="white"/>
</linearGradient>
<linearGradient id="paint1_linear" x1="547.448" y1="281.695" x2="547.448" y2="627.547" gradientUnits="userSpaceOnUse">
<stop stop-color="#F6E1E3" stop-opacity="0.72"/>
<stop offset="1" stop-color="#91B9D6" stop-opacity="0"/>
</linearGradient>
<linearGradient id="paint2_linear" x1="1090.67" y1="859.062" x2="1010.91" y2="83.2257" gradientUnits="userSpaceOnUse">
<stop stop-color="#D6E7F9"/>
<stop offset="1" stop-color="#F9E1E1"/>
</linearGradient>
<linearGradient id="paint3_linear" x1="1285.33" y1="-7.39355" x2="1272.01" y2="149.902" gradientUnits="userSpaceOnUse">
<stop stop-color="#F9E1E1"/>
<stop offset="1" stop-color="#C5DEF5"/>
</linearGradient>
<linearGradient id="paint4_linear" x1="449.333" y1="128.573" x2="449.333" y2="253.876" gradientUnits="userSpaceOnUse">
<stop stop-color="#F9E1E1"/>
<stop offset="1" stop-color="#C5DEF5"/>
</linearGradient>
<linearGradient id="paint5_linear" x1="1368" y1="1632.21" x2="-212.935" y2="0.218384" gradientUnits="userSpaceOnUse">
<stop stop-color="#D6E7F9"/>
<stop offset="0.50258" stop-color="#AACDDC"/>
<stop offset="0.989483" stop-color="#EAE4EC"/>
<stop offset="0.989583" stop-color="#AACDDC"/>
</linearGradient>
<linearGradient id="paint6_linear" x1="837.333" y1="411.171" x2="949.28" y2="1141.42" gradientUnits="userSpaceOnUse">
<stop stop-color="#E9E4ED"/>
<stop offset="1" stop-color="#A7C6DE" stop-opacity="0"/>
</linearGradient>
<linearGradient id="paint7_linear" x1="1369.34" y1="709.305" x2="1703.86" y2="1490.97" gradientUnits="userSpaceOnUse">
<stop stop-color="#7A9CB6"/>
<stop offset="1" stop-color="#7A9CB6" stop-opacity="0"/>
</linearGradient>
<linearGradient id="paint8_linear" x1="1088" y1="261.874" x2="1369.21" y2="1144.37" gradientUnits="userSpaceOnUse">
<stop stop-color="#F4E1E4"/>
<stop offset="1" stop-color="#4C6B89" stop-opacity="0"/>
</linearGradient>
<clipPath id="clip0">
<rect width="1920" height="1080" fill="white"/>
</clipPath>
<clipPath id="clip1">
<rect y="-254" width="1920" height="1365" fill="white"/>
</clipPath>
<clipPath id="clip2">
<rect x="1220" y="523" width="394" height="359" fill="white"/>
</clipPath>
</defs>
</svg>
