<svg width="1920" height="1080" viewBox="0 0 1920 1080" fill="none" xmlns="http://www.w3.org/2000/svg">
<g clip-path="url(#clip0)">
<rect width="1920" height="1080" fill="white"/>
<g clip-path="url(#clip1)">
<rect y="-143" width="1920" height="1365" fill="white"/>
<rect y="-143" width="2061" height="1024" fill="url(#paint0_linear)"/>
<path d="M489.678 178.796C451.047 179.612 440.732 202.479 412.911 201.458C385.091 200.417 341.818 127.81 281.536 127.81C211.464 127.81 201.771 287.845 87.8682 336.178C232.933 336.178 448.92 336.178 681.024 336.178C578.952 294.29 562.834 177.249 489.678 178.796Z" fill="url(#paint1_linear)"/>
<path d="M1662.67 202.96C1630.81 203.634 1606.74 258.795 1583.8 257.943C1560.86 257.092 1526.2 116.937 1449.11 116.937C1353.41 116.937 1308.22 296.964 1282.52 296.964C1253.49 296.964 1237.41 266.812 1208.97 266.812C1134.38 266.812 1147.83 314.701 1092 331.551C1211.63 331.551 1613.93 331.551 1805.33 331.551C1721.15 296.964 1722.99 201.691 1662.67 202.96Z" fill="url(#paint2_linear)"/>
<path d="M977.067 96.2088C965.098 96.4642 956.056 117.364 947.437 117.041C938.818 116.719 925.797 63.6162 896.833 63.6162C860.878 63.6162 843.899 131.825 834.244 131.825C823.338 131.825 817.299 120.401 806.612 120.401C778.59 120.401 783.641 138.546 762.667 144.93C807.611 144.93 958.756 144.93 1030.67 144.93C999.039 131.825 999.732 95.7283 977.067 96.2088Z" fill="url(#paint3_linear)"/>
<g opacity="0.5" filter="url(#filter0_f)">
<path d="M1546 667.469C1657.56 667.469 1748 577.052 1748 465.518C1748 353.984 1657.56 263.567 1546 263.567C1434.44 263.567 1344 353.984 1344 465.518C1344 577.052 1434.44 667.469 1546 667.469Z" fill="white"/>
</g>
<path d="M1546 667.469C1657.56 667.469 1748 577.052 1748 465.518C1748 353.984 1657.56 263.567 1546 263.567C1434.44 263.567 1344 353.984 1344 465.518C1344 577.052 1434.44 667.469 1546 667.469Z" fill="#FFFCF2"/>
<path opacity="0.14" d="M1249.48 384.511C1174.1 386.1 1112.52 550.99 1058.2 550.99C899.17 550.99 832.279 273.882 649.873 273.882C423.442 273.882 381.857 519.843 321.058 519.843C252.372 519.843 209.304 394.177 87.879 398.474C-119.425 405.809 -188.368 789.357 -320.453 829.172C-37.4144 829.172 1139.03 829.366 1591.91 829.366C1392.73 747.63 1392.22 381.493 1249.48 384.511Z" stroke="url(#paint4_linear)" stroke-width="5" stroke-miterlimit="10"/>
<path d="M1113.01 626.175C1032.44 627.872 1010.92 675.582 952.898 673.433C894.872 671.285 804.609 519.843 678.886 519.843C532.746 519.843 443.558 752.914 356.519 898.986C256.606 1066.66 556.709 1252.35 751.956 1252.35C800.214 1252.35 846.205 1242.68 888.113 1225.18C936.618 1256.63 1028.32 1303.91 1090.44 1303.91C1261.65 1303.91 1537.87 1107.43 1442.9 965.041C1345.11 818.432 1265.59 622.952 1113.01 626.175Z" fill="url(#paint5_linear)"/>
<path d="M68.9024 738.511C10.4787 730.047 -2.39453 736.803 -2.39453 736.803L-0.825686 818.432C84.5694 818.432 14.0569 818.432 194.25 818.432C171.533 793.728 138.63 748.618 68.9024 738.511Z" fill="#E09643"/>
<path d="M1920 316.888C1730.76 316.888 1619.79 569.785 1543.8 574.238C1467.81 578.691 1455.34 475.773 1320.99 473.536C1196.22 471.454 1104.89 736.48 979.491 943.479C879.898 1107.88 847.641 1271.32 1039.95 1271.32C1157.03 1271.32 1561.71 1271.32 1920 1271.32C1920 1024.14 1920 550.741 1920 316.888Z" fill="url(#paint6_linear)"/>
<path d="M1920 818.432H-0.234619V1252.35H1920V818.432Z" fill="#4E928F"/>
<path d="M-2.38379 1252.35H1917.85V818.432C1917.85 818.432 1409.59 818.432 1250.55 818.432C1181.78 816.284 941.078 818.432 840.07 818.432C881.977 936.579 574.847 883.047 532.746 896.838C470.422 917.245 559.61 954.838 488.689 974.171C412.782 994.868 286.705 926.386 230.795 929.06C176.433 931.67 235.996 981.195 199.633 999.948C133.011 1034.32 -2.38379 988.133 -2.38379 988.133V1252.35V1252.35Z" fill="url(#paint7_linear)"/>
<path d="M-0.234619 1252.35H1920V818.432C1920 818.432 1411.73 818.432 1252.7 818.432C1183.93 816.284 1244.87 824.973 1215.09 858.172C1185.31 891.371 979.762 849.58 959.345 909.727C932.127 989.895 839.188 967.898 797.087 981.689C734.763 1002.1 840.07 1033.24 758.403 1071.91C692.092 1103.31 338.756 1044.77 175.993 1061.17C59.9191 1072.87 135.16 1138.5 110.445 1167.5C85.73 1196.5 -0.234619 1179.32 -0.234619 1179.32V1252.35V1252.35Z" fill="url(#paint8_linear)"/>
<path d="M1727 924H1815" stroke="#ECDEBC" stroke-width="10" stroke-linecap="round"/>
<path d="M1325 1014H1362" stroke="#ECDEBC" stroke-width="10" stroke-linecap="round"/>
<path d="M1374 671H1465" stroke="#ECDEBC" stroke-width="10" stroke-linecap="round"/>
<path d="M1863 785H1954" stroke="#ECDEBC" stroke-width="10" stroke-linecap="round"/>
<path d="M843 1014H896" stroke="#ECDEBC" stroke-width="10" stroke-linecap="round"/>
<path d="M1540 847H1593" stroke="#ECDEBC" stroke-width="10" stroke-linecap="round"/>
<path d="M1762 853H1815" stroke="#ECDEBC" stroke-width="10" stroke-linecap="round"/>
<path d="M1863 635L1890 635" stroke="#ECDEBC" stroke-width="10" stroke-linecap="round"/>
<path d="M1859 655H1872" stroke="#ECDEBC" stroke-width="10" stroke-linecap="round"/>
<path d="M1400 1037L1483 1037" stroke="#ECDEBC" stroke-width="10" stroke-linecap="round"/>
<path d="M1520 939H1532" stroke="#ECDEBC" stroke-width="10" stroke-linecap="round"/>
<path d="M1080 1037H1092" stroke="#ECDEBC" stroke-width="10" stroke-linecap="round"/>
<path d="M1644 1014H1656" stroke="#ECDEBC" stroke-width="10" stroke-linecap="round"/>
<path d="M77.1336 782.988C113.669 839.913 113.669 879.653 113.669 879.653C113.669 879.653 155.576 846.357 142.682 670.211C182.44 621.878 230.795 502.658 246.914 398.474C324.282 500.509 469.347 1069.76 -124.883 1184.69C-45.366 1152.47 68.5371 911.875 77.1336 782.988Z" fill="#19542A"/>
<g opacity="0.52" filter="url(#filter1_f)">
<ellipse cx="1496.5" cy="809.5" rx="101.5" ry="30.5" fill="#D4C69F"/>
</g>
<path d="M38.3849 1356.3C80.153 1314.63 114.034 1307.27 114.034 1307.27C114.034 1307.27 77.8856 1277.74 -69.9091 1321.37C-118.479 1296.46 -229.094 1277.37 -320.904 1282.94C-248.243 1198.13 210.207 969.08 418.306 1453.94C376.097 1392.17 149.87 1339.74 38.3849 1356.3Z" fill="#19542A"/>
<path d="M1777.78 941.68C1836.79 941.739 1865.95 960.488 1865.95 960.488C1865.95 960.488 1861.28 914.056 1725.91 840.425C1709.18 788.477 1644.47 696.776 1575.61 635.814C1686.97 627.212 2173.15 789.34 1977.37 1279.3C1991.21 1205.79 1868.33 1008.78 1777.78 941.68Z" fill="#19542A"/>
<path d="M-209.993 1158.93C-154.825 1157.84 -85.5948 1147.03 -24.0662 1132.99C-6.62875 1152.44 48.3338 1209.89 87.4815 1207.59C124.26 1205.43 194.572 1169.74 212.962 1157.84C187 1140.54 148.058 1105.93 137.241 1082.14C175.101 1111.34 211.88 1130.81 234.596 1136.21C254.619 1140.98 336.279 1071.33 337.36 1050.78C317.889 1039.96 296.255 1026.99 284.356 1012.93C272.457 998.869 324.38 1033.48 346.014 1024.82C381.711 999.95 386.038 948.04 409.836 930.737C407.673 919.922 394.692 913.433 394.692 913.433C394.692 913.433 399.019 909.107 410.918 912.352C413.081 897.211 405.509 887.478 419.572 873.419C352.505 875.582 189.164 1038.88 111.279 1047.53C109.116 1064.84 87.4815 1090.79 87.4815 1090.79C87.4815 1090.79 93.9718 1075.65 87.4815 1062.68C46.3759 1092.96 -1.22012 1069.16 -27.2356 1112.17C-78.0227 1132.97 -168.888 1148.11 -207.83 1148.11C-207.83 1148.11 -215.402 1151.36 -209.993 1158.93Z" fill="#1B3E25"/>
<path d="M2054.65 959.777C2015.35 921.053 1972.54 865.593 1937.54 813.09C1911.5 815.212 1832.08 819.118 1805.25 790.524C1780.04 763.661 1753.56 689.403 1748.4 668.122C1779.15 673.417 1831.22 675.079 1855.45 665.249C1807.88 660.406 1767.79 649.242 1747.58 637.545C1729.76 627.237 1718.42 520.52 1731.77 504.862C1753.35 510.402 1777.98 515.861 1796.29 513.84C1814.6 511.819 1753.1 501.229 1743.35 480.071C1734.55 437.468 1767.13 396.815 1761.76 367.889C1770.77 361.528 1784.66 365.745 1784.66 365.745C1784.66 365.745 1784.5 359.629 1773.63 353.801C1782.47 341.324 1794.67 339.467 1794.13 319.592C1841.32 367.284 1847.52 598.143 1898.1 657.985C1887.77 672.032 1885.61 705.749 1885.61 705.749C1885.61 705.749 1891.32 690.296 1904.96 685.34C1913.96 735.588 1964.87 751.051 1954.16 800.16C1976.72 850.181 2032.25 923.659 2060.52 950.44C2060.52 950.44 2063.78 958.002 2054.65 959.777Z" fill="#1B3E25"/>
<path d="M1932.14 -80.0864C1903.77 -52.7546 1895 -41.8972 1883.03 -36.803C1865.53 -39.611 1843.74 -47.8438 1818.04 -55.5453C1719.01 -85.2052 1655.34 -8.96347 1632.71 46.0419C1612.21 95.8588 1589.99 138.911 1520 232.201C1578.03 208.165 1622.39 246.528 1670.86 258.829C1854.14 305.331 1947.12 194.711 1958.08 78.9196C1912.74 45.038 1921.46 19.7956 1918.82 -12.7426C1841.2 88.7165 1709.76 139.57 1709.76 139.57C1709.76 139.57 1796.35 94.633 1844.79 41.348C1882.18 0.225276 1917.22 -33.84 1917.22 -33.84C1917.22 -33.84 2061.16 -201.983 2031.12 -218.141C2031.12 -218.141 1960.51 -107.418 1932.14 -80.0864Z" fill="#19542A"/>
<path d="M320.795 153.18C298.95 130.097 199.42 153.15 192.699 116.717C233.18 124.355 267.13 77.2627 322.822 109.622C330.462 69.1508 287.856 54.8012 281.234 28.4981C190.891 10.51 142.882 92.1533 107.283 67.635C146.725 64.8107 181.556 -6.41536 261.186 6.44305C269.617 -29.735 212.997 -23.7472 192.451 -58.1402C124.124 -81.9582 5.43585 40.2239 -10.9058 33.4672C30.5025 2.75794 19.4277 -57.3506 134.046 -81.122C68.8826 -87.7661 76.0255 -140.576 6.77071 -126.046C-48.8248 -108.137 -73.6662 26.9488 -131.062 27.1843C-79.7008 -15.4436 -95.5067 -102.772 -26.9976 -135.808C-76.2713 -162.247 -130.873 -119.662 -169.93 -153.31C-170.947 -86.535 -241.272 -69.7133 -214.149 5.19656C-301.282 -9.83123 -567.513 26.4478 -653.381 119.502C-668.186 135.546 -665.797 146.968 -665.797 146.968C-381.627 -53.9515 -69.417 40.3715 127.972 138.083C-12.3831 89.6015 -184.574 51.2442 -263.665 51.2845C-319.727 100.398 -274.949 160.515 -307.093 214.084C-310.732 261.809 -227.818 250.66 -200.063 295.267C-209.261 235.7 -156.258 185.987 -162.496 123.212C-132.909 182.575 -195.926 259.88 -157.283 342.754C-111.965 347.725 -98.3963 379.532 -38.0698 388.843C-105.877 285.912 -45.0301 216.11 -59.1112 173.424C3.70112 244.425 -80.1553 295.381 -1.63436 403.441C35.9767 385.861 106.399 429.145 155.696 364.133C77.1818 334.769 82.6299 224.562 39.6327 167.989C101.232 195.389 96.3265 303.72 164.873 346.462C190.127 330.838 223.414 326.803 245.678 327.142C196.931 300.286 162.847 221.332 151.93 195.819C188.523 245.014 232.124 284.039 276.96 275.214C315.611 268.096 326.167 238.63 363.484 229.094C320.923 200.531 347.263 181.155 320.795 153.18Z" fill="#19542A"/>
<path d="M148.629 513.513C144.014 526.36 100.88 534.444 104.518 549.937C119.128 539.955 140.605 552.632 156.937 530.301C166.922 544.908 152.633 557.897 154.563 569.387C122.12 592.034 89.1533 568.187 79.3748 583.968C95.3799 578.282 121.366 600.302 150.478 581.519C160.033 594.3 136.724 601.703 134.571 618.775C111.795 639.922 44.0302 612.306 38.7657 617.781C60.3528 622.727 66.3601 648.285 115.555 637.883C91.0623 651.728 102.979 671.275 73.2256 677.494C48.2638 680.03 15.1971 631.162 -7.42536 640.962C20.1326 648.881 28.972 685.964 61.623 687.155C46.7955 706.049 17.97 698.705 8.40515 718.675C-3.50929 692.578 -34.0785 698.08 -36.3241 663.932C-68.0148 684.862 -179.017 716.473 -228.847 694.66C-237.438 690.899 -238.468 685.994 -238.468 685.994C-92.0182 716.068 14.5544 625.149 75.3669 552.686C28.5052 595.95 -32.628 640.718 -63.7527 654.333C-94.2788 644.672 -87.0273 613.302 -108.911 597.766C-118.572 579.616 -84.0278 569.713 -80.7991 547.379C-74.1472 572.4 -44.7212 582.824 -36.351 608.598C-34.9465 580.143 -73.0698 560.589 -72.1562 521.322C-55.1833 511.556 -55.3293 496.703 -33.1997 482.643C-42.1295 534.827 -6.15358 551.803 -4.33326 571.024C8.13701 532.264 -33.6421 526.668 -21.3816 470.62C-3.55244 471.054 16.6912 441.888 47.2968 458.97C21.4693 484.055 42.6158 526.476 35.454 556.145C54.9651 534.747 34.3553 492.971 53.9544 464.341C66.5848 466.135 80.3768 461.986 89.0778 458.015C74.5296 476.983 74.7337 513.922 74.8377 525.841C80.7524 500.179 91.1774 477.31 110.34 473.055C126.774 469.194 136.008 478.968 152.334 476.288C140.514 494.861 154.218 497.945 148.629 513.513Z" fill="#1B3E25"/>
<path d="M1710.38 1128.94C1714.65 1140.83 1754.56 1148.31 1751.2 1162.65C1737.68 1153.41 1717.8 1165.14 1702.69 1144.48C1693.45 1157.99 1706.67 1170.01 1704.88 1180.65C1734.91 1201.61 1765.41 1179.54 1774.46 1194.14C1759.65 1188.88 1735.61 1209.26 1708.66 1191.87C1699.82 1203.7 1721.39 1210.55 1723.38 1226.35C1744.46 1245.92 1807.17 1220.37 1812.04 1225.43C1792.07 1230.01 1786.51 1253.66 1740.98 1244.03C1763.65 1256.85 1752.62 1274.94 1780.15 1280.69C1803.25 1283.04 1833.85 1237.81 1854.79 1246.88C1829.29 1254.21 1821.11 1288.53 1790.89 1289.63C1804.61 1307.12 1831.29 1300.32 1840.14 1318.8C1851.17 1294.65 1879.45 1299.74 1881.53 1268.14C1910.86 1287.51 2013.58 1316.76 2059.69 1296.58C2067.65 1293.1 2068.6 1288.56 2068.6 1288.56C1933.07 1316.39 1834.45 1232.25 1778.17 1165.19C1821.54 1205.23 1878.11 1246.66 1906.92 1259.26C1935.16 1250.32 1928.45 1221.29 1948.71 1206.91C1957.65 1190.11 1925.68 1180.95 1922.69 1160.28C1916.53 1183.44 1889.3 1193.08 1881.56 1216.93C1880.26 1190.6 1915.54 1172.51 1914.69 1136.17C1898.99 1127.13 1899.12 1113.39 1878.64 1100.37C1886.9 1148.66 1853.61 1164.37 1851.93 1182.16C1840.39 1146.29 1879.05 1141.12 1867.7 1089.25C1851.21 1089.65 1832.47 1062.66 1804.15 1078.47C1828.05 1101.68 1808.48 1140.94 1815.11 1168.39C1797.05 1148.59 1816.13 1109.93 1797.99 1083.44C1786.3 1085.1 1773.54 1081.26 1765.48 1077.58C1778.95 1095.14 1778.76 1129.32 1778.66 1140.35C1773.19 1116.6 1763.54 1095.44 1745.81 1091.5C1730.6 1087.93 1722.06 1096.97 1706.95 1094.49C1717.88 1111.68 1705.2 1114.53 1710.38 1128.94Z" fill="#1B3E25"/>
<g opacity="0.52" filter="url(#filter2_f)">
<ellipse cx="1419.5" cy="908.5" rx="101.5" ry="30.5" fill="#D4C69F"/>
</g>
<path d="M1420.91 583.562C1428.11 586.652 1404.89 602.499 1394.87 602.499C1384.85 602.499 1367.25 597.722 1367.25 589.877C1367.25 582.032 1373.01 574.097 1383.03 574.097C1392.5 572.522 1409.86 578.829 1420.91 583.562Z" fill="#1A3748"/>
<path d="M1486.83 730.717C1472.37 753.067 1466.98 774.854 1478.97 782.601C1490.95 790.349 1509 775.896 1523.45 753.539C1537.91 731.19 1549.41 706.042 1537.43 698.295C1525.44 690.555 1501.28 708.367 1486.83 730.717Z" fill="#1A3748"/>
<path d="M1500.8 750.277C1486.35 772.626 1480.95 794.413 1492.94 802.161C1504.93 809.908 1522.97 795.456 1537.43 773.099C1551.88 750.749 1563.39 725.602 1551.4 717.855C1539.41 710.107 1515.26 727.927 1500.8 750.277Z" fill="#23526D"/>
<path d="M1335.16 747.689C1327.79 758.714 1305.29 786.089 1300.96 809.203C1297.76 826.266 1304.32 842.338 1310.42 842.338C1314.49 842.338 1310.42 829.715 1321.13 820.513C1320.59 832.49 1321 863.36 1337.26 883.362C1357.77 908.607 1371.98 911.764 1376.71 910.189C1381.45 908.614 1387.76 895.985 1387.76 895.985L1387.65 895.197C1396.19 897.747 1405.23 899.142 1414.6 899.142C1424.56 899.142 1434.15 897.575 1443.16 894.702C1444.21 896.66 1450.81 908.734 1455.16 910.182C1459.89 911.757 1474.1 908.607 1494.62 883.355C1503.15 872.855 1520.34 842.33 1520.34 842.33C1517.63 838.723 1514.41 828.411 1512.15 820.236C1519.05 829.895 1526.43 838.813 1536.12 840.755C1544.01 842.33 1551.43 840.89 1550.33 826.551C1548.82 806.961 1515.33 764.286 1491.94 744.502C1471.42 727.147 1491.94 728.722 1490.36 675.075C1489.18 635.003 1453.12 593.026 1413.03 593.026C1372.93 593.026 1297.3 660.496 1329.38 684.548C1335.7 689.28 1341.87 694.043 1343.58 703.485C1346.73 720.84 1342.52 736.664 1335.16 747.689Z" fill="#2E6788"/>
<path d="M1450.89 709.8C1446.64 737.437 1455.62 829.723 1378.29 826.565C1353.03 825.538 1332.52 806.076 1332.52 780.809C1332.52 755.542 1353.04 730.319 1346.72 708.225C1341.95 691.538 1318.45 680.873 1324.63 678.248C1341.14 671.235 1379.7 580.959 1411.43 586.727C1428.79 589.884 1470.3 609.969 1476.14 643.531C1482.46 679.815 1454.05 689.288 1450.89 709.8Z" fill="#F7F7F7"/>
<path d="M1479.3 652.201C1479.3 680.52 1461.86 700.328 1433.53 700.328C1405.2 700.328 1397.23 664.036 1364.09 652.988C1364.09 624.669 1378.93 581.162 1406.71 586.719C1438.26 593.034 1479.3 618.279 1479.3 652.201Z" fill="#DFF6FD"/>
<path d="M1417.75 654.571C1407.63 654.571 1399.23 648.361 1397.55 640.208C1397.34 641.281 1397.23 642.391 1397.23 643.531C1397.23 653.116 1405 660.886 1414.59 660.886C1421.52 660.886 1427.48 656.813 1430.27 650.948C1426.8 653.206 1422.47 654.571 1417.75 654.571Z" fill="#1E1D1D"/>
<path d="M1360.93 662.461C1360.93 668.123 1348.54 682.973 1329.36 682.973C1247.3 651.413 1192.06 667.193 1190.48 664.036C1184.09 651.256 1264.42 643.523 1283.6 643.523C1302.9 643.523 1315.06 643.381 1330.95 648.256C1336.65 650.003 1356.44 640.703 1362.51 643.523C1368.58 646.343 1360.93 661.276 1360.93 662.461Z" fill="#E79541"/>
<path d="M1241.33 575.867C1203.8 588.752 1163.65 618.279 1168.38 641.948C1171.11 655.591 1262.28 628.276 1330.94 648.263C1339.93 650.881 1348.3 652.996 1364.08 649.838C1341.99 664.035 1292.22 648.263 1264.65 648.263C1245.47 648.263 1184.08 651.263 1190.47 664.043C1192.05 667.2 1247.29 651.421 1329.36 682.98C1340.27 682.98 1353.03 681.405 1360.92 665.625C1368.35 650.783 1371.97 634.066 1406.69 586.734C1345.15 564.632 1290.72 558.91 1241.33 575.867Z" fill="#F6C351"/>
<path d="M1240.99 641.948C1209.42 645.106 1168.39 654.151 1168.39 641.948C1168.39 629.746 1177.86 596.191 1247.3 574.097C1226.78 594.609 1211 616.704 1240.99 641.948Z" fill="#C16E31"/>
<path d="M1472.99 616.704C1472.99 620.386 1471.41 619.861 1465.1 624.594C1463.29 625.943 1460.14 622.651 1458.78 624.594C1447.73 640.373 1431.36 669.563 1416.16 664.043C1398.81 657.728 1384.6 646.688 1381.44 643.531C1381.44 624.594 1392.49 599.349 1403.53 577.262C1435.11 586.719 1457.21 600.924 1472.99 616.704Z" fill="#1A3748"/>
<path d="M1450.89 621.436C1447.73 634.058 1430.37 656.153 1422.48 656.153C1412.5 656.153 1397.23 648.263 1390.91 638.798C1390.91 623.109 1400.38 604.081 1406.7 589.884C1421.52 589.877 1450.89 605.746 1450.89 621.436Z" fill="#23526D"/>
<path d="M1441.42 616.704C1438.26 610.389 1431.96 608.814 1431.96 605.656C1437.17 605.656 1446.16 613.546 1446.16 619.861C1444.59 627.751 1439.47 635.641 1436.7 635.641C1433.18 635.634 1444.58 623.011 1441.42 616.704Z" fill="#2E6788"/>
</g>
</g>
<defs>
<filter id="filter0_f" x="1264" y="183.567" width="564" height="563.901" filterUnits="userSpaceOnUse" color-interpolation-filters="sRGB">
<feFlood flood-opacity="0" result="BackgroundImageFix"/>
<feBlend mode="normal" in="SourceGraphic" in2="BackgroundImageFix" result="shape"/>
<feGaussianBlur stdDeviation="40" result="effect1_foregroundBlur"/>
</filter>
<filter id="filter1_f" x="1365" y="749" width="263" height="121" filterUnits="userSpaceOnUse" color-interpolation-filters="sRGB">
<feFlood flood-opacity="0" result="BackgroundImageFix"/>
<feBlend mode="normal" in="SourceGraphic" in2="BackgroundImageFix" result="shape"/>
<feGaussianBlur stdDeviation="15" result="effect1_foregroundBlur"/>
</filter>
<filter id="filter2_f" x="1288" y="848" width="263" height="121" filterUnits="userSpaceOnUse" color-interpolation-filters="sRGB">
<feFlood flood-opacity="0" result="BackgroundImageFix"/>
<feBlend mode="normal" in="SourceGraphic" in2="BackgroundImageFix" result="shape"/>
<feGaussianBlur stdDeviation="15" result="effect1_foregroundBlur"/>
</filter>
<linearGradient id="paint0_linear" x1="1030.5" y1="-143" x2="1030.5" y2="881" gradientUnits="userSpaceOnUse">
<stop stop-color="#5EC1BC"/>
<stop offset="1" stop-color="#FDFFEA"/>
</linearGradient>
<linearGradient id="paint1_linear" x1="384.446" y1="127.81" x2="384.446" y2="336.178" gradientUnits="userSpaceOnUse">
<stop stop-color="#E8F5EE" stop-opacity="0.8"/>
<stop offset="1" stop-color="#E6F3F0" stop-opacity="0.2"/>
</linearGradient>
<linearGradient id="paint2_linear" x1="1448.67" y1="116.937" x2="1448.67" y2="331.551" gradientUnits="userSpaceOnUse">
<stop stop-color="#E8F5EE" stop-opacity="0.7"/>
<stop offset="1" stop-color="#E6F3F0" stop-opacity="0.2"/>
</linearGradient>
<linearGradient id="paint3_linear" x1="896.667" y1="63.6162" x2="896.667" y2="144.93" gradientUnits="userSpaceOnUse">
<stop stop-color="#E8F5EE" stop-opacity="0.7"/>
<stop offset="1" stop-color="#E6F3F0" stop-opacity="0.2"/>
</linearGradient>
<linearGradient id="paint4_linear" x1="117.333" y1="404.866" x2="1544" y2="404.866" gradientUnits="userSpaceOnUse">
<stop stop-color="white"/>
<stop offset="1" stop-color="white" stop-opacity="0"/>
</linearGradient>
<linearGradient id="paint5_linear" x1="900" y1="436.858" x2="900" y2="842.093" gradientUnits="userSpaceOnUse">
<stop stop-color="#D28A3D"/>
<stop offset="1" stop-color="#E89D46"/>
</linearGradient>
<linearGradient id="paint6_linear" x1="1410" y1="316.888" x2="1410.13" y2="1007.79" gradientUnits="userSpaceOnUse">
<stop stop-color="#DE852B"/>
<stop offset="1" stop-color="#F4BE6D"/>
</linearGradient>
<linearGradient id="paint7_linear" x1="1365.33" y1="924.739" x2="-61.3334" y2="924.739" gradientUnits="userSpaceOnUse">
<stop stop-color="#5EC1BC"/>
<stop offset="1" stop-color="#5EC1BC" stop-opacity="0"/>
</linearGradient>
<linearGradient id="paint8_linear" x1="712" y1="1191.34" x2="2149.33" y2="1191.34" gradientUnits="userSpaceOnUse">
<stop stop-color="#F1EAD9"/>
<stop offset="1" stop-color="#F3E6C6"/>
</linearGradient>
<clipPath id="clip0">
<rect width="1920" height="1080" fill="white"/>
</clipPath>
<clipPath id="clip1">
<rect y="-143" width="1920" height="1365" fill="white"/>
</clipPath>
</defs>
</svg>
